<?xml version="1.0" standalone="no"?>
<!DOCTYPE svg PUBLIC "-//W3C//DTD SVG 1.1//EN" "http://www.w3.org/Graphics/SVG/1.1/DTD/svg11.dtd" >
<svg xmlns="http://www.w3.org/2000/svg">
<metadata>
Created by FontPrep 20130207 at Mon May 18 22:54:54 2015
 By Christian Reichel
Copyright (c) 2010-2015, Sorkin Type Co (www.sorkintype.com) with Reserved Font Name 'Merriweather'
</metadata>
<defs>
<font id="bf49ac111abebf0ff978564ba734a014" horiz-adv-x='1024' >
  <font-face 
    font-family="Merriweather-Bold"
    font-weight="700"
    font-stretch="normal"
    units-per-em="2048"
    panose-1="2 6 5 3 5 4 6 3 7 4"
    ascent="1638"
    descent="-410"
    x-height="1137"
    cap-height="1522"
    bbox="-260 -560 3035 2014"
    underline-thickness="96"
    underline-position="-74"
    unicode-range="U+000D-FB02"
  />
<missing-glyph horiz-adv-x="1770" 
d="M559 252l324 353l337 -353l113 113l-348 343l348 334l-119 116l-328 -351l-333 352l-114 -116l344 -338l-343 -318zM177 1416h1416v-1416h-1416v1416z" />
    <glyph glyph-name=".notdef" horiz-adv-x="1770" 
d="M559 252l324 353l337 -353l113 113l-348 343l348 334l-119 116l-328 -351l-333 352l-114 -116l344 -338l-343 -318zM177 1416h1416v-1416h-1416v1416z" />
    <glyph glyph-name=".null" horiz-adv-x="0" 
 />
    <glyph glyph-name=".null" horiz-adv-x="0" 
 />
    <glyph glyph-name="nonmarkingreturn" unicode="&#xd;" horiz-adv-x="0" 
 />
    <glyph glyph-name="space" unicode=" " horiz-adv-x="573" 
 />
    <glyph glyph-name="exclam" unicode="!" horiz-adv-x="721" 
d="M233 283.5q59 52.5 143 52.5t132 -49t48 -105q0 -99 -58 -149t-139 -50t-133 47.5t-52 123.5q0 77 59 129.5zM166 1795h371l-79 -1257h-203z" />
    <glyph glyph-name="quotedbl" unicode="&#x22;" horiz-adv-x="1306" 
d="M785 1715h298l-54 -834h-191zM223 1715h298l-54 -834h-191z" />
    <glyph glyph-name="numbersign" unicode="#" horiz-adv-x="1523" 
d="M897 523l40 344h-282l-34 -344h276zM181 867v170h256l33 336h243l-34 -336h281l34 336h243l-35 -336h228v-170h-251l-33 -344h240l1 -170h-262l-36 -353h-242l35 353h-282l-38 -353h-244l39 353h-208l-2 170h231l35 344h-232z" />
    <glyph glyph-name="dollar" unicode="$" horiz-adv-x="1370" 
d="M499 1206q0 -50 29.5 -96t77 -84.5t107.5 -71.5t131 -72q189 -104 287 -202t98 -258q0 -265 -164.5 -345.5t-287.5 -93.5l-2 -241h-183l2 238q-173 10 -284 45.5t-132 41.5l17 364h188l54 -242q68 -72 220 -72q240 0 240 215q0 96 -84.5 166t-213.5 136
q-128 65 -272 159.5t-144 344.5q0 150 113.5 260.5t309.5 135.5v228h183v-224q184 -16 347 -73l-13 -337h-184l-49 225q-53 55 -164 53q-157 0 -192 -75t-35 -125z" />
    <glyph glyph-name="percent" unicode="%" horiz-adv-x="2185" 
d="M1541 472q0 -207 49 -259.5t90 -52.5q79 0 111 79t32 180q0 175 -32 265t-106 90q-144 0 -144 -302zM1394 788q121 121 314 121t287 -120.5t94 -323.5t-123 -321.5t-305 -118.5t-285 124t-103 321t121 318zM505 1391q-144 0 -144 -303q0 -206 49.5 -258.5t90.5 -52.5
q77 0 109 79t32 181q0 179 -32 266.5t-105 87.5zM196 766q-103 124 -103 322q0 197 121 318t313 121t287 -120t95 -323q0 -204 -122.5 -323t-304.5 -119q-183 0 -286 124zM1311 1538h210l-656 -1538h-210z" />
    <glyph glyph-name="ampersand" unicode="&#x26;" horiz-adv-x="1565" 
d="M374 419q0 -203 123 -248.5t223 -45.5t181 44q-164 139 -429 469q-98 -98 -98 -219zM681 1426q-73 0 -115.5 -54t-42.5 -159q0 -150 139 -315q149 132 149 330t-130 198zM86 358q0 249 301 386q-167 219 -167 414q0 162 131.5 272.5t327.5 110.5q195 0 296.5 -88
t101.5 -207q0 -156 -82 -252.5t-258 -188.5q209 -262 364 -408l35 -34q66 129 57 310l-153 29v148h501v-148l-144 -29q0 -233 -153 -413q123 -105 249 -115v-127q-49 -34 -182 -34t-191 30.5t-92 54.5q-134 -91 -362 -91q-418 0 -499 148t-81 232z" />
    <glyph glyph-name="quotesingle" unicode="'" horiz-adv-x="744" 
d="M223 1715h298l-54 -834h-191z" />
    <glyph glyph-name="parenleft" unicode="(" horiz-adv-x="910" 
d="M110 672q0 170 32.5 303t102.5 281.5t192.5 272.5t214.5 179l116 -90q-107 -68 -230 -296t-134 -604q-13 -510 142 -740.5t224 -278.5l-118 -87q-101 61 -171 129.5t-134 152.5t-116.5 198.5t-86.5 262t-34 317.5z" />
    <glyph glyph-name="parenright" unicode=")" horiz-adv-x="910" 
d="M800 649q0 -170 -32 -304q-32 -133 -84 -241q-89 -189 -237 -339q-97 -98 -189 -153l-116 90q107 68 210 259q143 265 154 641q13 510 -221 858q-76 112 -145 161l118 87q101 -61 171 -130q70 -68 134 -152t117 -198q52 -114 86 -262q34 -147 34 -317z" />
    <glyph glyph-name="asterisk" unicode="*" horiz-adv-x="1357" 
d="M131 1000l215 102l240 72l-240 68l-219 94l128 223l194 -143l184 -168l-66 235l-30 244h265l-25 -241l-54 -234l178 169l192 146l132 -220l-211 -102l-245 -70l245 -66l217 -93l-135 -228l-185 141l-188 167l65 -234l32 -242h-266l24 242l55 236l-179 -172l-191 -146z
" />
    <glyph glyph-name="plus" unicode="+" horiz-adv-x="1353" 
d="M207 715h187l183 -12l-7 155v228h213v-228l-9 -155l154 12h218v-206h-218l-154 7l9 -153v-240h-213v240l7 153l-183 -7h-187v206z" />
    <glyph glyph-name="comma" unicode="," horiz-adv-x="686" 
d="M308 -104q0 54 -26.5 84.5t-45 47.5t-45 50t-26.5 84q0 90 49.5 137.5t123.5 47.5h17q88 0 140 -75.5t52 -189.5q0 -197 -90.5 -354t-186.5 -204h-3l-93 71v32q134 98 134 269z" />
    <glyph glyph-name="hyphen" unicode="-" horiz-adv-x="1306" 
d="M230 723h846v-214h-846v214z" />
    <glyph glyph-name="period" unicode="." horiz-adv-x="668" 
d="M202 283.5q60 52.5 144 52.5t132 -49.5t48 -105.5q0 -98 -58.5 -148t-139.5 -50t-133.5 47t-52.5 124t60 129.5z" />
    <glyph glyph-name="slash" unicode="/" horiz-adv-x="882" 
d="M584 1599h232l-518 -1962h-232z" />
    <glyph glyph-name="zero" unicode="0" 
d="M676 112q117 0 166.5 128t49.5 399t-49.5 393.5t-166.5 122.5t-169.5 -124.5t-52.5 -388.5t52.5 -397t169.5 -133zM1103 1125.5q135 -163.5 135 -479.5t-169.5 -492.5t-425.5 -176.5q-257 0 -395.5 171t-137.5 486t171.5 485t428.5 170t393 -163.5z" />
    <glyph glyph-name="one" unicode="1" horiz-adv-x="941" 
d="M901 0h-790v133l241 28v808q-47 -16 -143 -29t-117 -14l-26 159q180 37 290 105.5t147 99.5h1l186 -21v-1108l211 -28v-133z" />
    <glyph glyph-name="two" unicode="2" horiz-adv-x="1238" 
d="M688 836q0 73 -15.5 111t-61 79t-146.5 41q-144 0 -215 -57.5t-93 -75.5l-84 123q65 84 209 158t281 74q245 0 362 -106t117 -264q0 -280 -261.5 -471t-392.5 -266l560 50l80 153l142 -29l-55 -356h-1007l-47 123q439 263 533 451.5t94 261.5z" />
    <glyph glyph-name="three" unicode="3" horiz-adv-x="1154" 
d="M277 -151q202 0 320 91.5t118 227.5q0 135 -70 203.5t-217 76.5l-121 -28l-47 139q66 9 165 48q117 54 174.5 133t57.5 147q0 112 -57.5 153.5t-145.5 41.5q-166 0 -299 -98l-78 136q105 101 253.5 135.5t234.5 34.5q191 0 314 -82t123 -242t-111.5 -271t-281.5 -170
q205 18 338.5 -75.5t133.5 -258.5q0 -226 -197.5 -372t-533.5 -146q-147 0 -263 37v166q86 -27 190 -27z" />
    <glyph glyph-name="four" unicode="4" horiz-adv-x="1363" 
d="M1311 0h-233v-328h-282v328h-675l-76 119q194 357 580 1278h73l259 -140l-523 -952l-92 -138l455 30l21 355l260 21v-357l233 16v-232z" />
    <glyph glyph-name="five" unicode="5" horiz-adv-x="1263" 
d="M522 518q-155 0 -276 -60l-75 53l92 756h651l21 39h143l-45 -281h-559l-75 -391q156 81 315 81q211 0 321 -101t110 -299q0 -140 -62.5 -258t-234.5 -252t-529 -134q-82 0 -143 14l1 147q81 -6 149 -6t158 33.5t195.5 125t105.5 272.5q0 211 -107.5 236t-155.5 25z" />
    <glyph glyph-name="six" unicode="6" horiz-adv-x="1370" 
d="M918 458q0 216 -57.5 302.5t-156.5 86.5q-136 0 -217 -81q-10 -66 -10 -133q-9 -520 227 -520q101 0 157.5 109t56.5 236zM521 922q121 95 309 95q187 0 303 -124t116 -351t-148 -396t-410 -169t-409 181.5t-147 452.5t130.5 490t330.5 351.5t406 157.5l64 -121
q-313 -95 -415 -283t-130 -284z" />
    <glyph glyph-name="seven" unicode="7" horiz-adv-x="1189" 
d="M264 -277q196 389 367.5 799t229.5 548l-497 -9l-114 -294l-191 38l52 462h990l59 -75l-549 -1564z" />
    <glyph glyph-name="eight" unicode="8" horiz-adv-x="1327" 
d="M384 417q0 -211 105 -257t164 -46q110 0 178.5 59t68.5 164q0 144 -156.5 224.5t-226.5 119.5q-133 -101 -133 -264zM892 1152q0 129 -60 195.5t-167 66.5q-145 0 -177.5 -71t-32.5 -121q0 -94 78 -162t232 -152q91 73 109 142.5t18 101.5zM173 1148q0 182 144 289
t355 107q210 0 339 -93.5t129 -250.5t-98 -240t-161 -116q164 -95 226 -165t91 -137t29 -157q0 -181 -162 -294.5t-396 -113.5q-233 0 -395.5 94.5t-162.5 282.5q0 189 113 273t188 117q-239 158 -239 404z" />
    <glyph glyph-name="nine" unicode="9" horiz-adv-x="1357" 
d="M660 424q137 0 217 70q23 184 8 316.5t-57.5 237.5t-167.5 105q-102 0 -158 -107t-56 -226t17 -191t60.5 -138.5t136.5 -66.5zM569 251q-201 0 -328 134.5t-127 359.5t152 384.5t416 159.5q265 0 407 -175t142 -452t-121.5 -496.5t-314.5 -353t-395 -158.5l-65 120
q391 122 511 566q-117 -89 -277 -89z" />
    <glyph glyph-name="colon" unicode=":" horiz-adv-x="699" 
d="M218 1117q60 52 144 52t132 -49t48 -106q0 -98 -59 -148t-139 -50q-81 0 -134 47q-52 47 -52 124q0 78 60 130zM218 284q60 52 144 52t132 -49t48 -106q0 -98 -59 -148t-139 -50q-81 0 -134 47q-52 47 -52 124q0 78 60 130z" />
    <glyph glyph-name="semicolon" unicode=";" horiz-adv-x="699" 
d="M313 -104q-1 54 -27 84q-26 31 -44 48t-46 50q-26 33 -26 84q0 90 50 138q50 47 123 47h17q88 0 140 -76t52 -189q0 -197 -90 -354t-187 -204h-3l-93 71v32q134 98 134 269zM219 1117q60 52 144 52t132 -49t48 -106q0 -98 -59 -148t-139 -50q-81 0 -134 47
q-52 47 -52 124q0 78 60 130z" />
    <glyph glyph-name="less" unicode="&#x3c;" horiz-adv-x="1370" 
d="M168 683l968 495v-242l-672 -320l672 -323v-238l-968 494v134z" />
    <glyph glyph-name="equal" unicode="=" horiz-adv-x="1337" 
d="M203 444h936v-202h-936v202zM203 989h936v-201h-936v201z" />
    <glyph glyph-name="greater" unicode="&#x3e;" horiz-adv-x="1370" 
d="M1202 683v-134l-968 -494v238l672 323l-672 320v242z" />
    <glyph glyph-name="question" unicode="?" horiz-adv-x="1040" 
d="M358 60.5q-49 72.5 -25 139t90 99t116 18.5t86 -42t43 -79q13 -87 -34 -135.5t-129 -56.5q-98 -16 -147 56.5zM496 755q0 -64 24 -214l-183 -37q-29 31 -67 136.5t-40 163.5t13 89.5t50 66t169 113t213 133.5v27q0 164 -102.5 292t-301.5 128q-58 0 -127 -15l-45 175
q67 40 304 40q391 0 493.5 -187t102.5 -289q0 -103 -29.5 -160t-76 -101t-103.5 -78t-111.5 -64.5t-101.5 -61.5t-72 -69q-9 -24 -9 -88z" />
    <glyph glyph-name="at" unicode="@" horiz-adv-x="2219" 
d="M874.5 276q29.5 -86 86.5 -86q63 0 173 163.5t140 302.5t32 160q-44 47 -120 67.5t-95 20.5q-114 0 -164 -103t-66 -184t-16 -168t29.5 -173zM1168 1072q108 0 216 -55q10 33 41 44.5t86 -13.5t99 -37q-157 -711 -124 -779.5t40 -68.5q53 0 109 41.5t132 165.5t76 367
q0 443 -244.5 545.5t-388.5 102.5t-248 -31t-242.5 -122t-249 -315t-110.5 -519q0 -363 182.5 -554.5t453.5 -191.5q183 0 279.5 35t125.5 54l49 -113q-129 -108 -278.5 -128.5t-224.5 -20.5q-374 0 -584 231t-210 633q0 338 155.5 616.5t414.5 437.5t551 159
q346 0 552 -194.5t206 -555.5q0 -256 -110.5 -448t-259 -294t-250.5 -102q-54 0 -93 45t-44 133t31 290q-120 -332 -234 -410t-174 -78q-123 0 -214 119t-91 309q0 264 124 440t233.5 219t217.5 43z" />
    <glyph glyph-name="A" unicode="A" horiz-adv-x="1443" 
d="M868 561l-181 619l-31 141l-31 -141l-172 -619h415zM1474 0h-633v134l144 26l-72 247h-503l-70 -251l159 -22v-134h-539l-2 134l120 26l462 1369h353l465 -1370l116 -25v-134z" />
    <glyph glyph-name="B" unicode="B" horiz-adv-x="1455" 
d="M704 128q106 0 214 40t108 265q0 150 -66.5 214t-214.5 64h-68q-68 0 -110 -3v-562q31 -18 137 -18zM610 864h118q227 0 227 285q0 128 -57 189t-191 61q-49 0 -139 -10v-521q28 -4 42 -4zM1395 459q0 -471 -655 -471l-341 12h-322v134l156 26v1193l-154 28v141h314
l324 13q460 0 516 -132.5t56 -212.5q0 -152 -91 -252t-236 -123q197 2 315 -92t118 -264z" />
    <glyph glyph-name="C" unicode="C" horiz-adv-x="1351" 
d="M268 1326.5q213 211.5 545 211.5q148 0 293.5 -25t176.5 -28l-24 -446h-214l-70 302q-39 52 -194 52t-248.5 -157t-93.5 -456q0 -454 135 -555.5t250 -101.5t170 66l96 221l194 -18l-38 -336q-48 -5 -89.5 -17.5t-128 -37t-250.5 -24.5q-163 0 -302.5 53.5t-280 204
t-140.5 515.5t213 576.5z" />
    <glyph glyph-name="D" unicode="D" horiz-adv-x="1568" 
d="M705 1394q-52 0 -137 -16v-1227q57 -21 160 -20q200 3 304.5 159.5t104.5 471.5q0 460 -158.5 546t-273.5 86zM1506 807q0 -366 -212.5 -598.5t-566.5 -224.5q-67 2 -169.5 9t-154.5 7h-326v134l156 25v1194l-149 28v141h311l357 13q565 0 659.5 -275.5t94.5 -452.5z" />
    <glyph glyph-name="E" unicode="E" 
d="M74 1522h1107l28 -353h-163l-70 198l-404 20v-532l254 6l37 165h146v-509h-146l-35 176l-256 6v-554l450 27l125 258l171 -49l-52 -381h-1189v134l156 25v1193l-159 29v141z" />
    <glyph glyph-name="F" unicode="F" horiz-adv-x="1277" 
d="M73 1522h1139l23 -377h-181l-79 218l-403 23v-562l270 4l43 178h149v-533h-148l-44 182l-270 8v-503l303 -26v-134h-798v134l156 25v1194l-160 28v141z" />
    <glyph glyph-name="G" unicode="G" horiz-adv-x="1531" 
d="M831 120q160 0 225 69v421l-193 23v150h628v-150l-104 -19v-532q-40 -2 -98 -18.5t-297.5 -79t-509.5 53.5t-343 330t-73 390t57 324.5t215 303.5t522 155q224 0 512 -64l-24 -389h-234l-61 261q-54 54 -202 54q-187 0 -291 -159t-104 -461q0 -465 137.5 -564t237.5 -99z
" />
    <glyph glyph-name="H" unicode="H" horiz-adv-x="1716" 
d="M85 1522h652v-141l-167 -28v-492h575v491l-155 29v141h645v-141l-152 -28v-1194l152 -25v-134h-643v134l153 26v532h-575v-532l167 -26v-134h-656v134l152 25v1194l-148 28v141z" />
    <glyph glyph-name="I" unicode="I" horiz-adv-x="850" 
d="M89 1522h674v-141l-168 -28v-1193l170 -28v-132h-674v134l165 26v1192l-167 29v141z" />
    <glyph glyph-name="J" unicode="J" horiz-adv-x="807" 
d="M257 415v937l-172 29v141h671v-141l-163 -28v-784q1 -408 -25 -511q-47 -188 -186 -300.5t-345 -150.5l-74 118q119 40 206.5 176.5t87.5 513.5z" />
    <glyph glyph-name="K" unicode="K" horiz-adv-x="1541" 
d="M76 1522h643v-141l-148 -29v-640l500 641l-163 28l-1 141h573v-140l-174 -29l-372 -423q108 -96 268.5 -373.5t198 -332.5t56.5 -64l92 -26v-134h-402q-48 0 -193.5 303t-216.5 395l-166 -196v-343l174 -25v-134h-670v134l158 26v1193l-157 28v141z" />
    <glyph glyph-name="L" unicode="L" horiz-adv-x="1311" 
d="M79 1522h684v-141l-190 -29v-1191l394 22l132 387l187 -28l-59 -542h-1150v134l156 26v1192l-154 29v141z" />
    <glyph glyph-name="M" unicode="M" horiz-adv-x="2108" 
d="M106 1522h662l261 -885l37 -194l33 194l219 885h669v-141l-217 -29l178 -1192l170 -26v-134h-685v134l169 25l-103 881l-39 366l-59 -283l-275 -1065h-245l-323 991l-88 363l-24 -371l-65 -881l203 -26v-134h-589v134l173 25l139 1194l-201 28v141z" />
    <glyph glyph-name="N" unicode="N" horiz-adv-x="1648" 
d="M73 1522h499l582 -883l109 -232v947l-176 27v141h526v-141l-158 -28v-1353h-278l-613 937l-136 274v-1052l210 -25v-134h-565v134l162 25v1194l-162 28v141z" />
    <glyph glyph-name="O" unicode="O" horiz-adv-x="1494" 
d="M1067 783q0 620 -276.5 620t-320 -240.5t-43.5 -404.5q0 -324 83.5 -483t234.5 -159t236.5 167.5t85.5 499.5zM247.5 1327q192.5 214 525.5 214t499.5 -200t166.5 -558q0 -359 -193 -580.5t-523 -225.5t-499 205t-169 570t192.5 575z" />
    <glyph glyph-name="P" unicode="P" horiz-adv-x="1361" 
d="M686 669q75 0 123.5 19.5t106.5 93.5t58 268q0 195 -69 271.5t-204 76.5q-59 0 -89 -5.5t-42 -6.5v-707q41 -10 116 -10zM729 531q-128 0 -158 7v-378l265 -26v-134h-759v134l156 25v1194l-149 28v141h306l344 12q474 0 531.5 -172t57.5 -291t-41 -221.5t-119.5 -173
t-192 -108t-241.5 -37.5z" />
    <glyph glyph-name="Q" unicode="Q" horiz-adv-x="1505" 
d="M1072 783q0 620 -276.5 620t-320 -240.5t-43.5 -404.5q0 -324 83.5 -483t234.5 -159t236.5 167.5t85.5 499.5zM1766 -185q59 0 101 9l34 -106q-8 -8 -54.5 -58.5t-211.5 -50.5h-11q-187 0 -321.5 101t-230.5 174.5t-181 108.5q-62 -14 -149 -16q-344 -4 -513 205
t-169 570t192.5 575t525.5 214t499.5 -200t166.5 -566t-138 -513.5t-222 -195.5q94 -20 194.5 -67t160.5 -76t154 -68.5t171 -39.5h2z" />
    <glyph glyph-name="R" unicode="R" horiz-adv-x="1486" 
d="M964 1115q0 214 -95.5 249t-173.5 35t-124 -10v-600q15 -5 31 -5l129 1q108 0 170.5 80t62.5 250zM753 0h-676v134l156 25v1194l-149 28v141h311l342 13q321 0 453.5 -95.5t132.5 -313.5t-109 -307.5t-184 -113.5q132 -55 225 -257.5t120 -244t52 -47.5l63 -22v-134h-389
q-45 0 -128 228.5t-125 312.5t-91 108h-15l-171 2v-493l182 -24v-134z" />
    <glyph glyph-name="S" unicode="S" horiz-adv-x="1241" 
d="M620 121q108 0 167 55.5t59 152.5t-76.5 159t-188.5 115q-112 52 -156.5 76t-116 75.5t-131 147.5t-59.5 202q0 200 137.5 318.5t395.5 118.5q181 0 295 -35.5t137 -37.5l-13 -360h-182l-49 244q-39 51 -191 51q-99 0 -154 -50.5t-55 -122.5t27.5 -116t84 -88t181.5 -107
q126 -62 195 -101.5t164 -128.5t95 -261t-136.5 -311.5t-439.5 -139.5q-192 0 -333 44.5t-166 46.5l17 380h187l51 -254q23 -28 84.5 -50.5t169.5 -22.5z" />
    <glyph glyph-name="T" unicode="T" horiz-adv-x="1467" 
d="M1187 0h-879v134l257 26v1211l-258 -10l-83 -444h-190l30 605h1327l29 -605h-183l-88 444l-242 10v-1210l280 -27v-134z" />
    <glyph glyph-name="U" unicode="U" horiz-adv-x="1519" 
d="M511 595q0 -469 322 -469q159 0 236.5 122t77.5 342v762l-172 29v141h524v-141l-135 -29v-745q0 -320 -156.5 -471.5t-420.5 -151.5q-323 0 -475 152t-152 488v728l-130 29v141h650v-141l-169 -30v-756z" />
    <glyph glyph-name="V" unicode="V" horiz-adv-x="1424" 
d="M-36 1522h660v-141l-172 -28l284 -900l48 -181l40 182l280 898l-155 29v141h514v-141l-132 -28l-470 -1368h-273l-502 1368l-122 28v141z" />
    <glyph glyph-name="W" unicode="W" horiz-adv-x="2095" 
d="M-39 1522h642v-141l-168 -30l247 -907l37 -198l35 198l209 732l-58 176l-128 29v141h667v-141l-190 -29l248 -908l43 -213l35 213l228 908l-178 29v141h503v-141l-129 -30l-387 -1361h-303l-265 910l-253 -910h-297l-418 1361l-120 30v141z" />
    <glyph glyph-name="X" unicode="X" horiz-adv-x="1480" 
d="M26 1522h691v-141l-155 -30l258 -432l269 434l-167 28v141h536v-141l-162 -28l-392 -539l440 -654l141 -26v-134h-691v134l154 26l-287 469l-268 -470l184 -25v-134h-567v134l170 25l393 580l-409 613l-138 29v141z" />
    <glyph glyph-name="Y" unicode="Y" horiz-adv-x="1351" 
d="M-35 1522h638v-141l-135 -29l239 -481l46 -129l51 127l219 484l-153 28v141h517v-141l-127 -26l-394 -746v-449l217 -26v-134h-783v134l209 25v450l-424 743l-120 29v141z" />
    <glyph glyph-name="Z" unicode="Z" 
d="M31 120l748 1141l117 133l-486 -27l-118 -276l-171 25l49 411h1053l54 -121l-733 -1140l-137 -127l583 42l121 309l173 -34l-46 -456h-1136z" />
    <glyph glyph-name="bracketleft" unicode="[" horiz-adv-x="874" 
d="M466 -281q-96 0 -143.5 8.5t-97.5 45.5t-50 177v1466q0 140 61.5 185.5t183.5 45.5t298 -44v-113h-260v-1612h260v-115q-156 -44 -252 -44z" />
    <glyph glyph-name="backslash" unicode="\" horiz-adv-x="882" 
d="M269 1599l518 -1962h-232l-518 1962h232z" />
    <glyph glyph-name="bracketright" unicode="]" horiz-adv-x="874" 
d="M418 1647q86 -1 134 -9q47 -8 80 -32q67 -50 67 -190v-1466q0 -140 -61 -185q-61 -46 -194 -46q-132 0 -288 44v115h260v1612h-260v113q176 44 262 44z" />
    <glyph glyph-name="asciicircum" unicode="^" horiz-adv-x="1363" 
d="M565 1531h228l406 -1258h-272l-247 934l-246 -934h-270z" />
    <glyph glyph-name="underscore" unicode="_" horiz-adv-x="1711" 
d="M1731 -250v-155h-1751v155h1751z" />
    <glyph glyph-name="grave" unicode="`" horiz-adv-x="681" 
d="M387 1307q-87 31 -233.5 150t-196.5 205l194 175h1l357 -430l-120 -100h-2z" />
    <glyph glyph-name="a" unicode="a" horiz-adv-x="1161" 
d="M448.5 213.5q43.5 -48.5 107.5 -48.5q96 0 165 65v336q-167 0 -241.5 -60t-74.5 -152t43.5 -140.5zM901 -25q-72 0 -98 4.5t-48 23t-22 87.5v31q-81 -94 -173 -119t-158 -25q-143 0 -243.5 90t-100.5 252q0 187 175.5 282.5t487.5 99.5v42q0 112 -41.5 159.5t-182.5 47.5
q-142 0 -329 -81h-1l-65 135q57 48 200 104t280 56q138 0 219 -23t150.5 -94.5t69.5 -298.5v-613h109v-127q-157 -33 -229 -33z" />
    <glyph glyph-name="b" unicode="b" horiz-adv-x="1273" 
d="M467 153q23 -49 139 -49q113 0 181.5 119t70.5 347q3 305 -84.5 353.5t-137.5 48.5q-103 0 -169 -77v-742zM783 1168q69 0 149.5 -31.5t176 -139t95.5 -386.5t-166.5 -456.5t-444.5 -177.5q-165 0 -290.5 27.5t-155.5 51.5v1431l-147 25v119l396 49h5l66 -41v-597
q121 126 316 126z" />
    <glyph glyph-name="c" unicode="c" horiz-adv-x="1062" 
d="M682 176q150 0 274 81l55 -121q-83 -95 -209 -127t-232 -32t-299.5 85.5t-196.5 494.5q0 274 160.5 442.5t426.5 168.5q140 0 228.5 -29.5t114.5 -32.5l-14 -355h-201l-52 214q-21 57 -108 57q-208 0 -208 -396q-2 -222 70 -336t191 -114z" />
    <glyph glyph-name="d" unicode="d" horiz-adv-x="1287" 
d="M666 1029q-111 0 -180.5 -106t-72.5 -329t58 -328t165 -105t170 77v745q-13 19 -51.5 32.5t-88.5 13.5zM841 134q-125 -157 -349 -157q-72 0 -152.5 33t-175.5 142.5t-95 382.5q0 274 161.5 453.5t448.5 179.5q59 0 127 -14v329l-193 26v128l442 43h8l63 -47v-1493h107
v-132q-290 -63 -341 -24.5t-51 106.5v44z" />
    <glyph glyph-name="e" unicode="e" horiz-adv-x="1129" 
d="M589 1026q-88 0 -136 -74.5t-52 -272.5h345l1 84q0 263 -158 263zM692 180q161 0 300 85l58 -124q-92 -99 -229 -131.5t-245 -32.5t-308.5 84.5t-200.5 506.5q0 279 152.5 439t404.5 160q213 0 324.5 -108t116.5 -306q0 -136 -15 -211h-646q17 -274 126.5 -318t161.5 -44
z" />
    <glyph glyph-name="f" unicode="f" horiz-adv-x="851" 
d="M748 1712q92 0 148 -20v-296q-38 42 -109 57.5t-107 15.5q-74 0 -101 -29.5t-27 -114.5v-189h253v-170h-253v-813l205 -20v-133h-683v133l155 22v811h-164v123l164 45v88q0 205 118 310t213.5 142.5t187.5 37.5z" />
    <glyph glyph-name="g" unicode="g" horiz-adv-x="1292" 
d="M386 -158q0 -240 256 -240h2q104 0 185.5 57t81.5 156t-43.5 135t-159.5 36h-184q-51 0 -109 7q-29 -63 -29 -151zM605 1035q-174 1 -174 -249t179 -250h1q164 0 164 249q0 130 -40 190t-129 60h-1zM397 320q0 -69 48 -90.5t173 -21.5h204q211 0 318.5 -76.5
t107.5 -239.5q0 -130 -113.5 -257.5t-279.5 -157t-247 -29.5h-1q-279 0 -408.5 86t-129.5 225t75 201t114 79q-96 56 -96 165t62.5 163.5t100.5 72.5q-221 86 -221 343q0 176 148.5 280.5t363.5 104.5h1q257 0 375 -100q48 65 115.5 84t106.5 19h62v-247h-195
q15 -54 15 -132t-34 -152.5t-135.5 -158t-338.5 -83.5h-1q-101 0 -164 14q-26 -52 -26 -92z" />
    <glyph glyph-name="h" unicode="h" horiz-adv-x="1388" 
d="M500 1010q172 152 408 152q175 0 244.5 -105.5t69.5 -346.5v-556l130 -20v-134h-564v133l110 20v556q0 146 -23.5 189t-54.5 58t-81 15q-121 0 -217 -80v-737l119 -20v-134h-557v134l108 19v1329l-146 26v123l403 49h6l59 -44l2 -441z" />
    <glyph glyph-name="i" unicode="i" horiz-adv-x="721" 
d="M665 0h-588v134l134 20v768l-135 41v153l394 50h5l62 -44v-969l128 -19v-134zM351 1322q-75 0 -124 47q-48 47 -48 103q0 100 51 157q51 56 141 56h1q84 -1 132 -49t49 -104q0 -100 -52 -155t-149 -55h-1z" />
    <glyph glyph-name="j" unicode="j" horiz-adv-x="693" 
d="M537 22q0 -234 -148 -384q-127 -129 -267 -136h-30q-70 0 -94 8l-17 131q50 -4 101 24q76 37 106 143t29 272l-1 836l-135 43l2 157l387 50h5l62 -44v-1100zM347 1322q-75 0 -124 47q-48 47 -48 103q0 100 51 157q51 56 141 56h1q84 -1 132 -49t49 -104q0 -100 -52 -155
t-149 -55h-1z" />
    <glyph glyph-name="k" unicode="k" horiz-adv-x="1327" 
d="M729 1137h560v-127l-172 -34l-223 -211l352 -610l106 -21v-134h-560v133l92 21l-213 409l-164 -166l6 -111v-132l121 -21v-133h-560v134l117 19v1329l-141 26v123l400 49h4l60 -44v-954l-5 -97l377 399l-157 26v127z" />
    <glyph glyph-name="l" unicode="l" horiz-adv-x="704" 
d="M653 0h-591v134l134 20v1328l-147 26v123l404 49h5l60 -44v-1482l135 -20v-134z" />
    <glyph glyph-name="m" unicode="m" horiz-adv-x="2102" 
d="M1205 1008q163 154 409 154q165 0 240.5 -107t75.5 -345v-558l125 -19v-133h-547v133l93 20v549q0 151 -35 210t-129 59t-200 -76q13 -76 13 -186v-556l122 -20v-133h-558v133l106 20v556q0 147 -24.5 190t-55 57.5t-70.5 14.5q-126 0 -221 -80v-738l115 -20v-133h-555
v133l111 19v770l-123 40v158l361 46h5l54 -44v-73l-1 -47q64 64 190 112t216 48q215 0 283 -154z" />
    <glyph glyph-name="n" unicode="n" horiz-adv-x="1419" 
d="M772 971q-122 0 -222 -82v-736l116 -19v-134h-562v134l116 18v770l-123 40v158l361 46h5l55 -44v-73l-2 -46q175 159 423 159q168 0 241 -102.5t73 -350.5v-555l120 -18v-136h-556v134l105 19v556q0 147 -24.5 190t-55 57.5t-70.5 14.5z" />
    <glyph glyph-name="o" unicode="o" horiz-adv-x="1243" 
d="M414 590q0 -470 211 -470q103 0 152.5 105t49.5 330q0 351 -75 410.5t-132 59.5q-104 0 -155 -105t-51 -330zM229.5 1011q166.5 157 414.5 157q249 0 392.5 -157t143.5 -441q0 -285 -164.5 -439t-414.5 -154q-251 0 -394.5 157t-143.5 439q0 281 166.5 438z" />
    <glyph glyph-name="p" unicode="p" horiz-adv-x="1310" 
d="M674 980q-102 0 -168 -72v-749q13 -18 50 -32.5t87 -14.5q112 0 182 108.5t72 349.5q3 309 -85.5 359.5t-137.5 50.5zM478 1015q124 153 336 153q74 0 154.5 -31.5t176.5 -138.5t96 -381t-161.5 -457t-444.5 -183q-73 0 -135 19l6 -166v-172l178 -26v-128h-627v128
l129 25v1265l-122 40v158l355 46h5l54 -44v-107z" />
    <glyph glyph-name="q" unicode="q" horiz-adv-x="1263" 
d="M628 161q116 0 181 77v744q-12 19 -52 33t-90 14q-112 0 -181.5 -105.5t-71.5 -342.5q-3 -315 86.5 -367.5t127.5 -52.5zM658 1168q128 0 264 -39l156 30h4l47 -37v-1464l136 -26v-128h-670v128l214 26v294l7 152q-53 -54 -131.5 -90.5t-170.5 -36.5q-196 0 -320.5 142
t-124.5 416t116.5 403.5t230.5 179.5t242 50z" />
    <glyph glyph-name="r" unicode="r" horiz-adv-x="977" 
d="M779 0h-692v134l132 19v769l-121 40v158l335 46h5l59 -44v-58l-5 -158h5q25 78 124.5 170t233.5 92q53 0 78 -16v-341q-66 46 -160 46q-154 0 -230 -56v-647l236 -21v-133z" />
    <glyph glyph-name="s" unicode="s" horiz-adv-x="1080" 
d="M106 332h192l51 -156q25 -42 87 -54t100 -12q79 0 120 36.5t41 84.5t-23.5 77.5t-65.5 56t-100.5 53t-126.5 57.5q-144 65 -210 148.5t-66 220.5t123 228.5t306 91.5q182 0 282 -29t126 -33v-273h-180l-52 147q-10 20 -47 38t-107 18t-111.5 -35t-41.5 -82t22 -76.5
t58.5 -53t83.5 -43.5t105 -46q159 -70 249.5 -151t90.5 -228t-118.5 -243.5t-349.5 -96.5q-177 0 -293.5 38t-144.5 45v272z" />
    <glyph glyph-name="t" unicode="t" horiz-adv-x="836" 
d="M599 192q88 0 187 30h1l43 -124q-89 -75 -209 -96t-177 -21h-2q-136 0 -202.5 61t-66.5 191v736h-123v117q23 8 68.5 28.5t48.5 22.5q39 39 56 78q49 111 82 224h185l9 -301h300v-169h-298v-542q0 -165 12 -194t31.5 -35t53.5 -6h1z" />
    <glyph glyph-name="u" unicode="u" horiz-adv-x="1324" 
d="M876 103v37q-83 -104 -186 -133.5t-178 -29.5q-174 0 -260.5 100t-86.5 334v565l-98 32v126l374 29h2l46 -28v-731q0 -136 33.5 -189t131.5 -53t185 72v742l-127 34v125l393 28h4l54 -28v-994h109v-129q-148 -35 -253 -35q-143 0 -143 126z" />
    <glyph glyph-name="v" unicode="v" horiz-adv-x="1176" 
d="M-16 1138h581v-131l-135 -26l172 -532l58 -207l48 203l165 537l-128 25v131h470v-131l-104 -25l-372 -998h-265l-406 997l-84 26v131z" />
    <glyph glyph-name="w" unicode="w" horiz-adv-x="1754" 
d="M-22 1137h554v-130l-138 -25l137 -517l42 -209l37 208l186 673h272l206 -672l42 -207l42 205l130 518l-148 26v130h453v-130l-100 -24l-307 -999h-262l-205 652l-40 232l-30 -232l-193 -652h-263l-321 999l-94 24v130z" />
    <glyph glyph-name="x" unicode="x" horiz-adv-x="1243" 
d="M17 1138h624v-131l-126 -25l144 -202l52 -87l50 86l147 203l-132 25v131h457v-131l-118 -25l-310 -383l346 -447l111 -20v-132h-618v132l111 21l-143 219l-61 89l-46 -88l-148 -219l148 -22v-132h-501v132l128 21l320 405l-330 424l-105 25v131z" />
    <glyph glyph-name="y" unicode="y" horiz-adv-x="1179" 
d="M274 -510q-98 0 -138 20v241q38 -27 115 -27q78 0 155.5 29.5t159.5 246.5h-127l-374 981l-91 26v131h595v-131l-141 -26l171 -556l61 -212l51 212l159 558l-124 24v131h459v-131l-96 -24q-78 -246 -207 -614t-157 -440q-28 -73 -74.5 -162.5t-103 -151t-126 -93.5
t-167.5 -32z" />
    <glyph glyph-name="z" unicode="z" horiz-adv-x="1151" 
d="M126 783v355h906l50 -110l-510 -737l-139 -151l407 24l92 226l156 -16l-28 -374h-959l-56 114l525 723l148 161l-376 -17l-52 -198h-164z" />
    <glyph glyph-name="braceleft" unicode="{" horiz-adv-x="1059" 
d="M632 -287q-193 0 -273 69t-80 201q0 70 22 128t48.5 112t48.5 108t22 103t-5 78t-42 61.5t-204 32.5v177q168 0 204.5 25t41.5 50.5t5 73.5t-22 103t-48.5 109.5t-48.5 112.5t-22 125q0 137 79.5 205.5t264.5 68.5q115 0 298 -43v-124h-159q-86 0 -129.5 -30t-43.5 -103
t33.5 -172.5t48.5 -156t15 -108.5q0 -188 -289 -231q289 -43 289 -238q0 -75 -33.5 -173.5t-48.5 -149.5t-15 -96q0 -87 43.5 -117t129.5 -30h159v-128q-183 -43 -289 -43z" />
    <glyph glyph-name="bar" unicode="|" horiz-adv-x="865" 
d="M319 1780h227v-1966h-227v1966z" />
    <glyph glyph-name="braceright" unicode="}" horiz-adv-x="1059" 
d="M426 1656q195 0 275 -69q79 -69 79 -201q0 -71 -22 -129q-22 -59 -48 -113t-49 -109q-22 -55 -22 -103t5 -74t29 -42q49 -34 217 -33v-177q-167 0 -217 -44q-24 -21 -29 -50t-5 -78t22 -103t49 -108q26 -54 48 -112t22 -124q0 -136 -80 -205t-264 -69q-115 0 -298 43v128
h159q86 0 117 22q56 39 56 128q0 56 -33 154t-49 154q-15 56 -15 108q0 195 289 238q-289 43 -289 231q0 76 34 175q33 100 48 152t15 96q0 87 -43 117t-130 30h-159v124q182 43 288 43z" />
    <glyph glyph-name="asciitilde" unicode="~" horiz-adv-x="1428" 
d="M201 591q38 79 130.5 144.5t200.5 65.5t202.5 -72t124 -86t61.5 -14q63 0 106.5 27t90.5 82l101 -118q-70 -140 -171.5 -177t-152.5 -37t-88 13t-68 32t-58.5 42t-73 55t-95.5 32q-108 0 -209 -106z" />
    <glyph glyph-name="nonbreakingspace" unicode="&#xa0;" horiz-adv-x="670" 
 />
    <glyph glyph-name="exclamdown" unicode="&#xa1;" horiz-adv-x="721" 
d="M488 1133q-59 -53 -143 -53t-132 49t-48 105q0 99 58 149t140 50q81 0 132 -47q52 -47 52 -124q0 -76 -59 -129zM555 -379h-371l79 1257h203z" />
    <glyph glyph-name="cent" unicode="&#xa2;" horiz-adv-x="1188" 
d="M720 176q150 0 274 81l55 -121q-79 -87 -188.5 -119.5t-174.5 -37.5l-11 -222h-178l12 232q-199 38 -298 189.5t-99 386.5q0 236 129.5 398.5t350.5 196.5l11 215h177l-11 -210q89 -7 170 -31.5t103 -27.5l-14 -355h-201l-52 214q-21 57 -108 57q-208 0 -208 -396
q-2 -222 70 -336t191 -114z" />
    <glyph glyph-name="sterling" unicode="&#xa3;" horiz-adv-x="1575" 
d="M447 114q-114 -114 -211 -114q-137 0 -137 112q0 66 82.5 114.5t177.5 46.5q30 47 30 226v227h-189v147h189v150q0 227 160.5 372.5t389.5 145.5q230 0 364 -105l-143 -202q-46 81 -125.5 112t-120.5 31q-89 0 -136 -59t-47 -237v-208h271v-147h-271v-174
q0 -117 -34 -189.5t-103 -129.5q38 -5 82.5 -16.5t130 -32t154.5 -20.5q126 0 171.5 44.5t45.5 138.5t-25 137t-37 53h330q17 -17 33.5 -61t16.5 -114q0 -154 -123.5 -265.5t-323.5 -111.5q-153 0 -286 43.5t-196 64t-120 21.5z" />
    <glyph glyph-name="currency" unicode="&#xa4;" horiz-adv-x="1547" 
d="M928 607.5q52 62.5 52 160.5t-63.5 166t-155.5 68t-145.5 -68t-53.5 -163t61.5 -160.5t156.5 -65.5q96 0 148 62.5zM324 765q0 144 79 265l-229 228l132 135l230 -232q110 69 237.5 69t234.5 -64l230 229l134 -134l-226 -224q78 -114 78 -257t-83 -265l227 -225
l-134 -135l-229 229q-107 -67 -234.5 -67t-234.5 63l-228 -229l-134 135l225 223q-75 112 -75 256z" />
    <glyph glyph-name="yen" unicode="&#xa5;" horiz-adv-x="1664" 
d="M258 471h437v203h-437v136h354l-342 550l-139 29v133h667v-133l-145 -27l211 -431l53 -114l55 115l217 430l-163 27v133h527v-133l-150 -29l-305 -550h367v-136h-438v-203h438v-138h-438v-180l219 -25v-128h-757v128l206 25v180h-437v138z" />
    <glyph glyph-name="brokenbar" unicode="&#xa6;" horiz-adv-x="865" 
d="M319 641h227v-827h-227v827zM319 1780h227v-830h-227v830z" />
    <glyph glyph-name="section" unicode="&#xa7;" horiz-adv-x="1400" 
d="M1006 588q0 101 -80 163.5t-201 117.5q-120 55 -179 83t-116 65q-43 -49 -43 -111t28 -104t89.5 -88t184.5 -100t177 -78t106 -56q34 50 34 108zM1089 391q106 -104 106 -243q0 -140 -129.5 -245.5t-383.5 -105.5q-182 0 -323 46t-165 48l18 339h194l45 -207
q40 -55 120 -70.5t121 -15.5q114 0 169.5 39.5t55.5 111.5t-66.5 116t-232.5 108q-332 138 -386.5 279.5t-54.5 231.5q0 157 154 275q-104 106 -104 253q0 146 133.5 239t360.5 93q117 0 212.5 -23t136.5 -34.5t65 -15.5l-13 -314h-174l-60 182q-21 34 -84.5 46t-100.5 12
q-101 0 -150 -35t-49 -89q0 -91 59.5 -135.5t148.5 -83.5t137.5 -60t217 -111.5t168.5 -308.5q0 -195 -146 -322z" />
    <glyph glyph-name="dieresis" unicode="&#xa8;" horiz-adv-x="1021" 
d="M431 1541q0 -205 -191 -205h-1q-65 0 -107 47.5t-42 100.5q0 97 45 150.5t132 53.5h1q78 0 120.5 -46t42.5 -101zM742 1336q-64 0 -106 48.5t-42 100.5q0 96 45 149.5t132 53.5h1q120 0 141 -65t21 -101q0 -82 -48 -134t-143 -52h-1z" />
    <glyph glyph-name="copyright" unicode="&#xa9;" horiz-adv-x="2130" 
d="M1045 511q-83 0 -167.5 36.5t-170.5 134t-86 312.5t146.5 363t366.5 148q121 0 182.5 -23.5t76.5 -38.5l-5 -252h-135l-48 136q-41 31 -117 31t-160 -49t-84 -273q0 -149 85 -245t208 -96q122 0 204 75l62 -105q-77 -98 -176 -126t-182 -28zM354 1001q0 -303 167 -479
t305.5 -216t239.5 -40t192.5 26.5t170.5 74.5t143 115.5t109.5 149.5t70 175.5t24.5 194.5t-24.5 195t-93.5 218.5t-231.5 223t-360.5 98.5q-302 0 -507 -216.5t-205 -519.5zM196 1002q0 122 31 233t87.5 207.5t135.5 175.5t175.5 135.5t208 87t232.5 30.5t232.5 -30.5
t258 -116.5t261.5 -284.5t115 -437.5q0 -365 -205.5 -572t-373 -253.5t-288.5 -46.5t-232.5 31t-208 87t-175.5 135.5t-135.5 176t-87.5 208.5t-31 234z" />
    <glyph glyph-name="ordfeminine" unicode="&#xaa;" horiz-adv-x="1054" 
d="M378 978q0 -70 33 -108.5t94 -38.5t98 26t45 39l1 -1v232q-158 -6 -214.5 -42.5t-56.5 -106.5zM661 792q-123 -123 -272 -123t-226 77t-77 198q0 146 153 217.5t410 71.5v24q0 108 -35 145t-158 37q-122 0 -265 -62l-68 134q108 68 233.5 90.5t193.5 22.5
q168 0 268 -78.5t100 -258.5v-483h102v-104q-118 -31 -206 -31t-120.5 14.5t-32.5 68.5v40z" />
    <glyph glyph-name="guillemotleft" unicode="&#xab;" horiz-adv-x="1948" 
d="M987 693l675 452l91 -146l-411 -388l413 -380l-93 -144l-675 441v165zM217 693l675 452l91 -146l-411 -388l413 -380l-93 -144l-675 441v165z" />
    <glyph glyph-name="logicalnot" unicode="&#xac;" horiz-adv-x="1410" 
d="M210 718h990v-558h-223v369h-767v189z" />
    <glyph glyph-name="uni00AD" unicode="&#xad;" horiz-adv-x="1345" 
d="M230 719h885v-206h-885v206z" />
    <glyph glyph-name="registered" unicode="&#xae;" horiz-adv-x="2130" 
d="M1220 1206q0 160 -146 160q-70 0 -107 -11v-323q39 -9 89 -9q80 0 122 51t42 132zM1461 1232q0 -108 -47.5 -184.5t-149.5 -99.5q109 -48 142.5 -159.5t55.5 -136t53 -26.5v-107h-207q-33 0 -52 23.5t-31.5 60.5t-36.5 149t-107 144h-114v-256l87 -22v-99h-392v99l83 28
v700l-83 24v111h181l241 5q282 0 329.5 -100t47.5 -154zM354 1001q0 -303 167 -479t305.5 -216t239.5 -40t192.5 26.5t170.5 74.5t143 115.5t109.5 149.5t70 175.5t24.5 194.5t-24.5 195t-93.5 218.5t-231.5 223t-360.5 98.5q-302 0 -507 -216.5t-205 -519.5zM196 1002
q0 122 31 233t87.5 207.5t135.5 175.5t175.5 135.5t208 87t232.5 30.5t232.5 -30.5t258 -116.5t261.5 -284.5t115 -437.5q0 -365 -205.5 -572t-373 -253.5t-288.5 -46.5t-232.5 31t-208 87t-175.5 135.5t-135.5 176t-87.5 208.5t-31 234z" />
    <glyph glyph-name="macron" unicode="&#xaf;" horiz-adv-x="681" 
d="M31 1616h618v-196h-618v196z" />
    <glyph glyph-name="degree" unicode="&#xb0;" horiz-adv-x="1022" 
d="M634.5 1161.5q46.5 50.5 46.5 128.5t-50.5 132t-122.5 54t-119.5 -52.5t-47.5 -127.5t50.5 -130t123.5 -55t119.5 50.5zM251.5 1037q-108.5 107 -108.5 259q0 151 108 255.5t263 104.5q156 0 260.5 -106.5t104.5 -259.5t-107 -256.5t-260 -103.5q-152 0 -260.5 107z" />
    <glyph glyph-name="plusminus" unicode="&#xb1;" horiz-adv-x="1353" 
d="M217 201h917v-202h-917v202zM207 620v209h187l182 -12l-7 154v228h215v-228l-9 -154l153 12h218v-209h-218l-153 7l9 -151v-210h-215v210l7 151l-182 -7h-187z" />
    <glyph glyph-name="acute" unicode="&#xb4;" horiz-adv-x="681" 
d="M157 1407l358 430h1l194 -175q-69 -117 -221 -226t-209 -129h-2z" />
    <glyph glyph-name="mu" unicode="&#xb5;" horiz-adv-x="1398" 
d="M706 -21q-126 0 -203 68v-420h-301v826q-2 6 -2 8v513l-104 44v116l382 28l46 -28v-769q0 -74 51 -137t134 -63q130 0 174 100v709l-117 45l-1 115l399 28l40 -27v-994h109v-131q-100 -39 -234 -39q-71 0 -100.5 34.5t-29.5 86.5v50q-43 -110 -122 -136.5t-121 -26.5z
" />
    <glyph glyph-name="paragraph" unicode="&#xb6;" horiz-adv-x="1637" 
d="M881 1544q-56 0 -65 -3v-1541h-468v130l201 25v624q-324 0 -378 180.5t-54 284.5q0 208 147.5 337.5t406.5 129.5q163 0 290 -10t347 -10h171v-137l-156 -23v-1376l132 -25v-130h-399v1530q-119 14 -175 14z" />
    <glyph glyph-name="periodcentered" unicode="&#xb7;" horiz-adv-x="721" 
d="M231 827q60 52 144 52t132 -49t48 -106q0 -98 -59 -148t-139 -50q-81 0 -134 47q-52 47 -52 124q0 78 60 130z" />
    <glyph glyph-name="cedilla" unicode="&#xb8;" horiz-adv-x="615" 
d="M184 -520h-1q-81 0 -144 29l1 190q39 -13 82 -13h1q74 0 105 25t31 112t-61 183l100 8l44 -8q90 -84 116.5 -167t23.5 -141q-6 -117 -79.5 -167.5t-218.5 -50.5z" />
    <glyph glyph-name="ordmasculine" unicode="&#xba;" horiz-adv-x="1086" 
d="M704 1132q0 373 -142.5 369.5t-160.5 -125t-18 -211.5q0 -174 43.5 -272t114.5 -98q44 0 75 12t59.5 64.5t28.5 260.5zM551 673q-221 0 -350.5 123t-126.5 356t146 352t350 119t325.5 -122.5t116.5 -352.5q-4 -311 -178 -393t-283 -82z" />
    <glyph glyph-name="guillemotright" unicode="&#xbb;" horiz-adv-x="1941" 
d="M1726 693v-165l-675 -441l-93 144l413 380l-411 388l91 146zM972 693v-165l-675 -441l-93 144l413 380l-411 388l91 146z" />
    <glyph glyph-name="onequarter" unicode="&#xbc;" horiz-adv-x="2459" 
d="M740 -172l708 1834l194 -18l-708 -1832zM887 544h-754v135l255 23v638q-78 -28 -234 -53l-44 144q242 69 375 175h5l159 -26v-877l238 -24v-135zM2226 206v-204h-231l-1 204h-478l-86 111q79 140 409 784h234l48 -56l-351 -563l-111 -138l338 17l24 244l205 17v-249
l176 9l-1 -176h-175z" />
    <glyph glyph-name="onehalf" unicode="&#xbd;" horiz-adv-x="2437" 
d="M887 544h-754v135l255 23v638q-78 -28 -234 -53l-44 144q242 69 375 175h5l159 -26v-877l238 -24v-135zM740 -172l708 1834l194 -18l-708 -1832zM1824 885q-145 0 -259 -101l-84 104q101 110 265 156q68 18 153 18q169 0 267 -83t98 -217q0 -210 -286 -444
q-117 -96 -264 -176l438 44l83 136l130 -25l-51 -298h-785l-50 128q186 109 328 253q184 187 184 347q1 72 -45 115t-122 43z" />
    <glyph glyph-name="threequarters" unicode="&#xbe;" horiz-adv-x="2457" 
d="M737 -172l708 1834l194 -18l-708 -1832zM836 1362q0 -177 -232 -264q147 8 234 -59t87 -173q0 -147 -127.5 -242t-365.5 -95q-120 0 -204.5 24t-109.5 36v143q95 -43 233 -43q279 0 279 183q0 60 -51.5 104.5t-157.5 46.5l-113 -34l-39 116q100 18 197.5 71t97.5 144
q0 61 -37 90.5t-128 29.5t-152 -29.5t-82 -45.5l-72 115q81 77 200 101.5t193 24.5q157 0 253.5 -66.5t96.5 -177.5zM2223 206v-204h-231l-1 204h-478l-86 111q79 140 409 784h234l48 -56l-351 -563l-111 -138l338 17l24 244l205 17v-249l176 9l-1 -176h-175z" />
    <glyph glyph-name="questiondown" unicode="&#xbf;" horiz-adv-x="1040" 
d="M692 1347q40 -59 15 -127q-24 -65 -87 -96q-69 -34 -137 -15q-31 9 -55 28q-48 38 -56 88q-13 87 34 135q47 49 129 57q99 16 157 -70zM544 666q0 64 -24 214l183 37q29 -31 67 -137t40 -163q2 -58 -13 -89t-43 -59q-42 -42 -176 -120t-213 -134v-27q0 -164 102 -292
t302 -128q58 0 127 15l45 -175q-67 -40 -304 -40q-391 0 -536 266q-59 108 -60 210q0 103 30 160q29 57 76 101q46 44 103 78t112 65q54 30 101 61t72 69q9 24 9 88z" />
    <glyph glyph-name="Agrave" unicode="&#xc0;" horiz-adv-x="1443" 
d="M872 561l-181 619l-31 141l-31 -141l-172 -619h415zM1478 0h-633v134l144 26l-72 247h-503l-70 -251l159 -22v-134h-539l-2 134l120 26l462 1369h353l465 -1370l116 -25v-134zM789 1614q-84 21 -176 76q-175 103 -224 176l204 148h1l313 -312l-117 -88h-1z" />
    <glyph glyph-name="Aacute" unicode="&#xc1;" horiz-adv-x="1443" 
d="M872 561l-181 619l-31 141l-31 -141l-172 -619h415zM1478 0h-633v134l144 26l-72 247h-503l-70 -251l159 -22v-134h-539l-2 134l120 26l462 1369h353l465 -1370l116 -25v-134zM570 1702l313 312h1l205 -148q-72 -86 -200 -161t-201 -91h-1z" />
    <glyph glyph-name="Acircumflex" unicode="&#xc2;" horiz-adv-x="1443" 
d="M872 561l-181 619l-31 141l-31 -141l-172 -619h415zM1478 0h-633v134l144 26l-72 247h-503l-70 -251l159 -22v-134h-539l-2 134l120 26l462 1369h353l465 -1370l116 -25v-134zM324 1711l299 297h202l300 -296l-112 -88l-289 191l-291 -191z" />
    <glyph glyph-name="Atilde" unicode="&#xc3;" horiz-adv-x="1443" 
d="M872 561l-181 619l-31 141l-31 -141l-172 -619h415zM1478 0h-633v134l144 26l-72 247h-503l-70 -251l159 -22v-134h-539l-2 134l120 26l462 1369h353l465 -1370l116 -25v-134zM901 1653q-73 0 -125 29q-52 30 -80 50t-75 49q-46 29 -87 29q-42 0 -66 -12t-44 -29
q-19 -17 -33 -35t-25 -29l-104 89q60 135 196 193q52 22 105 22q53 1 89 -11t66 -30t56 -37q26 -20 70 -49q43 -29 84 -29q40 0 64 11t40 27q18 17 30 35t25 32l105 -89q-111 -216 -291 -216z" />
    <glyph glyph-name="Adieresis" unicode="&#xc4;" horiz-adv-x="1443" 
d="M872 561l-181 619l-31 141l-31 -141l-172 -619h415zM1478 0h-633v134l144 26l-72 247h-503l-70 -251l159 -22v-134h-539l-2 134l120 26l462 1369h353l465 -1370l116 -25v-134zM441 1653q-65 0 -107 46q-41 46 -41 98q0 94 45 147t132 53h1q79 0 121 -45q41 -45 41 -99
q0 -200 -191 -200h-1zM968 1653q-64 0 -105 48q-42 48 -42 98q0 94 45 146t131 52h1q79 0 121 -45t42 -99q0 -97 -49 -148q-49 -52 -143 -52h-1z" />
    <glyph glyph-name="Aring" unicode="&#xc5;" horiz-adv-x="1443" 
d="M868 561l-181 619l-31 141l-31 -141l-172 -619h415zM728 1894q-155 0 -155 -140q0 -64 37 -107.5t117 -43.5h1q124 0 137.5 52.5t13.5 84.5q0 154 -150 154h-1zM738 2014q261 0 302.5 -106t40.5 -176t-49.5 -129.5t-133.5 -89.5l460 -1354l116 -25v-134h-633v134l144 26
l-72 247h-503l-70 -251l159 -22v-134h-539l-2 134l120 26l456 1353q-169 59 -164 240q2 120 106 190.5t261 70.5h1z" />
    <glyph glyph-name="AE" unicode="&#xc6;" horiz-adv-x="1930" 
d="M813 578v795h-112l-298 -795h410zM226 1522h1535l28 -354h-162l-70 200l-407 19v-533l255 7l35 163h147v-505h-146l-35 172l-256 6v-552l456 27l133 258l185 -53l-70 -377h-1198v132l157 25v262h-469l-97 -261l149 -26v-132h-561v132l144 28l500 1193l-253 28v141z" />
    <glyph glyph-name="Ccedilla" unicode="&#xc7;" horiz-adv-x="1351" 
d="M599 -314h1q74 0 105 25t31 97q0 73 -20 116.5t-27 58.5q-310 29 -472 230t-162 551t213 562t545 212q148 0 293.5 -25t176.5 -28l-24 -446h-214l-70 302q-39 52 -194 52t-248.5 -157t-93.5 -456q0 -454 135 -555.5t250 -101.5t170 66l96 221l194 -18l-38 -336
q-45 -4 -84 -15.5t-118.5 -34.5t-197.5 -28q119 -139 113 -274q-8 -179 -118.5 -201.5t-179.5 -22.5h-1q-81 0 -144 29l1 190q39 -13 82 -13z" />
    <glyph glyph-name="Egrave" unicode="&#xc8;" 
d="M729 1614q-84 21 -176 76q-175 103 -224 176l204 148h1l313 -312l-117 -88h-1zM74 1522h1107l28 -353h-163l-70 198l-404 20v-532l254 6l37 165h146v-509h-146l-35 176l-256 6v-554l450 27l125 258l171 -49l-52 -381h-1189v134l156 25v1193l-159 29v141z" />
    <glyph glyph-name="Eacute" unicode="&#xc9;" 
d="M529 1702l313 312h1l205 -148q-72 -86 -200 -161t-201 -91h-1zM74 1522h1107l28 -353h-163l-70 198l-404 20v-532l254 6l37 165h146v-509h-146l-35 176l-256 6v-554l450 27l125 258l171 -49l-52 -381h-1189v134l156 25v1193l-159 29v141z" />
    <glyph glyph-name="Ecircumflex" unicode="&#xca;" 
d="M74 1522h1107l28 -353h-163l-70 198l-404 20v-532l254 6l37 165h146v-509h-146l-35 176l-256 6v-554l450 27l125 258l171 -49l-52 -381h-1189v134l156 25v1193l-159 29v141zM296 1711l299 297h202l300 -296l-112 -88l-289 191l-291 -191z" />
    <glyph glyph-name="Edieresis" unicode="&#xcb;" 
d="M412 1653q-65 0 -107 46q-41 46 -41 98q0 94 45 147t132 53h1q79 0 121 -45q41 -45 41 -99q0 -200 -191 -200h-1zM939 1653q-64 0 -105 48q-42 48 -42 98q0 94 45 146t131 52h1q79 0 121 -45t42 -99q0 -97 -49 -148q-49 -52 -143 -52h-1zM74 1522h1107l28 -353h-163
l-70 198l-404 20v-532l254 6l37 165h146v-509h-146l-35 176l-256 6v-554l450 27l125 258l171 -49l-52 -381h-1189v134l156 25v1193l-159 29v141z" />
    <glyph glyph-name="Igrave" unicode="&#xcc;" horiz-adv-x="850" 
d="M89 1522h674v-141l-168 -28v-1193l170 -28v-132h-674v134l165 26v1192l-167 29v141zM451 1614q-84 21 -176 76q-175 103 -224 176l204 148h1l313 -312l-117 -88h-1z" />
    <glyph glyph-name="Iacute" unicode="&#xcd;" horiz-adv-x="850" 
d="M89 1522h674v-141l-168 -28v-1193l170 -28v-132h-674v134l165 26v1192l-167 29v141zM283 1702l313 312h1l205 -148q-72 -86 -200 -161t-201 -91h-1z" />
    <glyph glyph-name="Icircumflex" unicode="&#xce;" horiz-adv-x="850" 
d="M89 1522h674v-141l-168 -28v-1193l170 -28v-132h-674v134l165 26v1192l-167 29v141zM23 1711l299 297h202l300 -296l-112 -88l-289 191l-291 -191z" />
    <glyph glyph-name="Idieresis" unicode="&#xcf;" horiz-adv-x="850" 
d="M89 1522h674v-141l-168 -28v-1193l170 -28v-132h-674v134l165 26v1192l-167 29v141zM139 1653q-65 0 -107 46q-41 46 -41 98q0 94 45 147t132 53h1q79 0 121 -45q41 -45 41 -99q0 -200 -191 -200h-1zM666 1653q-64 0 -105 48q-42 48 -42 98q0 94 45 146t131 52h1
q79 0 121 -45t42 -99q0 -97 -49 -148q-49 -52 -143 -52h-1z" />
    <glyph glyph-name="Eth" unicode="&#xd0;" horiz-adv-x="1568" 
d="M705 1394q-52 0 -137 -16v-518h287v-142h-287v-567q57 -21 160 -20q200 3 304.5 159.5t104.5 471.5q0 460 -158.5 546t-273.5 86zM1506 807q0 -366 -212.5 -598.5t-566.5 -224.5q-67 2 -169.5 9t-154.5 7h-326v134l156 25v559h-142v142h142v493l-149 28v141h311l357 13
q565 0 659.5 -275.5t94.5 -452.5z" />
    <glyph glyph-name="Ntilde" unicode="&#xd1;" horiz-adv-x="1655" 
d="M682 2009q53 1 89 -11t66 -30q31 -18 57 -37q26 -20 69 -49t84 -29q39 0 63 11t42 27q18 17 30 35t24 32l105 -89q-111 -216 -291 -216q-73 0 -125 29q-53 30 -81 50t-74 49t-87 29q-43 0 -67 -12t-43 -29t-33 -35t-25 -29l-104 89q61 135 197 193q52 22 104 22zM73 1522
h499l582 -883l109 -232v947l-176 27v141h526v-141l-158 -28v-1353h-278l-613 937l-136 274v-1052l210 -25v-134h-565v134l162 25v1194l-162 28v141z" />
    <glyph glyph-name="Ograve" unicode="&#xd2;" horiz-adv-x="1503" 
d="M810 1614q-84 21 -176 76q-175 103 -224 176l204 148h1l313 -312l-117 -88h-1zM1072 783q0 620 -320 620q-233 0 -298 -359q-22 -122 -22 -286q0 -324 83 -483t235 -159q150 0 236 168t86 499zM252 1327q192 214 526 214q333 0 499 -200q167 -200 167 -558
q0 -359 -193 -581t-523 -225q-330 -4 -499 205t-169 570t192 575z" />
    <glyph glyph-name="Oacute" unicode="&#xd3;" horiz-adv-x="1503" 
d="M599 1702l313 312h1l205 -148q-72 -86 -200 -161t-201 -91h-1zM1072 783q0 620 -320 620q-233 0 -298 -359q-22 -122 -22 -286q0 -324 83 -483t235 -159q150 0 236 168t86 499zM252 1327q192 214 526 214q333 0 499 -200q167 -200 167 -558q0 -359 -193 -581t-523 -225
q-330 -4 -499 205t-169 570t192 575z" />
    <glyph glyph-name="Ocircumflex" unicode="&#xd4;" horiz-adv-x="1503" 
d="M1072 783q0 620 -320 620q-233 0 -298 -359q-22 -122 -22 -286q0 -324 83 -483t235 -159q150 0 236 168t86 499zM252 1327q192 214 526 214q333 0 499 -200q167 -200 167 -558q0 -359 -193 -581t-523 -225q-330 -4 -499 205t-169 570t192 575zM353 1711l299 297h202
l300 -296l-112 -88l-289 191l-291 -191z" />
    <glyph glyph-name="Otilde" unicode="&#xd5;" horiz-adv-x="1503" 
d="M929 1653q-73 0 -125 29q-52 30 -80 50t-75 49q-46 29 -87 29q-42 0 -66 -12t-44 -29q-19 -17 -33 -35t-25 -29l-104 89q60 135 196 193q52 22 105 22q53 1 89 -11t66 -30t56 -37q26 -20 70 -49q43 -29 84 -29q40 0 64 11t40 27q18 17 30 35t25 32l105 -89
q-111 -216 -291 -216zM1072 783q0 620 -320 620q-233 0 -298 -359q-22 -122 -22 -286q0 -324 83 -483t235 -159q150 0 236 168t86 499zM252 1327q192 214 526 214q333 0 499 -200q167 -200 167 -558q0 -359 -193 -581t-523 -225q-330 -4 -499 205t-169 570t192 575z" />
    <glyph glyph-name="Odieresis" unicode="&#xd6;" horiz-adv-x="1503" 
d="M469 1653q-65 0 -107 46q-41 46 -41 98q0 94 45 147t132 53h1q79 0 121 -45q41 -45 41 -99q0 -200 -191 -200h-1zM996 1653q-64 0 -105 48q-42 48 -42 98q0 94 45 146t131 52h1q79 0 121 -45t42 -99q0 -97 -49 -148q-49 -52 -143 -52h-1zM1072 783q0 620 -320 620
q-233 0 -298 -359q-22 -122 -22 -286q0 -324 83 -483t235 -159q150 0 236 168t86 499zM252 1327q192 214 526 214q333 0 499 -200q167 -200 167 -558q0 -359 -193 -581t-523 -225q-330 -4 -499 205t-169 570t192 575z" />
    <glyph glyph-name="multiply" unicode="&#xd7;" horiz-adv-x="1260" 
d="M480 616l-341 322l175 176l317 -349l315 349l172 -175l-336 -323l336 -321l-172 -175l-315 347l-315 -347l-173 174z" />
    <glyph glyph-name="Oslash" unicode="&#xd8;" horiz-adv-x="1494" 
d="M746 116q150 0 235.5 167.5t85.5 495.5t-88 481l-376 -1099q61 -45 143 -45zM754 1403q-326 0 -327 -646q0 -341 94 -502l377 1101q-62 47 -144 47zM1439 784q0 -360 -193 -581.5t-509 -225.5q-103 0 -190 18l-93 -235l-152 43l96 242q-343 170 -343 710q0 358 192.5 572
t512.5 214q98 0 191 -19l85 221l143 -45l-87 -223q347 -162 347 -691z" />
    <glyph glyph-name="Ugrave" unicode="&#xd9;" horiz-adv-x="1519" 
d="M856 1614q-84 21 -176 76q-175 103 -224 176l204 148h1l313 -312l-117 -88h-1zM511 595q0 -469 322 -469q159 0 237 122t77 342v762l-172 29v141h524v-141l-135 -29v-745q0 -320 -157 -471q-157 -152 -420 -152q-323 0 -475 152t-152 488v728l-130 29v141h650v-141
l-169 -30v-756z" />
    <glyph glyph-name="Uacute" unicode="&#xda;" horiz-adv-x="1519" 
d="M644 1702l313 312h1l205 -148q-72 -86 -200 -161t-201 -91h-1zM511 595q0 -469 322 -469q159 0 237 122t77 342v762l-172 29v141h524v-141l-135 -29v-745q0 -320 -157 -471q-157 -152 -420 -152q-323 0 -475 152t-152 488v728l-130 29v141h650v-141l-169 -30v-756z" />
    <glyph glyph-name="Ucircumflex" unicode="&#xdb;" horiz-adv-x="1519" 
d="M511 595q0 -469 322 -469q159 0 237 122t77 342v762l-172 29v141h524v-141l-135 -29v-745q0 -320 -157 -471q-157 -152 -420 -152q-323 0 -475 152t-152 488v728l-130 29v141h650v-141l-169 -30v-756zM403 1711l299 297h202l300 -296l-112 -88l-289 191l-291 -191z" />
    <glyph glyph-name="Udieresis" unicode="&#xdc;" horiz-adv-x="1519" 
d="M515 1653q-65 0 -107 46q-41 46 -41 98q0 94 45 147t132 53h1q79 0 121 -45q41 -45 41 -99q0 -200 -191 -200h-1zM1042 1653q-64 0 -105 48q-42 48 -42 98q0 94 45 146t131 52h1q79 0 121 -45t42 -99q0 -97 -49 -148q-49 -52 -143 -52h-1zM511 595q0 -469 322 -469
q159 0 237 122t77 342v762l-172 29v141h524v-141l-135 -29v-745q0 -320 -157 -471q-157 -152 -420 -152q-323 0 -475 152t-152 488v728l-130 29v141h650v-141l-169 -30v-756z" />
    <glyph glyph-name="Yacute" unicode="&#xdd;" horiz-adv-x="1322" 
d="M-46 1522h638v-141l-135 -29l239 -481l46 -129l51 127l219 484l-153 28v141h517v-141l-127 -26l-394 -746v-449l217 -26v-134h-783v134l209 25v450l-424 743l-120 29v141zM535 1702l313 312h1l205 -148q-72 -86 -200 -161t-201 -91h-1z" />
    <glyph glyph-name="Thorn" unicode="&#xde;" horiz-adv-x="1367" 
d="M964 774q0 195 -109 243.5t-284 14.5v-561q55 -9 139 -9q83 0 123 19t85.5 80t45.5 213zM802 325q-123 0 -231 12v-179l209 -26v-132h-707v132l159 26v1196l-159 30v138h664l2 -138l-168 -30v-181q37 3 118.5 11.5t176.5 8.5q455 0 455 -405q-1 -463 -519 -463z" />
    <glyph glyph-name="germandbls" unicode="&#xdf;" horiz-adv-x="1349" 
d="M927 190q42 45 42 110t-21 114t-52 91t-119.5 134t-88.5 213q0 65 36 113.5t97.5 119.5t61.5 202q0 175 -148 175q-129 0 -187 -112.5t-58 -342.5v-1007h-445v134l116 22v811q0 284 174.5 464t454.5 180q194 0 295 -70.5t101 -202.5t-93.5 -212.5t-114.5 -114t-21 -71.5
t26.5 -73.5t66.5 -73t153.5 -139t113.5 -288.5t-131 -288t-366 -101q-92 0 -172 23v175q65 -30 151 -30t128 45z" />
    <glyph glyph-name="agrave" unicode="&#xe0;" horiz-adv-x="1166" 
d="M448 214q44 -48 108 -49q96 0 165 65v336q-167 0 -242 -60q-74 -60 -74 -152q-1 -92 43 -140zM901 -25q-72 1 -98 5t-48 22t-22 88v31q-81 -94 -214 -130q-51 -14 -117 -14q-143 0 -243 90q-101 90 -101 252q0 187 175 283q175 95 488 99v42q0 112 -41 159
q-41 48 -183 48t-329 -81h-1l-65 135q57 48 152 86q190 74 328 74t219 -23t129 -73q90 -93 91 -320v-613h109v-127q-157 -33 -229 -33zM616 1307q-87 31 -233 150t-197 205l194 175h1l357 -430l-120 -100h-2z" />
    <glyph glyph-name="aacute" unicode="&#xe1;" horiz-adv-x="1166" 
d="M448 214q44 -48 108 -49q96 0 165 65v336q-167 0 -242 -60q-74 -60 -74 -152q-1 -92 43 -140zM901 -25q-72 1 -98 5t-48 22t-22 88v31q-81 -94 -214 -130q-51 -14 -117 -14q-143 0 -243 90q-101 90 -101 252q0 187 175 283q175 95 488 99v42q0 112 -41 159
q-41 48 -183 48t-329 -81h-1l-65 135q57 48 152 86q190 74 328 74t219 -23t129 -73q90 -93 91 -320v-613h109v-127q-157 -33 -229 -33zM386 1407l358 430h1l194 -175q-69 -117 -284 -271q-89 -64 -146 -84h-2z" />
    <glyph glyph-name="acircumflex" unicode="&#xe2;" horiz-adv-x="1166" 
d="M448 214q44 -48 108 -49q96 0 165 65v336q-167 0 -242 -60q-74 -60 -74 -152q-1 -92 43 -140zM901 -25q-72 1 -98 5t-48 22t-22 88v31q-81 -94 -214 -130q-51 -14 -117 -14q-143 0 -243 90q-101 90 -101 252q0 187 175 283q175 95 488 99v42q0 112 -41 159
q-41 48 -183 48t-329 -81h-1l-65 135q57 48 152 86q190 74 328 74t219 -23t129 -73q90 -93 91 -320v-613h109v-127q-157 -33 -229 -33zM166 1392l306 400h195l306 -399l-112 -88l-290 254l-299 -255z" />
    <glyph glyph-name="atilde" unicode="&#xe3;" horiz-adv-x="1166" 
d="M448 214q44 -48 108 -49q96 0 165 65v336q-167 0 -242 -60q-74 -60 -74 -152q-1 -92 43 -140zM901 -25q-72 1 -98 5t-48 22t-22 88v31q-81 -94 -214 -130q-51 -14 -117 -14q-143 0 -243 90q-101 90 -101 252q0 187 175 283q175 95 488 99v42q0 112 -41 159
q-41 48 -183 48t-329 -81h-1l-65 135q57 48 152 86q190 74 328 74t219 -23t129 -73q90 -93 91 -320v-613h109v-127q-157 -33 -229 -33zM735 1322q-73 0 -122 30t-75 50t-52 39q-26 18 -54 30t-58 12q-53 0 -87 -26q-33 -26 -70 -71l-105 81q65 143 197 201q51 22 104 23
q53 0 88 -12t64 -30q29 -19 55 -39t66 -50q41 -30 80 -30q40 0 64 10t42 26q18 15 31 32t23 30l106 -82q-109 -224 -297 -224z" />
    <glyph glyph-name="adieresis" unicode="&#xe4;" horiz-adv-x="1166" 
d="M448 214q44 -48 108 -49q96 0 165 65v336q-167 0 -242 -60q-74 -60 -74 -152q-1 -92 43 -140zM901 -25q-72 1 -98 5t-48 22t-22 88v31q-81 -94 -214 -130q-51 -14 -117 -14q-143 0 -243 90q-101 90 -101 252q0 187 175 283q175 95 488 99v42q0 112 -41 159
q-41 48 -183 48t-329 -81h-1l-65 135q57 48 152 86q190 74 328 74t219 -23t129 -73q90 -93 91 -320v-613h109v-127q-157 -33 -229 -33zM490 1541q0 -205 -191 -205h-1q-65 0 -107 47t-42 101q0 97 45 150q45 54 132 54h1q78 0 121 -46q42 -46 42 -101zM801 1336
q-64 0 -106 49t-42 100q0 96 45 149q45 54 132 54h1q121 0 153 -100q10 -30 9 -66q0 -82 -48 -134t-143 -52h-1z" />
    <glyph glyph-name="aring" unicode="&#xe5;" horiz-adv-x="1166" 
d="M448 214q44 -48 108 -49q96 0 165 65v336q-167 0 -242 -60q-74 -60 -74 -152q-1 -92 43 -140zM901 -25q-72 1 -98 5t-48 22t-22 88v31q-81 -94 -214 -130q-51 -14 -117 -14q-143 0 -243 90q-101 90 -101 252q0 187 175 283q175 95 488 99v42q0 112 -41 159
q-41 48 -183 48t-329 -81h-1l-65 135q57 48 152 86q190 74 328 74t219 -23t129 -73q90 -93 91 -320v-613h109v-127q-157 -33 -229 -33zM568 1744q-164 0 -164 -149q0 -112 90 -150q30 -13 73 -13h1q129 0 153 83q8 29 8 65q0 164 -160 164h-1zM562 1295q-181 0 -267 83
q-87 83 -85 217q2 135 110 212t258 77h1q169 0 256 -81t86 -216t-103 -213q-102 -79 -255 -79h-1z" />
    <glyph glyph-name="ae" unicode="&#xe6;" horiz-adv-x="1778" 
d="M721 568v3q-165 0 -238.5 -63.5t-73.5 -153.5q0 -189 148 -189q92 0 144 48.5t66 70.5q-46 124 -46 284zM1394 763q0 263 -158 263q-88 0 -136 -74.5t-52 -272.5h344q2 32 2 84zM1262 -23q-306 0 -444 206q-91 -138 -217.5 -172t-234.5 -34t-207.5 85.5t-99.5 246.5
q0 192 177 290t485 102v43q0 110 -42.5 156t-185.5 46t-334 -81l-66 139q53 48 202.5 104t304.5 56q245 0 323 -111q140 114 352 114q479 0 456 -292.5t-31 -332.5h-649q17 -274 126 -318t161 -44q86 0 169.5 25.5t138.5 58.5l54 -123q-92 -99 -229.5 -131.5t-208.5 -32.5z
" />
    <glyph glyph-name="ccedilla" unicode="&#xe7;" horiz-adv-x="1062" 
d="M444 -314h1q74 0 105 25t31 105q0 81 -46 164q-231 21 -345 175t-115 415t159.5 429.5t426.5 168.5q140 0 228.5 -29.5t114.5 -32.5l-14 -355h-201l-52 214q-21 57 -108 57q-208 0 -208 -396q-2 -222 70 -336t191 -114q150 0 274 81l55 -121q-65 -77 -165.5 -111
t-158.5 -42q123 -137 117 -279q-8 -179 -118.5 -201.5t-179.5 -22.5h-1q-81 0 -144 29l1 190q39 -13 82 -13z" />
    <glyph glyph-name="egrave" unicode="&#xe8;" horiz-adv-x="1129" 
d="M589 1026q-88 0 -136 -74t-52 -273h345l1 84q0 263 -158 263zM692 180q161 0 300 85l58 -124q-92 -99 -299 -148q-67 -16 -175 -16q-108 -1 -211 43q-298 126 -298 548q0 279 153 439t404 160q212 0 324 -108t117 -306q0 -136 -15 -211h-646q17 -274 184 -341
q52 -21 104 -21zM635 1307q-87 31 -233 150t-197 205l194 175h1l357 -430l-120 -100h-2z" />
    <glyph glyph-name="eacute" unicode="&#xe9;" horiz-adv-x="1129" 
d="M405 1407l358 430h1l194 -175q-69 -117 -284 -271q-89 -64 -146 -84h-2zM589 1026q-88 0 -136 -74t-52 -273h345l1 84q0 263 -158 263zM692 180q161 0 300 85l58 -124q-92 -99 -299 -148q-67 -16 -175 -16q-108 -1 -211 43q-298 126 -298 548q0 279 153 439t404 160
q212 0 324 -108t117 -306q0 -136 -15 -211h-646q17 -274 184 -341q52 -21 104 -21z" />
    <glyph glyph-name="ecircumflex" unicode="&#xea;" horiz-adv-x="1129" 
d="M184 1392l306 400h195l306 -399l-112 -88l-290 254l-299 -255zM589 1026q-88 0 -136 -74t-52 -273h345l1 84q0 263 -158 263zM692 180q161 0 300 85l58 -124q-92 -99 -299 -148q-67 -16 -175 -16q-108 -1 -211 43q-298 126 -298 548q0 279 153 439t404 160
q212 0 324 -108t117 -306q0 -136 -15 -211h-646q17 -274 184 -341q52 -21 104 -21z" />
    <glyph glyph-name="edieresis" unicode="&#xeb;" horiz-adv-x="1129" 
d="M512 1541q0 -205 -191 -205h-1q-65 0 -107 47t-42 101q0 97 45 150q45 54 132 54h1q78 0 121 -46q42 -46 42 -101zM823 1336q-64 0 -106 49t-42 100q0 96 45 149q45 54 132 54h1q121 0 153 -100q10 -30 9 -66q0 -82 -48 -134t-143 -52h-1zM589 1026q-88 0 -136 -74
t-52 -273h345l1 84q0 263 -158 263zM692 180q161 0 300 85l58 -124q-92 -99 -299 -148q-67 -16 -175 -16q-108 -1 -211 43q-298 126 -298 548q0 279 153 439t404 160q212 0 324 -108t117 -306q0 -136 -15 -211h-646q17 -274 184 -341q52 -21 104 -21z" />
    <glyph glyph-name="igrave" unicode="&#xec;" horiz-adv-x="721" 
d="M665 0h-588v134l134 20v768l-135 41v153l394 50h5l62 -44v-969l128 -19v-134zM401 1307q-87 31 -233 150t-197 205l194 175h1l357 -430l-120 -100h-2z" />
    <glyph glyph-name="iacute" unicode="&#xed;" horiz-adv-x="721" 
d="M171 1407l358 430h1l194 -175q-69 -117 -284 -271q-89 -64 -146 -84h-2zM665 0h-588v134l134 20v768l-135 41v153l394 50h5l62 -44v-969l128 -19v-134z" />
    <glyph glyph-name="icircumflex" unicode="&#xee;" horiz-adv-x="721" 
d="M-51 1392l306 400h195l306 -399l-112 -88l-290 254l-299 -255zM665 0h-588v134l134 20v768l-135 41v153l394 50h5l62 -44v-969l128 -19v-134z" />
    <glyph glyph-name="idieresis" unicode="&#xef;" horiz-adv-x="721" 
d="M278 1541q0 -205 -191 -205h-1q-65 0 -107 47t-42 101q0 97 45 150q45 54 132 54h1q78 0 121 -46q42 -46 42 -101zM589 1336q-64 0 -106 49t-42 100q0 96 45 149q45 54 132 54h1q121 0 153 -100q10 -30 9 -66q0 -82 -48 -134t-143 -52h-1zM665 0h-588v134l134 20v768
l-135 41v153l394 50h5l62 -44v-969l128 -19v-134z" />
    <glyph glyph-name="eth" unicode="&#xf0;" horiz-adv-x="1229" 
d="M421 580q0 -308 74 -382t127 -74q105 0 156 119.5t51 360.5t-37 359q-60 67 -164 67q-207 0 -207 -450zM1168 718q0 -122 -12 -205.5t-54.5 -207.5t-167.5 -226t-324 -102q-261 0 -401 154.5t-140 433.5t155.5 441t373.5 162q100 0 179 -32q-65 213 -268 351l-126 -166
l-134 92l133 164q-124 77 -207 100l57 139q146 -38 262 -95q119 156 124 164l127 -100l-114 -143q371 -254 454 -528t83 -396z" />
    <glyph glyph-name="ntilde" unicode="&#xf1;" horiz-adv-x="1419" 
d="M772 971q-122 0 -222 -82v-736l116 -19v-134h-562v134l116 18v770l-123 40v158l361 46h5l55 -44v-73l-2 -46q175 159 423 159q168 0 241 -102t73 -351v-555l120 -18v-136h-556v134l105 19v556q0 147 -24 190t-56 57q-30 14 -70 15zM453 1457q-33 -26 -70 -71l-105 81
q65 143 197 201q51 22 104 23q53 0 88 -12t64 -30q29 -19 55 -39t66 -50q41 -30 80 -30q40 0 64 10t42 26q18 15 31 32t23 30l106 -82q-109 -224 -297 -224q-73 0 -122 30t-75 50t-52 39q-59 42 -113 42q-53 0 -86 -26z" />
    <glyph glyph-name="ograve" unicode="&#xf2;" horiz-adv-x="1243" 
d="M414 590q0 -470 211 -470q103 0 153 105t49 330q0 351 -111 439q-39 31 -96 31q-104 0 -155 -105t-51 -330zM229 1011q166 157 415 157q248 0 392 -157t144 -441q0 -285 -164 -439t-415 -154t-395 157t-143 439q0 281 166 438zM668 1307q-87 31 -233 150t-197 205
l194 175h1l357 -430l-120 -100h-2z" />
    <glyph glyph-name="oacute" unicode="&#xf3;" horiz-adv-x="1243" 
d="M438 1407l358 430h1l194 -175q-69 -117 -284 -271q-89 -64 -146 -84h-2zM414 590q0 -470 211 -470q103 0 153 105t49 330q0 351 -111 439q-39 31 -96 31q-104 0 -155 -105t-51 -330zM229 1011q166 157 415 157q248 0 392 -157t144 -441q0 -285 -164 -439t-415 -154
t-395 157t-143 439q0 281 166 438z" />
    <glyph glyph-name="ocircumflex" unicode="&#xf4;" horiz-adv-x="1243" 
d="M218 1392l306 400h195l306 -399l-112 -88l-290 254l-299 -255zM414 590q0 -470 211 -470q103 0 153 105t49 330q0 351 -111 439q-39 31 -96 31q-104 0 -155 -105t-51 -330zM229 1011q166 157 415 157q248 0 392 -157t144 -441q0 -285 -164 -439t-415 -154t-395 157
t-143 439q0 281 166 438z" />
    <glyph glyph-name="otilde" unicode="&#xf5;" horiz-adv-x="1243" 
d="M414 590q0 -470 211 -470q103 0 153 105t49 330q0 351 -111 439q-39 31 -96 31q-104 0 -155 -105t-51 -330zM229 1011q166 157 415 157q248 0 392 -157t144 -441q0 -285 -164 -439t-415 -154t-395 157t-143 439q0 281 166 438zM339 1457q-33 -26 -70 -71l-105 81
q65 143 197 201q51 22 104 23q53 0 88 -12t64 -30q29 -19 55 -39t66 -50q41 -30 80 -30q40 0 64 10t42 26q18 15 31 32t23 30l106 -82q-109 -224 -297 -224q-73 0 -122 30t-75 50t-52 39q-59 42 -113 42q-53 0 -86 -26z" />
    <glyph glyph-name="odieresis" unicode="&#xf6;" horiz-adv-x="1243" 
d="M545 1541q0 -205 -191 -205h-1q-65 0 -107 47t-42 101q0 97 45 150q45 54 132 54h1q78 0 121 -46q42 -46 42 -101zM856 1336q-64 0 -106 49t-42 100q0 96 45 149q45 54 132 54h1q120 0 152 -100q10 -30 10 -66q0 -82 -48 -134t-143 -52h-1zM414 590q0 -470 211 -470
q103 0 153 105t49 330q0 351 -111 439q-39 31 -96 31q-104 0 -155 -105t-51 -330zM229 1011q166 157 415 157q248 0 392 -157t144 -441q0 -285 -164 -439t-415 -154t-395 157t-143 439q0 281 166 438z" />
    <glyph glyph-name="divide" unicode="&#xf7;" horiz-adv-x="1357" 
d="M557.5 308q55.5 49 133.5 49t123 -45t45 -98q0 -91 -54.5 -138t-130.5 -47t-124 44t-48 115t55.5 120zM207 715h943v-202h-943v202zM560.5 929q-48.5 43 -48.5 95q0 89 56 139t134 50t122.5 -46t44.5 -98q0 -53 -15 -84.5t-54.5 -65t-115.5 -33.5q-75 0 -123.5 43z" />
    <glyph glyph-name="oslash" unicode="&#xf8;" horiz-adv-x="1243" 
d="M625 120q103 0 152.5 105t49.5 335t-47 342l-245 -756q38 -26 90 -26zM620 1025q-104 0 -155 -105t-51 -341t55 -350l246 765q-42 31 -95 31zM634 -23q-86 0 -127 7l-85 -241l-140 39l84 240q-146 63 -224.5 201.5t-78.5 315.5q0 315 166.5 472t406.5 157q60 0 114 -9
l72 219l135 -39l-69 -221q141 -64 216.5 -202t75.5 -315t-47 -290.5t-126 -187.5t-183 -110t-190 -36z" />
    <glyph glyph-name="ugrave" unicode="&#xf9;" horiz-adv-x="1324" 
d="M876 103v37q-83 -104 -238 -148q-51 -14 -126 -15q-174 0 -261 100q-86 100 -86 334v565l-98 32v126l374 29h2l46 -28v-731q0 -136 34 -189t131 -53q98 0 185 72v742l-127 34v125l393 28h4l54 -28v-994h109v-129q-148 -35 -253 -35q-143 0 -143 126zM717 1307
q-87 31 -233 150t-197 205l194 175h1l357 -430l-120 -100h-2z" />
    <glyph glyph-name="uacute" unicode="&#xfa;" horiz-adv-x="1324" 
d="M487 1407l358 430h1l194 -175q-69 -117 -284 -271q-89 -64 -146 -84h-2zM876 103v37q-83 -104 -238 -148q-51 -14 -126 -15q-174 0 -261 100q-86 100 -86 334v565l-98 32v126l374 29h2l46 -28v-731q0 -136 34 -189t131 -53q98 0 185 72v742l-127 34v125l393 28h4l54 -28
v-994h109v-129q-148 -35 -253 -35q-143 0 -143 126z" />
    <glyph glyph-name="ucircumflex" unicode="&#xfb;" horiz-adv-x="1324" 
d="M266 1392l306 400h195l306 -399l-112 -88l-290 254l-299 -255zM876 103v37q-83 -104 -238 -148q-51 -14 -126 -15q-174 0 -261 100q-86 100 -86 334v565l-98 32v126l374 29h2l46 -28v-731q0 -136 34 -189t131 -53q98 0 185 72v742l-127 34v125l393 28h4l54 -28v-994h109
v-129q-148 -35 -253 -35q-143 0 -143 126z" />
    <glyph glyph-name="udieresis" unicode="&#xfc;" horiz-adv-x="1324" 
d="M563 1541q0 -205 -191 -205h-1q-65 0 -107 47t-42 101q0 97 45 150q45 54 132 54h1q78 0 121 -46q42 -46 42 -101zM874 1336q-64 0 -106 49t-42 100q0 96 45 149q45 54 132 54h1q120 0 152 -100q10 -30 10 -66q0 -82 -48 -134t-143 -52h-1zM876 103v37
q-83 -104 -238 -148q-51 -14 -126 -15q-174 0 -261 100q-86 100 -86 334v565l-98 32v126l374 29h2l46 -28v-731q0 -136 34 -189t131 -53q98 0 185 72v742l-127 34v125l393 28h4l54 -28v-994h109v-129q-148 -35 -253 -35q-143 0 -143 126z" />
    <glyph glyph-name="yacute" unicode="&#xfd;" horiz-adv-x="1179" 
d="M274 -510q-98 0 -138 20v241q38 -27 115 -27q79 0 119 16q115 44 196 260h-127l-374 981l-91 26v131h595v-131l-141 -26l171 -556l61 -212l51 212l159 558l-124 24v131h459v-131l-96 -24q-78 -246 -207 -614t-157 -440q-29 -73 -75 -163t-102 -150q-56 -62 -126 -94
t-168 -32zM430 1407l358 430h1l194 -175q-69 -117 -284 -271q-89 -64 -146 -84h-2z" />
    <glyph glyph-name="thorn" unicode="&#xfe;" horiz-adv-x="1279" 
d="M477 153q23 -49 139 -49q113 0 181.5 119t70.5 347q3 305 -84.5 353.5t-137.5 48.5q-103 0 -169 -77v-742zM662 -496h-637v126l132 26v1831l-147 25v119l396 49h5l66 -41v-597q121 126 295 126q305 0 373.5 -205.5t68.5 -347.5q0 -282 -166.5 -460t-444.5 -178
q-56 0 -133 5l7 -134v-193l185 -25v-126z" />
    <glyph glyph-name="ydieresis" unicode="&#xff;" horiz-adv-x="1179" 
d="M274 -510q-98 0 -138 20v241q38 -27 115 -27q79 0 119 16q115 44 196 260h-127l-374 981l-91 26v131h595v-131l-141 -26l171 -556l61 -212l51 212l159 558l-124 24v131h459v-131l-96 -24q-78 -246 -207 -614t-157 -440q-29 -73 -75 -163t-102 -150q-56 -62 -126 -94
t-168 -32zM534 1541q0 -205 -191 -205h-1q-65 0 -107 47t-42 101q0 97 45 150q45 54 132 54h1q78 0 121 -46q42 -46 42 -101zM845 1336q-64 0 -106 49t-42 100q0 96 45 149q45 54 132 54h1q121 0 153 -100q10 -30 9 -66q0 -82 -48 -134t-143 -52h-1z" />
    <glyph glyph-name="Amacron" unicode="&#x100;" horiz-adv-x="1443" 
d="M872 561l-181 619l-31 141l-31 -141l-172 -619h415zM1478 0h-633v134l144 26l-72 247h-503l-70 -251l159 -22v-134h-539l-2 134l120 26l462 1369h353l465 -1370l116 -25v-134zM406 1915h638v-195h-638v195z" />
    <glyph glyph-name="amacron" unicode="&#x101;" horiz-adv-x="1166" 
d="M448 214q44 -48 108 -49q96 0 165 65v336q-167 0 -242 -60q-74 -60 -74 -152q-1 -92 43 -140zM901 -25q-72 1 -98 5t-48 22t-22 88v31q-81 -94 -214 -130q-51 -14 -117 -14q-143 0 -243 90q-101 90 -101 252q0 187 175 283q175 95 488 99v42q0 112 -41 159
q-41 48 -183 48t-329 -81h-1l-65 135q57 48 152 86q190 74 328 74t219 -23t129 -73q90 -93 91 -320v-613h109v-127q-157 -33 -229 -33zM260 1616h618v-196h-618v196z" />
    <glyph glyph-name="Abreve" unicode="&#x102;" horiz-adv-x="1443" 
d="M872 561l-181 619l-31 141l-31 -141l-172 -619h415zM1478 0h-633v134l144 26l-72 247h-503l-70 -251l159 -22v-134h-539l-2 134l120 26l462 1369h353l465 -1370l116 -25v-134zM451 1722q-98 95 -98 237v23q0 12 2 22h158q-1 -66 53 -116q58 -54 166 -54t159 49
q50 49 50 111v10h161q2 -12 2 -22v-22q0 -140 -99 -237q-99 -96 -277 -96q-179 0 -277 95z" />
    <glyph glyph-name="abreve" unicode="&#x103;" horiz-adv-x="1166" 
d="M448 214q44 -48 108 -49q96 0 165 65v336q-167 0 -242 -60q-74 -60 -74 -152q-1 -92 43 -140zM901 -25q-72 1 -98 5t-48 22t-22 88v31q-81 -94 -214 -130q-51 -14 -117 -14q-143 0 -243 90q-101 90 -101 252q0 187 175 283q175 95 488 99v42q0 112 -41 159
q-41 48 -183 48t-329 -81h-1l-65 135q57 48 152 86q190 74 328 74t219 -23t129 -73q90 -93 91 -320v-613h109v-127q-157 -33 -229 -33zM934 1656q0 -52 -26 -115t-75 -110q-103 -101 -267 -101q-163 0 -264 99q-102 99 -102 245q0 71 4 90h151q-1 -146 121 -194
q38 -16 96 -15q100 -1 156 55q56 55 55 154h147q4 -56 4 -108z" />
    <glyph glyph-name="Aogonek" unicode="&#x104;" horiz-adv-x="1443" 
d="M868 561l-181 619l-31 141l-31 -141l-172 -619h415zM1396 -445q-88 -68 -266 -68q-109 0 -188 53.5t-79 146.5q0 92 85.5 181.5t210.5 131.5h-318v134l144 26l-72 247h-503l-70 -251l159 -22v-134h-539l-2 134l120 26l462 1369h353l465 -1370l116 -25v-134h-129
q-96 -38 -157.5 -103t-61.5 -119q0 -55 40 -81.5t103 -26.5t127 26v-141z" />
    <glyph glyph-name="aogonek" unicode="&#x105;" horiz-adv-x="1166" 
d="M448.5 213.5q43.5 -48.5 107.5 -48.5q96 0 165 65v336q-167 0 -241.5 -60t-74.5 -152t43.5 -140.5zM995 -330q60 0 123 26v-141q-89 -68 -265 -68q-175 0 -215.5 77.5t-40.5 121.5q0 82 72.5 158.5t190.5 130.5q-72 0 -99.5 23t-27.5 92v31q-81 -94 -173 -119t-158 -25
q-143 0 -243.5 90t-100.5 252q0 187 175.5 282.5t487.5 99.5v42q0 112 -41.5 159.5t-182.5 47.5q-142 0 -329 -81h-1l-65 135q57 48 200 104t280 56q138 0 219 -23t150.5 -94.5t69.5 -298.5v-613h109v-127q-2 -2 -32 -10t-78 -35t-102 -77t-54 -105t35.5 -83t95.5 -28z" />
    <glyph glyph-name="Cacute" unicode="&#x106;" horiz-adv-x="1351" 
d="M268 1326q213 212 545 212q148 0 293 -25q146 -25 177 -28l-24 -446h-214l-70 302q-39 52 -194 52t-249 -157q-93 -157 -93 -456q-1 -454 201 -606q68 -52 184 -51q115 0 170 66l96 221l194 -18l-38 -336q-48 -6 -90 -18t-90 -26q-124 -35 -288 -35q-162 -1 -302 53
t-234 154q-188 201 -187 566q0 364 213 576zM632 1702l313 312h1l205 -148q-72 -86 -200 -161t-201 -91h-1z" />
    <glyph glyph-name="cacute" unicode="&#x107;" horiz-adv-x="1062" 
d="M423 1406l358 430h1l194 -175q-69 -117 -284 -271q-89 -64 -146 -84h-2zM682 176q150 0 274 81l55 -121q-83 -94 -270 -142q-65 -16 -171 -17q-106 0 -205 44q-288 127 -291 536q0 274 160 442q160 169 427 169q139 0 285 -48q32 -10 58 -14l-14 -355h-201l-52 214
q-21 57 -108 57q-208 0 -208 -396q-2 -222 70 -336t191 -114z" />
    <glyph glyph-name="Ccircumflex" unicode="&#x108;" horiz-adv-x="1351" 
d="M268 1326q213 212 545 212q148 0 293 -25q146 -25 177 -28l-24 -446h-214l-70 302q-39 52 -194 52t-249 -157q-93 -157 -93 -456q-1 -454 201 -606q68 -52 184 -51q115 0 170 66l96 221l194 -18l-38 -336q-48 -6 -90 -18t-90 -26q-124 -35 -288 -35q-162 -1 -302 53
t-234 154q-188 201 -187 566q0 364 213 576zM387 1711l299 297h202l300 -296l-112 -88l-289 191l-291 -191z" />
    <glyph glyph-name="ccircumflex" unicode="&#x109;" horiz-adv-x="1062" 
d="M205 1391l306 400h195l306 -399l-112 -88l-290 254l-299 -255zM682 176q150 0 274 81l55 -121q-83 -94 -270 -142q-65 -16 -171 -17q-106 0 -205 44q-288 127 -291 536q0 274 160 442q160 169 427 169q139 0 285 -48q32 -10 58 -14l-14 -355h-201l-52 214q-21 57 -108 57
q-208 0 -208 -396q-2 -222 70 -336t191 -114z" />
    <glyph glyph-name="Cdotaccent" unicode="&#x10a;" horiz-adv-x="1351" 
d="M773 1662q-73 0 -119 44t-46 98q0 97 48 145q48 49 136 49h1q126 0 166 -94q12 -28 12 -61q0 -81 -48 -131t-149 -50h-1zM268 1326q213 212 545 212q148 0 293 -25q146 -25 177 -28l-24 -446h-214l-70 302q-39 52 -194 52t-249 -157q-93 -157 -93 -456q-1 -454 201 -606
q68 -52 184 -51q115 0 170 66l96 221l194 -18l-38 -336q-48 -6 -90 -18t-90 -26q-124 -35 -288 -35q-162 -1 -302 53t-234 154q-188 201 -187 566q0 364 213 576z" />
    <glyph glyph-name="cdotaccent" unicode="&#x10b;" horiz-adv-x="1062" 
d="M682 176q150 0 274 81l55 -121q-83 -94 -270 -142q-65 -16 -171 -17q-106 0 -205 44q-288 127 -291 536q0 274 160 442q160 169 427 169q139 0 285 -48q32 -10 58 -14l-14 -355h-201l-52 214q-21 57 -108 57q-208 0 -208 -396q-2 -222 70 -336t191 -114zM587 1321
q-75 0 -124 47q-48 47 -48 103q0 100 51 157q51 56 141 56h1q84 0 132 -48t49 -105q0 -100 -52 -155t-149 -55h-1z" />
    <glyph glyph-name="Ccaron" unicode="&#x10c;" horiz-adv-x="1351" 
d="M268 1326q213 212 545 212q148 0 293 -25q146 -25 177 -28l-24 -446h-214l-70 302q-39 52 -194 52t-249 -157q-93 -157 -93 -456q-1 -454 201 -606q68 -52 184 -51q115 0 170 66l96 221l194 -18l-38 -336q-48 -6 -90 -18t-90 -26q-124 -35 -288 -35q-162 -1 -302 53
t-234 154q-188 201 -187 566q0 364 213 576zM407 1926l112 88l269 -178l284 178l110 -88l-292 -280h-203z" />
    <glyph glyph-name="ccaron" unicode="&#x10d;" horiz-adv-x="1062" 
d="M210 1713l108 87l293 -257l296 258l107 -87l-306 -400h-195zM682 176q150 0 274 81l55 -121q-83 -94 -270 -142q-65 -16 -171 -17q-106 0 -205 44q-288 127 -291 536q0 274 160 442q160 169 427 169q139 0 285 -48q32 -10 58 -14l-14 -355h-201l-52 214q-21 57 -108 57
q-208 0 -208 -396q-2 -222 70 -336t191 -114z" />
    <glyph glyph-name="Dcaron" unicode="&#x10e;" horiz-adv-x="1568" 
d="M416 1926l112 88l269 -178l284 178l110 -88l-292 -280h-203zM705 1394q-52 0 -137 -16v-1227q57 -21 160 -20q200 3 304 160q105 156 105 471q0 460 -235 588q-82 44 -197 44zM1506 807q0 -366 -213 -598t-566 -225q-67 2 -170 9t-154 7h-326v134l156 25v1194l-149 28
v141h311l357 13q565 0 708 -417q46 -134 46 -311z" />
    <glyph glyph-name="dcaron" unicode="&#x10f;" horiz-adv-x="1543" 
d="M667 1029q-111 0 -180 -106q-70 -106 -73 -329t58 -328t165 -105t170 77v745q-13 19 -51 33t-89 13zM842 134q-124 -157 -348 -157q-72 0 -153 33t-141 102q-130 150 -130 423q0 274 161 454q161 179 449 179q59 0 127 -14v329l-193 26v128l442 43h8l63 -47v-1493h107
v-132q-290 -64 -358 -12q-34 25 -34 94v44zM1514 1694q60 -64 60 -276q0 -133 -42 -263q-42 -129 -84 -168l-134 38l-6 26q27 104 27 224q0 257 -55 327l12 42z" />
    <glyph glyph-name="Dcroat" unicode="&#x110;" horiz-adv-x="1568" 
d="M705 1394q-52 0 -137 -16v-522h274v-151h-274v-554q57 -21 160 -20q200 3 304.5 159.5t104.5 471.5q0 460 -158.5 546t-273.5 86zM1506 807q0 -366 -212.5 -598.5t-566.5 -224.5q-67 2 -169.5 9t-154.5 7h-326v134l156 25v546h-155v151h155v497l-149 28v141h311l357 13
q565 0 659.5 -275.5t94.5 -452.5z" />
    <glyph glyph-name="dcroat" unicode="&#x111;" horiz-adv-x="1287" 
d="M666 1029q-111 0 -180.5 -106t-72.5 -329t58 -328t165 -105t170 77v745q-13 19 -51.5 32.5t-88.5 13.5zM841 134q-125 -157 -349 -157q-72 0 -152.5 33t-175.5 142.5t-95 382.5q0 274 161.5 453.5t448.5 179.5q59 0 127 -14v110h-252v136h252v83l-193 26v128l442 43h8
l63 -47v-233h139v-136h-139v-1124h107v-132q-290 -63 -341 -24.5t-51 106.5v44z" />
    <glyph glyph-name="Emacron" unicode="&#x112;" 
d="M381 1915h638v-195h-638v195zM74 1522h1107l28 -353h-163l-70 198l-404 20v-532l254 6l37 165h146v-509h-146l-35 176l-256 6v-554l450 27l125 258l171 -49l-52 -381h-1189v134l156 25v1193l-159 29v141z" />
    <glyph glyph-name="emacron" unicode="&#x113;" horiz-adv-x="1129" 
d="M589 1026q-88 0 -136 -74t-52 -273h345l1 84q0 263 -158 263zM692 180q161 0 300 85l58 -124q-92 -99 -299 -148q-67 -16 -175 -16q-108 -1 -211 43q-298 126 -298 548q0 279 153 439t404 160q212 0 324 -108t117 -306q0 -136 -15 -211h-646q17 -274 184 -341
q52 -21 104 -21zM279 1616h618v-196h-618v196z" />
    <glyph glyph-name="Ebreve" unicode="&#x114;" 
d="M422 1722q-98 95 -98 237v23q0 12 2 22h158q0 -66 54 -116q58 -54 165 -54q108 0 159 49q50 49 50 111v10h161q2 -12 2 -22v-22q0 -140 -99 -237q-99 -96 -277 -96q-179 0 -277 95zM74 1522h1107l28 -353h-163l-70 198l-404 20v-532l254 6l37 165h146v-509h-146l-35 176
l-256 6v-554l450 27l125 258l171 -49l-52 -381h-1189v134l156 25v1193l-159 29v141z" />
    <glyph glyph-name="ebreve" unicode="&#x115;" horiz-adv-x="1129" 
d="M589 1026q-88 0 -136 -74t-52 -273h345l1 84q0 263 -158 263zM692 180q161 0 300 85l58 -124q-92 -99 -299 -148q-67 -16 -175 -16q-108 -1 -211 43q-298 126 -298 548q0 279 153 439t404 160q212 0 324 -108t117 -306q0 -136 -15 -211h-646q17 -274 184 -341
q52 -21 104 -21zM953 1656q-1 -52 -27 -115t-74 -110q-102 -101 -266 -101q-163 0 -265 99t-102 245q0 71 4 90h151q0 -146 122 -194q38 -16 94 -15q100 -1 156 55q56 55 56 154h147q4 -56 4 -108z" />
    <glyph glyph-name="Edotaccent" unicode="&#x116;" 
d="M683 1662q-73 0 -119 44t-46 98q0 97 48 145q48 49 136 49h1q126 0 166 -94q12 -28 12 -61q0 -81 -48 -131t-149 -50h-1zM74 1522h1107l28 -353h-163l-70 198l-404 20v-532l254 6l37 165h146v-509h-146l-35 176l-256 6v-554l450 27l125 258l171 -49l-52 -381h-1189v134
l156 25v1193l-159 29v141z" />
    <glyph glyph-name="edotaccent" unicode="&#x117;" horiz-adv-x="1129" 
d="M589 1026q-88 0 -136 -74t-52 -273h345l1 84q0 263 -158 263zM692 180q161 0 300 85l58 -124q-92 -99 -299 -148q-67 -16 -175 -16q-108 -1 -211 43q-298 126 -298 548q0 279 153 439t404 160q212 0 324 -108t117 -306q0 -136 -15 -211h-646q17 -274 184 -341
q52 -21 104 -21zM569 1322q-75 0 -124 47q-48 47 -48 103q0 100 51 157q51 56 141 56h1q84 -1 132 -49t49 -104q0 -100 -52 -155t-149 -55h-1z" />
    <glyph glyph-name="Eogonek" unicode="&#x118;" 
d="M1261 -445q-89 -68 -263 -68q-109 0 -184 54t-75 146q0 93 79.5 180t212.5 133h-954v134l156 25v1193l-159 29v141h1107l28 -353h-163l-70 198l-404 20v-532l254 6l37 165h146v-509h-146l-35 176l-256 6v-554l450 27l125 258l171 -49l-52 -381h-10q-98 -21 -174 -91.5
t-76 -126.5t35.5 -84t95.5 -28t124 26v-141z" />
    <glyph glyph-name="eogonek" unicode="&#x119;" horiz-adv-x="1129" 
d="M589 1026q-88 0 -136 -74.5t-52 -272.5h345l1 84q0 263 -158 263zM692 180q161 0 300 85l58 -124q-35 -37 -95 -70q-125 -102 -171 -157.5t-46 -117.5q0 -63 40 -94.5t102 -31.5t117 24v-142q-91 -65 -244 -65q-190 0 -236 77t-46 125q0 84 65 163t163 132q-49 -7 -87 -7
q-276 0 -410.5 158.5t-134.5 435.5t152.5 436.5t404.5 159.5q213 0 324.5 -108t116.5 -306q0 -136 -15 -211h-646q17 -274 126.5 -318t161.5 -44z" />
    <glyph glyph-name="Ecaron" unicode="&#x11a;" 
d="M318 1926l112 88l269 -178l284 178l110 -88l-292 -280h-203zM74 1522h1107l28 -353h-163l-70 198l-404 20v-532l254 6l37 165h146v-509h-146l-35 176l-256 6v-554l450 27l125 258l171 -49l-52 -381h-1189v134l156 25v1193l-159 29v141z" />
    <glyph glyph-name="ecaron" unicode="&#x11b;" horiz-adv-x="1129" 
d="M191 1714l108 87l293 -257l296 258l107 -87l-306 -400h-195zM589 1026q-88 0 -136 -74t-52 -273h345l1 84q0 263 -158 263zM692 180q161 0 300 85l58 -124q-92 -99 -299 -148q-67 -16 -175 -16q-108 -1 -211 43q-298 126 -298 548q0 279 153 439t404 160q212 0 324 -108
t117 -306q0 -136 -15 -211h-646q17 -274 184 -341q52 -21 104 -21z" />
    <glyph glyph-name="Gcircumflex" unicode="&#x11c;" horiz-adv-x="1536" 
d="M836 120q160 0 225 69v421l-193 23v150h628v-150l-104 -19v-532q-40 -2 -98 -18t-132 -36q-405 -106 -675 10t-368 404q-48 140 -48 316t57 325q57 148 161 250q212 208 576 208q224 0 512 -64l-24 -389h-234l-61 261q-54 54 -202 54q-187 0 -291 -159t-104 -461
q0 -465 204 -612q71 -51 171 -51zM434 1711l299 297h202l300 -296l-112 -88l-289 191l-291 -191z" />
    <glyph glyph-name="gcircumflex" unicode="&#x11d;" horiz-adv-x="1292" 
d="M203 1392l306 400h195l306 -399l-112 -88l-290 254l-299 -255zM386 -158q0 -240 256 -240h2q104 0 186 57q81 57 81 156t-44 135t-159 36h-184q-51 0 -109 7q-29 -63 -29 -151zM605 1035q-174 1 -174 -249t179 -250h1q164 0 164 249q0 130 -40 190t-129 60h-1zM397 320
q0 -69 48 -90q48 -22 173 -22h204q210 0 318 -76t108 -240q0 -130 -94 -236q-133 -150 -386 -194q-79 -14 -160 -14h-1q-279 0 -409 86q-129 86 -129 225q-1 139 115 235q34 28 74 45q-96 56 -96 165t95 192q30 26 68 44q-221 86 -221 343q0 176 149 281q149 104 363 104h1
q257 0 375 -100q48 65 148 93q35 10 74 10h62v-247h-195q15 -54 15 -132t-34 -152q-34 -75 -100 -129q-137 -113 -374 -113h-1q-101 0 -164 14q-26 -52 -26 -92z" />
    <glyph glyph-name="Gbreve" unicode="&#x11e;" horiz-adv-x="1536" 
d="M553 1722q-98 95 -98 237v23q0 12 2 22h158q-1 -66 53 -116q58 -54 166 -54t159 49q50 49 50 111v10h161q2 -12 2 -22v-22q0 -140 -99 -237q-99 -96 -277 -96q-179 0 -277 95zM836 120q160 0 225 69v421l-193 23v150h628v-150l-104 -19v-532q-40 -2 -98 -18t-132 -36
q-405 -106 -675 10t-368 404q-48 140 -48 316t57 325q57 148 161 250q212 208 576 208q224 0 512 -64l-24 -389h-234l-61 261q-54 54 -202 54q-187 0 -291 -159t-104 -461q0 -465 204 -612q71 -51 171 -51z" />
    <glyph glyph-name="gbreve" unicode="&#x11f;" horiz-adv-x="1292" 
d="M386 -158q0 -240 256 -240h2q104 0 186 57q81 57 81 156t-44 135t-159 36h-184q-51 0 -109 7q-29 -63 -29 -151zM605 1035q-174 1 -174 -249t179 -250h1q164 0 164 249q0 130 -40 190t-129 60h-1zM397 320q0 -69 48 -90q48 -22 173 -22h204q210 0 318 -76t108 -240
q0 -130 -94 -236q-133 -150 -386 -194q-79 -14 -160 -14h-1q-279 0 -409 86q-129 86 -129 225q-1 139 115 235q34 28 74 45q-96 56 -96 165t95 192q30 26 68 44q-221 86 -221 343q0 176 149 281q149 104 363 104h1q257 0 375 -100q48 65 148 93q35 10 74 10h62v-247h-195
q15 -54 15 -132t-34 -152q-34 -75 -100 -129q-137 -113 -374 -113h-1q-101 0 -164 14q-26 -52 -26 -92zM972 1656q0 -52 -26 -115t-75 -110q-103 -101 -267 -101q-163 0 -264 99q-102 99 -102 245q0 71 4 90h151q-1 -146 121 -194q38 -16 96 -15q100 -1 156 55q56 55 55 154
h147q4 -56 4 -108z" />
    <glyph glyph-name="Gdotaccent" unicode="&#x120;" horiz-adv-x="1536" 
d="M822 1662q-73 0 -119 44t-46 98q0 97 48 145q48 49 136 49h1q126 0 166 -94q12 -28 12 -61q0 -81 -48 -131t-149 -50h-1zM836 120q160 0 225 69v421l-193 23v150h628v-150l-104 -19v-532q-40 -2 -98 -18t-132 -36q-405 -106 -675 10t-368 404q-48 140 -48 316t57 325
q57 148 161 250q212 208 576 208q224 0 512 -64l-24 -389h-234l-61 261q-54 54 -202 54q-187 0 -291 -159t-104 -461q0 -465 204 -612q71 -51 171 -51z" />
    <glyph glyph-name="gdotaccent" unicode="&#x121;" horiz-adv-x="1292" 
d="M386 -158q0 -240 256 -240h2q104 0 186 57q81 57 81 156t-44 135t-159 36h-184q-51 0 -109 7q-29 -63 -29 -151zM605 1035q-174 1 -174 -249t179 -250h1q164 0 164 249q0 130 -40 190t-129 60h-1zM397 320q0 -69 48 -90q48 -22 173 -22h204q210 0 318 -76t108 -240
q0 -130 -94 -236q-133 -150 -386 -194q-79 -14 -160 -14h-1q-279 0 -409 86q-129 86 -129 225q-1 139 115 235q34 28 74 45q-96 56 -96 165t95 192q30 26 68 44q-221 86 -221 343q0 176 149 281q149 104 363 104h1q257 0 375 -100q48 65 148 93q35 10 74 10h62v-247h-195
q15 -54 15 -132t-34 -152q-34 -75 -100 -129q-137 -113 -374 -113h-1q-101 0 -164 14q-26 -52 -26 -92zM588 1322q-75 0 -124 47q-48 47 -48 103q0 100 51 157q51 56 141 56h1q85 -1 133 -49t48 -104q0 -100 -52 -155t-149 -55h-1z" />
    <glyph glyph-name="Gcommaaccent" unicode="&#x122;" horiz-adv-x="1536" 
d="M646 -237q0 53 16 77q43 64 139 64h10q71 0 115 -43t45 -111q0 -68 -22 -122q-21 -52 -51 -92t-61 -66t-49 -30h-3l-99 35l-4 18q34 13 46 81q4 18 4 51q0 32 -43 54q-43 31 -43 84zM836 120q160 0 225 69v421l-193 23v150h628v-150l-104 -19v-532q-40 -2 -98 -18
t-132 -36q-405 -106 -675 10t-368 404q-48 140 -48 316t57 325q57 148 161 250q212 208 576 208q224 0 512 -64l-24 -389h-234l-61 261q-54 54 -202 54q-187 0 -291 -159t-104 -461q0 -465 204 -612q71 -51 171 -51z" />
    <glyph glyph-name="gcommaaccent" unicode="&#x123;" horiz-adv-x="1288" 
d="M764 1450q0 -53 -16 -77q-43 -64 -139 -64h-10q-71 0 -115 43t-45 111q0 68 22 121q22 52 52 93q29 40 60 66q31 25 49 30h3l99 -35l4 -18q-34 -14 -46 -82q-4 -18 -4 -50t43 -54q43 -31 43 -84zM386 -158q0 -240 256 -240h2q104 0 186 57q81 57 81 156t-44 135t-159 36
h-184q-51 0 -109 7q-29 -63 -29 -151zM605 1035q-174 1 -174 -249t179 -250h1q164 0 164 249q0 130 -40 190t-129 60h-1zM397 320q0 -69 48 -90q48 -22 173 -22h204q210 0 318 -76t108 -240q0 -130 -94 -236q-133 -150 -386 -194q-79 -14 -160 -14h-1q-279 0 -409 86
q-129 86 -129 225q-1 139 115 235q34 28 74 45q-96 56 -96 165t95 192q30 26 68 44q-221 86 -221 343q0 176 149 281q149 104 363 104h1q257 0 375 -100q48 65 148 93q35 10 74 10h62v-247h-195q15 -54 15 -132t-34 -152q-34 -75 -100 -129q-137 -113 -374 -113h-1
q-101 0 -164 14q-26 -52 -26 -92z" />
    <glyph glyph-name="Hcircumflex" unicode="&#x124;" horiz-adv-x="1716" 
d="M85 1522h652v-141l-167 -28v-492h575v491l-155 29v141h645v-141l-152 -28v-1194l152 -25v-134h-643v134l153 26v532h-575v-532l167 -26v-134h-656v134l152 25v1194l-148 28v141zM458 1711l299 297h202l300 -296l-112 -88l-289 191l-291 -191z" />
    <glyph glyph-name="hcircumflex" unicode="&#x125;" horiz-adv-x="1386" 
d="M498 1010q172 152 408 152q175 0 244 -106q70 -106 70 -346v-556l130 -20v-134h-564v133l110 20v556q0 146 -24 189t-54 58q-31 15 -81 15q-121 0 -217 -80v-737l119 -20v-134h-557v134l108 19v1329l-146 26v123l351 43l-47 37l299 297h202l300 -296l-112 -88l-289 191
l-253 -166l17 -13l2 -441z" />
    <glyph glyph-name="Hbar" unicode="&#x126;" horiz-adv-x="1716" 
d="M1146 756v246h-575v-246h575zM233 1002h-179v133h179v217l-157 29v141h660v-141l-165 -28v-218h575v217l-155 29v141h649v-141l-157 -28v-218h197v-133h-197v-842l156 -26v-134h-647v134l154 26v428h-575v-428l165 -26v-134h-661v134l158 26v842z" />
    <glyph glyph-name="hbar" unicode="&#x127;" horiz-adv-x="1389" 
d="M500 1010q172 152 408 152q175 0 244.5 -105.5t69.5 -346.5v-556l130 -20v-134h-564v133l110 20v556q0 146 -23.5 189t-54.5 58t-81 15q-121 0 -217 -80v-737l119 -20v-134h-557v134l108 19v1099h-163v138h163v92l-146 26v123l403 49h6l59 -44l1 -246h244v-138h-244
l1 -57z" />
    <glyph glyph-name="Itilde" unicode="&#x128;" horiz-adv-x="850" 
d="M89 1522h674v-141l-168 -28v-1193l170 -28v-132h-674v134l165 26v1192l-167 29v141zM599 1653q-73 0 -125 29q-52 30 -80 50t-75 49q-46 29 -87 29q-42 0 -66 -12t-44 -29q-19 -17 -33 -35t-25 -29l-104 89q60 135 196 193q52 22 105 22q53 1 89 -11t66 -30t56 -37
q26 -20 70 -49q43 -29 84 -29q40 0 64 11t40 27q18 17 30 35t25 32l105 -89q-111 -216 -291 -216z" />
    <glyph glyph-name="itilde" unicode="&#x129;" horiz-adv-x="721" 
d="M665 0h-588v134l134 20v768l-135 41v153l394 50h5l62 -44v-969l128 -19v-134zM520 1322q-73 0 -122 30q-50 30 -76 50t-52 39q-26 18 -52 30q-28 12 -59 12q-53 0 -87 -26q-33 -26 -70 -71l-105 81q65 143 197 201q51 22 104 23q53 0 88 -12t64 -30q28 -19 54 -39t67 -50
t80 -30q40 0 64 10t42 26q18 15 31 32t23 30l106 -82q-109 -224 -297 -224z" />
    <glyph glyph-name="Imacron" unicode="&#x12a;" horiz-adv-x="850" 
d="M89 1522h674v-141l-168 -28v-1193l170 -28v-132h-674v134l165 26v1192l-167 29v141zM107 1915h638v-195h-638v195z" />
    <glyph glyph-name="imacron" unicode="&#x12b;" horiz-adv-x="722" 
d="M665 0h-588v134l134 20v768l-135 41v153l394 50h5l62 -44v-969l128 -19v-134zM45 1616h618v-196h-618v196z" />
    <glyph glyph-name="Ibreve" unicode="&#x12c;" horiz-adv-x="850" 
d="M89 1522h674v-141l-168 -28v-1193l170 -28v-132h-674v134l165 26v1192l-167 29v141zM149 1722q-98 95 -98 237v23q0 12 2 22h158q-1 -66 53 -116q58 -54 166 -54t159 49q50 49 50 111v10h161q2 -12 2 -22v-22q0 -140 -99 -237q-99 -96 -277 -96q-179 0 -277 95z" />
    <glyph glyph-name="ibreve" unicode="&#x12d;" horiz-adv-x="721" 
d="M665 0h-588v134l134 20v768l-135 41v153l394 50h5l62 -44v-969l128 -19v-134zM719 1656q-1 -52 -27 -115t-74 -110q-103 -101 -266 -101t-265 99t-102 245q0 71 4 90h151q0 -146 122 -194q38 -16 94 -15q100 -1 156 55q56 55 56 154h147q4 -56 4 -108z" />
    <glyph glyph-name="Iogonek" unicode="&#x12e;" horiz-adv-x="850" 
d="M538 -330q57 0 120 26v-141q-94 -68 -252 -68q-195 0 -238.5 77t-43.5 124q0 89 75.5 176t191.5 136h-300v134l165 26v1192l-167 29v141h674v-141l-168 -28v-1193l170 -28v-132h-177q-85 -37 -141 -102.5t-56 -117.5q0 -110 147 -110z" />
    <glyph glyph-name="iogonek" unicode="&#x12f;" horiz-adv-x="721" 
d="M581 -445q-89 -68 -267 -68q-111 0 -189 54t-78 145t76 178.5t191 135.5h-237v134l134 20v768l-135 41v153l394 50h5l62 -44v-969l128 -19v-134h-116q-102 -34 -168.5 -100.5t-66.5 -122.5q0 -107 146 -107q58 0 121 26v-141zM369 1322q-75 0 -123.5 47t-48.5 103
q0 100 51 156.5t141 56.5h1q84 0 132.5 -48.5t48.5 -104.5q0 -100 -51.5 -155t-149.5 -55h-1z" />
    <glyph glyph-name="Idotaccent" unicode="&#x130;" horiz-adv-x="850" 
d="M89 1522h674v-141l-168 -28v-1193l170 -28v-132h-674v134l165 26v1192l-167 29v141zM410 1662q-73 0 -119 44t-46 98q0 97 48 145q48 49 136 49h1q126 0 166 -94q12 -28 12 -61q0 -81 -48 -131t-149 -50h-1z" />
    <glyph glyph-name="dotlessi" unicode="&#x131;" horiz-adv-x="721" 
d="M665 0h-588v134l134 20v768l-135 41v153l394 50h5l62 -44v-969l128 -19v-134z" />
    <glyph glyph-name="IJ" unicode="&#x132;" horiz-adv-x="1658" 
d="M89 1522h674v-141l-168 -28v-1193l170 -28v-132h-674v134l165 26v1192l-167 29v141zM1107 415v937l-172 29v141h671v-141l-163 -28v-784q1 -408 -25 -511q-47 -188 -186 -300q-139 -113 -345 -151l-74 118q119 40 206 176q88 137 88 514z" />
    <glyph glyph-name="ij" unicode="&#x133;" horiz-adv-x="1423" 
d="M1263 22q0 -234 -148 -384q-127 -129 -267 -136h-30q-70 0 -94 8l-17 131q50 -4 101 24q76 37 106 143t29 272l-1 836l-135 43l2 157l387 50h5l62 -44v-1100zM668 0h-588v134l134 20v768l-135 41v153l394 50h5l62 -44v-969l128 -19v-134zM351 1322q-75 0 -124 47
q-48 47 -48 103q0 100 51 157q51 56 141 56h1q84 -1 132 -49t49 -104q0 -100 -52 -155t-149 -55h-1zM1075 1322q-75 0 -124 47q-48 47 -48 103q0 100 51 157q51 56 141 56h1q84 -1 132 -49t49 -104q0 -100 -52 -155t-149 -55h-1z" />
    <glyph glyph-name="Jcircumflex" unicode="&#x134;" horiz-adv-x="808" 
d="M257 415v937l-172 29v141h671v-141l-163 -28v-784q1 -408 -25 -511q-47 -188 -186 -300q-139 -113 -345 -151l-74 118q119 40 206 176q88 137 88 514zM21 1711l299 297h202l300 -296l-112 -88l-289 191l-291 -191z" />
    <glyph glyph-name="jcircumflex" unicode="&#x135;" horiz-adv-x="693" 
d="M537 22q0 -234 -148 -384q-127 -129 -267 -136h-30q-70 0 -94 8l-17 131q50 -4 101 24q76 37 106 143t29 272l-1 836l-135 43l2 157l387 50h5l62 -44v-1100zM-36 1392l306 400h195l306 -399l-112 -88l-290 254l-299 -255z" />
    <glyph glyph-name="Kcommaaccent" unicode="&#x136;" horiz-adv-x="1541" 
d="M646 -237q0 53 16 77q43 64 139 64h10q71 0 115 -43t45 -111q0 -68 -22 -122q-21 -52 -51 -92t-61 -66t-49 -30h-3l-99 35l-4 18q34 13 46 81q4 18 4 51q0 32 -43 54q-43 31 -43 84zM76 1522h643v-141l-148 -29v-640l500 641l-163 28l-1 141h573v-140l-174 -29l-372 -423
q108 -96 268 -374q161 -278 199 -332q37 -55 56 -64l92 -26v-134h-402q-48 0 -193 303q-146 303 -217 395l-166 -196v-343l174 -25v-134h-670v134l158 26v1193l-157 28v141z" />
    <glyph glyph-name="kcommaaccent" unicode="&#x137;" horiz-adv-x="1327" 
d="M562 -237q0 53 16 77q43 64 139 64h10q71 0 115 -43t45 -111q0 -68 -22 -122q-21 -52 -51 -92t-61 -66t-49 -30h-3l-99 35l-4 18q34 13 46 81q4 18 4 51q0 32 -43 54q-43 31 -43 84zM729 1137h560v-127l-172 -34l-223 -211l352 -610l106 -21v-134h-560v133l92 21
l-213 409l-164 -166l6 -111v-132l121 -21v-133h-560v134l117 19v1329l-141 26v123l400 49h4l60 -44v-954l-5 -97l377 399l-157 26v127z" />
    <glyph glyph-name="kgreenlandic" unicode="&#x138;" horiz-adv-x="1401" 
d="M774 1136h566v-132l-154 -21l-252 -234l354 -593l112 -22v-134h-557v133l83 20l-210 392l-169 -167l8 -97v-126l125 -22v-133h-588v134l132 19l2 769l-123 40v158l370 46h5l74 -44v-408l-7 -150l392 416l-163 24v132z" />
    <glyph glyph-name="Lacute" unicode="&#x139;" horiz-adv-x="1311" 
d="M299 1702l313 312h1l205 -148q-72 -86 -200 -161t-201 -91h-1zM79 1522h684v-141l-190 -29v-1191l394 22l132 387l187 -28l-59 -542h-1150v134l156 26v1192l-154 29v141z" />
    <glyph glyph-name="lacute" unicode="&#x13a;" horiz-adv-x="707" 
d="M656 0h-594v134l134 20v1174l-147 24v123l407 51h4l61 -44v-1328l135 -20v-134zM159 1702l313 312h1l205 -148q-72 -86 -200 -161t-201 -91h-1z" />
    <glyph glyph-name="Lcommaaccent" unicode="&#x13b;" horiz-adv-x="1307" 
d="M547 -237q0 53 16 77q43 64 139 64h10q72 0 116 -43t44 -111t-22 -122q-22 -52 -52 -92t-60 -66q-31 -26 -49 -30h-3l-99 35l-4 18q35 13 47 81q4 18 3 51q0 32 -43 54q-43 31 -43 84zM79 1522h684v-141l-190 -29v-1191l394 22l132 387l187 -28l-59 -542h-1150v134
l156 26v1192l-154 29v141z" />
    <glyph glyph-name="lcommaaccent" unicode="&#x13c;" horiz-adv-x="704" 
d="M203 -237q0 53 16 77q43 64 139 64h10q72 0 116 -43t44 -111t-22 -122q-22 -52 -52 -92t-60 -66q-31 -26 -49 -30h-3l-99 35l-4 18q35 13 47 81q4 18 3 51q0 32 -43 54q-43 31 -43 84zM653 0h-591v134l134 20v1328l-147 26v123l404 49h5l60 -44v-1482l135 -20v-134z" />
    <glyph glyph-name="Lcaron" unicode="&#x13d;" horiz-adv-x="1311" 
d="M79 1522h684v-141l-190 -29v-1191l394 22l132 387l187 -28l-59 -542h-1150v134l156 26v1192l-154 29v141zM1129 1694q60 -64 60 -276q0 -133 -42 -263q-42 -129 -84 -168l-134 38l-6 26q27 104 27 224q0 257 -55 327l12 42z" />
    <glyph glyph-name="lcaron" unicode="&#x13e;" horiz-adv-x="945" 
d="M653 0h-591v134l134 20v1328l-147 26v123l404 49h5l60 -44v-1482l135 -20v-134zM900 1694q60 -64 60 -276q0 -133 -42 -263q-42 -129 -84 -168l-134 38l-6 26q27 104 27 224q0 257 -55 327l12 42z" />
    <glyph glyph-name="Ldot" unicode="&#x13f;" horiz-adv-x="1360" 
d="M79 1522h684v-141l-190 -29v-1191l394 22l132 387l187 -28l-59 -542h-1150v134l156 26v1192l-154 29v141zM919 1026q60 52 144 52t132 -49t48 -106q0 -98 -59 -148t-139 -50q-81 0 -134 47q-52 47 -52 124q0 78 60 130z" />
    <glyph glyph-name="ldot" unicode="&#x140;" horiz-adv-x="1067" 
d="M657 0h-591v134l134 20v1328l-147 26v123l404 49h5l60 -44v-1482l135 -20v-134zM757 875q60 52 144 52t132 -49t48 -106q0 -98 -59 -148t-139 -50q-81 0 -134 47q-52 47 -52 124q0 78 60 130z" />
    <glyph glyph-name="Lslash" unicode="&#x141;" horiz-adv-x="1307" 
d="M79 1522h684v-141l-190 -29v-477l342 144v-156l-342 -138v-564l394 22l132 387l187 -28l-59 -542h-1150v134l156 26v432l-189 -75v147l189 77v611l-154 29v141z" />
    <glyph glyph-name="lslash" unicode="&#x142;" horiz-adv-x="739" 
d="M679 0h-591v134l134 20v517l-192 -86v157l192 88v652l-147 26v123l404 49h5l60 -44v-674l196 91v-167l-196 -87v-645l135 -20v-134z" />
    <glyph glyph-name="Nacute" unicode="&#x143;" horiz-adv-x="1655" 
d="M695 1702l313 312h1l205 -148q-72 -86 -200 -161t-201 -91h-1zM73 1522h499l582 -883l109 -232v947l-176 27v141h526v-141l-158 -28v-1353h-278l-613 937l-136 274v-1052l210 -25v-134h-565v134l162 25v1194l-162 28v141z" />
    <glyph glyph-name="nacute" unicode="&#x144;" horiz-adv-x="1419" 
d="M772 971q-122 0 -222 -82v-736l116 -19v-134h-562v134l116 18v770l-123 40v158l361 46h5l55 -44v-73l-2 -46q175 159 423 159q168 0 241 -102t73 -351v-555l120 -18v-136h-556v134l105 19v556q0 147 -24 190t-56 57q-30 14 -70 15zM552 1407l358 430h1l194 -175
q-69 -117 -284 -271q-89 -64 -146 -84h-2z" />
    <glyph glyph-name="Ncommaaccent" unicode="&#x145;" horiz-adv-x="1655" 
d="M704 -237q0 53 16 77q43 64 139 64h10q71 0 115 -43t45 -111q0 -68 -22 -122q-21 -52 -51 -92t-61 -66t-49 -30h-3l-99 35l-4 18q34 13 46 81q4 18 4 51q0 32 -43 54q-43 31 -43 84zM73 1522h499l582 -883l109 -232v947l-176 27v141h526v-141l-158 -28v-1353h-278
l-613 937l-136 274v-1052l210 -25v-134h-565v134l162 25v1194l-162 28v141z" />
    <glyph glyph-name="ncommaaccent" unicode="&#x146;" horiz-adv-x="1419" 
d="M772 971q-122 0 -222 -82v-736l116 -19v-134h-562v134l116 18v770l-123 40v158l361 46h5l55 -44v-73l-2 -46q175 159 423 159q168 0 241 -102t73 -351v-555l120 -18v-136h-556v134l105 19v556q0 147 -24 190t-56 57q-30 14 -70 15zM568 -237q0 53 16 77q43 64 139 64h10
q71 0 115 -43t45 -111q0 -68 -22 -122q-21 -52 -51 -92t-61 -66t-49 -30h-3l-99 35l-4 18q34 13 46 81q4 18 4 51q0 32 -43 54q-43 31 -43 84z" />
    <glyph glyph-name="Ncaron" unicode="&#x147;" horiz-adv-x="1655" 
d="M462 1926l112 88l269 -178l284 178l110 -88l-292 -280h-203zM73 1522h499l582 -883l109 -232v947l-176 27v141h526v-141l-158 -28v-1353h-278l-613 937l-136 274v-1052l210 -25v-134h-565v134l162 25v1194l-162 28v141z" />
    <glyph glyph-name="ncaron" unicode="&#x148;" horiz-adv-x="1419" 
d="M772 971q-122 0 -222 -82v-736l116 -19v-134h-562v134l116 18v770l-123 40v158l361 46h5l55 -44v-73l-2 -46q175 159 423 159q168 0 241 -102t73 -351v-555l120 -18v-136h-556v134l105 19v556q0 147 -24 190t-56 57q-30 14 -70 15zM335 1714l108 87l293 -257l296 258
l107 -87l-306 -400h-195z" />
    <glyph glyph-name="napostrophe" unicode="&#x149;" horiz-adv-x="1772" 
d="M162 1342q0 104 -66 180t-67 156q0 104 96 143q29 11 62 11h1q100 0 168 -102q67 -102 67 -226t-31 -221t-79 -175q-47 -77 -101 -131t-102 -78h-2l-79 72v33q133 125 133 338zM1126 971q-122 0 -222 -82v-736l116 -19v-134h-562v134l116 18v770l-123 40v158l361 46h5
l55 -44v-73l-2 -46q175 159 423 159q168 0 241 -102t73 -351v-555l120 -18v-136h-556v134l105 19v556q0 147 -24 190t-56 57q-30 14 -70 15z" />
    <glyph glyph-name="Eng" unicode="&#x14a;" horiz-adv-x="1629" 
d="M69 1522h504l559 -883l134 -270v986l-180 29v138h541v-138l-170 -29v-925q0 -396 -84.5 -500t-103.5 -127q-155 -171 -376 -200l-66 108q232 68 323 296l-601 953l-112 232v-1034l193 -26v-132h-561v132l176 26v1207l-176 34v123z" />
    <glyph glyph-name="eng" unicode="&#x14b;" horiz-adv-x="1413" 
d="M763 972q-103 0 -212 -80v-739l116 -20v-133h-562v134l116 19v772l-122 41v158l360 46h5l55 -45v-62l-1 -56q113 106 229.5 132t192.5 26q168 0 240.5 -100.5t72.5 -344.5v-698q0 -392 -166 -470.5t-275 -81.5h-50q-49 0 -60 8l-10 137q28 -3 63 7t45 15
q109 46 115.5 191.5t6.5 217.5v674q0 142 -24.5 183t-55.5 55t-79 14z" />
    <glyph glyph-name="Omacron" unicode="&#x14c;" horiz-adv-x="1503" 
d="M438 1915h638v-195h-638v195zM1072 783q0 620 -320 620q-233 0 -298 -359q-22 -122 -22 -286q0 -324 83 -483t235 -159q150 0 236 168t86 499zM252 1327q192 214 526 214q333 0 499 -200q167 -200 167 -558q0 -359 -193 -581t-523 -225q-330 -4 -499 205t-169 570
t192 575z" />
    <glyph glyph-name="omacron" unicode="&#x14d;" horiz-adv-x="1243" 
d="M312 1616h618v-196h-618v196zM414 590q0 -470 211 -470q103 0 153 105t49 330q0 351 -111 439q-39 31 -96 31q-104 0 -155 -105t-51 -330zM229 1011q166 157 415 157q248 0 392 -157t144 -441q0 -285 -164 -439t-415 -154t-395 157t-143 439q0 281 166 438z" />
    <glyph glyph-name="Obreve" unicode="&#x14e;" horiz-adv-x="1503" 
d="M479 1722q-98 95 -98 237v23q0 12 2 22h158q-1 -66 53 -116q58 -54 166 -54t159 49q50 49 50 111v10h161q2 -12 2 -22v-22q0 -140 -99 -237q-99 -96 -277 -96q-179 0 -277 95zM1072 783q0 620 -320 620q-233 0 -298 -359q-22 -122 -22 -286q0 -324 83 -483t235 -159
q150 0 236 168t86 499zM252 1327q192 214 526 214q333 0 499 -200q167 -200 167 -558q0 -359 -193 -581t-523 -225q-330 -4 -499 205t-169 570t192 575z" />
    <glyph glyph-name="obreve" unicode="&#x14f;" horiz-adv-x="1243" 
d="M414 590q0 -470 211 -470q103 0 153 105t49 330q0 351 -111 439q-39 31 -96 31q-104 0 -155 -105t-51 -330zM229 1011q166 157 415 157q248 0 392 -157t144 -441q0 -285 -164 -439t-415 -154t-395 157t-143 439q0 281 166 438zM986 1656q0 -52 -26 -115t-75 -110
q-103 -101 -267 -101q-163 0 -264 99q-102 99 -102 245q0 71 4 90h151q-1 -146 121 -194q38 -16 96 -15q100 -1 156 55q56 55 55 154h147q4 -56 4 -108z" />
    <glyph glyph-name="Ohungarumlaut" unicode="&#x150;" horiz-adv-x="1503" 
d="M1072 783q0 620 -320 620q-233 0 -298 -359q-22 -122 -22 -286q0 -324 83 -483t235 -159q150 0 236 168t86 499zM252 1327q192 214 526 214q333 0 499 -200q167 -200 167 -558q0 -359 -193 -581t-523 -225q-330 -4 -499 205t-169 570t192 575zM342 1717l289 297l181 -140
q-94 -114 -258 -216q-46 -28 -84 -48zM889 1717l300 297l171 -138q-83 -109 -255 -217q-48 -30 -88 -49z" />
    <glyph glyph-name="ohungarumlaut" unicode="&#x151;" horiz-adv-x="1243" 
d="M239 1422l321 402l182 -152q-79 -124 -339 -302q-33 -22 -55 -35zM752 1422l328 402l174 -148q-50 -90 -261 -252q-81 -63 -132 -89zM414 590q0 -470 211 -470q103 0 153 105t49 330q0 351 -111 439q-39 31 -96 31q-104 0 -155 -105t-51 -330zM229 1011q166 157 415 157
q248 0 392 -157t144 -441q0 -285 -164 -439t-415 -154t-395 157t-143 439q0 281 166 438z" />
    <glyph glyph-name="OE" unicode="&#x152;" horiz-adv-x="2128" 
d="M756 118q156 0 236 191v948q-38 82 -97.5 116.5t-144.5 34.5q-154 0 -236.5 -163t-82.5 -488q0 -465 124.5 -552t200.5 -87zM751 1542q145 0 241 -38v18h954l28 -353h-163l-69 198l-407 20v-533l257 7l34 163h155v-505h-155l-33 172l-258 6v-552l464 27l143 254l164 -49
l-70 -377h-1044v47q-107 -61 -264 -63t-285.5 54.5t-254.5 208.5t-126 510t141.5 516t272 213.5t275.5 55.5z" />
    <glyph glyph-name="oe" unicode="&#x153;" horiz-adv-x="1926" 
d="M624 120q103 0 152 105t49 332q0 359 -76 413.5t-129 54.5q-104 0 -155 -105.5t-51 -331.5q0 -359 78.5 -413.5t131.5 -54.5zM1526 763q0 263 -159 263q-88 0 -136 -74.5t-52 -272.5h344q3 24 3 84zM1469 180q167 0 305 84l54 -123q-92 -99 -230 -131.5t-209 -32.5
q-269 0 -405 157q-139 -157 -386 -157t-391.5 153t-144.5 438q0 284 166.5 442t415.5 158t372 -146q147 145 373 145q498 0 472 -292.5t-34 -332.5h-645q17 -274 126 -318t161 -44z" />
    <glyph glyph-name="Racute" unicode="&#x154;" horiz-adv-x="1486" 
d="M964 1115q0 213 -140 265q-50 18 -129 19q-78 0 -124 -10v-600q15 -5 77 -5l83 1q109 0 171 80t62 250zM753 0h-676v134l156 25v1194l-149 28v141h311l342 13q321 0 453 -95q133 -95 133 -314q0 -218 -163 -352q-55 -45 -130 -69q132 -55 244 -299q74 -161 101 -202
q27 -42 52 -48l63 -22v-134h-389q-45 0 -113 186q-99 271 -125 324q-57 114 -106 139h-57l-129 2v-493l182 -24v-134zM574 1702l313 312h1l205 -148q-72 -86 -200 -161t-201 -91h-1z" />
    <glyph glyph-name="racute" unicode="&#x155;" horiz-adv-x="977" 
d="M282 1407l358 430h1l194 -175q-69 -117 -284 -271q-89 -64 -146 -84h-2zM779 0h-692v134l132 19v769l-121 40v158l335 46h5l59 -44v-58l-5 -158h5q25 78 125 170t233 92q53 0 78 -16v-341q-66 46 -160 46q-154 0 -230 -56v-647l236 -21v-133z" />
    <glyph glyph-name="Rcommaaccent" unicode="&#x156;" horiz-adv-x="1486" 
d="M637 -237q0 53 16 77q43 64 139 64h10q72 0 116 -43t44 -111t-22 -122q-22 -52 -52 -92t-60 -66q-31 -26 -49 -30h-3l-99 35l-4 18q35 13 47 81q4 18 3 51q0 32 -43 54q-43 31 -43 84zM964 1115q0 213 -140 265q-50 18 -129 19q-78 0 -124 -10v-600q15 -5 77 -5l83 1
q109 0 171 80t62 250zM753 0h-676v134l156 25v1194l-149 28v141h311l342 13q321 0 453 -95q133 -95 133 -314q0 -218 -163 -352q-55 -45 -130 -69q132 -55 244 -299q74 -161 101 -202q27 -42 52 -48l63 -22v-134h-389q-45 0 -113 186q-99 271 -125 324q-57 114 -106 139h-57
l-129 2v-493l182 -24v-134z" />
    <glyph glyph-name="rcommaaccent" unicode="&#x157;" horiz-adv-x="977" 
d="M250 -237q0 53 16 77q43 64 139 64h10q71 0 115 -43t45 -111q0 -68 -22 -122q-21 -52 -51 -92t-61 -66t-49 -30h-3l-99 35l-4 18q34 13 46 81q4 18 4 51q0 32 -43 54q-43 31 -43 84zM779 0h-692v134l132 19v769l-121 40v158l335 46h5l59 -44v-58l-5 -158h5q25 78 125 170
t233 92q53 0 78 -16v-341q-66 46 -160 46q-154 0 -230 -56v-647l236 -21v-133z" />
    <glyph glyph-name="Rcaron" unicode="&#x158;" horiz-adv-x="1486" 
d="M349 1926l112 88l269 -178l284 178l110 -88l-292 -280h-203zM964 1115q0 213 -140 265q-50 18 -129 19q-78 0 -124 -10v-600q15 -5 77 -5l83 1q109 0 171 80t62 250zM753 0h-676v134l156 25v1194l-149 28v141h311l342 13q321 0 453 -95q133 -95 133 -314
q0 -218 -163 -352q-55 -45 -130 -69q132 -55 244 -299q74 -161 101 -202q27 -42 52 -48l63 -22v-134h-389q-45 0 -113 186q-99 271 -125 324q-57 114 -106 139h-57l-129 2v-493l182 -24v-134z" />
    <glyph glyph-name="rcaron" unicode="&#x159;" horiz-adv-x="977" 
d="M66 1714l108 87l293 -257l296 258l107 -87l-306 -400h-195zM779 0h-692v134l132 19v769l-121 40v158l335 46h5l59 -44v-58l-5 -158h5q25 78 125 170t233 92q53 0 78 -16v-341q-66 46 -160 46q-154 0 -230 -56v-647l236 -21v-133z" />
    <glyph glyph-name="Sacute" unicode="&#x15a;" horiz-adv-x="1241" 
d="M620 121q108 -1 167 55t59 153t-90 169q-64 52 -175 105q-113 52 -157 76t-87 55q-100 72 -160 168q-59 96 -59 202q0 200 137 318q137 119 396 119q181 0 371 -59q38 -12 61 -14l-13 -360h-182l-49 244q-39 51 -191 51q-99 0 -154 -51t-55 -122q-1 -72 27 -116t84 -88
t182 -107q126 -61 195 -101t127 -94q132 -124 132 -296t-123 -298q-150 -153 -453 -153q-192 1 -428 75q-46 14 -71 16l17 380h187l51 -254q22 -28 84 -50t170 -23zM498 1702l313 312h1l205 -148q-72 -86 -200 -161t-201 -91h-1z" />
    <glyph glyph-name="sacute" unicode="&#x15b;" horiz-adv-x="1080" 
d="M377 1407l358 430h1l194 -175q-69 -117 -284 -271q-89 -64 -146 -84h-2zM106 332h192l51 -156q25 -42 121 -60q28 -6 66 -6q79 0 120 37t41 84q1 47 -23 77t-66 56t-100 54q-58 26 -127 57q-144 65 -210 149q-66 83 -66 220t123 228q123 92 306 92q182 0 348 -48
q34 -10 60 -14v-273h-180l-52 147q-10 20 -47 38t-107 18t-112 -35q-41 -35 -41 -82t22 -77q23 -30 59 -52q36 -24 83 -44t105 -46q160 -70 232 -134q108 -97 108 -245q0 -147 -119 -243q-119 -97 -349 -97q-177 0 -367 62q-43 14 -71 21v272z" />
    <glyph glyph-name="Scircumflex" unicode="&#x15c;" horiz-adv-x="1241" 
d="M620 121q108 -1 167 55t59 153t-90 169q-64 52 -175 105q-113 52 -157 76t-87 55q-100 72 -160 168q-59 96 -59 202q0 200 137 318q137 119 396 119q181 0 371 -59q38 -12 61 -14l-13 -360h-182l-49 244q-39 51 -191 51q-99 0 -154 -51t-55 -122q-1 -72 27 -116t84 -88
t182 -107q126 -61 195 -101t127 -94q132 -124 132 -296t-123 -298q-150 -153 -453 -153q-192 1 -428 75q-46 14 -71 16l17 380h187l51 -254q22 -28 84 -50t170 -23zM250 1711l299 297h202l300 -296l-112 -88l-289 191l-291 -191z" />
    <glyph glyph-name="scircumflex" unicode="&#x15d;" horiz-adv-x="1080" 
d="M156 1392l306 400h195l306 -399l-112 -88l-290 254l-299 -255zM106 332h192l51 -156q25 -42 121 -60q28 -6 66 -6q79 0 120 37t41 84q1 47 -23 77t-66 56t-100 54q-58 26 -127 57q-144 65 -210 149q-66 83 -66 220t123 228q123 92 306 92q182 0 348 -48q34 -10 60 -14
v-273h-180l-52 147q-10 20 -47 38t-107 18t-112 -35q-41 -35 -41 -82t22 -77q23 -30 59 -52q36 -24 83 -44t105 -46q160 -70 232 -134q108 -97 108 -245q0 -147 -119 -243q-119 -97 -349 -97q-177 0 -367 62q-43 14 -71 21v272z" />
    <glyph glyph-name="Scedilla" unicode="&#x15e;" horiz-adv-x="1241" 
d="M485 -314h1q74 0 105 25t31 97t-18.5 113.5t-25.5 56.5q-140 3 -248.5 32t-151.5 42.5t-67 15.5l17 380h187l51 -254q23 -28 84.5 -50.5t169.5 -22.5t167 55.5t59 152.5t-76.5 159t-188.5 115q-112 52 -156.5 76t-116 75.5t-131 147.5t-59.5 202q0 200 137.5 318.5
t395.5 118.5q181 0 295 -35.5t137 -37.5l-13 -360h-182l-49 244q-39 51 -191 51q-99 0 -154 -50.5t-55 -122.5t27.5 -116t84 -88t181.5 -107q126 -62 195 -101.5t164 -128.5t95 -252t-110.5 -294.5t-348.5 -158.5q124 -138 118 -280q-8 -179 -118.5 -201.5t-179.5 -22.5h-1
q-81 0 -144 29l1 190q39 -13 82 -13z" />
    <glyph glyph-name="scedilla" unicode="&#x15f;" horiz-adv-x="1080" 
d="M387 -314h1q74 0 105 25t31 95q0 71 -19 115t-26 59q-147 9 -247.5 41.5t-125.5 38.5v272h192l51 -156q25 -42 87 -54t100 -12q79 0 120 36.5t41 84.5t-23.5 77.5t-65.5 56t-100.5 53t-126.5 57.5q-144 65 -210 148.5t-66 220.5t123 228.5t306 91.5q182 0 282 -29
t126 -33v-273h-180l-52 147q-10 20 -47 38t-107 18t-111.5 -35t-41.5 -82t22 -76.5t58.5 -53t83.5 -43.5t105 -46q159 -70 249.5 -151t90.5 -220t-96 -232t-285 -112q123 -136 116 -277q-8 -179 -118.5 -201.5t-179.5 -22.5h-1q-81 0 -144 29l1 190q39 -13 82 -13z" />
    <glyph glyph-name="Scaron" unicode="&#x160;" horiz-adv-x="1241" 
d="M620 121q108 -1 167 55t59 153t-90 169q-64 52 -175 105q-113 52 -157 76t-87 55q-100 72 -160 168q-59 96 -59 202q0 200 137 318q137 119 396 119q181 0 371 -59q38 -12 61 -14l-13 -360h-182l-49 244q-39 51 -191 51q-99 0 -154 -51t-55 -122q-1 -72 27 -116t84 -88
t182 -107q126 -61 195 -101t127 -94q132 -124 132 -296t-123 -298q-150 -153 -453 -153q-192 1 -428 75q-46 14 -71 16l17 380h187l51 -254q22 -28 84 -50t170 -23zM271 1926l112 88l269 -178l284 178l110 -88l-292 -280h-203z" />
    <glyph glyph-name="scaron" unicode="&#x161;" horiz-adv-x="1080" 
d="M160 1714l108 87l293 -257l296 258l107 -87l-306 -400h-195zM106 332h192l51 -156q25 -42 121 -60q28 -6 66 -6q79 0 120 37t41 84q1 47 -23 77t-66 56t-100 54q-58 26 -127 57q-144 65 -210 149q-66 83 -66 220t123 228q123 92 306 92q182 0 348 -48q34 -10 60 -14v-273
h-180l-52 147q-10 20 -47 38t-107 18t-112 -35q-41 -35 -41 -82t22 -77q23 -30 59 -52q36 -24 83 -44t105 -46q160 -70 232 -134q108 -97 108 -245q0 -147 -119 -243q-119 -97 -349 -97q-177 0 -367 62q-43 14 -71 21v272z" />
    <glyph glyph-name="uni0162" unicode="&#x162;" horiz-adv-x="1467" 
d="M581 -314h1q74 0 105 25t31 114q0 90 -57 175h-353v134l257 26v1211l-258 -10l-83 -444h-190l30 605h1327l29 -605h-183l-88 444l-242 10v-1210l280 -27v-134h-380q86 -81 110.5 -164.5t22.5 -139.5q-5 -116 -78.5 -166t-218.5 -50h-1q-81 0 -144 29l1 190q39 -13 82 -13
z" />
    <glyph glyph-name="uni0163" unicode="&#x163;" horiz-adv-x="836" 
d="M277 -314h1q74 0 105 25t31 107t-50 169q-191 32 -191 246v736h-123v117q23 8 68.5 28.5t48.5 22.5q39 39 56 78q49 111 82 224h185l9 -301h300v-169h-298v-542q0 -165 12 -194t31.5 -35t53.5 -6h1q88 0 187 30h1l43 -124q-73 -60 -168.5 -83.5t-143.5 -28.5
q125 -139 119 -282q-8 -179 -118.5 -201.5t-179.5 -22.5h-1q-81 0 -144 29l1 190q39 -13 82 -13z" />
    <glyph glyph-name="Tcaron" unicode="&#x164;" horiz-adv-x="1467" 
d="M366 1926l112 88l269 -178l284 178l110 -88l-292 -280h-203zM1187 0h-879v134l257 26v1211l-258 -10l-83 -444h-190l30 605h1327l29 -605h-183l-88 444l-242 10v-1210l280 -27v-134z" />
    <glyph glyph-name="tcaron" unicode="&#x165;" horiz-adv-x="855" 
d="M596 192q88 0 187 30h1l43 -124q-89 -75 -271 -107q-58 -10 -115 -10h-2q-137 0 -203 61t-66 191v736h-123v117q23 8 69 28q45 21 48 23q39 39 56 78q49 111 82 224h185l9 -301h300v-169h-298v-542q0 -165 12 -194t32 -35t53 -6h1zM860 1950q60 -64 60 -276
q0 -133 -42 -263q-42 -129 -84 -168l-134 38l-6 26q27 104 27 224q0 257 -55 327l12 42z" />
    <glyph glyph-name="Tbar" unicode="&#x166;" horiz-adv-x="1492" 
d="M577 598h-219v151h219v622l-258 -10l-83 -444h-190l30 605h1327l29 -605h-183l-88 444l-242 10v-622h214v-151h-214v-437l280 -27v-134h-879v134l257 26v438z" />
    <glyph glyph-name="tbar" unicode="&#x167;" horiz-adv-x="842" 
d="M600 192q88 0 187 30h1l43 -124q-89 -75 -209 -96t-177 -21h-2q-136 0 -202.5 61t-66.5 191v355h-125v156h125v225h-123v117q23 8 68.5 28.5t48.5 22.5q39 39 56 78q49 111 82 224h185l9 -301h300v-169h-298v-225h291v-156h-291v-161q0 -165 12 -194t31.5 -35t53.5 -6h1z
" />
    <glyph glyph-name="Utilde" unicode="&#x168;" horiz-adv-x="1519" 
d="M974 1653q-73 0 -125 29q-53 30 -81 50t-74 49t-87 29q-43 0 -67 -12t-43 -29t-33 -35t-25 -29l-104 89q61 135 197 193q52 22 104 22q53 1 89 -11t66 -30q31 -18 57 -37q26 -20 69 -49t84 -29q39 0 63 11t42 27q18 17 30 35t24 32l105 -89q-111 -216 -291 -216zM511 595
q0 -469 322 -469q159 0 237 122t77 342v762l-172 29v141h524v-141l-135 -29v-745q0 -320 -157 -471q-157 -152 -420 -152q-323 0 -475 152t-152 488v728l-130 29v141h650v-141l-169 -30v-756z" />
    <glyph glyph-name="utilde" unicode="&#x169;" horiz-adv-x="1324" 
d="M876 103v37q-83 -104 -238 -148q-51 -14 -126 -15q-174 0 -261 100q-86 100 -86 334v565l-98 32v126l374 29h2l46 -28v-731q0 -136 34 -189t131 -53q98 0 185 72v742l-127 34v125l393 28h4l54 -28v-994h109v-129q-148 -35 -253 -35q-143 0 -143 126zM388 1457
q-33 -26 -70 -71l-105 81q65 143 197 201q51 22 104 23q53 0 88 -12t64 -30q28 -19 54 -39t67 -50t80 -30q40 0 64 10t42 26q18 15 31 32t23 30l106 -82q-109 -224 -297 -224q-73 0 -122 30q-50 30 -76 50t-52 39q-60 42 -112 42q-53 0 -86 -26z" />
    <glyph glyph-name="Umacron" unicode="&#x16a;" horiz-adv-x="1519" 
d="M483 1915h638v-195h-638v195zM511 595q0 -469 322 -469q159 0 237 122t77 342v762l-172 29v141h524v-141l-135 -29v-745q0 -320 -157 -471q-157 -152 -420 -152q-323 0 -475 152t-152 488v728l-130 29v141h650v-141l-169 -30v-756z" />
    <glyph glyph-name="umacron" unicode="&#x16b;" horiz-adv-x="1324" 
d="M876 103v37q-83 -104 -238 -148q-51 -14 -126 -15q-174 0 -261 100q-86 100 -86 334v565l-98 32v126l374 29h2l46 -28v-731q0 -136 34 -189t131 -53q98 0 185 72v742l-127 34v125l393 28h4l54 -28v-994h109v-129q-148 -35 -253 -35q-143 0 -143 126zM327 1616h618v-196
h-618v196z" />
    <glyph glyph-name="Ubreve" unicode="&#x16c;" horiz-adv-x="1519" 
d="M524 1722q-98 95 -98 237v23q0 12 2 22h158q0 -66 54 -116q58 -54 165 -54q108 0 159 49q50 49 50 111v10h161q2 -12 2 -22v-22q0 -140 -99 -237q-99 -96 -277 -96q-179 0 -277 95zM511 595q0 -469 322 -469q159 0 237 122t77 342v762l-172 29v141h524v-141l-135 -29
v-745q0 -320 -157 -471q-157 -152 -420 -152q-323 0 -475 152t-152 488v728l-130 29v141h650v-141l-169 -30v-756z" />
    <glyph glyph-name="ubreve" unicode="&#x16d;" horiz-adv-x="1324" 
d="M876 103v37q-83 -104 -238 -148q-51 -14 -126 -15q-174 0 -261 100q-86 100 -86 334v565l-98 32v126l374 29h2l46 -28v-731q0 -136 34 -189t131 -53q98 0 185 72v742l-127 34v125l393 28h4l54 -28v-994h109v-129q-148 -35 -253 -35q-143 0 -143 126zM999 1656
q-1 -52 -27 -115t-74 -110q-102 -101 -266 -101q-163 0 -265 99t-102 245q0 71 4 90h151q0 -146 122 -194q38 -16 94 -15q100 -1 156 55q56 55 56 154h147q4 -56 4 -108z" />
    <glyph glyph-name="Uring" unicode="&#x16e;" horiz-adv-x="1519" 
d="M1499 1522v-141l-135 -29v-745q0 -320 -157 -471q-157 -152 -420 -152q-323 0 -475 152t-152 488v728l-130 29v141h575q-146 65 -143 231q2 120 106 191q104 70 261 70h1q261 0 325 -162q19 -48 19 -105q-3 -157 -160 -225h485zM820 1894q-155 0 -155 -140q0 -64 37 -108
q37 -43 117 -43h1q124 0 144 80q6 25 7 57q0 154 -150 154h-1zM815 1485h-1q-76 0 -134 13v-117l-169 -30v-756q0 -469 322 -469q159 0 237 122t77 342v762l-172 29v127q-73 -23 -160 -23z" />
    <glyph glyph-name="uring" unicode="&#x16f;" horiz-adv-x="1324" 
d="M641 1744q-164 0 -164 -149q-1 -112 89 -150q30 -13 74 -13h1q129 0 153 83q8 29 8 65q0 165 -160 164h-1zM635 1295q-181 0 -267 83q-87 83 -85 217q2 135 110 212t258 77h1q169 0 256 -81t86 -216t-103 -213q-102 -79 -255 -79h-1zM876 103v37q-83 -104 -238 -148
q-51 -14 -126 -15q-174 0 -261 100q-86 100 -86 334v565l-98 32v126l374 29h2l46 -28v-731q0 -136 34 -189t131 -53q98 0 185 72v742l-127 34v125l393 28h4l54 -28v-994h109v-129q-148 -35 -253 -35q-143 0 -143 126z" />
    <glyph glyph-name="Uhungarumlaut" unicode="&#x170;" horiz-adv-x="1519" 
d="M511 595q0 -469 322 -469q159 0 237 122t77 342v762l-172 29v141h524v-141l-135 -29v-745q0 -320 -157 -471q-157 -152 -420 -152q-323 0 -475 152t-152 488v728l-130 29v141h650v-141l-169 -30v-756zM387 1717l289 297l181 -140q-95 -114 -259 -216q-46 -28 -83 -48z
M934 1717l300 297l171 -138q-83 -109 -255 -217q-48 -30 -88 -49z" />
    <glyph glyph-name="uhungarumlaut" unicode="&#x171;" horiz-adv-x="1324" 
d="M876 103v37q-83 -104 -238 -148q-51 -14 -126 -15q-174 0 -261 100q-86 100 -86 334v565l-98 32v126l374 29h2l46 -28v-731q0 -136 34 -189t131 -53q98 0 185 72v742l-127 34v125l393 28h4l54 -28v-994h109v-129q-148 -35 -253 -35q-143 0 -143 126zM244 1422l321 402
l182 -152q-79 -124 -339 -302q-33 -22 -55 -35zM757 1422l328 402l174 -148q-50 -90 -261 -252q-81 -63 -132 -89z" />
    <glyph glyph-name="Uogonek" unicode="&#x172;" horiz-adv-x="1519" 
d="M787 -16q-323 0 -475 152t-152 488v728l-130 29v141h650v-141l-169 -30v-756q0 -469 322 -469q159 0 236.5 122t77.5 342v762l-172 29v141h524v-141l-135 -29v-745q0 -458 -329 -582q-179 -133 -179 -236q0 -52 35 -85.5t95 -33.5t124 26v-140q-95 -69 -265 -69
t-213 74.5t-43 123.5q0 88 74 170.5t172 130.5q-24 -2 -48 -2z" />
    <glyph glyph-name="uogonek" unicode="&#x173;" horiz-adv-x="1324" 
d="M876 103v37q-83 -104 -186 -133.5t-178 -29.5q-174 0 -260.5 100t-86.5 334v565l-98 32v126l374 29h2l46 -28v-731q0 -136 33.5 -189t131.5 -53t185 72v742l-127 34v125l393 28h4l54 -28v-994h109v-129q-28 -8 -70 -16q-146 -58 -176 -123t-30 -103t36 -69t96 -31t123 26
v-141q-89 -68 -263 -68t-216 79.5t-42 123.5q0 82 73 161t188 127q-115 11 -115 125z" />
    <glyph glyph-name="Wcircumflex" unicode="&#x174;" horiz-adv-x="2090" 
d="M-43 1522h642v-141l-168 -30l247 -907l37 -198l35 198l209 732l-58 176l-128 29v141h667v-141l-190 -29l248 -908l43 -213l35 213l228 908l-178 29v141h503v-141l-129 -30l-387 -1361h-303l-265 910l-253 -910h-297l-418 1361l-120 30v141zM664 1711l299 297h202
l300 -296l-112 -88l-289 191l-291 -191z" />
    <glyph glyph-name="wcircumflex" unicode="&#x175;" horiz-adv-x="1754" 
d="M510 1392l306 400h195l306 -399l-112 -88l-290 254l-299 -255zM-22 1137h554v-130l-138 -25l137 -517l42 -209l37 208l186 673h272l206 -672l42 -207l42 205l130 518l-148 26v130h453v-130l-100 -24l-307 -999h-262l-205 652l-40 232l-30 -232l-193 -652h-263l-321 999
l-94 24v130z" />
    <glyph glyph-name="Ycircumflex" unicode="&#x176;" horiz-adv-x="1322" 
d="M-46 1522h638v-141l-135 -29l239 -481l46 -129l51 127l219 484l-153 28v141h517v-141l-127 -26l-394 -746v-449l217 -26v-134h-783v134l209 25v450l-424 743l-120 29v141zM289 1711l299 297h202l300 -296l-112 -88l-289 191l-291 -191z" />
    <glyph glyph-name="ycircumflex" unicode="&#x177;" horiz-adv-x="1179" 
d="M274 -510q-98 0 -138 20v241q38 -27 115 -27q79 0 119 16q115 44 196 260h-127l-374 981l-91 26v131h595v-131l-141 -26l171 -556l61 -212l51 212l159 558l-124 24v131h459v-131l-96 -24q-78 -246 -207 -614t-157 -440q-29 -73 -75 -163t-102 -150q-56 -62 -126 -94
t-168 -32zM209 1392l306 400h195l306 -399l-112 -88l-290 254l-299 -255z" />
    <glyph glyph-name="Ydieresis" unicode="&#x178;" horiz-adv-x="1322" 
d="M-46 1522h638v-141l-135 -29l239 -481l46 -129l51 127l219 484l-153 28v141h517v-141l-127 -26l-394 -746v-449l217 -26v-134h-783v134l209 25v450l-424 743l-120 29v141zM404 1653q-65 0 -107 46q-41 46 -41 98q0 94 45 147t132 53h1q79 0 121 -45q41 -45 41 -99
q0 -200 -191 -200h-1zM931 1653q-64 0 -105 48q-42 48 -42 98q0 94 45 146t131 52h1q79 0 121 -45t42 -99q0 -97 -49 -148q-49 -52 -143 -52h-1z" />
    <glyph glyph-name="Zacute" unicode="&#x179;" 
d="M31 120l748 1141l117 133l-486 -27l-118 -276l-171 25l49 411h1053l54 -121l-733 -1140l-137 -127l583 42l121 309l173 -34l-46 -456h-1136zM560 1702l313 312h1l205 -148q-72 -86 -200 -161t-201 -91h-1z" />
    <glyph glyph-name="zacute" unicode="&#x17a;" horiz-adv-x="1151" 
d="M419 1407l358 430h1l194 -175q-69 -117 -284 -271q-89 -64 -146 -84h-2zM126 783v355h906l50 -110l-510 -737l-139 -151l407 24l92 226l156 -16l-28 -374h-959l-56 114l525 723l148 161l-376 -17l-52 -198h-164z" />
    <glyph glyph-name="Zdotaccent" unicode="&#x17b;" 
d="M700 1662q-73 0 -119 44t-46 98q0 97 48 145q48 49 136 49h1q126 0 166 -94q12 -28 12 -61q0 -81 -48 -131t-149 -50h-1zM31 120l748 1141l117 133l-486 -27l-118 -276l-171 25l49 411h1053l54 -121l-733 -1140l-137 -127l583 42l121 309l173 -34l-46 -456h-1136z" />
    <glyph glyph-name="zdotaccent" unicode="&#x17c;" horiz-adv-x="1151" 
d="M126 783v355h906l50 -110l-510 -737l-139 -151l407 24l92 226l156 -16l-28 -374h-959l-56 114l525 723l148 161l-376 -17l-52 -198h-164zM583 1322q-75 0 -124 47q-48 47 -48 103q0 100 51 157q51 56 141 56h1q84 -1 132 -49t49 -104q0 -100 -52 -155t-149 -55h-1z" />
    <glyph glyph-name="Zcaron" unicode="&#x17d;" 
d="M335 1926l112 88l269 -178l284 178l110 -88l-292 -280h-203zM31 120l748 1141l117 133l-486 -27l-118 -276l-171 25l49 411h1053l54 -121l-733 -1140l-137 -127l583 42l121 309l173 -34l-46 -456h-1136z" />
    <glyph glyph-name="zcaron" unicode="&#x17e;" horiz-adv-x="1151" 
d="M202 1714l108 87l293 -257l296 258l107 -87l-306 -400h-195zM126 783v355h906l50 -110l-510 -737l-139 -151l407 24l92 226l156 -16l-28 -374h-959l-56 114l525 723l148 161l-376 -17l-52 -198h-164z" />
    <glyph glyph-name="uni018F" unicode="&#x18f;" horiz-adv-x="1413" 
d="M428 553q0 -161 67 -287t216 -126q300 0 308 520l-588 1q-3 -42 -3 -108zM688 1538q310 0 492 -202.5t182 -566.5t-196.5 -578t-504.5 -214q-245 0 -407 151.5t-164 456.5q-2 166 16 235l909 -1q-10 266 -105 423t-248 157t-194 -56.5t-57 -83.5l-40 -137l-223 9l3 328
q43 2 94 14.5t168 38.5t275 26z" />
    <glyph glyph-name="florin" unicode="&#x192;" horiz-adv-x="1068" 
d="M1030 1419q-63 45 -148 45t-127.5 -41t-51.5 -143l-17 -144h289l-17 -187h-292l-114 -1305h-294l114 1305h-196l13 127l203 60l11 82q17 212 159.5 339.5t288 127.5t204.5 -21z" />
    <glyph glyph-name="uni01C4" unicode="&#x1c4;" horiz-adv-x="2915" 
d="M1902 1926l112 88l269 -178l284 178l110 -88l-292 -280h-203zM1599 120l748 1141l117 133l-486 -27l-118 -276l-171 25l49 411h1053l54 -121l-733 -1140l-137 -127l583 42l121 309l173 -34l-46 -456h-1136zM705 1394q-52 0 -137 -16v-1227q57 -21 160 -20q200 3 304 160
q105 156 105 471q0 460 -235 588q-82 44 -197 44zM1506 807q0 -366 -213 -598t-566 -225q-67 2 -170 9t-154 7h-326v134l156 25v1194l-149 28v141h311l357 13q565 0 708 -417q46 -134 46 -311z" />
    <glyph glyph-name="uni01C5" unicode="&#x1c5;" horiz-adv-x="2720" 
d="M1804 1714l108 87l293 -257l296 258l107 -87l-306 -400h-195zM1694 783v355h906l50 -110l-510 -737l-139 -151l407 24l92 226l156 -16l-28 -374h-959l-56 114l525 723l148 161l-376 -17l-52 -198h-164zM705 1394q-52 0 -137 -16v-1227q57 -21 160 -20q200 3 304 160
q105 156 105 471q0 460 -235 588q-82 44 -197 44zM1506 807q0 -366 -213 -598t-566 -225q-67 2 -170 9t-154 7h-326v134l156 25v1194l-149 28v141h311l357 13q565 0 708 -417q46 -134 46 -311z" />
    <glyph glyph-name="uni01C6" unicode="&#x1c6;" horiz-adv-x="2439" 
d="M1514 1714l108 87l293 -257l296 258l107 -87l-306 -400h-195zM1413 783v355h906l50 -110l-510 -737l-139 -151l407 24l92 226l156 -16l-28 -374h-959l-56 114l525 723l148 161l-376 -17l-52 -198h-164zM666 1029q-111 0 -180 -106q-70 -106 -73 -329t58 -328t165 -105
t170 77v745q-14 19 -52 33t-88 13zM841 134q-125 -157 -349 -157q-72 0 -152 33q-81 33 -141 102q-130 150 -130 423q0 274 161 454q161 179 449 179q59 0 127 -14v329l-193 26v128l442 43h8l63 -47v-1493h107v-132q-291 -64 -359 -12q-34 25 -33 94v44z" />
    <glyph glyph-name="uni01C7" unicode="&#x1c7;" horiz-adv-x="2132" 
d="M1581 415v937l-172 29v141h671v-141l-163 -28v-784q1 -408 -25 -511q-47 -188 -186 -300q-139 -113 -345 -151l-74 118q119 40 206 176q88 137 88 514zM79 1522h684v-141l-190 -29v-1191l394 22l132 387l187 -28l-59 -542h-1150v134l156 26v1192l-154 29v141z" />
    <glyph glyph-name="uni01C8" unicode="&#x1c8;" horiz-adv-x="2020" 
d="M1861 22q0 -234 -148 -384q-127 -129 -267 -136h-30q-70 0 -94 8l-17 131q50 -4 101 24q76 37 106 143t29 272l-1 836l-135 43l2 157l387 50h5l62 -44v-1100zM79 1522h684v-141l-190 -29v-1191l394 22l132 387l187 -28l-59 -542h-1150v134l156 26v1192l-154 29v141z
M1672 1322q-75 0 -124 47q-48 47 -48 103q0 100 51 157q51 56 141 56h1q85 -1 133 -49t48 -104q0 -100 -52 -155t-149 -55h-1z" />
    <glyph glyph-name="uni01C9" unicode="&#x1c9;" horiz-adv-x="1400" 
d="M1241 22q0 -234 -148 -384q-127 -129 -267 -136h-30q-70 0 -94 8l-17 131q50 -4 101 24q76 37 106 143t29 272l-1 836l-135 43l2 157l387 50h5l62 -44v-1100zM653 0h-591v134l134 20v1328l-147 26v123l404 49h5l60 -44v-1482l135 -20v-134zM1052 1322q-75 0 -124 47
q-48 47 -48 103q0 100 51 157q51 56 141 56h1q85 -1 133 -49t48 -104q0 -100 -52 -155t-149 -55h-1z" />
    <glyph glyph-name="uni01CA" unicode="&#x1ca;" horiz-adv-x="2453" 
d="M1903 415v937l-172 29v141h671v-141l-163 -28v-784q1 -408 -25 -511q-47 -188 -186 -300q-139 -113 -345 -151l-74 118q119 40 206 176q88 137 88 514zM73 1522h499l582 -883l109 -232v947l-176 27v141h526v-141l-158 -28v-1353h-278l-613 937l-136 274v-1052l210 -25
v-134h-565v134l162 25v1194l-162 28v141z" />
    <glyph glyph-name="uni01CB" unicode="&#x1cb;" horiz-adv-x="2341" 
d="M2183 22q0 -234 -148 -384q-127 -129 -267 -136h-30q-70 0 -94 8l-17 131q50 -4 101 24q76 37 106 143t29 272l-1 836l-135 43l2 157l387 50h5l62 -44v-1100zM1993 1322q-75 0 -124 47q-48 47 -48 103q0 100 51 157q51 56 141 56h1q84 -1 132 -49t49 -104
q0 -100 -52 -155t-149 -55h-1zM73 1522h499l582 -883l109 -232v947l-176 27v141h526v-141l-158 -28v-1353h-278l-613 937l-136 274v-1052l210 -25v-134h-565v134l162 25v1194l-162 28v141z" />
    <glyph glyph-name="uni01CC" unicode="&#x1cc;" horiz-adv-x="2118" 
d="M1959 22q0 -234 -148 -384q-127 -129 -267 -136h-30q-70 0 -94 8l-17 131q50 -4 101 24q76 37 106 143t29 272l-1 836l-135 43l2 157l387 50h5l62 -44v-1100zM1770 1322q-75 0 -124 47q-48 47 -48 103q0 100 51 157q51 56 141 56h1q85 -1 133 -49t48 -104
q0 -100 -52 -155t-149 -55h-1zM776 971q-122 0 -222 -82v-736l116 -19v-134h-562v134l116 18v770l-123 40v158l361 46h5l55 -44v-73l-2 -46q175 159 423 159q168 0 241 -102t73 -351v-555l120 -18v-136h-556v134l105 19v556q0 147 -24 190t-56 57q-30 14 -70 15z" />
    <glyph glyph-name="uni01F1" unicode="&#x1f1;" horiz-adv-x="2915" 
d="M1599 120l748 1141l117 133l-486 -27l-118 -276l-171 25l49 411h1053l54 -121l-733 -1140l-137 -127l583 42l121 309l173 -34l-46 -456h-1136zM705 1394q-52 0 -137 -16v-1227q57 -21 160 -20q200 3 304 160q105 156 105 471q0 460 -235 588q-82 44 -197 44zM1506 807
q0 -366 -213 -598t-566 -225q-67 2 -170 9t-154 7h-326v134l156 25v1194l-149 28v141h311l357 13q565 0 708 -417q46 -134 46 -311z" />
    <glyph glyph-name="uni01F2" unicode="&#x1f2;" horiz-adv-x="2720" 
d="M1694 783v355h906l50 -110l-510 -737l-139 -151l407 24l92 226l156 -16l-28 -374h-959l-56 114l525 723l148 161l-376 -17l-52 -198h-164zM705 1394q-52 0 -137 -16v-1227q57 -21 160 -20q200 3 304 160q105 156 105 471q0 460 -235 588q-82 44 -197 44zM1506 807
q0 -366 -213 -598t-566 -225q-67 2 -170 9t-154 7h-326v134l156 25v1194l-149 28v141h311l357 13q565 0 708 -417q46 -134 46 -311z" />
    <glyph glyph-name="uni01F3" unicode="&#x1f3;" horiz-adv-x="2439" 
d="M1413 783v355h906l50 -110l-510 -737l-139 -151l407 24l92 226l156 -16l-28 -374h-959l-56 114l525 723l148 161l-376 -17l-52 -198h-164zM666 1029q-111 0 -180 -106q-70 -106 -73 -329t58 -328t165 -105t170 77v745q-14 19 -52 33t-88 13zM841 134q-125 -157 -349 -157
q-72 0 -152 33q-81 33 -141 102q-130 150 -130 423q0 274 161 454q161 179 449 179q59 0 127 -14v329l-193 26v128l442 43h8l63 -47v-1493h107v-132q-291 -64 -359 -12q-34 25 -33 94v44z" />
    <glyph glyph-name="AEacute" unicode="&#x1fc;" horiz-adv-x="1930" 
d="M840 1702l313 312h1l205 -148q-72 -86 -200 -161t-201 -91h-1zM813 578v795h-112l-298 -795h410zM226 1522h1535l28 -354h-162l-70 200l-407 19v-533l255 7l35 163h147v-505h-146l-35 172l-256 6v-552l456 27l133 258l185 -53l-70 -377h-1198v132l157 25v262h-469
l-97 -261l149 -26v-132h-561v132l144 28l500 1193l-253 28v141z" />
    <glyph glyph-name="aeacute" unicode="&#x1fd;" horiz-adv-x="1770" 
d="M714 1407l358 430h1l194 -175q-69 -117 -284 -271q-89 -64 -146 -84h-2zM721 568v3q-165 0 -238 -63q-74 -63 -74 -154q0 -189 148 -189q91 0 173 76q22 21 37 43q-46 124 -46 284zM1394 763q0 263 -158 263q-88 0 -136 -74t-52 -273h344q2 32 2 84zM1262 -23
q-306 0 -444 206q-91 -138 -281 -189q-63 -17 -132 -17q-148 0 -247 86t-99 246q0 192 177 290t485 102v43q0 110 -43 156t-185 46q-143 0 -334 -81l-66 139q53 48 154 86q198 74 353 74q245 0 323 -111q140 114 352 114q479 0 437 -534q-4 -51 -12 -91h-649
q17 -274 183 -341q52 -21 104 -21q86 0 170 25t138 59l54 -123q-92 -99 -299 -148q-68 -16 -139 -16z" />
    <glyph glyph-name="uni0218" unicode="&#x218;" horiz-adv-x="1241" 
d="M482 -237q0 53 16 77q43 64 139 64h10q71 0 115 -43t45 -111q0 -68 -22 -122q-21 -52 -51 -92t-61 -66t-49 -30h-3l-99 35l-4 18q34 13 46 81q4 18 4 51q0 32 -43 54q-43 31 -43 84zM620 121q108 -1 167 55t59 153t-90 169q-64 52 -175 105q-113 52 -157 76t-87 55
q-100 72 -160 168q-59 96 -59 202q0 200 137 318q137 119 396 119q181 0 371 -59q38 -12 61 -14l-13 -360h-182l-49 244q-39 51 -191 51q-99 0 -154 -51t-55 -122q-1 -72 27 -116t84 -88t182 -107q126 -61 195 -101t127 -94q132 -124 132 -296t-123 -298
q-150 -153 -453 -153q-192 1 -428 75q-46 14 -71 16l17 380h187l51 -254q22 -28 84 -50t170 -23z" />
    <glyph glyph-name="uni0219" unicode="&#x219;" horiz-adv-x="1080" 
d="M398 -237q0 53 16 77q43 64 139 64h10q71 0 115 -43t45 -111q0 -68 -22 -122q-21 -52 -51 -92t-61 -66t-49 -30h-3l-99 35l-4 18q34 13 46 81q4 18 4 51q0 32 -43 54q-43 31 -43 84zM106 332h192l51 -156q25 -42 121 -60q28 -6 66 -6q79 0 120 37t41 84q1 47 -23 77
t-66 56t-100 54q-58 26 -127 57q-144 65 -210 149q-66 83 -66 220t123 228q123 92 306 92q182 0 348 -48q34 -10 60 -14v-273h-180l-52 147q-10 20 -47 38t-107 18t-112 -35q-41 -35 -41 -82t22 -77q23 -30 59 -52q36 -24 83 -44t105 -46q160 -70 232 -134q108 -97 108 -245
q0 -147 -119 -243q-119 -97 -349 -97q-177 0 -367 62q-43 14 -71 21v272z" />
    <glyph glyph-name="uni021A" unicode="&#x21a;" horiz-adv-x="1467" 
d="M592 -237q0 53 16 77q43 64 139 64h10q71 0 115 -43t45 -111q0 -68 -22 -122q-21 -52 -51 -92t-61 -66t-49 -30h-3l-99 35l-4 18q34 13 46 81q4 18 4 51q0 32 -43 54q-43 31 -43 84zM1187 0h-879v134l257 26v1211l-258 -10l-83 -444h-190l30 605h1327l29 -605h-183
l-88 444l-242 10v-1210l280 -27v-134z" />
    <glyph glyph-name="uni021B" unicode="&#x21b;" horiz-adv-x="836" 
d="M305 -237q0 53 16 77q43 64 139 64h10q72 0 116 -43t44 -111t-22 -122q-22 -52 -52 -92t-60 -66q-31 -26 -49 -30h-3l-99 35l-4 18q35 13 47 81q4 18 3 51q0 32 -43 54q-43 31 -43 84zM599 192q88 0 187 30h1l43 -124q-90 -75 -272 -107q-58 -10 -114 -10h-2
q-136 0 -202 61t-67 191v736h-123v117q23 8 69 28q45 21 48 23q39 39 56 78q49 111 82 224h185l9 -301h300v-169h-298v-542q0 -165 12 -194q11 -29 31 -35t54 -6h1z" />
    <glyph glyph-name="dotlessj" unicode="&#x237;" horiz-adv-x="693" 
d="M537 22q0 -235 -137.5 -374t-277.5 -146h-50q-50 0 -74 8l-17 131q50 -4 101 24q76 36 105.5 142.5t29.5 272.5l-1 836l-135 43l2 157l387 50h5l62 -44v-1100z" />
    <glyph glyph-name="uni0259" unicode="&#x259;" horiz-adv-x="1119" 
d="M384 436v-51q0 -126 24.5 -176.5t54 -71t71.5 -20.5q89 0 132.5 72.5t49.5 274.5h-329q-3 -21 -3 -28zM265.5 938q-86.5 -26 -134.5 -57l-53 122q92 100 227 132t241 32t305 -84.5t199 -508.5q0 -278 -150 -437.5t-402 -159.5q-211 0 -344.5 131t-76.5 493h639
q-14 283 -121 323t-175 40t-154.5 -26z" />
    <glyph glyph-name="circumflex" unicode="&#x2c6;" horiz-adv-x="1034" 
d="M113 1392l306 400h195l306 -399l-112 -88l-290 254l-299 -255z" />
    <glyph glyph-name="caron" unicode="&#x2c7;" horiz-adv-x="1021" 
d="M110 1714l108 87l293 -257l296 258l107 -87l-306 -400h-195z" />
    <glyph glyph-name="uni02C9" unicode="&#x2c9;" horiz-adv-x="1345" 
d="M230 2006h885v-206h-885v206z" />
    <glyph glyph-name="breve" unicode="&#x2d8;" horiz-adv-x="1022" 
d="M875 1656q0 -52 -26.5 -115t-102 -137t-239.5 -74q-163 0 -264.5 99.5t-101.5 244.5q0 71 4 90h151q0 -145 80 -177t136 -32q100 0 156 55.5t56 153.5h147q4 -56 4 -108z" />
    <glyph glyph-name="dotaccent" unicode="&#x2d9;" horiz-adv-x="568" 
d="M270 1322q-75 0 -123.5 47t-48.5 103q0 100 51 156.5t141 56.5h1q84 0 132.5 -48.5t48.5 -104.5q0 -100 -51.5 -155t-149.5 -55h-1z" />
    <glyph glyph-name="ring" unicode="&#x2da;" horiz-adv-x="1020" 
d="M511 1744q-164 0 -164 -149q0 -112 60 -137.5t103 -25.5h1q129 0 145 56t16 92q0 164 -160 164h-1zM505 1295q-181 0 -267.5 82.5t-84.5 217.5t110 212t258 77h1q169 0 256 -81t86 -216t-102.5 -213.5t-255.5 -78.5h-1z" />
    <glyph glyph-name="ogonek" unicode="&#x2db;" horiz-adv-x="709" 
d="M573 -429q-118 -84 -279 -84q-103 0 -182 50.5t-79 145.5q0 93 80.5 181.5t209.5 136.5l77 7l117 -7q-97 -38 -159.5 -104t-62.5 -123q0 -107 130 -107q44 0 77 14t64 27z" />
    <glyph glyph-name="tilde" unicode="&#x2dc;" horiz-adv-x="1022" 
d="M228.5 1456.5q-33.5 -26.5 -70.5 -70.5l-105 81q65 143 156.5 183.5t144.5 40.5t88 -12t64 -30t54.5 -38.5t66.5 -50.5t80 -30q40 0 64 10.5t42 25.5t31 32t23 30l106 -82q-109 -224 -297 -224q-73 0 -122 30t-75.5 50.5t-69 50.5t-95 30t-86 -26.5z" />
    <glyph glyph-name="hungarumlaut" unicode="&#x2dd;" horiz-adv-x="1022" 
d="M128 1422l321 402l182 -152q-79 -125 -225.5 -225t-168.5 -112zM641 1422l328 402l174 -148q-50 -90 -196 -202.5t-197 -138.5z" />
    <glyph glyph-name="Deltagreek" unicode="&#x394;" horiz-adv-x="1769" 
d="M1199 200l-413 842l-373 -842h786zM829 1516h45l752 -1479l-21 -36h-1443l-19 33z" />
    <glyph glyph-name="Omegagreek" unicode="&#x3a9;" horiz-adv-x="1933" 
d="M561 831q0 -209 88 -390t203 -253v-188h-696l-46 426h159l73 -219l338 -11q-146 87 -279 292t-128 409q7 428 363 582q146 63 315 63q328 0 513 -167t179 -474q-8 -257 -198 -519q-86 -118 -175 -183l315 20l72 207h164l-56 -426h-678v188q193 132 245 464q16 102 16 206
q0 212 -97 325t-288 113q-402 0 -402 -465z" />
    <glyph glyph-name="uni03BC" unicode="&#x3bc;" horiz-adv-x="1398" 
d="M706 -21q-126 0 -203 68v-420h-301v826q-2 6 -2 8v513l-104 44v116l382 28l46 -28v-769q0 -74 51 -137t134 -63q130 0 174 100v709l-117 45l-1 115l399 28l40 -27v-994h109v-131q-100 -39 -234 -39q-71 1 -101 35t-29 86v50q-43 -110 -163 -150q-38 -13 -80 -13z" />
    <glyph glyph-name="pi" unicode="&#x3c0;" horiz-adv-x="1650" 
d="M449 1135h789q78 0 111.5 13t44.5 62h124q-5 -83 -12.5 -148t-50 -132.5t-227.5 -67.5h-45l-16 -543q-3 -144 73 -144q82 0 143 109l95 -93q-41 -81 -134 -144t-217 -63q-251 0 -209 298l74 580l-276 1l-38 -388q-18 -171 -67.5 -293.5t-128.5 -156.5t-124 -42l-207 158
q207 48 247 175.5t54 186.5l81 360l-122 1q-95 0 -119 -54t-33 -77l-114 13q-12 165 79.5 277t224.5 112z" />
    <glyph glyph-name="uni0400" unicode="&#x400;" 
d="M729 1614q-84 21 -176 76q-175 103 -224 176l204 148h1l313 -312l-117 -88h-1zM74 1522h1107l28 -353h-163l-70 198l-404 20v-532l254 6l37 165h146v-509h-146l-35 176l-256 6v-554l450 27l125 258l171 -49l-52 -381h-1189v134l156 25v1193l-159 29v141z" />
    <glyph glyph-name="afii10023" unicode="&#x401;" 
d="M414 1653q-65 0 -107 46q-41 46 -41 98q0 94 45 147t132 53h1q79 0 121 -45q41 -45 41 -99q0 -200 -191 -200h-1zM941 1653q-64 0 -105 48q-42 48 -42 98q0 94 45 146t131 52h1q79 0 121 -45t42 -99q0 -97 -49 -148q-49 -52 -143 -52h-1zM74 1522h1107l28 -353h-163
l-70 198l-404 20v-532l254 6l37 165h146v-509h-146l-35 176l-256 6v-554l450 27l125 258l171 -49l-52 -381h-1189v134l156 25v1193l-159 29v141z" />
    <glyph glyph-name="afii10051" unicode="&#x402;" horiz-adv-x="1808" 
d="M914 640v-473l241 -29v-138h-851v138l271 29v1209l-271 -19l-65 -327h-187l27 492h1395l22 -492h-189l-62 327l-331 19v-583l1 1q76 50 178 68.5t148 18.5q259 0 386.5 -128t127.5 -399q0 -353 -149 -562.5t-399 -209.5q-96 0 -176 29l-13 151q68 -15 139 -15
q131 0 190.5 140t59.5 386t-56.5 340t-192.5 94q-135 0 -243 -67h-1z" />
    <glyph glyph-name="afii10052" unicode="&#x403;" horiz-adv-x="1223" 
d="M448 1702l313 312h1l205 -148q-72 -86 -200 -161t-201 -91h-1zM53 1522h1141l25 -593h-197l-74 424l-338 21v-1213l317 -27v-134h-878v134l222 27v1190l-218 33v138z" />
    <glyph glyph-name="afii10053" unicode="&#x404;" horiz-adv-x="1375" 
d="M1013 671q-73 0 -577 14q27 -387 155.5 -476.5t196.5 -89.5q109 0 157 18t74 48l90 223l187 -9l-19 -343q-43 -3 -88 -15.5t-144.5 -38t-270.5 -25.5q-342 0 -530.5 211t-188.5 568t218 569.5t574 212.5q149 0 281 -29.5t168 -34.5l-24 -401h-219l-61 265
q-26 31 -64.5 46t-115.5 15q-161 0 -262.5 -135t-115.5 -398q560 16 579 16v-211z" />
    <glyph glyph-name="afii10054" unicode="&#x405;" horiz-adv-x="1241" 
d="M620 121q108 -1 167 55t59 153t-90 169q-64 52 -175 105q-113 52 -157 76t-87 55q-100 72 -160 168q-59 96 -59 202q0 200 137 318q137 119 396 119q181 0 371 -59q38 -12 61 -14l-13 -360h-182l-49 244q-39 51 -191 51q-99 0 -154 -51t-55 -122q-1 -72 27 -116t84 -88
t182 -107q126 -61 195 -101t127 -94q132 -124 132 -296t-123 -298q-150 -153 -453 -153q-192 1 -428 75q-46 14 -71 16l17 380h187l51 -254q22 -28 84 -50t170 -23z" />
    <glyph glyph-name="afii10055" unicode="&#x406;" horiz-adv-x="850" 
d="M89 1522h674v-141l-168 -28v-1193l170 -28v-132h-674v134l165 26v1192l-167 29v141z" />
    <glyph glyph-name="uni0407" unicode="&#x407;" horiz-adv-x="850" 
d="M89 1522h674v-141l-168 -28v-1193l170 -28v-132h-674v134l165 26v1192l-167 29v141zM139 1653q-65 0 -107 46q-41 46 -41 98q0 94 45 147t132 53h1q79 0 121 -45q41 -45 41 -99q0 -200 -191 -200h-1zM666 1653q-64 0 -105 48q-42 48 -42 98q0 94 45 146t131 52h1
q79 0 121 -45t42 -99q0 -97 -49 -148q-49 -52 -143 -52h-1z" />
    <glyph glyph-name="afii10057" unicode="&#x408;" horiz-adv-x="808" 
d="M257 415v937l-172 29v141h671v-141l-163 -28v-784q1 -408 -25 -511q-47 -188 -186 -300q-139 -113 -345 -151l-74 118q119 40 206 176q88 137 88 514z" />
    <glyph glyph-name="afii10058" unicode="&#x409;" horiz-adv-x="2138" 
d="M1477 125q282 0 282 310q0 278 -269 278q-85 0 -157 -9l-2 1v-562l2 2q65 -20 144 -20zM216 193q48 0 79 19t52 64t36.5 87.5t52.5 193t37 653.5v145l-225 26v141h1083v-5l2 5h187v-141l-189 -29v-508l2 4q95 19 255 19q260 0 390.5 -109.5t130.5 -319.5t-144 -332
t-394 -122l-395 16h-393v134l217 26l-1 1192h-361v-151q0 -553 -71.5 -827t-157 -331t-172.5 -57t-157 13l-23 201q111 -7 159 -7z" />
    <glyph glyph-name="afii10059" unicode="&#x40a;" horiz-adv-x="2263" 
d="M1605 125q135 0 202 83t67 230q0 281 -269 281h-157v-573q91 -21 157 -21zM949 0v138l163 28v530h-543v-531l171 -27v-138h-663v134l156 25v1194l-152 28v141h659v-141l-171 -28v-496h543l1 500l-163 32v133h657v-133l-159 -32v-488h254q243 0 381.5 -110.5t138.5 -323.5
t-143 -333.5t-382 -120.5l-425 19h-323z" />
    <glyph glyph-name="afii10060" unicode="&#x40b;" horiz-adv-x="1888" 
d="M1739 425v-266l145 -25v-134h-607v134l127 26v186q0 209 -39.5 280.5t-164.5 71.5t-186.5 -25t-87.5 -35h-1v-478l186 -26v-134h-779v134l253 26v1215l-283 -18l-65 -327h-188l28 492h1401l21 -492h-179l-73 325l-322 19v-585l1 2q180 90 396 90q213 0 315 -98t102 -358z
" />
    <glyph glyph-name="afii10061" unicode="&#x40c;" horiz-adv-x="1491" 
d="M612 1702l313 312h1l205 -148q-72 -86 -200 -161t-201 -91h-1zM80 1522h635v-141l-148 -29v-527h138l338 527l-141 29v141h555v-141l-171 -28l-384 -535q128 -35 248 -229q60 -98 105 -187q46 -90 86 -160t72 -82l76 -26v-134h-356q-76 0 -174 221q-28 63 -57 129
q-74 170 -120 240q-70 109 -139 109h-76v-539l176 -28v-132h-663v134l153 27v1192l-153 28v141z" />
    <glyph glyph-name="uni040D" unicode="&#x40d;" horiz-adv-x="1745" 
d="M997 1614q-84 21 -176 76q-175 103 -224 176l204 148h1l313 -312l-117 -88h-1zM81 1522h660v-140l-174 -29v-906l102 184l509 679v43l-162 28v141h648v-141l-152 -28v-1193l158 -26v-134h-656v134l164 26v917l-93 -184l-518 -676v-57l171 -26v-134h-661v134l156 26v1193
l-152 28v141z" />
    <glyph glyph-name="afii10062" unicode="&#x40e;" horiz-adv-x="1322" 
d="M1140 1954q0 -153 -112 -233t-315 -80q-303 -1 -395 177q-30 58 -30 136v12l2 48h227q36 0 36 -106q0 -144 161 -144t161 144q0 106 36 106h227l2 -48v-12zM435 -23q-121 0 -207 38v186h149q99 1 128 17q30 16 43 38t22 57l-467 1040l-115 28v141h658v-141l-172 -29
l249 -638l51 -159l266 799l-143 27v141h464v-141l-111 -29l-395 -1023q-68 -169 -120 -228q-51 -60 -115 -92t-185 -32z" />
    <glyph glyph-name="afii10145" unicode="&#x40f;" horiz-adv-x="1676" 
d="M76 1522h674v-141l-181 -28v-1207h538v1207l-172 28v141h663v-141l-156 -29v-1192l163 -26v-134h-606q-17 -17 -36.5 -189.5t-19.5 -220.5h-201q0 101 -25.5 249t-33.5 161h-613v134l163 27v1192l-157 28v141z" />
    <glyph glyph-name="afii10017" unicode="&#x410;" horiz-adv-x="1443" 
d="M868 561l-181 619l-31 141l-31 -141l-172 -619h415zM1474 0h-633v134l144 26l-72 247h-503l-70 -251l159 -22v-134h-539l-2 134l120 26l462 1369h353l465 -1370l116 -25v-134z" />
    <glyph glyph-name="afii10018" unicode="&#x411;" horiz-adv-x="1405" 
d="M1008 455q0 301 -285 301h-154v-611q55 -20 141 -20q159 0 228.5 87t69.5 243zM51 0v134l182 25v1194l-181 28v141h1176l21 -413h-196l-66 248l-418 17v-472h250q538 0 538 -436q0 -229 -148.5 -355.5t-392.5 -126.5l-403 16h-362z" />
    <glyph glyph-name="afii10019" unicode="&#x412;" horiz-adv-x="1455" 
d="M704 128q106 0 162 21q160 59 160 284q0 150 -67 214t-214 64h-49q-88 0 -129 -3v-562q31 -18 137 -18zM653 864h75q227 0 227 285q0 128 -57 189t-191 61q-49 0 -139 -10v-521q28 -4 85 -4zM1395 459q0 -471 -655 -471l-341 12h-322v134l156 26v1193l-154 28v141h314
l324 13q460 0 545 -201q27 -64 27 -144q0 -152 -91 -252t-236 -123q197 2 315 -92t118 -264z" />
    <glyph glyph-name="afii10020" unicode="&#x413;" horiz-adv-x="1223" 
d="M53 1522h1141l25 -593h-197l-74 424l-338 21v-1213l317 -27v-134h-878v134l222 27v1190l-218 33v138z" />
    <glyph glyph-name="afii10021" unicode="&#x414;" horiz-adv-x="1570" 
d="M614 1367v-110q2 -398 -56 -681t-127 -416h534l1 1207h-352zM62 160h143q150 217 196 539t46 570v84l-212 28v141h1259v-141l-195 -28v-1193h194q0 -89 -5.5 -232t-8.5 -227t-7 -107h-185q-5 76 -42 230t-49 176h-862q-21 -21 -59 -183.5t-47 -226.5h-190q3 47 6.5 182.5
t5.5 193.5t3.5 108.5t3.5 83.5l5 -4v6z" />
    <glyph glyph-name="afii10022" unicode="&#x415;" 
d="M74 1522h1107l28 -353h-163l-70 198l-404 20v-532l254 6l37 165h146v-509h-146l-35 176l-256 6v-554l450 27l125 258l171 -49l-52 -381h-1189v134l156 25v1193l-159 29v141z" />
    <glyph glyph-name="afii10024" unicode="&#x416;" horiz-adv-x="2174" 
d="M40 1522h551v-141l-138 -28l332 -528h140v528l-162 28v141h649v-141l-162 -28v-528h141l330 527l-136 29v141h555v-141l-172 -28l-384 -539q154 -50 253 -235.5t133.5 -251.5t64 -112t55.5 -55l83 -26v-134h-357q-77 0 -141 142t-117.5 260.5t-112.5 207.5t-127 89h-68
v-539l175 -28v-132h-671v134l171 27v538h-67q-97 0 -165.5 -142t-124.5 -266t-105.5 -207.5t-103.5 -83.5h-357v134l84 26q26 9 55.5 55t104 188.5t153.5 258.5t192 152l-384 539l-167 28v141z" />
    <glyph glyph-name="afii10025" unicode="&#x417;" horiz-adv-x="1279" 
d="M815 427q0 289 -260 289h-135v153h114q185 0 230 109t45 181q0 129 -65.5 186t-160.5 57q-167 0 -199 -72l-48 -191h-187l-29 336q32 2 88 12t173 30.5t231 20.5t221 -21t181 -64.5t113 -109t39 -191.5t-105.5 -222t-253.5 -125q194 -6 295.5 -104.5t101.5 -244.5
q0 -225 -149 -346.5t-502 -121.5q-190 0 -311 39.5t-155 45.5l50 386h158l73 -280q76 -55 204 -55q181 0 212 122t31 181z" />
    <glyph glyph-name="afii10026" unicode="&#x418;" horiz-adv-x="1745" 
d="M81 1522h660v-140l-174 -29v-906l102 184l509 679v43l-162 28v141h648v-141l-152 -28v-1193l158 -26v-134h-656v134l164 26v917l-93 -184l-518 -676v-57l171 -26v-134h-661v134l156 26v1193l-152 28v141z" />
    <glyph glyph-name="afii10027" unicode="&#x419;" horiz-adv-x="1745" 
d="M1300 1954q0 -153 -112 -233t-315 -80q-303 -1 -395 177q-30 58 -30 136v12l2 48h227q36 0 36 -106q0 -144 161 -144t161 144q0 106 36 106h227l2 -48v-12zM81 1522h660v-140l-174 -29v-906l102 184l509 679v43l-162 28v141h648v-141l-152 -28v-1193l158 -26v-134h-656
v134l164 26v917l-93 -184l-518 -676v-57l171 -26v-134h-661v134l156 26v1193l-152 28v141z" />
    <glyph glyph-name="afii10028" unicode="&#x41a;" horiz-adv-x="1491" 
d="M80 1522h635v-141l-148 -29v-527h138l338 527l-141 29v141h555v-141l-171 -28l-384 -535q128 -35 218 -181t135.5 -235.5t85 -159.5t72.5 -82l76 -26v-134h-356q-76 0 -139 142t-115 260t-110 207.5t-126 89.5h-76v-539l176 -28v-132h-663v134l153 27v1192l-153 28v141z
" />
    <glyph glyph-name="afii10029" unicode="&#x41b;" horiz-adv-x="1565" 
d="M216 193q48 0 79 19t52 64t36.5 86.5t52.5 193.5t37 689v107l-250 29v141h1295v-141l-187 -29v-1193l203 -25v-134h-751v134l217 26l-1 1192h-361v-151q0 -559 -71.5 -833.5t-157 -328t-172.5 -53.5t-157 13l-23 201q111 -7 159 -7z" />
    <glyph glyph-name="afii10030" unicode="&#x41c;" horiz-adv-x="2118" 
d="M106 1522h662l261 -885l37 -194l33 194l219 885h669v-141l-217 -29l178 -1192l170 -26v-134h-685v134l169 25l-103 881l-39 366l-59 -283l-275 -1065h-245l-323 991l-88 363l-24 -371l-65 -881l203 -26v-134h-589v134l173 25l139 1194l-201 28v141z" />
    <glyph glyph-name="afii10031" unicode="&#x41d;" horiz-adv-x="1716" 
d="M85 1522h652v-141l-167 -28v-492h575v491l-155 29v141h645v-141l-152 -28v-1194l152 -25v-134h-643v134l153 26v532h-575v-532l167 -26v-134h-656v134l152 25v1194l-148 28v141z" />
    <glyph glyph-name="afii10032" unicode="&#x41e;" horiz-adv-x="1495" 
d="M1068 783q0 620 -320 620q-233 0 -298 -359q-22 -122 -22 -286q0 -324 83 -483t235 -159q150 0 236 168t86 499zM248 1327q192 214 526 214q333 0 499 -200q167 -200 167 -558q0 -359 -193 -581t-523 -225q-330 -4 -499 205t-169 570t192 575z" />
    <glyph glyph-name="afii10033" unicode="&#x41f;" horiz-adv-x="1656" 
d="M73 1522h1511v-140l-161 -29v-1193l173 -26v-134h-657v134l148 26v1208h-518v-1208l166 -26v-134h-658v134l156 26v1193l-160 28v141z" />
    <glyph glyph-name="afii10034" unicode="&#x420;" horiz-adv-x="1361" 
d="M686 669q76 -1 124 19t84 66q80 101 80 296q0 196 -69 272t-204 76q-59 0 -89 -6t-42 -6v-707q41 -10 116 -10zM729 531q-128 0 -158 7v-378l265 -26v-134h-759v134l156 25v1194l-149 28v141h306l344 12q474 0 561 -260q28 -84 28 -203t-41 -221q-42 -102 -120 -174
q-78 -70 -192 -108t-241 -37z" />
    <glyph glyph-name="afii10035" unicode="&#x421;" horiz-adv-x="1351" 
d="M268 1326q213 212 545 212q148 0 293 -25q146 -25 177 -28l-24 -446h-214l-70 302q-39 52 -194 52t-249 -157q-93 -157 -93 -456q-1 -454 201 -606q68 -52 184 -51q115 0 170 66l96 221l194 -18l-38 -336q-48 -6 -90 -18t-90 -26q-124 -35 -288 -35q-162 -1 -302 53
t-234 154q-188 201 -187 566q0 364 213 576z" />
    <glyph glyph-name="afii10036" unicode="&#x422;" horiz-adv-x="1508" 
d="M1207 0h-879v134l257 26v1211l-258 -10l-83 -444h-190l30 605h1327l29 -605h-183l-88 444l-242 10v-1210l280 -27v-134z" />
    <glyph glyph-name="afii10037" unicode="&#x423;" horiz-adv-x="1322" 
d="M435 -23q-121 0 -207 38v186h149q99 0 128.5 16.5t42.5 38.5t22 57l-467 1040l-115 28v141h658v-141l-172 -29l249 -638l51 -159l266 799l-143 27v141h464v-141l-111 -29l-395 -1023q-68 -169 -120 -228.5t-115.5 -91.5t-184.5 -32z" />
    <glyph glyph-name="afii10038" unicode="&#x424;" horiz-adv-x="1708" 
d="M1342 756q0 170 -67.5 274.5t-259.5 126.5v-786q279 18 303 165.5t24 219.5zM367 790q0 -171 67 -281.5t259 -134.5v787q-281 -21 -303.5 -160.5t-22.5 -210.5zM15 794q0 86 39 175.5t166.5 190.5t472.5 113v127l-177 31v135h672v-135l-173 -31v-125q405 -6 527 -126.5
t137 -218.5t15 -185t-42.5 -177.5t-174.5 -196t-462 -113.5v-140l175 -24v-138h-672v139l175 24v140q-608 4 -643 226.5t-35 308.5z" />
    <glyph glyph-name="afii10039" unicode="&#x425;" horiz-adv-x="1480" 
d="M26 1522h691v-141l-155 -30l258 -432l269 434l-167 28v141h536v-141l-162 -28l-392 -539l440 -654l141 -26v-134h-691v134l154 26l-287 469l-268 -470l184 -25v-134h-567v134l170 25l393 580l-409 613l-138 29v141z" />
    <glyph glyph-name="afii10040" unicode="&#x426;" horiz-adv-x="1683" 
d="M76 1522h674v-141l-181 -29v-1204h515v1205l-149 28v141h641v-141l-157 -28v-1193h249q0 -110 -27 -335t-29 -231h-184q-12 196 -32 295.5t-25 110.5h-1309v134l171 26v1193l-157 28v141z" />
    <glyph glyph-name="afii10041" unicode="&#x427;" horiz-adv-x="1507" 
d="M937 648q-128 -92 -370 -92q-200 0 -313 101.5t-113 360.5v332l-117 30v142h594v-142l-141 -30v-254q0 -231 35.5 -282.5t79 -62t111.5 -10.5q152 0 234 69v544l-159 27v141h658v-141l-163 -28v-1193l163 -28v-132h-708v134l209 27v487z" />
    <glyph glyph-name="afii10042" unicode="&#x428;" horiz-adv-x="2356" 
d="M76 1522h651v-141l-158 -28v-1193h446v1194l-143 27v141h623v-141l-147 -28v-1193h440v1193l-143 28v141h634v-141l-157 -28v-1192l171 -27v-134h-2231v134l171 27v1193l-157 27v141z" />
    <glyph glyph-name="afii10043" unicode="&#x429;" horiz-adv-x="2399" 
d="M76 1522h651v-141l-158 -28v-1193h446v1194l-143 27v141h623v-141l-147 -28v-1193h440v1193l-143 28v141h634v-141l-157 -28v-1193h256q0 -110 -27 -335t-29 -231h-185q0 135 -26 265t-31 141h-2018v134l171 27v1193l-157 27v141z" />
    <glyph glyph-name="afii10044" unicode="&#x42a;" horiz-adv-x="1744" 
d="M1069 125q287 0 287 329q0 298 -272 298h-160v-608q65 -19 145 -19zM1168 906q538 0 538 -443q0 -224 -145 -351.5t-397 -127.5l-396 16h-469v134l286 27v1215l-259 -19l-74 -422h-198l33 587h1049v-136l-212 -34v-446h244z" />
    <glyph glyph-name="afii10045" unicode="&#x42b;" horiz-adv-x="2120" 
d="M1381 1522h674v-141l-168 -28v-1193l170 -28v-132h-674v134l165 26v1192l-167 29v141zM997 456q0 313 -268 313l-159 -1v-624q62 -19 143 -19q150 0 217 90t67 241zM76 0v134l157 23l1 1201l-154 31v133h706v-133l-216 -33v-437l258 -1q256 0 388 -117q133 -117 133 -335
q0 -219 -154 -351q-154 -131 -394 -131l-419 16h-306z" />
    <glyph glyph-name="afii10046" unicode="&#x42c;" horiz-adv-x="1379" 
d="M997 456q0 313 -268 313l-159 -1v-624q62 -19 143 -19q150 0 217 90t67 241zM76 0v134l157 23l1 1201l-154 31v133h706v-133l-216 -33v-437l258 -1q256 0 388.5 -116.5t132.5 -335.5t-154 -350.5t-394 -131.5l-419 16h-306z" />
    <glyph glyph-name="afii10047" unicode="&#x42d;" horiz-adv-x="1386" 
d="M448 1375q-45 -22 -74 -59l-71 -213l-202 -2l-7 359q43 3 89 15.5t150.5 37.5t273.5 25q338 0 531.5 -214.5t193.5 -569.5q0 -356 -212.5 -566.5t-566.5 -210.5q-127 0 -223 24t-139.5 35.5t-86.5 12.5l-13 363l216 15l80 -234q30 -37 67 -56.5t119 -19.5
q170 0 272.5 147t110.5 422l-595 -15v211l589 -15q-36 367 -162.5 448.5t-210.5 81.5t-129 -22z" />
    <glyph glyph-name="afii10048" unicode="&#x42e;" horiz-adv-x="2267" 
d="M1535 118q301 0 301 666q0 316 -79.5 467.5t-224.5 151.5q-228 0 -271 -240t-43 -409q0 -315 82 -475.5t235 -160.5zM81 1522h650v-141l-161 -28v-491h283q32 318 220.5 498.5t470.5 180.5q334 0 499 -200.5t162 -563.5t-190.5 -579.5t-503.5 -216.5t-484 187.5
t-178 521.5h-278v-530l166 -26v-134h-660v134l156 26v1193l-152 28v141z" />
    <glyph glyph-name="afii10049" unicode="&#x42f;" horiz-adv-x="1486" 
d="M519 1119q0 -334 269 -334q13 0 31.5 0.5t48 1.5t48.5 7v594q-110 11 -159 11q-115 0 -176.5 -65.5t-61.5 -214.5zM382 0h-375v134l71 26q41 9 80 98t102.5 243t200.5 207q-139 39 -218.5 155t-79.5 242t32.5 204.5t135 152.5t411.5 74l340 -14h330v-141l-160 -28v-1194
l172 -25v-134h-686l-1 134l179 24v492h-9l-206 2q-79 -53 -158.5 -299.5t-109 -299.5t-51.5 -53z" />
    <glyph glyph-name="afii10065" unicode="&#x430;" horiz-adv-x="1166" 
d="M448 214q44 -48 108 -49q96 0 165 65v336q-167 0 -242 -60q-74 -60 -74 -152q-1 -92 43 -140zM901 -25q-72 1 -98 5t-48 22t-22 88v31q-81 -94 -214 -130q-51 -14 -117 -14q-143 0 -243 90q-101 90 -101 252q0 187 175 283q175 95 488 99v42q0 112 -41 159
q-41 48 -183 48t-329 -81h-1l-65 135q57 48 152 86q190 74 328 74t219 -23t129 -73q90 -93 91 -320v-613h109v-127q-157 -33 -229 -33z" />
    <glyph glyph-name="afii10066" unicode="&#x431;" horiz-adv-x="1207" 
d="M606 118q121 0 162.5 110t41.5 291q0 182 -11.5 262t-46.5 144t-157 64t-215 -98q0 -444 37.5 -570.5t81 -164.5t107.5 -38zM45 771q0 540 359 745q123 74 245.5 99t160.5 29t63 17t36 48l22 69h169l-15 -190q-6 -82 -37 -121.5t-100 -42.5q-166 -7 -284 -22.5
t-185 -53.5q-152 -61 -172 -347q78 96 191.5 129t219.5 33t194 -41t162.5 -147.5t74.5 -380.5t-144 -442t-410 -168q-265 0 -407.5 199t-142.5 588z" />
    <glyph glyph-name="afii10067" unicode="&#x432;" horiz-adv-x="1373" 
d="M668 130q166 0 223.5 51.5t57.5 151.5q0 99 -57.5 149.5t-190.5 50.5h-159v-390q26 -13 126 -13zM676 668q215 0 215 203q0 73 -45 109t-157 36h-147v-348h134zM90 0v134l133 25v822l-135 26v131h261l379 15q407 0 448.5 -103.5t41.5 -175.5t-52 -144t-164 -107
q148 -13 231.5 -92.5t83.5 -168.5q0 -185 -136 -279.5t-464 -94.5l-383 12h-244z" />
    <glyph glyph-name="afii10068" unicode="&#x433;" horiz-adv-x="1069" 
d="M78 1137h947l10 -457h-186l-64 303l-236 23v-852l259 -20v-134h-734v134l146 20v828l-142 25v130z" />
    <glyph glyph-name="afii10069" unicode="&#x434;" horiz-adv-x="1367" 
d="M822 141v848h-297v-101q0 -388 -48.5 -546.5t-74.5 -200.5h420zM162 1138h1164v-131l-178 -25v-841h187q0 -47 -3.5 -126t-9.5 -231t-12 -190h-172q-20 149 -55 269t-43 136v1h-723q-52 -109 -94 -406h-192v146q0 146 8 410l50 -8h52q51 16 132.5 132t81.5 708l-193 25
v131z" />
    <glyph glyph-name="afii10070" unicode="&#x435;" horiz-adv-x="1129" 
d="M589 1026q-88 0 -136 -74t-52 -273h345l1 84q0 263 -158 263zM692 180q161 0 300 85l58 -124q-92 -99 -299 -148q-67 -16 -175 -16q-108 -1 -211 43q-298 126 -298 548q0 279 153 439t404 160q212 0 324 -108t117 -306q0 -136 -15 -211h-646q17 -274 184 -341
q52 -21 104 -21z" />
    <glyph glyph-name="afii10072" unicode="&#x436;" horiz-adv-x="2015" 
d="M41 1138h545v-131l-140 -24l199 -320h202v319l-125 25v131h580l1 -131l-136 -26v-318h202l198 320l-139 24v131h546v-131l-162 -25l-258 -347q120 -59 212 -225t120.5 -204t52.5 -46l92 -23v-137h-334q-84 0 -134 107.5t-89.5 198.5t-83.5 157t-107 66l-116 1v-370
l167 -26v-134h-632v134l145 25v371h-117q-84 0 -135 -108t-90.5 -198.5t-82.5 -157t-105 -66.5h-334v137l92 23q37 12 80 86t116.5 203t188.5 186l-259 347l-160 25v131z" />
    <glyph glyph-name="afii10073" unicode="&#x437;" horiz-adv-x="1116" 
d="M549 1161q472 0 472 -271q0 -130 -90 -192.5t-146 -83.5q223 -23 262 -119t40 -164t-64.5 -207.5t-470.5 -139.5q-227 0 -340 34.5t-137 41.5l23 269h193l40 -155q38 -57 189 -57t175.5 83t24.5 121q0 200 -190 200q-39 0 -119 -20l3 166l77 8q88 14 138.5 63.5
t50.5 131.5t-38.5 120.5t-139.5 38.5t-134 -35.5t-39 -50.5l-29 -145h-206v308q63 0 197.5 27.5t257.5 27.5z" />
    <glyph glyph-name="afii10074" unicode="&#x438;" horiz-adv-x="1578" 
d="M93 1138h601v-131l-145 -25v-590l116 152l365 378v59l-145 26v131h600v-131l-129 -25v-828l138 -21v-133h-609v133l145 22v585l-111 -154l-370 -383v-57l133 -11l-1 -135h-590v134l132 19v829l-130 26v130z" />
    <glyph glyph-name="afii10075" unicode="&#x439;" horiz-adv-x="1578" 
d="M93 1138h601v-131l-145 -25v-590l116 152l365 378v59l-145 26v131h600v-131l-129 -25v-828l138 -21v-133h-609v133l145 22v585l-111 -154l-370 -383v-57l133 -11l-1 -135h-590v134l132 19v829l-130 26v130zM1210 1654q0 -58 -28 -126t-82 -116q-113 -102 -311 -102
t-313 102t-115 265q0 35 2 51h216q36 0 36 -97q1 -127 95 -174q32 -16 77 -16q84 0 126 54t42 144q0 89 36 89h217q2 -16 2 -74z" />
    <glyph glyph-name="afii10076" unicode="&#x43a;" horiz-adv-x="1385" 
d="M92 1138h584v-131l-129 -26v-318h194l198 320l-140 24v131h546v-131l-161 -25l-258 -346q119 -58 212 -223.5t122.5 -205t53.5 -47.5l92 -23v-137h-334q-84 0 -134 107.5t-88.5 196t-83 157t-107.5 68.5l-112 1v-377l158 -19v-134h-615v134l132 19v829l-130 25v131z" />
    <glyph glyph-name="afii10077" unicode="&#x43b;" horiz-adv-x="1307" 
d="M8 204q46 -10 128 -10t134 230.5t52 557.5l-187 25v131h1126v-134l-178 -29v-822l167 -19v-134h-644v134l150 19v833h-279v-104q0 -247 -36 -451.5t-87 -302.5q-30 -68 -97 -118t-231 -11z" />
    <glyph glyph-name="afii10078" unicode="&#x43c;" horiz-adv-x="1846" 
d="M67 1138h613l219 -588l40 -155l30 155l174 588h632v-131l-196 -25l139 -828l149 -20v-134h-633v134l152 22l-66 584l-36 269l-72 -266l-213 -664h-240l-261 669l-86 263l-24 -262l-46 -595l171 -20v-134h-530v134l154 20l107 828l-177 25v131z" />
    <glyph glyph-name="afii10079" unicode="&#x43d;" horiz-adv-x="1548" 
d="M88 1138h599v-131l-137 -25v-318h448v318l-138 25v131h597v-131l-132 -26v-827l133 -20v-134h-600v134l140 20v363h-448v-363l140 -20v-134h-600v134l133 20v827l-135 26v131z" />
    <glyph glyph-name="afii10080" unicode="&#x43e;" horiz-adv-x="1243" 
d="M414 590q0 -470 211 -470q103 0 153 105t49 330q0 351 -111 439q-39 31 -96 31q-104 0 -155 -105t-51 -330zM229 1011q166 157 415 157q248 0 392 -157t144 -441q0 -285 -164 -439t-415 -154t-395 157t-143 439q0 281 166 438z" />
    <glyph glyph-name="afii10081" unicode="&#x43f;" horiz-adv-x="1502" 
d="M87 1138h1329v-131l-137 -26v-822l133 -25v-134h-597v134l138 25v841h-403v-841l132 -25v-134h-591v134l132 25v823l-136 25v131z" />
    <glyph glyph-name="afii10082" unicode="&#x440;" horiz-adv-x="1315" 
d="M678 980q-102 0 -168 -72v-749q13 -19 50 -33t87 -14q112 0 182 108t72 350q3 308 -133 386q-41 24 -90 24zM482 1015q124 153 336 153q74 0 154 -32t142 -98q132 -147 131 -421q0 -274 -162 -457t-444 -183q-73 0 -135 19l6 -166v-172l178 -26v-128h-627v128l129 25
v1265l-122 40v158l355 46h5l54 -44v-107z" />
    <glyph glyph-name="afii10083" unicode="&#x441;" horiz-adv-x="1062" 
d="M682 176q150 0 274 81l55 -121q-83 -94 -270 -142q-65 -16 -171 -17q-106 0 -205 44q-288 127 -291 536q0 274 160 442q160 169 427 169q139 0 285 -48q32 -10 58 -14l-14 -355h-201l-52 214q-21 57 -108 57q-208 0 -208 -396q-2 -222 70 -336t191 -114z" />
    <glyph glyph-name="afii10084" unicode="&#x442;" horiz-adv-x="1329" 
d="M1088 0h-837v134l251 26v846l-199 -23l-61 -320h-197l18 474h1193l19 -474h-195l-65 320l-186 23v-847l259 -25v-134z" />
    <glyph glyph-name="afii10085" unicode="&#x443;" horiz-adv-x="1180" 
d="M275 -510q-98 0 -138 20v241q38 -27 115 -27q78 0 118 16q115 44 197 260h-127l-374 981l-91 26v131h595v-131l-141 -26l171 -556l61 -212l51 212l159 558l-124 24v131h459v-131l-96 -24q-78 -246 -207 -614t-157 -440q-28 -73 -74 -163t-104 -150q-56 -62 -126 -94
t-167 -32z" />
    <glyph glyph-name="afii10086" unicode="&#x444;" horiz-adv-x="1870" 
d="M1460 565q0 211 -64.5 320.5t-157.5 109.5t-146 -46v-776q36 -50 119 -50q170 0 209.5 163t39.5 279zM660 150q68 0 117 48v774q-36 50 -118 50q-170 0 -209.5 -167t-39.5 -283t17.5 -193t48.5 -128t73.5 -76t110.5 -25zM783 80q-101 -105 -281.5 -105t-306.5 140.5
t-126 422.5t149 455t411 173q83 0 155 -31l-7 157v193l-147 24v122l393 49h4l65 -42v-346l-5 -230q102 104 282 104t306 -140.5t126 -422.5t-149 -455t-412 -173q-89 0 -147 30l5 -118v-225l163 -29v-130h-642v130l158 29v225z" />
    <glyph glyph-name="afii10087" unicode="&#x445;" horiz-adv-x="1243" 
d="M17 1138h624v-131l-126 -25l144 -202l52 -87l50 86l147 203l-132 25v131h457v-131l-118 -25l-310 -383l346 -447l111 -20v-132h-618v132l111 21l-143 219l-61 89l-46 -88l-148 -219l148 -22v-132h-501v132l128 21l320 405l-330 424l-105 25v131z" />
    <glyph glyph-name="afii10088" unicode="&#x446;" horiz-adv-x="1487" 
d="M92 0v133l131 26v823l-132 25v131h598v-131l-139 -25v-835h399v835l-134 25v131h584v-131l-121 -25v-835l1 1h214q0 -22 -6 -80t-10.5 -105.5t-19.5 -195t-24 -173.5h-172q-49 366 -67 406h-1102z" />
    <glyph glyph-name="afii10089" unicode="&#x447;" horiz-adv-x="1370" 
d="M633 542q124 0 194 51v388l-120 26v131h572v-131l-131 -25v-823l133 -25v-134h-630v134l176 26v298q-32 -14 -62 -27.5t-86 -30.5t-150 -17q-204 0 -311 96.5t-107 335.5v167l-105 25v131h543v-131l-106 -25v-114q0 -205 28.5 -253t65.5 -60.5t96 -12.5z" />
    <glyph glyph-name="afii10090" unicode="&#x448;" horiz-adv-x="2121" 
d="M88 1138h593v-131l-139 -25v-839h361v839l-133 25v131h578v-131l-128 -25v-839h360v839l-136 25v131h589v-131l-134 -25v-829l151 -26v-127h-1966v127l139 27v826l-135 27v131z" />
    <glyph glyph-name="afii10091" unicode="&#x449;" horiz-adv-x="2118" 
d="M84 0v127l139 27v826l-135 27v131h593v-131l-139 -25v-839h361v839l-133 25v131h578v-131l-128 -25v-839h360v839l-136 25v131h589v-131l-134 -25v-834h208q0 -22 -6 -80.5t-10.5 -106t-9.5 -96.5t-10.5 -96t-11.5 -106t-11 -73h-173q-50 375 -66 410h-1725z" />
    <glyph glyph-name="afii10092" unicode="&#x44a;" horiz-adv-x="1544" 
d="M1183 334q0 159 -81 190t-139 31h-146v-418q56 -17 122 -17q244 0 244 214zM244 0v134l253 22v850l-207 -10l-53 -338h-185v480h909v-131l-144 -27v-280l241 1q349 0 405.5 -131t56.5 -222q0 -367 -508 -367l-372 19h-396z" />
    <glyph glyph-name="afii10093" unicode="&#x44b;" horiz-adv-x="1929" 
d="M642 120q240 0 240 214q0 159 -80.5 190t-139.5 31h-119v-428q40 -7 99 -7zM74 0v127l149 26v827l-147 26v132h629v-132l-162 -26v-279h215q460 0 460 -343q0 -377 -502 -377l-372 19h-270zM1259 1138h569v-134l-122 -22v-825l139 -23v-134h-580v134l126 25v821l-132 24
v134z" />
    <glyph glyph-name="afii10094" unicode="&#x44c;" horiz-adv-x="1264" 
d="M664 120q239 0 239 214q0 159 -80.5 190t-139.5 31h-140v-423q48 -12 121 -12zM77 0v127l146 27v828l-142 23v133h631v-133l-169 -23v-281h236q348 0 404.5 -131t56.5 -212q0 -377 -502 -377l-373 19h-288z" />
    <glyph glyph-name="afii10095" unicode="&#x44d;" horiz-adv-x="1087" 
d="M85 1112q142 58 409 58q85 0 190.5 -39t229 -158.5t121.5 -398.5t-148 -438t-396 -159q-194 0 -286 46t-121 70l-8 216h155l45 -154q71 -29 137 -29q126 0 194.5 87t79.5 295l-417 -12v177q9 0 417 -12q-9 178 -68.5 274.5t-159.5 96.5t-148 -62l-40 -127h-181z" />
    <glyph glyph-name="afii10096" unicode="&#x44e;" horiz-adv-x="1948" 
d="M1125 599q0 -237 47.5 -360t159.5 -123q154 0 177.5 161t23.5 276q0 236 -46.5 356t-159.5 120q-154 0 -178 -158t-24 -272zM93 1138h607v-131l-148 -25v-317h228q29 246 187.5 374.5t376.5 128.5q256 0 398 -154t142 -441t-162.5 -441.5t-407.5 -154.5t-385 141
t-154 396h-223v-355l157 -25v-134h-618v134l132 25v823l-130 25v131z" />
    <glyph glyph-name="afii10097" unicode="&#x44f;" horiz-adv-x="1377" 
d="M682 1021q-220 0 -220 -187q0 -176 85.5 -214.5t127.5 -38.5h63q64 0 97 3v430q-35 7 -153 7zM114 804q0 165 137 256.5t409 91.5l384 -14h250v-134l-139 -22v-822l144 -24v-136h-621v136l157 25v288h-199q-64 -53 -120 -217t-78 -198t-42 -34h-363v134l91 28
q67 14 106 90t68 133.5t60 89.5q-244 71 -244 329z" />
    <glyph glyph-name="uni0450" unicode="&#x450;" horiz-adv-x="1129" 
d="M589 1026q-88 0 -136 -74t-52 -273h345l1 84q0 263 -158 263zM692 180q161 0 300 85l58 -124q-92 -99 -299 -148q-67 -16 -175 -16q-108 -1 -211 43q-298 126 -298 548q0 279 153 439t404 160q212 0 324 -108t117 -306q0 -136 -15 -211h-646q17 -274 184 -341
q52 -21 104 -21zM635 1307q-87 31 -233 150t-197 205l194 175h1l357 -430l-120 -100h-2z" />
    <glyph glyph-name="afii10071" unicode="&#x451;" horiz-adv-x="1129" 
d="M519 1541q0 -205 -191 -205h-1q-65 0 -107 47t-42 101q0 97 45 150q45 54 132 54h1q78 0 121 -46q42 -46 42 -101zM830 1336q-64 0 -106 49t-42 100q0 96 45 149q45 54 132 54h1q120 0 152 -100q10 -30 10 -66q0 -82 -48 -134t-143 -52h-1zM589 1026q-88 0 -136 -74
t-52 -273h345l1 84q0 263 -158 263zM692 180q161 0 300 85l58 -124q-92 -99 -299 -148q-67 -16 -175 -16q-108 -1 -211 43q-298 126 -298 548q0 279 153 439t404 160q212 0 324 -108t117 -306q0 -136 -15 -211h-646q17 -274 184 -341q52 -21 104 -21z" />
    <glyph glyph-name="afii10099" unicode="&#x452;" horiz-adv-x="1380" 
d="M500 933q158 144 406 144q165 0 239.5 -100.5t74.5 -344.5v-611q0 -391 -165.5 -469.5t-274.5 -81.5h-50q-49 0 -60 8l-10 136q126 0 163 59t52 126.5t15 245.5v588q0 140 -25 181.5t-56 55.5t-79 14q-111 0 -215 -82v-648l119 -21v-133h-554v134l112 19v1063h-175v127
h175v150l-146 26v125l407 49h3l60 -43v-307h222v-127h-221v-59z" />
    <glyph glyph-name="afii10100" unicode="&#x453;" horiz-adv-x="1068" 
d="M357 1407l358 430h1l194 -175q-69 -117 -284 -271q-89 -64 -146 -84h-2zM81 1137h947l10 -457h-186l-64 303l-236 23v-852l259 -20v-134h-734v134l146 20v828l-142 25v130z" />
    <glyph glyph-name="afii10101" unicode="&#x454;" horiz-adv-x="1082" 
d="M559 -23q-104 0 -304.5 83t-203.5 518q-2 265 170 428.5t422 163.5q147 0 241.5 -24.5t117.5 -33.5l-6 -269h-180l-41 127q-48 62 -148 62t-161 -91t-68 -278l447 12v-177l-445 13q26 -385 262 -385q73 0 148 28l46 155h155l-8 -216q-140 -116 -444 -116z" />
    <glyph glyph-name="afii10102" unicode="&#x455;" horiz-adv-x="1084" 
d="M113 332h192l51 -156q25 -42 121 -60q29 -6 67 -6q79 0 119 37q41 37 41 84t-24 77t-65 56q-43 26 -101 54q-58 26 -126 57q-144 65 -210 149q-66 83 -66 220t123 228q123 92 306 92q181 0 347 -48q34 -10 61 -14v-273h-180l-52 147q-10 20 -47 38q-38 18 -108 18
t-111 -35t-41 -82t22 -77t58 -52q36 -24 84 -44q47 -20 105 -46q159 -70 231 -134q108 -97 109 -245q0 -147 -119 -243q-119 -97 -349 -97q-177 0 -367 62q-43 14 -71 21v272z" />
    <glyph glyph-name="afii10103" unicode="&#x456;" horiz-adv-x="727" 
d="M668 0h-588v134l134 20v768l-135 41v153l394 50h5l62 -44v-969l128 -19v-134zM351 1322q-75 0 -124 47q-48 47 -48 103q0 100 51 157q51 56 141 56h1q84 -1 132 -49t49 -104q0 -100 -52 -155t-149 -55h-1z" />
    <glyph glyph-name="afii10104" unicode="&#x457;" horiz-adv-x="727" 
d="M276 1541q0 -205 -191 -205h-1q-65 0 -107 47t-42 101q0 97 45 150q45 54 132 54h1q78 0 121 -46q42 -46 42 -101zM587 1336q-64 0 -106 49t-42 100q0 96 45 149q45 54 132 54h1q121 0 153 -100q10 -30 9 -66q0 -82 -48 -134t-143 -52h-1zM668 0h-588v134l134 20v768
l-135 41v153l394 50h5l62 -44v-969l128 -19v-134z" />
    <glyph glyph-name="afii10105" unicode="&#x458;" horiz-adv-x="695" 
d="M537 22q0 -234 -148 -384q-127 -129 -267 -136h-30q-70 0 -94 8l-17 131q50 -4 101 24q76 37 106 143t29 272l-1 836l-135 43l2 157l387 50h5l62 -44v-1100zM347 1322q-75 0 -124 47q-48 47 -48 103q0 100 51 157q51 56 141 56h1q84 -1 132 -49t49 -104q0 -100 -52 -155
t-149 -55h-1z" />
    <glyph glyph-name="afii10106" unicode="&#x459;" horiz-adv-x="1805" 
d="M1452 337q0 167 -86.5 188.5t-152.5 21.5t-130 -22v-388q62 -14 131 -14q127 0 182.5 53.5t55.5 160.5zM8 204q46 -10 128 -10t134 230.5t52 557.5l-187 25v131h1126v-134l-178 -29v-305q97 28 229 28q248 0 358.5 -85.5t110.5 -268.5q0 -182 -113.5 -272.5t-351.5 -90.5
l-390 19h-320v134l150 19v833h-279v-104q0 -247 -36 -451.5t-87 -302.5q-30 -68 -97 -118t-231 -11z" />
    <glyph glyph-name="afii10107" unicode="&#x45a;" horiz-adv-x="2045" 
d="M1694 337q0 168 -87 189t-153 21t-129 -22v-389l1 1q59 -14 129 -14q128 0 183.5 53.5t55.5 160.5zM860 0v134l145 20v363h-462v-364l145 -19v-134h-598v134l133 20v827l-135 26v131h597v-131l-142 -26v-317h462v318l-142 25v131h594v-131l-132 -26v-311q97 28 229 28
q248 0 358 -85t110 -268q0 -364 -483 -364l-390 19h-289z" />
    <glyph glyph-name="afii10108" unicode="&#x45b;" horiz-adv-x="1391" 
d="M500 920q172 152 408 152q175 0 244.5 -105.5t69.5 -347.5v-465l130 -20v-134h-564v133l110 20v466q0 145 -23.5 188t-54.5 58t-81 15q-121 0 -217 -80v-646l119 -20v-134h-557v134l108 19v1054h-144v133h144v142l-146 26v123l403 49h6l59 -44l1 -296h244v-133h-244
l1 -102z" />
    <glyph glyph-name="afii10109" unicode="&#x45c;" horiz-adv-x="1380" 
d="M462 1407l358 430h1l194 -175q-69 -117 -284 -271q-89 -64 -146 -84h-2zM93 1138h584v-131l-129 -26v-318h194l198 320l-140 24v131h546v-131l-161 -25l-258 -346q119 -58 235 -264q70 -125 99 -164q30 -40 54 -48l92 -23v-137h-334q-84 0 -162 168q-21 48 -43 96
q-56 126 -92 182q-54 82 -116 83l-112 1v-377l158 -19v-134h-615v134l132 19v829l-130 25v131z" />
    <glyph glyph-name="uni045D" unicode="&#x45d;" horiz-adv-x="1578" 
d="M93 1138h601v-131l-145 -25v-590l116 152l365 378v59l-145 26v131h600v-131l-129 -25v-828l138 -21v-133h-609v133l145 22v585l-111 -154l-370 -383v-57l133 -11l-1 -135h-590v134l132 19v829l-130 26v130zM861 1307q-87 31 -233 150t-197 205l194 175h1l357 -430
l-120 -100h-2z" />
    <glyph glyph-name="afii10110" unicode="&#x45e;" horiz-adv-x="1180" 
d="M275 -510q-98 0 -138 20v241q38 -27 115 -27q78 0 118 16q115 44 197 260h-127l-374 981l-91 26v131h595v-131l-141 -26l171 -556l61 -212l51 212l159 558l-124 24v131h459v-131l-96 -24q-78 -246 -207 -614t-157 -440q-28 -73 -74 -163t-104 -150q-56 -62 -126 -94
t-167 -32zM1026 1654q0 -58 -28 -126t-82 -116q-113 -102 -311 -102t-313 102t-115 265q0 35 2 51h216q36 0 36 -97q1 -127 95 -174q32 -16 77 -16q84 0 126 54t42 144q0 89 36 89h217q2 -16 2 -74z" />
    <glyph glyph-name="afii10193" unicode="&#x45f;" horiz-adv-x="1489" 
d="M91 1138h591v-131l-139 -25v-841h403v841l-138 25v131h588v-131l-130 -25v-823l137 -26v-133h-506q-20 -26 -31.5 -197.5t-11.5 -195.5h-194q0 110 -29 249t-31 144h-508v133l131 26v823l-132 25v131z" />
    <glyph glyph-name="afii10146" unicode="&#x462;" horiz-adv-x="1629" 
d="M950 122q155 0 229.5 81.5t74.5 220.5q0 201 -99 246.5t-184 45.5t-143 -13v-567q40 -14 122 -14zM304 0v134l188 23v1037l-276 -28l-60 -142h-168l28 313h476v186l-161 31v129h674l-1 -129l-176 -32v-185h513l31 -312h-188l-56 141l-299 28h-1v-357q106 25 249 25
q265 0 391 -113.5t126 -317.5t-149.5 -325t-408.5 -121l-356 15h-376z" />
    <glyph glyph-name="afii10194" unicode="&#x463;" horiz-adv-x="1523" 
d="M1159 361q0 160 -70.5 194t-132.5 34t-143 -24l-1 1v-432q51 -14 118 -14q119 0 174 66t55 175zM355 0v127l137 26v931l-209 -5l-62 -210h-171l10 346h432v266l-147 24v126l402 49h4l61 -44v-421h454l10 -346h-172l-66 210l-226 5v-381l1 1q91 28 229 28q246 0 350 -95.5
t104 -261.5q0 -394 -459 -394l-376 19h-306z" />
    <glyph glyph-name="afii10147" unicode="&#x472;" horiz-adv-x="1495" 
d="M547 750q-49 0 -118 -69q15 -423 131 -494t187 -71q141 0 225 148t94 441q-76 -69 -160 -69t-159.5 39t-113 57t-86.5 18zM430 855q76 69 161 69t158.5 -39t111 -56.5t85.5 -17.5q47 0 120 66q-23 526 -318 526q-139 0 -222 -134t-96 -414zM248.5 1327
q192.5 214 525.5 214t499.5 -200t166.5 -558q0 -359 -193 -580.5t-523 -225.5t-499 205t-169 570t192.5 575z" />
    <glyph glyph-name="afii10195" unicode="&#x473;" horiz-adv-x="1243" 
d="M415 534q10 -414 201 -414q97 0 145.5 75.5t60.5 236.5q-35 -13 -76 -13t-77 20t-68 44.5t-62.5 44.5t-64.5 20q-33 0 -59 -14zM516 713q54 0 88.5 -19t64 -41.5t57.5 -41.5t56 -19t44 6q-6 320 -79 373.5t-127 53.5q-185 0 -204 -343q46 31 100 31zM229.5 1011
q166.5 157 414.5 157q249 0 392.5 -157t143.5 -441q0 -285 -164.5 -439t-414.5 -154q-251 0 -394.5 157t-143.5 439q0 281 166.5 438z" />
    <glyph glyph-name="afii10148" unicode="&#x474;" horiz-adv-x="1420" 
d="M1356 1535q73 0 131 -21v-157h-6q-135 0 -184 -94t-70 -171l-374 -1107h-272l-502 1368l-126 28v141h662v-141l-170 -28l283 -890l50 -195l43 196l229 808q42 204 137.5 233.5t168.5 29.5z" />
    <glyph glyph-name="afii10196" unicode="&#x475;" horiz-adv-x="1185" 
d="M1244 1003q-45 0 -77 -21q-60 -39 -114 -196l-299 -802h-291l-397 1001l-83 25v128h576v-128l-135 -26l237 -775l59 225l145 501q63 212 245 212q89 0 134 -15v-129z" />
    <glyph glyph-name="uni048A" unicode="&#x48a;" horiz-adv-x="1742" 
d="M81 1522h660v-140l-174 -29v-906l102 184l509 679v43l-162 28v141h648v-141l-152 -28v-1187h210v-166q-11 -22 -99 -205.5t-104 -204.5h-186q47 112 84.5 255t41.5 155h-445v134l164 26v917l-93 -184l-518 -676v-57l171 -26v-134h-661v134l156 26v1193l-152 28v141z
M1289 1954q0 -153 -111.5 -233t-315.5 -80q-302 0 -363.5 118t-61.5 195v3l2 57h227q36 0 36 -106q0 -144 161 -144t161 144q0 106 36 106h227l1 -12z" />
    <glyph glyph-name="uni048B" unicode="&#x48b;" horiz-adv-x="1578" 
d="M93 1138h601v-131l-145 -25v-590l116 152l365 378v59l-145 26v131h600v-131l-129 -25v-836h178v-146q-10 -19 -25.5 -53.5t-40 -88.5t-67 -149.5t-57.5 -113.5h-187q14 28 59.5 207.5t50.5 197.5h-382v133l145 22v585l-111 -154l-370 -383v-57l133 -11l-1 -135h-590v134
l132 19v829l-130 26v130zM1203 1654q0 -58 -28 -126t-111.5 -143t-281.5 -75t-313 101.5t-115 265.5q0 35 2 51h216q36 0 36 -97q0 -127 63.5 -158.5t128 -31.5t106.5 54.5t42 143.5t36 89h217q2 -16 2 -74z" />
    <glyph glyph-name="uni048C" unicode="&#x48c;" horiz-adv-x="1378" 
d="M997 456q0 313 -268 313l-159 -1v-624q62 -19 143 -19q150 0 217 90t67 241zM76 0v134l157 23v927h-183v132h183l1 142l-154 31v133h706v-133l-216 -33v-140h264v-132h-264v-165l258 -1q256 0 388.5 -116.5t132.5 -335.5t-154 -350.5t-394 -131.5l-419 16h-306z" />
    <glyph glyph-name="uni048D" unicode="&#x48d;" horiz-adv-x="1234" 
d="M876 352q0 226 -243 226q-79 0 -131 -16l-1 1v-430l1 1q51 -14 123 -14q130 0 190.5 63.5t60.5 168.5zM725 723q487 0 487 -362q0 -178 -124.5 -279t-364.5 -101l-373 19h-305v127l138 26v843h-171v145h171v344l-147 24v122l396 49h5l64 -42v-497h230v-145h-230v-297l1 1
q83 23 223 23z" />
    <glyph glyph-name="uni048E" unicode="&#x48e;" horiz-adv-x="1361" 
d="M570 679q42 -10 132 -10t150 43l-158 180l96 76l138 -158q46 98 46 267q0 168 -69 244.5t-204 76.5q-59 0 -89 -5.5t-42 -6.5v-707zM732 531q-130 0 -161 7v-378l265 -26v-134h-759v134l156 25v1194l-149 28v141h306l344 12q474 0 531.5 -172t57.5 -280q0 -316 -231 -458
l144 -164l-95 -77l-165 187q-114 -39 -244 -39z" />
    <glyph glyph-name="uni048F" unicode="&#x48f;" horiz-adv-x="1313" 
d="M675.5 112q78.5 0 141.5 91l-165 158l101 105l125 -118q21 86 22 208q3 221 -58 322.5t-164 101.5q-102 0 -168 -72v-749q13 -18 50 -32.5t115.5 -14.5zM482 1015q124 153 336 153q74 0 154.5 -31.5t176.5 -138.5t96 -385t-165 -457l148 -139l-101 -107l-161 152
q-139 -85 -327 -85q-73 0 -135 19l6 -166v-172l178 -26v-128h-627v128l129 25v1265l-122 40v158l355 46h5l54 -44v-107z" />
    <glyph glyph-name="afii10050" unicode="&#x490;" horiz-adv-x="1165" 
d="M38 1522h844l77 359h179l-20 -526l-531 16v-1210l317 -27v-134h-870v134l214 26v1192l-210 32v138z" />
    <glyph glyph-name="afii10098" unicode="&#x491;" horiz-adv-x="1044" 
d="M85 1138h688l41 323h179l12 -472l-457 10v-839l268 -26v-134h-735v134l146 26v822l-142 25v131z" />
    <glyph glyph-name="uni0492" unicode="&#x492;" horiz-adv-x="1219" 
d="M271 629h-185v148h185v574l-218 33v138h1141l25 -593h-197l-74 424l-338 21v-597h285v-148h-285v-468l317 -27v-134h-878v134l222 27v468z" />
    <glyph glyph-name="uni0493" unicode="&#x493;" horiz-adv-x="1068" 
d="M227 392h-169v148h169v442l-142 25v130h947l10 -457h-186l-64 303l-236 23v-466h234v-148h-234v-238l259 -20v-134h-734v134l146 20v238z" />
    <glyph glyph-name="uni0494" unicode="&#x494;" horiz-adv-x="1493" 
d="M882 0h-857v134l223 27v1190l-218 33v138h1138l19 -433h-197l-67 266l-336 21v-574q85 46 187 62.5t139 16.5q387 0 448.5 -196.5t61.5 -354.5t-38.5 -299t-147.5 -295t-358 -154q-94 0 -177 29l-13 151q48 -15 140 -15q129 0 188 140t59 386t-56 340t-188 94t-245 -59
v-487l295 -27v-134z" />
    <glyph glyph-name="uni0495" unicode="&#x495;" horiz-adv-x="1368" 
d="M548 522q92 66 318 66q80 0 173 -24t184 -101.5t91 -309.5q0 -492 -199 -581t-308 -89t-192 29l-12 149q37 -14 120 -14t129.5 27t89.5 110t43 331q0 168 -54.5 236.5t-184.5 68.5t-198 -51v-216l203 -19v-134h-670v134l146 20v828l-143 25v130h946l10 -418h-174l-64 264
l-254 23v-484z" />
    <glyph glyph-name="uni0496" unicode="&#x496;" horiz-adv-x="2204" 
d="M40 1522h551v-141l-138 -28l332 -528h140v528l-162 28v141h649v-141l-162 -28v-528h141l330 527l-136 29v141h555v-141l-172 -28l-384 -539q154 -50 253 -235.5t133.5 -251.5t64 -112t55.5 -55h122q0 -116 -26.5 -337t-28.5 -228h-185q0 89 -21.5 232.5t-35.5 172.5h-99
q-77 0 -141 142t-117.5 260.5t-112.5 207.5t-127 89h-68v-539l175 -28v-132h-671v134l171 27v538h-67q-97 0 -165.5 -142t-124.5 -266t-105.5 -207.5t-103.5 -83.5h-357v134l84 26q26 9 55.5 55t104 188.5t153.5 258.5t192 152l-384 539l-167 28v141z" />
    <glyph glyph-name="uni0497" unicode="&#x497;" horiz-adv-x="2022" 
d="M1842 -410q0 319 -52 410h-93q-84 0 -134 107.5t-89.5 198.5t-83.5 157t-107 66l-116 1v-370l167 -26v-134h-632v134l145 25v371h-117q-84 0 -135 -108t-90.5 -198.5t-82.5 -157t-105 -66.5h-334v137l92 23q37 12 80 86t116.5 203t188.5 186l-259 347l-160 25v131h545
v-131l-140 -24l199 -320h202v319l-125 25v131h580l1 -131l-136 -26v-318h202l198 320l-139 24v131h546v-131l-162 -25l-258 -347q116 -58 213 -228.5t121.5 -203.5t47.5 -42h145q0 -153 -25.5 -357t-28.5 -214h-185z" />
    <glyph glyph-name="uni0498" unicode="&#x498;" horiz-adv-x="1263" 
d="M617 -161q0 61 -50 149h-18q-190 0 -311 39.5t-155 45.5l50 386h158l73 -280q76 -55 202 -55t185.5 86t59.5 224q0 194 -91 238t-169 44h-135v153h114q185 0 230 109t45 181q0 129 -65.5 186t-160.5 57q-167 0 -199 -72l-48 -191h-187l-29 336q32 2 88 12t173 30.5
t231 20.5t221 -21t181 -64.5t113 -109t39 -191.5t-105.5 -222t-253.5 -125q194 -6 295.5 -104.5t101.5 -244.5q0 -197 -114 -315.5t-375 -144.5q84 -84 107.5 -164t21.5 -136q-5 -115 -79 -165.5t-219 -50.5h-1q-81 0 -144 29l1 190q39 -13 82 -13h1q74 0 96.5 18t31 46
t8.5 89z" />
    <glyph glyph-name="uni0499" unicode="&#x499;" horiz-adv-x="1116" 
d="M414 -314h1q75 0 97 18q40 32 39 111q0 80 -49 170q-198 5 -360 55q-42 13 -67 20l23 269h193l40 -155q38 -57 189 -57t189 129q11 37 11 75q0 200 -190 200q-39 0 -119 -20l3 166l77 8q89 14 139 64q50 49 50 131t-38 120t-140 39q-100 1 -152 -55q-14 -16 -21 -31
l-29 -145h-206v308q64 0 198 28q135 28 257 27q472 0 472 -271q0 -130 -136 -224q-44 -30 -100 -52q223 -24 283 -170q18 -46 19 -113q1 -68 -31 -135q-86 -183 -404 -208q130 -140 122 -290q-6 -117 -80 -168q-74 -50 -218 -50h-1q-81 0 -144 29l1 190q39 -13 82 -13z" />
    <glyph glyph-name="uni049A" unicode="&#x49a;" horiz-adv-x="1523" 
d="M80 1522h635v-141l-148 -29v-527h138l338 527l-141 29v141h555v-141l-171 -28l-384 -535q128 -35 218 -181t135.5 -235.5t85 -159.5t72.5 -82h146q0 -110 -27 -335t-29 -231h-184q-13 211 -33 303t-25 103h-128q-76 0 -139 142t-115 260t-110 207.5t-126 89.5h-76v-539
l176 -28v-132h-663v134l153 27v1192l-153 28v141z" />
    <glyph glyph-name="uni049B" unicode="&#x49b;" horiz-adv-x="1399" 
d="M93 1138h584v-131l-129 -26v-318h194l198 320l-140 24v131h546v-131l-161 -25l-258 -346q119 -58 212 -223.5t122.5 -205t53.5 -47.5h112q0 -110 -27 -335t-29 -231h-185q0 134 -26.5 264.5t-31.5 141.5h-55q-77 0 -127.5 98t-78.5 166.5t-78.5 166.5t-128.5 98l-112 1
v-377l158 -19v-134h-615v134l132 19v829l-130 25v131z" />
    <glyph glyph-name="uni049C" unicode="&#x49c;" horiz-adv-x="1623" 
d="M80 1522h635v-141l-148 -29v-510h142v293h134v-293h61l260 508l-160 31v141h568v-141l-163 -26l-314 -527q114 -45 196 -191t124.5 -237t79 -159.5t68.5 -80.5l82 -26v-138l-327 4q-96 0 -159 137t-113.5 260t-98 210t-104.5 101v-337h-134v339h-142v-550l176 -28v-132
h-663v134l153 27v1192l-153 28v141z" />
    <glyph glyph-name="uni049D" unicode="&#x49d;" horiz-adv-x="1504" 
d="M93 1138h595v-131l-138 -25v-322h108v228h149v-228h50l205 323l-146 24v131h554v-131l-162 -25l-269 -353q110 -62 196.5 -226.5t117.5 -203.5t58 -44l111 -27v-128h-334q-69 0 -116 81.5t-73.5 142t-74.5 157t-117 135.5v-244h-149v262h-108v-381l157 -19v-134h-616v134
l132 19v829l-130 25v131z" />
    <glyph glyph-name="uni049E" unicode="&#x49e;" horiz-adv-x="1491" 
d="M233 1061h-160v127h160v165l-153 28v141h635v-141l-148 -29v-164h165v-127h-165v-236h138l338 527l-141 29v141h555v-141l-171 -28l-384 -535q128 -35 218 -181t135.5 -235.5t85 -159.5t72.5 -82l76 -26v-134h-356q-76 0 -139 142t-115 260t-110 207.5t-126 89.5h-76
v-539l176 -28v-132h-663v134l153 27v900z" />
    <glyph glyph-name="uni049F" unicode="&#x49f;" horiz-adv-x="1341" 
d="M191 1260h-175v134h175v88l-141 26v123l400 49h4l60 -44v-242h219v-134h-219v-578l-5 -97l377 399l-157 26v127h560v-127l-172 -34l-223 -211l352 -610l106 -21v-134h-560v133l92 21l-213 409l-164 -166l6 -111v-132l121 -21v-133h-560v134l117 19v1107z" />
    <glyph glyph-name="uni04A0" unicode="&#x4a0;" horiz-adv-x="1830" 
d="M1068 1522v-141l-150 -29v-511h166l318 511l-154 29v141h563v-141l-166 -28l-371 -530q137 -61 273 -310.5t167.5 -296.5t56.5 -56l90 -26v-134h-345q-80 0 -152 144.5t-128.5 261.5t-120 211t-132.5 94h-65v-551l174 -28v-132h-671v134l163 27v1212l-255 -17l-73 -411
h-200l26 577h986z" />
    <glyph glyph-name="uni04A1" unicode="&#x4a1;" horiz-adv-x="1692" 
d="M969 1138v-131l-131 -25v-319h195l197 318l-138 26v131h545v-130l-162 -28l-262 -351q112 -62 206.5 -225.5t122.5 -199t51 -43.5l95 -25v-136h-323q-77 0 -127.5 98t-78.5 166.5t-79.5 166.5t-128.5 98h-113v-375l160 -20v-134h-616v134l132 19v853l-229 -23l-58 -305
h-182l10 460h914z" />
    <glyph glyph-name="uni04A2" unicode="&#x4a2;" horiz-adv-x="1720" 
d="M85 1522h652v-141l-167 -28v-492h575v491l-155 29v141h645v-141l-152 -28v-1193h214q0 -110 -27 -335t-29 -231h-185q0 135 -26 265t-31 141h-407v134l153 26v532h-575v-532l167 -26v-134h-656v134l152 25v1194l-148 28v141z" />
    <glyph glyph-name="uni04A3" unicode="&#x4a3;" horiz-adv-x="1548" 
d="M88 1138h599v-131l-137 -25v-318h448v318l-138 25v131h597v-131l-132 -26v-821h188q0 -114 -28.5 -336.5t-30.5 -229.5h-172q-2 16 -5.5 49t-20 169.5t-40.5 187.5h-358v134l140 20v363h-448v-363l140 -20v-134h-600v134l133 20v827l-135 26v131z" />
    <glyph glyph-name="uni04A4" unicode="&#x4a4;" horiz-adv-x="2058" 
d="M81 1522h656v-141l-166 -28v-492h576v491l-155 29v141h988l30 -577h-197l-80 410l-249 19v-1214l168 -26v-134h-659v134l154 26v532h-576v-532l166 -26v-134h-660v134l156 25v1194l-152 28v141z" />
    <glyph glyph-name="uni04A5" unicode="&#x4a5;" horiz-adv-x="1807" 
d="M88 1138h599v-131l-137 -26v-317h448v319l-138 24v131h908l13 -473h-191l-67 324l-198 10v-845l133 -20v-134h-600v134l140 20v363h-448v-363l140 -20v-134h-600v134l133 20v827l-135 26v131z" />
    <glyph glyph-name="uni04A6" unicode="&#x4a6;" horiz-adv-x="2307" 
d="M1596 0h-657v134l148 26v1208h-518v-1208l166 -26v-134h-658v134l156 26v1193l-160 28v141h1511v-140l-161 -29v-548q98 47 191.5 61.5t129.5 14.5q257 0 377.5 -127t120.5 -408q0 -350 -142.5 -557t-389.5 -207q-96 0 -176 29l-13 151q48 -15 139 -15q130 0 188 140
t58 385t-55 340t-183 95t-245 -56v-491l173 -26v-134z" />
    <glyph glyph-name="uni04A7" unicode="&#x4a7;" horiz-adv-x="2049" 
d="M1278 585q93 62 284 62q78 0 171 -24t184.5 -102t91.5 -310q0 -351 -136.5 -539.5t-386.5 -188.5q-96 0 -176 29l-12 149q37 -14 120 -14q82 0 128.5 30t89.5 123.5t43 372.5q0 305 -225 305q-115 0 -176 -47v-272l133 -25v-134h-597v134l138 25v841h-403v-841l132 -25
v-134h-591v134l132 25v823l-136 25v131h1329v-131l-137 -26v-396z" />
    <glyph glyph-name="uni04A8" unicode="&#x4a8;" horiz-adv-x="1596" 
d="M1150 803q-112 0 -136.5 -146t-24.5 -203q0 -168 54 -319q171 72 208.5 204.5t37.5 234.5q0 229 -139 229zM711 367q0 254 124.5 421.5t335.5 167.5q283 0 345.5 -139t62.5 -237q0 -196 -131.5 -350.5t-350.5 -216.5q116 -207 301 -207q30 0 63 6v-131q-78 -14 -150 -14
q-159 0 -293 84.5t-212 226.5q-362 8 -557 225.5t-195 568.5t217 560t568 209q207 0 340 -30t162 -34l-23 -372h-229l-59 237q-41 41 -97.5 51t-126.5 10t-218.5 -77.5t-148.5 -534.5q0 -362 112 -491.5t191 -163.5q-31 107 -31 231z" />
    <glyph glyph-name="uni04A9" unicode="&#x4a9;" horiz-adv-x="1448" 
d="M873 506q0 -123 26 -205.5t110 -129.5q93 52 100.5 170.5t7.5 186.5q0 120 -32 189t-86 69q-126 0 -126 -280zM718 -23q-156 0 -277.5 45.5t-203 125.5t-123 189.5t-41.5 307.5t166 360.5t450 162.5q156 0 230 -52l-52 -115q-46 25 -137 25q-165 0 -249.5 -115
t-84.5 -311q0 -195 86.5 -336.5t221.5 -141.5h72q-174 139 -174 373q0 193 112 301.5t289 108.5t285.5 -106.5t108.5 -281.5q0 -247 -185 -396h45q129 0 184 5l-11 -135q-60 -12 -190 -12t-247 33q-119 -35 -275 -35z" />
    <glyph glyph-name="uni04AA" unicode="&#x4aa;" horiz-adv-x="1351" 
d="M579 -314h1q74 0 96 18q40 32 40 111q0 80 -49 170q-269 32 -425 199q-188 201 -187 566q0 365 213 576q213 212 545 212q148 0 293 -25q146 -25 177 -28l-24 -446h-214l-70 302q-39 52 -194 52t-249 -157q-93 -157 -93 -456q-1 -454 201 -606q68 -52 184 -51
q115 0 170 66l96 221l194 -18l-38 -336q-48 -5 -132 -30q-152 -46 -288 -49q121 -136 113 -273q-8 -179 -175 -213q-54 -11 -123 -11h-1q-81 0 -144 29l1 190q39 -13 82 -13z" />
    <glyph glyph-name="uni04AB" unicode="&#x4ab;" horiz-adv-x="1062" 
d="M422 -314h1q75 0 97 18q40 32 39 111q0 79 -47 167q-198 24 -317 167t-120 412t159 438t427 169q139 0 285 -48q32 -10 58 -14l-14 -355h-201l-52 214q-21 57 -108 57q-208 0 -208 -396q-2 -222 70 -336t191 -114q150 0 274 81l55 -121q-83 -94 -270 -142q-36 -9 -74 -14
q123 -138 115 -276q-8 -179 -175 -213q-54 -11 -123 -11h-1q-81 0 -144 29l1 190q39 -13 82 -13z" />
    <glyph glyph-name="uni04AC" unicode="&#x4ac;" horiz-adv-x="1517" 
d="M1271 160q0 -110 -27 -335t-29 -231h-184q-12 189 -32.5 292t-25.5 114h-634v134l257 26v1211l-258 -10l-83 -444h-190l30 605h1327l29 -605h-183l-88 444l-242 10v-1210l8 -1h325z" />
    <glyph glyph-name="uni04AD" unicode="&#x4ad;" horiz-adv-x="1320" 
d="M829 160h320q0 -118 -26.5 -339t-28.5 -227h-185q0 134 -26.5 264.5t-31.5 140.5l-1 1h-599v134l251 26v846l-199 -23l-61 -320h-197l18 474h1193l19 -474h-195l-65 320l-186 23v-846z" />
    <glyph glyph-name="uni04AE" unicode="&#x4ae;" horiz-adv-x="1322" 
d="M-46 1522h638v-141l-135 -29l239 -481l46 -129l51 127l219 484l-153 28v141h517v-141l-127 -26l-394 -746v-449l217 -26v-134h-783v134l209 25v450l-424 743l-120 29v141z" />
    <glyph glyph-name="uni04AF" unicode="&#x4af;" horiz-adv-x="1310" 
d="M-7 1138h636v-131l-163 -25l237 -630l27 -88l26 89l241 628l-163 26v131h489v-131l-123 -25l-358 -868v-453l188 -28v-129h-687v129l171 28v431l-408 890l-113 25v131z" />
    <glyph glyph-name="uni04B0" unicode="&#x4b0;" horiz-adv-x="1322" 
d="M498 486h-411v149h396l-409 717l-120 29v141h638v-141l-135 -29l239 -481l46 -129l51 127l219 484l-153 28v141h517v-141l-127 -26l-381 -720h393v-149h-406v-326l217 -26v-134h-783v134l209 25v327z" />
    <glyph glyph-name="uni04B1" unicode="&#x4b1;" horiz-adv-x="1310" 
d="M179 141h313l-386 841l-113 25v131h636v-131l-163 -25l237 -630l27 -88l26 89l241 628l-163 26v131h489v-131l-123 -25l-347 -841h330v-141h-341v-339l188 -28v-129h-687v129l171 28v339h-335v141z" />
    <glyph glyph-name="uni04B2" unicode="&#x4b2;" horiz-adv-x="1503" 
d="M26 1522h691v-141l-155 -30l258 -432l269 434l-167 28v141h536v-141l-162 -28l-392 -539l440 -654h187q0 -110 -27 -335t-29 -231h-184q0 68 -24 226.5t-33 179.5h-440v134l154 26l-287 469l-268 -470l184 -25v-134h-567v134l170 25l393 580l-409 613l-138 29v141z" />
    <glyph glyph-name="uni04B3" unicode="&#x4b3;" horiz-adv-x="1243" 
d="M644 0v132l111 21l-143 219l-61 89l-46 -88l-148 -219l148 -22v-132h-501v132l128 21l320 405l-330 424l-105 25v131h624v-131l-126 -25l144 -202l52 -87l50 86l147 203l-132 25v131h457v-131l-118 -25l-310 -383l343 -444h167q0 -65 -26.5 -305.5t-32.5 -255.5h-173
q-42 356 -65 406h-374z" />
    <glyph glyph-name="uni04B4" unicode="&#x4b4;" horiz-adv-x="2197" 
d="M857 148h738v1205l-149 28v141h637v-141l-154 -28v-1193h244q0 -110 -27 -335t-29 -231h-185q0 132 -29 263.5t-34 142.5h-1550v134l203 25v1210l-223 -17l-69 -406h-175l23 576h1205l31 -575h-175l-75 405l-207 17v-1221z" />
    <glyph glyph-name="uni04B5" unicode="&#x4b5;" horiz-adv-x="2027" 
d="M807 146h655v835l-138 26v131h614v-131l-147 -25v-824h254q-6 -156 -30.5 -356.5t-26.5 -207.5h-185q0 80 -22.5 231t-32.5 174v1h-1475v134l198 25v848l-182 -22l-63 -329h-181l15 482h1142l14 -482h-184l-63 329l-162 22v-861z" />
    <glyph glyph-name="uni04B6" unicode="&#x4b6;" horiz-adv-x="1528" 
d="M937 648q-128 -92 -370 -92q-200 0 -313 101.5t-113 360.5v332l-117 30v142h594v-142l-141 -30v-254q0 -231 35.5 -282.5t79 -62t111.5 -10.5q152 0 234 69v544l-159 27v141h658v-141l-163 -28v-1193h222q0 -82 -24.5 -305t-30.5 -261h-185q-12 189 -32.5 292t-25.5 114
h-469v134l209 27v487z" />
    <glyph glyph-name="uni04B7" unicode="&#x4b7;" horiz-adv-x="1374" 
d="M830 448q-139 -65 -338 -65t-290 95.5t-91 337.5v166l-105 25v131h541v-131l-104 -25v-114q0 -205 28.5 -253t65 -60.5t95.5 -12.5q143 0 198 41v399l-126 25v131h579v-131l-132 -25v-825h188q0 -107 -27 -332t-29 -231h-184q-13 201 -32.5 298t-24.5 107v1h-388v134
l176 26v288z" />
    <glyph glyph-name="uni04B8" unicode="&#x4b8;" horiz-adv-x="1563" 
d="M804 345h-145v212q-11 -1 -14 -1h-84q-65 0 -154 22t-177.5 102t-88.5 344v331l-113 29v138h605v-138l-156 -30v-258q0 -171 12 -239t49 -92t121 -24v304h145v-297q133 17 190 58v548l-171 32v136h671v-141l-164 -28v-1193l164 -28v-132h-719v138l219 29v477
q-72 -45 -190 -70v-229z" />
    <glyph glyph-name="uni04B9" unicode="&#x4b9;" horiz-adv-x="1503" 
d="M776 200h-149v183h-33q-237 0 -360 97.5t-123 335.5v167l-105 24v131h566v-131l-126 -26v-122q0 -182 39.5 -246t141.5 -70v277h149v-275q131 7 183 28v409l-134 25v131h587v-131l-133 -26v-827l134 -20v-134h-601v134l147 20v284q-83 -33 -183 -45v-193z" />
    <glyph glyph-name="uni04BA" unicode="&#x4ba;" horiz-adv-x="1507" 
d="M569 881q130 85 396 85q196 0 300 -100t104 -362v-345l113 -22v-137h-594v137l144 23v266q0 234 -37 285.5t-78 60.5t-89 9q-79 0 -153.5 -17.5t-105.5 -43.5v-561l159 -25v-134h-657v134l162 25v1198l-162 32v133h707v-133l-209 -32v-476z" />
    <glyph glyph-name="uni04BB" unicode="&#x4bb;" horiz-adv-x="1389" 
d="M500 1010q172 152 408 152q175 0 244 -106q70 -106 70 -346v-556l130 -20v-134h-564v133l110 20v556q0 146 -24 189t-54 58q-31 15 -81 15q-121 0 -217 -80v-737l119 -20v-134h-557v134l108 19v1329l-146 26v123l403 49h6l59 -44l2 -441z" />
    <glyph glyph-name="uni04BC" unicode="&#x4bc;" horiz-adv-x="1637" 
d="M1248 894v52t-6 83t-45 198.5t-243 147.5q-309 0 -320 -520l612 -1q2 20 2 40zM-12 1060q34 60 59 76l190 -30q-22 -26 -37 -80t-15 -68q0 -47 20 -74t106 -29q33 314 229 498.5t452 184.5q257 0 419.5 -152t164.5 -445q2 -155 -17 -246l-922 1q10 -265 110.5 -422.5
t255.5 -157.5t199.5 56.5t60.5 83.5l40 137l215 -9l-4 -328q-43 -2 -94 -14.5t-357 -81t-526 164.5t-232 575q-237 3 -294 85.5t-57 148.5t34 126z" />
    <glyph glyph-name="uni04BD" unicode="&#x4bd;" horiz-adv-x="1339" 
d="M957 743q0 196 -50.5 243t-94.5 47q-90 0 -137 -76t-53 -278h333l1 13zM915 180q158 0 296 84l54 -123q-96 -100 -230.5 -132t-240.5 -32t-303.5 82.5t-204.5 489.5q-202 13 -245 90t-43 115q0 62 18.5 122t34.5 72l182 -30q-20 -23 -29.5 -69t-9.5 -60q0 -39 18 -67
t82 -35q30 227 175.5 353.5t362.5 126.5q218 0 326 -100.5t118 -304.5q4 -144 -11 -220h-643q14 -281 121.5 -321.5t171.5 -40.5z" />
    <glyph glyph-name="uni04BE" unicode="&#x4be;" horiz-adv-x="1637" 
d="M1248 894v52t-6 83t-45 198.5t-243 147.5q-309 0 -320 -520l612 -1q2 20 2 40zM839 -314h1q74 0 105 25t31 105t-45 162q-277 12 -445.5 201.5t-180.5 520.5q-237 3 -294 85.5t-57 132.5q0 82 34 142t59 76l190 -30q-22 -26 -37 -80t-15 -68q0 -47 20 -74t106 -29
q33 314 229 498.5t452 184.5q257 0 418.5 -151t167.5 -445q0 -157 -19 -247l-922 1q10 -265 110.5 -422.5t255.5 -157.5t199.5 56.5t60.5 83.5l40 137l215 -9l-4 -328q-39 -2 -175 -33.5t-256 -40.5q79 -88 107 -193t-22 -207t-267 -102h-1q-81 0 -144 29l1 190
q39 -13 82 -13z" />
    <glyph glyph-name="uni04BF" unicode="&#x4bf;" horiz-adv-x="1339" 
d="M957 743q0 196 -50.5 243t-94.5 47q-90 0 -137 -76t-53 -278h333l1 13zM683 -314h1q74 0 105 25t31 103t-45 165q-244 15 -364.5 168t-124.5 402q-202 13 -245 90t-43 115q0 62 18.5 122t34.5 72l182 -30q-20 -23 -29.5 -69t-9.5 -60q0 -39 18 -67t82 -35
q30 227 175.5 353.5t362.5 126.5q218 0 326 -100.5t118 -304.5q4 -144 -11 -220h-643q14 -281 121.5 -321.5t171.5 -40.5q158 0 296 84l54 -123q-81 -81 -182.5 -114t-158.5 -42q125 -139 119 -281q-8 -179 -118.5 -201.5t-179.5 -22.5h-1q-81 0 -144 29l1 190
q39 -13 82 -13z" />
    <glyph glyph-name="uni04C0" unicode="&#x4c0;" horiz-adv-x="850" 
d="M89 1522h674v-141l-168 -28v-1193l170 -28v-132h-674v134l165 26v1192l-167 29v141z" />
    <glyph glyph-name="uni04C1" unicode="&#x4c1;" horiz-adv-x="2174" 
d="M1514 1954q0 -153 -112 -233t-315 -80q-303 -1 -395 177q-30 58 -30 136v12l2 48h227q36 0 36 -106q0 -144 161 -144t161 144q0 106 36 106h227l2 -48v-12zM40 1522h551v-141l-138 -28l332 -528h140v528l-162 28v141h649v-141l-162 -28v-528h141l330 527l-136 29v141h555
v-141l-172 -28l-384 -539q154 -50 312 -345q40 -76 74 -142t64 -112t56 -55l83 -26v-134h-357q-76 0 -176 221q-28 63 -58 129q-78 172 -124 240q-72 109 -140 109h-68v-539l175 -28v-132h-671v134l171 27v538h-67q-98 0 -204 -221q-30 -62 -60 -128q-82 -183 -116 -241
q-65 -109 -119 -109h-357v134l84 26q26 9 56 55t64 112q114 219 162 289q111 162 223 198l-384 539l-167 28v141z" />
    <glyph glyph-name="uni04C2" unicode="&#x4c2;" horiz-adv-x="2011" 
d="M1415 1654q0 -58 -28 -126t-82 -116q-113 -102 -311 -102t-313 102t-115 265q0 35 2 51h216q36 0 36 -97q0 -127 94 -174q32 -16 78 -16q84 0 126 54t42 144q0 89 36 89h217q2 -16 2 -74zM41 1138h545v-131l-140 -24l199 -320h202v319l-125 25v131h580l1 -131l-136 -26
v-318h202l198 320l-139 24v131h546v-131l-162 -25l-258 -347q120 -59 233 -263q71 -128 99 -166q29 -38 53 -46l92 -23v-137h-334q-84 0 -162 168q-21 48 -43 96q-58 132 -91 182q-55 82 -118 83l-116 1v-370l167 -26v-134h-632v134l145 25v371h-117q-84 0 -164 -168
q-22 -48 -44 -98q-58 -132 -90 -182q-54 -82 -115 -82h-334v137l92 23q37 12 97 116q26 44 56 96q117 206 232 263l-259 347l-160 25v131z" />
    <glyph glyph-name="uni04C3" unicode="&#x4c3;" horiz-adv-x="1508" 
d="M743 0h-663v134l153 27v1192l-153 28v141h635v-141l-148 -29v-552l2 2q65 34 179 59l305 491l-154 29v141h564v-141l-166 -28l-335 -474q224 -16 329 -141.5t105 -383.5q0 -363 -141.5 -566.5t-393.5 -203.5q-106 0 -183 28l-10 158q52 -13 124 -13q143 0 205.5 122.5
t62.5 380.5t-56 352.5t-189 94.5t-246 -59l-2 1v-489l176 -28v-132z" />
    <glyph glyph-name="uni04C4" unicode="&#x4c4;" horiz-adv-x="1377" 
d="M936 641q378 -47 378 -419q0 -361 -143 -549.5t-392 -188.5q-97 0 -167 28l-9 149q39 -13 118 -13t172.5 58t93.5 471q0 306 -259 306q-116 0 -181 -49v-280l160 -20v-134h-616v134l132 19v829l-130 25v131h594l1 -131l-141 -25v-397q59 41 191 59l205 336l-148 27v131
h555v-131l-161 -25z" />
    <glyph glyph-name="uni04C5" unicode="&#x4c5;" horiz-adv-x="1575" 
d="M216 193q48 0 79 19t52 64t36.5 86.5t52.5 193.5t37 689v107l-250 29v141h1295v-141l-187 -29v-1197h213v-155q-27 -52 -103.5 -220t-94.5 -190h-186q29 71 71 227.5t50 182.5h-498v134l217 26l-1 1192h-361v-151q0 -559 -71.5 -833.5t-157 -328t-172.5 -53.5t-157 13
l-23 201q111 -7 159 -7z" />
    <glyph glyph-name="uni04C6" unicode="&#x4c6;" horiz-adv-x="1351" 
d="M8 204q46 -10 128 -10t134 230.5t52 557.5l-187 25v131h1126v-134l-178 -29v-819h254v-156q-10 -19 -26.5 -53.5t-36.5 -75.5t-68 -143t-70 -133h-171q30 69 69.5 211t54.5 194h-483v134l150 19v833h-279v-104q0 -247 -36 -451.5t-87 -302.5q-30 -68 -97 -118t-231 -11z
" />
    <glyph glyph-name="uni04C7" unicode="&#x4c7;" horiz-adv-x="1690" 
d="M85 1522h653v-140l-167 -29v-493h574v493l-156 29v140h650v-141l-156 -28v-804q0 -334 -11.5 -421t-27.5 -141t-109 -186.5t-408 -193.5l-76 118q192 64 257 236q30 101 33.5 222t3.5 211v298h-574v-531l167 -26v-135h-657v134l152 25v1194l-148 28v141z" />
    <glyph glyph-name="uni04C8" unicode="&#x4c8;" horiz-adv-x="1537" 
d="M710 -232h60q79 0 125.5 22t71 78.5t31.5 152t7 242.5v254h-462v-368l150 -21v-128h-603v134l133 20v827l-135 26v131h597v-131l-142 -26v-317h462v318l-142 25v131h594v-131l-132 -25v-777q0 -297 -130.5 -453t-342.5 -156q-100 0 -161 15v159q13 -2 19 -2z" />
    <glyph glyph-name="uni04C9" unicode="&#x4c9;" horiz-adv-x="1711" 
d="M81 1522h657v-141l-166 -28v-492h573v491l-155 29v141h646v-141l-152 -28v-1197h188v-156q-10 -19 -26.5 -53.5t-88 -181t-90.5 -170.5h-186q38 86 80.5 237t47.5 168h-418v134l154 26v532h-573v-532l166 -26v-134h-661v134l156 25v1194l-152 28v141z" />
    <glyph glyph-name="uni04CA" unicode="&#x4ca;" horiz-adv-x="1549" 
d="M88 1138h599v-131l-137 -26v-317h448v318l-137 25v131h598v-131l-133 -26v-836h158v-145q-10 -19 -25.5 -53.5t-34 -75.5t-65 -147.5t-64.5 -128.5h-186q20 47 44.5 142.5t41.5 159.5t26 103h-362v134l139 19v364h-448v-363l140 -20v-134h-600v134l133 20v827l-135 26
v131z" />
    <glyph glyph-name="uni04CB" unicode="&#x4cb;" horiz-adv-x="1507" 
d="M937 648q-128 -92 -370 -92q-200 0 -313 101.5t-113 360.5v332l-117 30v142h594v-142l-141 -30v-254q0 -231 35.5 -282.5t79 -62t111.5 -10.5q152 0 234 69v544l-159 27v141h658v-141l-163 -28v-1193l163 -28v-132h-438q-21 -43 -57.5 -186.5t-44.5 -175t-10 -44.5h-190
q0 264 28 572h213v482z" />
    <glyph glyph-name="uni04CC" unicode="&#x4cc;" horiz-adv-x="1378" 
d="M620 542q159 0 214 41v399l-127 25v131h580v-131l-132 -25v-823l133 -25v-134h-406q-35 -70 -108 -410h-192q0 303 24 567h228v291q-143 -65 -345 -65t-290 94.5t-88 338.5v166l-102 25v131h550v-131l-112 -25v-114q0 -205 35.5 -265.5t137.5 -60.5z" />
    <glyph glyph-name="uni04CD" unicode="&#x4cd;" horiz-adv-x="2112" 
d="M125 1522h656l251 -945l36 -201l33 201l227 945h666v-141l-217 -29l177 -1207h186v-145q-27 -52 -98 -219.5t-89 -190.5h-186q14 28 54.5 193.5t54.5 216.5h-441v134l164 25l-132 1241l-59 -277l-283 -1139h-240l-313 1065l-87 357l-25 -365l-81 -882l201 -25v-134h-588
v134l174 26l157 1193l-198 28v141z" />
    <glyph glyph-name="uni04CE" unicode="&#x4ce;" horiz-adv-x="1948" 
d="M96 1147h632l205 -683l39 -155l31 155l181 683h635v-130l-195 -28l153 -827h158v-161q-26 -49 -103.5 -217.5t-93.5 -188.5h-187q37 89 75.5 237t44.5 168h-387v136l150 20l-82 584l-36 282l-73 -279l-212 -749h-259l-257 754l-88 269l-13 -268l-76 -592l184 -21v-136
h-537v136l156 20l133 833l-178 28v130z" />
    <glyph glyph-name="uni04CF" unicode="&#x4cf;" horiz-adv-x="850" 
d="M89 1522h674v-141l-168 -28v-1193l170 -28v-132h-674v134l165 26v1192l-167 29v141z" />
    <glyph glyph-name="uni04D0" unicode="&#x4d0;" horiz-adv-x="1443" 
d="M868 561l-181 619l-31 141l-31 -141l-172 -619h415zM1474 0h-633v134l144 26l-72 247h-503l-70 -251l159 -22v-134h-539l-2 134l120 26l462 1369h353l465 -1370l116 -25v-134zM1128 1954q0 -153 -112 -233t-315 -80q-303 -1 -395 177q-30 58 -30 136v12l2 48h227
q36 0 36 -106q0 -144 161 -144t161 144q0 106 36 106h227l2 -48v-12z" />
    <glyph glyph-name="uni04D1" unicode="&#x4d1;" horiz-adv-x="1166" 
d="M448 214q44 -48 108 -49q96 0 165 65v336q-167 0 -242 -60q-74 -60 -74 -152q-1 -92 43 -140zM901 -25q-72 1 -98 5t-48 22t-22 88v31q-81 -94 -214 -130q-51 -14 -117 -14q-143 0 -243 90q-101 90 -101 252q0 187 175 283q175 95 488 99v42q0 112 -41 159
q-41 48 -183 48t-329 -81h-1l-65 135q57 48 152 86q190 74 328 74t219 -23t129 -73q90 -93 91 -320v-613h109v-127q-157 -33 -229 -33zM965 1654q0 -58 -28 -126t-82 -116q-113 -102 -311 -102t-313 102t-115 265q0 35 2 51h216q36 0 36 -97q0 -127 94 -174q32 -16 78 -16
q84 0 126 54t42 144q0 89 36 89h217q2 -16 2 -74z" />
    <glyph glyph-name="uni04D2" unicode="&#x4d2;" horiz-adv-x="1443" 
d="M868 561l-181 619l-31 141l-31 -141l-172 -619h415zM1474 0h-633v134l144 26l-72 247h-503l-70 -251l159 -22v-134h-539l-2 134l120 26l462 1369h353l465 -1370l116 -25v-134zM436 1653q-65 0 -107 46q-41 46 -41 98q0 94 45 147t132 53h1q79 0 121 -45q41 -45 41 -99
q0 -200 -191 -200h-1zM963 1653q-64 0 -105 48q-42 48 -42 98q0 94 45 146t131 52h1q79 0 121 -45t42 -99q0 -97 -49 -148q-49 -52 -143 -52h-1z" />
    <glyph glyph-name="uni04D3" unicode="&#x4d3;" horiz-adv-x="1166" 
d="M448 214q44 -48 108 -49q96 0 165 65v336q-167 0 -242 -60q-74 -60 -74 -152q-1 -92 43 -140zM901 -25q-72 1 -98 5t-48 22t-22 88v31q-81 -94 -214 -130q-51 -14 -117 -14q-143 0 -243 90q-101 90 -101 252q0 187 175 283q175 95 488 99v42q0 112 -41 159
q-41 48 -183 48t-329 -81h-1l-65 135q57 48 152 86q190 74 328 74t219 -23t129 -73q90 -93 91 -320v-613h109v-127q-157 -33 -229 -33zM481 1541q0 -205 -191 -205h-1q-65 0 -107 47t-42 101q0 97 45 150q45 54 132 54h1q78 0 121 -46q42 -46 42 -101zM792 1336
q-64 0 -106 49t-42 100q0 96 45 149q45 54 132 54h1q120 0 152 -100q10 -30 10 -66q0 -82 -48 -134t-143 -52h-1z" />
    <glyph glyph-name="uni04D4" unicode="&#x4d4;" horiz-adv-x="1962" 
d="M850 578v795h-112l-298 -795h410zM263 1522h1535l28 -354h-162l-70 200l-407 19v-533l255 7l35 163h147v-505h-146l-35 172l-256 6v-552l456 27l133 258l185 -53l-70 -377h-1198v132l157 25v262h-469l-97 -261l149 -26v-132h-561v132l144 28l500 1193l-253 28v141z" />
    <glyph glyph-name="uni04D5" unicode="&#x4d5;" horiz-adv-x="1765" 
d="M720 568v3q-165 0 -238 -63q-74 -63 -74 -154q0 -189 148 -189q92 0 174 76q22 21 36 43q-46 124 -46 284zM1393 763q0 263 -158 263q-88 0 -136 -74t-52 -273h344q2 32 2 84zM1261 -23q-306 0 -444 206q-91 -138 -281 -189q-63 -17 -132 -17q-148 0 -247 86t-99 246
q0 192 177 290t485 102v43q0 110 -43 156t-185 46q-143 0 -334 -81l-66 139q53 48 154 86q198 74 353 74q245 0 323 -111q140 114 352 114q479 0 437 -534q-4 -51 -12 -91h-649q17 -274 183 -341q53 -21 105 -21q86 0 169 25q84 25 138 59l54 -123q-92 -99 -299 -148
q-68 -16 -139 -16z" />
    <glyph glyph-name="uni04D6" unicode="&#x4d6;" 
d="M1109 1954q0 -153 -112 -233t-315 -80q-302 -1 -394 177q-30 58 -31 136v12l2 48h227q36 0 36 -106q0 -144 161 -144t161 144q0 106 36 106h227l2 -48v-12zM74 1522h1107l28 -353h-163l-70 198l-404 20v-532l254 6l37 165h146v-509h-146l-35 176l-256 6v-554l450 27
l125 258l171 -49l-52 -381h-1189v134l156 25v1193l-159 29v141z" />
    <glyph glyph-name="uni04D7" unicode="&#x4d7;" horiz-adv-x="1127" 
d="M591 1026q-88 0 -136 -74t-52 -273h345l1 84q0 263 -158 263zM694 180q161 0 300 85l58 -124q-92 -99 -299 -148q-67 -16 -175 -16q-108 -1 -211 43q-298 126 -298 548q0 279 153 439t404 160q212 0 324 -108t117 -306q0 -136 -15 -211h-646q17 -274 184 -341
q52 -21 104 -21zM1012 1654q0 -58 -28 -126t-82 -116q-113 -102 -311 -102t-313 102t-115 265q0 35 2 51h216q36 0 36 -97q1 -127 95 -174q32 -16 77 -16q84 0 126 54t42 144q0 89 36 89h217q2 -16 2 -74z" />
    <glyph glyph-name="uni04D8" unicode="&#x4d8;" horiz-adv-x="1384" 
d="M398 546q0 -155 70 -280.5t219 -125.5q295 0 303 520l-588 1q-4 -56 -4 -115zM663 1538q312 0 492.5 -199t180.5 -571t-203 -581.5t-497 -209.5q-247 0 -410.5 151.5t-163.5 454.5q0 164 18 240l906 -2q-10 267 -107.5 422.5t-254.5 155.5q-97 0 -156.5 -30.5
t-85.5 -72.5l-48 -174l-215 9l3 328q43 2 94.5 14.5t170 38.5t276.5 26z" />
    <glyph glyph-name="afii10846" unicode="&#x4d9;" horiz-adv-x="1120" 
d="M386 385q0 -128 24 -177.5t53.5 -70t71.5 -20.5q88 0 132 73t50 274h-330v-4l-1 -20v-55zM266 938q-85 -26 -133 -57l-54 122q92 99 227.5 131.5t241.5 32.5t304 -84.5t198 -508.5q0 -278 -149.5 -437.5t-400.5 -159.5q-212 0 -321.5 108t-115.5 305q-2 115 16 211h638
q-14 283 -121 323t-176 40t-154 -26z" />
    <glyph glyph-name="uni04DA" unicode="&#x4da;" horiz-adv-x="1384" 
d="M416 1653q-65 0 -107 46q-41 46 -41 98q0 94 45 147t132 53h1q79 0 121 -45q41 -45 41 -99q0 -200 -191 -200h-1zM943 1653q-64 0 -105 48q-42 48 -42 98q0 94 45 146t131 52h1q79 0 121 -45t42 -99q0 -97 -49 -148q-49 -52 -143 -52h-1zM398 546q0 -155 62 -266
q78 -140 227 -140q295 0 303 520l-588 1q-4 -56 -4 -115zM663 1538q312 0 493 -199q180 -199 180 -571t-203 -582q-203 -209 -497 -209q-247 0 -410 152q-164 152 -164 454q0 164 18 240l906 -2q-10 267 -108 422q-98 156 -254 156q-96 -1 -156 -31t-86 -72l-48 -174l-215 9
l3 328q42 3 94 15t170 38q119 26 277 26z" />
    <glyph glyph-name="uni04DB" unicode="&#x4db;" horiz-adv-x="1123" 
d="M455 1541q0 -205 -191 -205h-1q-65 0 -107 47t-42 101q0 97 45 150q45 54 132 54h1q78 0 121 -46q42 -46 42 -101zM766 1336q-64 0 -106 49t-42 100q0 96 45 149q45 54 132 54h1q120 0 152 -100q10 -30 10 -66q0 -82 -48 -134t-143 -52h-1zM389 385q0 -128 24 -178
q23 -49 53 -69t72 -21q88 0 132 73t50 274h-330v-18l-1 -44v-17zM269 938q-85 -26 -133 -57l-54 122q92 99 295 148q67 16 173 16q106 1 209 -43q294 -125 294 -550q0 -278 -149 -437q-149 -160 -401 -160q-211 0 -321 108t-116 305q-2 115 16 211h638q-14 283 -176 343
q-52 20 -121 20t-154 -26z" />
    <glyph glyph-name="uni04DC" unicode="&#x4dc;" horiz-adv-x="2174" 
d="M801 1653q-65 0 -107 46q-41 46 -41 98q0 94 45 147t132 53h1q79 0 121 -45q41 -45 41 -99q0 -200 -191 -200h-1zM1328 1653q-64 0 -105 48q-42 48 -42 98q0 94 45 146t131 52h1q79 0 121 -45t42 -99q0 -97 -49 -148q-49 -52 -143 -52h-1zM40 1522h551v-141l-138 -28
l332 -528h140v528l-162 28v141h649v-141l-162 -28v-528h141l330 527l-136 29v141h555v-141l-172 -28l-384 -539q154 -50 312 -345q40 -76 74 -142t64 -112t56 -55l83 -26v-134h-357q-76 0 -176 221q-28 63 -58 129q-78 172 -124 240q-72 109 -140 109h-68v-539l175 -28v-132
h-671v134l171 27v538h-67q-98 0 -204 -221q-30 -62 -60 -128q-82 -183 -116 -241q-65 -109 -119 -109h-357v134l84 26q26 9 56 55t64 112q114 219 162 289q111 162 223 198l-384 539l-167 28v141z" />
    <glyph glyph-name="uni04DD" unicode="&#x4dd;" horiz-adv-x="2005" 
d="M927 1541q0 -205 -191 -205h-1q-65 0 -107 47t-42 101q0 97 45 150q45 54 132 54h1q78 0 121 -46q42 -46 42 -101zM1238 1336q-64 0 -106 49t-42 100q0 96 45 149q45 54 132 54h1q120 0 152 -100q10 -30 10 -66q0 -82 -48 -134t-143 -52h-1zM41 1138h545v-131l-140 -24
l199 -320h202v319l-125 25v131h580l1 -131l-136 -26v-318h202l198 320l-139 24v131h546v-131l-162 -25l-258 -347q120 -59 233 -263q71 -128 99 -166q29 -38 53 -46l92 -23v-137h-334q-84 0 -162 168q-21 48 -43 96q-58 132 -91 182q-55 82 -118 83l-116 1v-370l167 -26
v-134h-632v134l145 25v371h-117q-84 0 -164 -168q-22 -48 -44 -98q-58 -132 -90 -182q-54 -82 -115 -82h-334v137l92 23q37 12 97 116q26 44 56 96q117 206 232 263l-259 347l-160 25v131z" />
    <glyph glyph-name="uni04DE" unicode="&#x4de;" horiz-adv-x="1263" 
d="M811 427q0 289 -260 289h-135v153h114q186 0 252 161q24 57 23 129q0 129 -65 186t-161 57q-167 0 -199 -72l-48 -191h-187l-29 336q32 2 88 12q56 11 173 31t231 20t221 -21t181 -65t113 -108q39 -66 39 -154q0 -164 -105 -260t-254 -125q194 -6 295 -104
q102 -98 102 -245q0 -224 -140 -338q-159 -130 -511 -130q-189 0 -387 64q-44 14 -79 21l50 386h158l73 -280q76 -55 204 -55q180 0 228 187q14 57 15 116zM314 1653q-65 0 -107 46q-41 46 -41 98q0 94 45 147t132 53h1q79 0 121 -45q41 -45 41 -99q0 -200 -191 -200h-1z
M841 1653q-64 0 -105 48q-42 48 -42 98q0 94 45 146t131 52h1q79 0 121 -45t42 -99q0 -97 -49 -148q-49 -52 -143 -52h-1z" />
    <glyph glyph-name="uni04DF" unicode="&#x4df;" horiz-adv-x="1116" 
d="M454 1541q0 -205 -191 -205h-1q-65 0 -107 47t-42 101q0 97 45 150q45 54 132 54h1q78 0 121 -46q42 -46 42 -101zM765 1336q-64 0 -106 49t-42 100q0 96 45 149q45 54 132 54h1q121 0 153 -100q10 -30 9 -66q0 -82 -48 -134t-143 -52h-1zM549 1161q472 0 472 -271
q0 -130 -136 -224q-44 -30 -100 -52q223 -24 283 -170q18 -46 19 -113q1 -68 -31 -135q-100 -212 -504 -212q-226 0 -410 56q-42 13 -67 20l23 269h193l40 -155q38 -57 189 -57t189 129q11 37 11 75q0 200 -190 200q-39 0 -119 -20l3 166l77 8q89 14 139 64q50 49 50 131
t-38 120t-140 39q-100 1 -152 -55q-14 -16 -21 -31l-29 -145h-206v308q64 0 198 28t257 27z" />
    <glyph glyph-name="uni04E0" unicode="&#x4e0;" horiz-adv-x="1242" 
d="M837 892q80 0 233 -55t153 -336q0 -364 -246.5 -441.5t-380.5 -77.5q-311 0 -535 93l47 373h186l71 -272q15 -30 76 -42t119 -12q125 0 208 91.5t83 236.5t-58 223.5t-232 83.5q-55 0 -86 -4l-44 95l393 496l-463 -9l-51 -223h-200l-22 410h1073v-136l-460 -502
q56 8 136 8z" />
    <glyph glyph-name="uni04E1" unicode="&#x4e1;" horiz-adv-x="1142" 
d="M459 -360q146 0 221 90t75 280t-98 245t-241 53l-47 77l359 609l-415 -5l-45 -233h-197l-2 380h976l44 -126l-436 -563q343 0 404.5 -161.5t61.5 -273.5q0 -233 -157 -379.5t-439 -146.5q-211 0 -318 40t-128 51l-12 398h160l99 -304q66 -31 135 -31z" />
    <glyph glyph-name="uni04E2" unicode="&#x4e2;" horiz-adv-x="1745" 
d="M81 1522h660v-140l-174 -29v-906l102 184l509 679v43l-162 28v141h648v-141l-152 -28v-1193l158 -26v-134h-656v134l164 26v917l-93 -184l-518 -676v-57l171 -26v-134h-661v134l156 26v1193l-152 28v141zM587 1947h618v-196h-618v196z" />
    <glyph glyph-name="uni04E3" unicode="&#x4e3;" horiz-adv-x="1578" 
d="M93 1138h601v-131l-145 -25v-590l116 152l365 378v59l-145 26v131h600v-131l-129 -25v-828l138 -21v-133h-609v133l145 22v585l-111 -154l-370 -383v-57l133 -11l-1 -135h-590v134l132 19v829l-130 26v130zM494 1616h618v-196h-618v196z" />
    <glyph glyph-name="uni04E4" unicode="&#x4e4;" horiz-adv-x="1745" 
d="M81 1522h660v-140l-174 -29v-906l102 184l509 679v43l-162 28v141h648v-141l-152 -28v-1193l158 -26v-134h-656v134l164 26v917l-93 -184l-518 -676v-57l171 -26v-134h-661v134l156 26v1193l-152 28v141zM604 1653q-65 0 -107 46q-41 46 -41 98q0 94 45 147t132 53h1
q79 0 121 -45q41 -45 41 -99q0 -200 -191 -200h-1zM1131 1653q-64 0 -105 48q-42 48 -42 98q0 94 45 146t131 52h1q79 0 121 -45t42 -99q0 -97 -49 -148q-49 -52 -143 -52h-1z" />
    <glyph glyph-name="uni04E5" unicode="&#x4e5;" horiz-adv-x="1578" 
d="M93 1138h601v-131l-145 -25v-590l116 152l365 378v59l-145 26v131h600v-131l-129 -25v-828l138 -21v-133h-609v133l145 22v585l-111 -154l-370 -383v-57l133 -11l-1 -135h-590v134l132 19v829l-130 26v130zM720 1541q0 -205 -191 -205h-1q-65 0 -107 47t-42 101
q0 97 45 150q45 54 132 54h1q78 0 121 -46q42 -46 42 -101zM1031 1336q-64 0 -106 49t-42 100q0 96 45 149q45 54 132 54h1q121 0 153 -100q10 -30 9 -66q0 -82 -48 -134t-143 -52h-1z" />
    <glyph glyph-name="uni04E6" unicode="&#x4e6;" horiz-adv-x="1514" 
d="M474 1653q-65 0 -107 46q-41 46 -41 98q0 94 45 147t132 53h1q79 0 121 -45q41 -45 41 -99q0 -200 -191 -200h-1zM1001 1653q-64 0 -105 48q-42 48 -42 98q0 94 45 146t131 52h1q79 0 121 -45t42 -99q0 -97 -49 -148q-49 -52 -143 -52h-1zM1077 783q0 620 -320 620
q-233 0 -298 -359q-22 -122 -22 -286q0 -324 83 -483t235 -159q151 0 237 168t85 499zM257 1327q192 214 526 214q333 0 499 -200q167 -200 167 -558q0 -359 -193 -581t-523 -225q-330 -4 -499 205t-169 570t192 575z" />
    <glyph glyph-name="uni04E7" unicode="&#x4e7;" horiz-adv-x="1243" 
d="M545 1541q0 -205 -191 -205h-1q-65 0 -107 47t-42 101q0 97 45 150q45 54 132 54h1q78 0 121 -46q42 -46 42 -101zM856 1336q-64 0 -106 49t-42 100q0 96 45 149q45 54 132 54h1q120 0 152 -100q10 -30 10 -66q0 -82 -48 -134t-143 -52h-1zM414 590q0 -470 211 -470
q103 0 153 105t49 330q0 351 -111 439q-39 31 -96 31q-104 0 -155 -105t-51 -330zM229 1011q166 157 415 157q248 0 392 -157t144 -441q0 -285 -164 -439t-415 -154t-395 157t-143 439q0 281 166 438z" />
    <glyph glyph-name="uni04E8" unicode="&#x4e8;" horiz-adv-x="1495" 
d="M746 116q142 0 226 149.5t94 434.5h-637q12 -438 129 -511t188 -73zM1067 832q-11 571 -319 571q-142 0 -225.5 -139.5t-93.5 -431.5h638zM248.5 1327q192.5 214 525.5 214t499.5 -200t166.5 -558q0 -359 -193 -580.5t-523 -225.5t-499 205t-169 570t192.5 575z" />
    <glyph glyph-name="uni04E9" unicode="&#x4e9;" horiz-adv-x="1243" 
d="M414 538q10 -418 208 -418q103 0 153 101t52 317h-413zM622 1025q-99 0 -150 -91.5t-57 -287.5h410q-8 184 -56 281.5t-147 97.5zM229.5 1011q166.5 157 414.5 157q249 0 392.5 -157t143.5 -441q0 -285 -164.5 -439t-414.5 -154q-251 0 -394.5 157t-143.5 439
q0 281 166.5 438z" />
    <glyph glyph-name="uni04EA" unicode="&#x4ea;" horiz-adv-x="1495" 
d="M746 116q142 0 226 149.5t94 434.5h-637q12 -438 129 -511t188 -73zM1067 832q-11 571 -319 571q-142 0 -225.5 -139.5t-93.5 -431.5h638zM248.5 1327q192.5 214 525.5 214t499.5 -200t166.5 -558q0 -359 -193 -580.5t-523 -225.5t-499 205t-169 570t192.5 575zM476 1653
q-65 0 -106.5 45.5t-41.5 98.5q0 94 44.5 147t132.5 53h1q79 0 120.5 -45.5t41.5 -98.5q0 -200 -191 -200h-1zM1003 1653q-64 0 -105.5 48t-41.5 98q0 94 45 146t131 52h1q79 0 121 -45t42 -99q0 -97 -48.5 -148.5t-143.5 -51.5h-1z" />
    </font>
</defs>
</svg>
