<?xml version="1.0" standalone="no"?>
<!DOCTYPE svg PUBLIC "-//W3C//DTD SVG 1.1//EN" "http://www.w3.org/Graphics/SVG/1.1/DTD/svg11.dtd" >
<svg xmlns="http://www.w3.org/2000/svg">
<metadata>
Created by FontPrep 20130207 at Mon May 18 22:54:55 2015
 By Christian Reichel
Copyright (c) 2013, Sorkin Type Co (www.sorkintype.com) with Reserved Font Name 'Merriweather'
</metadata>
<defs>
<font id="eddd3eac5d6405a65ab3a73cdcf0b763" horiz-adv-x='1024' >
  <font-face 
    font-family="Merriweather-HeavyItalic"
    font-weight="900"
    font-style="italic"
    font-stretch="normal"
    units-per-em="2048"
    panose-1="2 0 5 3 5 0 0 9 0 4"
    ascent="1638"
    descent="-410"
    x-height="1163"
    cap-height="1530"
    bbox="-253 -560 2564 2016"
    underline-thickness="147"
    underline-position="-120"
    slope="-7.5"
    unicode-range="U+0001-FB04"
  />
<missing-glyph horiz-adv-x="1872" 
d="M458 363l128 -144l347 368l362 -368l122 122l-363 368l363 358l-128 124l-352 -366l-357 368l-123 -125l359 -363zM228 0v1416h1416v-1416h-1416z" />
    <glyph glyph-name="f_f" unicode="ff" horiz-adv-x="1418" 
d="M1450 1670q114 0 178 -26l-62 -178q-68 49 -136 48q-68 0 -90 -36q-20 -36 -30 -102t-12 -71l-20 -150h230l-21 -171h-233l-116 -975q-36 -277 -193 -417q-117 -106 -299 -105q-91 0 -190 24l58 184q108 -50 156 -49q101 0 126 192l138 1146h-125l21 103l136 63l17 104
q37 192 155 304t312 112zM741 1670q114 0 178 -26l-62 -178q-69 49 -137 48q-68 0 -88 -36t-32 -102q-10 -66 -11 -71l-20 -150h230l-21 -171h-233l-116 -975q-36 -277 -193 -417q-117 -106 -299 -105q-91 0 -190 24l58 184q108 -50 156 -49q101 0 126 192l138 1146h-125
l21 103l136 63l17 104q36 192 154 304t313 112z" />
    <glyph glyph-name="f_i" unicode="fi" horiz-adv-x="1378" 
d="M-62 -513q-92 0 -191 24l58 184q108 -50 156 -49q101 0 126 192l138 1146h-125l21 103l136 63l17 104q36 192 154 304t313 112q114 0 178 -26l-62 -178q-69 49 -137 48q-68 0 -88 -36t-32 -102q-10 -66 -11 -71l-20 -150h230l-5 -42l436 50l55 -24l-128 -912
q-11 -76 35 -76q30 0 92 46l28 -73q-29 -37 -78 -73q-94 -71 -208 -71t-166 41t-42 110t26 189t41 320q26 201 45 340l-147 46l-5 -42h-233l-116 -975q-36 -277 -193 -417q-117 -106 -298 -105zM1147 1338q-66 0 -115 52t-47 126q1 74 55 130t136 55q82 0 131 -49
q48 -49 46 -125q-1 -77 -53 -133t-153 -56z" />
    <glyph glyph-name="f_l" unicode="fl" horiz-adv-x="1344" 
d="M-62 -513q-92 0 -191 24l58 184q108 -50 156 -49q101 0 126 192l138 1146h-125l21 103l136 63l17 104q36 192 154 304t313 112q114 0 178 -26l-11 -31l357 37l51 -27l-184 -1396q-11 -76 35 -76q31 0 92 46l28 -73q-112 -144 -280 -144q-125 0 -182 56q-32 32 -33 79
q0 13 8 77l171 1290l-97 32l-17 -48q-69 49 -137 48q-68 0 -88 -36t-32 -102q-10 -66 -11 -71l-20 -150h230l-21 -171h-233l-116 -975q-36 -277 -193 -417q-117 -106 -298 -105z" />
    <glyph glyph-name="f_f_i" unicode="ffi" horiz-adv-x="2087" 
d="M646 -513q-92 0 -190 24l58 184q108 -50 156 -49q101 0 126 192l138 1146h-125l21 103l136 63l17 104q37 192 155 304t312 112q114 0 178 -26l-62 -178q-68 49 -136 48q-68 0 -90 -36q-20 -36 -30 -102t-12 -71l-20 -150h230l-5 -42l436 50l55 -24l-128 -912
q-11 -76 35 -76q30 0 92 46l28 -73q-29 -37 -78 -73q-94 -71 -208 -71q-115 0 -167 41t-42 110t26 189t42 320q26 201 45 340l-147 46l-5 -42h-233l-116 -975q-36 -277 -193 -417q-118 -106 -299 -105zM1856 1338q-66 0 -115 52t-47 126t56 130t136 55q82 0 130 -49t46 -125
q-2 -77 -54 -133t-152 -56zM741 1670q114 0 178 -26l-62 -178q-69 49 -137 48q-68 0 -88 -36t-32 -102q-10 -66 -11 -71l-20 -150h230l-21 -171h-233l-116 -975q-36 -277 -193 -417q-117 -106 -299 -105q-91 0 -190 24l58 184q108 -50 156 -49q101 0 126 192l138 1146h-125
l21 103l136 63l17 104q36 192 154 304t313 112z" />
    <glyph glyph-name="f_f_l" unicode="ffl" horiz-adv-x="2053" 
d="M646 -513q-92 0 -190 24l58 184q108 -50 156 -49q101 0 126 192l138 1146h-125l21 103l136 63l17 104q37 192 155 304t312 112q114 0 178 -26l-11 -31l357 37l51 -27l-184 -1396q-11 -76 35 -76q31 0 92 46l28 -73q-112 -144 -280 -144q-125 0 -182 56q-32 32 -33 79
q0 13 8 77l171 1290l-97 32l-17 -48q-68 49 -136 48q-68 0 -90 -36q-20 -36 -30 -102t-12 -71l-20 -150h230l-21 -171h-233l-116 -975q-36 -277 -193 -417q-118 -106 -299 -105zM741 1670q114 0 178 -26l-62 -178q-69 49 -137 48q-68 0 -88 -36t-32 -102q-10 -66 -11 -71
l-20 -150h230l-21 -171h-233l-116 -975q-36 -277 -193 -417q-117 -106 -299 -105q-91 0 -190 24l58 184q108 -50 156 -49q101 0 126 192l138 1146h-125l21 103l136 63l17 104q36 192 154 304t313 112z" />
    <glyph glyph-name=".notdef" horiz-adv-x="1872" 
d="M458 363l128 -144l347 368l362 -368l122 122l-363 368l363 358l-128 124l-352 -366l-357 368l-123 -125l359 -363zM228 0v1416h1416v-1416h-1416z" />
    <glyph glyph-name=".null" unicode="&#xe000;" 
 />
    <glyph glyph-name="nonmarkingreturn" horiz-adv-x="682" 
 />
    <glyph glyph-name="uni0001" 
 />
    <glyph glyph-name="uni0002" 
 />
    <glyph glyph-name="uni0003" 
 />
    <glyph glyph-name="uni0004" 
 />
    <glyph glyph-name="uni0005" 
 />
    <glyph glyph-name="uni0006" 
 />
    <glyph glyph-name="uni0007" 
 />
    <glyph glyph-name="uni0008" 
 />
    <glyph glyph-name="HT" unicode="&#x9;" 
 />
    <glyph glyph-name="LF" unicode="&#xa;" 
 />
    <glyph glyph-name="DLE" 
 />
    <glyph glyph-name="DC1" 
 />
    <glyph glyph-name="DC2" 
 />
    <glyph glyph-name="DC3" 
 />
    <glyph glyph-name="DC4" 
 />
    <glyph glyph-name="uni0015" 
 />
    <glyph glyph-name="uni0016" 
 />
    <glyph glyph-name="uni0017" 
 />
    <glyph glyph-name="uni0018" 
 />
    <glyph glyph-name="uni0019" 
 />
    <glyph glyph-name="RS" 
 />
    <glyph glyph-name="US" 
 />
    <glyph glyph-name="space" unicode=" " horiz-adv-x="485" 
 />
    <glyph glyph-name="exclam" unicode="!" horiz-adv-x="716" 
d="M116 152q0 78 59 134t131 55q72 1 110 -47q39 -48 39 -128t-61 -134q-62 -52 -130 -52t-108 46q-40 48 -40 126zM241 528l126 1250h335l-258 -1250h-203z" />
    <glyph glyph-name="quotedbl" unicode="&#x22;" horiz-adv-x="1110" 
d="M714 966l81 721h287l-168 -721h-200zM195 966l81 721h287l-168 -721h-200z" />
    <glyph glyph-name="numbersign" unicode="#" horiz-adv-x="1405" 
d="M555 545h252l45 305h-251zM237 0l58 365h-184l23 180h195l45 305h-193l16 175h202l53 332h225l-51 -332h251l56 332h225l-54 -332h202l-16 -175h-211l-46 -305h198l-23 -180h-209l-57 -365h-220l51 365h-252l-62 -365h-222z" />
    <glyph glyph-name="dollar" unicode="$" horiz-adv-x="1205" 
d="M501 106q259 0 259 209q0 93 -58 159t-170 136q-110 70 -165 117q-55 45 -103 103q-100 118 -100 269q0 197 140 315t370 133l29 182h181l-30 -184q184 -14 284 -70l-54 -302h-191l-28 198q-73 52 -175 52t-156 -50q-53 -49 -53 -143t66 -170t222 -173q236 -146 294 -300
q25 -66 25 -148q0 -172 -123 -305t-388 -154l-34 -210h-180l33 211q-130 10 -239 39t-140 55l62 318h204l9 -219q91 -68 209 -68z" />
    <glyph glyph-name="percent" unicode="%" horiz-adv-x="1911" 
d="M1248 379q0 -209 106 -209q54 0 95 58q78 110 78 271q0 201 -105 201q-54 0 -96 -56q-78 -104 -78 -265zM1017 362q0 122 55 222t156 164t238 64t219 -85t82 -237q1 -152 -121 -290q-56 -64 -141 -104q-84 -40 -180 -39q-143 -1 -225 91t-83 214zM497 848q54 0 95 58
q78 110 78 271q0 201 -105 201q-55 0 -97 -56q-78 -104 -77 -265q0 -209 106 -209zM468 735q-144 -1 -226 91t-82 214t55 222t156 164t238 64t219 -85t82 -237t-122 -290q-56 -64 -140 -104t-180 -39zM367 0l947 1530h219l-947 -1530h-219z" />
    <glyph glyph-name="ampersand" unicode="&#x26;" horiz-adv-x="1812" 
d="M417 386q0 -134 84 -208t202 -74t202 18q-125 116 -237 294q-61 97 -124 205q-127 -101 -127 -235zM1036 1230q0 216 -115 216t-157 -75t-42 -197t56 -259q258 125 258 315zM1579 578h-32v-22q0 -216 -196 -374q48 -24 112 -34t110 -4l-1 -125q-92 -39 -260 -39t-266 42
q-185 -59 -370 -59q-270 0 -438 102t-167 275q1 198 165 320q87 64 225 123q-79 193 -79 331t71 244q143 211 472 211q213 1 323 -85t109 -229q1 -143 -117 -249q-75 -68 -157 -109q-81 -42 -151 -74q-70 -31 -73 -33t-7 -2l-8 -4q88 -158 171 -273t191 -215q69 93 69 216
q0 46 -3 83h-23q-109 0 -155 -38v226q49 49 155 49l209 -16q84 0 116 30t46 122h113q45 -141 5 -263q-18 -55 -60 -91t-99 -36z" />
    <glyph glyph-name="quotesingle" unicode="'" horiz-adv-x="591" 
d="M195 966l81 721h287l-168 -721h-200z" />
    <glyph glyph-name="parenleft" unicode="(" horiz-adv-x="884" 
d="M335 1184q135 260 341 460q97 95 156 127l127 -89q-72 -46 -159 -161q-88 -115 -144 -215t-106 -242q-94 -263 -94 -577t136 -579q65 -126 121 -173l-138 -84h-17q-84 57 -182 195q-200 283 -200 657t159 681z" />
    <glyph glyph-name="parenright" unicode=")" horiz-adv-x="894" 
d="M545 244q-135 -260 -341 -460q-97 -95 -156 -127l-127 89q72 46 159 161q88 115 144 215t106 242q94 263 94 577t-136 579q-65 126 -121 173l138 84h17q84 -57 182 -195q200 -283 200 -657t-159 -681z" />
    <glyph glyph-name="asterisk" unicode="*" horiz-adv-x="1366" 
d="M317 785l-96 208l343 138l60 20l-52 18l-320 140l141 204l262 -218l42 -39l-6 62l-7 355l252 -1l-83 -358l-15 -53l46 36l310 218l96 -208l-344 -138l-60 -20l53 -19l320 -139l-141 -204l-263 217l-42 42l6 -64l7 -355l-252 1l82 358l16 54l-46 -38z" />
    <glyph glyph-name="plus" unicode="+" horiz-adv-x="1326" 
d="M531 275l27 241l26 164l-141 -7h-195l18 198h216l138 -11l13 165l27 230h218l-26 -230l-29 -164l115 10h225l-18 -198h-245l-112 7q-1 -31 -5 -88t-5 -76l-28 -241h-219z" />
    <glyph glyph-name="comma" unicode="," horiz-adv-x="556" 
d="M190 -102q0 80 -30 131q-30 50 -72 49l7 64l134 153q77 -18 127 -68q86 -86 86 -241t-106 -291t-288 -216l-63 89l3 21q82 37 142 133t60 176z" />
    <glyph glyph-name="hyphen" unicode="-" horiz-adv-x="1286" 
d="M248 673l18 198h857l-18 -198h-857z" />
    <glyph glyph-name="period" unicode="." horiz-adv-x="556" 
d="M61 152q0 78 59 134q58 56 130 55q72 1 111 -47t39 -128t-61 -134q-61 -52 -129 -52t-109 46q-40 48 -40 126z" />
    <glyph glyph-name="slash" unicode="/" horiz-adv-x="854" 
d="M110 -362h-232l861 1959h234z" />
    <glyph glyph-name="zero" unicode="0" horiz-adv-x="1278" 
d="M599 94q69 0 126 52t88 140q60 169 60 391q0 376 -176 376q-66 0 -117 -40q-90 -71 -128 -227q-37 -156 -37 -290q1 -135 17 -216q16 -82 57 -134t110 -52zM724 1162q252 0 368 -124t115 -348q0 -225 -114 -411q-114 -185 -306 -257q-101 -38 -223 -38t-218 37t-153 102
q-112 128 -112 327q-1 200 81 362t230 256t332 94z" />
    <glyph glyph-name="one" unicode="1" horiz-adv-x="930" 
d="M61 0l10 106l201 30l104 751q-138 -34 -242 -52l-19 125q103 22 244 84t222 118l163 -37l-140 -989l210 -30l-10 -106h-743z" />
    <glyph glyph-name="two" unicode="2" horiz-adv-x="1249" 
d="M714 763q0 83 -36 138t-131 55t-191 -51t-168 -135l-75 130q74 99 205 181q130 81 313 81q269 0 377 -156q56 -82 56 -180t-60 -198t-162 -187q-197 -167 -455 -290l512 43l152 201l148 -46l-121 -349h-1003l-33 136q268 164 460 332q98 86 155 166t57 129z" />
    <glyph glyph-name="three" unicode="3" horiz-adv-x="1104" 
d="M184 -184q100 0 188 28t140 76q102 97 103 235q1 89 -67 141t-208 36l-109 -30l21 173q142 28 262 128t119 212q0 49 -37 97t-108 47q-178 0 -327 -126l-60 125q65 72 199 138t260 66t212 -33q84 -33 137 -101t53 -157q0 -131 -96 -235t-252 -154q167 -7 250 -92t83 -236
q1 -151 -93 -269q-186 -235 -650 -235q-109 0 -205 23l22 159q63 -16 163 -16z" />
    <glyph glyph-name="four" unicode="4" horiz-adv-x="1264" 
d="M42 0l-66 84q156 236 269 433q112 197 241 429t172 310h297l82 -89l-657 -948l-43 -66l356 29l44 309l303 58l-41 -364l183 15l-27 -200h-190l-47 -375h-299l49 375h-626z" />
    <glyph glyph-name="five" unicode="5" horiz-adv-x="1116" 
d="M192 -201q76 1 156 25q145 44 217 148q71 104 71 215q0 233 -275 233q-107 0 -207 -53l-61 47l181 732h537l22 16h218l-55 -228h-464l-104 -366q66 28 216 28t247 -95t97 -248q0 -303 -216 -455t-562 -152q-88 0 -174 25l25 144q55 -16 131 -16z" />
    <glyph glyph-name="six" unicode="6" horiz-adv-x="1208" 
d="M576 116q58 0 102 40t68 106q47 129 47 287q0 263 -138 263q-70 0 -132 -41t-92 -88q-27 -121 -27 -258t38 -223t134 -86zM530 -20q-207 0 -325 134t-118 415q0 178 68 347q68 168 186 304q117 136 281 238t352 153l54 -134q-190 -57 -346 -219t-218 -363q44 56 128 98
t181 42q167 1 253 -105t86 -279q0 -125 -44 -240t-120 -201t-184 -138q-110 -52 -234 -52z" />
    <glyph glyph-name="seven" unicode="7" horiz-adv-x="1096" 
d="M174 -244l659 1225l-414 -22l-103 -231l-238 4l87 414h922l32 -43l-607 -1443z" />
    <glyph glyph-name="eight" unicode="8" horiz-adv-x="1256" 
d="M385 368q0 -138 90 -218q49 -44 134 -44t157 60t72 170t-73 191t-197 177q-183 -120 -183 -336zM921 1234q0 109 -54 153q-53 44 -139 44q-190 0 -190 -216q0 -149 191 -286q88 55 140 125t52 180zM237 1179q-1 167 139 269t384 102t358 -148q60 -76 60 -174
q0 -97 -44 -175q-44 -79 -106 -133t-150 -106q118 -83 192 -190t74 -226q0 -228 -240 -348q-141 -70 -317 -70q-239 0 -379 121q-108 94 -109 263q-1 130 91 247t233 201q-186 157 -186 367z" />
    <glyph glyph-name="nine" unicode="9" horiz-adv-x="1247" 
d="M559 321q113 0 191 92q17 20 35 46q26 107 26 199t-4 138q-20 231 -158 231q-129 0 -181 -150q-46 -130 -46 -283q0 -273 137 -273zM508 138q-104 0 -172 22q-234 79 -233 396q-1 150 69 292t204 228t309 86q443 0 443 -528q0 -186 -72 -367t-190 -323
q-120 -142 -282 -241q-162 -100 -339 -134l-60 137q415 128 581 562q-53 -56 -77 -73q-77 -57 -181 -57z" />
    <glyph glyph-name="colon" unicode=":" horiz-adv-x="556" 
d="M61 152q0 78 59 134q58 56 130 55q72 1 111 -47t39 -128t-61 -134q-61 -52 -129 -52t-109 46q-40 48 -40 126zM167 960q0 78 59 134q58 56 130 56t111 -48t39 -128t-61 -132t-129 -53q-68 1 -109 47q-40 46 -40 124z" />
    <glyph glyph-name="semicolon" unicode=";" horiz-adv-x="556" 
d="M167 960q0 78 59 134q58 56 130 56t111 -48t39 -128t-61 -132t-129 -53q-68 1 -109 47q-40 46 -40 124zM189 -102q1 80 -29 131q-30 50 -73 49l7 64l134 153q77 -18 127 -68q86 -86 86 -241q-1 -155 -107 -291t-287 -216l-63 89l3 21q82 37 142 133t60 176z" />
    <glyph glyph-name="less" unicode="&#x3c;" horiz-adv-x="1368" 
d="M195 686l16 128l1009 510l-33 -261l-682 -316l606 -330l-26 -241z" />
    <glyph glyph-name="equal" unicode="=" horiz-adv-x="1063" 
d="M76 309l23 197h815l-23 -197h-815zM149 838l23 197h815l-23 -197h-815z" />
    <glyph glyph-name="greater" unicode="&#x3e;" horiz-adv-x="1368" 
d="M1275 817l-16 -128l-1009 -510l33 261l682 316l-606 330l26 241z" />
    <glyph glyph-name="question" unicode="?" horiz-adv-x="951" 
d="M293 152q0 78 59 134q58 56 130 55q72 1 111 -47t39 -128t-61 -134q-61 -52 -129 -52t-109 46q-40 48 -40 126zM226 694q0 58 16 96q30 74 97 128q68 53 167 110q141 72 220 158q28 60 31 118q7 130 -88 212t-255 82q-100 0 -216 -58l61 220q23 23 122 48t188 25
q89 -1 175 -27q154 -47 217 -158t63 -227q0 -117 -30 -195t-76 -130q-48 -52 -106 -94t-116 -76t-108 -66q-112 -74 -124 -172q-7 -68 19 -159l-172 -49l-14 1q-31 35 -51 95t-20 118z" />
    <glyph glyph-name="at" unicode="@" horiz-adv-x="1969" 
d="M738 460q0 -62 11 -110t39 -86t66 -38q52 0 139 123t157 280t82 253q-15 30 -68 56q-52 26 -106 26t-109 -30t-93 -81t-66 -118t-40 -140t-12 -135zM1330 -319q-157 -118 -430 -118q-282 0 -491 118q-354 200 -354 668q0 169 47 337t129 302q171 280 433 433t552 153
t492 -177q204 -179 204 -513q0 -178 -52 -354t-140 -294q-86 -116 -197 -181t-229 -65q-125 0 -125 205q0 95 38 262q-71 -171 -179 -311q-108 -139 -215 -139q-131 0 -230 109q-98 109 -98 344q0 234 155 438q74 98 191 158t258 61q44 0 105 -18t101 -46l205 50
q-29 -113 -62 -317t-42 -303q-8 -99 -10 -133t-1 -72q1 -36 1 -39q0 -66 27 -66q81 -1 152 99t111 250t39 285q1 136 -35 235q-64 179 -224 271t-328 92t-301 -58q-246 -107 -398 -374q-151 -266 -151 -565q0 -403 281 -578q164 -102 382 -102q83 0 191 19t155 42z" />
    <glyph glyph-name="A" unicode="A" horiz-adv-x="1375" 
d="M406 567h422l-78 550l-9 199zM-18 135l685 1395h347l247 -1392l161 -32l-6 -106h-689l5 106l157 29l-40 281h-510l-125 -280l188 -30l-8 -106h-558l8 106z" />
    <glyph glyph-name="B" unicode="B" horiz-adv-x="1396" 
d="M638 105q336 0 322 361q-5 130 -74 192t-221 61q-65 0 -125 -5l-79 -586q92 -23 177 -23zM683 856q137 0 233 81t89 255q-5 112 -63 170t-152 58t-157 -14l-74 -550h124zM1327 500q1 -276 -181 -398t-551 -122l-320 20h-297l9 106l140 30l167 1258l-145 26l13 110h336
l359 16q315 0 419 -142q54 -74 59 -186q12 -321 -376 -415q169 4 269 -87q99 -91 99 -216z" />
    <glyph glyph-name="C" unicode="C" horiz-adv-x="1300" 
d="M949 1549q141 0 201 -11t104 -23t54 -14l33 -9l-61 -400h-253l-40 310q-47 18 -117 18t-146 -48q-137 -85 -209 -291q-71 -206 -64 -444t73 -365t208 -127q140 0 216 74q36 41 80 200l201 1l-43 -284q-134 -109 -316 -138q-86 -14 -206 -14q-118 0 -224 34
q-196 64 -288 230t-92 383q0 432 242 675q241 243 647 243z" />
    <glyph glyph-name="D" unicode="D" horiz-adv-x="1505" 
d="M634 111q86 1 172 49q155 87 230 292q75 206 75 461t-74 381t-235 126q-114 0 -159 -26l-166 -1258q71 -25 157 -25zM1488 949q0 -196 -32 -337q-67 -294 -279 -461t-585 -167q-30 0 -92 7t-176 9h-368l12 106l158 30l168 1258l-144 26l11 110h317l357 16q404 2 562 -254
q91 -148 91 -343z" />
    <glyph glyph-name="E" unicode="E" horiz-adv-x="1329" 
d="M-46 0l14 106l160 30l164 1258l-145 26l11 110h1118l-36 -370h-222l-34 224l-339 26l-72 -529l444 24l-23 -218l-441 25l-78 -576l463 35l117 297l213 -14l-70 -454h-1244z" />
    <glyph glyph-name="F" unicode="F" horiz-adv-x="1215" 
d="M-21 0l11 106l138 30l164 1258l-145 26l14 110h1136l-44 -382h-221l-19 242l-366 18l-75 -549l483 38l-27 -235l-476 39l-72 -565l327 -30l-8 -106h-820z" />
    <glyph glyph-name="G" unicode="G" horiz-adv-x="1450" 
d="M1193 1271q-18 26 -30 39zM903 1420q-470 0 -470 -762q0 -317 118 -452q62 -71 153 -71q145 0 225 28l49 427l-202 17l19 146h556l-86 -669q-105 -10 -193 -33t-128 -33q-145 -35 -286 -34q-140 0 -236 34q-178 64 -268 227t-94 376q-4 212 48 381t157 291
q104 122 266 189t372 67t377 -45q41 -11 53 -14l62 -11l-68 -356h-247l-8 257q-75 40 -169 40z" />
    <glyph glyph-name="H" unicode="H" horiz-adv-x="1653" 
d="M-21 0l11 106l138 30l166 1258l-145 26l14 110h675l-12 -110l-180 -26l-71 -540h552l71 540l-177 26l12 110h683l-12 -110l-154 -26l-165 -1258l157 -30l-12 -106h-703l14 106l191 30l75 568h-552l-75 -568l174 -30l-8 -106h-667z" />
    <glyph glyph-name="I" unicode="I" horiz-adv-x="783" 
d="M-18 0l13 106l150 30l165 1258l-147 26l12 110h671l-12 -110l-172 -26l-165 -1258l175 -30l-7 -106h-683z" />
    <glyph glyph-name="J" unicode="J" horiz-adv-x="748" 
d="M115 86q92 492 182 1307l-153 27l15 110h666l-11 -110l-168 -26q-126 -1036 -150 -1166t-32 -153q-40 -114 -134 -204q-182 -174 -483 -216l-52 108q151 47 225 130t95 193z" />
    <glyph glyph-name="K" unicode="K" horiz-adv-x="1477" 
d="M-31 0l13 106l146 30l165 1258l-145 26l14 110h675l-12 -110l-180 -26l-89 -673l624 673l-145 27l11 109h501l-12 -110l-117 -26l-467 -470q36 -54 129 -252t119 -249q50 -101 97 -185t81 -102l117 -30l-12 -106h-434q-44 5 -68 42t-52 107q-28 71 -98 261t-114 276
l-189 -191l-47 -359l174 -30l-9 -106h-676z" />
    <glyph glyph-name="L" unicode="L" horiz-adv-x="1271" 
d="M-22 0l12 106l138 30l165 1258l-146 26l13 110h679l-12 -110l-182 -26l-166 -1265l349 20l191 451l181 -23l-84 -577h-1138z" />
    <glyph glyph-name="M" unicode="M" horiz-adv-x="2017" 
d="M-128 0l12 106l181 30l326 1258l-194 26l16 110h691l120 -1021l55 171l334 850h620l-13 -110l-186 -26l-40 -1258l204 -30l-8 -106h-737l9 108l189 28l57 860l20 398l-143 -350l-439 -1047l-169 -15l-136 1038l-54 375l-87 -385l-209 -874l225 -29l-10 -107h-634z" />
    <glyph glyph-name="N" unicode="N" horiz-adv-x="1545" 
d="M-33 0l8 106l149 30l186 1258l-170 26l16 110h557l371 -995l78 -230l136 1089l-172 26l11 110h502l-11 -110l-123 -26l-212 -1394h-358l-391 1028l-78 254l-125 -1146l190 -30l-11 -106h-553z" />
    <glyph glyph-name="O" unicode="O" horiz-adv-x="1500" 
d="M684 102q100 0 178 60t125 168q97 217 97 551q0 545 -246 545q-94 0 -172 -66t-128 -178q-102 -229 -102 -505q0 -277 43 -397q43 -119 113 -156q40 -22 92 -22zM569 1500q135 50 293 50t276 -54t188 -146q139 -185 139 -476q-1 -292 -137 -530q-93 -163 -262 -264
q-169 -100 -411 -100q-358 0 -509 264q-91 160 -91 424q0 263 132 501q132 237 382 331z" />
    <glyph glyph-name="P" unicode="P" horiz-adv-x="1312" 
d="M739 1420q-45 0 -89 -9l-102 -757q42 -10 110 -8q158 2 250 136t94 350q2 148 -68 218t-195 70zM649 514q-82 0 -117 4l-46 -382l278 -30l-8 -106h-778l11 106l138 30l168 1258l-148 26l14 110h316l297 16q314 0 443 -103t135 -304q8 -293 -180 -459t-523 -166z" />
    <glyph glyph-name="Q" unicode="Q" horiz-adv-x="1501" 
d="M684 101q100 1 178 61t125 168q97 217 97 550q0 545 -246 545q-94 -1 -172 -67t-128 -176q-102 -229 -102 -506t43 -397q43 -119 113 -156q40 -22 92 -22zM569 1498q135 50 293 51t276 -53t188 -147q139 -185 139 -452t-102 -488q-102 -219 -306 -333q-111 -62 -246 -84
q-8 -128 109 -158q59 -16 196 -15q137 0 263 39l2 -186q-53 -41 -153 -76t-235 -35q-221 0 -326 111t-60 309q-282 14 -417 195t-135 468t132 524q132 236 382 330z" />
    <glyph glyph-name="R" unicode="R" horiz-adv-x="1450" 
d="M725 797q129 0 209 102t73 287q-4 116 -70 175t-180 59q-62 0 -115 -10l-81 -610q35 -3 164 -3zM472 1530q62 0 167 8t200 8q526 0 526 -382q-1 -160 -85 -280t-236 -179q34 -40 64 -115q29 -76 73 -196t90 -195q47 -74 108 -88q19 -4 42 -5l-10 -107l-415 2
q-32 -2 -90 187q-124 407 -171 474q-125 -1 -193 -1l-66 -525l184 -30l-6 -106h-676l9 106l141 30l165 1258l-145 26l13 110h311z" />
    <glyph glyph-name="S" unicode="S" horiz-adv-x="1157" 
d="M686 1423q-203 -1 -203 -189q1 -94 65 -170q64 -78 212 -172t234 -202q84 -109 84 -248q0 -188 -143 -322q-153 -142 -449 -143q-150 0 -290 33q-142 33 -181 65l60 318h206l11 -221q88 -66 216 -66t185 54t57 148t-58 164t-201 161q-325 207 -325 469q0 142 74 244
q147 203 495 203q271 0 399 -74l-54 -302h-191l-30 198q-72 52 -173 52z" />
    <glyph glyph-name="T" unicode="T" horiz-adv-x="1461" 
d="M232 0l13 106l250 30l167 1258l-236 -26l-167 -423h-188l99 585h1376l-75 -583l-181 -2l-33 423l-242 26l-168 -1258l284 -30l-10 -106h-889z" />
    <glyph glyph-name="U" unicode="U" horiz-adv-x="1447" 
d="M128 442q0 92 7 151l100 801l-144 26l13 110h704l-10 -109l-197 -27l-97 -771q-17 -153 -17 -201q0 -148 61 -233t184 -85q179 0 266 138t121 384l104 768l-168 27l11 109h484l-15 -109l-129 -27l-97 -767q-44 -349 -202 -498t-437 -149q-350 0 -472 183q-70 105 -70 279
z" />
    <glyph glyph-name="V" unicode="V" horiz-adv-x="1245" 
d="M339 -10l-224 1404l-139 27l14 109h653l-9 -110l-162 -26l120 -884l24 -208l75 208l410 884l-191 26l10 110h575l-18 -110l-170 -26l-647 -1404h-321z" />
    <glyph glyph-name="W" unicode="W" horiz-adv-x="1954" 
d="M322 -10l-207 1403l-138 28l14 109h612l-9 -110l-126 -28l126 -1090l79 208l305 738l-13 145l-160 28l10 109h636l-9 -110l-139 -27l93 -883l7 -208l461 1091l-227 27l10 110h594l-10 -109l-159 -27l-644 -1404h-320l-90 936l-379 -936h-317z" />
    <glyph glyph-name="X" unicode="X" horiz-adv-x="1389" 
d="M-76 0l12 106l114 30l479 613l-306 645l-119 26l11 110h661l-8 -109l-144 -27l168 -441l296 441l-134 26l6 110h522l-10 -110l-136 -26l-470 -585l335 -673l126 -30l-10 -106h-692l9 106l156 30l-180 455l-303 -455l152 -30l-10 -106h-525z" />
    <glyph glyph-name="Y" unicode="Y" horiz-adv-x="1281" 
d="M161 0l12 106l230 30l58 469l-331 789l-111 26l12 110h684l-17 -110l-181 -26l172 -486l53 -123l354 609l-164 26l10 110h533l-15 -110l-130 -26l-515 -789l-61 -469l245 -30l-10 -106h-828z" />
    <glyph glyph-name="Z" unicode="Z" horiz-adv-x="1226" 
d="M-39 0l-34 89l877 1215l123 98l-424 -18l-148 -270l-175 22l51 394h1040l30 -86l-865 -1209l-112 -98l493 22l184 333l167 -31l-88 -461h-1119z" />
    <glyph glyph-name="bracketleft" unicode="[" horiz-adv-x="874" 
d="M633 1771q81 0 215 -35l45 -12l-20 -123h-275l-223 -1656l275 -2l-15 -128q-163 -47 -253 -47q-88 0 -142 12t-92 46t-38 98q0 65 4 97l208 1498q33 252 311 252z" />
    <glyph glyph-name="backslash" unicode="\" horiz-adv-x="854" 
d="M602 -362l-576 1959h228l577 -1959h-229z" />
    <glyph glyph-name="bracketright" unicode="]" horiz-adv-x="874" 
d="M262 -215q-83 0 -214 35l-46 12l20 123h275l223 1656l-275 2l15 128q163 47 253 47q89 0 143 -12t91 -46q38 -34 38 -98q0 -65 -4 -97l-208 -1498q-33 -252 -311 -252z" />
    <glyph glyph-name="asciicircum" unicode="^" horiz-adv-x="1364" 
d="M137 510l521 1021h257l277 -1021h-255l-179 692l-356 -692h-265z" />
    <glyph glyph-name="underscore" unicode="_" horiz-adv-x="1335" 
d="M-91 -187h1378l-20 -151h-1378z" />
    <glyph glyph-name="grave" unicode="`" horiz-adv-x="541" 
d="M386 1241q-72 30 -207 139t-179 186l203 177l288 -432z" />
    <glyph glyph-name="a" unicode="a" horiz-adv-x="1215" 
d="M552 154q66 0 128 55l110 808q-34 6 -86 6t-108 -38q-98 -67 -144 -227t-46 -313q0 -155 40 -223t106 -68zM60 416q0 104 28 214q57 229 225 381t433 152q113 0 238 -43l152 43l-129 -936q-8 -76 39 -76q33 0 93 46l28 -73q-25 -37 -74 -74q-94 -70 -188 -70
q-184 0 -188 126q-126 -126 -304 -126q-261 0 -333 258q-20 74 -20 178z" />
    <glyph glyph-name="b" unicode="b" horiz-adv-x="1191" 
d="M488 119q70 -1 132 51t99 140q71 175 71 419q0 111 -36 185t-116 74q-79 0 -153 -89l-100 -771q33 -9 103 -9zM794 1163q164 0 250 -112t87 -322q1 -209 -81 -379t-238 -270t-363 -100q-110 0 -243 43l-146 -43l187 1504l-103 43l21 84l361 39l54 -27l-74 -564
q124 104 288 104z" />
    <glyph glyph-name="c" unicode="c" horiz-adv-x="942" 
d="M720 1163q144 0 241 -38l-93 -322q-22 7 -66 58t-91 98t-83 47t-78 -41t-78 -111q-79 -158 -72 -394q4 -156 46 -224t129 -67q156 0 254 128l64 -103q-44 -73 -160 -143q-116 -71 -291 -71q-174 0 -276 120t-107 344q-4 224 103 413q174 306 558 306z" />
    <glyph glyph-name="d" unicode="d" horiz-adv-x="1255" 
d="M545 154q90 0 162 103l110 750q-45 16 -118 16q-73 -1 -137 -57t-96 -150q-64 -180 -65 -403q0 -123 38 -191t106 -68zM424 -20q-94 0 -152 22q-110 41 -161 148q-51 106 -51 238t26 242q53 230 217 382q164 151 434 151q39 0 102 -9l48 328l-156 43l19 83l432 42l56 -27
l-202 -1394q-11 -78 35 -78q31 0 92 46l28 -73q-16 -18 -23 -26t-37 -36q-93 -83 -220 -82q-85 0 -127 42t-48 125q-50 -69 -134 -118t-178 -49z" />
    <glyph glyph-name="e" unicode="e" horiz-adv-x="1048" 
d="M636 1025q-54 -1 -96 -43t-76 -143t-44 -264q98 5 194 83q46 38 76 98t28 130q-6 139 -82 139zM700 1163q172 -1 254 -69q80 -68 84 -164t-24 -165t-76 -117q-101 -101 -241 -145t-277 -48q0 -296 187 -296q178 0 298 156l64 -103q-47 -75 -166 -154q-119 -78 -304 -78
q-323 0 -413 282q-24 78 -25 168q-1 210 85 378t234 262t320 93z" />
    <glyph glyph-name="f" unicode="f" horiz-adv-x="709" 
d="M741 1670q114 0 178 -26l-62 -178q-69 49 -137 48q-68 0 -88 -36t-32 -102q-10 -66 -11 -71l-20 -150h230l-21 -171h-233l-116 -975q-36 -277 -193 -417q-117 -106 -299 -105q-91 0 -190 24l58 184q108 -50 156 -49q101 0 126 192l138 1146h-125l21 103l136 63l17 104
q36 192 154 304t313 112z" />
    <glyph glyph-name="g" unicode="g" horiz-adv-x="1218" 
d="M406 445q0 -291 152 -291q72 0 141 73l115 785q-38 11 -100 11t-118 -38q-98 -67 -144 -227q-46 -159 -46 -313zM416 -349q68 1 102 7t65 26q56 37 72 171l25 218q-115 -93 -267 -93q-261 0 -333 258q-20 74 -20 178t28 214q57 229 225 381t433 152q117 0 248 -46l162 46
l-167 -1240q-37 -285 -299 -387q-138 -54 -320 -54q-70 0 -153 15t-115 30l51 215q23 -22 109 -56t154 -35z" />
    <glyph glyph-name="h" unicode="h" horiz-adv-x="1296" 
d="M1074 206q0 -55 39 -55q29 0 90 46l28 -73q-111 -145 -296 -145q-185 -1 -203 119q-4 22 -4 62q0 38 46 293t46 353q-2 98 -20 129q-18 30 -70 30q-50 0 -121 -76t-119 -184l-86 -705h-333l179 1482l-127 43l16 83l409 42l55 -27l-87 -708q70 115 168 181t216 67
q265 0 265 -302q0 -76 -36 -283q-35 -207 -45 -262t-10 -110z" />
    <glyph glyph-name="i" unicode="i" horiz-adv-x="669" 
d="M483 151q30 0 92 46l28 -73q-29 -37 -78 -73q-94 -71 -208 -71q-115 0 -167 41t-42 110t26 189t42 320q26 201 45 340l-164 51l18 81l446 51l55 -24l-128 -912q-11 -76 35 -76zM438 1338q-66 0 -115 52t-47 126t56 130t136 55q82 0 130 -49t46 -125q-2 -77 -54 -133
t-152 -56z" />
    <glyph glyph-name="j" unicode="j" horiz-adv-x="652" 
d="M428 1338q-66 0 -115 52t-47 126t56 130t136 55q82 0 130 -49t46 -125q-2 -77 -54 -133t-152 -56zM-79 -528q-131 0 -171 37l38 121q36 -12 75 -12t71 13t56 34q23 21 42 56q37 68 53 150q16 81 30 194l105 915l-166 51l21 81l451 51l52 -24l-137 -1139
q-33 -250 -179 -389t-341 -139z" />
    <glyph glyph-name="k" unicode="k" horiz-adv-x="1158" 
d="M831 1017q0 84 50 115t113 31q64 0 98 -37t34 -107t-57 -147q-99 -126 -305 -218l184 -380q48 -92 107 -92q21 0 55 12t61 34l34 -71q-41 -51 -104 -93q-121 -83 -240 -83q-153 0 -197 120l-186 509l5 1h-5q142 73 220 155q38 40 86 104q48 63 47 147zM63 0l195 1482
l-128 43l17 83l409 42l55 -27l-215 -1623h-333z" />
    <glyph glyph-name="l" unicode="l" horiz-adv-x="635" 
d="M458 151q31 0 92 46l28 -73q-112 -144 -280 -144q-125 0 -182 56q-32 32 -33 79q0 13 8 77l171 1290l-132 43l20 83l406 42l51 -27l-184 -1396q-11 -76 35 -76z" />
    <glyph glyph-name="m" unicode="m" horiz-adv-x="1954" 
d="M1732 206q0 -55 39 -55q29 0 90 46l28 -73q-111 -145 -300 -145q-129 0 -166 52t-37 110q0 57 46 312t46 353q-2 98 -20 129q-18 30 -68 30q-50 1 -116 -57t-113 -150q-6 -128 -24 -253l-59 -505h-335l57 443q56 429 8 494q-20 28 -72 28q-50 0 -118 -65t-116 -158
l-102 -742h-323l132 962l-108 60l17 89l372 52l53 -24l-16 -212q65 106 159 171t203 65q245 0 272 -247q65 119 167 183t230 64q265 0 265 -302q0 -76 -36 -283q-35 -207 -45 -262t-10 -110z" />
    <glyph glyph-name="n" unicode="n" horiz-adv-x="1299" 
d="M1077 206q0 -55 39 -55q29 0 90 46l28 -73q-111 -145 -300 -145q-129 0 -166 52t-37 110q1 57 47 312t44 353t-20 129q-18 30 -68 30t-117 -71q-68 -71 -116 -173l-99 -721h-324l131 962l-107 60l16 89l374 52l52 -24l-16 -210q68 109 164 171t211 63q265 0 265 -302
q0 -76 -36 -283t-46 -262t-9 -110z" />
    <glyph glyph-name="o" unicode="o" horiz-adv-x="1197" 
d="M548 107q66 0 112 56q46 55 71 147q47 180 42 374t-34 268t-91 73q-62 1 -110 -55t-74 -146q-52 -182 -47 -375q6 -193 35 -267q30 -74 96 -75zM686 1163q210 1 324 -119t121 -341q5 -147 -37 -279t-123 -230q-80 -98 -201 -156t-265 -58q-211 0 -323 119t-121 340
q-5 147 37 279t122 230t201 157q121 58 265 58z" />
    <glyph glyph-name="p" unicode="p" horiz-adv-x="1230" 
d="M528 119q74 -1 134 51t95 141q67 175 67 418q0 111 -36 185t-116 74q-79 0 -150 -97l-106 -758q38 -14 112 -14zM826 1163q168 -1 256 -113t88 -321t-83 -379t-237 -270t-354 -100q-51 0 -101 9l-71 -509h-318l200 1502l-117 50l19 79l393 52l52 -24l-10 -84
q115 108 283 108z" />
    <glyph glyph-name="q" unicode="q" horiz-adv-x="1227" 
d="M401 413q-1 -259 153 -259q78 0 150 98l111 756q-41 15 -115 15q-74 -1 -138 -57t-96 -150q-64 -180 -65 -403zM404 -20q-211 0 -295 174q-49 102 -49 234t26 242q53 230 217 382q164 151 434 151q125 0 254 -48l-1 -1l163 49l-192 -1437q-4 -28 6 -50q11 -22 37 -22
t87 46l28 -73q-25 -36 -76 -73q-99 -72 -216 -72q-118 0 -167 51t-44 120l63 431q-115 -104 -275 -104z" />
    <glyph glyph-name="r" unicode="r" horiz-adv-x="843" 
d="M818 1163q41 0 70 -20l-69 -357q-10 12 -44 22t-63 9q-109 0 -204 -57l-105 -760h-323l132 962l-107 60l17 89l328 52l53 -24l20 -273q39 133 111 215t184 82z" />
    <glyph glyph-name="s" unicode="s" horiz-adv-x="873" 
d="M310 134q70 0 118 30t48 90t-44 109t-110 95q-68 46 -98 76q-30 28 -61 70q-64 87 -64 234q-1 147 131 236t338 89q76 0 154 -12t106 -25l-43 -207q-87 100 -204 100q-68 0 -114 -30t-46 -87t40 -104t140 -118q202 -145 202 -352t-204 -296q-205 -90 -467 -30
q-100 22 -129 47l48 201q44 -42 116 -79t143 -37z" />
    <glyph glyph-name="t" unicode="t" horiz-adv-x="724" 
d="M106 159q0 39 27 239l81 596h-119l24 109l122 47q76 63 161 266h189l-33 -261h208l-23 -161h-206l-83 -604q-15 -110 -15 -139q0 -81 73 -81q101 0 169 57l25 -80q-149 -167 -407 -167q-85 0 -139 42t-54 137z" />
    <glyph glyph-name="u" unicode="u" horiz-adv-x="1276" 
d="M1094 151q29 0 92 46l28 -73q-23 -37 -73 -73q-97 -71 -204 -71t-153 44t-33 119l-4 3q-145 -166 -347 -166q-100 0 -189 54q-45 28 -73 80t-30 100q0 48 2 80t8 76q6 42 9 71q4 29 12 82t11 74l54 365l-126 80l16 89l403 32l52 -24l-69 -550q-4 -33 -20 -150t-17 -173
q0 -118 95 -118q106 0 194 99l124 908h326l-128 -928q-10 -76 40 -76z" />
    <glyph glyph-name="v" unicode="v" horiz-adv-x="1083" 
d="M243 1163q178 0 200 -137l106 -571l29 -216l74 128q68 130 102 226t34 209q0 34 -16 110t-17 125t41 87t106 39q117 0 149 -63q33 -63 35 -172q2 -110 -95 -300t-219 -344l-256 -293l-192 -12l-202 946q-20 100 -118 23l-29 80q69 83 169 118q48 17 99 17z" />
    <glyph glyph-name="w" unicode="w" horiz-adv-x="1742" 
d="M242 1163q178 0 200 -137l90 -587l26 -211l87 282l189 645h277l118 -750l30 -177l89 165q98 177 98 382q0 54 -16 136q-16 83 -16 129t42 84t105 39q117 -1 153 -69q73 -139 -23 -367q-95 -228 -266 -465l-194 -270l-240 -10l-68 373l-38 268l-1 138l-47 -138l-94 -296
l-135 -331l-283 -16l-202 945q-20 98 -119 23l-29 80q26 37 102 86t165 49z" />
    <glyph glyph-name="x" unicode="x" horiz-adv-x="1030" 
d="M121 984q-49 0 -80 -19l-39 84q26 32 110 73t196 41q162 0 195 -105l85 -252l222 349h305l-447 -568l159 -288q65 -120 102 -120q44 0 97 38l45 -84q-22 -34 -82 -74q-119 -79 -261 -79t-180 105l-99 288l-233 -373h-315l463 587l-165 314q-44 83 -78 83z" />
    <glyph glyph-name="y" unicode="y" horiz-adv-x="1084" 
d="M216 -349q84 0 154 62t153 216h-191l-210 996q-12 56 -43 56q-36 0 -75 -34l-29 81q40 58 124 96q83 39 160 39q157 0 184 -137q60 -310 135 -787l18 -159l61 124q134 272 134 533q0 73 -18 150t-18 137q-1 60 41 100q42 39 128 39q162 -1 162 -223t-218 -643
q-80 -155 -118 -229t-66 -126q-34 -65 -84 -154q-172 -306 -448 -306q-80 0 -158 15t-110 30l51 215q35 -27 115 -59q82 -32 166 -32z" />
    <glyph glyph-name="z" unicode="z" horiz-adv-x="1011" 
d="M328 1163l579 -35q67 0 108 35l53 -61l-649 -802l-72 -43h328q81 -1 128 45t54 117h85q12 -83 6 -186q-12 -195 -73 -236q-27 -20 -107 -20q-80 1 -324 17t-312 16q-67 0 -99 -33l-62 62l646 792l93 52l-303 1q-77 0 -123 -42t-52 -109h-88q-15 82 -8 186q12 196 75 222
q50 22 117 22z" />
    <glyph glyph-name="braceleft" unicode="{" horiz-adv-x="1044" 
d="M493 -226q-91 0 -144 12t-90 46t-37 85l94 662q0 33 -59 73t-158 62l18 124q246 60 257 128l84 547q22 139 104 195t188 57q107 0 238 -35l45 -12q-19 -98 -20 -117h-276l-96 -631q-10 -69 -98 -124l-145 -70q108 -57 150 -100t33 -101l-95 -630h275l-16 -124
q-161 -47 -252 -47z" />
    <glyph glyph-name="bar" unicode="|" horiz-adv-x="854" 
d="M340 -186v1966h213v-1966h-213z" />
    <glyph glyph-name="braceright" unicode="}" horiz-adv-x="1044" 
d="M555 1772q91 0 144 -12t90 -46t37 -85l-94 -662q0 -33 59 -73t158 -62l-18 -124q-246 -60 -257 -128l-84 -547q-22 -139 -104 -195t-188 -57q-107 0 -238 35l-45 12q19 98 20 117h276l96 631q10 69 98 124l145 70q-108 57 -150 100t-33 101l95 630h-275l16 124
q161 47 252 47z" />
    <glyph glyph-name="asciitilde" unicode="~" horiz-adv-x="1137" 
d="M384 854q-128 0 -192 -97l-84 119q26 78 116 144t196 66q62 0 116 -24t88 -52q90 -76 158 -76q121 0 192 107l104 -119q-23 -86 -118 -158t-204 -72q-66 0 -122 26t-90 55q-90 81 -160 81z" />
    <glyph glyph-name="DEL" 
 />
    <glyph glyph-name="nbspace" unicode="&#xa0;" horiz-adv-x="485" 
 />
    <glyph glyph-name="exclamdown" unicode="&#xa1;" horiz-adv-x="716" 
d="M632 1192q0 -78 -59 -134t-131 -55q-72 -1 -110 47q-39 48 -39 128t61 134q62 52 130 52t108 -46q40 -48 40 -126zM507 816l-126 -1250h-335l258 1250h203z" />
    <glyph glyph-name="cent" unicode="&#xa2;" horiz-adv-x="1056" 
d="M686 1006q-36 0 -78 -41t-78 -111q-79 -158 -72 -394q4 -156 46 -224t129 -67q156 0 254 128l64 -103q-47 -74 -151 -138t-249 -74l-36 -197h-150l38 206q-135 31 -209 148t-77 311q-6 297 176 510q127 149 330 189l46 209h150l-43 -195q147 -2 243 -38l-93 -322
q-22 7 -66 58t-91 98t-83 47z" />
    <glyph glyph-name="sterling" unicode="&#xa3;" horiz-adv-x="1395" 
d="M20 -20q-116 0 -116 86q0 54 76 102t169 47q70 100 89 208l52 301h-147l18 181h161l20 112q26 147 110 271t217 201q132 76 282 76q93 1 177 -23t131 -73l-103 -208q-14 32 -50 70q-72 75 -174 75t-158 -71t-83 -213l-42 -217h245l-17 -181h-262l-29 -153
q-36 -190 -184 -358l-23 -25q207 -34 325 -34q221 0 290 65t69 140q0 38 -19 72q-19 35 -38 51t-47 36l207 179q75 -45 132 -139t57 -208q1 -164 -139 -267t-394 -103q-179 0 -409 64q-108 30 -158 40q-39 -36 -109 -70t-126 -34z" />
    <glyph glyph-name="currency" unicode="&#xa4;" horiz-adv-x="1540" 
d="M576 690q0 -88 60 -152t146 -64t146 64t60 152t-60 152t-146 64t-146 -64t-60 -152zM342 689q0 128 68 236l-209 210l141 142l211 -213q107 64 233 64t235 -70l207 206l141 -142l-209 -209q62 -103 62 -226t-66 -228l211 -211l-142 -141l-211 210q-106 -65 -230 -65
t-227 61l-211 -211l-142 141l208 208q-70 110 -70 238z" />
    <glyph glyph-name="yen" unicode="&#xa5;" horiz-adv-x="1483" 
d="M274 0l12 106l279 30l30 240h-356l16 148h358l22 176h-359l18 152h260l-289 542l-114 26l15 112h683l-15 -112l-182 -26l189 -490l93 140l222 358l-120 18l15 112h559l-15 -112l-130 -28l-414 -540h229l-18 -152h-327l-23 -176h328l-16 -148h-331l-31 -240l293 -30
l-10 -106h-871z" />
    <glyph glyph-name="brokenbar" unicode="&#xa6;" horiz-adv-x="854" 
d="M340 -186v864h213v-864h-213zM340 916v864h213v-864h-213z" />
    <glyph glyph-name="section" unicode="&#xa7;" horiz-adv-x="1194" 
d="M379 870q1 -46 25 -85t72 -71t94 -59q48 -26 116 -62t114 -65q22 36 22 86t-24 87q-24 38 -72 70q-47 31 -95 57t-116 61t-113 63q-23 -36 -23 -82zM726 123q0 85 -124 157q-56 32 -123 65q-157 77 -255 166q-124 112 -125 281q0 168 149 298q-62 87 -62 202
q0 114 74 202t192 134t266 45t258 -23t158 -52l-56 -328h-189l-27 207q-68 53 -179 53t-159 -38q-49 -38 -49 -96t21 -96q20 -38 56 -66t82 -54q46 -25 96 -49t101 -50q108 -55 181 -137q74 -82 74 -216q0 -199 -139 -332q68 -92 68 -209t-69 -202q-139 -171 -445 -171
q-146 0 -277 24t-175 51l56 348h189l27 -224q83 -54 195 -53q210 2 210 163z" />
    <glyph glyph-name="dieresis" unicode="&#xa8;" horiz-adv-x="809" 
d="M160 1338q-59 0 -102 52t-41 126q3 74 49 130t120 55q74 0 117 -49q42 -50 40 -126t-47 -132t-136 -56zM612 1338q-59 0 -102 52t-41 126q3 74 49 130t120 55q74 0 117 -49q42 -50 40 -126t-47 -132t-136 -56z" />
    <glyph glyph-name="copyright" unicode="&#xa9;" horiz-adv-x="1768" 
d="M969 1247q68 0 136 -11t98 -27v-235h-104l-44 120q-43 39 -119 39t-133 -77q-56 -77 -57 -186q-2 -209 60 -284q62 -74 147 -74q132 0 220 50l40 -104q-46 -38 -127 -65q-82 -27 -182 -27t-187 60t-131 157q-44 98 -44 219q-1 122 49 222t149 162t229 61zM297 784
q0 -154 84 -303q85 -149 231 -236t321 -87t322 87t231 236t84 303t-50 273q-50 120 -134 207q-84 86 -204 138q-118 52 -249 52t-249 -52t-203 -138q-85 -87 -135 -207q-50 -119 -49 -273zM158 806q0 158 62 302t165 246q103 103 247 164t301 61t301 -61t248 -164
q104 -102 166 -246t61 -302q1 -158 -61 -302t-166 -246q-104 -104 -248 -165t-301 -61t-301 61t-247 165t-165 246q-62 144 -62 302z" />
    <glyph glyph-name="ordfeminine" unicode="&#xaa;" horiz-adv-x="854" 
d="M421 881q55 0 114 55l91 523q-27 16 -72 16q-45 1 -94 -37t-77 -100q-55 -123 -55 -249t19 -167t74 -41zM274 743q-104 -1 -167 79t-63 196t43 213t115 173t178 124q104 48 204 49q100 0 184 -27l147 36l-117 -666q-9 -54 12 -54q20 0 56 20l33 -54q-15 -17 -93 -53
t-142 -36t-98 35t-28 91q-45 -57 -103 -91q-57 -34 -161 -35z" />
    <glyph glyph-name="guillemotleft" unicode="&#xab;" horiz-adv-x="1878" 
d="M869 530l22 160l732 406l58 -175l-460 -316l374 -311l-100 -152zM193 530l22 160l732 406l58 -175l-460 -316l374 -311l-100 -152z" />
    <glyph glyph-name="logicalnot" unicode="&#xac;" horiz-adv-x="1370" 
d="M209 701l19 172h980l-62 -551h-217l43 379h-763z" />
    <glyph glyph-name="registered" unicode="&#xae;" horiz-adv-x="1768" 
d="M944 840q72 0 106 42t33 111q0 132 -156 132q-51 0 -93 -10v-267q38 -8 110 -8zM1338 453v-78h-210q-44 0 -82 111q-16 46 -54 114t-89 120h-69v-251l92 -20v-74h-364v74l83 20v665l-83 22v84h154l238 5q159 -1 246 -63t90 -168q0 -125 -53 -183t-162 -94
q86 -48 129 -144q43 -97 87 -128q24 -12 47 -12zM297 784q0 -154 84 -303q85 -149 231 -236t321 -87t322 87t231 236t84 303t-50 273q-50 120 -134 207q-84 86 -204 138q-118 52 -249 52t-249 -52t-203 -138q-85 -87 -135 -207q-50 -119 -49 -273zM158 806q0 158 62 302
t165 246q103 103 247 164t301 61t301 -61t248 -164q104 -102 166 -246t61 -302q1 -158 -61 -302t-166 -246q-104 -104 -248 -165t-301 -61t-301 61t-247 165t-165 246q-62 144 -62 302z" />
    <glyph glyph-name="macron" unicode="&#xaf;" horiz-adv-x="614" 
d="M11 1405v209h571v-209h-571z" />
    <glyph glyph-name="degree" unicode="&#xb0;" horiz-adv-x="957" 
d="M532 1091q75 -1 126 53q50 54 52 132t-49 134q-51 54 -126 54t-125 -53t-52 -131t48 -134q50 -55 126 -55zM526 934q-150 0 -248 100t-96 246q2 145 104 243t254 98q150 0 249 -100q99 -99 97 -245t-106 -244t-254 -98z" />
    <glyph glyph-name="plusminus" unicode="&#xb1;" horiz-adv-x="1330" 
d="M180 0l17 180h849l-17 -180h-849zM531 275l27 241l26 164l-141 -7h-195l18 198h216l138 -11l13 165l27 230h218l-26 -230l-29 -164l115 10h225l-18 -198h-245l-112 7q-1 -31 -5 -88t-5 -76l-28 -241h-219z" />
    <glyph glyph-name="twosuperior" unicode="&#xb2;" horiz-adv-x="1163" 
d="M734 1329q0 63 -45 109t-119 46t-153 -40q-78 -40 -138 -108l-80 114q51 70 177 143t231 74q104 1 174 -17q125 -31 175 -106t50 -168q0 -161 -118 -296t-363 -287l405 45l95 135l103 -29l-95 -307h-828l-45 96q396 235 528 455q46 78 46 141z" />
    <glyph glyph-name="threesuperior" unicode="&#xb3;" horiz-adv-x="1071" 
d="M427 730q277 0 277 204q0 63 -46 90t-129 29l-174 -45l29 173q123 22 196 64q72 42 100 84t29 84t-39 69t-116 27q-126 0 -248 -94l-46 132q76 59 174 91t195 33q365 0 365 -239q0 -107 -77 -172t-226 -109q185 0 255 -110q36 -55 35 -133q0 -78 -49 -148t-129 -113
q-164 -86 -368 -86q-61 0 -144 19t-136 53l17 148q48 -23 124 -37t131 -14z" />
    <glyph glyph-name="acute" unicode="&#xb4;" horiz-adv-x="559" 
d="M153 1231l-103 81l317 431l192 -187q-19 -34 -93 -102t-166 -135q-92 -66 -147 -88z" />
    <glyph glyph-name="mu" unicode="&#xb5;" horiz-adv-x="1364" 
d="M569 1034q-9 -157 -38 -325q-29 -167 -37 -222t-8 -145t36 -131t75 -41t60 6t39 22t28 24q8 8 26 35q18 26 23 31l119 867h326l-128 -928q-10 -76 40 -76q30 0 92 46l28 -73q-28 -48 -105 -96t-161 -48t-124 30t-33 108q-5 -4 -23 -26q-94 -112 -217 -112q-77 0 -137 20
t-83 56l-61 -428h-265l108 730q6 48 38 246t42 319q0 58 -43 58q-34 0 -74 -32l-30 79l17 17q118 118 297 118t173 -129z" />
    <glyph glyph-name="paragraph" unicode="&#xb6;" horiz-adv-x="1364" 
d="M60 1073q0 498 655 498q91 -1 213 -9t213 -10h297l-11 -103l-167 -33q-24 -206 -82 -648t-82 -652l155 -30l-9 -86h-441l175 1414h-194l-177 -1414h-469l8 87l205 30l73 561q-150 0 -256 116t-106 279z" />
    <glyph glyph-name="periodcentered" unicode="&#xb7;" horiz-adv-x="716" 
d="M172 798q0 78 59 134t131 55q72 1 110 -47q39 -48 39 -128t-61 -134q-62 -52 -130 -52t-108 46q-40 48 -40 126z" />
    <glyph glyph-name="cedilla" unicode="&#xb8;" horiz-adv-x="479" 
d="M460 -238q0 -246 -298 -246q-46 0 -114 8t-84 20l35 153q29 -16 95 -16q66 -1 114 37t52 130t-15 182l77 4l83 -4q21 -29 38 -114t17 -154z" />
    <glyph glyph-name="onesuperior" unicode="&#xb9;" horiz-adv-x="1020" 
d="M242 636l11 108l196 26l82 605l-221 -42l-12 113q84 25 224 95t182 104l119 -21l-119 -854l205 -27l-11 -107h-656z" />
    <glyph glyph-name="ordmasculine" unicode="&#xba;" horiz-adv-x="854" 
d="M637 1248q0 88 -30 162q-31 72 -85 72t-96 -37q-42 -36 -72 -122q-32 -86 -32 -211t29 -194t75 -70t86 21q38 22 61 57q23 34 38 84t21 100t5 138zM413 733q-155 0 -255 97t-100 255q0 117 42 215t112 160q147 131 325 130q177 -2 271 -100t95 -256q0 -118 -40 -214
q-41 -96 -109 -159q-142 -128 -341 -128z" />
    <glyph glyph-name="guillemotright" unicode="&#xbb;" horiz-adv-x="1878" 
d="M1589 708l-22 -160l-732 -406l-58 175l460 316l-374 311l100 152zM913 708l-22 -160l-732 -406l-58 175l460 316l-374 311l100 152z" />
    <glyph glyph-name="onequarter" unicode="&#xbc;" horiz-adv-x="2560" 
d="M784 0l681 1530h219l-681 -1530h-219zM1896 -175l47 331h-549l-37 95l574 863l158 1l123 -104l-448 -573l-127 -134l328 11l33 232l247 23l-33 -246l189 7l-20 -175h-192l-45 -331h-248zM273 636l11 108l196 26l82 605l-221 -42l-12 113q84 25 224 95t182 104l119 -21
l-119 -854l205 -27l-11 -107h-656z" />
    <glyph glyph-name="onehalf" unicode="&#xbd;" horiz-adv-x="2560" 
d="M1969 614q0 63 -45 109q-46 46 -120 46q-74 1 -152 -39t-138 -109l-80 114q52 70 178 143t230 74q104 2 174 -16q125 -31 175 -107q50 -75 50 -168q1 -161 -117 -296t-364 -287l405 45l95 135l103 -29l-95 -307h-828l-45 96q395 235 527 455q46 78 47 141zM273 636
l11 108l196 26l82 605l-221 -42l-12 113q84 25 224 95t182 104l119 -21l-119 -854l205 -27l-11 -107h-656zM784 0l681 1530h219l-681 -1530h-219z" />
    <glyph glyph-name="threequarters" unicode="&#xbe;" horiz-adv-x="2575" 
d="M784 0l681 1530h219l-681 -1530h-219zM1896 -175l47 331h-549l-37 95l574 863l158 1l123 -104l-448 -573l-127 -134l328 11l33 232l247 23l-33 -246l189 7l-20 -175h-192l-45 -331h-248zM636 1671q365 0 365 -239q0 -107 -77 -172t-226 -109q184 0 254 -110
q36 -55 36 -133t-49 -148t-129 -113q-164 -86 -368 -86q-61 0 -144 19t-136 53l17 148q47 -23 123 -37t132 -14q277 0 277 204q1 63 -45 90t-130 29l-174 -45l29 173q123 22 196 64t101 84t28 84t-40 69t-115 27q-126 0 -248 -94l-46 132q160 124 369 124z" />
    <glyph glyph-name="questiondown" unicode="&#xbf;" horiz-adv-x="1013" 
d="M889 788q0 -146 -89 -236t-228 -173q-141 -72 -220 -158q-28 -61 -31 -111q-7 -130 88 -212t255 -82q95 0 211 58l-56 -220q-25 -23 -109 -48t-172 -25q-88 -1 -178 23q-163 43 -236 147q-74 104 -74 248t68 239q68 96 174 168q48 32 96 63q106 68 177 150t75 216l-4 50
l189 55l14 -1q50 -71 50 -151zM660 1073q-68 1 -109 47q-40 46 -40 124t59 134q58 56 130 56t111 -48t39 -128t-61 -132t-129 -53z" />
    <glyph glyph-name="Agrave" unicode="&#xc0;" horiz-adv-x="1375" 
d="M822 1570q-86 32 -196 109t-151 150l187 185l276 -342zM406 567h422l-78 550l-9 199zM-18 135l685 1395h347l247 -1392l161 -32l-6 -106h-689l5 106l157 29l-40 281h-510l-125 -280l188 -30l-8 -106h-558l8 106z" />
    <glyph glyph-name="Aacute" unicode="&#xc1;" horiz-adv-x="1375" 
d="M831 1570l-116 102l276 342l187 -185q-36 -69 -149 -148t-198 -111zM406 567h422l-78 550l-9 199zM-18 135l685 1395h347l247 -1392l161 -32l-6 -106h-689l5 106l157 29l-40 281h-510l-125 -280l188 -30l-8 -106h-558l8 106z" />
    <glyph glyph-name="Acircumflex" unicode="&#xc2;" horiz-adv-x="1375" 
d="M575 1600l-107 57l367 357h178l210 -357l-124 -58l-201 207zM406 567h422l-78 550l-9 199zM-18 135l685 1395h347l247 -1392l161 -32l-6 -106h-689l5 106l157 29l-40 281h-510l-125 -280l188 -30l-8 -106h-558l8 106z" />
    <glyph glyph-name="Atilde" unicode="&#xc3;" horiz-adv-x="1375" 
d="M743 1970q57 0 93 -16q44 -19 100 -76q55 -58 91 -58q65 0 96 28q32 28 66 72l88 -131q-27 -69 -101 -125t-137 -56q-62 0 -100 15q-37 15 -61 37t-45 44q-115 120 -255 -27l-77 124q32 65 108 117t134 52zM406 567h422l-78 550l-9 199zM-18 135l685 1395h347l247 -1392
l161 -32l-6 -106h-689l5 106l157 29l-40 281h-510l-125 -280l188 -30l-8 -106h-558l8 106z" />
    <glyph glyph-name="Adieresis" unicode="&#xc4;" horiz-adv-x="1375" 
d="M596 1661q-74 0 -112 42q-38 43 -36 115t46 119q45 47 118 47q72 0 110 -40t36 -113q-2 -74 -46 -122t-116 -48zM1048 1661q-74 0 -112 42q-38 43 -36 115t46 119q45 47 118 47q72 0 110 -40t36 -113q-2 -74 -46 -122t-116 -48zM406 567h422l-78 550l-9 199zM-18 135
l685 1395h347l247 -1392l161 -32l-6 -106h-689l5 106l157 29l-40 281h-510l-125 -280l188 -30l-8 -106h-558l8 106z" />
    <glyph glyph-name="Aring" unicode="&#xc5;" horiz-adv-x="1375" 
d="M406 567h422l-78 550l-9 199zM838 1630q165 0 165 133q0 51 -40 83t-102 32t-111 -30t-49 -93q-1 -61 41 -93t96 -32zM507 1721q-1 187 183 257q93 36 216 36q122 0 206 -58t84 -160q0 -195 -182 -270l247 -1388l161 -32l-6 -106h-689l5 106l157 29l-40 281h-510
l-125 -280l188 -30l-8 -106h-558l8 106l138 29l678 1380q-153 53 -153 206z" />
    <glyph glyph-name="AE" unicode="&#xc6;" horiz-adv-x="2084" 
d="M519 567h410l105 827h-59zM2 136l771 1258l-336 26l15 110h1566l-36 -370h-212l-34 224l-349 26l-67 -529l444 24l-23 -218l-441 25l-78 -576l479 35l117 297l213 -14l-70 -454h-1290l14 106l190 30l35 280h-474l-154 -280l190 -30l-8 -106h-627l8 106z" />
    <glyph glyph-name="Ccedilla" unicode="&#xc7;" horiz-adv-x="1312" 
d="M490 -317q66 -1 114 37t52 116t-7 149q-363 12 -505 278q-84 156 -84 370q0 430 242 673t647 243q141 0 201 -11t104 -23t54 -14l33 -9l-61 -400h-253l-40 310q-47 18 -117 18t-146 -48q-137 -85 -209 -291q-71 -206 -64 -444t73 -365t208 -127q140 0 216 74
q36 41 80 200l201 1l-43 -284q-40 -33 -79 -57q-39 -25 -117 -51t-170 -36q36 -106 36 -228q0 -246 -298 -246q-46 0 -114 8t-84 20l35 153q29 -16 95 -16z" />
    <glyph glyph-name="Egrave" unicode="&#xc8;" horiz-adv-x="1329" 
d="M828 1570q-86 32 -196 109t-151 150l187 185l276 -342zM-46 0l14 106l160 30l164 1258l-145 26l11 110h1118l-36 -370h-222l-34 224l-339 26l-72 -529l444 24l-23 -218l-441 25l-78 -576l463 35l117 297l213 -14l-70 -454h-1244z" />
    <glyph glyph-name="Eacute" unicode="&#xc9;" horiz-adv-x="1329" 
d="M837 1570l-116 102l276 342l187 -185q-36 -69 -149 -148t-198 -111zM-46 0l14 106l160 30l164 1258l-145 26l11 110h1118l-36 -370h-222l-34 224l-339 26l-72 -529l444 24l-23 -218l-441 25l-78 -576l463 35l117 297l213 -14l-70 -454h-1244z" />
    <glyph glyph-name="Ecircumflex" unicode="&#xca;" horiz-adv-x="1329" 
d="M581 1600l-107 57l367 357h178l210 -357l-124 -58l-201 207zM-46 0l14 106l160 30l164 1258l-145 26l11 110h1118l-36 -370h-222l-34 224l-339 26l-72 -529l444 24l-23 -218l-441 25l-78 -576l463 35l117 297l213 -14l-70 -454h-1244z" />
    <glyph glyph-name="Edieresis" unicode="&#xcb;" horiz-adv-x="1329" 
d="M602 1661q-74 0 -112 42q-38 43 -36 115t46 119q45 47 118 47q72 0 110 -40t36 -113q-2 -74 -46 -122t-116 -48zM1054 1661q-74 0 -112 42q-38 43 -36 115t46 119q45 47 118 47q72 0 110 -40t36 -113q-2 -74 -46 -122t-116 -48zM-46 0l14 106l160 30l164 1258l-145 26
l11 110h1118l-36 -370h-222l-34 224l-339 26l-72 -529l444 24l-23 -218l-441 25l-78 -576l463 35l117 297l213 -14l-70 -454h-1244z" />
    <glyph glyph-name="Igrave" unicode="&#xcc;" horiz-adv-x="783" 
d="M547 1570q-87 32 -197 109t-150 150l187 185l276 -342zM-18 0l13 106l150 30l165 1258l-147 26l12 110h671l-12 -110l-172 -26l-165 -1258l175 -30l-7 -106h-683z" />
    <glyph glyph-name="Iacute" unicode="&#xcd;" horiz-adv-x="783" 
d="M556 1570l-116 102l276 342l187 -185q-36 -69 -149 -148t-198 -111zM-18 0l13 106l150 30l165 1258l-147 26l12 110h671l-12 -110l-172 -26l-165 -1258l175 -30l-7 -106h-683z" />
    <glyph glyph-name="Icircumflex" unicode="&#xce;" horiz-adv-x="783" 
d="M300 1600l-107 57l367 357h178l210 -357l-124 -58l-201 207zM-18 0l13 106l150 30l165 1258l-147 26l12 110h671l-12 -110l-172 -26l-165 -1258l175 -30l-7 -106h-683z" />
    <glyph glyph-name="Idieresis" unicode="&#xcf;" horiz-adv-x="783" 
d="M321 1661q-73 0 -111 42q-38 43 -38 115q2 72 47 119t118 47t111 -40t35 -113q-1 -74 -45 -122t-117 -48zM773 1661q-73 0 -111 42q-38 43 -38 115q2 72 47 119t118 47t111 -40t35 -113q-1 -74 -45 -122t-117 -48zM-18 0l13 106l150 30l165 1258l-147 26l12 110h671
l-12 -110l-172 -26l-165 -1258l175 -30l-7 -106h-683z" />
    <glyph glyph-name="Eth" unicode="&#xd0;" horiz-adv-x="1506" 
d="M634 113q86 1 172 49q155 87 230 292q75 206 75 461t-74 381t-235 126q-114 0 -159 -26l-69 -524h296l-26 -170h-293l-74 -564q71 -25 157 -25zM1488 951q0 -196 -32 -337q-67 -294 -279 -461t-585 -167q-30 0 -92 7t-176 9h-368l12 106l158 30l75 564h-136l26 170h133
l70 524l-144 26l11 110h317l357 16q404 2 562 -254q91 -148 91 -343z" />
    <glyph glyph-name="Ntilde" unicode="&#xd1;" horiz-adv-x="1545" 
d="M853 1970q57 0 93 -16q44 -19 100 -76q55 -58 91 -58q65 0 96 28q32 28 66 72l88 -131q-27 -69 -101 -125t-137 -56q-62 0 -100 15q-37 15 -61 37t-45 44q-115 120 -255 -27l-77 124q32 65 108 117t134 52zM-33 0l8 106l149 30l186 1258l-170 26l16 110h557l371 -995
l78 -230l136 1089l-172 26l11 110h502l-11 -110l-123 -26l-212 -1394h-358l-391 1028l-78 254l-125 -1146l190 -30l-11 -106h-553z" />
    <glyph glyph-name="Ograve" unicode="&#xd2;" horiz-adv-x="1500" 
d="M877 1570q-87 32 -197 109t-150 150l187 185l276 -342zM684 102q100 0 178 60t125 168q97 217 97 551q0 545 -246 545q-94 0 -172 -66t-128 -178q-102 -229 -102 -505q0 -277 43 -397q43 -119 113 -156q40 -22 92 -22zM569 1500q135 50 293 50t276 -54t188 -146
q139 -185 139 -476q-1 -292 -137 -530q-93 -163 -262 -264q-169 -100 -411 -100q-358 0 -509 264q-91 160 -91 424q0 263 132 501q132 237 382 331z" />
    <glyph glyph-name="Oacute" unicode="&#xd3;" horiz-adv-x="1500" 
d="M886 1570l-116 102l276 342l187 -185q-36 -69 -149 -148t-198 -111zM684 102q100 0 178 60t125 168q97 217 97 551q0 545 -246 545q-94 0 -172 -66t-128 -178q-102 -229 -102 -505q0 -277 43 -397q43 -119 113 -156q40 -22 92 -22zM569 1500q135 50 293 50t276 -54
t188 -146q139 -185 139 -476q-1 -292 -137 -530q-93 -163 -262 -264q-169 -100 -411 -100q-358 0 -509 264q-91 160 -91 424q0 263 132 501q132 237 382 331z" />
    <glyph glyph-name="Ocircumflex" unicode="&#xd4;" horiz-adv-x="1500" 
d="M630 1600l-107 57l367 357h178l210 -357l-124 -58l-201 207zM684 102q100 0 178 60t125 168q97 217 97 551q0 545 -246 545q-94 0 -172 -66t-128 -178q-102 -229 -102 -505q0 -277 43 -397q43 -119 113 -156q40 -22 92 -22zM569 1500q135 50 293 50t276 -54t188 -146
q139 -185 139 -476q-1 -292 -137 -530q-93 -163 -262 -264q-169 -100 -411 -100q-358 0 -509 264q-91 160 -91 424q0 263 132 501q132 237 382 331z" />
    <glyph glyph-name="Otilde" unicode="&#xd5;" horiz-adv-x="1500" 
d="M798 1970q58 0 94 -16q44 -19 99 -76q55 -58 91 -58q65 0 96 28q32 28 66 72l88 -131q-28 -69 -102 -125t-136 -56t-100 15t-62 37t-44 44q-115 120 -255 -27l-77 124q32 65 108 117t134 52zM684 102q100 0 178 60t125 168q97 217 97 551q0 545 -246 545q-94 0 -172 -66
t-128 -178q-102 -229 -102 -505q0 -277 43 -397q43 -119 113 -156q40 -22 92 -22zM569 1500q135 50 293 50t276 -54t188 -146q139 -185 139 -476q-1 -292 -137 -530q-93 -163 -262 -264q-169 -100 -411 -100q-358 0 -509 264q-91 160 -91 424q0 263 132 501q132 237 382 331
z" />
    <glyph glyph-name="Odieresis" unicode="&#xd6;" horiz-adv-x="1500" 
d="M651 1661q-73 0 -111 42q-38 43 -38 115q2 72 47 119t118 47t111 -40t35 -113q-1 -74 -45 -122t-117 -48zM1103 1661q-73 0 -111 42q-38 43 -38 115q2 72 47 119t118 47t111 -40t35 -113q-1 -74 -45 -122t-117 -48zM684 102q100 0 178 60t125 168q97 217 97 551
q0 545 -246 545q-94 0 -172 -66t-128 -178q-102 -229 -102 -505q0 -277 43 -397q43 -119 113 -156q40 -22 92 -22zM569 1500q135 50 293 50t276 -54t188 -146q139 -185 139 -476q-1 -292 -137 -530q-93 -163 -262 -264q-169 -100 -411 -100q-358 0 -509 264q-91 160 -91 424
q0 263 132 501q132 237 382 331z" />
    <glyph glyph-name="multiply" unicode="&#xd7;" horiz-adv-x="1370" 
d="M700 635l-368 -349l-129 154l382 326l-301 327l163 152l281 -350l368 349l129 -154l-382 -326l301 -327l-163 -152z" />
    <glyph glyph-name="Oslash" unicode="&#xd8;" horiz-adv-x="1499" 
d="M684 104q100 0 178 60t125 168q97 217 97 551q0 175 -25 296l-570 -922q60 -153 195 -153zM838 1428q-94 0 -172 -66t-128 -178q-102 -229 -102 -533q0 -157 18 -262l563 915q-60 124 -179 124zM55 639q0 294 132 532q132 237 382 331q135 50 299 50t293 -65l130 183
l89 -49l-134 -189q110 -88 164 -228t55 -274q-1 -134 -15 -228t-45 -186q-31 -90 -77 -170q-93 -163 -262 -264q-169 -100 -386 -100q-216 0 -352 78l-129 -182l-89 49l136 193q-191 174 -191 519z" />
    <glyph glyph-name="Ugrave" unicode="&#xd9;" horiz-adv-x="1447" 
d="M953 1570q-87 32 -197 109t-150 150l187 185l276 -342zM128 442q0 92 7 151l100 801l-144 26l13 110h704l-10 -109l-197 -27l-97 -771q-17 -153 -17 -201q0 -148 61 -233t184 -85q179 0 266 138t121 384l104 768l-168 27l11 109h484l-15 -109l-129 -27l-97 -767
q-44 -349 -202 -498t-437 -149q-350 0 -472 183q-70 105 -70 279z" />
    <glyph glyph-name="Uacute" unicode="&#xda;" horiz-adv-x="1447" 
d="M962 1570l-116 102l276 342l187 -185q-36 -69 -149 -148t-198 -111zM128 442q0 92 7 151l100 801l-144 26l13 110h704l-10 -109l-197 -27l-97 -771q-17 -153 -17 -201q0 -148 61 -233t184 -85q179 0 266 138t121 384l104 768l-168 27l11 109h484l-15 -109l-129 -27
l-97 -767q-44 -349 -202 -498t-437 -149q-350 0 -472 183q-70 105 -70 279z" />
    <glyph glyph-name="Ucircumflex" unicode="&#xdb;" horiz-adv-x="1447" 
d="M706 1600l-107 57l367 357h178l210 -357l-124 -58l-201 207zM128 442q0 92 7 151l100 801l-144 26l13 110h704l-10 -109l-197 -27l-97 -771q-17 -153 -17 -201q0 -148 61 -233t184 -85q179 0 266 138t121 384l104 768l-168 27l11 109h484l-15 -109l-129 -27l-97 -767
q-44 -349 -202 -498t-437 -149q-350 0 -472 183q-70 105 -70 279z" />
    <glyph glyph-name="Udieresis" unicode="&#xdc;" horiz-adv-x="1447" 
d="M727 1661q-73 0 -111 42q-38 43 -38 115q2 72 47 119t118 47t111 -40t35 -113q-1 -74 -45 -122t-117 -48zM1179 1661q-73 0 -111 42q-38 43 -38 115q2 72 47 119t118 47t111 -40t35 -113q-1 -74 -45 -122t-117 -48zM128 442q0 92 7 151l100 801l-144 26l13 110h704
l-10 -109l-197 -27l-97 -771q-17 -153 -17 -201q0 -148 61 -233t184 -85q179 0 266 138t121 384l104 768l-168 27l11 109h484l-15 -109l-129 -27l-97 -767q-44 -349 -202 -498t-437 -149q-350 0 -472 183q-70 105 -70 279z" />
    <glyph glyph-name="Yacute" unicode="&#xdd;" horiz-adv-x="1281" 
d="M814 1570l-116 102l276 342l187 -185q-36 -69 -149 -148t-198 -111zM161 0l12 106l230 30l58 469l-331 789l-111 26l12 110h684l-17 -110l-181 -26l172 -486l53 -123l354 609l-164 26l10 110h533l-15 -110l-130 -26l-515 -789l-61 -469l245 -30l-10 -106h-828z" />
    <glyph glyph-name="Thorn" unicode="&#xde;" horiz-adv-x="1290" 
d="M637 519q136 0 229 81t87 255q-5 111 -63 169t-144 59q-88 0 -148 -11l-71 -553h110zM828 1209q92 0 176 -19q156 -35 227 -132q71 -98 48 -274q-41 -318 -443 -386q-98 -16 -196 -16t-130 3l-31 -249l174 -30l-8 -106h-667l11 106l138 30l160 1258l-145 26l14 110h675
l-12 -110l-180 -26l-25 -193q122 8 214 8z" />
    <glyph glyph-name="germandbls" unicode="&#xdf;" horiz-adv-x="1193" 
d="M810 1585q85 0 176 -34q92 -35 150 -105t58 -148t-17 -130q-17 -50 -44 -82t-60 -56q-33 -26 -65 -45t-60 -39q-61 -44 -61 -93q1 -50 29 -90t54 -74q26 -35 52 -65t40 -46q96 -117 96 -237q0 -169 -116 -263t-312 -94q-197 0 -287 47l26 187q25 -35 81 -69
q56 -33 100 -33q77 1 123 30t46 131t-92 246q-45 61 -77 135t-32 128q0 52 16 90t34 60t58 63q138 141 138 288q0 77 -36 127t-101 50q-108 0 -177 -140t-103 -457l-107 -867h-333l113 927q52 359 220 511q138 124 334 142q50 4 136 5z" />
    <glyph glyph-name="agrave" unicode="&#xe0;" horiz-adv-x="1215" 
d="M707 1241q-72 30 -207 139t-179 186l203 177l288 -432zM552 154q66 0 128 55l110 808q-34 6 -86 6t-108 -38q-98 -67 -144 -227t-46 -313q0 -155 40 -223t106 -68zM60 416q0 104 28 214q57 229 225 381t433 152q113 0 238 -43l152 43l-129 -936q-8 -76 39 -76q33 0 93 46
l28 -73q-25 -37 -74 -74q-94 -70 -188 -70q-184 0 -188 126q-126 -126 -304 -126q-261 0 -333 258q-20 74 -20 178z" />
    <glyph glyph-name="aacute" unicode="&#xe1;" horiz-adv-x="1215" 
d="M752 1231l-103 81l317 431l192 -187q-18 -34 -92 -102t-166 -135q-92 -66 -148 -88zM552 154q66 0 128 55l110 808q-34 6 -86 6t-108 -38q-98 -67 -144 -227t-46 -313q0 -155 40 -223t106 -68zM60 416q0 104 28 214q57 229 225 381t433 152q113 0 238 -43l152 43
l-129 -936q-8 -76 39 -76q33 0 93 46l28 -73q-25 -37 -74 -74q-94 -70 -188 -70q-184 0 -188 126q-126 -126 -304 -126q-261 0 -333 258q-20 74 -20 178z" />
    <glyph glyph-name="acircumflex" unicode="&#xe2;" horiz-adv-x="1215" 
d="M501 1239l-107 57l367 374h178l210 -374l-124 -58l-201 194zM552 154q66 0 128 55l110 808q-34 6 -86 6t-108 -38q-98 -67 -144 -227t-46 -313q0 -155 40 -223t106 -68zM60 416q0 104 28 214q57 229 225 381t433 152q113 0 238 -43l152 43l-129 -936q-8 -76 39 -76
q33 0 93 46l28 -73q-25 -37 -74 -74q-94 -70 -188 -70q-184 0 -188 126q-126 -126 -304 -126q-261 0 -333 258q-20 74 -20 178z" />
    <glyph glyph-name="atilde" unicode="&#xe3;" horiz-adv-x="1215" 
d="M627 1680q57 0 93 -16q44 -19 100 -76q55 -58 91 -58q65 0 96 28q32 28 66 72l88 -131q-27 -69 -101 -125t-137 -56q-62 0 -100 15q-37 15 -61 37t-45 44q-115 120 -255 -27l-77 124q32 65 108 117t134 52zM552 154q66 0 128 55l110 808q-34 6 -86 6t-108 -38
q-98 -67 -144 -227t-46 -313q0 -155 40 -223t106 -68zM60 416q0 104 28 214q57 229 225 381t433 152q113 0 238 -43l152 43l-129 -936q-8 -76 39 -76q33 0 93 46l28 -73q-25 -37 -74 -74q-94 -70 -188 -70q-184 0 -188 126q-126 -126 -304 -126q-261 0 -333 258
q-20 74 -20 178z" />
    <glyph glyph-name="adieresis" unicode="&#xe4;" horiz-adv-x="1215" 
d="M538 1338q-59 0 -102 52t-41 126q3 74 49 130t120 55q74 0 117 -49q42 -50 40 -126t-47 -132t-136 -56zM990 1338q-59 0 -102 52t-41 126q3 74 49 130t120 55q74 0 117 -49q42 -50 40 -126t-47 -132t-136 -56zM552 154q66 0 128 55l110 808q-34 6 -86 6t-108 -38
q-98 -67 -144 -227t-46 -313q0 -155 40 -223t106 -68zM60 416q0 104 28 214q57 229 225 381t433 152q113 0 238 -43l152 43l-129 -936q-8 -76 39 -76q33 0 93 46l28 -73q-25 -37 -74 -74q-94 -70 -188 -70q-184 0 -188 126q-126 -126 -304 -126q-261 0 -333 258
q-20 74 -20 178z" />
    <glyph glyph-name="aring" unicode="&#xe5;" horiz-adv-x="1215" 
d="M798 1396q60 0 109 32q48 32 48 98t-41 102t-101 36t-110 -35t-50 -98q1 -63 43 -99t102 -36zM459 1497q-1 189 183 267q95 40 216 40q122 0 206 -64t84 -173q0 -77 -34 -139t-88 -98q-112 -76 -257 -77t-227 63t-83 181zM552 154q66 0 128 55l110 808q-34 6 -86 6
t-108 -38q-98 -67 -144 -227t-46 -313q0 -155 40 -223t106 -68zM60 416q0 104 28 214q57 229 225 381t433 152q113 0 238 -43l152 43l-129 -936q-8 -76 39 -76q33 0 93 46l28 -73q-25 -37 -74 -74q-94 -70 -188 -70q-184 0 -188 126q-126 -126 -304 -126q-261 0 -333 258
q-20 74 -20 178z" />
    <glyph glyph-name="ae" unicode="&#xe6;" horiz-adv-x="1710" 
d="M406 413q0 -233 88 -233t203 156l104 687q-79 -1 -145 -40q-121 -71 -185 -233q-65 -161 -65 -337zM1298 1025q-54 -1 -96 -43t-76 -143t-44 -264q98 5 194 83q46 38 76 98t28 130q-6 139 -82 139zM373 -20q-313 0 -313 412q0 244 133 447t361 281q122 42 236 43
q114 0 228 -30l89 30l-8 -63q126 63 281 63q156 -1 236 -69t84 -164t-24 -165t-76 -117q-101 -101 -241 -145t-277 -48q0 -296 187 -296q178 0 298 156l64 -103q-47 -75 -166 -154q-119 -78 -293 -78q-324 0 -412 266q-120 -182 -267 -242q-59 -24 -120 -24z" />
    <glyph glyph-name="ccedilla" unicode="&#xe7;" horiz-adv-x="944" 
d="M616 -238q0 -246 -298 -246q-46 0 -114 8t-84 20l35 153q29 -16 95 -16q66 -1 114 37q74 58 45 264q-161 12 -253 132t-96 337t104 406q174 306 558 306q144 0 241 -38l-93 -322q-22 7 -66 58t-91 98t-83 47t-78 -41t-78 -111q-79 -158 -72 -394q4 -156 46 -224t129 -67
q156 0 254 128l64 -103q-38 -62 -121 -120t-196 -80q38 -107 38 -232z" />
    <glyph glyph-name="egrave" unicode="&#xe8;" horiz-adv-x="1048" 
d="M649 1241q-72 30 -207 139t-179 186l203 177l288 -432zM636 1025q-54 -1 -96 -43t-76 -143t-44 -264q98 5 194 83q46 38 76 98t28 130q-6 139 -82 139zM700 1163q172 -1 254 -69q80 -68 84 -164t-24 -165t-76 -117q-101 -101 -241 -145t-277 -48q0 -296 187 -296
q178 0 298 156l64 -103q-47 -75 -166 -154q-119 -78 -304 -78q-323 0 -413 282q-24 78 -25 168q-1 210 85 378t234 262t320 93z" />
    <glyph glyph-name="eacute" unicode="&#xe9;" horiz-adv-x="1048" 
d="M694 1231l-103 81l317 431l192 -187q-18 -34 -92 -102t-166 -135q-92 -66 -148 -88zM636 1025q-54 -1 -96 -43t-76 -143t-44 -264q98 5 194 83q46 38 76 98t28 130q-6 139 -82 139zM700 1163q172 -1 254 -69q80 -68 84 -164t-24 -165t-76 -117q-101 -101 -241 -145
t-277 -48q0 -296 187 -296q178 0 298 156l64 -103q-47 -75 -166 -154q-119 -78 -304 -78q-323 0 -413 282q-24 78 -25 168q-1 210 85 378t234 262t320 93z" />
    <glyph glyph-name="ecircumflex" unicode="&#xea;" horiz-adv-x="1048" 
d="M443 1239l-107 57l367 374h178l210 -374l-124 -58l-201 194zM636 1025q-54 -1 -96 -43t-76 -143t-44 -264q98 5 194 83q46 38 76 98t28 130q-6 139 -82 139zM700 1163q172 -1 254 -69q80 -68 84 -164t-24 -165t-76 -117q-101 -101 -241 -145t-277 -48q0 -296 187 -296
q178 0 298 156l64 -103q-47 -75 -166 -154q-119 -78 -304 -78q-323 0 -413 282q-24 78 -25 168q-1 210 85 378t234 262t320 93z" />
    <glyph glyph-name="edieresis" unicode="&#xeb;" horiz-adv-x="1048" 
d="M480 1338q-59 0 -102 52t-41 126q3 74 49 130t120 55q74 0 117 -49q42 -50 40 -126t-47 -132t-136 -56zM932 1338q-59 0 -102 52t-41 126q3 74 49 130t120 55q74 0 117 -49q42 -50 40 -126t-47 -132t-136 -56zM636 1025q-54 -1 -96 -43t-76 -143t-44 -264q98 5 194 83
q46 38 76 98t28 130q-6 139 -82 139zM700 1163q172 -1 254 -69q80 -68 84 -164t-24 -165t-76 -117q-101 -101 -241 -145t-277 -48q0 -296 187 -296q178 0 298 156l64 -103q-47 -75 -166 -154q-119 -78 -304 -78q-323 0 -413 282q-24 78 -25 168q-1 210 85 378t234 262
t320 93z" />
    <glyph glyph-name="igrave" unicode="&#xec;" horiz-adv-x="669" 
d="M359 1241q-72 30 -207 139t-179 186l203 177l288 -432zM483 151q30 0 92 46l28 -73q-29 -37 -78 -73q-94 -71 -208 -71q-115 0 -167 41t-42 110t26 189t42 320q26 201 45 340l-164 51l18 81l446 51l55 -24l-128 -912q-11 -76 35 -76z" />
    <glyph glyph-name="iacute" unicode="&#xed;" horiz-adv-x="669" 
d="M404 1231l-103 81l317 431l192 -187q-18 -34 -92 -102t-166 -135q-92 -66 -148 -88zM483 151q30 0 92 46l28 -73q-29 -37 -78 -73q-94 -71 -208 -71q-115 0 -167 41t-42 110t26 189t42 320q26 201 45 340l-164 51l18 81l446 51l55 -24l-128 -912q-11 -76 35 -76z" />
    <glyph glyph-name="icircumflex" unicode="&#xee;" horiz-adv-x="669" 
d="M153 1239l-107 57l367 374h178l210 -374l-124 -58l-201 194zM483 151q30 0 92 46l28 -73q-29 -37 -78 -73q-94 -71 -208 -71q-115 0 -167 41t-42 110t26 189t42 320q26 201 45 340l-164 51l18 81l446 51l55 -24l-128 -912q-11 -76 35 -76z" />
    <glyph glyph-name="idieresis" unicode="&#xef;" horiz-adv-x="669" 
d="M190 1338q-59 0 -102 52t-41 126q3 74 49 130t120 55q74 0 117 -49q42 -50 40 -126t-47 -132t-136 -56zM642 1338q-59 0 -102 52t-41 126q3 74 49 130t120 55q74 0 117 -49q42 -50 40 -126t-47 -132t-136 -56zM483 151q30 0 92 46l28 -73q-29 -37 -78 -73
q-94 -71 -208 -71q-115 0 -167 41t-42 110t26 189t42 320q26 201 45 340l-164 51l18 81l446 51l55 -24l-128 -912q-11 -76 35 -76z" />
    <glyph glyph-name="eth" unicode="&#xf0;" horiz-adv-x="1157" 
d="M509 107q65 1 119 61q109 121 137 383q23 173 19 215q-8 85 -47 146q-40 62 -127 62q-58 0 -104 -56t-72 -144q-53 -180 -53 -374q0 -293 128 -293zM585 1110q145 0 195 -29q2 63 -28 149t-92 168l-133 -153l-116 98l146 161q-123 104 -206 131l55 159q151 -43 293 -141
l144 176l113 -101l-144 -167q154 -149 232 -349t79 -424t-75 -410t-223 -292t-345 -106q-246 0 -368 216q-68 121 -68 292q0 172 72 320t198 225t271 77z" />
    <glyph glyph-name="ntilde" unicode="&#xf1;" horiz-adv-x="1308" 
d="M623 1680q57 0 93 -16q44 -19 100 -76q55 -58 91 -58q65 0 96 28q32 28 66 72l88 -131q-27 -69 -101 -125t-137 -56q-62 0 -100 15q-37 15 -61 37t-45 44q-115 120 -255 -27l-77 124q32 65 108 117t134 52zM1082 206q0 -55 39 -55q29 0 90 46l28 -73q-111 -145 -300 -145
q-129 0 -166 52t-37 110q0 57 46 312t46 353q-2 98 -20 129q-18 30 -68 30t-118 -71t-116 -173l-99 -721h-324l131 962l-107 60l16 89l374 52l52 -24l-16 -210q69 109 165 171t210 63q265 0 265 -302q0 -76 -36 -283q-35 -207 -45 -262t-10 -110z" />
    <glyph glyph-name="ograve" unicode="&#xf2;" horiz-adv-x="1197" 
d="M646 1241q-72 30 -207 139t-179 186l203 177l288 -432zM548 107q66 0 112 56q46 55 71 147q47 180 42 374t-34 268t-91 73q-62 1 -110 -55t-74 -146q-52 -182 -47 -375q6 -193 35 -267q30 -74 96 -75zM686 1163q210 1 324 -119t121 -341q5 -147 -37 -279t-123 -230
q-80 -98 -201 -156t-265 -58q-211 0 -323 119t-121 340q-5 147 37 279t122 230t201 157q121 58 265 58z" />
    <glyph glyph-name="oacute" unicode="&#xf3;" horiz-adv-x="1197" 
d="M691 1231l-103 81l317 431l192 -187q-19 -34 -93 -102t-166 -135q-92 -66 -147 -88zM548 107q66 0 112 56q46 55 71 147q47 180 42 374t-34 268t-91 73q-62 1 -110 -55t-74 -146q-52 -182 -47 -375q6 -193 35 -267q30 -74 96 -75zM686 1163q210 1 324 -119t121 -341
q5 -147 -37 -279t-123 -230q-80 -98 -201 -156t-265 -58q-211 0 -323 119t-121 340q-5 147 37 279t122 230t201 157q121 58 265 58z" />
    <glyph glyph-name="ocircumflex" unicode="&#xf4;" horiz-adv-x="1197" 
d="M440 1239l-107 57l367 374h178l210 -374l-124 -58l-201 194zM548 107q66 0 112 56q46 55 71 147q47 180 42 374t-34 268t-91 73q-62 1 -110 -55t-74 -146q-52 -182 -47 -375q6 -193 35 -267q30 -74 96 -75zM686 1163q210 1 324 -119t121 -341q5 -147 -37 -279t-123 -230
q-80 -98 -201 -156t-265 -58q-211 0 -323 119t-121 340q-5 147 37 279t122 230t201 157q121 58 265 58z" />
    <glyph glyph-name="otilde" unicode="&#xf5;" horiz-adv-x="1197" 
d="M566 1680q58 0 94 -16q44 -19 99 -76q55 -58 91 -58q65 0 96 28q32 28 66 72l88 -131q-28 -69 -102 -125t-136 -56t-100 15t-62 37t-44 44q-115 120 -255 -27l-77 124q32 65 108 117t134 52zM548 107q66 0 112 56q46 55 71 147q47 180 42 374t-34 268t-91 73
q-62 1 -110 -55t-74 -146q-52 -182 -47 -375q6 -193 35 -267q30 -74 96 -75zM686 1163q210 1 324 -119t121 -341q5 -147 -37 -279t-123 -230q-80 -98 -201 -156t-265 -58q-211 0 -323 119t-121 340q-5 147 37 279t122 230t201 157q121 58 265 58z" />
    <glyph glyph-name="odieresis" unicode="&#xf6;" horiz-adv-x="1197" 
d="M477 1338q-59 0 -102 52t-41 126t48 130t122 55q74 0 116 -49q42 -50 40 -126t-47 -132t-136 -56zM929 1338q-59 0 -102 52t-41 126t48 130t122 55q74 0 116 -49q42 -50 40 -126t-47 -132t-136 -56zM548 107q66 0 112 56q46 55 71 147q47 180 42 374t-34 268t-91 73
q-62 1 -110 -55t-74 -146q-52 -182 -47 -375q6 -193 35 -267q30 -74 96 -75zM686 1163q210 1 324 -119t121 -341q5 -147 -37 -279t-123 -230q-80 -98 -201 -156t-265 -58q-211 0 -323 119t-121 340q-5 147 37 279t122 230t201 157q121 58 265 58z" />
    <glyph glyph-name="divide" unicode="&#xf7;" horiz-adv-x="1370" 
d="M496 320q0 78 59 134t131 56t110 -48q39 -48 39 -128t-61 -132q-62 -52 -130 -53q-68 1 -108 47t-40 124zM244 674l18 197h939l-18 -197h-939zM758 1035q-68 1 -109 47q-40 46 -40 124t59 134q58 56 130 56t111 -48t39 -128t-61 -132t-129 -53z" />
    <glyph glyph-name="oslash" unicode="&#xf8;" horiz-adv-x="1197" 
d="M560 109q54 0 102 56q46 55 70 147q47 180 41 397l-2 57l-333 -530q14 -67 41 -97t81 -30zM652 1027q-64 1 -113 -55t-75 -146q-52 -182 -45 -389q1 -7 1 -21v-21l330 528q-28 104 -98 104zM676 1165q134 0 226 -43l129 181l89 -49l-132 -187q136 -120 144 -362
q4 -147 -38 -279t-122 -230t-201 -156t-257 -58t-232 46l-114 -160l-89 49l120 168q-128 116 -137 356q-4 147 38 279t122 230t200 157q120 58 254 58z" />
    <glyph glyph-name="ugrave" unicode="&#xf9;" horiz-adv-x="1276" 
d="M655 1241q-72 30 -207 139t-179 186l203 177l288 -432zM1094 151q29 0 92 46l28 -73q-23 -37 -73 -73q-97 -71 -204 -71t-153 44t-33 119l-4 3q-145 -166 -347 -166q-100 0 -189 54q-45 28 -73 80t-30 100q0 48 2 80t8 76q6 42 9 71q4 29 12 82t11 74l54 365l-126 80
l16 89l403 32l52 -24l-69 -550q-4 -33 -20 -150t-17 -173q0 -118 95 -118q106 0 194 99l124 908h326l-128 -928q-10 -76 40 -76z" />
    <glyph glyph-name="uacute" unicode="&#xfa;" horiz-adv-x="1276" 
d="M700 1231l-103 81l317 431l192 -187q-18 -34 -92 -102t-166 -135q-92 -66 -148 -88zM1094 151q29 0 92 46l28 -73q-23 -37 -73 -73q-97 -71 -204 -71t-153 44t-33 119l-4 3q-145 -166 -347 -166q-100 0 -189 54q-45 28 -73 80t-30 100q0 48 2 80t8 76q6 42 9 71
q4 29 12 82t11 74l54 365l-126 80l16 89l403 32l52 -24l-69 -550q-4 -33 -20 -150t-17 -173q0 -118 95 -118q106 0 194 99l124 908h326l-128 -928q-10 -76 40 -76z" />
    <glyph glyph-name="ucircumflex" unicode="&#xfb;" horiz-adv-x="1276" 
d="M449 1239l-107 57l367 374h178l210 -374l-124 -58l-201 194zM1094 151q29 0 92 46l28 -73q-23 -37 -73 -73q-97 -71 -204 -71t-153 44t-33 119l-4 3q-145 -166 -347 -166q-100 0 -189 54q-45 28 -73 80t-30 100q0 48 2 80t8 76q6 42 9 71q4 29 12 82t11 74l54 365
l-126 80l16 89l403 32l52 -24l-69 -550q-4 -33 -20 -150t-17 -173q0 -118 95 -118q106 0 194 99l124 908h326l-128 -928q-10 -76 40 -76z" />
    <glyph glyph-name="udieresis" unicode="&#xfc;" horiz-adv-x="1276" 
d="M486 1338q-59 0 -102 52t-41 126q3 74 49 130t120 55q74 0 117 -49q42 -50 40 -126t-47 -132t-136 -56zM938 1338q-59 0 -102 52t-41 126q3 74 49 130t120 55q74 0 117 -49q42 -50 40 -126t-47 -132t-136 -56zM1094 151q29 0 92 46l28 -73q-23 -37 -73 -73
q-97 -71 -204 -71t-153 44t-33 119l-4 3q-145 -166 -347 -166q-100 0 -189 54q-45 28 -73 80t-30 100q0 48 2 80t8 76q6 42 9 71q4 29 12 82t11 74l54 365l-126 80l16 89l403 32l52 -24l-69 -550q-4 -33 -20 -150t-17 -173q0 -118 95 -118q106 0 194 99l124 908h326
l-128 -928q-10 -76 40 -76z" />
    <glyph glyph-name="yacute" unicode="&#xfd;" horiz-adv-x="1084" 
d="M591 1231l-103 81l317 431l192 -187q-19 -34 -93 -102t-166 -135q-92 -66 -147 -88zM216 -349q84 0 154 62t153 216h-191l-210 996q-12 56 -43 56q-36 0 -75 -34l-29 81q40 58 124 96q83 39 160 39q157 0 184 -137q60 -310 135 -787l18 -159l61 124q134 272 134 533
q0 73 -18 150t-18 137q-1 60 41 100q42 39 128 39q162 -1 162 -223t-218 -643q-80 -155 -118 -229t-66 -126q-34 -65 -84 -154q-172 -306 -448 -306q-80 0 -158 15t-110 30l51 215q35 -27 115 -59q82 -32 166 -32z" />
    <glyph glyph-name="thorn" unicode="&#xfe;" horiz-adv-x="1191" 
d="M488 119q70 -1 132 51t99 140q71 175 71 419q0 111 -36 185t-116 74q-79 0 -153 -89l-100 -771q33 -9 103 -9zM794 1163q164 0 250 -112t87 -322q1 -209 -81 -379t-238 -270t-363 -100q-35 0 -86 7l-13 -129l-47 -378h-314l71 500l187 1504l-103 43l21 84l361 39l54 -27
l-74 -564q124 104 288 104z" />
    <glyph glyph-name="ydieresis" unicode="&#xff;" horiz-adv-x="1084" 
d="M377 1338q-59 0 -102 52t-41 126t48 130t122 55q74 0 116 -49q42 -50 40 -126t-47 -132t-136 -56zM829 1338q-59 0 -102 52t-41 126t48 130t122 55q74 0 116 -49q42 -50 40 -126t-47 -132t-136 -56zM216 -349q84 0 154 62t153 216h-191l-210 996q-12 56 -43 56
q-36 0 -75 -34l-29 81q40 58 124 96q83 39 160 39q157 0 184 -137q60 -310 135 -787l18 -159l61 124q134 272 134 533q0 73 -18 150t-18 137q-1 60 41 100q42 39 128 39q162 -1 162 -223t-218 -643q-80 -155 -118 -229t-66 -126q-34 -65 -84 -154q-172 -306 -448 -306
q-80 0 -158 15t-110 30l51 215q35 -27 115 -59q82 -32 166 -32z" />
    <glyph glyph-name="Amacron" unicode="&#x100;" horiz-adv-x="1375" 
d="M543 1707v209h571v-209h-571zM406 567h422l-78 550l-9 199zM-18 135l685 1395h347l247 -1392l161 -32l-6 -106h-689l5 106l157 29l-40 281h-510l-125 -280l188 -30l-8 -106h-558l8 106z" />
    <glyph glyph-name="amacron" unicode="&#x101;" horiz-adv-x="1215" 
d="M455 1405v209h571v-209h-571zM552 154q66 0 128 55l110 808q-34 6 -86 6t-108 -38q-98 -67 -144 -227t-46 -313q0 -155 40 -223t106 -68zM60 416q0 104 28 214q57 229 225 381t433 152q113 0 238 -43l152 43l-129 -936q-8 -76 39 -76q33 0 93 46l28 -73q-25 -37 -74 -74
q-94 -70 -188 -70q-184 0 -188 126q-126 -126 -304 -126q-261 0 -333 258q-20 74 -20 178z" />
    <glyph glyph-name="Abreve" unicode="&#x102;" horiz-adv-x="1375" 
d="M697 1969q0 -119 111 -119q134 0 164 72q14 34 16 92h182q1 -11 1 -54t-20 -102q-20 -58 -60 -110t-110 -84q-69 -32 -149 -31t-134 19q-100 34 -145 115q-44 81 -44 179q0 31 5 68h184zM406 567h422l-78 550l-9 199zM-18 135l685 1395h347l247 -1392l161 -32l-6 -106
h-689l5 106l157 29l-40 281h-510l-125 -280l188 -30l-8 -106h-558l8 106z" />
    <glyph glyph-name="abreve" unicode="&#x103;" horiz-adv-x="1215" 
d="M652 1636q0 -119 111 -119q134 0 164 72q14 34 16 92h182q1 -11 1 -54t-20 -102t-60 -111t-110 -82q-70 -32 -150 -32t-134 18q-100 34 -144 116q-44 81 -44 179q0 31 5 68h184zM552 154q66 0 128 55l110 808q-34 6 -86 6t-108 -38q-98 -67 -144 -227t-46 -313
q0 -155 40 -223t106 -68zM60 416q0 104 28 214q57 229 225 381t433 152q113 0 238 -43l152 43l-129 -936q-8 -76 39 -76q33 0 93 46l28 -73q-25 -37 -74 -74q-94 -70 -188 -70q-184 0 -188 126q-126 -126 -304 -126q-261 0 -333 258q-20 74 -20 178z" />
    <glyph glyph-name="Aogonek" unicode="&#x104;" horiz-adv-x="1342" 
d="M449 567h422l-78 550l-9 199zM1037 -209q0 -78 67 -78q37 -1 70 17t83 58l36 -114q-150 -154 -344 -154q-95 0 -144 46t-49 116t45 136q79 116 211 182h-242l5 106l157 29l-40 281h-510l-125 -280l188 -30l-8 -106h-558l8 106l138 29l685 1395h347l247 -1392l161 -32
l-6 -106h-228q-194 -131 -194 -209z" />
    <glyph glyph-name="aogonek" unicode="&#x105;" horiz-adv-x="1215" 
d="M552 154q66 0 128 55l110 808q-34 6 -86 6t-108 -38q-98 -67 -144 -227t-46 -313q0 -155 40 -223t106 -68zM818 -215q0 -72 67 -72q37 -1 70 17t83 58l36 -114q-150 -154 -344 -154q-95 0 -144 46t-49 116t45 136q81 117 208 181q-70 30 -73 107q-126 -126 -304 -126
q-261 0 -333 258q-20 74 -20 178t28 214q57 229 225 381t433 152q113 0 238 -43l152 43l-129 -936q-8 -76 39 -76q33 0 93 46l28 -73q-49 -69 -136 -111q-213 -141 -213 -228z" />
    <glyph glyph-name="Cacute" unicode="&#x106;" horiz-adv-x="1300" 
d="M949 1570l-116 102l276 342l187 -185q-36 -69 -149 -148t-198 -111zM949 1549q141 0 201 -11t104 -23t54 -14l33 -9l-61 -400h-253l-40 310q-47 18 -117 18t-146 -48q-137 -85 -209 -291q-71 -206 -64 -444t73 -365t208 -127q140 0 216 74q36 41 80 200l201 1l-43 -284
q-134 -109 -316 -138q-86 -14 -206 -14q-118 0 -224 34q-196 64 -288 230t-92 383q0 432 242 675q241 243 647 243z" />
    <glyph glyph-name="cacute" unicode="&#x107;" horiz-adv-x="942" 
d="M669 1231l-103 81l317 431l192 -187q-19 -34 -93 -102t-166 -135q-92 -66 -147 -88zM720 1163q144 0 241 -38l-93 -322q-22 7 -66 58t-91 98t-83 47t-78 -41t-78 -111q-79 -158 -72 -394q4 -156 46 -224t129 -67q156 0 254 128l64 -103q-44 -73 -160 -143
q-116 -71 -291 -71q-174 0 -276 120t-107 344q-4 224 103 413q174 306 558 306z" />
    <glyph glyph-name="Ccircumflex" unicode="&#x108;" horiz-adv-x="1300" 
d="M693 1600l-107 57l367 357h178l210 -357l-124 -58l-201 207zM949 1549q141 0 201 -11t104 -23t54 -14l33 -9l-61 -400h-253l-40 310q-47 18 -117 18t-146 -48q-137 -85 -209 -291q-71 -206 -64 -444t73 -365t208 -127q140 0 216 74q36 41 80 200l201 1l-43 -284
q-134 -109 -316 -138q-86 -14 -206 -14q-118 0 -224 34q-196 64 -288 230t-92 383q0 432 242 675q241 243 647 243z" />
    <glyph glyph-name="ccircumflex" unicode="&#x109;" horiz-adv-x="942" 
d="M418 1239l-107 57l367 374h178l210 -374l-124 -58l-201 194zM720 1163q144 0 241 -38l-93 -322q-22 7 -66 58t-91 98t-83 47t-78 -41t-78 -111q-79 -158 -72 -394q4 -156 46 -224t129 -67q156 0 254 128l64 -103q-44 -73 -160 -143q-116 -71 -291 -71q-174 0 -276 120
t-107 344q-4 224 103 413q174 306 558 306z" />
    <glyph glyph-name="Cdotaccent" unicode="&#x10a;" horiz-adv-x="1300" 
d="M924 1612q-66 0 -120 52t-52 126q2 73 60 129t142 56q84 1 136 -49t50 -125t-58 -132t-158 -57zM949 1549q141 0 201 -11t104 -23t54 -14l33 -9l-61 -400h-253l-40 310q-47 18 -117 18t-146 -48q-137 -85 -209 -291q-71 -206 -64 -444t73 -365t208 -127q140 0 216 74
q36 41 80 200l201 1l-43 -284q-134 -109 -316 -138q-86 -14 -206 -14q-118 0 -224 34q-196 64 -288 230t-92 383q0 432 242 675q241 243 647 243z" />
    <glyph glyph-name="cdotaccent" unicode="&#x10b;" horiz-adv-x="942" 
d="M683 1338q-66 0 -115 52t-47 126q1 74 55 130t136 55q82 0 131 -49q48 -49 46 -125q-1 -77 -53 -133t-153 -56zM720 1163q144 0 241 -38l-93 -322q-22 7 -66 58t-91 98t-83 47t-78 -41t-78 -111q-79 -158 -72 -394q4 -156 46 -224t129 -67q156 0 254 128l64 -103
q-44 -73 -160 -143q-116 -71 -291 -71q-174 0 -276 120t-107 344q-4 224 103 413q174 306 558 306z" />
    <glyph glyph-name="Ccaron" unicode="&#x10c;" horiz-adv-x="1300" 
d="M838 1599l-210 357l124 58l201 -172l323 172l107 -57l-368 -358h-177zM949 1549q141 0 201 -11t104 -23t54 -14l33 -9l-61 -400h-253l-40 310q-47 18 -117 18t-146 -48q-137 -85 -209 -291q-71 -206 -64 -444t73 -365t208 -127q140 0 216 74q36 41 80 200l201 1l-43 -284
q-134 -109 -316 -138q-86 -14 -206 -14q-118 0 -224 34q-196 64 -288 230t-92 383q0 432 242 675q241 243 647 243z" />
    <glyph glyph-name="ccaron" unicode="&#x10d;" horiz-adv-x="942" 
d="M549 1238l-210 374l124 58l201 -210l323 209l107 -57l-368 -374h-177zM720 1163q144 0 241 -38l-93 -322q-22 7 -66 58t-91 98t-83 47t-78 -41t-78 -111q-79 -158 -72 -394q4 -156 46 -224t129 -67q156 0 254 128l64 -103q-44 -73 -160 -143q-116 -71 -291 -71
q-174 0 -276 120t-107 344q-4 224 103 413q174 306 558 306z" />
    <glyph glyph-name="Dcaron" unicode="&#x10e;" horiz-adv-x="1505" 
d="M800 1599l-210 357l124 58l201 -172l323 172l107 -57l-368 -358h-177zM634 111q86 1 172 49q155 87 230 292q75 206 75 461t-74 381t-235 126q-114 0 -159 -26l-166 -1258q71 -25 157 -25zM1488 949q0 -196 -32 -337q-67 -294 -279 -461t-585 -167q-30 0 -92 7t-176 9
h-368l12 106l158 30l168 1258l-144 26l11 110h317l357 16q404 2 562 -254q91 -148 91 -343z" />
    <glyph glyph-name="dcaron" unicode="&#x10f;" horiz-adv-x="1459" 
d="M545 154q90 0 162 103l110 750q-45 16 -118 16q-73 -1 -137 -57t-96 -150q-64 -180 -65 -403q0 -123 38 -191t106 -68zM424 -20q-94 0 -152 22q-110 41 -161 148q-51 106 -51 238t26 242q53 230 217 382q164 151 434 151q39 0 102 -9l48 328l-156 43l19 83l432 42l56 -27
l-202 -1394q-11 -78 35 -78q31 0 92 46l28 -73q-16 -18 -23 -26t-37 -36q-93 -83 -220 -82q-85 0 -127 42t-48 125q-50 -69 -134 -118t-178 -49zM1359 1348q0 178 -24 214l19 42l207 46q38 -40 38 -177q-1 -137 -39 -267t-106 -201l-130 30l-6 25q41 110 41 288z" />
    <glyph glyph-name="Dcroat" unicode="&#x110;" horiz-adv-x="1506" 
d="M634 113q86 1 172 49q155 87 230 292q75 206 75 461t-74 381t-235 126q-114 0 -159 -26l-69 -524h296l-26 -170h-293l-74 -564q71 -25 157 -25zM1488 951q0 -196 -32 -337q-67 -294 -279 -461t-585 -167q-30 0 -92 7t-176 9h-368l12 106l158 30l75 564h-136l26 170h133
l70 524l-144 26l11 110h317l357 16q404 2 562 -254q91 -148 91 -343z" />
    <glyph glyph-name="dcroat" unicode="&#x111;" horiz-adv-x="1259" 
d="M549 154q90 0 162 103l110 750q-45 16 -118 16q-73 -1 -137 -57t-96 -150q-64 -180 -65 -403q0 -123 38 -191t106 -68zM64 426q0 94 26 204q53 230 217 382q164 151 434 151q39 0 102 -9l16 108h-283l16 130h286l13 90l-156 43l19 83l432 42l56 -27l-34 -231h126
l-16 -130h-129l-149 -1033q-11 -78 35 -78q31 0 92 46l28 -73q-16 -18 -23 -26t-37 -36q-93 -83 -220 -82q-85 0 -127 42t-48 125q-50 -69 -134 -118t-178 -49t-152 22t-98 60t-65 92t-37 116t-12 156z" />
    <glyph glyph-name="Emacron" unicode="&#x112;" horiz-adv-x="1329" 
d="M549 1707v209h571v-209h-571zM-46 0l14 106l160 30l164 1258l-145 26l11 110h1118l-36 -370h-222l-34 224l-339 26l-72 -529l444 24l-23 -218l-441 25l-78 -576l463 35l117 297l213 -14l-70 -454h-1244z" />
    <glyph glyph-name="emacron" unicode="&#x113;" horiz-adv-x="1048" 
d="M397 1405v209h571v-209h-571zM636 1025q-54 -1 -96 -43t-76 -143t-44 -264q98 5 194 83q46 38 76 98t28 130q-6 139 -82 139zM700 1163q172 -1 254 -69q80 -68 84 -164t-24 -165t-76 -117q-101 -101 -241 -145t-277 -48q0 -296 187 -296q178 0 298 156l64 -103
q-47 -75 -166 -154q-119 -78 -304 -78q-323 0 -413 282q-24 78 -25 168q-1 210 85 378t234 262t320 93z" />
    <glyph glyph-name="Ebreve" unicode="&#x114;" horiz-adv-x="1329" 
d="M703 1969q0 -119 111 -119q134 0 164 72q14 34 16 92h182q1 -11 1 -54t-20 -102q-20 -58 -60 -110t-110 -84q-69 -32 -149 -31t-134 19q-100 34 -145 115q-44 81 -44 179q0 31 5 68h184zM-46 0l14 106l160 30l164 1258l-145 26l11 110h1118l-36 -370h-222l-34 224
l-339 26l-72 -529l444 24l-23 -218l-441 25l-78 -576l463 35l117 297l213 -14l-70 -454h-1244z" />
    <glyph glyph-name="ebreve" unicode="&#x115;" horiz-adv-x="1048" 
d="M594 1636q0 -119 111 -119q134 0 164 72q14 34 16 92h182q1 -11 1 -54t-20 -102t-60 -111t-110 -82q-70 -32 -150 -32t-134 18q-100 34 -144 116q-44 81 -44 179q0 31 5 68h184zM636 1025q-54 -1 -96 -43t-76 -143t-44 -264q98 5 194 83q46 38 76 98t28 130
q-6 139 -82 139zM700 1163q172 -1 254 -69q80 -68 84 -164t-24 -165t-76 -117q-101 -101 -241 -145t-277 -48q0 -296 187 -296q178 0 298 156l64 -103q-47 -75 -166 -154q-119 -78 -304 -78q-323 0 -413 282q-24 78 -25 168q-1 210 85 378t234 262t320 93z" />
    <glyph glyph-name="Edotaccent" unicode="&#x116;" horiz-adv-x="1329" 
d="M812 1612q-66 0 -120 52t-52 126q2 73 60 129t142 56q84 1 136 -49t50 -125t-58 -132t-158 -57zM-46 0l14 106l160 30l164 1258l-145 26l11 110h1118l-36 -370h-222l-34 224l-339 26l-72 -529l444 24l-23 -218l-441 25l-78 -576l463 35l117 297l213 -14l-70 -454h-1244z
" />
    <glyph glyph-name="edotaccent" unicode="&#x117;" horiz-adv-x="1048" 
d="M708 1338q-66 0 -115 52t-47 126t56 130t136 55q82 0 130 -49t46 -125q-2 -77 -54 -133t-152 -56zM636 1025q-54 -1 -96 -43t-76 -143t-44 -264q98 5 194 83q46 38 76 98t28 130q-6 139 -82 139zM700 1163q172 -1 254 -69q80 -68 84 -164t-24 -165t-76 -117
q-101 -101 -241 -145t-277 -48q0 -296 187 -296q178 0 298 156l64 -103q-47 -75 -166 -154q-119 -78 -304 -78q-323 0 -413 282q-24 78 -25 168q-1 210 85 378t234 262t320 93z" />
    <glyph glyph-name="Eogonek" unicode="&#x118;" horiz-adv-x="1329" 
d="M916 -209q0 -78 67 -78q37 -1 70 17t83 58l36 -114q-150 -154 -344 -154q-95 0 -144 46t-49 116t45 136q79 116 211 182h-937l14 106l160 30l164 1258l-145 26l11 110h1118l-36 -370h-222l-34 224l-339 26l-72 -529l444 24l-23 -218l-441 25l-78 -576l463 35l117 297
l213 -14l-70 -454h-88q-194 -131 -194 -209z" />
    <glyph glyph-name="eogonek" unicode="&#x119;" horiz-adv-x="1048" 
d="M636 1025q-54 -1 -96 -43t-76 -143t-44 -264q98 5 194 83q46 38 76 98t28 130q-6 139 -82 139zM700 1163q172 -1 254 -69q80 -68 84 -164t-24 -165t-76 -117q-101 -101 -241 -145t-277 -48q0 -296 187 -296q178 0 298 156l64 -103q-30 -47 -79 -91h3q-106 -75 -186 -167
t-80 -167q0 -74 67 -74q37 -1 70 17t83 58l36 -114q-150 -154 -344 -154q-95 0 -144 46t-49 118q0 70 35 124q60 98 151 173l-33 -1q-323 0 -413 282q-24 78 -25 168q-1 210 85 378t234 262t320 93z" />
    <glyph glyph-name="Ecaron" unicode="&#x11a;" horiz-adv-x="1329" 
d="M726 1599l-210 357l124 58l201 -172l323 172l107 -57l-368 -358h-177zM-46 0l14 106l160 30l164 1258l-145 26l11 110h1118l-36 -370h-222l-34 224l-339 26l-72 -529l444 24l-23 -218l-441 25l-78 -576l463 35l117 297l213 -14l-70 -454h-1244z" />
    <glyph glyph-name="ecaron" unicode="&#x11b;" horiz-adv-x="1048" 
d="M574 1238l-210 374l124 58l201 -210l323 209l107 -57l-368 -374h-177zM636 1025q-54 -1 -96 -43t-76 -143t-44 -264q98 5 194 83q46 38 76 98t28 130q-6 139 -82 139zM700 1163q172 -1 254 -69q80 -68 84 -164t-24 -165t-76 -117q-101 -101 -241 -145t-277 -48
q0 -296 187 -296q178 0 298 156l64 -103q-47 -75 -166 -154q-119 -78 -304 -78q-323 0 -413 282q-24 78 -25 168q-1 210 85 378t234 262t320 93z" />
    <glyph glyph-name="Gcircumflex" unicode="&#x11c;" horiz-adv-x="1450" 
d="M670 1600l-107 57l367 357h178l210 -357l-124 -58l-201 207zM1193 1271q-18 26 -30 39zM903 1420q-470 0 -470 -762q0 -317 118 -452q62 -71 153 -71q145 0 225 28l49 427l-202 17l19 146h556l-86 -669q-105 -10 -193 -33t-128 -33q-145 -35 -286 -34q-140 0 -236 34
q-178 64 -268 227t-94 376q-4 212 48 381t157 291q104 122 266 189t372 67t377 -45q41 -11 53 -14l62 -11l-68 -356h-247l-8 257q-75 40 -169 40z" />
    <glyph glyph-name="gcircumflex" unicode="&#x11d;" horiz-adv-x="1218" 
d="M538 1239l-107 57l367 374h178l210 -374l-124 -58l-201 194zM406 445q0 -291 152 -291q72 0 141 73l115 785q-38 11 -100 11t-118 -38q-98 -67 -144 -227q-46 -159 -46 -313zM416 -349q68 1 102 7t65 26q56 37 72 171l25 218q-115 -93 -267 -93q-261 0 -333 258
q-20 74 -20 178t28 214q57 229 225 381t433 152q117 0 248 -46l162 46l-167 -1240q-37 -285 -299 -387q-138 -54 -320 -54q-70 0 -153 15t-115 30l51 215q23 -22 109 -56t154 -35z" />
    <glyph glyph-name="Gbreve" unicode="&#x11e;" horiz-adv-x="1450" 
d="M792 1969q0 -119 111 -119q134 0 164 72q14 34 16 92h182q1 -11 1 -54t-20 -102q-20 -58 -60 -110t-110 -84t-150 -31t-134 19q-100 34 -144 115t-44 179q0 31 5 68h184zM1193 1271q-18 26 -30 39zM903 1420q-470 0 -470 -762q0 -317 118 -452q62 -71 153 -71
q145 0 225 28l49 427l-202 17l19 146h556l-86 -669q-105 -10 -193 -33t-128 -33q-145 -35 -286 -34q-140 0 -236 34q-178 64 -268 227t-94 376q-4 212 48 381t157 291q104 122 266 189t372 67t377 -45q41 -11 53 -14l62 -11l-68 -356h-247l-8 257q-75 40 -169 40z" />
    <glyph glyph-name="gbreve" unicode="&#x11f;" horiz-adv-x="1218" 
d="M689 1636q0 -119 111 -119q134 0 164 72q14 34 16 92h182q1 -11 1 -54t-20 -102t-60 -111t-110 -82q-69 -32 -149 -32t-134 18q-100 34 -145 116q-44 81 -44 179q0 31 5 68h184zM406 445q0 -291 152 -291q72 0 141 73l115 785q-38 11 -100 11t-118 -38q-98 -67 -144 -227
q-46 -159 -46 -313zM416 -349q68 1 102 7t65 26q56 37 72 171l25 218q-115 -93 -267 -93q-261 0 -333 258q-20 74 -20 178t28 214q57 229 225 381t433 152q117 0 248 -46l162 46l-167 -1240q-37 -285 -299 -387q-138 -54 -320 -54q-70 0 -153 15t-115 30l51 215
q23 -22 109 -56t154 -35z" />
    <glyph glyph-name="Gdotaccent" unicode="&#x120;" horiz-adv-x="1450" 
d="M901 1612q-66 0 -120 52t-52 126q2 73 60 129q57 56 141 56q84 1 136 -49t51 -125q-2 -75 -58 -132t-158 -57zM1193 1271q-18 26 -30 39zM903 1420q-470 0 -470 -762q0 -317 118 -452q62 -71 153 -71q145 0 225 28l49 427l-202 17l19 146h556l-86 -669q-105 -10 -193 -33
t-128 -33q-145 -35 -286 -34q-140 0 -236 34q-178 64 -268 227t-94 376q-4 212 48 381t157 291q104 122 266 189t372 67t377 -45q41 -11 53 -14l62 -11l-68 -356h-247l-8 257q-75 40 -169 40z" />
    <glyph glyph-name="gdotaccent" unicode="&#x121;" horiz-adv-x="1218" 
d="M803 1338q-66 0 -115 52t-47 126q1 74 55 130t136 55q82 0 131 -49q48 -49 46 -125q-1 -77 -53 -133t-153 -56zM406 445q0 -291 152 -291q72 0 141 73l115 785q-38 11 -100 11t-118 -38q-98 -67 -144 -227q-46 -159 -46 -313zM416 -349q68 1 102 7t65 26q56 37 72 171
l25 218q-115 -93 -267 -93q-261 0 -333 258q-20 74 -20 178t28 214q57 229 225 381t433 152q117 0 248 -46l162 46l-167 -1240q-37 -285 -299 -387q-138 -54 -320 -54q-70 0 -153 15t-115 30l51 215q23 -22 109 -56t154 -35z" />
    <glyph glyph-name="Gcommaaccent" unicode="&#x122;" horiz-adv-x="1450" 
d="M881 -249q0 -119 -71 -207t-156 -104l-100 70l3 26q24 13 46 47t22 77t-19 73t-48 33l11 93l154 104q68 -14 113 -74t45 -138zM1193 1271q-18 26 -30 39zM903 1420q-470 0 -470 -762q0 -317 118 -452q62 -71 153 -71q145 0 225 28l49 427l-202 17l19 146h556l-86 -669
q-105 -10 -193 -33t-128 -33q-145 -35 -286 -34q-140 0 -236 34q-178 64 -268 227t-94 376q-4 212 48 381t157 291q104 122 266 189t372 67t377 -45q41 -11 53 -14l62 -11l-68 -356h-247l-8 257q-75 40 -169 40z" />
    <glyph glyph-name="gcommaaccent" unicode="&#x123;" horiz-adv-x="1220" 
d="M408 445q0 -291 152 -291q72 0 141 73l115 785q-38 11 -100 11t-118 -38q-98 -67 -144 -227q-46 -159 -46 -313zM418 -349q68 1 102 7t65 26q56 37 72 171l25 218q-115 -93 -267 -93q-261 0 -333 258q-20 74 -20 178t28 214q57 229 225 381t433 152q117 0 248 -46l162 46
l-167 -1240q-37 -285 -299 -387q-138 -54 -320 -54q-70 0 -153 15t-115 30l51 215q23 -22 109 -56t154 -35zM583 1463q0 119 71 207t156 104l100 -70l-3 -26q-24 -13 -46 -47t-22 -77t19 -73t48 -33l-11 -93l-154 -104q-68 14 -113 74t-45 138z" />
    <glyph glyph-name="Hcircumflex" unicode="&#x124;" horiz-adv-x="1653" 
d="M738 1600l-107 57l367 357h178l210 -357l-124 -58l-201 207zM-21 0l11 106l138 30l166 1258l-145 26l14 110h675l-12 -110l-180 -26l-71 -540h552l71 540l-177 26l12 110h683l-12 -110l-154 -26l-165 -1258l157 -30l-12 -106h-703l14 106l191 30l75 568h-552l-75 -568
l174 -30l-8 -106h-667z" />
    <glyph glyph-name="hcircumflex" unicode="&#x125;" horiz-adv-x="1302" 
d="M1076 206q0 -55 39 -55q29 0 90 46l28 -73q-111 -145 -296 -145q-185 -1 -203 119q-4 22 -4 62q0 38 46 293t46 353q-2 98 -20 129q-18 30 -70 30q-50 0 -121 -76t-119 -184l-86 -705h-333l179 1482l-127 43l16 83l409 42l55 -27l-3 -24l217 211h178l210 -357l-124 -58
l-201 207l-304 -194l-60 -493q70 115 168 181t216 67q265 0 265 -302q0 -76 -36 -283q-35 -207 -45 -262t-10 -110z" />
    <glyph glyph-name="Hbar" unicode="&#x126;" horiz-adv-x="1653" 
d="M559 763h552l27 210h-552zM-21 0l11 106l138 30l106 837h-174l14 150h179l35 271l-145 26l14 110h675l-12 -110l-180 -26l-35 -271h552l35 271l-177 26l12 110h683l-12 -110l-154 -26l-34 -271h178l-14 -150h-183l-106 -837l157 -30l-12 -106h-703l14 106l191 30l59 468
h-552l-59 -468l174 -30l-8 -106h-667z" />
    <glyph glyph-name="hbar" unicode="&#x127;" horiz-adv-x="1300" 
d="M1075 206q0 -55 39 -55q29 0 90 46l28 -73q-111 -145 -296 -145q-186 -1 -204 119q-4 22 -3 62q1 38 47 293t44 353t-20 129q-18 30 -68 30t-122 -76q-71 -76 -119 -184l-86 -705h-333l152 1262h-132l16 130h132l11 90l-127 43l16 83l409 42l55 -27l-29 -231h215
l-16 -130h-215l-42 -347q69 115 167 181t217 67q265 0 265 -302q0 -76 -36 -283t-46 -262t-9 -110z" />
    <glyph glyph-name="Itilde" unicode="&#x128;" horiz-adv-x="783" 
d="M468 1970q58 0 94 -16q44 -19 99 -76q55 -58 91 -58q65 0 96 28q32 28 66 72l88 -131q-28 -69 -102 -125t-136 -56t-100 15t-62 37t-44 44q-115 120 -255 -27l-77 124q32 65 108 117t134 52zM-18 0l13 106l150 30l165 1258l-147 26l12 110h671l-12 -110l-172 -26
l-165 -1258l175 -30l-7 -106h-683z" />
    <glyph glyph-name="itilde" unicode="&#x129;" horiz-adv-x="669" 
d="M279 1680q57 0 93 -16q44 -19 100 -76q55 -58 91 -58q65 0 96 28q32 28 66 72l88 -131q-27 -69 -101 -125t-137 -56q-62 0 -100 15q-37 15 -61 37t-45 44q-115 120 -255 -27l-77 124q32 65 108 117t134 52zM483 151q30 0 92 46l28 -73q-29 -37 -78 -73q-94 -71 -208 -71
q-115 0 -167 41t-42 110t26 189t42 320q26 201 45 340l-164 51l18 81l446 51l55 -24l-128 -912q-11 -76 35 -76z" />
    <glyph glyph-name="Imacron" unicode="&#x12a;" horiz-adv-x="783" 
d="M268 1707v209h571v-209h-571zM-18 0l13 106l150 30l165 1258l-147 26l12 110h671l-12 -110l-172 -26l-165 -1258l175 -30l-7 -106h-683z" />
    <glyph glyph-name="imacron" unicode="&#x12b;" horiz-adv-x="669" 
d="M107 1405v209h571v-209h-571zM483 151q30 0 92 46l28 -73q-29 -37 -78 -73q-94 -71 -208 -71q-115 0 -167 41t-42 110t26 189t42 320q26 201 45 340l-164 51l18 81l446 51l55 -24l-128 -912q-11 -76 35 -76z" />
    <glyph glyph-name="Ibreve" unicode="&#x12c;" horiz-adv-x="783" 
d="M422 1969q0 -119 111 -119q134 0 164 72q14 34 16 92h182q1 -11 1 -54t-20 -102q-20 -58 -60 -110t-110 -84t-150 -31t-134 19q-100 34 -144 115t-44 179q0 31 5 68h184zM-18 0l13 106l150 30l165 1258l-147 26l12 110h671l-12 -110l-172 -26l-165 -1258l175 -30l-7 -106
h-683z" />
    <glyph glyph-name="ibreve" unicode="&#x12d;" horiz-adv-x="669" 
d="M304 1636q0 -119 111 -119q134 0 164 72q14 34 16 92h182q1 -11 1 -54t-20 -102t-60 -111t-110 -82q-70 -32 -150 -32t-134 18q-100 34 -144 116q-44 81 -44 179q0 31 5 68h184zM483 151q30 0 92 46l28 -73q-29 -37 -78 -73q-94 -71 -208 -71q-115 0 -167 41t-42 110
t26 189t42 320q26 201 45 340l-164 51l18 81l446 51l55 -24l-128 -912q-11 -76 35 -76z" />
    <glyph glyph-name="Iogonek" unicode="&#x12e;" horiz-adv-x="706" 
d="M193 -209q0 -78 67 -78q37 -1 70 17t83 58l36 -114q-150 -154 -344 -154q-95 0 -144 46t-49 116t45 136q79 116 211 182h-241l13 106l150 30l165 1258l-147 26l12 110h671l-12 -110l-172 -26l-165 -1258l175 -30l-7 -106h-223q-194 -131 -194 -209z" />
    <glyph glyph-name="iogonek" unicode="&#x12f;" horiz-adv-x="667" 
d="M254 -215q0 -72 67 -72q37 -1 70 17t83 58l36 -114q-150 -154 -344 -154q-95 0 -144 46t-49 116t45 136q78 113 194 173q-122 34 -104 149q10 63 52 382q41 319 60 458l-164 51l18 81l446 51l55 -24l-128 -912q-11 -76 35 -76q30 0 92 46l28 -73q-50 -60 -108 -94
q-240 -154 -240 -245zM419 1338q-66 0 -115 52t-47 126q1 74 55 130t136 55q82 0 131 -49q48 -49 46 -125q-1 -77 -53 -133t-153 -56z" />
    <glyph glyph-name="Idotaccent" unicode="&#x130;" horiz-adv-x="783" 
d="M531 1612q-66 0 -120 52t-52 126q2 73 60 129q57 56 141 56q84 1 136 -49t51 -125q-2 -75 -58 -132t-158 -57zM-18 0l13 106l150 30l165 1258l-147 26l12 110h671l-12 -110l-172 -26l-165 -1258l175 -30l-7 -106h-683z" />
    <glyph glyph-name="dotlessi" unicode="&#x131;" horiz-adv-x="669" 
d="M483 151q30 0 92 46l28 -73q-29 -37 -78 -73q-94 -71 -208 -71q-115 0 -167 41t-42 110t26 189t42 320q26 201 45 340l-164 51l18 81l446 51l55 -24l-128 -912q-11 -76 35 -76z" />
    <glyph glyph-name="IJ" unicode="&#x132;" horiz-adv-x="1531" 
d="M898 86q92 492 182 1307l-153 27l15 110h666l-11 -110l-168 -26q-127 -1036 -151 -1166t-31 -153q-41 -114 -135 -204q-182 -174 -482 -216l-52 108q152 47 226 130t94 193zM-18 0l13 106l150 30l165 1258l-147 26l12 110h671l-12 -110l-172 -26l-165 -1258l175 -30
l-7 -106h-683z" />
    <glyph glyph-name="ij" unicode="&#x133;" horiz-adv-x="1317" 
d="M1094 1338q-66 0 -115 52t-47 126t56 130t136 55q82 0 130 -49t46 -125q-2 -77 -54 -133t-152 -56zM587 -528q-131 0 -171 37l38 121q36 -12 75 -12t71 13t56 34q23 21 42 56q37 68 53 150q16 81 30 194l105 915l-166 51l21 81l451 51l52 -24l-137 -1139
q-33 -250 -179 -389t-341 -139zM482 151q30 0 92 46l28 -73q-29 -37 -78 -73q-94 -71 -208 -71t-166 41t-42 110t26 189t41 320q26 201 45 340l-164 51l18 81l446 51l55 -24l-128 -912q-11 -76 35 -76zM437 1338q-66 0 -115 52t-47 126q1 74 55 130t136 55q82 0 131 -49
q48 -49 46 -125q-1 -77 -53 -133t-153 -56z" />
    <glyph glyph-name="Jcircumflex" unicode="&#x134;" horiz-adv-x="748" 
d="M272 1600l-107 57l367 357h178l210 -357l-124 -58l-201 207zM115 86q92 492 182 1307l-153 27l15 110h666l-11 -110l-168 -26q-126 -1036 -150 -1166t-32 -153q-40 -114 -134 -204q-182 -174 -483 -216l-52 108q151 47 225 130t95 193z" />
    <glyph glyph-name="jcircumflex" unicode="&#x135;" horiz-adv-x="652" 
d="M139 1239l-107 57l367 374h178l210 -374l-124 -58l-201 194zM-79 -528q-131 0 -171 37l38 121q36 -12 75 -12t71 13t56 34q23 21 42 56q37 68 53 150q16 81 30 194l105 915l-166 51l21 81l451 51l52 -24l-137 -1139q-33 -250 -179 -389t-341 -139z" />
    <glyph glyph-name="Kcommaaccent" unicode="&#x136;" horiz-adv-x="1477" 
d="M927 -247q0 -119 -71 -207t-156 -104l-100 70l3 26q24 13 46 47t22 77t-19 73t-48 33l11 93l154 104q68 -14 113 -74t45 -138zM-31 0l13 106l146 30l165 1258l-145 26l14 110h675l-12 -110l-180 -26l-89 -673l624 673l-145 27l11 109h501l-12 -110l-117 -26l-467 -470
q36 -54 129 -252t119 -249q50 -101 97 -185t81 -102l117 -30l-12 -106h-434q-44 5 -68 42t-52 107q-28 71 -98 261t-114 276l-189 -191l-47 -359l174 -30l-9 -106h-676z" />
    <glyph glyph-name="kcommaaccent" unicode="&#x137;" horiz-adv-x="1159" 
d="M759 -249q0 -119 -71 -207t-156 -104l-100 70l3 26q24 13 46 47t22 77t-19 73t-48 33l11 93l154 104q68 -14 113 -74t45 -138zM842 1017q0 84 50 115t113 31t97 -37t35 -107q0 -70 -57 -147q-99 -126 -305 -218l184 -380q48 -92 107 -92q20 0 54 12t62 34l34 -71
q-41 -51 -104 -93q-121 -83 -240 -83q-153 0 -197 120l-186 509l5 1h-5q141 73 219 155q38 40 86 104q48 63 48 147zM74 0l195 1482l-128 43l17 83l409 42l55 -27l-215 -1623h-333z" />
    <glyph glyph-name="kgreenlandic" unicode="&#x138;" horiz-adv-x="1219" 
d="M1062 182q60 0 119 46l34 -71q-41 -51 -104 -93q-121 -83 -240 -83q-153 0 -197 120l-186 509l430 544h271l-420 -489l189 -391q23 -44 52 -68t52 -24zM82 0l131 962l-107 60l16 89l374 52l52 -24l-142 -1139h-324z" />
    <glyph glyph-name="Lacute" unicode="&#x139;" horiz-adv-x="1271" 
d="M601 1572l-116 102l276 342l187 -185q-36 -69 -149 -148t-198 -111zM-22 0l12 106l138 30l165 1258l-146 26l13 110h679l-12 -110l-182 -26l-166 -1265l349 20l191 451l181 -23l-84 -577h-1138z" />
    <glyph glyph-name="lacute" unicode="&#x13a;" horiz-adv-x="634" 
d="M458 1570l-116 102l276 342l187 -185q-36 -69 -149 -148t-198 -111zM450 151q31 0 92 46l28 -73q-112 -144 -280 -144q-125 0 -182 56q-32 32 -33 79q0 13 8 77l171 1170l-132 43l20 83l406 42l51 -27l-184 -1276q-11 -76 35 -76z" />
    <glyph glyph-name="Lcommaaccent" unicode="&#x13b;" horiz-adv-x="1271" 
d="M757 -247q0 -119 -71 -207t-156 -104l-100 70l3 26q24 13 46 47t22 77t-19 73t-48 33l11 93l154 104q68 -14 113 -74t45 -138zM-22 0l12 106l138 30l165 1258l-146 26l13 110h679l-12 -110l-182 -26l-166 -1265l349 20l191 451l181 -23l-84 -577h-1138z" />
    <glyph glyph-name="lcommaaccent" unicode="&#x13c;" horiz-adv-x="635" 
d="M380 -249q0 -119 -71 -207t-156 -104l-100 70l3 26q24 13 46 47t22 77t-19 73t-48 33l11 93l154 104q68 -14 113 -74t45 -138zM458 151q31 0 92 46l28 -73q-112 -144 -280 -144q-125 0 -182 56q-32 32 -33 79q0 13 8 77l171 1290l-132 43l20 83l406 42l51 -27l-184 -1396
q-11 -76 35 -76z" />
    <glyph glyph-name="Lcaron" unicode="&#x13d;" horiz-adv-x="1271" 
d="M985 1348q0 178 -24 214l19 42l207 46q38 -40 38 -177q-1 -137 -39 -267t-106 -201l-130 30l-6 25q41 110 41 288zM-22 0l12 106l138 30l165 1258l-146 26l13 110h679l-12 -110l-182 -26l-166 -1265l349 20l191 451l181 -23l-84 -577h-1138z" />
    <glyph glyph-name="lcaron" unicode="&#x13e;" horiz-adv-x="756" 
d="M741 1348q0 178 -24 214l19 42l207 46q38 -40 38 -177q-1 -137 -39 -267t-106 -201l-130 30l-6 25q41 110 41 288zM458 153q31 0 92 46l28 -73q-112 -144 -280 -144q-125 0 -182 56q-32 32 -33 79q0 13 8 77l171 1290l-132 43l20 83l406 42l51 -27l-184 -1396
q-11 -76 35 -76z" />
    <glyph glyph-name="Ldot" unicode="&#x13f;" horiz-adv-x="1271" 
d="M847 924q0 78 59 134q58 56 130 56t111 -48t39 -128t-61 -132t-129 -53q-68 1 -109 47q-40 46 -40 124zM-22 0l12 106l138 30l165 1258l-146 26l13 110h679l-12 -110l-182 -26l-166 -1265l349 20l191 451l181 -23l-84 -577h-1138z" />
    <glyph glyph-name="ldot" unicode="&#x140;" horiz-adv-x="809" 
d="M575 798q0 78 59 134q58 56 130 55q72 1 111 -47t39 -128t-61 -134q-61 -52 -129 -52t-109 46q-40 48 -40 126zM458 151q31 0 92 46l28 -73q-112 -144 -280 -144q-125 0 -182 56q-32 32 -33 79q0 13 8 77l171 1290l-132 43l20 83l406 42l51 -27l-184 -1396
q-11 -76 35 -76z" />
    <glyph glyph-name="Lslash" unicode="&#x141;" horiz-adv-x="1272" 
d="M-21 2l12 106l138 30l53 402l-145 -57l-36 118l199 81l94 714l-146 26l13 110h679l-12 -110l-182 -26l-74 -563l305 124l35 -127l-359 -143l-73 -556l349 20l191 451l181 -23l-84 -577h-1138z" />
    <glyph glyph-name="lslash" unicode="&#x142;" horiz-adv-x="634" 
d="M458 151q31 0 92 46l28 -73q-112 -144 -280 -144q-125 0 -182 56q-32 32 -33 79q0 13 8 77l72 541l-137 -53v137l156 63l80 602l-132 43l20 83l406 42l51 -27l-80 -602l151 61v-147l-171 -67l-84 -641q-11 -76 35 -76z" />
    <glyph glyph-name="Nacute" unicode="&#x143;" horiz-adv-x="1545" 
d="M941 1570l-116 102l276 342l187 -185q-36 -69 -149 -148t-198 -111zM-33 0l8 106l149 30l186 1258l-170 26l16 110h557l371 -995l78 -230l136 1089l-172 26l11 110h502l-11 -110l-123 -26l-212 -1394h-358l-391 1028l-78 254l-125 -1146l190 -30l-11 -106h-553z" />
    <glyph glyph-name="nacute" unicode="&#x144;" horiz-adv-x="1308" 
d="M748 1231l-103 81l317 431l192 -187q-18 -34 -92 -102t-166 -135q-92 -66 -148 -88zM1082 206q0 -55 39 -55q29 0 90 46l28 -73q-111 -145 -300 -145q-129 0 -166 52t-37 110q0 57 46 312t46 353q-2 98 -20 129q-18 30 -68 30t-118 -71t-116 -173l-99 -721h-324l131 962
l-107 60l16 89l374 52l52 -24l-16 -210q69 109 165 171t210 63q265 0 265 -302q0 -76 -36 -283q-35 -207 -45 -262t-10 -110z" />
    <glyph glyph-name="Ncommaaccent" unicode="&#x145;" horiz-adv-x="1545" 
d="M866 -249q0 -119 -71 -207t-156 -104l-100 70l3 26q24 13 46 47t22 77t-19 73t-48 33l11 93l154 104q68 -14 113 -74t45 -138zM-33 0l8 106l149 30l186 1258l-170 26l16 110h557l371 -995l78 -230l136 1089l-172 26l11 110h502l-11 -110l-123 -26l-212 -1394h-358
l-391 1028l-78 254l-125 -1146l190 -30l-11 -106h-553z" />
    <glyph glyph-name="ncommaaccent" unicode="&#x146;" horiz-adv-x="1308" 
d="M735 -249q0 -119 -71 -207t-156 -104l-100 70l3 26q24 13 46 47t22 77t-19 73t-48 33l11 93l154 104q68 -14 113 -74t45 -138zM1082 206q0 -55 39 -55q29 0 90 46l28 -73q-111 -145 -300 -145q-129 0 -166 52t-37 110q0 57 46 312t46 353q-2 98 -20 129q-18 30 -68 30
t-118 -71t-116 -173l-99 -721h-324l131 962l-107 60l16 89l374 52l52 -24l-16 -210q69 109 165 171t210 63q265 0 265 -302q0 -76 -36 -283q-35 -207 -45 -262t-10 -110z" />
    <glyph glyph-name="Ncaron" unicode="&#x147;" horiz-adv-x="1545" 
d="M830 1599l-210 357l124 58l201 -172l323 172l107 -57l-368 -358h-177zM-33 0l8 106l149 30l186 1258l-170 26l16 110h557l371 -995l78 -230l136 1089l-172 26l11 110h502l-11 -110l-123 -26l-212 -1394h-358l-391 1028l-78 254l-125 -1146l190 -30l-11 -106h-553z" />
    <glyph glyph-name="ncaron" unicode="&#x148;" horiz-adv-x="1308" 
d="M628 1238l-210 374l124 58l201 -210l323 209l107 -57l-368 -374h-177zM1082 206q0 -55 39 -55q29 0 90 46l28 -73q-111 -145 -300 -145q-129 0 -166 52t-37 110q0 57 46 312t46 353q-2 98 -20 129q-18 30 -68 30t-118 -71t-116 -173l-99 -721h-324l131 962l-107 60l16 89
l374 52l52 -24l-16 -210q69 109 165 171t210 63q265 0 265 -302q0 -76 -36 -283q-35 -207 -45 -262t-10 -110z" />
    <glyph glyph-name="Eng" unicode="&#x14a;" horiz-adv-x="1545" 
d="M-33 0l8 106l149 30l181 1258l-170 26l16 110h557l391 -910l71 -250l123 1024l-172 26l11 110h502l-11 -110l-123 -26l-207 -1394q-26 -185 -164 -328t-367 -157l-48 118q104 19 199 117q45 46 71 112t22 138l-467 1028l-78 254l-120 -1146l190 -30l-11 -106h-553z" />
    <glyph glyph-name="eng" unicode="&#x14b;" horiz-adv-x="1290" 
d="M907 1162q120 0 200 -66q79 -66 65 -235q-52 -611 -90 -801t-71 -280q-67 -183 -173 -246q-106 -62 -263 -62q-158 0 -193 37l38 121q27 -12 74 -12q111 0 164 90t81 292q13 98 39 372t48 453q17 140 -78 140q-52 0 -119 -63t-125 -183l-98 -719h-324l131 962l-107 60
l16 89l374 52l52 -24l-16 -209q146 232 375 232z" />
    <glyph glyph-name="Omacron" unicode="&#x14c;" horiz-adv-x="1500" 
d="M598 1707v209h571v-209h-571zM684 102q100 0 178 60t125 168q97 217 97 551q0 545 -246 545q-94 0 -172 -66t-128 -178q-102 -229 -102 -505q0 -277 43 -397q43 -119 113 -156q40 -22 92 -22zM569 1500q135 50 293 50t276 -54t188 -146q139 -185 139 -476
q-1 -292 -137 -530q-93 -163 -262 -264q-169 -100 -411 -100q-358 0 -509 264q-91 160 -91 424q0 263 132 501q132 237 382 331z" />
    <glyph glyph-name="omacron" unicode="&#x14d;" horiz-adv-x="1197" 
d="M394 1405v209h571v-209h-571zM548 107q66 0 112 56q46 55 71 147q47 180 42 374t-34 268t-91 73q-62 1 -110 -55t-74 -146q-52 -182 -47 -375q6 -193 35 -267q30 -74 96 -75zM686 1163q210 1 324 -119t121 -341q5 -147 -37 -279t-123 -230q-80 -98 -201 -156t-265 -58
q-211 0 -323 119t-121 340q-5 147 37 279t122 230t201 157q121 58 265 58z" />
    <glyph glyph-name="Obreve" unicode="&#x14e;" horiz-adv-x="1500" 
d="M752 1969q0 -119 111 -119q134 0 164 72q14 34 16 92h182q1 -11 1 -54t-20 -102q-20 -58 -60 -110t-110 -84t-150 -31t-134 19q-100 34 -144 115t-44 179q0 31 5 68h184zM684 102q100 0 178 60t125 168q97 217 97 551q0 545 -246 545q-94 0 -172 -66t-128 -178
q-102 -229 -102 -505q0 -277 43 -397q43 -119 113 -156q40 -22 92 -22zM569 1500q135 50 293 50t276 -54t188 -146q139 -185 139 -476q-1 -292 -137 -530q-93 -163 -262 -264q-169 -100 -411 -100q-358 0 -509 264q-91 160 -91 424q0 263 132 501q132 237 382 331z" />
    <glyph glyph-name="obreve" unicode="&#x14f;" horiz-adv-x="1197" 
d="M591 1636q0 -119 111 -119q134 0 164 72q14 34 16 92h182q1 -11 1 -54t-20 -102t-60 -111t-110 -82q-69 -32 -149 -32t-134 18q-100 34 -145 116q-44 81 -44 179q0 31 5 68h184zM548 107q66 0 112 56q46 55 71 147q47 180 42 374t-34 268t-91 73q-62 1 -110 -55t-74 -146
q-52 -182 -47 -375q6 -193 35 -267q30 -74 96 -75zM686 1163q210 1 324 -119t121 -341q5 -147 -37 -279t-123 -230q-80 -98 -201 -156t-265 -58q-211 0 -323 119t-121 340q-5 147 37 279t122 230t201 157q121 58 265 58z" />
    <glyph glyph-name="Ohungarumlaut" unicode="&#x150;" horiz-adv-x="1500" 
d="M592 1570l-104 75l282 369l163 -132q-39 -86 -147 -185t-194 -127zM1077 1570l-99 75l282 369l160 -133q-56 -94 -156 -189t-187 -122zM684 102q100 0 178 60t125 168q97 217 97 551q0 545 -246 545q-94 0 -172 -66t-128 -178q-102 -229 -102 -505q0 -277 43 -397
q43 -119 113 -156q40 -22 92 -22zM569 1500q135 50 293 50t276 -54t188 -146q139 -185 139 -476q-1 -292 -137 -530q-93 -163 -262 -264q-169 -100 -411 -100q-358 0 -509 264q-91 160 -91 424q0 263 132 501q132 237 382 331z" />
    <glyph glyph-name="ohungarumlaut" unicode="&#x151;" horiz-adv-x="1197" 
d="M417 1231l-102 64l261 447l172 -118q-18 -78 -136 -216t-195 -177zM901 1231l-103 64l266 447l164 -114q-22 -81 -136 -221t-191 -176zM548 107q66 0 112 56q46 55 71 147q47 180 42 374t-34 268t-91 73q-62 1 -110 -55t-74 -146q-52 -182 -47 -375q6 -193 35 -267
q30 -74 96 -75zM686 1163q210 1 324 -119t121 -341q5 -147 -37 -279t-123 -230q-80 -98 -201 -156t-265 -58q-211 0 -323 119t-121 340q-5 147 37 279t122 230t201 157q121 58 265 58z" />
    <glyph glyph-name="OE" unicode="&#x152;" horiz-adv-x="2340" 
d="M674 102q100 0 178 60t125 168q97 217 97 551q0 545 -246 545q-94 0 -172 -66t-128 -178q-102 -229 -102 -505q0 -277 43 -397q43 -119 113 -156q40 -22 92 -22zM560 1500q134 50 295 50q307 0 431 -218l25 198h963l-36 -370h-212l-34 224l-349 26l-67 -529l444 24
l-23 -218l-441 25l-78 -576l479 35l117 297l213 -14l-70 -454h-1097l20 165q-183 -185 -495 -185q-357 0 -503 265q-88 160 -87 423q0 264 129 501q128 238 376 331z" />
    <glyph glyph-name="oe" unicode="&#x153;" horiz-adv-x="1744" 
d="M554 107q76 -1 128 87q53 88 75 235v1q-1 81 15 169q3 212 -23 319t-99 107q-64 -1 -112 -57t-75 -146q-51 -178 -45 -369q6 -192 33 -269t103 -77zM1332 1025q-54 -1 -96 -43t-76 -143t-44 -264q98 5 195 83q47 38 76 98t27 130q-5 139 -82 139zM691 1163
q221 0 328 -135q168 135 387 135q163 -1 244 -69t85 -181q8 -219 -210 -351q-166 -100 -409 -107q0 -296 187 -296q178 0 298 156l64 -103q-47 -75 -166 -154q-119 -78 -316 -78t-310 120q-159 -120 -371 -120t-323 118q-110 118 -118 341q-10 301 158 509q81 98 203 157
q122 58 269 58z" />
    <glyph glyph-name="Racute" unicode="&#x154;" horiz-adv-x="1450" 
d="M895 1570l-116 102l276 342l187 -185q-36 -69 -149 -148t-198 -111zM725 797q129 0 209 102t73 287q-4 116 -70 175t-180 59q-62 0 -115 -10l-81 -610q35 -3 164 -3zM472 1530q62 0 167 8t200 8q526 0 526 -382q-1 -160 -85 -280t-236 -179q34 -40 64 -115
q29 -76 73 -196t90 -195q47 -74 108 -88q19 -4 42 -5l-10 -107l-415 2q-32 -2 -90 187q-124 407 -171 474q-125 -1 -193 -1l-66 -525l184 -30l-6 -106h-676l9 106l141 30l165 1258l-145 26l13 110h311z" />
    <glyph glyph-name="racute" unicode="&#x155;" horiz-adv-x="843" 
d="M499 1231l-103 81l317 431l192 -187q-19 -34 -93 -102t-166 -135q-92 -66 -147 -88zM818 1163q41 0 70 -20l-69 -357q-10 12 -44 22t-63 9q-109 0 -204 -57l-105 -760h-323l132 962l-107 60l17 89l328 52l53 -24l20 -273q39 133 111 215t184 82z" />
    <glyph glyph-name="Rcommaaccent" unicode="&#x156;" horiz-adv-x="1450" 
d="M899 -249q0 -119 -71 -207t-156 -104l-100 70l3 26q24 13 46 47t22 77t-19 73t-48 33l11 93l154 104q68 -14 113 -74t45 -138zM725 797q129 0 209 102t73 287q-4 116 -70 175t-180 59q-62 0 -115 -10l-81 -610q35 -3 164 -3zM472 1530q62 0 167 8t200 8q526 0 526 -382
q-1 -160 -85 -280t-236 -179q34 -40 64 -115q29 -76 73 -196t90 -195q47 -74 108 -88q19 -4 42 -5l-10 -107l-415 2q-32 -2 -90 187q-124 407 -171 474q-125 -1 -193 -1l-66 -525l184 -30l-6 -106h-676l9 106l141 30l165 1258l-145 26l13 110h311z" />
    <glyph glyph-name="rcommaaccent" unicode="&#x157;" horiz-adv-x="843" 
d="M390 -249q0 -119 -71 -207t-156 -104l-100 70l3 26q24 13 46 47t22 77t-19 73t-48 33l11 93l154 104q68 -14 113 -74t45 -138zM818 1163q41 0 70 -20l-69 -357q-10 12 -44 22t-63 9q-109 0 -204 -57l-105 -760h-323l132 962l-107 60l17 89l328 52l53 -24l20 -273
q39 133 111 215t184 82z" />
    <glyph glyph-name="Rcaron" unicode="&#x158;" horiz-adv-x="1450" 
d="M784 1599l-210 357l124 58l201 -172l323 172l107 -57l-368 -358h-177zM725 797q129 0 209 102t73 287q-4 116 -70 175t-180 59q-62 0 -115 -10l-81 -610q35 -3 164 -3zM472 1530q62 0 167 8t200 8q526 0 526 -382q-1 -160 -85 -280t-236 -179q34 -40 64 -115
q29 -76 73 -196t90 -195q47 -74 108 -88q19 -4 42 -5l-10 -107l-415 2q-32 -2 -90 187q-124 407 -171 474q-125 -1 -193 -1l-66 -525l184 -30l-6 -106h-676l9 106l141 30l165 1258l-145 26l13 110h311z" />
    <glyph glyph-name="rcaron" unicode="&#x159;" horiz-adv-x="843" 
d="M379 1238l-210 374l124 58l201 -210l323 209l107 -57l-368 -374h-177zM818 1163q41 0 70 -20l-69 -357q-10 12 -44 22t-63 9q-109 0 -204 -57l-105 -760h-323l132 962l-107 60l17 89l328 52l53 -24l20 -273q39 133 111 215t184 82z" />
    <glyph glyph-name="Sacute" unicode="&#x15a;" horiz-adv-x="1157" 
d="M743 1570l-116 102l276 342l187 -185q-36 -69 -149 -148t-198 -111zM686 1423q-203 -1 -203 -189q1 -94 65 -170q64 -78 212 -172t234 -202q84 -109 84 -248q0 -188 -143 -322q-153 -142 -449 -143q-150 0 -290 33q-142 33 -181 65l60 318h206l11 -221q88 -66 216 -66
t185 54t57 148t-58 164t-201 161q-325 207 -325 469q0 142 74 244q147 203 495 203q271 0 399 -74l-54 -302h-191l-30 198q-72 52 -173 52z" />
    <glyph glyph-name="sacute" unicode="&#x15b;" horiz-adv-x="873" 
d="M549 1231l-103 81l317 431l192 -187q-19 -34 -93 -102t-166 -135q-92 -66 -147 -88zM310 134q70 0 118 30t48 90t-44 109t-110 95q-68 46 -98 76q-30 28 -61 70q-64 87 -64 234q-1 147 131 236t338 89q76 0 154 -12t106 -25l-43 -207q-87 100 -204 100q-68 0 -114 -30
t-46 -87t40 -104t140 -118q202 -145 202 -352t-204 -296q-205 -90 -467 -30q-100 22 -129 47l48 201q44 -42 116 -79t143 -37z" />
    <glyph glyph-name="Scircumflex" unicode="&#x15c;" horiz-adv-x="1157" 
d="M487 1600l-107 57l367 357h178l210 -357l-124 -58l-201 207zM686 1423q-203 -1 -203 -189q1 -94 65 -170q64 -78 212 -172t234 -202q84 -109 84 -248q0 -188 -143 -322q-153 -142 -449 -143q-150 0 -290 33q-142 33 -181 65l60 318h206l11 -221q88 -66 216 -66t185 54
t57 148t-58 164t-201 161q-325 207 -325 469q0 142 74 244q147 203 495 203q271 0 399 -74l-54 -302h-191l-30 198q-72 52 -173 52z" />
    <glyph glyph-name="scircumflex" unicode="&#x15d;" horiz-adv-x="873" 
d="M298 1239l-107 57l367 374h178l210 -374l-124 -58l-201 194zM310 134q70 0 118 30t48 90t-44 109t-110 95q-68 46 -98 76q-30 28 -61 70q-64 87 -64 234q-1 147 131 236t338 89q76 0 154 -12t106 -25l-43 -207q-87 100 -204 100q-68 0 -114 -30t-46 -87t40 -104t140 -118
q202 -145 202 -352t-204 -296q-205 -90 -467 -30q-100 22 -129 47l48 201q44 -42 116 -79t143 -37z" />
    <glyph glyph-name="Scedilla" unicode="&#x15e;" horiz-adv-x="1181" 
d="M698 1423q-203 -1 -203 -189q1 -94 65 -170q64 -78 212 -172t234 -202q84 -109 84 -248q0 -177 -129 -310t-388 -152q33 -110 33 -218q0 -246 -298 -246q-46 0 -114 8t-84 20l35 153q29 -16 95 -16q66 -1 114 37q75 58 45 263q-127 11 -233 39t-139 55l60 318h206
l11 -221q88 -66 216 -66t185 54t57 148t-58 164t-201 161q-325 207 -325 469q0 142 74 244q147 203 495 203q271 0 399 -74l-54 -302h-191l-30 198q-72 52 -173 52z" />
    <glyph glyph-name="scedilla" unicode="&#x15f;" horiz-adv-x="873" 
d="M501 -238q0 -246 -298 -246q-47 0 -115 8t-83 20l35 153q30 -16 96 -16q66 -1 113 37q75 59 46 263q-89 4 -177 25t-115 43l48 201q44 -42 116 -79t143 -37q70 0 118 30t48 90t-44 109t-110 95q-68 46 -98 76q-30 28 -61 70q-64 87 -64 234q-1 147 131 236t338 89
q76 0 154 -12t106 -25l-43 -207q-87 100 -204 100q-68 0 -114 -30t-46 -87t40 -104t140 -118q202 -145 202 -351q0 -142 -94 -226t-245 -111q37 -111 37 -230z" />
    <glyph glyph-name="Scaron" unicode="&#x160;" horiz-adv-x="1157" 
d="M632 1599l-210 357l124 58l201 -172l323 172l107 -57l-368 -358h-177zM686 1423q-203 -1 -203 -189q1 -94 65 -170q64 -78 212 -172t234 -202q84 -109 84 -248q0 -188 -143 -322q-153 -142 -449 -143q-150 0 -290 33q-142 33 -181 65l60 318h206l11 -221q88 -66 216 -66
t185 54t57 148t-58 164t-201 161q-325 207 -325 469q0 142 74 244q147 203 495 203q271 0 399 -74l-54 -302h-191l-30 198q-72 52 -173 52z" />
    <glyph glyph-name="scaron" unicode="&#x161;" horiz-adv-x="873" 
d="M429 1238l-210 374l124 58l201 -210l323 209l107 -57l-368 -374h-177zM310 134q70 0 118 30t48 90t-44 109t-110 95q-68 46 -98 76q-30 28 -61 70q-64 87 -64 234q-1 147 131 236t338 89q76 0 154 -12t106 -25l-43 -207q-87 100 -204 100q-68 0 -114 -30t-46 -87t40 -104
t140 -118q202 -145 202 -352t-204 -296q-205 -90 -467 -30q-100 22 -129 47l48 201q44 -42 116 -79t143 -37z" />
    <glyph glyph-name="uni0162" unicode="&#x162;" horiz-adv-x="1421" 
d="M772 -238q0 -246 -298 -246q-46 0 -114 8t-84 20l35 153q29 -16 95 -16q66 -1 114 37q80 62 43 282h-351l13 106l250 30l167 1258l-236 -26l-167 -423h-188l99 585h1376l-75 -583l-181 -2l-33 423l-242 26l-168 -1258l284 -30l-10 -106h-369q40 -101 40 -238z" />
    <glyph glyph-name="uni0163" unicode="&#x163;" horiz-adv-x="724" 
d="M106 159q0 39 27 239l81 596h-119l24 109l122 47q76 63 161 266h189l-33 -261h208l-23 -161h-206l-83 -604q-15 -110 -15 -139q0 -81 73 -81q101 0 169 57l25 -80q-116 -130 -307 -159q36 -108 36 -226q0 -246 -298 -246q-47 0 -115 8t-83 20l35 153q30 -16 96 -16
q66 -1 113 37t51 122t-7 149q-121 30 -121 170z" />
    <glyph glyph-name="Tcaron" unicode="&#x164;" horiz-adv-x="1421" 
d="M767 1599l-210 357l124 58l201 -172l323 172l107 -57l-368 -358h-177zM212 0l13 106l250 30l167 1258l-236 -26l-167 -423h-188l99 585h1376l-75 -583l-181 -2l-33 423l-242 26l-168 -1258l284 -30l-10 -106h-889z" />
    <glyph glyph-name="tcaron" unicode="&#x165;" horiz-adv-x="756" 
d="M728 1588q0 178 -24 214l19 42l207 46q38 -40 38 -177t-38 -267t-107 -201l-130 30l-6 25q41 110 41 288zM106 159q0 39 27 239l81 596h-119l24 109l122 47q76 63 161 266h189l-33 -261h208l-23 -161h-206l-83 -604q-15 -110 -15 -139q0 -81 73 -81q101 0 169 57l25 -80
q-149 -167 -407 -167q-85 0 -139 42t-54 137z" />
    <glyph glyph-name="Tbar" unicode="&#x166;" horiz-adv-x="1225" 
d="M121 0l13 106l250 30l72 544h-222l16 150h226l75 564l-236 -26l-167 -423h-188l99 585h1376l-75 -583l-181 -2l-33 423l-242 26l-76 -564h236l-16 -150h-240l-72 -544l284 -30l-10 -106h-889z" />
    <glyph glyph-name="tbar" unicode="&#x167;" horiz-adv-x="724" 
d="M106 159q0 39 27 239l30 223h-94l16 130h96l33 243h-119l24 109l122 47q76 63 161 266h189l-33 -261h208l-23 -161h-206l-34 -243h164l-16 -130h-166l-31 -231q-15 -110 -15 -139q0 -81 73 -81q101 0 169 57l25 -80q-149 -167 -407 -167q-85 0 -139 42t-54 137z" />
    <glyph glyph-name="Utilde" unicode="&#x168;" horiz-adv-x="1447" 
d="M874 1970q58 0 94 -16q44 -19 99 -76q55 -58 91 -58q65 0 96 28q32 28 66 72l88 -131q-28 -69 -102 -125t-136 -56t-100 15t-62 37t-44 44q-115 120 -255 -27l-77 124q32 65 108 117t134 52zM128 442q0 92 7 151l100 801l-144 26l13 110h704l-10 -109l-197 -27l-97 -771
q-17 -153 -17 -201q0 -148 61 -233t184 -85q179 0 266 138t121 384l104 768l-168 27l11 109h484l-15 -109l-129 -27l-97 -767q-44 -349 -202 -498t-437 -149q-350 0 -472 183q-70 105 -70 279z" />
    <glyph glyph-name="utilde" unicode="&#x169;" horiz-adv-x="1276" 
d="M575 1680q57 0 93 -16q44 -19 100 -76q55 -58 91 -58q65 0 96 28q32 28 66 72l88 -131q-27 -69 -101 -125t-137 -56q-62 0 -100 15q-37 15 -61 37t-45 44q-115 120 -255 -27l-77 124q32 65 108 117t134 52zM1094 151q29 0 92 46l28 -73q-23 -37 -73 -73q-97 -71 -204 -71
t-153 44t-33 119l-4 3q-145 -166 -347 -166q-100 0 -189 54q-45 28 -73 80t-30 100q0 48 2 80t8 76q6 42 9 71q4 29 12 82t11 74l54 365l-126 80l16 89l403 32l52 -24l-69 -550q-4 -33 -20 -150t-17 -173q0 -118 95 -118q106 0 194 99l124 908h326l-128 -928q-10 -76 40 -76
z" />
    <glyph glyph-name="Umacron" unicode="&#x16a;" horiz-adv-x="1447" 
d="M674 1707v209h571v-209h-571zM128 442q0 92 7 151l100 801l-144 26l13 110h704l-10 -109l-197 -27l-97 -771q-17 -153 -17 -201q0 -148 61 -233t184 -85q179 0 266 138t121 384l104 768l-168 27l11 109h484l-15 -109l-129 -27l-97 -767q-44 -349 -202 -498t-437 -149
q-350 0 -472 183q-70 105 -70 279z" />
    <glyph glyph-name="umacron" unicode="&#x16b;" horiz-adv-x="1276" 
d="M403 1405v209h571v-209h-571zM1094 151q29 0 92 46l28 -73q-23 -37 -73 -73q-97 -71 -204 -71t-153 44t-33 119l-4 3q-145 -166 -347 -166q-100 0 -189 54q-45 28 -73 80t-30 100q0 48 2 80t8 76q6 42 9 71q4 29 12 82t11 74l54 365l-126 80l16 89l403 32l52 -24
l-69 -550q-4 -33 -20 -150t-17 -173q0 -118 95 -118q106 0 194 99l124 908h326l-128 -928q-10 -76 40 -76z" />
    <glyph glyph-name="Ubreve" unicode="&#x16c;" horiz-adv-x="1447" 
d="M828 1969q0 -119 111 -119q134 0 164 72q14 34 16 92h182q1 -11 1 -54t-20 -102q-20 -58 -60 -110t-110 -84t-150 -31t-134 19q-100 34 -144 115t-44 179q0 31 5 68h184zM128 442q0 92 7 151l100 801l-144 26l13 110h704l-10 -109l-197 -27l-97 -771q-17 -153 -17 -201
q0 -148 61 -233t184 -85q179 0 266 138t121 384l104 768l-168 27l11 109h484l-15 -109l-129 -27l-97 -767q-44 -349 -202 -498t-437 -149q-350 0 -472 183q-70 105 -70 279z" />
    <glyph glyph-name="ubreve" unicode="&#x16d;" horiz-adv-x="1276" 
d="M600 1636q0 -119 111 -119q134 0 164 72q14 34 16 92h182q1 -11 1 -54t-20 -102t-60 -111t-110 -82q-70 -32 -150 -32t-134 18q-100 34 -144 116q-44 81 -44 179q0 31 5 68h184zM1094 151q29 0 92 46l28 -73q-23 -37 -73 -73q-97 -71 -204 -71t-153 44t-33 119l-4 3
q-145 -166 -347 -166q-100 0 -189 54q-45 28 -73 80t-30 100q0 48 2 80t8 76q6 42 9 71q4 29 12 82t11 74l54 365l-126 80l16 89l403 32l52 -24l-69 -550q-4 -33 -20 -150t-17 -173q0 -118 95 -118q106 0 194 99l124 908h326l-128 -928q-10 -76 40 -76z" />
    <glyph glyph-name="Uring" unicode="&#x16e;" horiz-adv-x="1447" 
d="M969 1630q165 0 165 133q0 51 -40 83t-102 32t-111 -30t-49 -93q0 -61 42 -93t95 -32zM670 -20q-542 0 -542 448q0 106 7 165l100 801l-144 26l13 110h652q-118 58 -118 191q0 187 184 257q93 36 215 36q123 0 207 -58t83 -165q0 -184 -174 -261h397l-15 -109l-129 -27
l-97 -767q-44 -349 -202 -498q-157 -149 -437 -149zM942 1491q-70 0 -136 20l-8 -90l-197 -27l-97 -771q-17 -153 -17 -201q0 -148 61 -233t184 -85q179 0 266 138t121 384l104 768l-168 27l8 81q-51 -11 -121 -11z" />
    <glyph glyph-name="uring" unicode="&#x16f;" horiz-adv-x="1276" 
d="M746 1396q60 0 109 32q48 32 48 98t-41 102t-101 36t-110 -35t-50 -98q1 -63 43 -99t102 -36zM407 1497q-1 189 183 267q94 40 216 40t206 -64t84 -173q0 -77 -34 -139t-88 -98q-112 -76 -257 -77t-227 63t-83 181zM1094 151q29 0 92 46l28 -73q-23 -37 -73 -73
q-97 -71 -204 -71t-153 44t-33 119l-4 3q-145 -166 -347 -166q-100 0 -189 54q-45 28 -73 80t-30 100q0 48 2 80t8 76q6 42 9 71q4 29 12 82t11 74l54 365l-126 80l16 89l403 32l52 -24l-69 -550q-4 -33 -20 -150t-17 -173q0 -118 95 -118q106 0 194 99l124 908h326
l-128 -928q-10 -76 40 -76z" />
    <glyph glyph-name="Uhungarumlaut" unicode="&#x170;" horiz-adv-x="1447" 
d="M668 1570l-104 75l282 369l163 -132q-39 -86 -147 -185t-194 -127zM1153 1570l-99 75l282 369l160 -133q-56 -94 -156 -189t-187 -122zM128 442q0 92 7 151l100 801l-144 26l13 110h704l-10 -109l-197 -27l-97 -771q-17 -153 -17 -201q0 -148 61 -233t184 -85
q179 0 266 138t121 384l104 768l-168 27l11 109h484l-15 -109l-129 -27l-97 -767q-44 -349 -202 -498t-437 -149q-350 0 -472 183q-70 105 -70 279z" />
    <glyph glyph-name="uhungarumlaut" unicode="&#x171;" horiz-adv-x="1276" 
d="M426 1231l-102 64l261 447l172 -118q-19 -78 -137 -216t-194 -177zM910 1231l-103 64l266 447l164 -114q-21 -81 -135 -221t-192 -176zM1094 151q29 0 92 46l28 -73q-23 -37 -73 -73q-97 -71 -204 -71t-153 44t-33 119l-4 3q-145 -166 -347 -166q-100 0 -189 54
q-45 28 -73 80t-30 100q0 48 2 80t8 76q6 42 9 71q4 29 12 82t11 74l54 365l-126 80l16 89l403 32l52 -24l-69 -550q-4 -33 -20 -150t-17 -173q0 -118 95 -118q106 0 194 99l124 908h326l-128 -928q-10 -76 40 -76z" />
    <glyph glyph-name="Uogonek" unicode="&#x172;" horiz-adv-x="1379" 
d="M483 -316q0 140 186 297q-11 -1 -83 -1t-168 23q-177 43 -250 154q-74 111 -74 271q0 106 7 165l100 801l-144 26l13 110h704l-10 -109l-197 -27l-97 -771q-17 -153 -17 -201q0 -148 61 -233t184 -85q179 0 266 138t121 384l104 768l-168 27l11 109h484l-15 -109
l-129 -27l-97 -767q-32 -249 -121 -395t-239 -206q-151 -138 -151 -226t65 -87q65 0 155 75l36 -114q-61 -66 -151 -110t-189 -44t-148 46q-49 48 -49 118z" />
    <glyph glyph-name="uogonek" unicode="&#x173;" horiz-adv-x="1276" 
d="M938 -287q37 -1 70 17t83 58l36 -114q-150 -154 -344 -154q-95 0 -144 46t-49 116t45 136q78 113 200 177q-103 35 -84 148l-4 3q-145 -166 -347 -166q-100 0 -189 54q-45 28 -73 80t-30 100q0 48 2 80t8 76q6 42 9 71q4 29 12 82t11 74l54 365l-126 80l16 89l403 32
l52 -24l-69 -550q-4 -33 -20 -150t-17 -173q0 -118 95 -118q106 0 194 99l124 908h326l-128 -928q-10 -76 40 -76q29 0 92 46l28 -73q-23 -38 -87 -84q-1 -1 -5 -3q-4 -3 -17 -11q-234 -152 -234 -241q0 -72 67 -72z" />
    <glyph glyph-name="Wcircumflex" unicode="&#x174;" horiz-adv-x="1954" 
d="M962 1600l-107 57l367 357h178l210 -357l-124 -58l-201 207zM322 -10l-207 1403l-138 28l14 109h612l-9 -110l-126 -28l126 -1090l79 208l305 738l-13 145l-160 28l10 109h636l-9 -110l-139 -27l93 -883l7 -208l461 1091l-227 27l10 110h594l-10 -109l-159 -27
l-644 -1404h-320l-90 936l-379 -936h-317z" />
    <glyph glyph-name="wcircumflex" unicode="&#x175;" horiz-adv-x="1742" 
d="M751 1239l-107 57l367 374h178l210 -374l-124 -58l-201 194zM242 1163q178 0 200 -137l90 -587l26 -211l87 282l189 645h277l118 -750l30 -177l89 165q98 177 98 382q0 54 -16 136q-16 83 -16 129t42 84t105 39q117 -1 153 -69q73 -139 -23 -367q-95 -228 -266 -465
l-194 -270l-240 -10l-68 373l-38 268l-1 138l-47 -138l-94 -296l-135 -331l-283 -16l-202 945q-20 98 -119 23l-29 80q26 37 102 86t165 49z" />
    <glyph glyph-name="Ycircumflex" unicode="&#x176;" horiz-adv-x="1281" 
d="M558 1600l-107 57l367 357h178l210 -357l-124 -58l-201 207zM161 0l12 106l230 30l58 469l-331 789l-111 26l12 110h684l-17 -110l-181 -26l172 -486l53 -123l354 609l-164 26l10 110h533l-15 -110l-130 -26l-515 -789l-61 -469l245 -30l-10 -106h-828z" />
    <glyph glyph-name="ycircumflex" unicode="&#x177;" horiz-adv-x="1084" 
d="M340 1239l-107 57l367 374h178l210 -374l-124 -58l-201 194zM216 -349q84 0 154 62t153 216h-191l-210 996q-12 56 -43 56q-36 0 -75 -34l-29 81q40 58 124 96q83 39 160 39q157 0 184 -137q60 -310 135 -787l18 -159l61 124q134 272 134 533q0 73 -18 150t-18 137
q-1 60 41 100q42 39 128 39q162 -1 162 -223t-218 -643q-80 -155 -118 -229t-66 -126q-34 -65 -84 -154q-172 -306 -448 -306q-80 0 -158 15t-110 30l51 215q35 -27 115 -59q82 -32 166 -32z" />
    <glyph glyph-name="Ydieresis" unicode="&#x178;" horiz-adv-x="1281" 
d="M579 1661q-73 0 -111 42q-38 43 -38 115q2 72 47 119t118 47t111 -40t35 -113q-1 -74 -45 -122t-117 -48zM1031 1661q-73 0 -111 42q-38 43 -38 115q2 72 47 119t118 47t111 -40t35 -113q-1 -74 -45 -122t-117 -48zM161 0l12 106l230 30l58 469l-331 789l-111 26l12 110
h684l-17 -110l-181 -26l172 -486l53 -123l354 609l-164 26l10 110h533l-15 -110l-130 -26l-515 -789l-61 -469l245 -30l-10 -106h-828z" />
    <glyph glyph-name="Zacute" unicode="&#x179;" horiz-adv-x="1226" 
d="M793 1570l-116 102l276 342l187 -185q-36 -69 -149 -148t-198 -111zM-39 0l-34 89l877 1215l123 98l-424 -18l-148 -270l-175 22l51 394h1040l30 -86l-865 -1209l-112 -98l493 22l184 333l167 -31l-88 -461h-1119z" />
    <glyph glyph-name="zacute" unicode="&#x17a;" horiz-adv-x="989" 
d="M630 1231l-103 81l317 431l192 -187q-18 -34 -92 -102t-166 -135q-92 -66 -148 -88zM317 1163l579 -35q67 0 108 35l53 -61l-649 -802l-72 -43h328q81 -1 128 45t54 117h85q12 -83 6 -186q-12 -195 -73 -236q-28 -20 -108 -20q-80 1 -324 17t-311 16t-99 -33l-62 62
l646 792l93 52l-303 1q-78 0 -124 -42t-51 -109h-88q-15 82 -8 186q12 196 75 222q50 22 117 22z" />
    <glyph glyph-name="Zdotaccent" unicode="&#x17b;" horiz-adv-x="1226" 
d="M768 1612q-66 0 -120 52t-52 126q2 73 60 129t142 56q84 1 136 -49t50 -125t-58 -132t-158 -57zM-39 0l-34 89l877 1215l123 98l-424 -18l-148 -270l-175 22l51 394h1040l30 -86l-865 -1209l-112 -98l493 22l184 333l167 -31l-88 -461h-1119z" />
    <glyph glyph-name="zdotaccent" unicode="&#x17c;" horiz-adv-x="989" 
d="M644 1338q-66 0 -115 52t-47 126t56 130t136 55q82 0 130 -49t46 -125q-2 -77 -54 -133t-152 -56zM317 1163l579 -35q67 0 108 35l53 -61l-649 -802l-72 -43h328q81 -1 128 45t54 117h85q12 -83 6 -186q-12 -195 -73 -236q-28 -20 -108 -20q-80 1 -324 17t-311 16
t-99 -33l-62 62l646 792l93 52l-303 1q-78 0 -124 -42t-51 -109h-88q-15 82 -8 186q12 196 75 222q50 22 117 22z" />
    <glyph glyph-name="Zcaron" unicode="&#x17d;" horiz-adv-x="1226" 
d="M682 1599l-210 357l124 58l201 -172l323 172l107 -57l-368 -358h-177zM-39 0l-34 89l877 1215l123 98l-424 -18l-148 -270l-175 22l51 394h1040l30 -86l-865 -1209l-112 -98l493 22l184 333l167 -31l-88 -461h-1119z" />
    <glyph glyph-name="zcaron" unicode="&#x17e;" horiz-adv-x="989" 
d="M510 1238l-210 374l124 58l201 -210l323 209l107 -57l-368 -374h-177zM317 1163l579 -35q67 0 108 35l53 -61l-649 -802l-72 -43h328q81 -1 128 45t54 117h85q12 -83 6 -186q-12 -195 -73 -236q-28 -20 -108 -20q-80 1 -324 17t-311 16t-99 -33l-62 62l646 792l93 52
l-303 1q-78 0 -124 -42t-51 -109h-88q-15 82 -8 186q12 196 75 222q50 22 117 22z" />
    <glyph glyph-name="florin" unicode="&#x192;" horiz-adv-x="1058" 
d="M879 1474q-173 0 -196 -189l-16 -130h254l-15 -191h-267l-162 -1320h-298l170 1320h-196l13 135l202 56l7 48q15 106 70 200t128 155q158 132 308 132q151 0 197 -17l-16 -240q-4 1 -20 10t-45 20t-118 11z" />
    <glyph glyph-name="AEacute" unicode="&#x1fc;" horiz-adv-x="2076" 
d="M1342 1570l-116 102l276 342l187 -185q-36 -69 -149 -148t-198 -111zM519 567h410l105 827h-59zM2 136l771 1258l-336 26l15 110h1566l-36 -370h-212l-34 224l-349 26l-67 -529l444 24l-23 -218l-441 25l-78 -576l479 35l117 297l213 -14l-70 -454h-1290l14 106l190 30
l35 280h-474l-154 -280l190 -30l-8 -106h-627l8 106z" />
    <glyph glyph-name="aeacute" unicode="&#x1fd;" horiz-adv-x="1716" 
d="M961 1231l-103 81l317 431l192 -187q-19 -34 -93 -102t-166 -135q-92 -66 -147 -88zM410 413q0 -233 88 -233t203 156l104 687q-79 -1 -145 -40q-121 -71 -185 -233q-65 -161 -65 -337zM1302 1025q-54 -1 -96 -43t-76 -143t-44 -264q98 5 194 83q46 38 76 98t28 130
q-6 139 -82 139zM377 -20q-313 0 -313 412q0 244 133 447t361 281q122 42 236 43q114 0 228 -30l89 30l-8 -63q126 63 281 63q156 -1 236 -69t84 -164t-24 -165t-76 -117q-101 -101 -241 -145t-277 -48q0 -296 187 -296q178 0 298 156l64 -103q-47 -75 -166 -154
q-119 -78 -293 -78q-324 0 -412 266q-120 -182 -267 -242q-59 -24 -120 -24z" />
    <glyph glyph-name="uni0218" unicode="&#x218;" horiz-adv-x="1181" 
d="M656 -249q0 -119 -71 -207t-156 -104l-100 70l3 26q24 13 46 47t22 77t-19 73t-48 33l11 93l154 104q68 -14 113 -74t45 -138zM698 1423q-203 -1 -203 -189q1 -94 65 -170q64 -78 212 -172t234 -202q84 -109 84 -248q0 -188 -143 -322q-153 -142 -449 -143
q-150 0 -290 33q-142 33 -181 65l60 318h206l11 -221q88 -66 216 -66t185 54t57 148t-58 164t-201 161q-325 207 -325 469q0 142 74 244q147 203 495 203q271 0 399 -74l-54 -302h-191l-30 198q-72 52 -173 52z" />
    <glyph glyph-name="uni0219" unicode="&#x219;" horiz-adv-x="873" 
d="M551 -249q0 -119 -71 -207t-156 -104l-100 70l3 26q24 13 46 47t22 77t-19 73t-48 33l11 93l154 104q68 -14 113 -74t45 -138zM310 134q70 0 118 30t48 90t-44 109t-110 95q-68 46 -98 76q-30 28 -61 70q-64 87 -64 234q-1 147 131 236t338 89q76 0 154 -12t106 -25
l-43 -207q-87 100 -204 100q-68 0 -114 -30t-46 -87t40 -104t140 -118q202 -145 202 -352t-204 -296q-205 -90 -467 -30q-100 22 -129 47l48 201q44 -42 116 -79t143 -37z" />
    <glyph glyph-name="uni021A" unicode="&#x21a;" horiz-adv-x="1421" 
d="M822 -249q0 -119 -71 -207t-156 -104l-100 70l3 26q24 13 46 47t22 77t-19 73t-48 33l11 93l154 104q68 -14 113 -74t45 -138zM212 0l13 106l250 30l167 1258l-236 -26l-167 -423h-188l99 585h1376l-75 -583l-181 -2l-33 423l-242 26l-168 -1258l284 -30l-10 -106h-889z
" />
    <glyph glyph-name="uni021B" unicode="&#x21b;" horiz-adv-x="724" 
d="M485 -249q0 -119 -71 -207t-156 -104l-100 70l3 26q24 13 46 47t22 77t-19 73t-48 33l11 93l154 104q68 -14 113 -74t45 -138zM106 159q0 39 27 239l81 596h-119l24 109l122 47q76 63 161 266h189l-33 -261h208l-23 -161h-206l-83 -604q-15 -110 -15 -139q0 -81 73 -81
q101 0 169 57l25 -80q-149 -167 -407 -167q-85 0 -139 42t-54 137z" />
    <glyph glyph-name="dotlessj" unicode="&#x237;" horiz-adv-x="652" 
d="M-79 -528q-131 0 -171 37l38 121q36 -12 75 -12t71 13t56 34q23 21 42 56q37 68 53 150q16 81 30 194l105 915l-166 51l21 81l451 51l52 -24l-137 -1139q-33 -250 -179 -389t-341 -139z" />
    <glyph glyph-name="circumflex" unicode="&#x2c6;" horiz-adv-x="795" 
d="M157 1239l-107 57l367 374h178l210 -374l-124 -58l-201 194z" />
    <glyph glyph-name="caron" unicode="&#x2c7;" horiz-adv-x="794" 
d="M260 1238l-210 374l124 58l201 -210l323 209l107 -57l-368 -374h-177z" />
    <glyph glyph-name="uni02c9" unicode="&#x2c9;" horiz-adv-x="614" 
d="M1 1727v219h571v-219h-571z" />
    <glyph glyph-name="breve" unicode="&#x2d8;" horiz-adv-x="717" 
d="M239 1636q0 -119 111 -119q134 0 164 72q14 34 16 92h182q1 -11 1 -54t-20 -102t-60 -111t-110 -82q-69 -32 -149 -32t-134 18q-100 34 -145 116q-44 81 -44 179q0 31 5 68h184z" />
    <glyph glyph-name="dotaccent" unicode="&#x2d9;" horiz-adv-x="388" 
d="M173 1338q-66 0 -115 52t-47 126q1 74 55 130t136 55q82 0 131 -49q48 -49 46 -125q-1 -77 -53 -133t-153 -56z" />
    <glyph glyph-name="ring" unicode="&#x2da;" horiz-adv-x="722" 
d="M396 1396q60 0 109 32q48 32 48 98t-41 102t-101 36t-110 -35t-50 -98q1 -63 43 -99t102 -36zM57 1497q-1 189 183 267q95 40 216 40q122 0 206 -64t84 -173q0 -77 -34 -139t-88 -98q-112 -76 -257 -77t-227 63t-83 181z" />
    <glyph glyph-name="ogonek" unicode="&#x2db;" horiz-adv-x="645" 
d="M287 -215q0 -72 67 -72q37 -1 70 17t83 58l36 -114q-150 -154 -344 -154q-95 0 -144 46t-49 116t37 124t69 87t66 57q36 24 60 36q24 14 63 32q40 18 55 27l62 14l121 -21q-252 -159 -252 -253z" />
    <glyph glyph-name="tilde" unicode="&#x2dc;" horiz-adv-x="816" 
d="M262 1680q58 0 94 -16q44 -19 99 -76q55 -58 91 -58q65 0 96 28q32 28 66 72l88 -131q-28 -69 -102 -125t-136 -56t-100 15t-62 37t-44 44q-115 120 -255 -27l-77 124q32 65 108 117t134 52z" />
    <glyph glyph-name="hungarumlaut" unicode="&#x2dd;" horiz-adv-x="917" 
d="M55 1231l-102 64l261 447l172 -118q-18 -78 -136 -216t-195 -177zM539 1231l-103 64l266 447l164 -114q-22 -81 -136 -221t-191 -176z" />
    <glyph glyph-name="uni0394" unicode="&#x394;" horiz-adv-x="1407" 
d="M268 252h692l-294 801zM-41 0l-12 22l764 1486h72l569 -1481l-17 -27h-1376z" />
    <glyph glyph-name="uni03A9" unicode="&#x3a9;" horiz-adv-x="1684" 
d="M-76 0v440l180 -24l25 -235h290q-107 109 -185 280t-78 317t26 255q55 234 235 375q181 141 487 141q305 0 468 -147q163 -148 163 -424t-176 -554q-88 -139 -204 -233h268l6 -6l72 255h188l-69 -440h-713l-60 149q153 97 245 313t92 476q0 135 -30 227q-30 91 -64 140
q-77 112 -211 112q-235 1 -333 -265q-56 -151 -56 -344q0 -192 70 -386t143 -273l-70 -149h-709z" />
    <glyph glyph-name="uni03BC" unicode="&#x3bc;" horiz-adv-x="1364" 
d="M569 1034q-9 -157 -38 -325q-29 -167 -37 -222t-8 -145t36 -131t75 -41t60 6t39 22t28 24q8 8 26 35q18 26 23 31l119 867h326l-128 -928q-10 -76 40 -76q30 0 92 46l28 -73q-28 -48 -105 -96t-161 -48t-124 30t-33 108q-5 -4 -23 -26q-94 -112 -217 -112q-77 0 -137 20
t-83 56l-61 -428h-265l108 730q6 48 38 246t42 319q0 58 -43 58q-34 0 -74 -32l-30 79l17 17q118 118 297 118t173 -129z" />
    <glyph glyph-name="pi" unicode="&#x3c0;" horiz-adv-x="1621" 
d="M844 205q0 104 102 658h-195l-68 -413q-49 -295 -209 -408q-88 -62 -192 -62l-207 194q109 8 205 96t140 239l103 354h-134q-47 1 -81 -35t-50 -87l-136 13q0 175 30 249t108 117t168 43h804q149 0 164 115h158q0 -307 -187 -390q-56 -25 -127 -25h-69q-19 -173 -39 -515
q-8 -113 74 -114q104 -2 149 159h154q-24 -171 -123 -292q-98 -121 -290 -121q-120 0 -186 60t-66 165z" />
    <glyph glyph-name="uni1E02" unicode="&#x1e02;" horiz-adv-x="1396" 
d="M772 1612q-66 0 -120 52t-52 126q2 73 60 129t142 56q84 1 136 -49t50 -125t-58 -132t-158 -57zM638 105q336 0 322 361q-5 130 -74 192t-221 61q-65 0 -125 -5l-79 -586q92 -23 177 -23zM683 856q137 0 233 81t89 255q-5 112 -63 170t-152 58t-157 -14l-74 -550h124z
M1327 500q1 -276 -181 -398t-551 -122l-320 20h-297l9 106l140 30l167 1258l-145 26l13 110h336l359 16q315 0 419 -142q54 -74 59 -186q12 -321 -376 -415q169 4 269 -87q99 -91 99 -216z" />
    <glyph glyph-name="uni1E03" unicode="&#x1e03;" horiz-adv-x="1191" 
d="M863 1338q-66 0 -115 52t-47 126q1 74 55 130t136 55q82 0 131 -49q48 -49 46 -125q-1 -77 -53 -133t-153 -56zM488 119q70 -1 132 51t99 140q71 175 71 419q0 111 -36 185t-116 74q-79 0 -153 -89l-100 -771q33 -9 103 -9zM794 1163q164 0 250 -112t87 -322
q1 -209 -81 -379t-238 -270t-363 -100q-110 0 -243 43l-146 -43l187 1504l-103 43l21 84l361 39l54 -27l-74 -564q124 104 288 104z" />
    <glyph glyph-name="uni1E0A" unicode="&#x1e0a;" horiz-adv-x="1505" 
d="M886 1612q-66 0 -120 52t-52 126q2 73 60 129t142 56q84 1 136 -49t50 -125t-58 -132t-158 -57zM634 111q86 1 172 49q155 87 230 292q75 206 75 461t-74 381t-235 126q-114 0 -159 -26l-166 -1258q71 -25 157 -25zM1488 949q0 -196 -32 -337q-67 -294 -279 -461
t-585 -167q-30 0 -92 7t-176 9h-368l12 106l158 30l168 1258l-144 26l11 110h317l357 16q404 2 562 -254q91 -148 91 -343z" />
    <glyph glyph-name="uni1E0B" unicode="&#x1e0b;" horiz-adv-x="1255" 
d="M446 1338q-66 0 -115 52t-47 126t56 130t136 55q82 0 130 -49t46 -125q-2 -77 -54 -133t-152 -56zM545 154q90 0 162 103l110 750q-45 16 -118 16q-73 -1 -137 -57t-96 -150q-64 -180 -65 -403q0 -123 38 -191t106 -68zM424 -20q-94 0 -152 22q-110 41 -161 148
q-51 106 -51 238t26 242q53 230 217 382q164 151 434 151q39 0 102 -9l48 328l-156 43l19 83l432 42l56 -27l-202 -1394q-11 -78 35 -78q31 0 92 46l28 -73q-16 -18 -23 -26t-37 -36q-93 -83 -220 -82q-85 0 -127 42t-48 125q-50 -69 -134 -118t-178 -49z" />
    <glyph glyph-name="uni1E1E" unicode="&#x1e1e;" horiz-adv-x="1215" 
d="M822 1612q-66 0 -120 52t-52 126q2 73 60 129t142 56q84 1 136 -49t50 -125t-58 -132t-158 -57zM-21 0l11 106l138 30l164 1258l-145 26l14 110h1136l-44 -382h-221l-19 242l-366 18l-75 -549l483 38l-27 -235l-476 39l-72 -565l327 -30l-8 -106h-820z" />
    <glyph glyph-name="uni1E1F" unicode="&#x1e1f;" horiz-adv-x="709" 
d="M458 1651q-66 0 -115 52t-47 126q2 73 56 129t136 56t130 -49t46 -125t-54 -132t-152 -57zM741 1670q114 0 178 -26l-62 -178q-69 49 -137 48q-68 0 -88 -36t-32 -102q-10 -66 -11 -71l-20 -150h230l-21 -171h-233l-116 -975q-36 -277 -193 -417q-117 -106 -299 -105
q-91 0 -190 24l58 184q108 -50 156 -49q101 0 126 192l138 1146h-125l21 103l136 63l17 104q36 192 154 304t313 112z" />
    <glyph glyph-name="uni1E40" unicode="&#x1e40;" horiz-adv-x="2017" 
d="M1193 1612q-66 0 -120 52t-52 126q2 73 60 129q57 56 141 56q84 1 136 -49t51 -125q-2 -75 -58 -132t-158 -57zM-128 0l12 106l181 30l326 1258l-194 26l16 110h691l120 -1021l55 171l334 850h620l-13 -110l-186 -26l-40 -1258l204 -30l-8 -106h-737l9 108l189 28l57 860
l20 398l-143 -350l-439 -1047l-169 -15l-136 1038l-54 375l-87 -385l-209 -874l225 -29l-10 -107h-634z" />
    <glyph glyph-name="uni1E41" unicode="&#x1e41;" horiz-adv-x="1963" 
d="M1070 1338q-66 0 -115 52t-47 126t56 130t136 55q82 0 130 -49t46 -125q-2 -77 -54 -133t-152 -56zM1737 206q0 -55 39 -55q29 0 90 46l28 -73q-111 -145 -300 -145q-129 0 -166 52t-37 110q1 57 47 312t44 353t-20 129q-18 30 -68 30q-50 1 -115 -57q-66 -58 -113 -150
q-6 -128 -24 -253l-59 -505h-335l57 443q55 429 7 494q-20 28 -71 28t-119 -65t-115 -158l-102 -742h-323l132 962l-108 60l17 89l372 52l53 -24l-16 -212q66 106 160 171t202 65q245 0 272 -247q66 119 168 183t229 64q265 0 265 -302q0 -76 -36 -283t-46 -262t-9 -110z
" />
    <glyph glyph-name="uni1E56" unicode="&#x1e56;" horiz-adv-x="1312" 
d="M853 1612q-66 0 -120 52t-52 126q2 73 60 129q57 56 141 56q84 1 136 -49t51 -125q-2 -75 -58 -132t-158 -57zM739 1420q-45 0 -89 -9l-102 -757q42 -10 110 -8q158 2 250 136t94 350q2 148 -68 218t-195 70zM649 514q-82 0 -117 4l-46 -382l278 -30l-8 -106h-778l11 106
l138 30l168 1258l-148 26l14 110h316l297 16q314 0 443 -103t135 -304q8 -293 -180 -459t-523 -166z" />
    <glyph glyph-name="uni1E57" unicode="&#x1e57;" horiz-adv-x="1230" 
d="M749 1338q-66 0 -115 52t-47 126q1 74 55 130t136 55q82 0 131 -49q48 -49 46 -125q-1 -77 -53 -133t-153 -56zM528 119q74 -1 134 51t95 141q67 175 67 418q0 111 -36 185t-116 74q-79 0 -150 -97l-106 -758q38 -14 112 -14zM826 1163q168 -1 256 -113t88 -321t-83 -379
t-237 -270t-354 -100q-51 0 -101 9l-71 -509h-318l200 1502l-117 50l19 79l393 52l52 -24l-10 -84q115 108 283 108z" />
    <glyph glyph-name="uni1E60" unicode="&#x1e60;" horiz-adv-x="1157" 
d="M718 1612q-66 0 -120 52t-52 126q2 73 60 129t142 56q84 1 136 -49t50 -125t-58 -132t-158 -57zM686 1423q-203 -1 -203 -189q1 -94 65 -170q64 -78 212 -172t234 -202q84 -109 84 -248q0 -188 -143 -322q-153 -142 -449 -143q-150 0 -290 33q-142 33 -181 65l60 318h206
l11 -221q88 -66 216 -66t185 54t57 148t-58 164t-201 161q-325 207 -325 469q0 142 74 244q147 203 495 203q271 0 399 -74l-54 -302h-191l-30 198q-72 52 -173 52z" />
    <glyph glyph-name="uni1E61" unicode="&#x1e61;" horiz-adv-x="873" 
d="M563 1338q-66 0 -115 52t-47 126q1 74 55 130t136 55q82 0 131 -49q48 -49 46 -125q-1 -77 -53 -133t-153 -56zM310 134q70 0 118 30t48 90t-44 109t-110 95q-68 46 -98 76q-30 28 -61 70q-64 87 -64 234q-1 147 131 236t338 89q76 0 154 -12t106 -25l-43 -207
q-87 100 -204 100q-68 0 -114 -30t-46 -87t40 -104t140 -118q202 -145 202 -352t-204 -296q-205 -90 -467 -30q-100 22 -129 47l48 201q44 -42 116 -79t143 -37z" />
    <glyph glyph-name="uni1E6A" unicode="&#x1e6a;" horiz-adv-x="1421" 
d="M853 1612q-66 0 -120 52t-52 126q2 73 60 129q57 56 141 56q84 1 136 -49t51 -125q-2 -75 -58 -132t-158 -57zM212 0l13 106l250 30l167 1258l-236 -26l-167 -423h-188l99 585h1376l-75 -583l-181 -2l-33 423l-242 26l-168 -1258l284 -30l-10 -106h-889z" />
    <glyph glyph-name="uni1E6B" unicode="&#x1e6b;" horiz-adv-x="724" 
d="M503 1477q-66 0 -115 52t-47 126q1 73 55 129t136 56t131 -49q48 -49 46 -125q-1 -76 -53 -132t-153 -57zM106 159q0 39 27 239l81 596h-119l24 109l122 47q76 63 161 266h189l-33 -261h208l-23 -161h-206l-83 -604q-15 -110 -15 -139q0 -81 73 -81q101 0 169 57l25 -80
q-149 -167 -407 -167q-85 0 -139 42t-54 137z" />
    <glyph glyph-name="Wgrave" unicode="&#x1e80;" horiz-adv-x="1954" 
d="M1209 1570q-87 32 -197 109t-150 150l187 185l276 -342zM322 -10l-207 1403l-138 28l14 109h612l-9 -110l-126 -28l126 -1090l79 208l305 738l-13 145l-160 28l10 109h636l-9 -110l-139 -27l93 -883l7 -208l461 1091l-227 27l10 110h594l-10 -109l-159 -27l-644 -1404
h-320l-90 936l-379 -936h-317z" />
    <glyph glyph-name="wgrave" unicode="&#x1e81;" horiz-adv-x="1713" 
d="M950 1241q-72 30 -207 139t-179 186l203 177l288 -432zM235 1163q178 0 200 -137l90 -587l26 -211l87 282l189 645h277l118 -750l30 -177l89 165q98 177 98 382q0 54 -16 136q-16 83 -16 129q-1 46 41 84t106 39q116 -1 152 -69q73 -139 -22 -367t-266 -465l-194 -270
l-240 -10l-68 373l-38 268l-1 138l-47 -138l-94 -296l-135 -331l-283 -16l-202 945q-20 98 -119 23l-29 80q26 37 102 86t165 49z" />
    <glyph glyph-name="Wacute" unicode="&#x1e82;" horiz-adv-x="1954" 
d="M1218 1570l-116 102l276 342l187 -185q-36 -69 -149 -148t-198 -111zM322 -10l-207 1403l-138 28l14 109h612l-9 -110l-126 -28l126 -1090l79 208l305 738l-13 145l-160 28l10 109h636l-9 -110l-139 -27l93 -883l7 -208l461 1091l-227 27l10 110h594l-10 -109l-159 -27
l-644 -1404h-320l-90 936l-379 -936h-317z" />
    <glyph glyph-name="wacute" unicode="&#x1e83;" horiz-adv-x="1713" 
d="M995 1231l-103 81l317 431l192 -187q-19 -34 -93 -102t-166 -135q-92 -66 -147 -88zM235 1163q178 0 200 -137l90 -587l26 -211l87 282l189 645h277l118 -750l30 -177l89 165q98 177 98 382q0 54 -16 136q-16 83 -16 129q-1 46 41 84t106 39q116 -1 152 -69
q73 -139 -22 -367t-266 -465l-194 -270l-240 -10l-68 373l-38 268l-1 138l-47 -138l-94 -296l-135 -331l-283 -16l-202 945q-20 98 -119 23l-29 80q26 37 102 86t165 49z" />
    <glyph glyph-name="Wdieresis" unicode="&#x1e84;" horiz-adv-x="1954" 
d="M983 1661q-73 0 -111 42q-38 43 -38 115q2 72 47 119t118 47t111 -40t35 -113q-1 -74 -45 -122t-117 -48zM1435 1661q-73 0 -111 42q-38 43 -38 115q2 72 47 119t118 47t111 -40t35 -113q-1 -74 -45 -122t-117 -48zM322 -10l-207 1403l-138 28l14 109h612l-9 -110
l-126 -28l126 -1090l79 208l305 738l-13 145l-160 28l10 109h636l-9 -110l-139 -27l93 -883l7 -208l461 1091l-227 27l10 110h594l-10 -109l-159 -27l-644 -1404h-320l-90 936l-379 -936h-317z" />
    <glyph glyph-name="wdieresis" unicode="&#x1e85;" horiz-adv-x="1742" 
d="M788 1338q-59 0 -102 52t-41 126q3 74 49 130t120 55q74 0 117 -49q42 -50 40 -126t-47 -132t-136 -56zM1240 1338q-59 0 -102 52t-41 126q3 74 49 130t120 55q74 0 117 -49q42 -50 40 -126t-47 -132t-136 -56zM242 1163q178 0 200 -137l90 -587l26 -211l87 282l189 645
h277l118 -750l30 -177l89 165q98 177 98 382q0 54 -16 136q-16 83 -16 129t42 84t105 39q117 -1 153 -69q73 -139 -23 -367q-95 -228 -266 -465l-194 -270l-240 -10l-68 373l-38 268l-1 138l-47 -138l-94 -296l-135 -331l-283 -16l-202 945q-20 98 -119 23l-29 80
q26 37 102 86t165 49z" />
    <glyph glyph-name="Ygrave" unicode="&#x1ef2;" horiz-adv-x="1281" 
d="M805 1570q-87 32 -197 109t-150 150l187 185l276 -342zM161 0l12 106l230 30l58 469l-331 789l-111 26l12 110h684l-17 -110l-181 -26l172 -486l53 -123l354 609l-164 26l10 110h533l-15 -110l-130 -26l-515 -789l-61 -469l245 -30l-10 -106h-828z" />
    <glyph glyph-name="ygrave" unicode="&#x1ef3;" horiz-adv-x="1084" 
d="M546 1241q-72 30 -207 139t-179 186l203 177l288 -432zM216 -349q84 0 154 62t153 216h-191l-210 996q-12 56 -43 56q-36 0 -75 -34l-29 81q40 58 124 96q83 39 160 39q157 0 184 -137q60 -310 135 -787l18 -159l61 124q134 272 134 533q0 73 -18 150t-18 137
q-1 60 41 100q42 39 128 39q162 -1 162 -223t-218 -643q-80 -155 -118 -229t-66 -126q-34 -65 -84 -154q-172 -306 -448 -306q-80 0 -158 15t-110 30l51 215q35 -27 115 -59q82 -32 166 -32z" />
    <glyph glyph-name="endash" unicode="&#x2013;" horiz-adv-x="1548" 
d="M248 674l40 197h1097l-40 -197h-1097z" />
    <glyph glyph-name="emdash" unicode="&#x2014;" horiz-adv-x="2036" 
d="M248 674l34 197h1591l-35 -197h-1590z" />
    <glyph glyph-name="quoteleft" unicode="&#x2018;" horiz-adv-x="702" 
d="M182 1218q0 205 126 337t275 192l66 -106l-2 -22q-81 -27 -141 -121t-60 -178q0 -161 100 -172l-5 -41l-166 -190q-97 27 -145 111t-48 190z" />
    <glyph glyph-name="quoteright" unicode="&#x2019;" horiz-adv-x="702" 
d="M673 1438q0 -205 -126 -336q-126 -132 -275 -192l-66 106l2 22q80 27 140 121q60 95 61 179q0 161 -100 171l5 41l166 190q96 -26 144 -110q48 -86 49 -192z" />
    <glyph glyph-name="quotesinglbase" unicode="&#x201a;" horiz-adv-x="682" 
d="M516 0q0 -205 -126 -337t-275 -192l-66 106l2 22q81 27 141 121t60 178q0 161 -100 172l5 41l166 190q97 -27 145 -111t48 -190z" />
    <glyph glyph-name="quotereversed" unicode="&#x201b;" horiz-adv-x="702" 
d="M157 1320q0 138 98 264t258 156l105 -190l-16 -41q-62 -10 -112 -56q-100 -93 -101 -232q1 -57 19 -109t49 -74l-8 -22l-104 -100q-76 39 -132 153q-56 113 -56 251z" />
    <glyph glyph-name="quotedblleft" unicode="&#x201c;" horiz-adv-x="1181" 
d="M185 1218q0 205 126 337t275 192l66 -106l-2 -22q-80 -27 -140 -121t-61 -178q0 -161 100 -172l-5 -41l-166 -190q-96 27 -144 111t-49 190zM684 1218q0 205 126 337t275 192l66 -106l-2 -22q-81 -27 -141 -121t-60 -178q0 -161 100 -172l-5 -41l-166 -190
q-97 27 -145 111t-48 190z" />
    <glyph glyph-name="quotedblright" unicode="&#x201d;" horiz-adv-x="1181" 
d="M690 1438q0 -205 -126 -336q-126 -132 -275 -192l-66 106l2 22q81 27 141 121q60 95 60 179q0 161 -100 171l5 41l166 190q97 -26 145 -110q48 -86 48 -192zM1189 1438q0 -205 -126 -336q-126 -132 -275 -192l-66 106l2 22q80 27 140 121q60 95 61 179q0 161 -100 171
l5 41l166 190q96 -26 144 -110q48 -86 49 -192z" />
    <glyph glyph-name="quotedblbase" unicode="&#x201e;" horiz-adv-x="1181" 
d="M978 0q0 -205 -126 -337t-275 -192l-66 106l2 22q81 27 141 121t60 178q0 161 -100 172l5 41l166 190q97 -27 145 -111t48 -190zM499 0q0 -205 -126 -337t-275 -192l-66 106l2 22q80 27 140 121t61 178q0 161 -100 172l5 41l166 190q96 -27 144 -111t49 -190z" />
    <glyph glyph-name="dagger" unicode="&#x2020;" horiz-adv-x="816" 
d="M251 151l99 857l23 99h-270l29 191h291l1 171l21 177h250l-30 -177l-57 -171h282l-28 -191h-260l-3 -99l-171 -857h-177z" />
    <glyph glyph-name="daggerdbl" unicode="&#x2021;" horiz-adv-x="816" 
d="M441 1298v171l19 177h251l-28 -177l-57 -171h282l-28 -191h-260l3 -126l-76 -181h244l-29 -194h-217l-5 -119l-111 -538h-178l20 538l44 119h-218l33 194h221l-7 181l47 126h-270l29 191h291z" />
    <glyph glyph-name="bullet" unicode="&#x2022;" horiz-adv-x="858" 
d="M384 454q-86 0 -154 69t-68 173t81 200t222 96q95 0 163 -66t67 -172q0 -106 -73 -204q-74 -96 -238 -96z" />
    <glyph glyph-name="ellipsis" unicode="&#x2026;" horiz-adv-x="1578" 
d="M36 152q0 78 59 134t131 55q72 1 110 -47q39 -48 39 -128t-61 -134q-62 -52 -130 -52t-108 46q-40 48 -40 126zM562 152q0 78 59 134t131 55q72 1 110 -47q39 -48 39 -128t-61 -134q-62 -52 -130 -52t-108 46q-40 48 -40 126zM1088 152q0 78 59 134t131 55q72 1 110 -47
q39 -48 39 -128t-61 -134q-62 -52 -130 -52t-108 46q-40 48 -40 126z" />
    <glyph glyph-name="perthousand" unicode="&#x2030;" horiz-adv-x="2718" 
d="M1248 379q0 -209 106 -209q54 0 95 58q78 110 78 271q0 201 -105 201q-54 0 -96 -56q-78 -104 -78 -265zM1017 362q0 122 55 222t156 164t238 64t219 -85t82 -237q1 -152 -121 -290q-56 -64 -141 -104q-84 -40 -180 -39q-143 -1 -225 91t-83 214zM497 848q54 0 95 58
q78 110 78 271q0 201 -105 201q-55 0 -97 -56q-78 -104 -77 -265q0 -209 106 -209zM468 735q-144 -1 -226 91t-82 214t55 222t156 164t238 64t219 -85t82 -237t-122 -290q-56 -64 -140 -104t-180 -39zM367 0l947 1530h219l-947 -1530h-219zM2045 379q0 -209 106 -209
q54 0 95 58q78 110 78 271q0 201 -105 201q-55 0 -97 -56q-78 -104 -77 -265zM1814 362q0 122 55 222t156 164t238 64t219 -85t82 -237t-122 -290q-56 -64 -140 -104t-180 -39q-144 -1 -226 91t-82 214z" />
    <glyph glyph-name="minute" unicode="&#x2032;" horiz-adv-x="623" 
d="M272 1190l79 592h275l-156 -592h-198z" />
    <glyph glyph-name="second" unicode="&#x2033;" horiz-adv-x="1061" 
d="M716 1190l79 592h275l-156 -592h-198zM278 1190l79 592h275l-156 -592h-198z" />
    <glyph glyph-name="guilsinglleft" unicode="&#x2039;" horiz-adv-x="1190" 
d="M212 530l22 160l732 406l58 -175l-460 -316l374 -311l-100 -152z" />
    <glyph glyph-name="guilsinglright" unicode="&#x203a;" horiz-adv-x="1190" 
d="M909 708l-22 -160l-732 -406l-58 175l460 316l-374 311l100 152z" />
    <glyph glyph-name="exclamdbl" unicode="&#x203c;" horiz-adv-x="1332" 
d="M732 152q0 78 59 134t131 55q72 1 110 -47q39 -48 39 -128t-61 -134q-62 -52 -130 -52t-108 46q-40 48 -40 126zM857 528l126 1250h335l-258 -1250h-203zM116 152q0 78 59 134t131 55q72 1 110 -47q39 -48 39 -128t-61 -134q-62 -52 -130 -52t-108 46q-40 48 -40 126z
M241 528l126 1250h335l-258 -1250h-203z" />
    <glyph glyph-name="fraction" unicode="&#x2044;" horiz-adv-x="1026" 
d="M99 0l681 1530h219l-681 -1530h-219z" />
    <glyph glyph-name="foursuperior" unicode="&#x2074;" horiz-adv-x="1264" 
d="M630 411l47 331h-549l-37 95l574 863l158 1l123 -104l-448 -573l-127 -134l328 11l33 232l247 23l-33 -246l189 7l-20 -175h-192l-45 -331h-248z" />
    <glyph glyph-name="Euro" unicode="&#x20ac;" horiz-adv-x="1388" 
d="M991 1546q146 0 292 -46q35 -12 77 -20t47 -8l-66 -352h-134l-20 208q-85 78 -240 78q-109 0 -191 -92t-128 -260h427l-18 -150h-440q-16 -102 -20 -209h403l-13 -151h-390q10 -194 72 -296q63 -102 157 -101q94 -1 140 19t82 59l72 188l140 -1l-50 -342
q-109 -8 -172 -30q-77 -28 -136 -42t-159 -14q-101 0 -195 40t-153 116q-118 148 -136 404h-201l17 151h180q3 108 23 209h-148l19 150h168q57 164 167 277q208 215 527 215z" />
    <glyph glyph-name="uni2113" unicode="&#x2113;" horiz-adv-x="1214" 
d="M873 1393q1 17 -9 31t-20 13q-50 0 -106 -58q-106 -109 -196 -366q-89 -257 -89 -482v-3q203 236 311 472t109 393zM243 588q1 162 49 368t132 366t206 259t244 99t185 -74t63 -193q0 -245 -174 -555t-453 -584q49 -112 131 -112t142 93q62 93 74 262l215 -37
q-23 -310 -222 -442q-101 -66 -235 -67q-166 0 -263 158q-81 -69 -165 -129l-152 128q127 93 242 201q-19 97 -19 259z" />
    <glyph glyph-name="afii61352" unicode="&#x2116;" horiz-adv-x="2558" 
d="M1557 0l12 178h833l-12 -178h-833zM1909 943q0 -290 147 -290q111 0 165 107t54 343q0 287 -146 287q-98 0 -147 -77t-61 -173t-12 -197zM-33 0l8 106l149 30l181 1258l-170 26l16 110h552l376 -995l78 -230l131 1089l-172 26l11 110h502l-11 -110l-123 -26l-207 -1394
h-353l-396 1028l-78 254l-120 -1146l190 -30l-11 -106h-553zM1637 949q-1 321 229 489q131 96 303 95q171 -1 278 -117t107 -318q0 -340 -238 -501q-129 -87 -276 -87q-188 0 -296 118t-107 321z" />
    <glyph glyph-name="trademark" unicode="&#x2122;" horiz-adv-x="2213" 
d="M200 714l11 89l126 15l85 597l-167 -15l-59 -144l-85 -1l52 275h723l-32 -273l-83 -5l-9 149l-162 16l-85 -598l130 -16l-11 -89h-434zM848 714l11 89l107 15l112 593l-99 9l12 110h363l97 -466l30 -132l256 598h352l-12 -110l-97 -9l-21 -592l96 -16l-11 -89h-373l11 89
l96 16l20 372l19 223l-329 -708h-132l-173 711l-106 -599l93 -15l-11 -89h-311z" />
    <glyph glyph-name="Omega" unicode="&#x2126;" horiz-adv-x="1684" 
d="M-76 0v440l180 -24l25 -235h290q-107 109 -185 280t-78 317t26 255q55 234 235 375q181 141 487 141q305 0 468 -147q163 -148 163 -424t-176 -554q-88 -139 -204 -233h268l6 -6l72 255h188l-69 -440h-713l-60 149q153 97 245 313t92 476q0 135 -30 227q-30 91 -64 140
q-77 112 -211 112q-235 1 -333 -265q-56 -151 -56 -344q0 -192 70 -386t143 -273l-70 -149h-709z" />
    <glyph glyph-name="estimated" unicode="&#x212e;" horiz-adv-x="1442" 
d="M500 768h454v385q-80 40 -220 40t-234 -72v-353zM780 147q116 -1 220 35t166 84l73 -151q-75 -51 -203 -91t-265 -40q-305 0 -475 182t-171 494q0 312 159 501t481 195q151 3 274 -59t197 -183t80 -282q0 -169 -10 -220h-806v-391q103 -74 280 -74z" />
    <glyph glyph-name="partialdiff" unicode="&#x2202;" horiz-adv-x="1364" 
d="M679 863q-64 0 -111 -40q-46 -40 -72 -81q-60 -95 -66 -234t41 -263q47 -123 161 -123q60 0 118 46q56 46 94 124q95 193 113 497q-94 74 -278 74zM254 1551q158 131 408 131q118 0 228 -50q108 -50 174 -125q66 -77 112 -177q80 -180 79 -379q0 -465 -171 -720
t-487 -255q-277 0 -401 213q-69 119 -63 260q11 275 163 424t431 149q127 0 232 -54q-24 552 -388 552q-88 0 -206 -74z" />
    <glyph glyph-name="Delta" unicode="&#x2206;" horiz-adv-x="1407" 
d="M268 252h692l-294 801zM-41 0l-12 22l764 1486h72l569 -1481l-17 -27h-1376z" />
    <glyph glyph-name="product" unicode="&#x220f;" horiz-adv-x="1982" 
d="M185 1552h1648v-132l-210 -27v-1417l200 -45v-108h-741v108l196 42v1447h-548v-1445l188 -42v-110h-723v110l191 43l-1 1418l-200 26v132z" />
    <glyph glyph-name="summation" unicode="&#x2211;" horiz-adv-x="1583" 
d="M207 -15l471 685l-451 686l8 197h1074l33 -390h-179l-89 208l-504 31l467 -689l-500 -723l548 34l135 238l183 -37l-74 -405l-1114 1z" />
    <glyph glyph-name="minus" unicode="&#x2212;" horiz-adv-x="1286" 
d="M248 673l18 198h857l-18 -198h-857z" />
    <glyph glyph-name="uni2215" unicode="&#x2215;" horiz-adv-x="854" 
d="M-64 -363l775 1962h207l-775 -1962h-207z" />
    <glyph glyph-name="uni2219" unicode="&#x2219;" horiz-adv-x="686" 
d="M157 798q0 78 59 134q58 56 130 55q72 1 111 -47t39 -128t-61 -134q-61 -52 -129 -52t-109 46q-40 48 -40 126z" />
    <glyph glyph-name="radical" unicode="&#x221a;" horiz-adv-x="1587" 
d="M296 483l-137 -73l-97 168l229 171h216l186 -805l707 1973h323l-911 -2290h-258z" />
    <glyph glyph-name="infinity" unicode="&#x221e;" horiz-adv-x="2418" 
d="M1919 412q48 80 42 200t-78 204q-71 84 -226 84t-311 -204q114 -171 156 -214q84 -86 150 -118q67 -33 143 -33q76 1 124 81zM762 356q168 0 317 203q-103 171 -137 208q-76 80 -135 109t-137 29q-78 -1 -139 -89t-55 -196t82 -186q74 -78 204 -78zM1736 1119
q200 0 342 -131t146 -323q4 -236 -140 -387t-382 -151q-177 0 -290 82t-210 202q-164 -209 -346 -261q-80 -23 -174 -23q-198 0 -342 136t-145 328q-1 229 145 379t381 149q236 1 425 -197q33 -34 74 -83q169 204 350 257q78 23 166 23z" />
    <glyph glyph-name="integral" unicode="&#x222b;" horiz-adv-x="1309" 
d="M376 -304q82 0 136 58t54 219q0 273 -78 601q-78 329 -79 573q0 244 148 405t377 161t313 -147l-169 -139q-13 46 -58 87q-46 41 -90 41q-82 0 -136 -59t-54 -219q0 -271 75 -605q75 -333 75 -578q0 -246 -144 -406t-374 -160t-312 147l169 149q13 -46 58 -87t89 -41z
" />
    <glyph glyph-name="approxequal" unicode="&#x2248;" horiz-adv-x="1026" 
d="M327 865q-128 0 -192 -97l-84 119q25 78 115 144t191 66q101 1 178 -53q31 -22 61 -46q70 -54 129 -53q121 0 192 107l104 -119q-23 -85 -118 -157t-204 -73q-65 -1 -121 25t-90 56q-90 81 -161 81zM277 419q-128 0 -192 -97l-84 119q25 78 115 144t191 66q101 1 178 -53
q31 -22 61 -46q70 -54 129 -53q121 0 192 107l104 -119q-23 -85 -118 -157t-204 -73q-65 -1 -121 25t-90 56q-90 81 -161 81z" />
    <glyph glyph-name="notequal" unicode="&#x2260;" horiz-adv-x="1026" 
d="M127 0l133 309h-184l23 197h246l143 332h-339l23 197h401l125 289h219l-125 -289h195l-23 -197h-257l-143 -332h350l-23 -197h-412l-133 -309h-219z" />
    <glyph glyph-name="lessequal" unicode="&#x2264;" horiz-adv-x="1364" 
d="M140 0l21 170h948l-21 -170h-948zM198 689l9 78l998 437l-28 -233l-623 -246l567 -247l-27 -232z" />
    <glyph glyph-name="greaterequal" unicode="&#x2265;" horiz-adv-x="1364" 
d="M140 0l21 170h948l-21 -170h-948zM197 246l33 238l623 246l-567 247l27 232l895 -442l-8 -78z" />
    <glyph glyph-name="lozenge" unicode="&#x25ca;" horiz-adv-x="1364" 
d="M681 252l272 466l-272 466l-272 -466zM588 -10l-436 701v54l436 701h187l436 -701v-54l-436 -701h-187z" />
    <glyph glyph-name="CR" unicode="&#xe001;" 
 />
    <glyph glyph-name="commaaccent" unicode="&#xf6c3;" horiz-adv-x="367" 
d="M353 -249q0 -119 -71 -207t-156 -104l-100 70l3 26q24 13 46 47t22 77t-19 73t-48 33l11 93l154 104q68 -14 113 -74t45 -138z" />
    <glyph glyph-name="grave.cap" horiz-adv-x="522" 
d="M383 1570q-87 32 -197 109t-150 150l187 185l276 -342z" />
    <glyph glyph-name="dieresis.cap" horiz-adv-x="806" 
d="M169 1661q-73 0 -111 42q-38 43 -38 115q2 72 47 119t118 47t111 -40t35 -113q-1 -74 -45 -122t-117 -48zM621 1661q-73 0 -111 42q-38 43 -38 115q2 72 47 119t118 47t111 -40t35 -113q-1 -74 -45 -122t-117 -48z" />
    <glyph glyph-name="acute.cap" horiz-adv-x="527" 
d="M152 1570l-116 102l276 342l187 -185q-36 -69 -149 -148t-198 -111z" />
    <glyph glyph-name="circumflex.cap" horiz-adv-x="794" 
d="M157 1600l-107 57l367 357h178l210 -357l-124 -58l-201 207z" />
    <glyph glyph-name="caron.cap" horiz-adv-x="792" 
d="M302 1599l-210 357l124 58l201 -172l323 172l107 -57l-368 -358h-177z" />
    <glyph glyph-name="breve.cap" horiz-adv-x="715" 
d="M234 1969q0 -119 111 -119q134 0 164 72q14 34 16 92h182q1 -11 1 -54t-20 -102q-20 -58 -60 -110t-110 -84t-150 -31t-134 19q-100 34 -144 115t-44 179q0 31 5 68h184z" />
    <glyph glyph-name="dotaccent.cap" horiz-adv-x="389" 
d="M173 1612q-66 0 -120 52t-52 126q2 73 60 129q57 56 141 56q84 1 136 -49t51 -125q-2 -75 -58 -132t-158 -57z" />
    <glyph glyph-name="ring.cap" horiz-adv-x="722" 
d="M388 1630q165 0 165 133q0 51 -40 83t-102 32t-111 -30t-49 -93q-1 -61 41 -93t96 -32zM57 1721q-1 187 183 257q93 36 216 36q122 0 206 -58t84 -165q0 -155 -113 -227q-113 -73 -258 -73q-146 -1 -232 57t-86 173z" />
    <glyph glyph-name="tilde.cap" horiz-adv-x="813" 
d="M316 1970q58 0 94 -16q44 -19 99 -76q55 -58 91 -58q65 0 96 28q32 28 66 72l88 -131q-28 -69 -102 -125t-136 -56t-100 15t-62 37t-44 44q-115 120 -255 -27l-77 124q32 65 108 117t134 52z" />
    <glyph glyph-name="hungarumlaut.cap" horiz-adv-x="922" 
d="M74 1570l-104 75l282 369l163 -132q-39 -86 -147 -185t-194 -127zM559 1570l-99 75l282 369l160 -133q-56 -94 -156 -189t-187 -122z" />
    <glyph glyph-name="caronvertical" horiz-adv-x="315" 
d="M248 1378q0 178 -24 214l19 42l207 46q38 -40 38 -177t-38 -267t-107 -201l-130 30l-6 25q41 110 41 288z" />
    <glyph glyph-name="minus.001" horiz-adv-x="1001" 
d="M141 674l22 197h674l-22 -197h-674z" />
    <glyph glyph-name="rcaron.001" horiz-adv-x="834" 
d="M288 1238l-210 374l124 58l201 -210l323 209l107 -57l-368 -374h-177zM817 1163q41 0 70 -20l-69 -357q-10 12 -44 22t-63 9q-109 0 -204 -57l-105 -760h-323l132 962l-107 60l17 89l328 52l53 -24l20 -273q38 133 110 215t185 82z" />
    <glyph glyph-name="macron.cap" horiz-adv-x="614" 
d="M51 1707v209h571v-209h-571z" />
    <glyph glyph-name="i.cy" horiz-adv-x="669" 
d="M483 151q30 0 92 46l28 -73q-29 -37 -78 -73q-94 -71 -208 -71q-115 0 -167 41t-42 110t26 189t42 320q26 201 45 340l-164 51l18 81l446 51l55 -24l-128 -912q-11 -76 35 -76zM438 1338q-66 0 -115 52t-47 126t56 130t136 55q82 0 130 -49t46 -125q-2 -77 -54 -133
t-152 -56z" />
    <glyph glyph-name="i.uc" horiz-adv-x="783" 
d="M531 1612q-66 0 -120 52t-52 126q2 73 60 129q57 56 141 56q84 1 136 -49t51 -125q-2 -75 -58 -132t-158 -57zM-18 0l13 106l150 30l165 1258l-147 26l12 110h671l-12 -110l-172 -26l-165 -1258l175 -30l-7 -106h-683z" />
    <glyph glyph-name="fi_trk" horiz-adv-x="1378" 
d="M-62 -513q-92 0 -191 24l58 184q108 -50 156 -49q101 0 126 192l138 1146h-125l21 103l136 63l17 104q36 192 154 304t313 112q114 0 178 -26l-62 -178q-69 49 -137 48q-68 0 -88 -36t-32 -102q-10 -66 -11 -71l-20 -150h230l-5 -42l436 50l55 -24l-128 -912
q-11 -76 35 -76q30 0 92 46l28 -73q-29 -37 -78 -73q-94 -71 -208 -71t-166 41t-42 110t26 189t41 320q26 201 45 340l-147 46l-5 -42h-233l-116 -975q-36 -277 -193 -417q-117 -106 -298 -105zM1147 1338q-66 0 -115 52t-47 126q1 74 55 130t136 55q82 0 131 -49
q48 -49 46 -125q-1 -77 -53 -133t-153 -56z" />
    <glyph glyph-name="ffi_dflt" horiz-adv-x="2087" 
d="M646 -513q-92 0 -190 24l58 184q108 -50 156 -49q101 0 126 192l138 1146h-125l21 103l136 63l17 104q37 192 155 304t312 112q114 0 178 -26l-62 -178q-68 49 -136 48q-68 0 -90 -36q-20 -36 -30 -102t-12 -71l-20 -150h230l-5 -42l436 50l55 -24l-128 -912
q-11 -76 35 -76q30 0 92 46l28 -73q-29 -37 -78 -73q-94 -71 -208 -71q-115 0 -167 41t-42 110t26 189t42 320q26 201 45 340l-147 46l-5 -42h-233l-116 -975q-36 -277 -193 -417q-118 -106 -299 -105zM1856 1338q-66 0 -115 52t-47 126t56 130t136 55q82 0 130 -49t46 -125
q-2 -77 -54 -133t-152 -56zM741 1670q114 0 178 -26l-62 -178q-69 49 -137 48q-68 0 -88 -36t-32 -102q-10 -66 -11 -71l-20 -150h230l-21 -171h-233l-116 -975q-36 -277 -193 -417q-117 -106 -299 -105q-91 0 -190 24l58 184q108 -50 156 -49q101 0 126 192l138 1146h-125
l21 103l136 63l17 104q36 192 154 304t313 112z" />
    <glyph glyph-name="i.dot" horiz-adv-x="669" 
d="M483 151q30 0 92 46l28 -73q-29 -37 -78 -73q-94 -71 -208 -71q-115 0 -167 41t-42 110t26 189t42 320q26 201 45 340l-164 51l18 81l446 51l55 -24l-128 -912q-11 -76 35 -76zM438 1338q-66 0 -115 52t-47 126t56 130t136 55q82 0 130 -49t46 -125q-2 -77 -54 -133
t-152 -56z" />
    </font>
</defs>
</svg>
