<?xml version="1.0" standalone="no"?>
<!DOCTYPE svg PUBLIC "-//W3C//DTD SVG 1.1//EN" "http://www.w3.org/Graphics/SVG/1.1/DTD/svg11.dtd" >
<svg xmlns="http://www.w3.org/2000/svg">
<metadata>
Created by FontPrep 20130207 at Mon May 18 22:54:54 2015
 By Christian Reichel
Copyright (c) 2013, Sorkin Type Co (www.sorkintype.com) with Reserved Font Name 'Merriweather'
</metadata>
<defs>
<font id="65aeba4904e9f720e9fe01f59a92d9fa" horiz-adv-x='1024' >
  <font-face 
    font-family="Merriweather-BoldItalic"
    font-weight="700"
    font-style="italic"
    font-stretch="normal"
    units-per-em="2048"
    panose-1="2 0 8 3 6 0 0 9 0 4"
    ascent="1638"
    descent="-410"
    x-height="1163"
    cap-height="1530"
    bbox="-230 -560 2539 2009"
    underline-thickness="147"
    underline-position="-120"
    slope="-7.5"
    unicode-range="U+0001-FB04"
  />
<missing-glyph horiz-adv-x="1872" 
d="M458 363l128 -144l347 368l362 -368l122 122l-363 368l363 358l-128 124l-352 -366l-357 368l-123 -125l359 -363zM228 0v1416h1416v-1416h-1416z" />
    <glyph glyph-name="f_f" unicode="ff" horiz-adv-x="1414" 
d="M1441 1670q105 0 168 -26l-61 -173q-68 49 -140 48t-104 -57t-51 -188l-16 -119h233l-19 -157h-235l-125 -1023q-26 -208 -138 -348t-298 -140q-102 -1 -177 18l55 176q103 -44 161 -43q94 0 123 217l138 1143h-132l18 89l142 63l15 87q32 189 154 311t289 122zM734 1670
q105 0 168 -26l-61 -173q-68 49 -140 48t-104 -57t-51 -188l-16 -119h233l-19 -157h-235l-125 -1023q-26 -208 -138 -348t-298 -140q-102 -1 -177 18l55 176q103 -44 161 -43q94 0 123 217l138 1143h-132l18 89l142 63l15 87q33 189 155 311t288 122z" />
    <glyph glyph-name="f_i" unicode="fi" horiz-adv-x="1362" 
d="M734 1670q105 0 168 -26l-61 -173q-68 49 -140 48t-104 -57t-51 -188l-16 -119h233l-19 -157h-235l-125 -1023q-26 -208 -138 -348t-298 -140q-102 -1 -177 18l55 176q103 -44 161 -43q94 0 123 217l138 1143h-132l18 89l142 63l15 87q33 189 155 311t288 122zM1154 1363
q-68 0 -111 44q-42 44 -40 107q2 62 52 112t118 50q69 0 109 -41t38 -106t-50 -115t-116 -51zM1145 131q33 0 99 57l30 -63q-23 -33 -72 -72q-94 -73 -188 -73q-186 0 -171 141q11 99 55 408t64 451l-156 51l18 81l374 51l52 -24l-134 -932q-11 -76 29 -76z" />
    <glyph glyph-name="f_l" unicode="fl" horiz-adv-x="1328" 
d="M734 1670q105 0 168 -26l-61 -173q-68 49 -140 48t-104 -57t-51 -188l-16 -119h233l-19 -157h-235l-125 -1023q-26 -208 -138 -348t-298 -140q-102 -1 -177 18l55 176q103 -44 161 -43q94 0 123 217l138 1143h-132l18 89l142 63l15 87q33 189 155 311t288 122zM1116 131
q33 0 100 56l29 -62q-23 -34 -69 -72q-91 -73 -191 -73q-163 0 -165 135q0 30 7 77l177 1290l-127 43l20 83l334 42l50 -27l-193 -1416q-11 -76 28 -76z" />
    <glyph glyph-name="f_f_i" unicode="ffi" horiz-adv-x="2069" 
d="M1441 1670q105 0 168 -26l-61 -173q-68 49 -140 48t-104 -57t-51 -188l-16 -119h233l-19 -157h-235l-125 -1023q-26 -208 -138 -348t-298 -140q-102 -1 -177 18l55 176q103 -44 161 -43q94 0 123 217l138 1143h-132l18 89l142 63l15 87q32 189 154 311t289 122zM734 1670
q105 0 168 -26l-61 -173q-68 49 -140 48t-104 -57t-51 -188l-16 -119h233l-19 -157h-235l-125 -1023q-26 -208 -138 -348t-298 -140q-102 -1 -177 18l55 176q103 -44 161 -43q94 0 123 217l138 1143h-132l18 89l142 63l15 87q33 189 155 311t288 122zM1860 1363
q-68 0 -110 44t-40 107q2 62 52 112t118 50t108 -41t39 -106q-2 -65 -50 -115q-49 -50 -117 -51zM1852 131q33 0 99 57l30 -63q-23 -33 -72 -72q-94 -73 -188 -73q-186 0 -171 141q11 99 55 408t64 451l-156 51l18 81l374 51l52 -24l-134 -932q-11 -76 29 -76z" />
    <glyph glyph-name="f_f_l" unicode="ffl" horiz-adv-x="2035" 
d="M1441 1670q105 0 168 -26l-61 -173q-68 49 -140 48t-104 -57t-51 -188l-16 -119h233l-19 -157h-235l-125 -1023q-26 -208 -138 -348t-298 -140q-102 -1 -177 18l55 176q103 -44 161 -43q94 0 123 217l138 1143h-132l18 89l142 63l15 87q32 189 154 311t289 122zM734 1670
q105 0 168 -26l-61 -173q-68 49 -140 48t-104 -57t-51 -188l-16 -119h233l-19 -157h-235l-125 -1023q-26 -208 -138 -348t-298 -140q-102 -1 -177 18l55 176q103 -44 161 -43q94 0 123 217l138 1143h-132l18 89l142 63l15 87q33 189 155 311t288 122zM1823 131q33 0 100 56
l29 -62q-23 -34 -69 -72q-91 -73 -191 -73q-163 0 -165 135q0 30 7 77l177 1290l-127 43l20 83l334 42l50 -27l-193 -1416q-11 -76 28 -76z" />
    <glyph glyph-name=".notdef" horiz-adv-x="1872" 
d="M458 363l128 -144l347 368l362 -368l122 122l-363 368l363 358l-128 124l-352 -366l-357 368l-123 -125l359 -363zM228 0v1416h1416v-1416h-1416z" />
    <glyph glyph-name=".null" unicode="&#xe000;" 
 />
    <glyph glyph-name="nonmarkingreturn" horiz-adv-x="682" 
 />
    <glyph glyph-name="uni0001" 
 />
    <glyph glyph-name="uni0002" 
 />
    <glyph glyph-name="uni0003" 
 />
    <glyph glyph-name="uni0004" 
 />
    <glyph glyph-name="uni0005" 
 />
    <glyph glyph-name="uni0006" 
 />
    <glyph glyph-name="uni0007" 
 />
    <glyph glyph-name="uni0008" 
 />
    <glyph glyph-name="HT" unicode="&#x9;" 
 />
    <glyph glyph-name="LF" unicode="&#xa;" 
 />
    <glyph glyph-name="DLE" 
 />
    <glyph glyph-name="DC1" 
 />
    <glyph glyph-name="DC2" 
 />
    <glyph glyph-name="DC3" 
 />
    <glyph glyph-name="DC4" 
 />
    <glyph glyph-name="uni0015" 
 />
    <glyph glyph-name="uni0016" 
 />
    <glyph glyph-name="uni0017" 
 />
    <glyph glyph-name="uni0018" 
 />
    <glyph glyph-name="uni0019" 
 />
    <glyph glyph-name="RS" 
 />
    <glyph glyph-name="US" 
 />
    <glyph glyph-name="space" unicode=" " horiz-adv-x="485" 
 />
    <glyph glyph-name="exclam" unicode="!" horiz-adv-x="701" 
d="M308 296q68 0 102 -41t30 -111t-60 -118q-58 -47 -122 -47q-64 1 -101 41q-38 40 -34 108t61 118q56 50 124 50zM248 508l131 1270h290l-250 -1270h-171z" />
    <glyph glyph-name="quotedbl" unicode="&#x22;" horiz-adv-x="1057" 
d="M723 966l79 721h257l-166 -721h-170zM224 966l79 721h257l-166 -721h-170z" />
    <glyph glyph-name="numbersign" unicode="#" horiz-adv-x="1405" 
d="M533 519h282l55 355h-281zM252 0l58 365h-199l16 154h210l55 355h-207l12 151h217l53 332h195l-51 -332h281l56 332h195l-54 -332h217l-12 -151h-227l-56 -355h213l-16 -154h-224l-57 -365h-190l51 365h-282l-62 -365h-192z" />
    <glyph glyph-name="dollar" unicode="$" horiz-adv-x="1205" 
d="M524 94q126 0 203 64t81 170q4 107 -64 178q-69 70 -164 130q-94 59 -136 90q-110 81 -173 172q-62 91 -62 212q0 188 130 304t335 133l29 182h181l-30 -184q179 -17 273 -75l-51 -273h-153l-31 180q-78 56 -186 56t-176 -56t-72 -164t69 -184t171 -136q98 -61 139 -89
q108 -75 168 -163q61 -87 61 -204q0 -187 -128 -311t-351 -145l-34 -211h-180l34 211q-117 10 -215 37t-129 52l54 298h165l15 -197q101 -77 227 -77z" />
    <glyph glyph-name="percent" unicode="%" horiz-adv-x="1911" 
d="M1228 378q0 -209 121 -209q47 -1 85 33t70 114q33 80 33 182q0 201 -115 201q-63 1 -109 -55q-85 -102 -85 -266zM1027 360q-1 122 53 220t153 162t232 64t207 -82t75 -218q-1 -136 -77 -252q-128 -193 -350 -193q-138 0 -216 89q-78 88 -77 210zM502 848q46 0 84 34
t71 113q33 80 33 182q0 201 -115 201q-63 0 -109 -56q-85 -103 -85 -265q0 -209 121 -209zM180 1040q0 122 54 220t152 162q99 64 232 63q134 0 208 -82t74 -218q0 -135 -76 -251q-128 -193 -351 -194q-137 0 -215 89t-78 211zM381 0l947 1530h189l-947 -1530h-189z" />
    <glyph glyph-name="ampersand" unicode="&#x26;" horiz-adv-x="1673" 
d="M335 387q-1 -144 89 -216t227 -72t236 27q-169 156 -321 410q-14 22 -69 115q-162 -120 -162 -264zM965 1242q0 58 -10 99q-11 41 -43 73t-84 32q-110 0 -166 -74t-56 -203q0 -128 63 -278q222 111 274 239q22 54 22 112zM1235 -20q-140 0 -242 61q-173 -68 -351 -68
q-178 -1 -302 41t-202 130t-78 210q0 183 156 302q83 63 214 125q-84 199 -84 339t66 239q66 98 178 149t232 51q221 0 312 -86q90 -86 90 -216t-98 -224t-258 -177q-38 -20 -83 -42l-61 -31q94 -169 184 -287t201 -218l3 -4q68 99 68 253q0 54 -9 112q-12 1 -36 1
q-94 0 -152 -38v180q49 49 155 49q35 0 108 -10t138 -10q64 -1 104 33t54 124h95q29 -204 -65 -302q-48 -50 -125 -50q-13 0 -43 2q2 -30 2 -47q0 -231 -180 -391q99 -73 246 -66l-6 -105q-91 -29 -231 -29z" />
    <glyph glyph-name="quotesingle" unicode="'" horiz-adv-x="558" 
d="M219 966l79 721h257l-166 -721h-170z" />
    <glyph glyph-name="parenleft" unicode="(" horiz-adv-x="869" 
d="M190 484q0 124 17 252t65 264t108 242q130 223 260 352q130 130 190 162l107 -74q-73 -48 -159 -162t-142 -214t-107 -242t-73 -286t-22 -282t30 -280t73 -236q85 -182 154 -240l-123 -74h-17q-74 50 -143 148q-68 98 -112 188t-75 224t-31 258z" />
    <glyph glyph-name="parenright" unicode=")" horiz-adv-x="874" 
d="M687 944q0 -124 -17 -252q-16 -128 -64 -264t-110 -242q-130 -223 -259 -352q-130 -130 -190 -162l-107 74q73 48 159 162q85 114 141 214t108 242q51 142 73 286t22 282q1 138 -29 280t-74 236q-85 182 -154 240l123 74h17q74 -50 143 -148t113 -188t74 -224
q31 -134 31 -258z" />
    <glyph glyph-name="asterisk" unicode="*" horiz-adv-x="1366" 
d="M336 800l-86 188l333 134l87 29l-79 28l-309 135l128 185l254 -211l61 -57l-9 88l-7 344l222 -1l-80 -345l-24 -84l71 56l300 211l86 -187l-333 -134l-87 -30l79 -28l309 -134l-128 -185l-254 210l-62 60l9 -90l7 -345l-222 1l79 346l25 85l-70 -58z" />
    <glyph glyph-name="plus" unicode="+" horiz-adv-x="1346" 
d="M548 285l27 241l26 164l-141 -7h-210l18 178h221l138 -11l13 165l27 230h198l-26 -230l-29 -164l115 10h240l-18 -178h-250l-112 7q-1 -31 -5 -88t-5 -76l-28 -241h-199z" />
    <glyph glyph-name="comma" unicode="," horiz-adv-x="541" 
d="M410 -4q0 -165 -105 -300t-278 -207l-54 79l3 21q83 37 145 133t62 176q1 80 -31 131q-32 50 -75 49l7 59l124 143q115 -28 158 -110q44 -83 44 -174z" />
    <glyph glyph-name="hyphen" unicode="-" horiz-adv-x="1276" 
d="M240 683l18 178h847l-18 -178h-847z" />
    <glyph glyph-name="period" unicode="." horiz-adv-x="541" 
d="M251 296q67 0 101 -41t30 -111t-58 -118q-56 -47 -119 -47t-99 40t-32 109q4 68 57 118t120 50z" />
    <glyph glyph-name="slash" unicode="/" horiz-adv-x="854" 
d="M75 -362h-202l861 1959h204z" />
    <glyph glyph-name="zero" unicode="0" horiz-adv-x="1278" 
d="M911 712q1 142 -49 240q-50 100 -155 101q-75 1 -135 -39q-104 -69 -149 -226t-45 -292q0 -136 20 -216t66 -132t117 -54q85 -6 151 45t104 139t56 190q19 102 19 244zM734 1162q457 0 457 -465q0 -139 -46 -269q-45 -130 -127 -228t-202 -158q-120 -58 -248 -58
q-251 0 -361 134t-110 332t84 362t230 256q146 94 323 94z" />
    <glyph glyph-name="one" unicode="1" horiz-adv-x="930" 
d="M86 0l10 97l200 27l107 778q-129 -32 -246 -52l-17 110q99 22 227 82t214 120l124 -28l-142 -1009l211 -28l-10 -97h-678z" />
    <glyph glyph-name="two" unicode="2" horiz-adv-x="1249" 
d="M159 932q196 230 504 230q95 0 175 -30t126 -78q90 -97 90 -228q0 -224 -302 -454q-161 -122 -385 -234l538 41l124 174l124 -41l-100 -312h-968l-25 108q293 160 500 339q208 179 208 343q0 86 -47 144t-143 57t-190 -49q-95 -48 -165 -119z" />
    <glyph glyph-name="three" unicode="3" horiz-adv-x="1104" 
d="M178 -198q214 0 346 97t132 253q0 106 -66 165t-210 52l-126 -32l18 145q187 37 313 157q91 87 91 190q0 72 -46 117t-123 45q-166 0 -324 -126l-52 113q65 68 193 126t276 58t250 -75t102 -208t-102 -239t-256 -158q172 -4 258 -90t86 -212t-59 -223q-59 -98 -159 -162
q-210 -134 -516 -134q-87 0 -182 18l18 136q72 -13 138 -13z" />
    <glyph glyph-name="four" unicode="4" horiz-adv-x="1264" 
d="M1 89q251 377 692 1167h202l82 -89l-637 -948l-61 -82l416 28l51 376l248 58l-52 -427l217 15l-24 -187h-220l-47 -375h-244l49 375h-621z" />
    <glyph glyph-name="five" unicode="5" horiz-adv-x="1116" 
d="M190 -223q82 -1 181 33q100 34 167 90q143 120 143 282q0 128 -68 194t-185 66t-250 -53l-55 42l176 715h537l22 16h193l-56 -206h-500l-110 -396q89 28 237 28t250 -98t101 -270t-111 -302q-110 -132 -286 -200t-383 -68q-89 0 -152 21l19 117q48 -11 130 -11z" />
    <glyph glyph-name="six" unicode="6" horiz-adv-x="1238" 
d="M423 198q46 -96 166 -96q69 0 122 42t82 112q58 137 58 287q0 149 -46 219q-47 70 -111 70q-120 0 -187 -50q-68 -50 -103 -99q-27 -121 -27 -255t46 -230zM115 494q-1 242 113 465q114 222 313 383t446 229l41 -109q-205 -70 -362 -235t-225 -367q51 53 135 89t181 36
q188 0 273 -110t85 -269q0 -158 -71 -300q-70 -142 -204 -234t-297 -92q-202 0 -315 136t-113 378z" />
    <glyph glyph-name="seven" unicode="7" horiz-adv-x="1096" 
d="M211 -249l634 1243l-491 -17l-99 -206l-183 4l78 371h907l32 -43l-605 -1433z" />
    <glyph glyph-name="eight" unicode="8" horiz-adv-x="1255" 
d="M590 96q108 0 184 70t75 182q1 112 -71 202t-206 186q-95 -54 -155 -150q-61 -96 -61 -210q0 -116 62 -198q64 -82 172 -82zM932 1235q0 113 -58 169t-147 56t-151 -66t-62 -182q0 -165 206 -312q94 50 153 136t59 199zM112 354q0 139 98 259t251 205q-194 160 -194 349
q-1 189 133 295t364 107q230 0 340 -154q55 -77 55 -180q0 -237 -322 -422q269 -188 269 -410q0 -95 -46 -177t-122 -135q-158 -111 -350 -111t-326 84q-68 42 -109 118q-41 75 -41 172z" />
    <glyph glyph-name="nine" unicode="9" horiz-adv-x="1247" 
d="M545 305q165 0 280 154q26 108 26 240q0 342 -213 342q-68 0 -121 -43q-53 -44 -82 -112q-58 -137 -58 -286q1 -149 47 -222t121 -73zM113 525q-1 110 25 200q51 182 197 309q145 128 349 128t316 -130t113 -372q-1 -186 -69 -368t-184 -326t-278 -250
q-160 -106 -339 -147l-44 111q148 51 268 144q225 174 328 449q-123 -121 -295 -121q-242 0 -335 168q-52 94 -52 205z" />
    <glyph glyph-name="colon" unicode=":" horiz-adv-x="541" 
d="M241 296q67 0 101 -41t30 -111t-58 -118q-56 -47 -119 -47t-99 40t-32 109q4 68 57 118t120 50zM340 1105q67 0 101 -41q35 -42 31 -112t-60 -117t-118 -47q-63 0 -99 40t-32 109t57 119t120 49z" />
    <glyph glyph-name="semicolon" unicode=";" horiz-adv-x="541" 
d="M341 1105q67 0 101 -41q34 -42 30 -112t-58 -117q-56 -47 -119 -47t-99 40t-32 109t57 119t120 49zM410 -4q0 -165 -105 -300t-278 -207l-54 79l3 21q83 37 145 133t62 176q1 80 -31 131q-32 50 -75 49l7 59l124 143q115 -28 158 -110q44 -83 44 -174z" />
    <glyph glyph-name="less" unicode="&#x3c;" horiz-adv-x="1368" 
d="M195 686l16 128l1009 510l-28 -227l-739 -348l657 -354l-25 -219z" />
    <glyph glyph-name="equal" unicode="=" horiz-adv-x="1063" 
d="M78 324l21 177h815l-21 -177h-815zM150 843l20 177h815l-20 -177h-815z" />
    <glyph glyph-name="greater" unicode="&#x3e;" horiz-adv-x="1368" 
d="M1275 817l-16 -128l-1009 -510l28 227l739 348l-657 354l25 219z" />
    <glyph glyph-name="question" unicode="?" horiz-adv-x="986" 
d="M476 296q134 0 135 -144q-1 -70 -61 -122t-122 -51q-62 0 -100 38q-36 38 -36 105q0 66 60 120q58 54 124 54zM253 702q0 109 79 180t205 142q187 102 233 178q18 52 20 101q3 139 -99 231t-260 92q-102 0 -196 -46l44 180q22 22 102 42t166 21q86 0 172 -25
q155 -45 223 -154q67 -109 67 -228q1 -119 -29 -198t-77 -130q-47 -52 -105 -92t-114 -72q-58 -32 -106 -64q-148 -97 -104 -267q14 -51 20 -72l-150 -49l-15 1q-34 34 -55 101t-21 128z" />
    <glyph glyph-name="at" unicode="@" horiz-adv-x="1969" 
d="M724 443q0 -99 32 -172t92 -73q62 0 150 126t157 287q69 162 82 270q-21 35 -75 60t-122 25t-135 -46q-68 -46 -106 -125q-39 -77 -57 -165t-18 -187zM1326 -316q-154 -117 -426 -117q-278 0 -478 119q-334 198 -334 662q0 166 43 332t119 300q156 274 411 427
q254 153 550 153q297 0 488 -175t191 -474q0 -477 -273 -749q-157 -157 -342 -156q-89 0 -103 121q-4 34 -4 103t33 212q-105 -249 -243 -369q-76 -66 -146 -66q-124 -1 -214 111t-89 316q2 204 100 381q97 177 267 250q94 40 174 40q159 0 244 -59l185 40
q-29 -114 -62 -316t-42 -302q-9 -99 -9 -137v-72q2 -34 2 -43q0 -47 20 -47q81 0 158 100t123 254t46 293t-35 239q-64 183 -221 269t-330 86q-172 0 -307 -57q-249 -105 -398 -371t-149 -574q1 -416 279 -589q163 -101 387 -101q85 0 191 20t157 43z" />
    <glyph glyph-name="A" unicode="A" horiz-adv-x="1359" 
d="M410 562h450l-92 615l-10 153zM7 125l680 1405h273l250 -1402l158 -32l-6 -96h-589l6 96l146 29l-45 301h-531l-136 -300l168 -30l-7 -96h-515l9 96z" />
    <glyph glyph-name="B" unicode="B" horiz-adv-x="1343" 
d="M601 106q379 0 369 361q-8 255 -270 255q-127 0 -201 -6l-75 -589q74 -21 177 -21zM636 854q104 0 164 20q210 70 204 318q-4 116 -66 174t-174 58t-175 -12l-72 -557q16 -1 119 -1zM558 -17l-288 17h-266l9 96l144 30l164 1274l-139 25l13 105h288l323 16
q348 0 436 -206q24 -56 25 -122q9 -314 -337 -411q145 -7 236 -96q90 -89 92 -220q3 -267 -187 -387q-190 -121 -513 -121z" />
    <glyph glyph-name="C" unicode="C" horiz-adv-x="1281" 
d="M635 -16q-335 0 -477 278q-79 156 -81 366t59 382q62 172 170 290t258 183t323 65q172 0 280 -27q13 -3 45 -11t34 -9l36 -10l-65 -384h-185l-31 285q-69 32 -161 32t-175 -50q-146 -88 -219 -297t-69 -395q5 -186 35 -301t100 -187t174 -71q173 0 242 89q25 29 74 199
h161l-41 -308q-207 -119 -487 -119z" />
    <glyph glyph-name="D" unicode="D" horiz-adv-x="1472" 
d="M766 1425q-111 0 -172 -23l-162 -1268q74 -26 193 -28q184 6 301 132q159 170 200 476q12 90 11 182q-2 285 -89 407t-282 122zM287 0h-295l11 96l153 30l165 1274l-138 25l11 105h307l311 16q327 0 470 -172t145 -452q4 -412 -209 -674q-102 -126 -264 -196t-365 -68
q-36 0 -119 8t-183 8z" />
    <glyph glyph-name="E" unicode="E" horiz-adv-x="1279" 
d="M-9 0l12 96l155 30l162 1274l-139 25l11 105h1023l-22 -340h-164l-41 206l-390 20l-72 -548l441 15l-18 -187l-439 21l-80 -591l510 30l118 252l158 -23l-79 -385h-1146z" />
    <glyph glyph-name="F" unicode="F" horiz-adv-x="1189" 
d="M5 0l9 97l144 29l162 1274l-139 25l13 105h1053l-34 -346h-171l-24 212l-421 19l-71 -558l476 23l-19 -197l-473 28l-77 -584l298 -30l-8 -97h-718z" />
    <glyph glyph-name="G" unicode="G" horiz-adv-x="1396" 
d="M604 -16q-96 0 -186 36q-167 67 -250 232t-87 406q-5 240 91 450t278 324q182 116 419 116q97 0 152 -6t81 -10q26 -2 59 -10t46 -11t44 -11t35 -10l50 -11l-62 -326h-187l-15 220q-80 51 -192 51t-188 -32t-128 -90q-108 -118 -151 -292t-41 -319q1 -145 19 -239
t54 -170t97 -120t140 -44q168 0 259 52l53 420l-218 17l16 131h496l-85 -649q-65 -5 -155 -31t-130 -36t-130 -24q-88 -14 -184 -14z" />
    <glyph glyph-name="H" unicode="H" horiz-adv-x="1593" 
d="M5 0l10 96l143 30l163 1274l-139 25l13 105h579l-11 -105l-167 -25l-71 -551h603l71 551l-163 25l11 105h585l-12 -105l-146 -25l-163 -1273l154 -31l-10 -96h-607l11 97l177 30l74 582h-603l-74 -583l165 -29l-8 -97h-585z" />
    <glyph glyph-name="I" unicode="I" horiz-adv-x="745" 
d="M6 0l11 96l149 30l163 1274l-140 25l12 105h577l-11 -105l-163 -25l-163 -1274l166 -29l-7 -97h-594z" />
    <glyph glyph-name="J" unicode="J" horiz-adv-x="740" 
d="M51 -112q88 92 113 214q26 122 52 303q26 182 41 311q15 128 40 360t36 324l-147 25l14 105h575l-11 -105l-161 -24q-8 -67 -23 -200q-120 -1041 -154 -1145t-125 -194q-167 -167 -435 -207l-44 98q141 43 229 135z" />
    <glyph glyph-name="K" unicode="K" horiz-adv-x="1419" 
d="M-1 0l12 96l147 30l163 1274l-139 25l13 105h579l-12 -105l-166 -25l-89 -695l617 695l-131 25l11 105h467l-11 -105l-120 -24l-505 -531q77 -118 199 -348t164 -297q42 -68 74 -86l129 -39l-13 -100h-353q-39 5 -80 79q-19 36 -123 264t-167 348l-185 -194l-47 -371
l165 -29l-8 -97h-591z" />
    <glyph glyph-name="L" unicode="L" horiz-adv-x="1225" 
d="M5 0l10 97l143 29l163 1274l-140 25l13 105h598l-11 -105l-185 -25l-164 -1277l409 15l163 389l149 -23l-90 -504h-1058z" />
    <glyph glyph-name="M" unicode="M" horiz-adv-x="1970" 
d="M-69 0l11 97l171 29l316 1274l-177 25l14 105h562l140 -955l18 -169l53 169q260 618 404 955h518l-12 -105l-175 -25l-32 -1273l178 -30l-8 -97h-631l9 98l172 28l55 885l18 370l-128 -322l-459 -1062l-139 -15l-169 1053l-49 347l-74 -357l-198 -899l198 -29l-10 -97
h-576z" />
    <glyph glyph-name="N" unicode="N" horiz-adv-x="1531" 
d="M1 0l8 96l142 29l178 1275l-158 25l16 105h448l424 -1053l69 -212l136 1136l-156 24l12 105h476l-10 -105l-135 -25l-207 -1400h-273l-435 1062l-67 218l-123 -1154l172 -29l-9 -97h-508z" />
    <glyph glyph-name="O" unicode="O" horiz-adv-x="1443" 
d="M814 1426q-136 0 -236 -104t-154 -275q-72 -237 -40 -549q41 -396 284 -397q132 1 230 103t148 276t49 418q-2 244 -74 386q-71 142 -207 142zM818 1550q292 0 429 -190t139 -478t-125 -526q-202 -376 -639 -376q-160 0 -286 82q-250 162 -255 567q-2 187 50 354
q51 167 147 293t240 200t300 74z" />
    <glyph glyph-name="P" unicode="P" horiz-adv-x="1274" 
d="M500 666q56 -11 138 -11q184 2 277 128t95 353q2 148 -64 220t-210 68q-70 0 -138 -15zM629 529q-104 0 -145 4l-48 -407l237 -29l-8 -97h-661l10 96l143 30l165 1274l-141 25l13 105h285l291 17q264 0 388 -99t129 -300q7 -288 -176 -454t-482 -165z" />
    <glyph glyph-name="Q" unicode="Q" horiz-adv-x="1444" 
d="M812 1426q-136 0 -236 -104t-154 -275q-72 -237 -40 -549q41 -396 284 -397q132 1 230 103t148 276t49 418q-2 244 -74 386q-71 142 -207 142zM816 1550q292 0 429 -190t139 -462q2 -342 -156 -596q-76 -122 -198 -205q-120 -83 -270 -107q4 -154 204 -168q36 -2 82 -3
q47 0 120 11t123 30l2 -161q-46 -36 -136 -66t-188 -30q-190 0 -298 97t-75 282q-244 14 -378 188t-137 459q-2 187 50 354q51 167 147 293t240 200t300 74z" />
    <glyph glyph-name="R" unicode="R" horiz-adv-x="1399" 
d="M723 1424q-60 0 -133 -15l-82 -614q106 -8 184 -3q160 6 242 109t75 285q-5 122 -71 180t-215 58zM443 1530l329 16q509 0 513 -365q2 -171 -88 -299t-256 -182q29 -24 71 -99t82 -192q81 -199 107 -230q26 -30 55 -53t99 -24l-7 -103l-321 2q-51 -2 -137 244
q-86 245 -130 329t-83 93q-125 -1 -186 -1l-64 -540l184 -29l-7 -97h-590l9 96l135 30l163 1274l-139 25l12 105h249z" />
    <glyph glyph-name="S" unicode="S" horiz-adv-x="1126" 
d="M482 99q124 0 202 58q78 59 82 163t-58 178q-61 74 -164 140q-104 66 -156 108t-102 98q-103 115 -106 268q0 202 146 320t388 118t371 -80l-50 -282h-148l-29 187q-74 53 -182 53t-172 -51t-66 -141t32 -153t90 -109q54 -46 136 -98q146 -92 239 -191q92 -100 94 -249
q3 -202 -147 -330t-407 -129q-141 1 -271 31t-169 62l50 298h161l18 -201q94 -68 218 -68z" />
    <glyph glyph-name="T" unicode="T" horiz-adv-x="1343" 
d="M214 0l11 100l247 26l172 1283l-281 -27l-120 -333l-151 -1l78 482h1255l-60 -481l-145 -8l-23 342l-277 26l-173 -1283l266 -26l-8 -100h-791z" />
    <glyph glyph-name="U" unicode="U" horiz-adv-x="1413" 
d="M680 97q171 0 266 135t127 394l104 774l-151 25l11 105h458l-13 -105l-126 -24l-101 -774q-44 -345 -196 -496t-425 -151q-375 0 -468 267q-45 129 -22 346l104 808l-139 24l13 105h593l-10 -104l-174 -26l-101 -783q-14 -135 -14 -197q2 -154 69 -238t195 -85z" />
    <glyph glyph-name="V" unicode="V" horiz-adv-x="1235" 
d="M387 -16l-235 1416l-126 25l12 105h567l-10 -105l-157 -25l130 -920l24 -244l85 244l411 920l-162 25l10 105h492l-14 -105l-137 -24l-643 -1411z" />
    <glyph glyph-name="W" unicode="W" horiz-adv-x="1887" 
d="M352 -10l-215 1410l-132 25l13 105h551l-10 -105l-141 -25l146 -1164l65 203l327 829l-13 134l-139 23l10 105h560l-15 -105l-144 -24l99 -928l9 -237l77 218l393 945l-178 26l10 105h508l-13 -105l-139 -25l-620 -1410h-261l-102 977l-384 -977h-262z" />
    <glyph glyph-name="X" unicode="X" horiz-adv-x="1342" 
d="M-69 0l11 97l118 29l489 633l-303 640l-129 26l10 105h589l-10 -105l-144 -24l185 -476l317 475l-137 25l9 105h496l-10 -105l-137 -24l-470 -608l329 -667l140 -29l-9 -97h-614l8 97l154 29l-203 492l-333 -492l150 -30l-9 -96h-497z" />
    <glyph glyph-name="Y" unicode="Y" horiz-adv-x="1227" 
d="M202 0l10 97l213 29l60 472l-348 802l-107 25l11 105h586l-14 -105l-171 -25l245 -651l62 111l317 540l-146 25l10 105h473l-13 -105l-113 -24l-521 -803l-61 -472l229 -29l-9 -97h-713z" />
    <glyph glyph-name="Z" unicode="Z" horiz-adv-x="1220" 
d="M-2 0l-31 89l844 1172l146 148l-500 -12l-122 -259l-146 23l53 369h989l28 -86l-838 -1175l-133 -147l562 24l155 292l144 -31l-91 -407h-1060z" />
    <glyph glyph-name="bracketleft" unicode="[" horiz-adv-x="864" 
d="M361 -211q-106 1 -161 33t-55 106q1 74 5 134t47 368t95 654t60 417q18 139 82 195t168 57q103 0 234 -35l46 -12l-16 -105h-275l-223 -1656q22 0 138 -1t137 -1l-13 -107q-163 -47 -269 -47z" />
    <glyph glyph-name="backslash" unicode="\" horiz-adv-x="854" 
d="M652 -362l-576 1959h201l577 -1959h-202z" />
    <glyph glyph-name="bracketright" unicode="]" horiz-adv-x="864" 
d="M539 1767q106 -1 161 -33t55 -106q-1 -74 -5 -134t-47 -368t-95 -654t-60 -417q-18 -139 -82 -195t-168 -57q-103 0 -234 35l-46 12l16 105h275l223 1656q-22 0 -138 1t-137 1l13 107q163 47 269 47z" />
    <glyph glyph-name="asciicircum" unicode="^" horiz-adv-x="1364" 
d="M157 510l516 1021h227l267 -1021h-210l-197 742l-388 -742h-215z" />
    <glyph glyph-name="underscore" unicode="_" horiz-adv-x="1335" 
d="M-91 -187h1378l-20 -151h-1378z" />
    <glyph glyph-name="grave" unicode="`" horiz-adv-x="541" 
d="M411 1246q-72 30 -207 139t-179 186l178 172l288 -432z" />
    <glyph glyph-name="a" unicode="a" horiz-adv-x="1194" 
d="M502 138q110 0 208 113l102 765q-44 16 -110 16t-130 -39q-111 -69 -168 -231t-57 -317q-1 -155 41 -231t114 -76zM72 398q0 116 28 222t83 204q56 98 134 173q77 76 187 121t224 45t229 -39l135 39l-130 -956q-8 -76 35 -76q32 0 90 46l30 -63q-20 -32 -67 -67
q-89 -67 -173 -67q-166 0 -160 135l-2 3q-126 -138 -302 -138q-115 0 -193 58t-113 151q-35 94 -35 209z" />
    <glyph glyph-name="b" unicode="b" horiz-adv-x="1190" 
d="M484 110q74 0 135 38q111 68 168 231q56 163 56 317t-41 231q-40 77 -110 77q-128 0 -233 -140l-97 -732q48 -22 122 -22zM774 1163q168 0 256 -115q86 -115 86 -331t-118 -415t-316 -279q-106 -43 -222 -43t-245 44l-122 -44l192 1504l-99 43l21 84l301 39l52 -27
l-78 -590q124 130 292 130z" />
    <glyph glyph-name="c" unicode="c" horiz-adv-x="923" 
d="M702 1163q132 0 226 -43l-72 -253q-18 11 -64 51q-108 93 -160 93q-52 -1 -104 -41t-92 -110q-90 -155 -88 -400q2 -316 190 -316q79 0 137 30t127 91l51 -92q-47 -64 -120 -109q-135 -84 -298 -84q-165 0 -263 120t-100 335q-2 216 98 399q179 329 532 329z" />
    <glyph glyph-name="d" unicode="d" horiz-adv-x="1217" 
d="M493 138q68 0 128 42t103 101l109 725q-49 26 -125 26t-140 -40q-112 -70 -168 -235q-55 -165 -55 -318t40 -227t108 -74zM409 -20q-169 0 -253 118t-84 301q0 184 73 357q73 172 224 289q151 118 365 118q50 0 120 -14l50 333l-140 43l20 83l348 42l55 -27l-205 -1415
q-11 -77 28 -77q29 0 89 46l30 -62q-26 -34 -69 -68q-85 -67 -172 -67t-123 40t-35 124q-54 -70 -136 -117t-185 -47z" />
    <glyph glyph-name="e" unicode="e" horiz-adv-x="1050" 
d="M737 891q-1 145 -111 145q-56 0 -108 -46t-84 -120q-59 -138 -74 -297q96 4 170 45q75 40 116 76q93 82 91 197zM683 1163q161 0 238 -69t79 -181q2 -154 -116 -259q-153 -138 -401 -182q-67 -12 -125 -14q-9 -188 82 -274q48 -46 119 -45q175 0 319 151l55 -93
q-49 -72 -163 -144q-115 -73 -277 -73q-220 0 -321 135q-100 135 -98 324q2 190 83 358t223 267t303 99z" />
    <glyph glyph-name="f" unicode="f" horiz-adv-x="705" 
d="M733 1670q105 0 168 -26l-61 -173q-68 49 -140 48t-104 -57t-51 -188l-16 -119h233l-19 -157h-235l-125 -1023q-26 -208 -138 -348t-298 -140q-102 -1 -177 18l55 176q103 -44 161 -43q94 0 123 217l138 1143h-132l18 89l142 63l15 87q32 189 154 311t289 122z" />
    <glyph glyph-name="g" unicode="g" horiz-adv-x="1186" 
d="M495 138q122 0 225 127l109 745q-48 22 -121 22t-136 -40q-110 -69 -168 -233q-57 -164 -57 -318q0 -155 41 -229t107 -74zM425 -350q67 0 104 8t66 30q51 39 68 167l34 243q-124 -118 -284 -118q-115 0 -193 58q-148 109 -148 350q0 242 117 445t315 285q110 45 228 45
t239 -44l141 44l-180 -1240q-36 -269 -288 -378q-133 -58 -290 -58q-66 1 -138 13t-105 27l50 200q41 -25 119 -51t145 -26z" />
    <glyph glyph-name="h" unicode="h" horiz-adv-x="1268" 
d="M873 1163q246 0 246 -302q0 -77 -26 -223q-27 -146 -37 -208t-20 -118t-11 -119q-1 -62 31 -62t98 51l29 -63q-22 -34 -71 -69q-97 -71 -195 -71q-99 0 -135 39q-54 58 -12 286q4 22 13 73t12 66q52 277 51 380t-25 133q-23 30 -81 29q-58 1 -142 -71t-145 -178l-94 -736
h-264l186 1482l-122 43l16 83l338 42l53 -27l-90 -707q76 112 179 180t218 67z" />
    <glyph glyph-name="i" unicode="i" horiz-adv-x="655" 
d="M446 1363q-68 0 -110 44t-40 107q2 62 52 112t118 50t108 -41t39 -106q-2 -65 -50 -115q-49 -50 -117 -51zM438 131q33 0 99 57l30 -63q-23 -33 -72 -72q-94 -73 -188 -73q-186 0 -171 141q11 99 55 408t64 451l-156 51l18 81l374 51l52 -24l-134 -932q-11 -76 29 -76z
" />
    <glyph glyph-name="j" unicode="j" horiz-adv-x="650" 
d="M442 1363q-68 0 -111 44q-42 44 -40 107q2 62 52 112t118 50q69 0 109 -41t38 -106t-50 -115t-116 -51zM-74 -523q-119 0 -156 37l37 101q31 -12 86 -12t105 37q117 87 154 425l101 915l-161 51l20 81l381 51l50 -24l-134 -1139q-29 -250 -163 -386t-320 -137z" />
    <glyph glyph-name="k" unicode="k" horiz-adv-x="1118" 
d="M1001 152q54 0 114 52l34 -66q-38 -54 -122 -106t-178 -52q-124 0 -176 115l-236 515l3 1h-3q13 9 48 32t49 33t44 30q98 70 179 179q45 61 52 157q5 62 50 92t99 29t86 -33t33 -90t-51 -130q-97 -136 -362 -271l226 -394q25 -41 56 -67t55 -26zM84 0l194 1482l-122 43
l16 83l338 42l53 -27l-215 -1623h-264z" />
    <glyph glyph-name="l" unicode="l" horiz-adv-x="621" 
d="M409 131q33 0 100 56l29 -62q-23 -34 -69 -72q-91 -73 -191 -73q-163 0 -165 135q0 30 7 77l177 1290l-127 43l20 83l334 42l50 -27l-193 -1416q-11 -76 28 -76z" />
    <glyph glyph-name="m" unicode="m" horiz-adv-x="1918" 
d="M1833 125q-111 -146 -291 -146q-72 0 -107 40q-36 40 -34 113q3 73 47 337t43 360q-1 95 -23 125t-76 30t-132 -62t-139 -159q-8 -117 -28 -258l-62 -505h-266l57 443q56 401 22 491q-12 33 -32 42t-69 9t-131 -67t-144 -166l-103 -752h-259l131 962l-103 60l17 89
l307 52l51 -24l-18 -209q76 104 177 168t208 65q106 0 170 -57t75 -187q75 111 179 177t218 67q114 -1 180 -73t66 -229q0 -67 -44 -330t-45 -331q-3 -68 29 -69q32 0 99 56z" />
    <glyph glyph-name="n" unicode="n" horiz-adv-x="1279" 
d="M752 985q-58 -1 -140 -69t-144 -171l-102 -745h-259l130 963l-102 59l17 89l308 52l50 -24l-18 -208q78 105 180 169t211 63q246 0 246 -302q0 -72 -24 -207q-24 -136 -46 -260q-21 -124 -23 -194t29 -69q31 0 89 46l29 -63q-19 -29 -67 -66q-92 -69 -195 -69
q-167 0 -163 152q3 70 15 133q11 62 20 113t11 61t10 54q8 42 10 58t10 56q46 288 -2 350q-22 29 -80 29z" />
    <glyph glyph-name="o" unicode="o" horiz-adv-x="1170" 
d="M635 1033q-73 -1 -130 -57t-89 -146q-64 -181 -60 -392q8 -333 170 -333q81 1 137 57t87 147q61 180 57 396q-6 328 -172 328zM670 1163q200 0 308 -120t113 -340q4 -141 -38 -273t-119 -230q-77 -100 -192 -160t-248 -60q-200 0 -307 119t-113 340q-3 141 39 273
q43 132 119 231q76 100 190 160t248 60z" />
    <glyph glyph-name="p" unicode="p" horiz-adv-x="1195" 
d="M490 110q76 0 136 38q107 66 164 229q56 163 56 318t-41 232t-115 77q-119 0 -219 -136l-103 -734q46 -24 122 -24zM780 1163q166 1 254 -115t87 -332q0 -216 -118 -414q-119 -199 -315 -279q-106 -43 -223 -43q-50 0 -117 12l-71 -512h-254l202 1502l-114 50l19 79
l327 52l50 -24l-14 -102q121 126 287 126z" />
    <glyph glyph-name="q" unicode="q" horiz-adv-x="1191" 
d="M492 138q124 0 227 136l102 737q-46 21 -118 21t-135 -40q-112 -70 -168 -235q-55 -165 -55 -318t40 -227t107 -74zM406 -20q-166 0 -250 118t-84 301q0 184 73 357q73 172 224 289q151 118 365 118q108 0 232 -44l1 1l128 28l-191 -1441q-4 -28 4 -51t34 -23t92 56
l29 -63q-21 -33 -72 -71q-99 -73 -193 -73t-132 41t-35 111l65 471q-124 -125 -290 -125z" />
    <glyph glyph-name="r" unicode="r" horiz-adv-x="840" 
d="M803 1163q54 0 75 -17l-57 -282q-27 22 -105 22q-156 0 -252 -150l-97 -736h-259l127 962l-104 60l18 89l285 52l50 -24v-250q35 99 113 181q40 42 96 68t110 25z" />
    <glyph glyph-name="s" unicode="s" horiz-adv-x="879" 
d="M335 125q178 0 178 133q0 65 -43 114t-135 115q-202 147 -202 346q0 154 122 242t304 88q75 0 153 -12t105 -25l-40 -187q-23 28 -81 58t-132 30q-74 -1 -122 -31q-50 -30 -54 -95t38 -120t110 -105q108 -81 171 -163t63 -184q0 -185 -130 -267t-307 -82q-91 0 -185 20
t-123 44l42 176q44 -35 116 -65t152 -30z" />
    <glyph glyph-name="t" unicode="t" horiz-adv-x="730" 
d="M128 159q0 36 20 186l86 660h-120l22 98l123 47q66 63 147 266h142l-34 -261h235l-21 -150h-233l-83 -615q-16 -124 -16 -165t17 -61t59 -19q42 0 94 21q54 21 89 49l22 -79q-49 -56 -149 -106t-198 -50t-150 42t-52 137z" />
    <glyph glyph-name="u" unicode="u" horiz-adv-x="1242" 
d="M402 260q0 -127 119 -127t226 114l122 908h259l-126 -947q-10 -76 31 -76q30 0 99 57l29 -63q-19 -33 -69 -71q-97 -74 -188 -74q-90 -1 -128 41t-25 113q-143 -155 -341 -155q-116 0 -194 63t-79 202q-1 76 38 352l53 365l-113 70l17 89l323 42l50 -24l-69 -550
q-34 -247 -34 -329z" />
    <glyph glyph-name="v" unicode="v" horiz-adv-x="1070" 
d="M250 1163q137 0 155 -137l86 -621l21 -200l94 148q84 145 130 254t60 244q3 36 -14 100t-17 105q-1 41 33 74t105 33q137 0 139 -208q0 -124 -90 -302t-212 -350l-245 -312l-172 -12l-178 966q-11 53 -40 55t-70 -27l-29 70q37 51 107 86q69 34 137 34z" />
    <glyph glyph-name="w" unicode="w" horiz-adv-x="1720" 
d="M242 1163q80 0 118 -34q39 -34 48 -103l71 -636l18 -198l353 963h226l90 -782l23 -181l100 166q55 92 103 222t51 217t-13 153t-15 106q-1 40 33 74q34 33 105 33q135 0 137 -213q1 -123 -88 -303t-207 -355l-200 -300l-213 -11l-53 374l-36 325l-3 141l-49 -141
l-145 -355l-150 -331l-226 -14l-173 965q-11 53 -41 55t-70 -27l-30 70q24 33 90 77t146 43z" />
    <glyph glyph-name="x" unicode="x" horiz-adv-x="1019" 
d="M139 1008q-27 0 -73 -32l-37 69q23 32 97 75t156 43q80 1 118 -25t56 -79l100 -297l256 393h259l-444 -581l178 -341q45 -88 75 -88q37 0 101 52l40 -69q-20 -33 -73 -72q-103 -76 -217 -76q-67 0 -101 26t-54 79l-116 318l-258 -403h-263l447 587l-174 352
q-18 35 -32 52t-41 17z" />
    <glyph glyph-name="y" unicode="y" horiz-adv-x="1078" 
d="M147 -355q180 0 322 293h-128l-190 1007q-9 31 -17 43t-33 13q-25 0 -70 -38l-29 70q24 35 94 83t150 47q79 -1 116 -35t50 -106q14 -72 58 -392t51 -363l19 -216l110 220q76 166 114 287t48 260q2 56 -16 120t-17 112q0 48 34 80q34 33 94 33q150 0 150 -193
q-1 -192 -149 -502q-30 -62 -177 -353q-148 -291 -254 -428q-139 -199 -379 -199q-119 0 -221 36l49 187q106 -66 221 -66z" />
    <glyph glyph-name="z" unicode="z" horiz-adv-x="1035" 
d="M147 10q-68 0 -94 -33l-65 62l644 790l118 102l-346 1q-73 0 -122 -44t-57 -112h-76q-7 98 9 220t65 146q37 21 109 21q72 1 282 -17t278 -18t104 35l55 -60l-649 -805l-105 -93h375q76 0 126 46t59 116h73q10 -142 -16 -245t-56 -124t-108 -21q-77 1 -306 17t-297 16z
" />
    <glyph glyph-name="braceleft" unicode="{" horiz-adv-x="1034" 
d="M469 -208q-108 0 -162 32t-53 111l92 644q0 33 -59 73t-158 62l18 124q246 60 257 128l81 532q23 144 87 198t166 54t237 -36l45 -11q-16 -83 -17 -102h-276l-96 -631q-10 -69 -98 -124l-145 -70q108 -57 150 -100t33 -101l-95 -630h275l-14 -106q-160 -47 -268 -47z" />
    <glyph glyph-name="bar" unicode="|" horiz-adv-x="854" 
d="M350 -186v1966h193v-1966h-193z" />
    <glyph glyph-name="braceright" unicode="}" horiz-adv-x="1034" 
d="M581 1754q108 0 162 -32t53 -111l-92 -644q0 -33 59 -73t158 -62l-18 -124q-246 -60 -257 -128l-81 -532q-23 -144 -87 -198t-166 -54t-237 36l-45 11q16 83 17 102h276l96 631q10 69 98 124l145 70q-108 57 -150 100t-33 101l95 630h-275l14 106q160 47 268 47z" />
    <glyph glyph-name="asciitilde" unicode="~" horiz-adv-x="1137" 
d="M442 1072q58 0 110 -26t85 -55q89 -81 157 -81q122 0 197 112l88 -96q-23 -84 -115 -152t-193 -68q-100 0 -176 58q-31 24 -61 50q-70 59 -129 59q-125 0 -197 -107l-78 96q26 78 116 144t196 66z" />
    <glyph glyph-name="DEL" 
 />
    <glyph glyph-name="nbspace" unicode="&#xa0;" horiz-adv-x="485" 
 />
    <glyph glyph-name="exclamdown" unicode="&#xa1;" horiz-adv-x="701" 
d="M424 1048q-68 0 -101 41q-35 41 -31 111t62 118q58 47 120 47q64 -1 102 -41t34 -108t-61 -118t-125 -50zM485 836l-131 -1270h-290l250 1270h171z" />
    <glyph glyph-name="cent" unicode="&#xa2;" horiz-adv-x="1056" 
d="M675 1011q-41 -1 -93 -41t-92 -110q-90 -155 -88 -400q2 -316 190 -316q79 0 137 30t127 91l51 -92q-46 -63 -139 -121t-217 -69l-36 -198h-150l38 206q-131 31 -203 146t-74 323t120 414q59 100 155 174t214 101l49 209h150l-47 -196q129 -4 215 -42l-72 -253
q-18 11 -64 51t-88 66t-83 27z" />
    <glyph glyph-name="sterling" unicode="&#xa3;" horiz-adv-x="1382" 
d="M39 -20q-99 0 -91 90q4 56 82 106t173 48q27 38 51 106t34 128l46 276h-161l18 156h170l19 112q23 148 103 276t207 208t271 79q200 0 284 -89l-108 -189q-14 33 -80 81t-149 47q-83 0 -154 -74q-70 -74 -104 -286q-9 -58 -30 -165h284l-17 -156h-296q-3 -20 -15 -90
t-28 -124q-16 -56 -29 -92q-14 -36 -37 -78q-22 -42 -34 -61l-36 -54t-29 -42q19 -4 144 -37t221 -33q186 0 254 61q67 61 67 156q1 46 -27 90t-61 70l172 154q68 -48 115 -132t47 -160t-15 -124q-34 -111 -152 -185q-119 -73 -336 -73q-144 0 -284 40q-52 14 -132 38
q-81 24 -120 35q-38 -41 -106 -77t-131 -36z" />
    <glyph glyph-name="currency" unicode="&#xa4;" horiz-adv-x="1540" 
d="M533 690q0 -108 73 -184t176 -76t176 76t73 184t-73 184t-176 77q-103 -1 -176 -77t-73 -184zM342 689q0 135 74 245l-201 201l127 128l203 -204q109 69 241 69t243 -76l199 198l127 -128l-200 -200q67 -106 67 -234t-72 -238l203 -202l-128 -127l-202 202
q-109 -71 -239 -71t-236 66l-202 -202l-128 127l200 200q-76 111 -76 246z" />
    <glyph glyph-name="yen" unicode="&#xa5;" horiz-adv-x="1483" 
d="M330 0l10 97l248 30l30 249h-384l16 139h384l25 201h-386l16 141h306l-297 557l-116 22l13 106h590l-13 -106l-178 -21l184 -405l48 -126l80 130l262 405l-129 17l13 106h511l-13 -105l-133 -28l-420 -552h288l-16 -141h-372l-25 -201h373l-16 -139h-374l-30 -249
l256 -30l-9 -97h-742z" />
    <glyph glyph-name="brokenbar" unicode="&#xa6;" horiz-adv-x="854" 
d="M350 -186v879h193v-879h-193zM350 901v879h193v-879h-193z" />
    <glyph glyph-name="section" unicode="&#xa7;" horiz-adv-x="1194" 
d="M404 981q-108 -175 66 -287q54 -35 185 -98q131 -62 180 -93q58 104 15 194q-44 89 -234 175q-134 62 -212 109zM522 -57q90 0 149 34q106 62 114 173q7 76 -77 134q-57 39 -153 83q-95 43 -150 70q-119 58 -195 143t-69 226q8 142 139 277q-77 93 -70 199
q13 200 178 295q165 96 325 96q161 -1 267 -23t154 -52l-46 -315h-142l-41 208q-58 59 -196 58q-83 1 -143 -25q-109 -47 -116 -153t94 -170t194 -103q161 -67 258 -156t89 -248t-130 -293q73 -90 65 -207t-88 -206q-157 -174 -433 -174q-131 0 -267 26t-179 54l48 340h146
l31 -216q69 -75 244 -75z" />
    <glyph glyph-name="dieresis" unicode="&#xa8;" horiz-adv-x="809" 
d="M179 1363q-64 0 -103 44q-39 43 -37 107q1 64 47 113t111 49t103 -41t36 -106t-48 -115t-109 -51zM615 1363q-64 0 -103 44q-39 43 -37 107q1 64 47 113t111 49t103 -41t36 -106t-48 -115t-109 -51z" />
    <glyph glyph-name="copyright" unicode="&#xa9;" horiz-adv-x="1768" 
d="M969 1247q68 0 136 -11t98 -27v-220h-89l-49 120q-43 39 -131 39t-150 -78t-63 -193q-2 -216 72 -302t181 -86q108 0 205 55l34 -86q-46 -38 -127 -65q-82 -27 -182 -27t-187 60t-131 157q-44 98 -44 219q-1 122 49 222t149 162t229 61zM297 784q0 -154 84 -303
q85 -149 231 -236t321 -87t322 87t231 236t84 303t-50 273q-50 120 -134 207q-84 86 -204 138q-118 52 -249 52t-249 -52t-203 -138q-85 -87 -135 -207q-50 -119 -49 -273zM168 806q0 208 103 384t279 278t384 101q208 1 383 -101q176 -102 279 -278t103 -384t-103 -384
t-279 -278t-384 -102q-155 0 -297 60t-244 162t-163 244t-61 298z" />
    <glyph glyph-name="ordfeminine" unicode="&#xaa;" horiz-adv-x="854" 
d="M418 871q65 0 144 73l86 498q-36 33 -90 33q-54 1 -109 -37t-85 -100q-62 -126 -61 -283q0 -94 25 -139t90 -45zM308 743q-114 0 -176 79t-63 196q1 117 41 213q40 97 109 173t169 124t199 49q99 0 183 -28l125 37l-119 -680q-8 -54 12 -54t56 20l28 -47q-12 -17 -80 -49
t-124 -33t-86 35t-21 91q-105 -126 -253 -126z" />
    <glyph glyph-name="guillemotleft" unicode="&#xab;" horiz-adv-x="1878" 
d="M884 530l22 160l712 401l48 -145l-485 -336l394 -331l-85 -132zM208 530l22 160l712 401l48 -145l-485 -336l394 -331l-85 -132z" />
    <glyph glyph-name="logicalnot" unicode="&#xac;" horiz-adv-x="1370" 
d="M211 711l17 152h970l-62 -541h-197l45 389h-773z" />
    <glyph glyph-name="uni00AD" unicode="&#xad;" horiz-adv-x="1706" 
 />
    <glyph glyph-name="registered" unicode="&#xae;" horiz-adv-x="1768" 
d="M936 835q80 0 121 45t41 113q0 147 -171 147q-70 0 -112 -10v-287q41 -8 121 -8zM1338 453v-78h-185q-37 0 -77 93q-18 42 -40 88q-53 114 -143 179h-78v-266l97 -20v-74h-345v74l83 20v665l-83 22v84h149l238 5q155 -1 239 -63t87 -168q0 -152 -107 -216
q-47 -28 -118 -46q85 -47 133 -152q48 -104 93 -135q24 -12 57 -12zM297 784q0 -154 84 -303q85 -149 231 -236t321 -87t322 87t231 236t84 303t-50 273q-50 120 -134 207q-84 86 -204 138q-118 52 -249 52t-249 -52t-203 -138q-85 -87 -135 -207q-50 -119 -49 -273z
M168 806q0 208 103 384t279 278t384 101q208 1 383 -101q176 -102 279 -278t103 -384t-103 -384t-279 -278t-384 -102q-155 0 -297 60t-244 162t-163 244t-61 298z" />
    <glyph glyph-name="macron" unicode="&#xaf;" horiz-adv-x="614" 
d="M26 1415l2 179h540l-2 -179h-540z" />
    <glyph glyph-name="degree" unicode="&#xb0;" horiz-adv-x="928" 
d="M532 1084q78 0 131 56t55 136q2 82 -52 139q-53 57 -131 57t-130 -55t-54 -137q-1 -82 51 -139t130 -57zM526 945q-146 -1 -240 97q-95 98 -93 238q1 140 101 236t246 95q146 1 241 -97q96 -98 94 -238q-3 -140 -103 -236q-100 -95 -246 -95z" />
    <glyph glyph-name="plusminus" unicode="&#xb1;" horiz-adv-x="1350" 
d="M180 15l17 165h859l-17 -165h-859zM547 285l27 241l26 164l-141 -7h-210l18 178h220l139 -11l13 165l27 230h198l-26 -230l-29 -164l115 10h240l-18 -178h-250l-112 7q-2 -27 -6 -82t-5 -82l-27 -241h-199z" />
    <glyph glyph-name="twosuperior" unicode="&#xb2;" horiz-adv-x="1163" 
d="M610 1489q-166 0 -301 -143l-75 104q52 70 180 138t240 69q208 2 288 -80q79 -81 79 -174q0 -179 -142 -325t-387 -300l428 35l90 135l103 -29l-90 -282h-803l-45 96q418 237 560 465q49 78 49 144t-48 107q-48 40 -126 40z" />
    <glyph glyph-name="threesuperior" unicode="&#xb3;" horiz-adv-x="1071" 
d="M664 1658q161 0 244 -61t81 -167q-3 -195 -283 -287q209 0 259 -155q12 -37 11 -76q-1 -88 -49 -160q-49 -72 -125 -114q-157 -90 -352 -90q-61 0 -144 19t-136 53l17 128q49 -24 121 -38t126 -14q112 1 205 51q93 49 95 168q4 131 -175 135l-189 -45l25 149
q332 65 346 257q3 45 -37 73t-119 27q-139 -2 -269 -94l-41 117q168 124 389 124z" />
    <glyph glyph-name="acute" unicode="&#xb4;" horiz-adv-x="559" 
d="M128 1241l-78 71l317 431l167 -177q-18 -34 -92 -102t-166 -135q-92 -66 -148 -88z" />
    <glyph glyph-name="mu" unicode="&#xb5;" horiz-adv-x="1364" 
d="M531 -20q-111 0 -165 54l-60 -406h-225l108 730q6 46 38 250t43 325q1 67 -32 67q-27 0 -71 -29l-30 66q109 120 257 120q72 0 112 -30t36 -113t-26 -218q-21 -135 -29 -182q-30 -176 -30 -280q0 -190 129 -190q88 0 180 92q18 18 45 47l115 865h260l-125 -940
q-10 -76 31 -76q24 0 79 37l30 -63q-23 -37 -93 -81t-144 -44q-75 -1 -110 29t-27 108q-106 -102 -193 -126q-47 -12 -103 -12z" />
    <glyph glyph-name="paragraph" unicode="&#xb6;" horiz-adv-x="1364" 
d="M715 1571q90 0 209 -9t191 -10h278l-11 -103l-167 -33q-23 -206 -81 -648t-83 -652l145 -30l-9 -86h-386l175 1414h-194l-177 -1414h-409l8 87l185 30l80 609q-156 2 -257 104t-102 265q-2 230 145 353t460 123z" />
    <glyph glyph-name="periodcentered" unicode="&#xb7;" horiz-adv-x="701" 
d="M366 942q67 0 101 -41q35 -41 31 -111t-60 -118q-56 -47 -118 -47q-63 0 -99 40t-32 109q4 68 57 118t120 50z" />
    <glyph glyph-name="cedilla" unicode="&#xb8;" horiz-adv-x="479" 
d="M152 -474q-44 0 -98 8t-70 20l35 142q28 -15 75 -15q161 0 176 182q7 90 -10 167l67 4l68 -4q21 -29 33 -101t7 -141q-9 -138 -77 -200t-206 -62z" />
    <glyph glyph-name="onesuperior" unicode="&#xb9;" horiz-adv-x="1020" 
d="M242 636l11 98l216 26l84 625l-241 -47l-9 108q85 25 227 95t184 104l94 -21l-119 -864l220 -27l-11 -97h-656z" />
    <glyph glyph-name="ordmasculine" unicode="&#xba;" horiz-adv-x="854" 
d="M657 1249q1 89 -35 163t-98 74t-106 -36q-46 -36 -70 -96q-46 -114 -46 -241t35 -198t88 -72t95 21t67 59q25 36 41 86q16 51 23 101q6 50 6 139zM73 1085q1 117 43 215t111 160q146 131 313 130q168 -2 258 -100t90 -236q0 -258 -145 -391q-145 -132 -313 -130t-262 98
t-95 254z" />
    <glyph glyph-name="guillemotright" unicode="&#xbb;" horiz-adv-x="1878" 
d="M1574 708l-22 -160l-712 -401l-48 145l485 336l-394 331l85 132zM898 708l-22 -160l-712 -401l-48 145l485 336l-394 331l85 132z" />
    <glyph glyph-name="onequarter" unicode="&#xbc;" horiz-adv-x="2560" 
d="M273 636l11 98l216 26l84 625l-241 -47l-9 108q85 25 227 95t184 104l94 -21l-119 -864l220 -27l-11 -97h-656zM796 0l681 1530h189l-681 -1530h-189zM1862 -176l47 337h-520l-37 95l590 857l123 1l108 -104l-483 -608l-103 -113l343 20l35 252l225 23l-36 -262l227 14
l-20 -175h-229l-45 -337h-225z" />
    <glyph glyph-name="onehalf" unicode="&#xbd;" horiz-adv-x="2560" 
d="M273 636l11 98l216 26l84 625l-241 -47l-9 108q85 25 227 95t184 104l94 -21l-119 -864l220 -27l-11 -97h-656zM796 0l681 1530h189l-681 -1530h-189zM1845 774q-166 0 -301 -143l-75 104q53 70 181 138t239 69q208 2 288 -80q79 -81 79 -174q0 -179 -142 -325t-387 -300
l428 35l90 135l103 -29l-90 -282h-803l-45 96q418 236 560 464q49 78 49 146q0 66 -48 106t-126 40z" />
    <glyph glyph-name="threequarters" unicode="&#xbe;" horiz-adv-x="2568" 
d="M824 0l681 1530h189l-681 -1530h-189zM706 1658q161 0 244 -61t81 -167q-3 -195 -283 -287q209 0 259 -155q12 -37 11 -76q-1 -88 -49 -160q-49 -72 -125 -114q-157 -90 -352 -90q-61 0 -144 19t-136 53l17 128q49 -24 121 -38t126 -14q112 1 205 51q93 49 95 168
q4 131 -175 135l-189 -45l25 149q332 65 346 257q3 45 -37 73t-119 27q-139 -2 -269 -94l-41 117q168 124 389 124zM1862 -176l47 337h-520l-37 95l590 857l123 1l108 -104l-483 -608l-103 -113l343 20l35 252l225 23l-36 -262l227 14l-20 -175h-229l-45 -337h-225z" />
    <glyph glyph-name="questiondown" unicode="&#xbf;" horiz-adv-x="1021" 
d="M73 14q-1 92 31 171q32 80 82 131t111 93t123 78t112 74q116 87 117 220q1 27 -11 69t-12 43l158 53l15 -1q29 -31 47 -90t18 -117q0 -112 -88 -191q-88 -78 -229 -160q-187 -102 -233 -178q-19 -52 -20 -97q-3 -140 99 -232t260 -92q100 0 194 46l-42 -180
q-23 -23 -95 -43t-172 -20q-99 0 -200 35t-157 95q-56 61 -82 131t-26 162zM614 1119q-64 1 -98 37t-35 104q0 68 59 122q60 53 124 53q64 -1 100 -39t36 -106t-61 -120t-125 -51z" />
    <glyph glyph-name="Agrave" unicode="&#xc0;" horiz-adv-x="1359" 
d="M834 1592q-90 34 -200 108t-144 146l160 161l270 -342zM410 562h450l-92 615l-10 153zM7 125l680 1405h273l250 -1402l158 -32l-6 -96h-589l6 96l146 29l-45 301h-531l-136 -300l168 -30l-7 -96h-515l9 96z" />
    <glyph glyph-name="Aacute" unicode="&#xc1;" horiz-adv-x="1359" 
d="M828 1592l-84 73l276 342l155 -161q-23 -49 -91 -104q-124 -102 -256 -150zM410 562h450l-92 615l-10 153zM7 125l680 1405h273l250 -1402l158 -32l-6 -96h-589l6 96l146 29l-45 301h-531l-136 -300l168 -30l-7 -96h-515l9 96z" />
    <glyph glyph-name="Acircumflex" unicode="&#xc2;" horiz-adv-x="1359" 
d="M560 1607l-84 58l336 342h178l211 -342l-96 -59l-221 218zM410 562h450l-92 615l-10 153zM7 125l680 1405h273l250 -1402l158 -32l-6 -96h-589l6 96l146 29l-45 301h-531l-136 -300l168 -30l-7 -96h-515l9 96z" />
    <glyph glyph-name="Atilde" unicode="&#xc3;" horiz-adv-x="1359" 
d="M732 1970q56 0 90 -15t57 -36t43 -43t45 -36q24 -15 50 -15q53 0 87 32t66 73l73 -111q-27 -73 -99 -127t-136 -54t-99 14q-37 14 -59 36t-42 43q-47 50 -106 52q-60 1 -143 -86l-62 104q33 67 105 118t130 51zM410 562h450l-92 615l-10 153zM7 125l680 1405h273
l250 -1402l158 -32l-6 -96h-589l6 96l146 29l-45 301h-531l-136 -300l168 -30l-7 -96h-515l9 96z" />
    <glyph glyph-name="Adieresis" unicode="&#xc4;" horiz-adv-x="1359" 
d="M608 1679q-63 1 -99 39q-37 38 -35 100t48 108t108 46t98 -36t34 -101q-2 -64 -46 -110t-108 -46zM1044 1679q-64 1 -100 39t-35 100t47 108t110 46t98 -36q36 -36 34 -101q-2 -64 -46 -110t-108 -46zM410 562h450l-92 615l-10 153zM7 125l680 1405h273l250 -1402
l158 -32l-6 -96h-589l6 96l146 29l-45 301h-531l-136 -300l168 -30l-7 -96h-515l9 96z" />
    <glyph glyph-name="Aring" unicode="&#xc5;" horiz-adv-x="1359" 
d="M410 562h450l-92 615l-10 153zM830 1592q167 -2 176 154q4 66 -37 108t-110 42t-119 -36t-54 -108t38 -116q44 -43 106 -44zM891 2007q133 0 211 -64t72 -172q-12 -203 -209 -269l245 -1374l158 -32l-6 -96h-589l6 96l146 29l-45 301h-531l-136 -300l168 -30l-7 -96h-515
l9 96l139 29l665 1375q-79 26 -119 86q-39 60 -35 140q9 156 124 218q117 63 249 63z" />
    <glyph glyph-name="AE" unicode="&#xc6;" horiz-adv-x="1947" 
d="M489 582h417l99 815l-82 2zM4 126l736 1275l-314 24l15 105h1441l-22 -329h-159l-41 195l-374 20l-69 -548l419 15l-17 -187l-418 21l-76 -591l496 30l107 241l158 -23l-68 -374h-1134l12 96l155 30l39 320h-473l-170 -320l189 -30l-7 -96h-592l11 96z" />
    <glyph glyph-name="Ccedilla" unicode="&#xc7;" horiz-adv-x="1287" 
d="M439 -317q161 0 176 182q4 71 -2 120q-319 9 -457 283q-76 153 -79 361q-2 209 59 381q62 172 170 290t258 183t323 65q172 0 280 -27q13 -3 45 -11t34 -9l36 -10l-65 -384h-185l-31 285q-69 32 -161 32t-175 -50q-146 -88 -219 -297t-69 -395q5 -186 35 -301t100 -187
t174 -71q173 0 242 89q25 29 74 199h161l-41 -308q-161 -92 -363 -113q26 -85 19 -212q-6 -126 -74 -188t-207 -62q-43 0 -97 8t-71 20l35 142q28 -15 75 -15z" />
    <glyph glyph-name="Egrave" unicode="&#xc8;" horiz-adv-x="1274" 
d="M-14 0l12 96l155 30l162 1274l-139 25l11 105h1023l-22 -340h-164l-41 206l-390 20l-72 -548l441 15l-18 -187l-439 21l-80 -591l510 30l118 252l158 -23l-79 -385h-1146zM806 1592q-90 34 -200 108t-144 146l160 161l270 -342z" />
    <glyph glyph-name="Eacute" unicode="&#xc9;" horiz-adv-x="1274" 
d="M-14 0l12 96l155 30l162 1274l-139 25l11 105h1023l-22 -340h-164l-41 206l-390 20l-72 -548l441 15l-18 -187l-439 21l-80 -591l510 30l118 252l158 -23l-79 -385h-1146zM800 1592l-84 73l276 342l155 -161q-23 -49 -91 -104q-124 -102 -256 -150z" />
    <glyph glyph-name="Ecircumflex" unicode="&#xca;" horiz-adv-x="1274" 
d="M532 1607l-84 58l336 342h178l211 -342l-96 -59l-221 218zM-14 0l12 96l155 30l162 1274l-139 25l11 105h1023l-22 -340h-164l-41 206l-390 20l-72 -548l441 15l-18 -187l-439 21l-80 -591l510 30l118 252l158 -23l-79 -385h-1146z" />
    <glyph glyph-name="Edieresis" unicode="&#xcb;" horiz-adv-x="1274" 
d="M-14 0l12 96l155 30l162 1274l-139 25l11 105h1023l-22 -340h-164l-41 206l-390 20l-72 -548l441 15l-18 -187l-439 21l-80 -591l510 30l118 252l158 -23l-79 -385h-1146zM580 1679q-63 1 -99 39q-37 38 -35 100t48 108t108 46t98 -36t34 -101q-2 -64 -46 -110t-108 -46z
M1016 1679q-64 1 -100 39t-35 100t47 108t110 46t98 -36q36 -36 34 -101q-2 -64 -46 -110t-108 -46z" />
    <glyph glyph-name="Igrave" unicode="&#xcc;" horiz-adv-x="745" 
d="M538 1592q-90 34 -200 108t-144 146l160 161l270 -342zM6 0l11 96l149 30l163 1274l-140 25l12 105h577l-11 -105l-163 -25l-163 -1274l166 -29l-7 -97h-594z" />
    <glyph glyph-name="Iacute" unicode="&#xcd;" horiz-adv-x="745" 
d="M532 1592l-84 73l276 342l155 -161q-23 -49 -91 -104q-124 -102 -256 -150zM6 0l11 96l149 30l163 1274l-140 25l12 105h577l-11 -105l-163 -25l-163 -1274l166 -29l-7 -97h-594z" />
    <glyph glyph-name="Icircumflex" unicode="&#xce;" horiz-adv-x="745" 
d="M264 1607l-84 58l336 342h178l211 -342l-96 -59l-221 218zM6 0l11 96l149 30l163 1274l-140 25l12 105h577l-11 -105l-163 -25l-163 -1274l166 -29l-7 -97h-594z" />
    <glyph glyph-name="Idieresis" unicode="&#xcf;" horiz-adv-x="745" 
d="M312 1679q-63 1 -99 39q-37 38 -35 100t48 108t108 46t98 -36t34 -101q-2 -64 -46 -110t-108 -46zM748 1679q-64 1 -100 39t-35 100t47 108t110 46t98 -36q36 -36 34 -101q-2 -64 -46 -110t-108 -46zM6 0l11 96l149 30l163 1274l-140 25l12 105h577l-11 -105l-163 -25
l-163 -1274l166 -29l-7 -97h-594z" />
    <glyph glyph-name="Eth" unicode="&#xd0;" horiz-adv-x="1467" 
d="M761 1427q-111 0 -172 -23l-70 -542h345l-21 -150h-343l-73 -576q74 -26 193 -28q184 6 301 132q159 170 200 476q12 90 11 182q-2 285 -89 407t-282 122zM282 2h-295l11 96l153 30l75 584h-142l21 150h141l70 540l-138 25l11 105h307l311 16q327 0 470 -172t145 -452
q4 -412 -209 -674q-103 -126 -265 -196t-364 -68q-36 0 -119 8t-183 8z" />
    <glyph glyph-name="Ntilde" unicode="&#xd1;" horiz-adv-x="1531" 
d="M1 0l8 96l142 29l178 1275l-158 25l16 105h448l424 -1053l69 -212l136 1136l-156 24l12 105h476l-10 -105l-135 -25l-207 -1400h-273l-435 1062l-67 218l-123 -1154l172 -29l-9 -97h-508zM833 1970q57 0 91 -15t56 -36q24 -21 44 -43t44 -36q24 -15 50 -15q53 0 87 32
t66 73l73 -111q-26 -73 -98 -127t-136 -54t-100 14t-58 36t-42 43q-47 50 -107 52q-60 1 -143 -86l-62 104q34 67 106 118t129 51z" />
    <glyph glyph-name="Ograve" unicode="&#xd2;" horiz-adv-x="1443" 
d="M814 1426q-136 0 -236 -104t-154 -275q-72 -237 -40 -549q41 -396 284 -397q132 1 230 103t148 276t49 418q-2 244 -74 386q-71 142 -207 142zM818 1550q292 0 429 -190t139 -478t-125 -526q-202 -376 -639 -376q-160 0 -286 82q-250 162 -255 567q-2 187 50 354
q51 167 147 293t240 200t300 74zM869 1592q-89 34 -199 108t-145 146l160 161l270 -342z" />
    <glyph glyph-name="Oacute" unicode="&#xd3;" horiz-adv-x="1443" 
d="M814 1426q-136 0 -236 -104t-154 -275q-72 -237 -40 -549q41 -396 284 -397q132 1 230 103t148 276t49 418q-2 244 -74 386q-71 142 -207 142zM818 1550q292 0 429 -190t139 -478t-125 -526q-202 -376 -639 -376q-160 0 -286 82q-250 162 -255 567q-2 187 50 354
q51 167 147 293t240 200t300 74zM863 1592l-84 73l276 342l155 -161q-24 -49 -92 -104q-124 -102 -255 -150z" />
    <glyph glyph-name="Ocircumflex" unicode="&#xd4;" horiz-adv-x="1443" 
d="M595 1607l-84 58l336 342h178l211 -342l-96 -59l-221 218zM814 1426q-136 0 -236 -104t-154 -275q-72 -237 -40 -549q41 -396 284 -397q132 1 230 103t148 276t49 418q-2 244 -74 386q-71 142 -207 142zM818 1550q292 0 429 -190t139 -478t-125 -526q-202 -376 -639 -376
q-160 0 -286 82q-250 162 -255 567q-2 187 50 354q51 167 147 293t240 200t300 74z" />
    <glyph glyph-name="Otilde" unicode="&#xd5;" horiz-adv-x="1443" 
d="M814 1426q-136 0 -236 -104t-154 -275q-72 -237 -40 -549q41 -396 284 -397q132 1 230 103t148 276t49 418q-2 244 -74 386q-71 142 -207 142zM818 1550q292 0 429 -190t139 -478t-125 -526q-202 -376 -639 -376q-160 0 -286 82q-250 162 -255 567q-2 187 50 354
q51 167 147 293t240 200t300 74zM767 1970q57 0 91 -15t56 -36q24 -21 44 -43t44 -36q24 -15 50 -15q53 0 87 32t66 73l73 -111q-26 -73 -98 -127t-136 -54t-100 14t-58 36t-42 43q-47 50 -107 52q-60 1 -143 -86l-62 104q34 67 106 118t129 51z" />
    <glyph glyph-name="Odieresis" unicode="&#xd6;" horiz-adv-x="1443" 
d="M814 1426q-136 0 -236 -104t-154 -275q-72 -237 -40 -549q41 -396 284 -397q132 1 230 103t148 276t49 418q-2 244 -74 386q-71 142 -207 142zM818 1550q292 0 429 -190t139 -478t-125 -526q-202 -376 -639 -376q-160 0 -286 82q-250 162 -255 567q-2 187 50 354
q51 167 147 293t240 200t300 74zM643 1679q-63 1 -99 39t-34 100t46 108q46 46 109 46t99 -36t33 -101q-3 -64 -47 -110t-107 -46zM1079 1679q-63 1 -99 39t-36 100q1 62 47 108q45 46 109 46t100 -36t33 -101q-3 -64 -47 -110t-107 -46z" />
    <glyph glyph-name="multiply" unicode="&#xd7;" horiz-adv-x="1370" 
d="M333 301l-116 138l383 327l-301 327l147 137l281 -350q15 14 369 350l115 -139l-382 -326l301 -327l-148 -138l-281 350q-351 -333 -368 -349z" />
    <glyph glyph-name="Oslash" unicode="&#xd8;" horiz-adv-x="1443" 
d="M660 103q140 1 238 103t148 276t49 385q-2 210 -43 340l-604 -960q73 -144 212 -144zM804 1428q-126 0 -226 -104t-154 -275q-52 -169 -50 -365t31 -317l597 950q-72 111 -198 111zM832 1552q170 0 291 -77l135 195l89 -49l-144 -210q179 -179 182 -497t-124 -556
t-357 -328q-122 -48 -265 -48q-193 0 -326 96l-140 -205l-89 49l153 225q-153 174 -156 484q-2 187 50 354q51 167 147 293t240 200t314 74z" />
    <glyph glyph-name="Ugrave" unicode="&#xd9;" horiz-adv-x="1413" 
d="M680 97q171 0 266 135t127 394l104 774l-151 25l11 105h458l-13 -105l-126 -24l-101 -774q-44 -345 -196 -496t-425 -151q-375 0 -468 267q-45 129 -22 346l104 808l-139 24l13 105h593l-10 -104l-174 -26l-101 -783q-14 -135 -14 -197q2 -154 69 -238t195 -85zM897 1592
q-89 34 -199 108t-145 146l160 161l270 -342z" />
    <glyph glyph-name="Uacute" unicode="&#xda;" horiz-adv-x="1413" 
d="M680 97q171 0 266 135t127 394l104 774l-151 25l11 105h458l-13 -105l-126 -24l-101 -774q-44 -345 -196 -496t-425 -151q-375 0 -468 267q-45 129 -22 346l104 808l-139 24l13 105h593l-10 -104l-174 -26l-101 -783q-14 -135 -14 -197q2 -154 69 -238t195 -85zM891 1592
l-84 73l276 342l155 -161q-24 -49 -92 -104q-124 -102 -255 -150z" />
    <glyph glyph-name="Ucircumflex" unicode="&#xdb;" horiz-adv-x="1413" 
d="M623 1607l-84 58l336 342h178l211 -342l-96 -59l-221 218zM680 97q171 0 266 135t127 394l104 774l-151 25l11 105h458l-13 -105l-126 -24l-101 -774q-44 -345 -196 -496t-425 -151q-375 0 -468 267q-45 129 -22 346l104 808l-139 24l13 105h593l-10 -104l-174 -26
l-101 -783q-14 -135 -14 -197q2 -154 69 -238t195 -85z" />
    <glyph glyph-name="Udieresis" unicode="&#xdc;" horiz-adv-x="1413" 
d="M680 97q171 0 266 135t127 394l104 774l-151 25l11 105h458l-13 -105l-126 -24l-101 -774q-44 -345 -196 -496t-425 -151q-375 0 -468 267q-45 129 -22 346l104 808l-139 24l13 105h593l-10 -104l-174 -26l-101 -783q-14 -135 -14 -197q2 -154 69 -238t195 -85zM671 1679
q-63 1 -99 39t-34 100t46 108q46 46 109 46t99 -36t33 -101q-3 -64 -47 -110t-107 -46zM1107 1679q-63 1 -99 39t-36 100q1 62 47 108q45 46 109 46t100 -36t33 -101q-3 -64 -47 -110t-107 -46z" />
    <glyph glyph-name="Yacute" unicode="&#xdd;" horiz-adv-x="1227" 
d="M776 1592l-84 73l276 342l155 -161q-23 -49 -91 -104q-124 -102 -256 -150zM202 0l10 97l213 29l60 472l-348 802l-107 25l11 105h586l-14 -105l-171 -25l245 -651l62 111l317 540l-146 25l10 105h473l-13 -105l-113 -24l-521 -803l-61 -472l229 -29l-9 -97h-713z" />
    <glyph glyph-name="Thorn" unicode="&#xde;" horiz-adv-x="1262" 
d="M610 471q172 1 270 93t94 244t-65 216q-61 65 -204 65q-76 0 -153 -15l-76 -599q47 -4 134 -4zM771 1211q462 0 467 -356q4 -211 -146 -355q-74 -72 -200 -112q-126 -42 -259 -42q-134 0 -173 4l-28 -224l174 -29l-8 -97h-594l10 96l143 30l161 1274l-139 25l13 105h579
l-12 -105l-166 -25l-25 -200q119 11 203 11z" />
    <glyph glyph-name="germandbls" unicode="&#xdf;" horiz-adv-x="1194" 
d="M1143 1300q0 -82 -21 -136q-20 -56 -52 -88q-64 -66 -137 -116t-73 -119q0 -49 82 -155q32 -42 56 -75q24 -31 31 -41q6 -10 26 -40t27 -47q6 -18 22 -56t16 -120q0 -83 -58 -161t-156 -120t-238 -42t-234 47l26 187q28 -35 90 -69q62 -33 110 -33q84 1 136 28
q51 28 51 132q0 103 -90 247q-49 62 -85 136q-36 75 -37 127q0 52 16 90t33 60q17 20 57 63q136 138 136 288q1 77 -39 127t-115 50q-241 0 -311 -597l-108 -867h-264l115 927q73 539 414 633q93 25 202 25q110 0 191 -33q81 -34 131 -102t50 -150z" />
    <glyph glyph-name="agrave" unicode="&#xe0;" horiz-adv-x="1194" 
d="M714 1246q-72 30 -207 139t-179 186l178 172l288 -432zM502 138q110 0 208 113l102 765q-44 16 -110 16t-130 -39q-111 -69 -168 -231t-57 -317q-1 -155 41 -231t114 -76zM72 398q0 116 28 222t83 204q56 98 134 173q77 76 187 121t224 45t229 -39l135 39l-130 -956
q-8 -76 35 -76q32 0 90 46l30 -63q-20 -32 -67 -67q-89 -67 -173 -67q-166 0 -160 135l-2 3q-126 -138 -302 -138q-115 0 -193 58t-113 151q-35 94 -35 209z" />
    <glyph glyph-name="aacute" unicode="&#xe1;" horiz-adv-x="1194" 
d="M709 1241l-78 71l317 431l167 -177q-19 -34 -93 -102t-166 -135q-92 -66 -147 -88zM502 138q110 0 208 113l102 765q-44 16 -110 16t-130 -39q-111 -69 -168 -231t-57 -317q-1 -155 41 -231t114 -76zM72 398q0 116 28 222t83 204q56 98 134 173q77 76 187 121t224 45
t229 -39l135 39l-130 -956q-8 -76 35 -76q32 0 90 46l30 -63q-20 -32 -67 -67q-89 -67 -173 -67q-166 0 -160 135l-2 3q-126 -138 -302 -138q-115 0 -193 58t-113 151q-35 94 -35 209z" />
    <glyph glyph-name="acircumflex" unicode="&#xe2;" horiz-adv-x="1194" 
d="M458 1229l-82 57l347 374h178l200 -374l-99 -58l-216 234zM502 138q110 0 208 113l102 765q-44 16 -110 16t-130 -39q-111 -69 -168 -231t-57 -317q-1 -155 41 -231t114 -76zM72 398q0 116 28 222t83 204q56 98 134 173q77 76 187 121t224 45t229 -39l135 39l-130 -956
q-8 -76 35 -76q32 0 90 46l30 -63q-20 -32 -67 -67q-89 -67 -173 -67q-166 0 -160 135l-2 3q-126 -138 -302 -138q-115 0 -193 58t-113 151q-35 94 -35 209z" />
    <glyph glyph-name="atilde" unicode="&#xe3;" horiz-adv-x="1194" 
d="M617 1665q57 0 91 -15q34 -14 56 -36q24 -22 44 -43t44 -36t50 -15q53 0 87 32t66 73l73 -111q-26 -73 -98 -127t-136 -54q-64 1 -100 15t-58 36l-42 42q-47 50 -107 52q-60 1 -143 -86l-62 104q34 67 106 118t129 51zM502 138q110 0 208 113l102 765q-44 16 -110 16
t-130 -39q-111 -69 -168 -231t-57 -317q-1 -155 41 -231t114 -76zM72 398q0 116 28 222t83 204q56 98 134 173q77 76 187 121t224 45t229 -39l135 39l-130 -956q-8 -76 35 -76q32 0 90 46l30 -63q-20 -32 -67 -67q-89 -67 -173 -67q-166 0 -160 135l-2 3
q-126 -138 -302 -138q-115 0 -193 58t-113 151q-35 94 -35 209z" />
    <glyph glyph-name="adieresis" unicode="&#xe4;" horiz-adv-x="1194" 
d="M539 1363q-64 0 -103 44q-39 43 -37 107q1 64 47 113t111 49t103 -41t36 -106t-48 -115t-109 -51zM975 1363q-64 0 -103 44q-39 43 -37 107q1 64 47 113t111 49t103 -41t36 -106t-48 -115t-109 -51zM502 138q110 0 208 113l102 765q-44 16 -110 16t-130 -39
q-111 -69 -168 -231t-57 -317q-1 -155 41 -231t114 -76zM72 398q0 116 28 222t83 204q56 98 134 173q77 76 187 121t224 45t229 -39l135 39l-130 -956q-8 -76 35 -76q32 0 90 46l30 -63q-20 -32 -67 -67q-89 -67 -173 -67q-166 0 -160 135l-2 3q-126 -138 -302 -138
q-115 0 -193 58t-113 151q-35 94 -35 209z" />
    <glyph glyph-name="aring" unicode="&#xe5;" horiz-adv-x="1194" 
d="M770 1368q168 -2 177 159q5 67 -37 111t-97 44t-93 -14t-64 -52q-26 -36 -30 -96t40 -106t104 -46zM842 1795q122 0 200 -67t70 -198t-116 -204q-109 -73 -250 -73q-140 0 -218 69t-69 190q8 170 174 244q88 40 209 39zM502 138q110 0 208 113l102 765q-44 16 -110 16
t-130 -39q-111 -69 -168 -231t-57 -317q-1 -155 41 -231t114 -76zM72 398q0 116 28 222t83 204q56 98 134 173q77 76 187 121t224 45t229 -39l135 39l-130 -956q-8 -76 35 -76q32 0 90 46l30 -63q-20 -32 -67 -67q-89 -67 -173 -67q-166 0 -160 135l-2 3
q-126 -138 -302 -138q-115 0 -193 58t-113 151q-35 94 -35 209z" />
    <glyph glyph-name="ae" unicode="&#xe6;" horiz-adv-x="1711" 
d="M345 409q0 -258 112 -258q117 -1 237 161q28 38 53 81v29l-18 -20l97 622q-29 8 -91 8t-131 -40q-122 -71 -190 -241q-69 -169 -69 -342zM1296 1036q-62 0 -113 -46t-81 -120q-60 -145 -73 -297q94 4 167 45q73 40 113 76q91 83 89 197q-3 145 -102 145zM72 392
q0 224 125 432t333 292q114 46 226 47q111 0 226 -35l101 35l-14 -85q134 85 286 85q152 1 228 -69q75 -70 77 -172t-42 -180q-77 -134 -255 -207q-177 -73 -337 -77q-8 -319 186 -319q180 0 329 151l55 -93q-52 -74 -133 -124q-151 -93 -311 -93q-305 0 -382 263
q-62 -101 -162 -182t-235 -81q-301 0 -301 412z" />
    <glyph glyph-name="ccedilla" unicode="&#xe7;" horiz-adv-x="924" 
d="M236 -319q161 0 176 182q4 71 -2 118q-158 13 -246 131t-91 329q-2 210 104 405q105 194 291 273q102 44 234 44t227 -43l-72 -253q-17 11 -63 51q-108 93 -161 93q-53 -1 -105 -41t-92 -110q-90 -155 -87 -400q2 -316 190 -316q79 0 137 30t127 91l51 -92
q-40 -55 -118 -109t-181 -73q29 -88 21 -215q-8 -126 -76 -188t-206 -62q-44 0 -98 8t-70 20l35 142q28 -15 75 -15z" />
    <glyph glyph-name="egrave" unicode="&#xe8;" horiz-adv-x="1050" 
d="M646 1246q-72 30 -207 139t-179 186l178 172l288 -432zM737 891q-1 145 -111 145q-56 0 -108 -46t-84 -120q-59 -138 -74 -297q96 4 170 45q75 40 116 76q93 82 91 197zM683 1163q161 0 238 -69t79 -181q2 -154 -116 -259q-153 -138 -401 -182q-67 -12 -125 -14
q-9 -188 82 -274q48 -46 119 -45q175 0 319 151l55 -93q-49 -72 -163 -144q-115 -73 -277 -73q-220 0 -321 135q-100 135 -98 324q2 190 83 358t223 267t303 99z" />
    <glyph glyph-name="eacute" unicode="&#xe9;" horiz-adv-x="1050" 
d="M737 891q-1 145 -111 145q-56 0 -108 -46t-84 -120q-59 -138 -74 -297q96 4 170 45q75 40 116 76q93 82 91 197zM683 1163q161 0 238 -69t79 -181q2 -154 -116 -259q-153 -138 -401 -182q-67 -12 -125 -14q-9 -188 82 -274q48 -46 119 -45q175 0 319 151l55 -93
q-49 -72 -163 -144q-115 -73 -277 -73q-220 0 -321 135q-100 135 -98 324q2 190 83 358t223 267t303 99zM641 1241l-78 71l317 431l167 -177q-19 -34 -93 -102t-166 -135q-92 -66 -147 -88z" />
    <glyph glyph-name="ecircumflex" unicode="&#xea;" horiz-adv-x="1050" 
d="M737 891q-1 145 -111 145q-56 0 -108 -46t-84 -120q-59 -138 -74 -297q96 4 170 45q75 40 116 76q93 82 91 197zM683 1163q161 0 238 -69t79 -181q2 -154 -116 -259q-153 -138 -401 -182q-67 -12 -125 -14q-9 -188 82 -274q48 -46 119 -45q175 0 319 151l55 -93
q-49 -72 -163 -144q-115 -73 -277 -73q-220 0 -321 135q-100 135 -98 324q2 190 83 358t223 267t303 99zM390 1229l-82 57l347 374h178l200 -374l-99 -58l-216 234z" />
    <glyph glyph-name="edieresis" unicode="&#xeb;" horiz-adv-x="1050" 
d="M737 891q-1 145 -111 145q-56 0 -108 -46t-84 -120q-59 -138 -74 -297q96 4 170 45q75 40 116 76q93 82 91 197zM683 1163q161 0 238 -69t79 -181q2 -154 -116 -259q-153 -138 -401 -182q-67 -12 -125 -14q-9 -188 82 -274q48 -46 119 -45q175 0 319 151l55 -93
q-49 -72 -163 -144q-115 -73 -277 -73q-220 0 -321 135q-100 135 -98 324q2 190 83 358t223 267t303 99zM471 1363q-64 0 -103 44q-39 43 -37 107q1 64 47 113t111 49t103 -41t36 -106t-48 -115t-109 -51zM907 1363q-64 0 -103 44q-39 43 -37 107q1 64 47 113t111 49
t103 -41t36 -106t-48 -115t-109 -51z" />
    <glyph glyph-name="igrave" unicode="&#xec;" horiz-adv-x="655" 
d="M397 1246q-72 30 -207 139t-179 186l178 172l288 -432zM438 131q33 0 99 57l30 -63q-23 -33 -72 -72q-94 -73 -188 -73q-186 0 -171 141q11 99 55 408t64 451l-156 51l18 81l374 51l52 -24l-134 -932q-11 -76 29 -76z" />
    <glyph glyph-name="iacute" unicode="&#xed;" horiz-adv-x="655" 
d="M438 131q33 0 99 57l30 -63q-23 -33 -72 -72q-94 -73 -188 -73q-186 0 -171 141q11 99 55 408t64 451l-156 51l18 81l374 51l52 -24l-134 -932q-11 -76 29 -76zM391 1241l-78 71l317 431l167 -177q-19 -34 -93 -102t-166 -135q-92 -66 -147 -88z" />
    <glyph glyph-name="icircumflex" unicode="&#xee;" horiz-adv-x="655" 
d="M438 131q33 0 99 57l30 -63q-23 -33 -72 -72q-94 -73 -188 -73q-186 0 -171 141q11 99 55 408t64 451l-156 51l18 81l374 51l52 -24l-134 -932q-11 -76 29 -76zM140 1229l-82 57l347 374h178l200 -374l-99 -58l-216 234z" />
    <glyph glyph-name="idieresis" unicode="&#xef;" horiz-adv-x="655" 
d="M438 131q33 0 99 57l30 -63q-23 -33 -72 -72q-94 -73 -188 -73q-186 0 -171 141q11 99 55 408t64 451l-156 51l18 81l374 51l52 -24l-134 -932q-11 -76 29 -76zM221 1363q-64 0 -103 44q-39 43 -37 107q1 64 47 113t111 49t103 -41t36 -106t-48 -115t-109 -51zM657 1363
q-64 0 -103 44q-39 43 -37 107q1 64 47 113t111 49t103 -41t36 -106t-48 -115t-109 -51z" />
    <glyph glyph-name="eth" unicode="&#xf0;" horiz-adv-x="1167" 
d="M508 98q80 0 142 62q123 121 160 391q26 179 14 233t-32 98t-64 74t-110 30t-122 -55q-57 -55 -90 -143q-67 -179 -67 -347q1 -167 45 -255t124 -88zM1104 812q0 -358 -160 -592q-77 -112 -195 -176t-263 -64q-239 0 -355 205q-66 116 -66 263t45 274q46 127 122 211
q161 177 391 177q150 0 210 -72q-19 112 -54 196t-107 164l-140 -160l-111 93l149 162q-128 105 -221 132l49 139q135 -36 292 -143q64 73 126 151l23 28l108 -96l-148 -168q305 -278 305 -724z" />
    <glyph glyph-name="ntilde" unicode="&#xf1;" horiz-adv-x="1283" 
d="M606 1665q56 0 90 -15q34 -14 57 -36t43 -43t45 -36q24 -15 50 -15q53 0 87 32t66 73l73 -111q-27 -73 -99 -127t-136 -54q-64 1 -99 15q-37 14 -59 36l-42 42q-47 50 -106 52q-60 1 -143 -86l-62 104q33 67 105 118t130 51zM754 985q-58 -1 -140 -69t-144 -171
l-102 -745h-259l130 963l-102 59l17 89l308 52l50 -24l-18 -208q78 105 180 169t211 63q246 0 246 -302q0 -72 -24 -207q-24 -136 -46 -260q-21 -124 -23 -194t29 -69q31 0 89 46l29 -63q-19 -29 -67 -66q-92 -69 -195 -69q-167 0 -163 152q3 70 15 133q11 62 20 113t11 61
t10 54q8 42 10 58t10 56q46 288 -2 350q-22 29 -80 29z" />
    <glyph glyph-name="ograve" unicode="&#xf2;" horiz-adv-x="1170" 
d="M648 1246q-72 30 -207 139t-179 186l178 172l288 -432zM635 1033q-73 -1 -130 -57t-89 -146q-64 -181 -60 -392q8 -333 170 -333q81 1 137 57t87 147q61 180 57 396q-6 328 -172 328zM670 1163q200 0 308 -120t113 -340q4 -141 -38 -273t-119 -230q-77 -100 -192 -160
t-248 -60q-200 0 -307 119t-113 340q-3 141 39 273q43 132 119 231q76 100 190 160t248 60z" />
    <glyph glyph-name="oacute" unicode="&#xf3;" horiz-adv-x="1170" 
d="M635 1033q-73 -1 -130 -57t-89 -146q-64 -181 -60 -392q8 -333 170 -333q81 1 137 57t87 147q61 180 57 396q-6 328 -172 328zM670 1163q200 0 308 -120t113 -340q4 -141 -38 -273t-119 -230q-77 -100 -192 -160t-248 -60q-200 0 -307 119t-113 340q-3 141 39 273
q43 132 119 231q76 100 190 160t248 60zM643 1241l-78 71l317 431l167 -177q-19 -34 -93 -102t-166 -135q-92 -66 -147 -88z" />
    <glyph glyph-name="ocircumflex" unicode="&#xf4;" horiz-adv-x="1170" 
d="M635 1033q-73 -1 -130 -57t-89 -146q-64 -181 -60 -392q8 -333 170 -333q81 1 137 57t87 147q61 180 57 396q-6 328 -172 328zM670 1163q200 0 308 -120t113 -340q4 -141 -38 -273t-119 -230q-77 -100 -192 -160t-248 -60q-200 0 -307 119t-113 340q-3 141 39 273
q43 132 119 231q76 100 190 160t248 60zM392 1229l-82 57l347 374h178l200 -374l-99 -58l-216 234z" />
    <glyph glyph-name="otilde" unicode="&#xf5;" horiz-adv-x="1170" 
d="M551 1665q57 0 91 -15q34 -14 56 -36q24 -22 44 -43t44 -36t50 -15q53 0 87 32t66 73l73 -111q-26 -73 -98 -127t-136 -54q-64 1 -100 15t-58 36l-42 42q-47 50 -107 52q-60 1 -143 -86l-62 104q34 67 106 118t129 51zM635 1033q-73 -1 -130 -57t-89 -146
q-64 -181 -60 -392q8 -333 170 -333q81 1 137 57t87 147q61 180 57 396q-6 328 -172 328zM670 1163q200 0 308 -120t113 -340q4 -141 -38 -273t-119 -230q-77 -100 -192 -160t-248 -60q-200 0 -307 119t-113 340q-3 141 39 273q43 132 119 231q76 100 190 160t248 60z" />
    <glyph glyph-name="odieresis" unicode="&#xf6;" horiz-adv-x="1170" 
d="M635 1033q-73 -1 -130 -57t-89 -146q-64 -181 -60 -392q8 -333 170 -333q81 1 137 57t87 147q61 180 57 396q-6 328 -172 328zM670 1163q200 0 308 -120t113 -340q4 -141 -38 -273t-119 -230q-77 -100 -192 -160t-248 -60q-200 0 -307 119t-113 340q-3 141 39 273
q43 132 119 231q76 100 190 160t248 60zM473 1363q-64 0 -103 44q-39 43 -37 107q1 64 47 113t111 49t103 -41t36 -106t-48 -115t-109 -51zM909 1363q-64 0 -103 44q-39 43 -37 107q1 64 47 113t111 49t103 -41t36 -106t-48 -115t-109 -51z" />
    <glyph glyph-name="divide" unicode="&#xf7;" horiz-adv-x="1370" 
d="M696 517q68 1 102 -41t30 -112t-60 -116q-57 -47 -120 -47q-64 1 -102 41t-34 108t60 118q56 49 124 49zM259 685l18 177h904l-18 -177h-904zM753 1031q-63 1 -101 41t-36 108q4 68 60 118t124 49q67 1 102 -41q36 -42 32 -112t-61 -116q-57 -47 -120 -47z" />
    <glyph glyph-name="oslash" unicode="&#xf8;" horiz-adv-x="1170" 
d="M534 107q73 1 129 57t87 147q61 180 57 396q-2 77 -10 130l-402 -634q43 -96 139 -96zM638 1035q-76 -1 -133 -57t-89 -146q-78 -219 -54 -494l394 624q-42 73 -118 73zM663 1165q126 0 216 -45l129 183l89 -49l-135 -193q123 -120 129 -356q4 -141 -38 -273t-119 -230
q-77 -100 -192 -160q-114 -60 -248 -60t-226 54l-118 -168l-89 49l128 182q-109 120 -115 342q-3 141 39 273q43 132 119 231q76 100 190 160t241 60z" />
    <glyph glyph-name="ugrave" unicode="&#xf9;" horiz-adv-x="1242" 
d="M664 1246q-72 30 -207 139t-179 186l178 172l288 -432zM402 260q0 -127 119 -127t226 114l122 908h259l-126 -947q-10 -76 31 -76q30 0 99 57l29 -63q-19 -33 -69 -71q-97 -74 -188 -74q-90 -1 -128 41t-25 113q-143 -155 -341 -155q-116 0 -194 63t-79 202q-1 76 38 352
l53 365l-113 70l17 89l323 42l50 -24l-69 -550q-34 -247 -34 -329z" />
    <glyph glyph-name="uacute" unicode="&#xfa;" horiz-adv-x="1242" 
d="M402 260q0 -127 119 -127t226 114l122 908h259l-126 -947q-10 -76 31 -76q30 0 99 57l29 -63q-19 -33 -69 -71q-97 -74 -188 -74q-90 -1 -128 41t-25 113q-143 -155 -341 -155q-116 0 -194 63t-79 202q-1 76 38 352l53 365l-113 70l17 89l323 42l50 -24l-69 -550
q-34 -247 -34 -329zM659 1241l-78 71l317 431l167 -177q-19 -34 -93 -102t-166 -135q-92 -66 -147 -88z" />
    <glyph glyph-name="ucircumflex" unicode="&#xfb;" horiz-adv-x="1242" 
d="M402 260q0 -127 119 -127t226 114l122 908h259l-126 -947q-10 -76 31 -76q30 0 99 57l29 -63q-19 -33 -69 -71q-97 -74 -188 -74q-90 -1 -128 41t-25 113q-143 -155 -341 -155q-116 0 -194 63t-79 202q-1 76 38 352l53 365l-113 70l17 89l323 42l50 -24l-69 -550
q-34 -247 -34 -329zM408 1229l-82 57l347 374h178l200 -374l-99 -58l-216 234z" />
    <glyph glyph-name="udieresis" unicode="&#xfc;" horiz-adv-x="1242" 
d="M402 260q0 -127 119 -127t226 114l122 908h259l-126 -947q-10 -76 31 -76q30 0 99 57l29 -63q-19 -33 -69 -71q-97 -74 -188 -74q-90 -1 -128 41t-25 113q-143 -155 -341 -155q-116 0 -194 63t-79 202q-1 76 38 352l53 365l-113 70l17 89l323 42l50 -24l-69 -550
q-34 -247 -34 -329zM489 1363q-64 0 -103 44q-39 43 -37 107q1 64 47 113t111 49t103 -41t36 -106t-48 -115t-109 -51zM925 1363q-64 0 -103 44q-39 43 -37 107q1 64 47 113t111 49t103 -41t36 -106t-48 -115t-109 -51z" />
    <glyph glyph-name="yacute" unicode="&#xfd;" horiz-adv-x="1078" 
d="M575 1241l-78 71l317 431l167 -177q-19 -34 -93 -102t-166 -135q-92 -66 -147 -88zM147 -355q180 0 322 293h-128l-190 1007q-9 31 -17 43t-33 13q-25 0 -70 -38l-29 70q24 35 94 83t150 47q79 -1 116 -35t50 -106q14 -72 58 -392t51 -363l19 -216l110 220
q76 166 114 287t48 260q2 56 -16 120t-17 112q0 48 34 80q34 33 94 33q150 0 150 -193q-1 -192 -149 -502q-30 -62 -177 -353q-148 -291 -254 -428q-139 -199 -379 -199q-119 0 -221 36l49 187q106 -66 221 -66z" />
    <glyph glyph-name="thorn" unicode="&#xfe;" horiz-adv-x="1178" 
d="M466 110q68 0 122 26q53 26 91 72q81 97 116 235q36 138 36 273q-1 136 -41 212t-110 76q-126 0 -232 -139l-97 -733q47 -22 115 -22zM763 1163q169 0 255 -115t86 -331t-117 -415q-117 -200 -316 -279q-107 -43 -227 -43q-50 0 -113 12l-15 -133l-54 -379h-252l71 500
l193 1503l-99 43l25 85l296 39l53 -27l-78 -590q124 130 292 130z" />
    <glyph glyph-name="ydieresis" unicode="&#xff;" horiz-adv-x="1078" 
d="M405 1363q-64 0 -103 44q-39 43 -37 107q1 64 47 113t111 49t103 -41t36 -106t-48 -115t-109 -51zM841 1363q-64 0 -103 44q-39 43 -37 107q1 64 47 113t111 49t103 -41t36 -106t-48 -115t-109 -51zM147 -355q180 0 322 293h-128l-190 1007q-9 31 -17 43t-33 13
q-25 0 -70 -38l-29 70q24 35 94 83t150 47q79 -1 116 -35t50 -106q14 -72 58 -392t51 -363l19 -216l110 220q76 166 114 287t48 260q2 56 -16 120t-17 112q0 48 34 80q34 33 94 33q150 0 150 -193q-1 -192 -149 -502q-30 -62 -177 -353q-148 -291 -254 -428
q-139 -199 -379 -199q-119 0 -221 36l49 187q106 -66 221 -66z" />
    <glyph glyph-name="Amacron" unicode="&#x100;" horiz-adv-x="1359" 
d="M551 1718l2 179h540l-2 -179h-540zM410 562h450l-92 615l-10 153zM7 125l680 1405h273l250 -1402l158 -32l-6 -96h-589l6 96l146 29l-45 301h-531l-136 -300l168 -30l-7 -96h-515l9 96z" />
    <glyph glyph-name="amacron" unicode="&#x101;" horiz-adv-x="1194" 
d="M452 1415l2 179h540l-2 -179h-540zM502 138q110 0 208 113l102 765q-44 16 -110 16t-130 -39q-111 -69 -168 -231t-57 -317q-1 -155 41 -231t114 -76zM72 398q0 116 28 222t83 204q56 98 134 173q77 76 187 121t224 45t229 -39l135 39l-130 -956q-8 -76 35 -76
q32 0 90 46l30 -63q-20 -32 -67 -67q-89 -67 -173 -67q-166 0 -160 135l-2 3q-126 -138 -302 -138q-115 0 -193 58t-113 151q-35 94 -35 209z" />
    <glyph glyph-name="Abreve" unicode="&#x102;" horiz-adv-x="1359" 
d="M598 1730q-74 99 -74 223q0 23 3 44h144l2 -38q16 -146 156 -146q140 -1 181 137q6 20 11 47h142q6 -68 -24 -139q-30 -72 -71 -120q-91 -108 -244 -107q-152 0 -226 99zM410 562h450l-92 615l-10 153zM7 125l680 1405h273l250 -1402l158 -32l-6 -96h-589l6 96l146 29
l-45 301h-531l-136 -300l168 -30l-7 -96h-515l9 96z" />
    <glyph glyph-name="abreve" unicode="&#x103;" horiz-adv-x="1194" 
d="M598 1666q0 -184 158 -184q141 0 181 138q6 20 11 46h142q0 -146 -93 -256t-246 -110q-216 0 -283 207q-18 56 -18 97t3 62h145zM502 138q110 0 208 113l102 765q-44 16 -110 16t-130 -39q-111 -69 -168 -231t-57 -317q-1 -155 41 -231t114 -76zM72 398q0 116 28 222
t83 204q56 98 134 173q77 76 187 121t224 45t229 -39l135 39l-130 -956q-8 -76 35 -76q32 0 90 46l30 -63q-20 -32 -67 -67q-89 -67 -173 -67q-166 0 -160 135l-2 3q-126 -138 -302 -138q-115 0 -193 58t-113 151q-35 94 -35 209z" />
    <glyph glyph-name="Aogonek" unicode="&#x104;" horiz-adv-x="1342" 
d="M431 562h450l-92 615l-10 153zM936 -448q-85 0 -130 44t-43 112q3 104 113 202q52 47 135 90h-217l6 96l146 29l-45 301h-531l-136 -300l168 -30l-7 -96h-515l9 96l139 29l680 1405h273l250 -1402l158 -32l-6 -96h-206q-176 -130 -177 -209t58 -78q59 0 144 67l31 -104
q-128 -124 -297 -124z" />
    <glyph glyph-name="aogonek" unicode="&#x105;" horiz-adv-x="1194" 
d="M502 138q110 0 208 113l102 765q-44 16 -110 16t-130 -39q-111 -69 -168 -231t-57 -317q-1 -155 41 -231t114 -76zM72 398q0 116 28 222t83 204q56 98 134 173q77 76 187 121t224 45t229 -39l135 39l-130 -956q-8 -76 35 -76q32 0 90 46l30 -63q-33 -52 -111 -96
q-96 -70 -148 -124t-53 -100q-2 -81 60 -81q56 0 141 67l31 -104q-126 -124 -297 -124q-86 0 -130 44t-42 110t42 125q68 95 187 159q-84 28 -80 125l-2 3q-126 -138 -302 -138q-115 0 -193 58t-113 151q-35 94 -35 209z" />
    <glyph glyph-name="Cacute" unicode="&#x106;" horiz-adv-x="1281" 
d="M877 1592l-84 73l276 342l155 -161q-24 -49 -92 -104q-124 -102 -255 -150zM635 -16q-335 0 -477 278q-79 156 -81 366t59 382q62 172 170 290t258 183t323 65q172 0 280 -27q13 -3 45 -11t34 -9l36 -10l-65 -384h-185l-31 285q-69 32 -161 32t-175 -50
q-146 -88 -219 -297t-69 -395q5 -186 35 -301t100 -187t174 -71q173 0 242 89q25 29 74 199h161l-41 -308q-207 -119 -487 -119z" />
    <glyph glyph-name="cacute" unicode="&#x107;" horiz-adv-x="923" 
d="M702 1163q132 0 226 -43l-72 -253q-18 11 -64 51q-108 93 -160 93q-52 -1 -104 -41t-92 -110q-90 -155 -88 -400q2 -316 190 -316q79 0 137 30t127 91l51 -92q-47 -64 -120 -109q-135 -84 -298 -84q-165 0 -263 120t-100 335q-2 216 98 399q179 329 532 329zM632 1241
l-78 71l317 431l167 -177q-18 -34 -92 -102t-166 -135q-92 -66 -148 -88z" />
    <glyph glyph-name="Ccircumflex" unicode="&#x108;" horiz-adv-x="1281" 
d="M609 1607l-84 58l336 342h178l211 -342l-96 -59l-221 218zM635 -16q-335 0 -477 278q-79 156 -81 366t59 382q62 172 170 290t258 183t323 65q172 0 280 -27q13 -3 45 -11t34 -9l36 -10l-65 -384h-185l-31 285q-69 32 -161 32t-175 -50q-146 -88 -219 -297t-69 -395
q5 -186 35 -301t100 -187t174 -71q173 0 242 89q25 29 74 199h161l-41 -308q-207 -119 -487 -119z" />
    <glyph glyph-name="ccircumflex" unicode="&#x109;" horiz-adv-x="923" 
d="M702 1163q132 0 226 -43l-72 -253q-18 11 -64 51q-108 93 -160 93q-52 -1 -104 -41t-92 -110q-90 -155 -88 -400q2 -316 190 -316q79 0 137 30t127 91l51 -92q-47 -64 -120 -109q-135 -84 -298 -84q-165 0 -263 120t-100 335q-2 216 98 399q179 329 532 329zM381 1229
l-82 57l347 374h178l200 -374l-99 -58l-216 234z" />
    <glyph glyph-name="Cdotaccent" unicode="&#x10a;" horiz-adv-x="1281" 
d="M635 -16q-335 0 -477 278q-79 156 -81 366t59 382q62 172 170 290t258 183t323 65q172 0 280 -27q13 -3 45 -11t34 -9l36 -10l-65 -384h-185l-31 285q-69 32 -161 32t-175 -50q-146 -88 -219 -297t-69 -395q5 -186 35 -301t100 -187t174 -71q173 0 242 89q25 29 74 199
h161l-41 -308q-207 -119 -487 -119zM876 1652q-69 0 -113 44t-42 106q2 63 54 113q53 50 121 50q68 1 112 -41t41 -106q-2 -64 -53 -116q-51 -50 -120 -50z" />
    <glyph glyph-name="cdotaccent" unicode="&#x10b;" horiz-adv-x="923" 
d="M684 1363q-68 0 -110 44t-40 107q2 62 52 112t118 50t108 -41t39 -106q-2 -65 -50 -115q-49 -50 -117 -51zM702 1163q132 0 226 -43l-72 -253q-18 11 -64 51q-108 93 -160 93q-52 -1 -104 -41t-92 -110q-90 -155 -88 -400q2 -316 190 -316q79 0 137 30t127 91l51 -92
q-47 -64 -120 -109q-135 -84 -298 -84q-165 0 -263 120t-100 335q-2 216 98 399q179 329 532 329z" />
    <glyph glyph-name="Ccaron" unicode="&#x10c;" horiz-adv-x="1281" 
d="M772 1607l-216 342l95 58l224 -203l320 203l85 -57l-332 -343h-176zM635 -16q-335 0 -477 278q-79 156 -81 366t59 382q62 172 170 290t258 183t323 65q172 0 280 -27q13 -3 45 -11t34 -9l36 -10l-65 -384h-185l-31 285q-69 32 -161 32t-175 -50q-146 -88 -219 -297
t-69 -395q5 -186 35 -301t100 -187t174 -71q173 0 242 89q25 29 74 199h161l-41 -308q-207 -119 -487 -119z" />
    <glyph glyph-name="ccaron" unicode="&#x10d;" horiz-adv-x="923" 
d="M702 1163q132 0 226 -43l-72 -253q-18 11 -64 51q-108 93 -160 93q-52 -1 -104 -41t-92 -110q-90 -155 -88 -400q2 -316 190 -316q79 0 137 30t127 91l51 -92q-47 -64 -120 -109q-135 -84 -298 -84q-165 0 -263 120t-100 335q-2 216 98 399q179 329 532 329zM657 1433
l320 227l85 -57l-332 -356h-176l-217 355l96 58z" />
    <glyph glyph-name="Dcaron" unicode="&#x10e;" horiz-adv-x="1467" 
d="M761 1425q-111 0 -172 -23l-162 -1268q74 -26 193 -28q184 6 301 132q159 170 200 476q12 90 11 182q-2 285 -89 407t-282 122zM282 0h-295l11 96l153 30l165 1274l-138 25l11 105h307l311 16q327 0 470 -172t145 -452q4 -412 -209 -674q-103 -126 -265 -196t-364 -68
q-36 0 -119 8t-183 8zM751 1607l-216 342l95 58l224 -203l320 203l85 -57l-332 -343h-176z" />
    <glyph glyph-name="dcaron" unicode="&#x10f;" horiz-adv-x="1446" 
d="M1376 1010l-95 30l-6 25q37 122 45 284t-26 213l19 42l182 46q41 -46 33 -190t-50 -263t-102 -187zM493 138q68 0 128 42t103 101l109 725q-49 26 -125 26t-140 -40q-112 -70 -168 -235q-55 -165 -55 -318t40 -227t108 -74zM409 -20q-169 0 -253 118t-84 301
q0 184 73 357q73 172 224 289q151 118 365 118q50 0 120 -14l50 333l-140 43l20 83l348 42l55 -27l-205 -1415q-11 -77 28 -77q29 0 89 46l30 -62q-26 -34 -69 -68q-85 -67 -172 -67t-123 40t-35 124q-54 -70 -136 -117t-185 -47z" />
    <glyph glyph-name="Dcroat" unicode="&#x110;" horiz-adv-x="1467" 
d="M761 1427q-111 0 -172 -23l-70 -542h345l-21 -150h-343l-73 -576q74 -26 193 -28q184 6 301 132q159 170 200 476q12 90 11 182q-2 285 -89 407t-282 122zM282 2h-295l11 96l153 30l75 584h-142l21 150h141l70 540l-138 25l11 105h307l311 16q327 0 470 -172t145 -452
q4 -412 -209 -674q-103 -126 -265 -196t-364 -68q-36 0 -119 8t-183 8z" />
    <glyph glyph-name="dcroat" unicode="&#x111;" horiz-adv-x="1219" 
d="M495 138q68 0 128 42t103 101l109 725q-49 26 -125 26t-140 -40q-112 -70 -168 -235q-55 -165 -55 -318t40 -227t108 -74zM411 -20q-169 0 -253 118t-84 301q0 184 73 357q73 172 224 289q151 118 365 118q50 0 120 -14l17 113h-266l16 130h269l14 90l-140 43l20 83
l348 42l55 -27l-34 -231h130l-16 -130h-133l-152 -1054q-11 -77 28 -77q29 0 89 46l30 -62q-26 -34 -69 -68q-85 -67 -172 -67t-123 40t-35 124q-54 -70 -136 -117t-185 -47z" />
    <glyph glyph-name="Emacron" unicode="&#x112;" horiz-adv-x="1274" 
d="M-14 0l12 96l155 30l162 1274l-139 25l11 105h1023l-22 -340h-164l-41 206l-390 20l-72 -548l441 15l-18 -187l-439 21l-80 -591l510 30l118 252l158 -23l-79 -385h-1146zM523 1718l2 179h540l-2 -179h-540z" />
    <glyph glyph-name="emacron" unicode="&#x113;" horiz-adv-x="1050" 
d="M384 1415l2 179h540l-2 -179h-540zM737 891q-1 145 -111 145q-56 0 -108 -46t-84 -120q-59 -138 -74 -297q96 4 170 45q75 40 116 76q93 82 91 197zM683 1163q161 0 238 -69t79 -181q2 -154 -116 -259q-153 -138 -401 -182q-67 -12 -125 -14q-9 -188 82 -274
q48 -46 119 -45q175 0 319 151l55 -93q-49 -72 -163 -144q-115 -73 -277 -73q-220 0 -321 135q-100 135 -98 324q2 190 83 358t223 267t303 99z" />
    <glyph glyph-name="Ebreve" unicode="&#x114;" horiz-adv-x="1274" 
d="M-14 0l12 96l155 30l162 1274l-139 25l11 105h1023l-22 -340h-164l-41 206l-390 20l-72 -548l441 15l-18 -187l-439 21l-80 -591l510 30l118 252l158 -23l-79 -385h-1146zM570 1730q-74 99 -74 223q0 23 3 44h144l2 -38q16 -146 156 -146q140 -1 181 137q6 20 11 47h142
q6 -68 -24 -139q-30 -72 -71 -120q-91 -108 -244 -107q-152 0 -226 99z" />
    <glyph glyph-name="ebreve" unicode="&#x115;" horiz-adv-x="1050" 
d="M530 1666q0 -184 158 -184q141 0 181 138q6 20 11 46h142q0 -146 -93 -256t-246 -110q-216 0 -283 207q-18 56 -18 97t3 62h145zM737 891q-1 145 -111 145q-56 0 -108 -46t-84 -120q-59 -138 -74 -297q96 4 170 45q75 40 116 76q93 82 91 197zM683 1163q161 0 238 -69
t79 -181q2 -154 -116 -259q-153 -138 -401 -182q-67 -12 -125 -14q-9 -188 82 -274q48 -46 119 -45q175 0 319 151l55 -93q-49 -72 -163 -144q-115 -73 -277 -73q-220 0 -321 135q-100 135 -98 324q2 190 83 358t223 267t303 99z" />
    <glyph glyph-name="Edotaccent" unicode="&#x116;" horiz-adv-x="1274" 
d="M-14 0l12 96l155 30l162 1274l-139 25l11 105h1023l-22 -340h-164l-41 206l-390 20l-72 -548l441 15l-18 -187l-439 21l-80 -591l510 30l118 252l158 -23l-79 -385h-1146zM799 1652q-69 0 -113 44t-42 106q2 63 54 113t120 50q68 1 112 -41t42 -106t-53 -116
q-51 -50 -120 -50z" />
    <glyph glyph-name="edotaccent" unicode="&#x117;" horiz-adv-x="1050" 
d="M694 1363q-68 0 -111 44q-42 44 -40 107q2 62 52 112t118 50q69 0 109 -41t38 -106t-50 -115t-116 -51zM737 891q-1 145 -111 145q-56 0 -108 -46t-84 -120q-59 -138 -74 -297q96 4 170 45q75 40 116 76q93 82 91 197zM683 1163q161 0 238 -69t79 -181q2 -154 -116 -259
q-153 -138 -401 -182q-67 -12 -125 -14q-9 -188 82 -274q48 -46 119 -45q175 0 319 151l55 -93q-49 -72 -163 -144q-115 -73 -277 -73q-220 0 -321 135q-100 135 -98 324q2 190 83 358t223 267t303 99z" />
    <glyph glyph-name="Eogonek" unicode="&#x118;" horiz-adv-x="1274" 
d="M792 -448q-85 0 -130 44t-43 112q3 104 113 202q52 47 135 90h-881l12 96l155 30l162 1274l-139 25l11 105h1023l-22 -340h-164l-41 206l-390 20l-72 -548l441 15l-18 -187l-439 21l-80 -591l510 30l118 252l158 -23l-79 -385h-99q-176 -130 -177 -209t58 -78
q59 0 144 67l31 -104q-128 -124 -297 -124z" />
    <glyph glyph-name="eogonek" unicode="&#x119;" horiz-adv-x="1050" 
d="M737 891q-1 145 -111 145q-56 0 -108 -46t-84 -120q-59 -138 -74 -297q96 4 170 45q75 40 116 76q93 82 91 197zM660 -287q56 0 141 67l31 -104q-126 -124 -297 -124q-85 0 -129 44t-44 111q2 67 38 119q63 92 157 158q-42 -4 -64 -4q-220 0 -321 135q-100 135 -98 324
q2 190 83 358t223 267t303 99t238 -69t79 -181q2 -154 -116 -259q-153 -138 -401 -182q-67 -12 -125 -14q-9 -188 82 -274q48 -46 119 -45q175 0 319 151l55 -93q-29 -46 -77 -83l-22 -18q-84 -63 -158 -154q-75 -92 -76 -140q-2 -48 16 -68t44 -21z" />
    <glyph glyph-name="Ecaron" unicode="&#x11a;" horiz-adv-x="1274" 
d="M-14 0l12 96l155 30l162 1274l-139 25l11 105h1023l-22 -340h-164l-41 206l-390 20l-72 -548l441 15l-18 -187l-439 21l-80 -591l510 30l118 252l158 -23l-79 -385h-1146zM695 1607l-216 342l95 58l224 -203l320 203l85 -57l-332 -343h-176z" />
    <glyph glyph-name="ecaron" unicode="&#x11b;" horiz-adv-x="1050" 
d="M737 891q-1 145 -111 145q-56 0 -108 -46t-84 -120q-59 -138 -74 -297q96 4 170 45q75 40 116 76q93 82 91 197zM683 1163q161 0 238 -69t79 -181q2 -154 -116 -259q-153 -138 -401 -182q-67 -12 -125 -14q-9 -188 82 -274q48 -46 119 -45q175 0 319 151l55 -93
q-49 -72 -163 -144q-115 -73 -277 -73q-220 0 -321 135q-100 135 -98 324q2 190 83 358t223 267t303 99zM666 1433l320 227l85 -57l-332 -356h-176l-217 355l96 58z" />
    <glyph glyph-name="Gcircumflex" unicode="&#x11c;" horiz-adv-x="1396" 
d="M614 1607l-84 58l336 342h178l211 -342l-96 -59l-221 218zM604 -16q-96 0 -186 36q-167 67 -250 232t-87 406q-5 240 91 450t278 324q182 116 419 116q97 0 152 -6t81 -10q26 -2 59 -10t46 -11t44 -11t35 -10l50 -11l-62 -326h-187l-15 220q-80 51 -192 51t-188 -32
t-128 -90q-108 -118 -151 -292t-41 -319q1 -145 19 -239t54 -170t97 -120t140 -44q168 0 259 52l53 420l-218 17l16 131h496l-85 -649q-65 -5 -155 -31t-130 -36t-130 -24q-88 -14 -184 -14z" />
    <glyph glyph-name="gcircumflex" unicode="&#x11d;" horiz-adv-x="1186" 
d="M495 138q122 0 225 127l109 745q-48 22 -121 22t-136 -40q-110 -69 -168 -233q-57 -164 -57 -318q0 -155 41 -229t107 -74zM425 -350q67 0 104 8t66 30q51 39 68 167l34 243q-124 -118 -284 -118q-115 0 -193 58q-148 109 -148 350q0 242 117 445t315 285q110 45 228 45
t239 -44l141 44l-180 -1240q-36 -269 -288 -378q-133 -58 -290 -58q-66 1 -138 13t-105 27l50 200q41 -25 119 -51t145 -26zM470 1229l-82 57l347 374h178l200 -374l-99 -58l-216 234z" />
    <glyph glyph-name="Gbreve" unicode="&#x11e;" horiz-adv-x="1396" 
d="M604 -16q-96 0 -186 36q-167 67 -250 232t-87 406q-5 240 91 450t278 324q182 116 419 116q97 0 152 -6t81 -10q26 -2 59 -10t46 -11t44 -11t35 -10l50 -11l-62 -326h-187l-15 220q-80 51 -192 51t-188 -32t-128 -90q-108 -118 -151 -292t-41 -319q1 -145 19 -239
t54 -170t97 -120t140 -44q168 0 259 52l53 420l-218 17l16 131h496l-85 -649q-65 -5 -155 -31t-130 -36t-130 -24q-88 -14 -184 -14zM652 1730q-74 99 -74 223q0 23 3 44h144l2 -38q16 -146 156 -146q140 -1 181 137q6 20 11 47h142q6 -68 -24 -139q-30 -72 -71 -120
q-91 -108 -244 -107q-152 0 -226 99z" />
    <glyph glyph-name="gbreve" unicode="&#x11f;" horiz-adv-x="1186" 
d="M610 1666q0 -184 158 -184q141 0 181 138q6 20 11 46h142q0 -146 -93 -256t-246 -110q-216 0 -283 207q-18 56 -18 97t3 62h145zM495 138q122 0 225 127l109 745q-48 22 -121 22t-136 -40q-110 -69 -168 -233q-57 -164 -57 -318q0 -155 41 -229t107 -74zM425 -350
q67 0 104 8t66 30q51 39 68 167l34 243q-124 -118 -284 -118q-115 0 -193 58q-148 109 -148 350q0 242 117 445t315 285q110 45 228 45t239 -44l141 44l-180 -1240q-36 -269 -288 -378q-133 -58 -290 -58q-66 1 -138 13t-105 27l50 200q41 -25 119 -51t145 -26z" />
    <glyph glyph-name="Gdotaccent" unicode="&#x120;" horiz-adv-x="1396" 
d="M604 -16q-96 0 -186 36q-167 67 -250 232t-87 406q-5 240 91 450t278 324q182 116 419 116q97 0 152 -6t81 -10q26 -2 59 -10t46 -11t44 -11t35 -10l50 -11l-62 -326h-187l-15 220q-80 51 -192 51t-188 -32t-128 -90q-108 -118 -151 -292t-41 -319q1 -145 19 -239
t54 -170t97 -120t140 -44q168 0 259 52l53 420l-218 17l16 131h496l-85 -649q-65 -5 -155 -31t-130 -36t-130 -24q-88 -14 -184 -14zM881 1652q-69 0 -113 44t-42 106q2 63 54 113t120 50q68 1 112 -41t42 -106t-53 -116q-51 -50 -120 -50z" />
    <glyph glyph-name="gdotaccent" unicode="&#x121;" horiz-adv-x="1186" 
d="M774 1363q-68 0 -111 44q-42 44 -40 107q2 62 52 112t118 50q69 0 109 -41t38 -106t-50 -115t-116 -51zM495 138q122 0 225 127l109 745q-48 22 -121 22t-136 -40q-110 -69 -168 -233q-57 -164 -57 -318q0 -155 41 -229t107 -74zM425 -350q67 0 104 8t66 30q51 39 68 167
l34 243q-124 -118 -284 -118q-115 0 -193 58q-148 109 -148 350q0 242 117 445t315 285q110 45 228 45t239 -44l141 44l-180 -1240q-36 -269 -288 -378q-133 -58 -290 -58q-66 1 -138 13t-105 27l50 200q41 -25 119 -51t145 -26z" />
    <glyph glyph-name="Gcommaaccent" unicode="&#x122;" horiz-adv-x="1396" 
d="M604 -16q-96 0 -186 36q-167 67 -250 232t-87 406q-5 240 91 450t278 324q182 116 419 116q97 0 152 -6t81 -10q26 -2 59 -10t46 -11t44 -11t35 -10l50 -11l-62 -326h-187l-15 220q-80 51 -192 51t-188 -32t-128 -90q-108 -118 -151 -292t-41 -319q1 -145 19 -239
t54 -170t97 -120t140 -44q168 0 259 52l53 420l-218 17l16 131h496l-85 -649q-65 -5 -155 -31t-130 -36t-130 -24q-88 -14 -184 -14zM541 -156l139 112q67 -14 108 -77t36 -158t-78 -181t-150 -100l-70 55l3 26q69 49 73 140q2 37 -18 71t-51 38z" />
    <glyph glyph-name="gcommaaccent" unicode="&#x123;" horiz-adv-x="1187" 
d="M496 138q122 0 225 127l109 745q-48 22 -121 22t-136 -40q-110 -69 -168 -233q-57 -164 -57 -318q0 -155 41 -229t107 -74zM426 -350q67 0 104 8t66 30q51 39 68 167l34 243q-124 -118 -284 -118q-115 0 -193 58q-148 109 -148 350q0 242 117 445q118 203 316 285
q110 45 226 45q118 0 240 -44l141 44l-180 -1240q-35 -269 -287 -378q-133 -58 -291 -58q-67 1 -139 13t-104 27l50 200q41 -25 119 -51t145 -26zM721 1274q-67 14 -108 76t-36 158t78 181t150 101l70 -55l-3 -26q-68 -49 -73 -140q-2 -37 19 -71t51 -39l-9 -73z" />
    <glyph glyph-name="Hcircumflex" unicode="&#x124;" horiz-adv-x="1593" 
d="M675 1607l-84 58l336 342h178l211 -342l-96 -59l-221 218zM5 0l10 96l143 30l163 1274l-139 25l13 105h579l-11 -105l-167 -25l-71 -551h603l71 551l-163 25l11 105h585l-12 -105l-146 -25l-163 -1273l154 -31l-10 -96h-607l11 97l177 30l74 582h-603l-74 -583l165 -29
l-8 -97h-585z" />
    <glyph glyph-name="hcircumflex" unicode="&#x125;" horiz-adv-x="1271" 
d="M874 1163q246 0 246 -302q0 -77 -26 -223t-36 -208t-21 -118q-10 -56 -11 -119q-2 -62 30 -62t99 51l29 -63q-22 -34 -71 -69q-97 -71 -195 -71t-134 39q-54 58 -13 286q4 22 13 73t12 66q52 277 51 380t-25 133t-82 29q-58 1 -140 -71q-84 -72 -146 -178l-94 -736h-264
l186 1482l-122 43l16 83l338 42l53 -27l-5 -39l215 219h178l211 -342l-96 -59l-221 218l-309 -207l-63 -497q76 112 179 180t218 67z" />
    <glyph glyph-name="Hbar" unicode="&#x126;" horiz-adv-x="1593" 
d="M507 758h603l28 225h-603zM-1 0l11 96l143 30l107 857h-184l14 140h188l35 277l-139 25l13 105h579l-11 -105l-167 -25l-35 -277h603l35 277l-163 25l11 105h585l-12 -105l-146 -25l-35 -277h191l-14 -140h-195l-107 -856l154 -31l-10 -96h-607l11 97l177 30l61 486h-603
l-61 -487l165 -29l-8 -97h-586z" />
    <glyph glyph-name="hbar" unicode="&#x127;" horiz-adv-x="1270" 
d="M873 1163q246 0 246 -302q0 -77 -26 -223q-27 -146 -37 -208t-20 -118t-11 -119q-1 -62 31 -62t98 51l29 -63q-22 -34 -71 -69q-97 -71 -195 -71q-99 0 -135 39q-54 58 -12 286q4 22 13 73t12 66q52 277 51 380t-25 133q-23 30 -81 29q-58 1 -142 -71t-145 -178l-94 -736
h-264l158 1262h-144l16 130h144l12 90l-122 43l16 83l338 42l53 -27l-30 -231h221l-16 -130h-221l-44 -346q76 112 179 180t218 67z" />
    <glyph glyph-name="Itilde" unicode="&#x128;" horiz-adv-x="745" 
d="M436 1970q56 0 90 -15t57 -36t43 -43t45 -36q24 -15 50 -15q53 0 87 32t66 73l73 -111q-27 -73 -99 -127t-136 -54t-99 14q-37 14 -59 36t-42 43q-47 50 -106 52q-60 1 -143 -86l-62 104q33 67 105 118t130 51zM6 0l11 96l149 30l163 1274l-140 25l12 105h577l-11 -105
l-163 -25l-163 -1274l166 -29l-7 -97h-594z" />
    <glyph glyph-name="itilde" unicode="&#x129;" horiz-adv-x="655" 
d="M299 1665q57 0 91 -15q34 -14 56 -36q24 -22 44 -43t44 -36t50 -15q53 0 87 32t66 73l73 -111q-26 -73 -98 -127t-136 -54q-64 1 -100 15t-58 36l-42 42q-47 50 -107 52q-60 1 -143 -86l-62 104q34 67 106 118t129 51zM438 131q33 0 99 57l30 -63q-23 -33 -72 -72
q-94 -73 -188 -73q-186 0 -171 141q11 99 55 408t64 451l-156 51l18 81l374 51l52 -24l-134 -932q-11 -76 29 -76z" />
    <glyph glyph-name="Imacron" unicode="&#x12a;" horiz-adv-x="745" 
d="M255 1718l2 179h540l-2 -179h-540zM6 0l11 96l149 30l163 1274l-140 25l12 105h577l-11 -105l-163 -25l-163 -1274l166 -29l-7 -97h-594z" />
    <glyph glyph-name="imacron" unicode="&#x12b;" horiz-adv-x="655" 
d="M134 1415l2 179h540l-2 -179h-540zM438 131q33 0 99 57l30 -63q-23 -33 -72 -72q-94 -73 -188 -73q-186 0 -171 141q11 99 55 408t64 451l-156 51l18 81l374 51l52 -24l-134 -932q-11 -76 29 -76z" />
    <glyph glyph-name="Ibreve" unicode="&#x12c;" horiz-adv-x="745" 
d="M302 1730q-74 99 -74 223q0 23 3 44h144l2 -38q16 -146 156 -146q140 -1 181 137q6 20 11 47h142q6 -68 -24 -139q-30 -72 -71 -120q-91 -108 -244 -107q-152 0 -226 99zM6 0l11 96l149 30l163 1274l-140 25l12 105h577l-11 -105l-163 -25l-163 -1274l166 -29l-7 -97
h-594z" />
    <glyph glyph-name="ibreve" unicode="&#x12d;" horiz-adv-x="655" 
d="M280 1666q0 -184 158 -184q141 0 181 138q6 20 11 46h142q0 -146 -93 -256t-246 -110q-216 0 -283 207q-18 56 -18 97t3 62h145zM438 131q33 0 99 57l30 -63q-23 -33 -72 -72q-94 -73 -188 -73q-186 0 -171 141q11 99 55 408t64 451l-156 51l18 81l374 51l52 -24
l-134 -932q-11 -76 29 -76z" />
    <glyph glyph-name="Iogonek" unicode="&#x12e;" horiz-adv-x="706" 
d="M124 -448q-85 0 -130 44t-43 112q3 104 113 202q56 50 136 90h-221l11 96l149 30l163 1274l-140 25l12 105h577l-11 -105l-163 -25l-163 -1274l166 -29l-7 -97h-208q-175 -131 -176 -209t60 -78q56 0 141 67l31 -104q-126 -124 -297 -124z" />
    <glyph glyph-name="iogonek" unicode="&#x12f;" horiz-adv-x="654" 
d="M438 131q33 0 99 57l30 -63q-44 -61 -118 -103q-205 -145 -207 -227t58 -82q59 0 144 67l31 -104q-128 -124 -297 -124q-85 0 -130 44t-43 112t43 123q66 93 182 157q-106 25 -94 129t55 412q44 309 64 451l-156 51l18 81l374 51l52 -24l-134 -932q-11 -76 29 -76z
M438 1363q-68 0 -111 44q-42 44 -40 107q2 62 52 112t118 50q69 0 109 -41t38 -106t-50 -115t-116 -51z" />
    <glyph glyph-name="Idotaccent" unicode="&#x130;" horiz-adv-x="745" 
d="M531 1652q-69 0 -113 44t-42 106q2 63 54 113t120 50q68 1 112 -41t42 -106t-53 -116q-51 -50 -120 -50zM6 0l11 96l149 30l163 1274l-140 25l12 105h577l-11 -105l-163 -25l-163 -1274l166 -29l-7 -97h-594z" />
    <glyph glyph-name="dotlessi" unicode="&#x131;" horiz-adv-x="655" 
d="M438 131q33 0 99 57l30 -63q-23 -33 -72 -72q-94 -73 -188 -73q-186 0 -171 141q11 99 55 408t64 451l-156 51l18 81l374 51l52 -24l-134 -932q-11 -76 29 -76z" />
    <glyph glyph-name="IJ" unicode="&#x132;" horiz-adv-x="1484" 
d="M795 -112q88 92 113 214q26 122 52 303q26 182 41 311q15 128 40 360t36 324l-147 25l14 105h575l-11 -105l-161 -24q-8 -67 -31 -268q-111 -971 -146 -1076q-34 -104 -125 -195q-167 -167 -435 -207l-44 98q141 43 229 135zM6 0l11 96l149 30l163 1274l-140 25l12 105
h577l-11 -105l-163 -25l-163 -1274l166 -29l-7 -97h-594z" />
    <glyph glyph-name="ij" unicode="&#x133;" horiz-adv-x="1303" 
d="M1096 1363q-68 0 -111 44q-42 44 -40 107q2 62 52 112t118 50q69 0 109 -41t38 -106t-50 -115t-116 -51zM446 1363q-68 0 -110 44t-40 107q2 62 52 112t118 50t108 -41t39 -106q-2 -65 -50 -115q-49 -50 -117 -51zM438 131q33 0 99 57l30 -63q-23 -33 -72 -72
q-94 -73 -188 -73q-186 0 -171 141q11 99 55 408t64 451l-156 51l18 81l374 51l52 -24l-134 -932q-11 -76 29 -76zM579 -523q-119 0 -156 37l37 101q31 -12 86 -12t105 37q117 87 154 425l101 915l-161 51l20 81l381 51l50 -24l-134 -1139q-30 -250 -164 -386t-319 -137z
" />
    <glyph glyph-name="Jcircumflex" unicode="&#x134;" horiz-adv-x="740" 
d="M251 1607l-84 58l336 342h178l211 -342l-96 -59l-221 218zM51 -112q88 92 113 214q26 122 52 303q26 182 41 311q15 128 40 360t36 324l-147 25l14 105h575l-11 -105l-161 -24q-8 -67 -23 -200q-120 -1041 -154 -1145t-125 -194q-167 -167 -435 -207l-44 98
q141 43 229 135z" />
    <glyph glyph-name="jcircumflex" unicode="&#x135;" horiz-adv-x="650" 
d="M86 1229l-82 57l347 374h178l200 -374l-99 -58l-216 234zM-74 -523q-119 0 -156 37l37 101q31 -12 86 -12t105 37q117 87 154 425l101 915l-161 51l20 81l381 51l50 -24l-134 -1139q-29 -250 -163 -386t-320 -137z" />
    <glyph glyph-name="Kcommaaccent" unicode="&#x136;" horiz-adv-x="1414" 
d="M-6 0l12 96l147 30l163 1274l-139 25l13 105h579l-12 -105l-166 -25l-89 -695l617 695l-131 25l11 105h467l-11 -105l-120 -24l-505 -531q76 -118 198 -348t166 -297q42 -68 73 -86l129 -39l-13 -100h-353q-39 5 -80 79q-20 36 -124 264t-166 348l-185 -194l-47 -371
l165 -29l-8 -97h-591zM573 -154l139 112q67 -14 108 -77t36 -158t-78 -181t-150 -100l-70 55l3 26q69 49 73 140q2 37 -18 71t-51 38z" />
    <glyph glyph-name="kcommaaccent" unicode="&#x137;" horiz-adv-x="1119" 
d="M1006 152q54 0 114 52l34 -66q-38 -54 -122 -106t-178 -52q-124 0 -176 115l-236 515l3 1h-3q13 9 48 32t49 33q13 10 43 30q98 70 180 179q45 61 52 157q5 62 50 92q44 30 98 29t86 -33t34 -90t-50 -130q-97 -136 -363 -271l226 -394q25 -41 56 -67t55 -26zM89 0
l194 1482l-122 43l16 83l338 42l53 -27l-215 -1623h-264zM410 -156l139 112q67 -14 108 -77t36 -158t-78 -181t-150 -100l-70 55l3 26q69 49 73 140q1 37 -19 71t-50 38z" />
    <glyph glyph-name="kgreenlandic" unicode="&#x138;" horiz-adv-x="1145" 
d="M1003 144q30 0 88 33l32 -59q-36 -46 -115 -92t-154 -45q-75 0 -116 28t-66 86l-217 501l435 546h251l-455 -519l205 -383q52 -96 112 -96zM110 0l129 972l-112 52l19 86l316 47l52 -25l-146 -1132h-258z" />
    <glyph glyph-name="Lacute" unicode="&#x139;" horiz-adv-x="1220" 
d="M0 0l10 97l143 29l163 1274l-140 25l13 105h598l-11 -105l-185 -25l-164 -1277l409 15l163 389l149 -23l-90 -504h-1058zM546 1594l-84 73l276 342l155 -161q-23 -49 -91 -104q-124 -102 -256 -150z" />
    <glyph glyph-name="lacute" unicode="&#x13a;" horiz-adv-x="620" 
d="M447 1592l-84 73l276 342l155 -161q-24 -49 -92 -104q-124 -102 -255 -150zM405 131q26 0 80 36l29 -62q-19 -28 -63 -61q-85 -64 -169 -64q-175 0 -173 135q0 21 7 77l168 1167l-127 43l20 83l334 42l50 -27l-184 -1293q-8 -76 28 -76z" />
    <glyph glyph-name="Lcommaaccent" unicode="&#x13b;" horiz-adv-x="1220" 
d="M0 0l10 97l143 29l163 1274l-140 25l13 105h598l-11 -105l-185 -25l-164 -1277l409 15l163 389l149 -23l-90 -504h-1058zM438 -154l139 112q67 -14 108 -77t36 -158t-78 -181t-150 -100l-70 55l3 26q69 49 73 140q1 37 -19 71t-50 38z" />
    <glyph glyph-name="lcommaaccent" unicode="&#x13c;" horiz-adv-x="621" 
d="M409 131q33 0 100 56l29 -62q-23 -34 -69 -72q-91 -73 -191 -73q-163 0 -165 135q0 30 7 77l177 1290l-127 43l20 83l334 42l50 -27l-193 -1416q-11 -76 28 -76zM69 -156l139 112q67 -14 108 -77t36 -158t-78 -181t-150 -100l-70 55l3 26q69 49 73 140q2 37 -18 71
t-51 38z" />
    <glyph glyph-name="Lcaron" unicode="&#x13d;" horiz-adv-x="1220" 
d="M1022 1010l-95 30l-6 25q37 122 45 284t-26 213l19 42l182 46q41 -46 33 -190t-50 -263t-102 -187zM0 0l10 97l143 29l163 1274l-140 25l13 105h598l-11 -105l-185 -25l-164 -1277l409 15l163 389l149 -23l-90 -504h-1058z" />
    <glyph glyph-name="lcaron" unicode="&#x13e;" horiz-adv-x="757" 
d="M778 1010l-95 30l-6 25q37 122 45 284t-26 213l19 42l182 46q41 -46 33 -190t-50 -263t-102 -187zM409 133q33 0 100 56l29 -62q-23 -34 -69 -72q-91 -73 -191 -73q-163 0 -165 135q0 30 7 77l177 1290l-127 43l20 83l334 42l50 -27l-193 -1416q-11 -76 28 -76z" />
    <glyph glyph-name="Ldot" unicode="&#x13f;" horiz-adv-x="1220" 
d="M1031 1069q67 0 101 -41q34 -42 30 -112t-58 -117q-56 -47 -119 -47t-99 40t-32 109t57 119t120 49zM0 0l10 97l143 29l163 1274l-140 25l13 105h598l-11 -105l-185 -25l-164 -1277l409 15l163 389l149 -23l-90 -504h-1058z" />
    <glyph glyph-name="ldot" unicode="&#x140;" horiz-adv-x="810" 
d="M753 942q67 0 101 -41t30 -111t-58 -118q-56 -47 -119 -47t-99 40t-32 109q4 68 57 118t120 50zM409 131q33 0 100 56l29 -62q-23 -34 -69 -72q-91 -73 -191 -73q-163 0 -165 135q0 30 7 77l177 1290l-127 43l20 83l334 42l50 -27l-193 -1416q-11 -76 28 -76z" />
    <glyph glyph-name="Lslash" unicode="&#x141;" horiz-adv-x="1220" 
d="M1 2l10 97l143 29l53 417l-153 -62l-36 118l207 87l92 714l-140 25l13 105h598l-11 -105l-185 -25l-77 -593l354 148l35 -127l-407 -166l-69 -539l409 15l163 389l149 -23l-90 -504h-1058z" />
    <glyph glyph-name="lslash" unicode="&#x142;" horiz-adv-x="620" 
d="M409 131q33 0 100 56l29 -62q-23 -34 -69 -72q-91 -73 -191 -73q-163 0 -165 135q0 30 7 77l76 555l-140 -55v137l160 65l81 588l-127 43l20 83l334 42l50 -27l-84 -617l159 65v-147l-180 -71l-88 -646q-11 -76 28 -76z" />
    <glyph glyph-name="Nacute" unicode="&#x143;" horiz-adv-x="1531" 
d="M1 0l8 96l142 29l178 1275l-158 25l16 105h448l424 -1053l69 -212l136 1136l-156 24l12 105h476l-10 -105l-135 -25l-207 -1400h-273l-435 1062l-67 218l-123 -1154l172 -29l-9 -97h-508zM929 1592l-84 73l276 342l155 -161q-24 -49 -92 -104q-124 -102 -255 -150z" />
    <glyph glyph-name="nacute" unicode="&#x144;" horiz-adv-x="1283" 
d="M754 985q-58 -1 -140 -69t-144 -171l-102 -745h-259l130 963l-102 59l17 89l308 52l50 -24l-18 -208q78 105 180 169t211 63q246 0 246 -302q0 -72 -24 -207q-24 -136 -46 -260q-21 -124 -23 -194t29 -69q31 0 89 46l29 -63q-19 -29 -67 -66q-92 -69 -195 -69
q-167 0 -163 152q3 70 15 133q11 62 20 113t11 61t10 54q8 42 10 58t10 56q46 288 -2 350q-22 29 -80 29zM698 1241l-78 71l317 431l167 -177q-18 -34 -92 -102t-166 -135q-92 -66 -148 -88z" />
    <glyph glyph-name="Ncommaaccent" unicode="&#x145;" horiz-adv-x="1531" 
d="M1 0l8 96l142 29l178 1275l-158 25l16 105h448l424 -1053l69 -212l136 1136l-156 24l12 105h476l-10 -105l-135 -25l-207 -1400h-273l-435 1062l-67 218l-123 -1154l172 -29l-9 -97h-508zM555 -156l139 112q67 -14 108 -77t36 -158t-78 -181t-150 -100l-70 55l3 26
q69 49 73 140q2 37 -18 71t-51 38z" />
    <glyph glyph-name="ncommaaccent" unicode="&#x146;" horiz-adv-x="1283" 
d="M754 985q-58 -1 -140 -69t-144 -171l-102 -745h-259l130 963l-102 59l17 89l308 52l50 -24l-18 -208q78 105 180 169t211 63q246 0 246 -302q0 -72 -24 -207q-24 -136 -46 -260q-21 -124 -23 -194t29 -69q31 0 89 46l29 -63q-19 -29 -67 -66q-92 -69 -195 -69
q-167 0 -163 152q3 70 15 133q11 62 20 113t11 61t10 54q8 42 10 58t10 56q46 288 -2 350q-22 29 -80 29zM413 -156l139 112q67 -14 108 -77t36 -158t-78 -181t-150 -100l-70 55l3 26q69 49 73 140q2 37 -18 71t-51 38z" />
    <glyph glyph-name="Ncaron" unicode="&#x147;" horiz-adv-x="1531" 
d="M1 0l8 96l142 29l178 1275l-158 25l16 105h448l424 -1053l69 -212l136 1136l-156 24l12 105h476l-10 -105l-135 -25l-207 -1400h-273l-435 1062l-67 218l-123 -1154l172 -29l-9 -97h-508zM824 1607l-216 342l95 58l224 -203l320 203l85 -57l-332 -343h-176z" />
    <glyph glyph-name="ncaron" unicode="&#x148;" horiz-adv-x="1283" 
d="M754 985q-58 -1 -140 -69t-144 -171l-102 -745h-259l130 963l-102 59l17 89l308 52l50 -24l-18 -208q78 105 180 169t211 63q246 0 246 -302q0 -72 -24 -207q-24 -136 -46 -260q-21 -124 -23 -194t29 -69q31 0 89 46l29 -63q-19 -29 -67 -66q-92 -69 -195 -69
q-167 0 -163 152q3 70 15 133q11 62 20 113t11 61t10 54q8 42 10 58t10 56q46 288 -2 350q-22 29 -80 29zM723 1433l320 227l85 -57l-332 -356h-176l-217 355l96 58z" />
    <glyph glyph-name="Eng" unicode="&#x14a;" horiz-adv-x="1531" 
d="M0 0l8 96l143 29l177 1275l-161 25l17 105h449l433 -1011l66 -221l129 1103l-156 24l12 105h474l-10 -105l-135 -25l-202 -1400q-26 -174 -166 -289t-331 -136l-42 103q113 31 205 118t96 204l-472 1062l-68 218l-120 -1154l172 -29l-10 -97h-508z" />
    <glyph glyph-name="eng" unicode="&#x14b;" horiz-adv-x="1276" 
d="M885 1162q264 0 246 -301q-34 -505 -98 -827t-177 -439q-113 -118 -314 -118q-121 0 -155 37l36 101q27 -12 75 -12t89 22q77 41 116 144q40 102 62 244q60 383 93 825q4 83 -20 115t-82 32t-140 -66t-146 -174l-102 -745h-259l129 954l-103 60l17 89l308 52l50 -24
l-16 -200q76 103 176 167t215 64z" />
    <glyph glyph-name="Omacron" unicode="&#x14c;" horiz-adv-x="1443" 
d="M814 1426q-136 0 -236 -104t-154 -275q-72 -237 -40 -549q41 -396 284 -397q132 1 230 103t148 276t49 418q-2 244 -74 386q-71 142 -207 142zM818 1550q292 0 429 -190t139 -478t-125 -526q-202 -376 -639 -376q-160 0 -286 82q-250 162 -255 567q-2 187 50 354
q51 167 147 293t240 200t300 74zM586 1718l2 179h540l-2 -179h-540z" />
    <glyph glyph-name="omacron" unicode="&#x14d;" horiz-adv-x="1170" 
d="M635 1033q-73 -1 -130 -57t-89 -146q-64 -181 -60 -392q8 -333 170 -333q81 1 137 57t87 147q61 180 57 396q-6 328 -172 328zM670 1163q200 0 308 -120t113 -340q4 -141 -38 -273t-119 -230q-77 -100 -192 -160t-248 -60q-200 0 -307 119t-113 340q-3 141 39 273
q43 132 119 231q76 100 190 160t248 60zM386 1415l2 179h540l-2 -179h-540z" />
    <glyph glyph-name="Obreve" unicode="&#x14e;" horiz-adv-x="1443" 
d="M814 1426q-136 0 -236 -104t-154 -275q-72 -237 -40 -549q41 -396 284 -397q132 1 230 103t148 276t49 418q-2 244 -74 386q-71 142 -207 142zM818 1550q292 0 429 -190t139 -478t-125 -526q-202 -376 -639 -376q-160 0 -286 82q-250 162 -255 567q-2 187 50 354
q51 167 147 293t240 200t300 74zM633 1730q-74 99 -74 223q0 23 3 44h144l2 -38q16 -146 156 -146q140 -1 181 137q6 20 11 47h142q6 -68 -24 -139q-30 -72 -71 -120q-91 -108 -244 -107q-152 0 -226 99z" />
    <glyph glyph-name="obreve" unicode="&#x14f;" horiz-adv-x="1170" 
d="M532 1666q0 -184 158 -184q141 0 181 138q6 20 11 46h142q0 -146 -93 -256t-246 -110q-216 0 -283 207q-18 56 -18 97t3 62h145zM635 1033q-73 -1 -130 -57t-89 -146q-64 -181 -60 -392q8 -333 170 -333q81 1 137 57t87 147q61 180 57 396q-6 328 -172 328zM670 1163
q200 0 308 -120t113 -340q4 -141 -38 -273t-119 -230q-77 -100 -192 -160t-248 -60q-200 0 -307 119t-113 340q-3 141 39 273q43 132 119 231q76 100 190 160t248 60z" />
    <glyph glyph-name="Ohungarumlaut" unicode="&#x150;" horiz-adv-x="1443" 
d="M600 1575l-79 60l297 372l148 -125q-36 -82 -156 -180t-210 -127zM1050 1575l-76 60l297 372l147 -126q-52 -89 -164 -183t-204 -123zM814 1426q-136 0 -236 -104t-154 -275q-72 -237 -40 -549q41 -396 284 -397q132 1 230 103t148 276t49 418q-2 244 -74 386
q-71 142 -207 142zM818 1550q292 0 429 -190t139 -478t-125 -526q-202 -376 -639 -376q-160 0 -286 82q-250 162 -255 567q-2 187 50 354q51 167 147 293t240 200t300 74z" />
    <glyph glyph-name="ohungarumlaut" unicode="&#x151;" horiz-adv-x="1170" 
d="M635 1033q-73 -1 -130 -57t-89 -146q-64 -181 -60 -392q8 -333 170 -333q81 1 137 57t87 147q61 180 57 396q-6 328 -172 328zM670 1163q200 0 308 -120t113 -340q4 -141 -38 -273t-119 -230q-77 -100 -192 -160t-248 -60q-200 0 -307 119t-113 340q-3 141 39 273
q43 132 119 231q76 100 190 160t248 60zM424 1242l-83 54l249 431l158 -117q-22 -84 -132 -206t-192 -162zM879 1242l-84 54l256 431l155 -116q-20 -79 -134 -209t-193 -160z" />
    <glyph glyph-name="OE" unicode="&#x152;" horiz-adv-x="2278" 
d="M660 101q131 1 230 103t150 276t49 393q-5 551 -289 551q-95 0 -178 -61q-82 -61 -138 -163q-120 -221 -118 -520q6 -424 152 -534q58 -44 142 -45zM632 -20q-265 0 -408 176t-145 479q-2 304 131 540q133 237 360 327q121 48 260 47q311 0 426 -279l33 260h872l-21 -340
h-159l-41 206l-395 20l-70 -548l441 15l-18 -187l-439 21l-80 -591l518 30l118 252l158 -23l-79 -385h-996l26 212q-183 -232 -492 -232z" />
    <glyph glyph-name="oe" unicode="&#x153;" horiz-adv-x="1761" 
d="M536 105q92 1 157 93q64 92 92 243q3 93 20 170q19 422 -171 422q-60 1 -108 -37q-87 -67 -130 -229q-44 -161 -40 -328t46 -251t134 -83zM1448 891q-2 145 -111 145q-56 0 -108 -46t-83 -120q-62 -146 -74 -297q117 6 241 86q59 37 97 99t38 133zM673 1163
q235 0 336 -169q171 169 396 169q151 0 227 -69q76 -70 78 -164t-29 -161t-85 -115q-114 -101 -260 -147q-146 -45 -267 -49q-9 -188 82 -274q48 -46 119 -45q175 0 319 151l55 -93q-50 -73 -130 -124q-149 -93 -310 -93q-222 0 -334 152q-160 -152 -369 -152t-315 119
t-112 340q-4 141 38 273t118 231q76 100 192 160t251 60z" />
    <glyph glyph-name="Racute" unicode="&#x154;" horiz-adv-x="1394" 
d="M855 1592l-84 73l276 342l155 -161q-24 -49 -92 -104q-124 -102 -255 -150zM718 1424q-60 0 -133 -15l-82 -614q106 -8 184 -3q159 6 241 109t76 285q-4 122 -70 180t-216 58zM438 1530l329 16q509 0 513 -365q2 -171 -88 -299t-256 -182q29 -24 71 -99t82 -192
q81 -199 107 -230q26 -30 55 -53t99 -24l-7 -103l-321 2q-51 -2 -137 244q-87 245 -131 329t-82 93q-125 -1 -186 -1l-64 -540l184 -29l-7 -97h-590l9 96l135 30l163 1274l-139 25l12 105h249z" />
    <glyph glyph-name="racute" unicode="&#x155;" horiz-adv-x="840" 
d="M803 1163q54 0 75 -17l-57 -282q-27 22 -105 22q-156 0 -252 -150l-97 -736h-259l127 962l-104 60l18 89l285 52l50 -24v-250q35 99 113 181q40 42 96 68t110 25zM427 1241l-78 71l317 431l167 -177q-19 -34 -93 -102t-166 -135q-92 -66 -147 -88z" />
    <glyph glyph-name="Rcommaaccent" unicode="&#x156;" horiz-adv-x="1394" 
d="M718 1424q-60 0 -133 -15l-82 -614q106 -8 184 -3q159 6 241 109t76 285q-4 122 -70 180t-216 58zM438 1530l329 16q509 0 513 -365q2 -171 -88 -299t-256 -182q29 -24 71 -99t82 -192q81 -199 107 -230q26 -30 55 -53t99 -24l-7 -103l-321 2q-51 -2 -137 244
q-87 245 -131 329t-82 93q-125 -1 -186 -1l-64 -540l184 -29l-7 -97h-590l9 96l135 30l163 1274l-139 25l12 105h249zM565 -156l139 112q67 -14 108 -77t36 -158t-78 -181t-150 -100l-70 55l3 26q69 49 73 140q2 37 -18 71t-51 38z" />
    <glyph glyph-name="rcommaaccent" unicode="&#x157;" horiz-adv-x="840" 
d="M803 1163q54 0 75 -17l-57 -282q-27 22 -105 22q-156 0 -252 -150l-97 -736h-259l127 962l-104 60l18 89l285 52l50 -24v-250q35 99 113 181q40 42 96 68t110 25zM78 -156l139 112q67 -14 108 -77t36 -158t-78 -181t-150 -100l-70 55l3 26q69 49 73 140q1 37 -19 71
t-50 38z" />
    <glyph glyph-name="Rcaron" unicode="&#x158;" horiz-adv-x="1394" 
d="M718 1424q-60 0 -133 -15l-82 -614q106 -8 184 -3q159 6 241 109t76 285q-4 122 -70 180t-216 58zM438 1530l329 16q509 0 513 -365q2 -171 -88 -299t-256 -182q29 -24 71 -99t82 -192q81 -199 107 -230q26 -30 55 -53t99 -24l-7 -103l-321 2q-51 -2 -137 244
q-87 245 -131 329t-82 93q-125 -1 -186 -1l-64 -540l184 -29l-7 -97h-590l9 96l135 30l163 1274l-139 25l12 105h249zM750 1607l-216 342l95 58l224 -203l320 203l85 -57l-332 -343h-176z" />
    <glyph glyph-name="rcaron" unicode="&#x159;" horiz-adv-x="840" 
d="M803 1163q54 0 75 -17l-57 -282q-27 22 -105 22q-156 0 -252 -150l-97 -736h-259l127 962l-104 60l18 89l285 52l50 -24v-250q35 99 113 181q40 42 96 68t110 25zM452 1433l320 227l85 -57l-332 -356h-176l-217 355l96 58z" />
    <glyph glyph-name="Sacute" unicode="&#x15a;" horiz-adv-x="1126" 
d="M727 1592l-84 73l276 342l155 -161q-24 -49 -92 -104q-124 -102 -255 -150zM482 99q124 0 202 58q78 59 82 163t-58 178q-61 74 -164 140q-104 66 -156 108t-102 98q-103 115 -106 268q0 202 146 320t388 118t371 -80l-50 -282h-148l-29 187q-74 53 -182 53t-172 -51
t-66 -141t32 -153t90 -109q54 -46 136 -98q146 -92 239 -191q92 -100 94 -249q3 -202 -147 -330t-407 -129q-141 1 -271 31t-169 62l50 298h161l18 -201q94 -68 218 -68z" />
    <glyph glyph-name="sacute" unicode="&#x15b;" horiz-adv-x="879" 
d="M335 125q178 0 178 133q0 65 -43 114t-135 115q-202 147 -202 346q0 154 122 242t304 88q75 0 153 -12t105 -25l-40 -187q-23 28 -81 58t-132 30q-74 -1 -122 -31q-50 -30 -54 -95t38 -120t110 -105q108 -81 171 -163t63 -184q0 -185 -130 -267t-307 -82q-91 0 -185 20
t-123 44l42 176q44 -35 116 -65t152 -30zM519 1241l-78 71l317 431l167 -177q-19 -34 -93 -102t-166 -135q-92 -66 -147 -88z" />
    <glyph glyph-name="Scircumflex" unicode="&#x15c;" horiz-adv-x="1126" 
d="M459 1607l-84 58l336 342h178l211 -342l-96 -59l-221 218zM482 99q124 0 202 58q78 59 82 163t-58 178q-61 74 -164 140q-104 66 -156 108t-102 98q-103 115 -106 268q0 202 146 320t388 118t371 -80l-50 -282h-148l-29 187q-74 53 -182 53t-172 -51t-66 -141t32 -153
t90 -109q54 -46 136 -98q146 -92 239 -191q92 -100 94 -249q3 -202 -147 -330t-407 -129q-141 1 -271 31t-169 62l50 298h161l18 -201q94 -68 218 -68z" />
    <glyph glyph-name="scircumflex" unicode="&#x15d;" horiz-adv-x="879" 
d="M335 125q178 0 178 133q0 65 -43 114t-135 115q-202 147 -202 346q0 154 122 242t304 88q75 0 153 -12t105 -25l-40 -187q-23 28 -81 58t-132 30q-74 -1 -122 -31q-50 -30 -54 -95t38 -120t110 -105q108 -81 171 -163t63 -184q0 -185 -130 -267t-307 -82q-91 0 -185 20
t-123 44l42 176q44 -35 116 -65t152 -30zM268 1229l-82 57l347 374h178l200 -374l-99 -58l-216 234z" />
    <glyph glyph-name="Scedilla" unicode="&#x15e;" horiz-adv-x="1138" 
d="M488 99q124 0 202 58q78 59 82 163t-58 178q-61 74 -164 140q-104 66 -156 108t-102 98q-103 115 -106 268q0 202 146 320t388 118t371 -80l-50 -282h-148l-29 187q-74 53 -182 53t-172 -51t-66 -141t32 -153t90 -109q54 -46 136 -98q146 -92 239 -191q92 -100 94 -249
q1 -188 -129 -314t-358 -142q24 -83 17 -207q-7 -123 -75 -185t-206 -62q-44 0 -98 8t-70 20l35 142q28 -15 75 -15q161 0 176 182q4 69 -2 117q-120 8 -223 36t-136 54l50 298h161l18 -201q94 -68 218 -68z" />
    <glyph glyph-name="scedilla" unicode="&#x15f;" horiz-adv-x="879" 
d="M335 125q178 0 178 133q0 65 -43 114t-135 115q-202 147 -202 346q0 154 122 242t304 88q75 0 153 -12t105 -25l-40 -187q-23 28 -81 58t-132 30q-74 -1 -122 -31q-50 -30 -54 -95t38 -120t110 -105q108 -81 171 -163t63 -208q0 -127 -88 -208t-227 -106q29 -88 21 -215
q-8 -126 -76 -188t-206 -62q-44 0 -98 8t-70 20l35 142q28 -15 75 -15q161 0 176 182q4 69 -2 118q-86 1 -172 21t-113 42l42 176q44 -35 116 -65t152 -30z" />
    <glyph glyph-name="Scaron" unicode="&#x160;" horiz-adv-x="1126" 
d="M622 1607l-216 342l95 58l224 -203l320 203l85 -57l-332 -343h-176zM482 99q124 0 202 58q78 59 82 163t-58 178q-61 74 -164 140q-104 66 -156 108t-102 98q-103 115 -106 268q0 202 146 320t388 118t371 -80l-50 -282h-148l-29 187q-74 53 -182 53t-172 -51t-66 -141
t32 -153t90 -109q54 -46 136 -98q146 -92 239 -191q92 -100 94 -249q3 -202 -147 -330t-407 -129q-141 1 -271 31t-169 62l50 298h161l18 -201q94 -68 218 -68z" />
    <glyph glyph-name="scaron" unicode="&#x161;" horiz-adv-x="879" 
d="M335 125q178 0 178 133q0 65 -43 114t-135 115q-202 147 -202 346q0 154 122 242t304 88q75 0 153 -12t105 -25l-40 -187q-23 28 -81 58t-132 30q-74 -1 -122 -31q-50 -30 -54 -95t38 -120t110 -105q108 -81 171 -163t63 -184q0 -185 -130 -267t-307 -82q-91 0 -185 20
t-123 44l42 176q44 -35 116 -65t152 -30zM544 1433l320 227l85 -57l-332 -356h-176l-217 355l96 58z" />
    <glyph glyph-name="uni0162" unicode="&#x162;" horiz-adv-x="1323" 
d="M402 -474q-44 0 -98 8t-70 20l35 142q28 -15 75 -15q161 0 176 182q5 78 -4 137h-312l11 100l247 26l172 1283l-281 -27l-120 -333l-151 -1l78 482h1255l-60 -481l-145 -8l-23 342l-277 26l-173 -1283l266 -26l-8 -100h-335q32 -85 24 -218q-8 -132 -76 -194t-206 -62z
" />
    <glyph glyph-name="uni0163" unicode="&#x163;" horiz-adv-x="730" 
d="M128 159q0 36 20 186l86 660h-120l22 98l123 47q66 63 147 266h142l-34 -261h235l-21 -150h-233l-83 -615q-16 -124 -16 -165t17 -61t59 -19q42 0 94 21q54 21 89 49l22 -79q-39 -46 -117 -90t-171 -60q26 -85 19 -211q-6 -125 -74 -187t-207 -62q-43 0 -97 8t-71 20
l35 142q28 -15 75 -15q212 0 173 309q-114 32 -114 169z" />
    <glyph glyph-name="Tcaron" unicode="&#x164;" horiz-adv-x="1323" 
d="M204 0l11 100l247 26l172 1283l-281 -27l-120 -333l-151 -1l78 482h1255l-60 -481l-145 -8l-23 342l-277 26l-173 -1283l266 -26l-8 -100h-791zM713 1607l-216 342l95 58l224 -203l320 203l85 -57l-332 -343h-176z" />
    <glyph glyph-name="tcaron" unicode="&#x165;" horiz-adv-x="746" 
d="M768 1250l-95 30l-6 25q37 122 45 284t-26 213l19 42l182 46q41 -46 33 -190t-50 -263t-102 -187zM128 159q0 36 20 186l86 660h-120l22 98l123 47q66 63 147 266h142l-34 -261h235l-21 -150h-233l-83 -615q-16 -124 -16 -165t17 -61t59 -19q42 0 94 21q54 21 89 49
l22 -79q-49 -56 -149 -106t-198 -50t-150 42t-52 137z" />
    <glyph glyph-name="Tbar" unicode="&#x166;" horiz-adv-x="1225" 
d="M159 0l11 100l247 26l77 575h-237l16 140h240l76 568l-281 -27l-120 -333l-151 -1l78 482h1255l-60 -481l-145 -8l-23 342l-277 26l-77 -568h261l-16 -140h-264l-77 -575l266 -26l-8 -100h-791z" />
    <glyph glyph-name="tbar" unicode="&#x167;" horiz-adv-x="730" 
d="M128 159q0 36 20 186l36 276h-110l16 130h111l33 254h-120l22 98l123 47q66 63 147 266h142l-34 -261h235l-21 -150h-233l-35 -254h212l-16 -130h-213l-31 -231q-16 -124 -16 -165t17 -61t59 -19q42 0 94 21q54 21 89 49l22 -79q-49 -56 -149 -106t-198 -50t-150 42
t-52 137z" />
    <glyph glyph-name="Utilde" unicode="&#x168;" horiz-adv-x="1413" 
d="M680 97q171 0 266 135t127 394l104 774l-151 25l11 105h458l-13 -105l-126 -24l-101 -774q-44 -345 -196 -496t-425 -151q-375 0 -468 267q-45 129 -22 346l104 808l-139 24l13 105h593l-10 -104l-174 -26l-101 -783q-14 -135 -14 -197q2 -154 69 -238t195 -85zM795 1970
q57 0 91 -15t56 -36q24 -21 44 -43t44 -36q24 -15 50 -15q53 0 87 32t66 73l73 -111q-26 -73 -98 -127t-136 -54t-100 14t-58 36t-42 43q-47 50 -107 52q-60 1 -143 -86l-62 104q34 67 106 118t129 51z" />
    <glyph glyph-name="utilde" unicode="&#x169;" horiz-adv-x="1242" 
d="M567 1665q57 0 91 -15q34 -14 56 -36q24 -22 44 -43t44 -36t50 -15q53 0 87 32t66 73l73 -111q-26 -73 -98 -127t-136 -54q-64 1 -100 15t-58 36l-42 42q-47 50 -107 52q-60 1 -143 -86l-62 104q34 67 106 118t129 51zM402 260q0 -127 119 -127t226 114l122 908h259
l-126 -947q-10 -76 31 -76q30 0 99 57l29 -63q-19 -33 -69 -71q-97 -74 -188 -74q-90 -1 -128 41t-25 113q-143 -155 -341 -155q-116 0 -194 63t-79 202q-1 76 38 352l53 365l-113 70l17 89l323 42l50 -24l-69 -550q-34 -247 -34 -329z" />
    <glyph glyph-name="Umacron" unicode="&#x16a;" horiz-adv-x="1413" 
d="M680 97q171 0 266 135t127 394l104 774l-151 25l11 105h458l-13 -105l-126 -24l-101 -774q-44 -345 -196 -496t-425 -151q-375 0 -468 267q-45 129 -22 346l104 808l-139 24l13 105h593l-10 -104l-174 -26l-101 -783q-14 -135 -14 -197q2 -154 69 -238t195 -85zM614 1718
l2 179h540l-2 -179h-540z" />
    <glyph glyph-name="umacron" unicode="&#x16b;" horiz-adv-x="1242" 
d="M402 1415l2 179h540l-2 -179h-540zM402 260q0 -127 119 -127t226 114l122 908h259l-126 -947q-10 -76 31 -76q30 0 99 57l29 -63q-19 -33 -69 -71q-97 -74 -188 -74q-90 -1 -128 41t-25 113q-143 -155 -341 -155q-116 0 -194 63t-79 202q-1 76 38 352l53 365l-113 70
l17 89l323 42l50 -24l-69 -550q-34 -247 -34 -329z" />
    <glyph glyph-name="Ubreve" unicode="&#x16c;" horiz-adv-x="1413" 
d="M680 97q171 0 266 135t127 394l104 774l-151 25l11 105h458l-13 -105l-126 -24l-101 -774q-44 -345 -196 -496t-425 -151q-375 0 -468 267q-45 129 -22 346l104 808l-139 24l13 105h593l-10 -104l-174 -26l-101 -783q-14 -135 -14 -197q2 -154 69 -238t195 -85zM661 1730
q-74 99 -74 223q0 23 3 44h144l2 -38q16 -146 156 -146q140 -1 181 137q6 20 11 47h142q6 -68 -24 -139q-30 -72 -71 -120q-91 -108 -244 -107q-152 0 -226 99z" />
    <glyph glyph-name="ubreve" unicode="&#x16d;" horiz-adv-x="1242" 
d="M548 1666q0 -184 158 -184q141 0 181 138q6 20 11 46h142q0 -146 -93 -256t-246 -110q-216 0 -283 207q-18 56 -18 97t3 62h145zM402 260q0 -127 119 -127t226 114l122 908h259l-126 -947q-10 -76 31 -76q30 0 99 57l29 -63q-19 -33 -69 -71q-97 -74 -188 -74
q-90 -1 -128 41t-25 113q-143 -155 -341 -155q-116 0 -194 63t-79 202q-1 76 38 352l53 365l-113 70l17 89l323 42l50 -24l-69 -550q-34 -247 -34 -329z" />
    <glyph glyph-name="Uring" unicode="&#x16e;" horiz-adv-x="1413" 
d="M893 1592q167 -2 176 154q4 66 -37 108t-110 42t-119 -36q-51 -36 -55 -108t40 -116q44 -43 105 -44zM634 -20q-375 0 -468 267q-45 129 -22 346l104 808l-139 24l13 105h551q-100 66 -92 201q4 75 40 131q35 56 91 86q109 59 242 59q132 0 210 -64q78 -63 73 -169
q-6 -106 -52 -161t-92 -83h402l-13 -105l-126 -24l-101 -774q-44 -345 -196 -496t-425 -151zM872 1479q-91 0 -159 30l-8 -83l-174 -26l-101 -783q-14 -135 -14 -197q2 -154 69 -238t195 -85q171 0 266 135t127 394l104 774l-151 25l8 78q-71 -24 -162 -24z" />
    <glyph glyph-name="uring" unicode="&#x16f;" horiz-adv-x="1242" 
d="M402 260q0 -127 119 -127t226 114l122 908h259l-126 -947q-10 -76 31 -76q30 0 99 57l29 -63q-19 -33 -69 -71q-97 -74 -188 -74q-90 -1 -128 41t-25 113q-143 -155 -341 -155q-116 0 -194 63t-79 202q-1 76 38 352l53 365l-113 70l17 89l323 42l50 -24l-69 -550
q-34 -247 -34 -329zM720 1368q168 -2 177 159q5 67 -37 111t-97 44t-93 -14t-64 -52q-26 -36 -30 -96t40 -106t104 -46zM792 1795q122 0 200 -67t70 -198t-116 -204q-109 -73 -250 -73q-140 0 -218 69t-69 190q8 170 174 244q88 40 209 39z" />
    <glyph glyph-name="Uhungarumlaut" unicode="&#x170;" horiz-adv-x="1413" 
d="M628 1575l-79 60l297 372l148 -125q-36 -82 -156 -180t-210 -127zM1078 1575l-76 60l297 372l147 -126q-52 -89 -164 -183t-204 -123zM680 97q171 0 266 135t127 394l104 774l-151 25l11 105h458l-13 -105l-126 -24l-101 -774q-44 -345 -196 -496t-425 -151
q-375 0 -468 267q-45 129 -22 346l104 808l-139 24l13 105h593l-10 -104l-174 -26l-101 -783q-14 -135 -14 -197q2 -154 69 -238t195 -85z" />
    <glyph glyph-name="uhungarumlaut" unicode="&#x171;" horiz-adv-x="1242" 
d="M440 1242l-83 54l249 431l158 -117q-22 -84 -132 -206t-192 -162zM895 1242l-84 54l256 431l155 -116q-20 -79 -134 -209t-193 -160zM402 260q0 -127 119 -127t226 114l122 908h259l-126 -947q-10 -76 31 -76q30 0 99 57l29 -63q-19 -33 -69 -71q-97 -74 -188 -74
q-90 -1 -128 41t-25 113q-143 -155 -341 -155q-116 0 -194 63t-79 202q-1 76 38 352l53 365l-113 70l17 89l323 42l50 -24l-69 -550q-34 -247 -34 -329z" />
    <glyph glyph-name="Uogonek" unicode="&#x172;" horiz-adv-x="1379" 
d="M663 97q171 0 266 135t127 394l104 774l-151 25l11 105h458l-13 -105l-126 -24l-101 -774q-35 -274 -138 -424t-278 -198q-133 -135 -133 -208q-1 -43 17 -63t43 -21q59 0 141 67l31 -104q-119 -124 -297 -124q-86 0 -130 44t-43 111q2 67 38 119q59 87 152 155l-24 -1
q-375 0 -468 267q-45 129 -22 346l104 808l-139 24l13 105h593l-10 -104l-174 -26l-101 -783q-14 -135 -14 -197q2 -154 69 -238t195 -85z" />
    <glyph glyph-name="uogonek" unicode="&#x173;" horiz-adv-x="1242" 
d="M402 260q0 -127 119 -127t226 114l122 908h259l-126 -947q-10 -76 31 -76q30 0 99 57l29 -63q-12 -21 -49 -55t-86 -58q-193 -141 -195 -220q-2 -80 58 -80q59 0 144 67l31 -104q-128 -124 -297 -124q-85 0 -130 44t-43 112t43 123q71 98 189 161q-93 31 -75 143
q-143 -155 -341 -155q-116 0 -194 63t-79 202q-1 76 38 352l53 365l-113 70l17 89l323 42l50 -24l-69 -550q-34 -247 -34 -329z" />
    <glyph glyph-name="Wcircumflex" unicode="&#x174;" horiz-adv-x="1887" 
d="M879 1607l-84 58l336 342h178l211 -342l-96 -59l-221 218zM352 -10l-215 1410l-132 25l13 105h551l-10 -105l-141 -25l146 -1164l65 203l327 829l-13 134l-139 23l10 105h560l-15 -105l-144 -24l99 -928l9 -237l77 218l393 945l-178 26l10 105h508l-13 -105l-139 -25
l-620 -1410h-261l-102 977l-384 -977h-262z" />
    <glyph glyph-name="wcircumflex" unicode="&#x175;" horiz-adv-x="1720" 
d="M242 1163q80 0 118 -34q39 -34 48 -103l71 -636l18 -198l353 963h226l90 -782l23 -181l100 166q55 92 103 222t51 217t-13 153t-15 106q-1 40 33 74q34 33 105 33q135 0 137 -213q1 -123 -88 -303t-207 -355l-200 -300l-213 -11l-53 374l-36 325l-3 141l-49 -141
l-145 -355l-150 -331l-226 -14l-173 965q-11 53 -41 55t-70 -27l-30 70q24 33 90 77t146 43zM724 1229l-82 57l347 374h178l200 -374l-99 -58l-216 234z" />
    <glyph glyph-name="Ycircumflex" unicode="&#x176;" horiz-adv-x="1227" 
d="M508 1607l-84 58l336 342h178l211 -342l-96 -59l-221 218zM202 0l10 97l213 29l60 472l-348 802l-107 25l11 105h586l-14 -105l-171 -25l245 -651l62 111l317 540l-146 25l10 105h473l-13 -105l-113 -24l-521 -803l-61 -472l229 -29l-9 -97h-713z" />
    <glyph glyph-name="ycircumflex" unicode="&#x177;" horiz-adv-x="1078" 
d="M324 1229l-82 57l347 374h178l200 -374l-99 -58l-216 234zM147 -355q180 0 322 293h-128l-190 1007q-9 31 -17 43t-33 13q-25 0 -70 -38l-29 70q24 35 94 83t150 47q79 -1 116 -35t50 -106q14 -72 58 -392t51 -363l19 -216l110 220q76 166 114 287t48 260q2 56 -16 120
t-17 112q0 48 34 80q34 33 94 33q150 0 150 -193q-1 -192 -149 -502q-30 -62 -177 -353q-148 -291 -254 -428q-139 -199 -379 -199q-119 0 -221 36l49 187q106 -66 221 -66z" />
    <glyph glyph-name="Ydieresis" unicode="&#x178;" horiz-adv-x="1227" 
d="M556 1679q-63 1 -99 39q-37 38 -35 100t48 108t108 46t98 -36t34 -101q-2 -64 -46 -110t-108 -46zM992 1679q-64 1 -100 39t-35 100t47 108t110 46t98 -36q36 -36 34 -101q-2 -64 -46 -110t-108 -46zM202 0l10 97l213 29l60 472l-348 802l-107 25l11 105h586l-14 -105
l-171 -25l245 -651l62 111l317 540l-146 25l10 105h473l-13 -105l-113 -24l-521 -803l-61 -472l229 -29l-9 -97h-713z" />
    <glyph glyph-name="Zacute" unicode="&#x179;" horiz-adv-x="1220" 
d="M772 1592l-84 73l276 342l155 -161q-23 -49 -91 -104q-124 -102 -256 -150zM-2 0l-31 89l844 1172l146 148l-500 -12l-122 -259l-146 23l53 369h989l28 -86l-838 -1175l-133 -147l562 24l155 292l144 -31l-91 -407h-1060z" />
    <glyph glyph-name="zacute" unicode="&#x17a;" horiz-adv-x="1024" 
d="M142 10q-68 0 -94 -33l-65 62l644 790l118 102l-346 1q-73 0 -122 -44t-57 -112h-76q-6 98 10 220t64 146q37 21 109 21q72 1 282 -17q211 -18 279 -18t103 35l55 -60l-649 -805l-105 -93h375q75 0 125 46t60 116h73q10 -142 -16 -245q-27 -103 -57 -124t-107 -21
q-77 1 -306 17t-297 16zM591 1241l-78 71l317 431l167 -177q-19 -34 -93 -102t-166 -135q-92 -66 -147 -88z" />
    <glyph glyph-name="Zdotaccent" unicode="&#x17b;" horiz-adv-x="1220" 
d="M-2 0l-31 89l844 1172l146 148l-500 -12l-122 -259l-146 23l53 369h989l28 -86l-838 -1175l-133 -147l562 24l155 292l144 -31l-91 -407h-1060zM771 1652q-69 0 -113 44t-42 106q2 63 54 113t120 50q68 1 112 -41t42 -106t-53 -116q-51 -50 -120 -50z" />
    <glyph glyph-name="zdotaccent" unicode="&#x17c;" horiz-adv-x="1024" 
d="M644 1363q-68 0 -111 44q-42 44 -40 107q2 62 52 112t118 50q69 0 109 -41t38 -106t-50 -115t-116 -51zM142 10q-68 0 -94 -33l-65 62l644 790l118 102l-346 1q-73 0 -122 -44t-57 -112h-76q-6 98 10 220t64 146q37 21 109 21q72 1 282 -17q211 -18 279 -18t103 35
l55 -60l-649 -805l-105 -93h375q75 0 125 46t60 116h73q10 -142 -16 -245q-27 -103 -57 -124t-107 -21q-77 1 -306 17t-297 16z" />
    <glyph glyph-name="Zcaron" unicode="&#x17d;" horiz-adv-x="1220" 
d="M-2 0l-31 89l844 1172l146 148l-500 -12l-122 -259l-146 23l53 369h989l28 -86l-838 -1175l-133 -147l562 24l155 292l144 -31l-91 -407h-1060zM667 1607l-216 342l95 58l224 -203l320 203l85 -57l-332 -343h-176z" />
    <glyph glyph-name="zcaron" unicode="&#x17e;" horiz-adv-x="1024" 
d="M142 10q-68 0 -94 -33l-65 62l644 790l118 102l-346 1q-73 0 -122 -44t-57 -112h-76q-6 98 10 220t64 146q37 21 109 21q72 1 282 -17q211 -18 279 -18t103 35l55 -60l-649 -805l-105 -93h375q75 0 125 46t60 116h73q10 -142 -16 -245q-27 -103 -57 -124t-107 -21
q-77 1 -306 17t-297 16zM616 1433l320 227l85 -57l-332 -356h-176l-217 355l96 58z" />
    <glyph glyph-name="florin" unicode="&#x192;" horiz-adv-x="1058" 
d="M918 1690q91 0 130 -17l-13 -205q-1 0 -8 4t-11 4l-12 6t-16 5q-8 2 -19 5q-44 12 -95 12q-50 0 -74 -4q-132 -23 -150 -215l-16 -137h281l-13 -163h-288l-167 -1341h-238l171 1341h-206l10 105l211 58l7 55q28 249 242 401q60 42 122 64q61 22 152 22z" />
    <glyph glyph-name="AEacute" unicode="&#x1fc;" horiz-adv-x="1943" 
d="M489 582h417l99 815l-82 2zM4 126l736 1275l-314 24l15 105h1441l-22 -329h-159l-41 195l-374 20l-69 -548l419 15l-17 -187l-418 21l-76 -591l496 30l107 241l158 -23l-68 -374h-1134l12 96l155 30l39 320h-473l-170 -320l189 -30l-7 -96h-592l11 96zM1276 1592l-84 73
l276 342l155 -161q-23 -49 -91 -104q-124 -102 -256 -150z" />
    <glyph glyph-name="aeacute" unicode="&#x1fd;" horiz-adv-x="1714" 
d="M347 409q0 -258 112 -258q117 -1 237 161q28 38 53 81v29l-18 -20l97 622q-29 8 -91 8t-131 -40q-122 -71 -190 -241q-69 -169 -69 -342zM1298 1036q-62 0 -113 -46t-81 -120q-60 -145 -73 -297q94 4 167 45q73 40 113 76q91 83 89 197q-3 145 -102 145zM74 392
q0 224 125 432t333 292q114 46 226 47q111 0 226 -35l101 35l-14 -85q134 85 286 85q152 1 228 -69q75 -70 77 -172t-42 -180q-77 -134 -255 -207q-177 -73 -337 -77q-8 -319 186 -319q180 0 329 151l55 -93q-52 -74 -133 -124q-151 -93 -311 -93q-305 0 -382 263
q-62 -101 -162 -182t-235 -81q-301 0 -301 412zM906 1241l-78 71l317 431l167 -177q-18 -34 -92 -102t-166 -135q-92 -66 -148 -88z" />
    <glyph glyph-name="uni0218" unicode="&#x218;" horiz-adv-x="1138" 
d="M488 99q124 0 202 58q78 59 82 163t-58 178q-61 74 -164 140q-104 66 -156 108t-102 98q-103 115 -106 268q0 202 146 320t388 118t371 -80l-50 -282h-148l-29 187q-74 53 -182 53t-172 -51t-66 -141t32 -153t90 -109q54 -46 136 -98q146 -92 239 -191q92 -100 94 -249
q3 -202 -147 -330t-407 -129q-141 1 -271 31t-169 62l50 298h161l18 -201q94 -68 218 -68zM325 -156l139 112q67 -14 108 -77t36 -158t-78 -181t-150 -100l-70 55l3 26q69 49 73 140q2 37 -18 71t-51 38z" />
    <glyph glyph-name="uni0219" unicode="&#x219;" horiz-adv-x="879" 
d="M335 125q178 0 178 133q0 65 -43 114t-135 115q-202 147 -202 346q0 154 122 242t304 88q75 0 153 -12t105 -25l-40 -187q-23 28 -81 58t-132 30q-74 -1 -122 -31q-50 -30 -54 -95t38 -120t110 -105q108 -81 171 -163t63 -184q0 -185 -130 -267t-307 -82q-91 0 -185 20
t-123 44l42 176q44 -35 116 -65t152 -30zM235 -156l139 112q67 -14 108 -77t36 -158t-78 -181t-150 -100l-70 55l3 26q69 49 73 140q2 37 -18 71t-51 38z" />
    <glyph glyph-name="uni021A" unicode="&#x21a;" horiz-adv-x="1323" 
d="M204 0l11 100l247 26l172 1283l-281 -27l-120 -333l-151 -1l78 482h1255l-60 -481l-145 -8l-23 342l-277 26l-173 -1283l266 -26l-8 -100h-791zM458 -156l139 112q67 -14 108 -77t36 -158t-78 -181t-150 -100l-70 55l3 26q69 49 73 140q1 37 -19 71t-50 38z" />
    <glyph glyph-name="uni021B" unicode="&#x21b;" horiz-adv-x="730" 
d="M128 159q0 36 20 186l86 660h-120l22 98l123 47q66 63 147 266h142l-34 -261h235l-21 -150h-233l-83 -615q-16 -124 -16 -165t17 -61t59 -19q42 0 94 21q54 21 89 49l22 -79q-49 -56 -149 -106t-198 -50t-150 42t-52 137zM207 -156l139 112q67 -14 108 -77t36 -158
t-78 -181t-150 -100l-70 55l3 26q69 49 73 140q2 37 -18 71t-51 38z" />
    <glyph glyph-name="dotlessj" unicode="&#x237;" horiz-adv-x="650" 
d="M-74 -523q-119 0 -156 37l37 101q31 -12 86 -12t105 37q117 87 154 425l101 915l-161 51l20 81l381 51l50 -24l-134 -1139q-29 -250 -163 -386t-320 -137z" />
    <glyph glyph-name="circumflex" unicode="&#x2c6;" horiz-adv-x="795" 
d="M132 1229l-82 57l347 374h178l200 -374l-99 -58l-216 234z" />
    <glyph glyph-name="caron" unicode="&#x2c7;" horiz-adv-x="794" 
d="M380 1433l320 227l85 -57l-332 -356h-176l-217 355l96 58z" />
    <glyph glyph-name="uni02c9" unicode="&#x2c9;" horiz-adv-x="629" 
d="M26 1735v172h557v-172h-557z" />
    <glyph glyph-name="breve" unicode="&#x2d8;" horiz-adv-x="717" 
d="M203 1666q0 -184 158 -184q141 0 181 138q6 20 11 46h142q0 -146 -93 -256t-246 -110q-216 0 -283 207q-18 56 -18 97t3 62h145z" />
    <glyph glyph-name="dotaccent" unicode="&#x2d9;" horiz-adv-x="388" 
d="M186 1363q-68 0 -110 44t-40 107q2 62 52 112t118 50t108 -41t39 -106q-2 -65 -50 -115q-49 -50 -117 -51z" />
    <glyph glyph-name="ring" unicode="&#x2da;" horiz-adv-x="722" 
d="M386 1368q168 -2 177 159q5 67 -37 111t-97 44t-93 -14t-64 -52q-26 -36 -30 -96t40 -106t104 -46zM458 1795q122 0 200 -67t70 -198t-116 -204q-109 -73 -250 -73q-140 0 -218 69t-69 190q8 170 174 244q88 40 209 39z" />
    <glyph glyph-name="ogonek" unicode="&#x2db;" horiz-adv-x="566" 
d="M318 -280q54 0 135 64l30 -99q-123 -119 -284 -119q-80 0 -123 42q-44 42 -42 102t31 105t51 70t40 41q16 16 44 35t40 27t44 25q30 17 38 22l57 24l71 -36q-183 -143 -184 -223q-2 -80 52 -80z" />
    <glyph glyph-name="tilde" unicode="&#x2dc;" horiz-adv-x="816" 
d="M270 1665q56 0 90 -15q34 -14 57 -36t43 -43t45 -36q24 -15 50 -15q53 0 87 32t66 73l73 -111q-27 -73 -99 -127t-136 -54q-64 1 -99 15q-37 14 -59 36l-42 42q-47 50 -106 52q-60 1 -143 -86l-62 104q33 67 105 118t130 51z" />
    <glyph glyph-name="hungarumlaut" unicode="&#x2dd;" horiz-adv-x="917" 
d="M85 1242l-83 54l249 431l158 -117q-21 -84 -131 -206t-193 -162zM540 1242l-84 54l256 431l155 -116q-20 -79 -134 -209t-193 -160z" />
    <glyph glyph-name="uni0394" unicode="&#x394;" horiz-adv-x="1407" 
d="M211 186h807l-343 934zM-31 0l-12 22l764 1486h52l569 -1481l-17 -27h-1356z" />
    <glyph glyph-name="uni03A9" unicode="&#x3a9;" horiz-adv-x="1672" 
d="M925 1547q287 0 456 -157t152 -449q-9 -192 -123 -412t-280 -353h303l80 243l143 -4l-69 -415h-670l-40 139q159 99 263 310t114 467q8 146 -33 261t-127 181t-205 67q-209 0 -329 -160t-133 -439q-11 -208 71 -407t180 -280l-55 -139h-669l10 400l140 -9l26 -225h309
q-119 106 -205 293t-76 369q17 328 221 524t546 195z" />
    <glyph glyph-name="uni03BC" unicode="&#x3bc;" horiz-adv-x="1364" 
d="M531 -20q-111 0 -165 54l-60 -406h-225l108 730q6 46 38 250t43 325q1 67 -32 67q-27 0 -71 -29l-30 66q109 120 257 120q72 0 112 -30t36 -113t-26 -218q-21 -135 -29 -182q-30 -176 -30 -280q0 -190 129 -190q88 0 180 92q18 18 45 47l115 865h260l-125 -940
q-10 -76 31 -76q24 0 79 37l30 -63q-23 -37 -93 -81t-144 -44q-75 -1 -110 29t-27 108q-106 -102 -193 -126q-47 -12 -103 -12z" />
    <glyph glyph-name="pi" unicode="&#x3c0;" horiz-adv-x="1621" 
d="M495 1141h735q66 -1 106 23t58 82h143q-11 -151 -93 -242t-231 -91h-44q-54 -427 -65 -623q-4 -102 72 -104q40 -2 84 36t68 119h144q-26 -140 -125 -252q-99 -111 -268 -111q-101 0 -156 56t-55 162t106 717h-236l-77 -473q-70 -438 -381 -464l-162 159q147 30 216 124
q70 94 109 240l107 415h-101q-48 2 -93 -36t-64 -87l-131 15q-3 110 33 182t119 112q83 41 182 41z" />
    <glyph glyph-name="uni1E02" unicode="&#x1e02;" horiz-adv-x="1339" 
d="M597 106q379 0 369 361q-8 255 -270 255q-127 0 -201 -6l-75 -589q74 -21 177 -21zM632 854q104 0 164 20q210 70 204 318q-4 116 -66 174t-174 58t-175 -12l-72 -557q16 -1 119 -1zM554 -17l-288 17h-266l9 96l144 30l164 1274l-139 25l13 105h288l323 16
q348 0 436 -206q24 -56 25 -122q9 -314 -337 -411q145 -7 236 -96q90 -89 92 -220q3 -267 -187 -387q-190 -121 -513 -121zM748 1652q-69 0 -113 44t-42 106q2 63 54 113q53 50 121 50q68 1 112 -41t41 -106q-2 -64 -53 -116q-51 -50 -120 -50z" />
    <glyph glyph-name="uni1E03" unicode="&#x1e03;" horiz-adv-x="1190" 
d="M872 1363q-68 0 -111 44q-42 44 -40 107q2 62 52 112t118 50q69 0 109 -41t38 -106t-50 -115t-116 -51zM484 110q74 0 135 38q111 68 168 231q56 163 56 317t-41 231q-40 77 -110 77q-128 0 -233 -140l-97 -732q48 -22 122 -22zM774 1163q168 0 256 -115q86 -115 86 -331
t-118 -415t-316 -279q-106 -43 -222 -43t-245 44l-122 -44l192 1504l-99 43l21 84l301 39l52 -27l-78 -590q124 130 292 130z" />
    <glyph glyph-name="uni1E0A" unicode="&#x1e0a;" horiz-adv-x="1467" 
d="M761 1425q-111 0 -172 -23l-162 -1268q74 -26 193 -28q184 6 301 132q159 170 200 476q12 90 11 182q-2 285 -89 407t-282 122zM282 0h-295l11 96l153 30l165 1274l-138 25l11 105h307l311 16q327 0 470 -172t145 -452q4 -412 -209 -674q-103 -126 -265 -196t-364 -68
q-36 0 -119 8t-183 8zM855 1652q-69 0 -113 44t-42 106q2 63 54 113t120 50q68 1 112 -41t42 -106t-53 -116q-51 -50 -120 -50z" />
    <glyph glyph-name="uni1E0B" unicode="&#x1e0b;" horiz-adv-x="1217" 
d="M466 1363q-68 0 -110 44t-40 107q2 62 52 112t118 50t108 -41t39 -106q-2 -65 -50 -115q-49 -50 -117 -51zM493 138q68 0 128 42t103 101l109 725q-49 26 -125 26t-140 -40q-112 -70 -168 -235q-55 -165 -55 -318t40 -227t108 -74zM409 -20q-169 0 -253 118t-84 301
q0 184 73 357q73 172 224 289q151 118 365 118q50 0 120 -14l50 333l-140 43l20 83l348 42l55 -27l-205 -1415q-11 -77 28 -77q29 0 89 46l30 -62q-26 -34 -69 -68q-85 -67 -172 -67t-123 40t-35 124q-54 -70 -136 -117t-185 -47z" />
    <glyph glyph-name="uni1E1E" unicode="&#x1e1e;" horiz-adv-x="1184" 
d="M0 0l9 97l144 29l162 1274l-139 25l13 105h1053l-34 -346h-171l-24 212l-421 19l-71 -558l476 23l-19 -197l-473 28l-77 -584l298 -30l-8 -97h-718zM795 1652q-69 0 -113 44t-42 106q2 63 54 113t120 50q68 1 112 -41t42 -106t-53 -116q-51 -50 -120 -50z" />
    <glyph glyph-name="uni1E1F" unicode="&#x1e1f;" horiz-adv-x="707" 
d="M734 1670q105 0 168 -26l-61 -173q-68 49 -140 48t-104 -57t-51 -188l-16 -119h233l-19 -157h-235l-125 -1023q-26 -208 -138 -348t-298 -140q-102 -1 -177 18l55 176q103 -44 161 -43q94 0 123 217l138 1143h-132l18 89l142 63l15 87q33 189 155 311t288 122zM468 1668
q-68 0 -110 44t-40 107t52 113t118 49q68 0 108 -41t39 -106q-2 -66 -50 -116q-49 -50 -117 -50z" />
    <glyph glyph-name="uni1E40" unicode="&#x1e40;" horiz-adv-x="1951" 
d="M-69 0l11 97l171 29l316 1274l-177 25l14 105h562l140 -955l18 -169l53 169q260 618 404 955h518l-12 -105l-175 -25l-32 -1273l178 -30l-8 -97h-631l9 98l172 28l55 885l18 370l-128 -322l-459 -1062l-139 -15l-169 1053l-49 347l-74 -357l-198 -899l198 -29l-10 -97
h-576zM1158 1652q-69 0 -113 44t-42 106q2 63 54 113q53 50 121 50q68 1 112 -41t41 -106q-2 -64 -53 -116q-51 -50 -120 -50z" />
    <glyph glyph-name="uni1E41" unicode="&#x1e41;" horiz-adv-x="1923" 
d="M1060 1363q-68 0 -111 44q-42 44 -40 107q2 62 52 112t118 50q69 0 109 -41t38 -106t-50 -115t-116 -51zM1835 125q-111 -146 -291 -146q-72 0 -107 40q-36 40 -34 113q3 73 47 337t43 360q-1 95 -23 125t-76 30t-132 -62t-139 -159q-8 -117 -28 -258l-62 -505h-266
l57 443q56 401 22 491q-12 33 -32 42t-69 9t-131 -67t-144 -166l-103 -752h-259l131 962l-103 60l17 89l307 52l51 -24l-18 -209q76 104 177 168t208 65q106 0 170 -57t75 -187q75 111 179 177t218 67q114 -1 180 -73t66 -229q0 -67 -44 -330t-45 -331q-3 -68 29 -69
q32 0 99 56z" />
    <glyph glyph-name="uni1E56" unicode="&#x1e56;" horiz-adv-x="1269" 
d="M495 666q56 -11 138 -11q184 2 277 128t95 353q1 148 -65 220t-209 68q-71 0 -138 -15zM624 529q-104 0 -145 4l-48 -407l237 -29l-8 -97h-661l10 96l143 30l165 1274l-141 25l13 105h285l291 17q264 0 388 -99t129 -300q7 -288 -176 -454t-482 -165zM852 1652
q-69 0 -113 44t-42 106q2 63 54 113q53 50 121 50q68 1 112 -41t41 -106q-2 -64 -53 -116q-51 -50 -120 -50z" />
    <glyph glyph-name="uni1E57" unicode="&#x1e57;" horiz-adv-x="1195" 
d="M748 1363q-68 0 -110 44t-40 107q2 62 52 112t118 50t108 -41t39 -106q-2 -65 -50 -115q-49 -50 -117 -51zM490 110q76 0 136 38q107 66 164 229q56 163 56 318t-41 232t-115 77q-119 0 -219 -136l-103 -734q46 -24 122 -24zM780 1163q166 1 254 -115t87 -332
q0 -216 -118 -414q-119 -199 -315 -279q-106 -43 -223 -43q-50 0 -117 12l-71 -512h-254l202 1502l-114 50l19 79l327 52l50 -24l-14 -102q121 126 287 126z" />
    <glyph glyph-name="uni1E60" unicode="&#x1e60;" horiz-adv-x="1126" 
d="M482 99q124 0 202 58q78 59 82 163t-58 178q-61 74 -164 140q-104 66 -156 108t-102 98q-103 115 -106 268q0 202 146 320t388 118t371 -80l-50 -282h-148l-29 187q-74 53 -182 53t-172 -51t-66 -141t32 -153t90 -109q54 -46 136 -98q146 -92 239 -191q92 -100 94 -249
q3 -202 -147 -330t-407 -129q-141 1 -271 31t-169 62l50 298h161l18 -201q94 -68 218 -68zM726 1652q-69 0 -113 44t-42 106q2 63 54 113q53 50 121 50q68 1 112 -41t41 -106q-2 -64 -53 -116q-51 -50 -120 -50z" />
    <glyph glyph-name="uni1E61" unicode="&#x1e61;" horiz-adv-x="879" 
d="M572 1363q-68 0 -111 44q-42 44 -40 107q2 62 52 112t118 50q69 0 109 -41t38 -106t-50 -115t-116 -51zM335 125q178 0 178 133q0 65 -43 114t-135 115q-202 147 -202 346q0 154 122 242t304 88q75 0 153 -12t105 -25l-40 -187q-23 28 -81 58t-132 30q-74 -1 -122 -31
q-50 -30 -54 -95t38 -120t110 -105q108 -81 171 -163t63 -184q0 -185 -130 -267t-307 -82q-91 0 -185 20t-123 44l42 176q44 -35 116 -65t152 -30z" />
    <glyph glyph-name="uni1E6A" unicode="&#x1e6a;" horiz-adv-x="1323" 
d="M204 0l11 100l247 26l172 1283l-281 -27l-120 -333l-151 -1l78 482h1255l-60 -481l-145 -8l-23 342l-277 26l-173 -1283l266 -26l-8 -100h-791zM817 1652q-69 0 -113 44t-42 106q2 63 54 113t120 50q68 1 112 -41t42 -106t-53 -116q-51 -50 -120 -50z" />
    <glyph glyph-name="uni1E6B" unicode="&#x1e6b;" horiz-adv-x="730" 
d="M482 1485q-68 0 -111 44q-42 44 -40 107q2 62 52 112t118 50q69 0 109 -41t38 -106t-50 -115t-116 -51zM128 159q0 36 20 186l86 660h-120l22 98l123 47q66 63 147 266h142l-34 -261h235l-21 -150h-233l-83 -615q-16 -124 -16 -165t17 -61t59 -19q42 0 94 21q54 21 89 49
l22 -79q-49 -56 -149 -106t-198 -50t-150 42t-52 137z" />
    <glyph glyph-name="Wgrave" unicode="&#x1e80;" horiz-adv-x="1887" 
d="M352 -10l-215 1410l-132 25l13 105h551l-10 -105l-141 -25l146 -1164l65 203l327 829l-13 134l-139 23l10 105h560l-15 -105l-144 -24l99 -928l9 -237l77 218l393 945l-178 26l10 105h508l-13 -105l-139 -25l-620 -1410h-261l-102 977l-384 -977h-262zM1153 1592
q-89 34 -199 108t-145 146l160 161l270 -342z" />
    <glyph glyph-name="wgrave" unicode="&#x1e81;" horiz-adv-x="1706" 
d="M976 1246q-72 30 -207 139t-179 186l178 172l288 -432zM238 1163q80 0 119 -34t48 -103l71 -636l18 -198l353 963h226l90 -782l23 -181l100 166q54 92 102 222t52 217t-12 153t-16 106t34 74q34 33 104 33q135 0 137 -213q1 -123 -88 -303t-207 -355l-200 -300l-213 -11
l-53 374l-36 325l-3 141l-49 -141l-145 -355l-150 -331l-226 -14l-173 965q-10 53 -40 55t-71 -27l-30 70q24 33 90 77q65 44 145 43z" />
    <glyph glyph-name="Wacute" unicode="&#x1e82;" horiz-adv-x="1887" 
d="M352 -10l-215 1410l-132 25l13 105h551l-10 -105l-141 -25l146 -1164l65 203l327 829l-13 134l-139 23l10 105h560l-15 -105l-144 -24l99 -928l9 -237l77 218l393 945l-178 26l10 105h508l-13 -105l-139 -25l-620 -1410h-261l-102 977l-384 -977h-262zM1147 1592l-84 73
l276 342l155 -161q-24 -49 -92 -104q-124 -102 -255 -150z" />
    <glyph glyph-name="wacute" unicode="&#x1e83;" horiz-adv-x="1706" 
d="M238 1163q80 0 119 -34t48 -103l71 -636l18 -198l353 963h226l90 -782l23 -181l100 166q54 92 102 222t52 217t-12 153t-16 106t34 74q34 33 104 33q135 0 137 -213q1 -123 -88 -303t-207 -355l-200 -300l-213 -11l-53 374l-36 325l-3 141l-49 -141l-145 -355l-150 -331
l-226 -14l-173 965q-10 53 -40 55t-71 -27l-30 70q24 33 90 77q65 44 145 43zM971 1241l-78 71l317 431l167 -177q-19 -34 -93 -102t-166 -135q-92 -66 -147 -88z" />
    <glyph glyph-name="Wdieresis" unicode="&#x1e84;" horiz-adv-x="1887" 
d="M352 -10l-215 1410l-132 25l13 105h551l-10 -105l-141 -25l146 -1164l65 203l327 829l-13 134l-139 23l10 105h560l-15 -105l-144 -24l99 -928l9 -237l77 218l393 945l-178 26l10 105h508l-13 -105l-139 -25l-620 -1410h-261l-102 977l-384 -977h-262zM927 1679
q-63 1 -99 39t-34 100t46 108q46 46 109 46t99 -36t33 -101q-3 -64 -47 -110t-107 -46zM1363 1679q-63 1 -99 39t-36 100q1 62 47 108q45 46 109 46t100 -36t33 -101q-3 -64 -47 -110t-107 -46z" />
    <glyph glyph-name="wdieresis" unicode="&#x1e85;" horiz-adv-x="1720" 
d="M242 1163q80 0 118 -34q39 -34 48 -103l71 -636l18 -198l353 963h226l90 -782l23 -181l100 166q55 92 103 222t51 217t-13 153t-15 106q-1 40 33 74q34 33 105 33q135 0 137 -213q1 -123 -88 -303t-207 -355l-200 -300l-213 -11l-53 374l-36 325l-3 141l-49 -141
l-145 -355l-150 -331l-226 -14l-173 965q-11 53 -41 55t-70 -27l-30 70q24 33 90 77t146 43zM805 1363q-64 0 -103 44q-39 43 -37 107q1 64 47 113t111 49t103 -41t36 -106t-48 -115t-109 -51zM1241 1363q-64 0 -103 44q-39 43 -37 107q1 64 47 113t111 49t103 -41t36 -106
t-48 -115t-109 -51z" />
    <glyph glyph-name="Ygrave" unicode="&#x1ef2;" horiz-adv-x="1227" 
d="M782 1592q-90 34 -200 108t-144 146l160 161l270 -342zM202 0l10 97l213 29l60 472l-348 802l-107 25l11 105h586l-14 -105l-171 -25l245 -651l62 111l317 540l-146 25l10 105h473l-13 -105l-113 -24l-521 -803l-61 -472l229 -29l-9 -97h-713z" />
    <glyph glyph-name="ygrave" unicode="&#x1ef3;" horiz-adv-x="1078" 
d="M580 1246q-72 30 -207 139t-179 186l178 172l288 -432zM147 -355q180 0 322 293h-128l-190 1007q-9 31 -17 43t-33 13q-25 0 -70 -38l-29 70q24 35 94 83t150 47q79 -1 116 -35t50 -106q14 -72 58 -392t51 -363l19 -216l110 220q76 166 114 287t48 260q2 56 -16 120
t-17 112q0 48 34 80q34 33 94 33q150 0 150 -193q-1 -192 -149 -502q-30 -62 -177 -353q-148 -291 -254 -428q-139 -199 -379 -199q-119 0 -221 36l49 187q106 -66 221 -66z" />
    <glyph glyph-name="endash" unicode="&#x2013;" horiz-adv-x="1543" 
d="M240 684l35 177h1097l-35 -177h-1097z" />
    <glyph glyph-name="emdash" unicode="&#x2014;" horiz-adv-x="2034" 
d="M240 684l32 177h1591l-33 -177h-1590z" />
    <glyph glyph-name="quoteleft" unicode="&#x2018;" horiz-adv-x="692" 
d="M200 1207q0 91 24 163q43 130 146 221t226 143l53 -88l-2 -22q-80 -27 -143 -124t-63 -181t29 -130t76 -51l-5 -41l-156 -170q-93 25 -139 107t-46 173z" />
    <glyph glyph-name="quoteright" unicode="&#x2019;" horiz-adv-x="692" 
d="M658 1450q0 -91 -24 -163q-43 -130 -146 -221t-226 -143l-53 88l2 22q80 27 143 124t63 181t-29 130t-76 51l5 41l156 170q93 -25 139 -107t46 -173z" />
    <glyph glyph-name="quotesinglbase" unicode="&#x201a;" horiz-adv-x="682" 
d="M488 11q0 -91 -24 -163q-43 -130 -146 -221t-226 -143l-53 88l2 22q80 27 143 124t63 181t-29 130t-76 51l5 41l156 170q93 -25 139 -107t46 -173z" />
    <glyph glyph-name="quotereversed" unicode="&#x201b;" horiz-adv-x="692" 
d="M200 1314q0 134 92 258t243 158l96 -170l-13 -41q-90 -13 -148 -103t-58 -172q0 -164 86 -211l-7 -22l-86 -85q-85 42 -145 148t-60 240z" />
    <glyph glyph-name="quotedblleft" unicode="&#x201c;" horiz-adv-x="1171" 
d="M201 1207q0 91 24 163q43 130 146 221t226 143l53 -88l-2 -22q-80 -27 -143 -124t-63 -181t29 -130t76 -51l-5 -41l-156 -170q-94 25 -140 107t-45 173zM690 1207q0 91 24 163q43 130 146 221t226 143l53 -88l-2 -22q-80 -27 -143 -124t-63 -181t29 -130t76 -51l-5 -41
l-156 -170q-93 25 -139 107t-46 173z" />
    <glyph glyph-name="quotedblright" unicode="&#x201d;" horiz-adv-x="1171" 
d="M667 1450q0 -91 -24 -163q-43 -130 -146 -221t-226 -143l-53 88l2 22q80 27 143 124t63 181t-29 130t-76 51l5 41l156 170q94 -25 140 -107t45 -173zM1156 1450q0 -91 -24 -163q-43 -130 -146 -221t-226 -143l-53 88l2 22q80 27 143 124t63 181t-29 130t-76 51l5 41
l156 170q93 -25 139 -107t46 -173z" />
    <glyph glyph-name="quotedblbase" unicode="&#x201e;" horiz-adv-x="1171" 
d="M958 11q0 -91 -24 -163q-43 -130 -146 -221t-226 -143l-53 88l2 22q80 27 143 124t63 181t-29 130t-76 51l5 41l156 170q93 -25 139 -107t46 -173zM479 11q0 -91 -24 -163q-43 -130 -146 -221t-226 -143l-53 88l2 22q80 27 143 124t63 181t-29 130t-76 51l5 41l156 170
q94 -25 140 -107t45 -173z" />
    <glyph glyph-name="dagger" unicode="&#x2020;" horiz-adv-x="816" 
d="M266 151l99 857l25 109h-270l25 171h291q2 16 2 90t1 91l21 177h220l-30 -177l-59 -181h282l-24 -171h-260l-5 -109l-171 -857h-147z" />
    <glyph glyph-name="daggerdbl" unicode="&#x2021;" horiz-adv-x="816" 
d="M270 -51l28 550l35 119h-216l28 172h223l-4 191l47 136h-261l27 171h281l-2 181l19 177h221l-28 -177l-55 -181h266l-25 -171h-249q-2 -24 -2 -136l-69 -191h240l-25 -172h-216q3 -59 -6 -119l-109 -550h-148z" />
    <glyph glyph-name="bullet" unicode="&#x2022;" horiz-adv-x="858" 
d="M401 481q-83 0 -143 60q-60 61 -60 155t80 182t197 88q85 0 144 -58t59 -154t-77 -184t-200 -89z" />
    <glyph glyph-name="ellipsis" unicode="&#x2026;" horiz-adv-x="1578" 
d="M238 296q68 0 102 -42t30 -111q-4 -70 -59 -117t-119 -47t-98 40q-36 40 -32 109q4 68 56 118t120 50zM764 296q68 0 102 -42t30 -111q-4 -70 -59 -117t-119 -47t-98 40q-36 40 -32 109q4 68 56 118t120 50zM1290 296q68 0 102 -42t30 -111q-4 -70 -59 -117t-119 -47
t-98 40q-36 40 -32 109q4 68 56 118t120 50z" />
    <glyph glyph-name="perthousand" unicode="&#x2030;" horiz-adv-x="2713" 
d="M1228 378q0 -209 121 -209q47 -1 85 33t70 114q33 80 33 182q0 201 -115 201q-63 1 -109 -55q-85 -102 -85 -266zM1027 360q-1 122 53 220t153 162t232 64t207 -82t75 -218q-1 -136 -77 -252q-128 -193 -350 -193q-138 0 -216 89q-78 88 -77 210zM502 848q46 0 84 34
t71 113q33 80 33 182q0 201 -115 201q-63 0 -109 -56q-85 -103 -85 -265q0 -209 121 -209zM180 1040q0 122 54 220t152 162q99 64 232 63q134 0 208 -82t74 -218q0 -135 -76 -251q-128 -193 -351 -194q-137 0 -215 89t-78 211zM381 0l947 1530h189l-947 -1530h-189z
M2020 378q0 -209 121 -209q47 -1 85 33t70 114q33 80 33 182q0 201 -115 201q-63 1 -109 -55q-85 -102 -85 -266zM1819 360q-1 122 53 220t153 162t232 64t207 -82t75 -218q-1 -136 -77 -252q-128 -193 -350 -193q-138 0 -216 89q-78 88 -77 210z" />
    <glyph glyph-name="minute" unicode="&#x2032;" horiz-adv-x="623" 
d="M284 1190l84 592h240l-156 -592h-168z" />
    <glyph glyph-name="second" unicode="&#x2033;" horiz-adv-x="1036" 
d="M700 1190l84 592h240l-156 -592h-168zM287 1190l84 592h240l-156 -592h-168z" />
    <glyph glyph-name="guilsinglleft" unicode="&#x2039;" horiz-adv-x="1190" 
d="M227 530l22 160l712 401l48 -145l-485 -336l394 -331l-85 -132z" />
    <glyph glyph-name="guilsinglright" unicode="&#x203a;" horiz-adv-x="1190" 
d="M894 708l-22 -160l-712 -401l-48 145l485 336l-394 331l85 132z" />
    <glyph glyph-name="exclamdbl" unicode="&#x203c;" horiz-adv-x="1318" 
d="M924 296q68 0 102 -41t30 -111t-60 -118q-58 -47 -122 -47q-64 1 -101 41q-38 40 -34 108t61 118q56 50 124 50zM864 508l131 1270h290l-250 -1270h-171zM308 296q68 0 102 -41t30 -111t-60 -118q-58 -47 -122 -47q-64 1 -101 41q-38 40 -34 108t61 118q56 50 124 50z
M248 508l131 1270h290l-250 -1270h-171z" />
    <glyph glyph-name="fraction" unicode="&#x2044;" horiz-adv-x="1026" 
d="M96 0l681 1530h189l-681 -1530h-189z" />
    <glyph glyph-name="foursuperior" unicode="&#x2074;" horiz-adv-x="1229" 
d="M622 441l47 337h-520l-37 95l590 857l123 1l108 -104l-483 -608l-103 -113l343 20l35 252l225 23l-36 -262l227 14l-20 -175h-229l-45 -337h-225z" />
    <glyph glyph-name="Euro" unicode="&#x20ac;" horiz-adv-x="1388" 
d="M960 1546q146 0 290 -46q50 -16 111 -28l-59 -285h-121l-23 154q-79 76 -247 76q-128 0 -220 -99t-141 -279h500l-19 -140h-511q-14 -92 -19 -204h478l-13 -141h-465q7 -206 75 -318t191 -112q181 0 250 91l70 162l130 -1l-48 -306q-88 -7 -147 -27q-59 -21 -68 -23
t-37 -10q-91 -26 -204 -26q-112 0 -203 45t-148 125q-112 156 -130 400h-200l16 141h181q4 105 23 204h-153l19 140h172q84 243 266 375t404 132z" />
    <glyph glyph-name="uni2113" unicode="&#x2113;" horiz-adv-x="1214" 
d="M893 1413q1 26 -13 45t-33 19q-53 0 -112 -61q-109 -112 -203 -385t-94 -515v-38q222 248 338 496t117 439zM600 -29q-179 0 -267 191q-74 -63 -166 -132l-114 93q124 94 232 198q-17 91 -17 249t48 365q48 208 128 373q80 164 198 268t250 104q94 0 150 -68t55 -179
q0 -267 -173 -571t-456 -577q24 -79 62 -121t81 -42q87 0 157 97t82 250l189 -31q-35 -276 -221 -402q-96 -64 -218 -65z" />
    <glyph glyph-name="afii61352" unicode="&#x2116;" horiz-adv-x="2527" 
d="M1537 0l12 163h803l-12 -163h-803zM1843 1006q-8 -158 36 -250t146 -92q216 2 231 406q8 159 -36 250t-135 90q-222 -1 -242 -404zM-3 0l8 96l147 29l165 1273l-163 24l12 104h479l393 -1012l89 -259l130 1143l-165 24l10 104h490l-10 -104l-142 -24l-179 -1398h-294
l-396 1014l-104 274l-122 -1163l183 -29l-8 -96h-523zM2106 1533q192 0 296 -123t92 -336q-14 -309 -238 -454q-121 -79 -259 -79q-191 0 -295 125t-94 338q14 300 233 446q124 82 265 83z" />
    <glyph glyph-name="trademark" unicode="&#x2122;" horiz-adv-x="2167" 
d="M207 734l11 83l126 15l83 593l-165 -13l-59 -136l-75 -1l52 255h699l-32 -253l-73 -5l-8 141l-164 14l-84 -594l130 -16l-11 -83h-430zM851 734l11 83l107 15l112 592l-99 9l12 97h351l127 -578l256 578h339l-12 -97l-97 -9l-21 -591l96 -16l-11 -83h-360l11 83l96 16
l20 371l19 223l-329 -701h-120l-138 554l-35 150l-106 -598l93 -15l-11 -83h-311z" />
    <glyph glyph-name="Omega" unicode="&#x2126;" horiz-adv-x="1672" 
d="M925 1547q287 0 456 -157t152 -449q-9 -192 -123 -412t-280 -353h303l80 243l143 -4l-69 -415h-670l-40 139q159 99 263 310t114 467q8 146 -33 261t-127 181t-205 67q-209 0 -329 -160t-133 -439q-11 -208 71 -407t180 -280l-55 -139h-669l10 400l140 -9l26 -225h309
q-119 106 -205 293t-76 369q17 328 221 524t546 195z" />
    <glyph glyph-name="estimated" unicode="&#x212e;" horiz-adv-x="1407" 
d="M438 768h557v374q-91 74 -271 74t-286 -119v-329zM770 124q106 0 208 33t166 74l56 -132q-66 -47 -194 -81t-251 -34q-299 0 -467 182t-168 494t159 501t475 195q148 3 269 -59q121 -61 195 -183t80 -282q0 -159 -10 -210h-850v-381q111 -117 332 -117z" />
    <glyph glyph-name="partialdiff" unicode="&#x2202;" horiz-adv-x="1364" 
d="M633 112q65 0 119 32q98 57 155 205q58 147 85 416q-106 113 -303 113q-87 0 -177 -90q-44 -44 -76 -123q-31 -79 -35 -160t8 -144q13 -63 39 -120t74 -93t111 -36zM264 1551q160 131 406 131q116 0 218 -48q104 -48 168 -124q64 -74 105 -173q74 -174 74 -376
q0 -469 -169 -727t-479 -258q-103 0 -189 41t-138 107q-108 138 -101 291q6 152 54 263t127 186q79 74 185 116q105 42 235 42t239 -70q-6 588 -422 588q-100 0 -217 -75z" />
    <glyph glyph-name="Delta" unicode="&#x2206;" horiz-adv-x="1407" 
d="M211 186h807l-343 934zM-31 0l-12 22l764 1486h52l569 -1481l-17 -27h-1356z" />
    <glyph glyph-name="product" unicode="&#x220f;" horiz-adv-x="1759" 
d="M171 1537h1492v-115l-187 -24v-1439l184 -38v-96h-637v96l184 37v1453h-585v-1452l180 -37v-97h-628v97l179 37v1439l-182 24v115z" />
    <glyph glyph-name="summation" unicode="&#x2211;" horiz-adv-x="1587" 
d="M217 -67l510 739l-500 727l19 139h1072l30 -337h-151l-74 185l-610 25l499 -707l-516 -741l631 27l119 223l145 -31l-61 -358l-1096 1z" />
    <glyph glyph-name="minus" unicode="&#x2212;" horiz-adv-x="1276" 
d="M240 683l18 178h847l-18 -178h-847z" />
    <glyph glyph-name="uni2215" unicode="&#x2215;" horiz-adv-x="854" 
d="M-49 -363l775 1962h177l-775 -1962h-177z" />
    <glyph glyph-name="uni2219" unicode="&#x2219;" horiz-adv-x="686" 
d="M359 942q67 0 101 -41t30 -111t-58 -118q-56 -47 -119 -47t-99 40t-32 109q4 68 57 118t120 50z" />
    <glyph glyph-name="radical" unicode="&#x221a;" horiz-adv-x="1587" 
d="M286 513l-137 -73l-77 138l209 151h201l201 -815l747 2003h263l-916 -2280h-223z" />
    <glyph glyph-name="infinity" unicode="&#x221e;" horiz-adv-x="2148" 
d="M1495 884q-150 0 -309 -210q10 -14 34 -49t40 -55q14 -20 40 -54t47 -55q113 -119 243 -119q74 0 118 76t41 190q-3 116 -69 196t-185 80zM671 357q147 0 298 212q-13 17 -43 65t-48 73q-62 89 -125 135q-64 47 -149 47q-84 1 -140 -79t-52 -186t74 -186q70 -81 185 -81z
M1507 184q-151 0 -251 78t-192 191q-193 -268 -444 -269q-192 -1 -314 120t-122 305t130 316t315 132q185 1 318 -117q65 -57 143 -151q199 265 451 268q189 1 307 -117t120 -306q2 -186 -124 -318t-337 -132z" />
    <glyph glyph-name="integral" unicode="&#x222b;" horiz-adv-x="1186" 
d="M370 -351q62 0 104 28q86 58 86 298q0 239 -98 593t-97 591q0 237 131 393t343 155q212 0 287 -147l-149 -115q-9 41 -57 82t-105 41q-105 0 -152 -70t-47 -227q0 -267 96 -623t95 -602q0 -151 -57 -274t-163 -195t-242 -72q-222 0 -294 147l148 120q13 -44 61 -84
t110 -39z" />
    <glyph glyph-name="approxequal" unicode="&#x2248;" horiz-adv-x="1026" 
d="M385 1083q57 1 109 -25t86 -56q89 -81 157 -81q122 0 197 112l88 -96q-24 -85 -116 -153t-192 -67t-176 59q-32 24 -62 49q-70 59 -128 59q-125 0 -197 -107l-78 96q25 78 115 144t197 66zM335 637q57 1 109 -25t86 -56q89 -81 157 -81q122 0 197 112l88 -96
q-24 -85 -116 -153t-192 -67t-176 59q-32 24 -62 49q-70 59 -128 59q-125 0 -197 -107l-78 96q25 78 115 144t197 66z" />
    <glyph glyph-name="notequal" unicode="&#x2260;" horiz-adv-x="1026" 
d="M132 0l144 324h-198l21 177h256l153 342h-358l20 177h417l136 304h189l-136 -304h209l-20 -177h-268l-153 -342h370l-21 -177h-428l-144 -324h-189z" />
    <glyph glyph-name="lessequal" unicode="&#x2264;" horiz-adv-x="1364" 
d="M140 -1l20 160h948l-20 -160h-948zM198 689l9 78l998 437l-24 -208l-677 -270l614 -273l-24 -207z" />
    <glyph glyph-name="greaterequal" unicode="&#x2265;" horiz-adv-x="1364" 
d="M141 -1l20 160h948l-20 -160h-948zM197 246l29 210l679 272l-612 271l25 208l892 -440l-9 -78z" />
    <glyph glyph-name="lozenge" unicode="&#x25ca;" horiz-adv-x="1364" 
d="M681 201l302 517l-302 517l-302 -517zM588 -5l-431 696v54l431 696h187l431 -696v-54l-431 -696h-187z" />
    <glyph glyph-name="CR" unicode="&#xe001;" 
 />
    <glyph glyph-name="commaaccent" unicode="&#xf6c3;" horiz-adv-x="367" 
d="M36 -156l139 112q67 -14 108 -77t36 -158t-78 -181t-150 -100l-70 55l3 26q69 49 73 140q1 37 -19 71t-50 38z" />
    <glyph glyph-name="grave.cap" horiz-adv-x="522" 
d="M387 1592q-89 34 -199 108t-145 146l160 161l270 -342z" />
    <glyph glyph-name="dieresis.cap" horiz-adv-x="806" 
d="M173 1679q-63 1 -99 39t-34 100t46 108q46 46 109 46t99 -36t33 -101q-3 -64 -47 -110t-107 -46zM609 1679q-63 1 -99 39t-36 100q1 62 47 108q45 46 109 46t100 -36t33 -101q-3 -64 -47 -110t-107 -46z" />
    <glyph glyph-name="acute.cap" horiz-adv-x="527" 
d="M141 1592l-84 73l276 342l155 -161q-24 -49 -92 -104q-124 -102 -255 -150z" />
    <glyph glyph-name="circumflex.cap" horiz-adv-x="794" 
d="M134 1607l-84 58l336 342h178l211 -342l-96 -59l-221 218z" />
    <glyph glyph-name="caron.cap" horiz-adv-x="792" 
d="M297 1607l-216 342l95 58l224 -203l320 203l85 -57l-332 -343h-176z" />
    <glyph glyph-name="breve.cap" horiz-adv-x="715" 
d="M127 1730q-74 99 -74 223q0 23 3 44h144l2 -38q16 -146 156 -146q140 -1 181 137q6 20 11 47h142q6 -68 -24 -139q-30 -72 -71 -120q-91 -108 -244 -107q-152 0 -226 99z" />
    <glyph glyph-name="dotaccent.cap" horiz-adv-x="389" 
d="M186 1652q-69 0 -113 44t-42 106q2 63 54 113q53 50 121 50q68 1 112 -41t41 -106q-2 -64 -53 -116q-51 -50 -120 -50z" />
    <glyph glyph-name="ring.cap" horiz-adv-x="722" 
d="M372 1592q167 -2 176 154q4 66 -37 108t-110 42t-119 -36t-54 -108t38 -116q44 -43 106 -44zM359 1479q-148 0 -227 66t-72 186q4 75 40 131t92 86q109 59 241 59q133 0 211 -64q78 -63 72 -169t-60 -172q-102 -123 -297 -123z" />
    <glyph glyph-name="tilde.cap" horiz-adv-x="813" 
d="M297 1970q57 0 91 -15t56 -36q24 -21 44 -43t44 -36q24 -15 50 -15q53 0 87 32t66 73l73 -111q-26 -73 -98 -127t-136 -54t-100 14t-58 36t-42 43q-47 50 -107 52q-60 1 -143 -86l-62 104q34 67 106 118t129 51z" />
    <glyph glyph-name="hungarumlaut.cap" horiz-adv-x="922" 
d="M94 1575l-79 60l297 372l148 -125q-36 -82 -156 -180t-210 -127zM544 1575l-76 60l297 372l147 -126q-52 -89 -164 -183t-204 -123z" />
    <glyph glyph-name="caronvertical" horiz-adv-x="315" 
d="M303 1040l-95 30l-6 25q37 122 45 284t-26 213l19 42l182 46q42 -46 34 -190t-50 -263t-103 -187z" />
    <glyph glyph-name="macron.cap" horiz-adv-x="614" 
d="M51 1718l2 179h540l-2 -179h-540z" />
    <glyph glyph-name="i.cy" horiz-adv-x="648" 
d="M446 1363q-68 0 -110 44t-40 107q2 62 52 112t118 50t108 -41t39 -106q-2 -65 -50 -115q-49 -50 -117 -51zM438 131q33 0 99 57l30 -63q-23 -33 -72 -72q-94 -73 -188 -73q-186 0 -171 141q11 99 55 408t64 451l-156 51l18 81l374 51l52 -24l-134 -932q-11 -76 29 -76z
" />
    <glyph glyph-name="i.dot" horiz-adv-x="655" 
d="M446 1363q-68 0 -110 44t-40 107q2 62 52 112t118 50t108 -41t39 -106q-2 -65 -50 -115q-49 -50 -117 -51zM438 131q33 0 99 57l30 -63q-23 -33 -72 -72q-94 -73 -188 -73q-186 0 -171 141q11 99 55 408t64 451l-156 51l18 81l374 51l52 -24l-134 -932q-11 -76 29 -76z
" />
    <glyph glyph-name="i.uc" horiz-adv-x="745" 
d="M515 1652q-69 0 -113 44t-42 106q2 63 54 113t120 50q68 1 112 -41t42 -106t-53 -116q-51 -50 -120 -50zM6 0l11 96l149 30l163 1274l-140 25l12 105h577l-11 -105l-163 -25l-163 -1274l166 -29l-7 -97h-594z" />
    <glyph glyph-name="fi_trk" horiz-adv-x="1362" 
d="M734 1670q105 0 168 -26l-61 -173q-68 49 -140 48t-104 -57t-51 -188l-16 -119h233l-19 -157h-235l-125 -1023q-26 -208 -138 -348t-298 -140q-102 -1 -177 18l55 176q103 -44 161 -43q94 0 123 217l138 1143h-132l18 89l142 63l15 87q33 189 155 311t288 122zM1154 1363
q-68 0 -111 44q-42 44 -40 107q2 62 52 112t118 50q69 0 109 -41t38 -106t-50 -115t-116 -51zM1145 131q33 0 99 57l30 -63q-23 -33 -72 -72q-94 -73 -188 -73q-186 0 -171 141q11 99 55 408t64 451l-156 51l18 81l374 51l52 -24l-134 -932q-11 -76 29 -76z" />
    <glyph glyph-name="ffi_dflt" horiz-adv-x="2069" 
d="M1441 1670q105 0 168 -26l-61 -173q-68 49 -140 48t-104 -57t-51 -188l-16 -119h233l-19 -157h-235l-125 -1023q-26 -208 -138 -348t-298 -140q-102 -1 -177 18l55 176q103 -44 161 -43q94 0 123 217l138 1143h-132l18 89l142 63l15 87q32 189 154 311t289 122zM734 1670
q105 0 168 -26l-61 -173q-68 49 -140 48t-104 -57t-51 -188l-16 -119h233l-19 -157h-235l-125 -1023q-26 -208 -138 -348t-298 -140q-102 -1 -177 18l55 176q103 -44 161 -43q94 0 123 217l138 1143h-132l18 89l142 63l15 87q33 189 155 311t288 122zM1860 1363
q-68 0 -110 44t-40 107q2 62 52 112t118 50t108 -41t39 -106q-2 -65 -50 -115q-49 -50 -117 -51zM1852 131q33 0 99 57l30 -63q-23 -33 -72 -72q-94 -73 -188 -73q-186 0 -171 141q11 99 55 408t64 451l-156 51l18 81l374 51l52 -24l-134 -932q-11 -76 29 -76z" />
    </font>
</defs>
</svg>
