<?xml version="1.0" standalone="no"?>
<!DOCTYPE svg PUBLIC "-//W3C//DTD SVG 1.1//EN" "http://www.w3.org/Graphics/SVG/1.1/DTD/svg11.dtd" >
<svg xmlns="http://www.w3.org/2000/svg">
<metadata>
Created by FontPrep 20130207 at Mon May 18 22:54:52 2015
 By Christian Reichel
Copyright (c) 2010-2015, Sorkin Type Co (www.sorkintype.com) with Reserved Font Name 'Merriweather'
</metadata>
<defs>
<font id="482328255c96abbfbace87106f225cb1" horiz-adv-x='1024' >
  <font-face 
    font-family="MerriweatherUltraBold"
    font-weight="900"
    font-stretch="normal"
    units-per-em="2048"
    panose-1="2 6 5 3 5 4 6 3 7 4"
    ascent="1638"
    descent="-410"
    x-height="1137"
    cap-height="1522"
    bbox="-251 -560 3149 2014"
    underline-thickness="96"
    underline-position="-74"
    unicode-range="U+000D-FB02"
  />
<missing-glyph horiz-adv-x="1770" 
d="M559 252l324 353l337 -353l113 113l-348 343l348 334l-119 116l-328 -351l-333 352l-114 -116l344 -338l-343 -318zM177 1416h1416v-1416h-1416v1416z" />
    <glyph glyph-name=".notdef" horiz-adv-x="1770" 
d="M559 252l324 353l337 -353l113 113l-348 343l348 334l-119 116l-328 -351l-333 352l-114 -116l344 -338l-343 -318zM177 1416h1416v-1416h-1416v1416z" />
    <glyph glyph-name=".null" horiz-adv-x="0" 
 />
    <glyph glyph-name=".null" horiz-adv-x="0" 
 />
    <glyph glyph-name="nonmarkingreturn" unicode="&#xd;" horiz-adv-x="0" 
 />
    <glyph glyph-name="space" unicode=" " horiz-adv-x="503" 
 />
    <glyph glyph-name="exclam" unicode="!" horiz-adv-x="715" 
d="M216.5 321q65.5 57 160.5 57t152 -57t57 -119q0 -109 -65.5 -162.5t-158.5 -53.5q-92 0 -151.5 54t-59.5 139t65.5 142zM126 1806h453l-93 -1257h-256z" />
    <glyph glyph-name="quotedbl" unicode="&#x22;" horiz-adv-x="1353" 
d="M799 1737h343l-56 -904h-232zM211 1737h343l-56 -904h-232z" />
    <glyph glyph-name="numbersign" unicode="#" horiz-adv-x="1523" 
d="M902 541l39 308h-253l-34 -308h248zM337 347h-203l-3 194h231l36 308h-233l1 194h262l36 330h291l-36 -330h252l36 330h293l-38 -330h223l-1 -194h-252l-32 -308h240l2 -194h-267l-40 -347h-291l38 347h-254l-40 -347h-293z" />
    <glyph glyph-name="dollar" unicode="$" horiz-adv-x="1370" 
d="M804.5 186.5q47.5 51.5 47.5 119.5t-23.5 107.5t-82 88.5t-177.5 108q-119 58 -266.5 154t-147.5 359q0 153 114 269.5t330 143.5v226h198v-223q147 -12 247.5 -39t119.5 -31l-13 -347h-222l-44 220q-17 20 -57 35t-90 15q-94 0 -144 -52.5t-50 -116.5
q0 -108 88.5 -175.5t207.5 -128.5q120 -61 269.5 -156.5t149.5 -314.5q0 -271 -163.5 -359t-298.5 -104l-2 -243h-197l2 237q-169 8 -297.5 45.5t-150.5 41.5l17 380h226l57 -246q54 -65 180 -65q125 0 172.5 51.5z" />
    <glyph glyph-name="percent" unicode="%" horiz-adv-x="2252" 
d="M1624 473q0 -316 116 -316q103 0 110.5 120.5t7.5 180.5q0 141 -23 230t-89 89q-103 0 -112.5 -119.5t-9.5 -184.5zM1438 799.5q125 123.5 331 123.5t302.5 -122.5t96.5 -334.5t-126 -333.5t-321 -121.5t-301.5 127t-106.5 332q0 206 125 329.5zM393 1091
q0 -316 116 -316q102 0 109.5 120.5t7.5 180.5q0 145 -22 232t-90 87q-102 0 -111.5 -119t-9.5 -185zM1329 1538h237l-656 -1538h-237zM187 757q-106 127 -106 332t125 329t331 124t302.5 -122.5t96.5 -334.5t-126 -333.5t-321 -121.5q-196 0 -302 127z" />
    <glyph glyph-name="ampersand" unicode="&#x26;" horiz-adv-x="1574" 
d="M393 450q0 -154 86 -234t235 -80q105 0 165 27q-168 134 -419 446q-67 -74 -67 -159zM813 1244q0 113 -38.5 145.5t-74.5 32.5q-133 0 -133 -206q0 -133 131 -298q115 115 115 326zM1296 -16q-151 0 -266 70q-128 -79 -367 -79q-441 0 -523.5 148.5t-82.5 234.5
q0 144 91.5 237t215.5 138q-162 209 -162 394t143.5 300.5t354.5 115.5t320 -89t109 -229t-78.5 -232.5t-269.5 -178.5q223 -272 359 -396l25 -24q42 106 37 262l-147 32v166h507v-166l-132 -32q0 -213 -141 -376q125 -100 248 -108v-148q-33 -26 -122 -33t-119 -7z" />
    <glyph glyph-name="quotesingle" unicode="'" horiz-adv-x="765" 
d="M211 1737h343l-56 -904h-232z" />
    <glyph glyph-name="parenleft" unicode="(" horiz-adv-x="936" 
d="M91 670q0 178 35 314.5t109.5 286t199 267t228.5 179.5l131 -108q-105 -64 -223 -291t-129 -609q-13 -516 132.5 -738t214.5 -268l-126 -100q-118 72 -185 131t-135 142t-124 198.5t-92 266.5t-36 329z" />
    <glyph glyph-name="parenright" unicode=")" horiz-adv-x="936" 
d="M845 650q0 -178 -35 -315q-35 -136 -89 -245q-94 -189 -251 -338q-92 -87 -197 -149l-131 108q105 64 205 256q136 262 147 644q13 516 -205 849q-73 111 -142 157l126 100q118 -72 185 -131t135 -142t124 -198t92 -267q36 -151 36 -329z" />
    <glyph glyph-name="asterisk" unicode="*" horiz-adv-x="1395" 
d="M118 1017l146 76l323 94l-323 91l-150 69l146 251l139 -96l244 -228l-91 312l-17 178h304l-14 -173l-75 -311l238 227l138 99l151 -248l-140 -78l-332 -92l332 -85l146 -69l-154 -258l-127 94l-252 226l91 -311l18 -174h-304l13 174l75 314l-239 -230l-136 -102z" />
    <glyph glyph-name="plus" unicode="+" horiz-adv-x="1353" 
d="M200 727h169l193 -12l-7 149v228h243v-228l-9 -149l164 12h200v-231h-200l-164 7l9 -146v-240h-243v240l7 146l-193 -7h-169v231z" />
    <glyph glyph-name="comma" unicode="," horiz-adv-x="685" 
d="M187 328.5q55 53.5 144 53.5h16q96 0 156 -84t60 -226q0 -257 -118 -398.5t-178 -168.5h-3l-113 80v38q66 48 104 121t38 159q0 45 -30 74t-50.5 46.5t-50.5 55t-30 116.5q0 80 55 133.5z" />
    <glyph glyph-name="hyphen" unicode="-" horiz-adv-x="1298" 
d="M230 741h838v-250h-838v250z" />
    <glyph glyph-name="period" unicode="." horiz-adv-x="680" 
d="M501 323q57 -57 57 -120q0 -111 -65.5 -164t-158.5 -53t-153 54.5t-60 139.5t65.5 142.5t161.5 57.5t153 -57z" />
    <glyph glyph-name="slash" unicode="/" horiz-adv-x="882" 
d="M565 1599h255l-503 -1962h-255z" />
    <glyph glyph-name="zero" unicode="0" horiz-adv-x="1386" 
d="M518 645q0 -426 67.5 -472.5t113.5 -46.5q169 0 169 496q0 299 -39.5 409t-135.5 110q-175 0 -175 -496zM100 620q0 174 51.5 302.5t138 210t200.5 119t306.5 37.5t341 -157.5t148.5 -488.5t-177 -498.5t-513.5 -167.5t-416 234.5t-79.5 408.5z" />
    <glyph glyph-name="one" unicode="1" horiz-adv-x="991" 
d="M959 0h-845v150l224 25v753q-54 -14 -139 -25t-104 -12l-26 184q188 36 310 110t158 105h1l217 -26v-1088l204 -26v-150z" />
    <glyph glyph-name="two" unicode="2" horiz-adv-x="1257" 
d="M1072 918q0 -342 -653 -703l529 51l87 158l160 -32l-58 -392h-1027l-57 146q588 367 588 697q0 83 -53.5 131.5t-127.5 48.5t-115.5 -12t-74.5 -29.5t-58.5 -37.5t-47.5 -36l-95 140q60 83 214.5 162t293.5 79q250 0 372.5 -105.5t122.5 -265.5z" />
    <glyph glyph-name="three" unicode="3" horiz-adv-x="1177" 
d="M271 -118q191 0 295 86t104 215q0 241 -256 258l-114 -27l-53 150q72 8 148 43q126 59 175 129t49 131q0 98 -54.5 137.5t-131.5 39.5q-158 0 -278 -95l-93 167q60 58 206.5 115.5t271.5 57.5q236 0 366 -85t130 -246t-114.5 -267t-291.5 -167q209 19 348 -70.5
t139 -266.5q0 -220 -198.5 -367t-537.5 -147q-124 0 -206 18t-105 27v197q95 -33 201 -33z" />
    <glyph glyph-name="four" unicode="4" horiz-adv-x="1402" 
d="M1353 0h-224v-328h-333v328h-670l-88 129q92 169 276.5 615t263.5 653h74l324 -163q-14 -28 -63 -119.5t-118.5 -222.5t-150 -282.5t-124.5 -233.5l-20 -38l-98 -144l397 29l39 361l291 20v-357l224 16v-263z" />
    <glyph glyph-name="five" unicode="5" horiz-adv-x="1305" 
d="M311 -145q80 0 167.5 33t189 119.5t101.5 246.5q0 184 -100 206t-159 22q-139 0 -269 -53l-85 59l96 779h705l20 39h160l-52 -318h-586l-74 -354q21 9 51.5 23.5t101 37.5t182.5 23q219 0 330 -105t111 -273q0 -314 -251 -491.5t-635 -177.5q-82 0 -143 14l1 174
q58 -4 138 -4z" />
    <glyph glyph-name="six" unicode="6" horiz-adv-x="1397" 
d="M889 489q0 345 -183 345q-93 0 -161 -58q-11 -90 -11 -165q-4 -485 179 -485q83 0 129.5 98t46.5 265zM582 948q110 80 290 80t301.5 -125.5t121.5 -356.5t-157 -401.5t-433 -170.5q-275 0 -430.5 185t-155.5 466.5t136.5 499t342.5 344t408 141.5l77 -140
q-189 -51 -315.5 -188.5t-185.5 -333.5z" />
    <glyph glyph-name="seven" unicode="7" horiz-adv-x="1234" 
d="M265 -280q156 296 297.5 619t304.5 709l-451 -10l-136 -339l-225 45l59 523h1040l68 -88l-540 -1570z" />
    <glyph glyph-name="eight" unicode="8" horiz-adv-x="1339" 
d="M392 426q0 -204 98.5 -249t150.5 -45q98 0 160.5 54t62.5 150q0 131 -152 208t-221 115q-99 -90 -99 -233zM889 1155q0 241 -206 241q-121 0 -153 -64.5t-32 -110.5q0 -84 71 -146t213 -139q107 94 107 219zM1174 1199q0 -226 -262 -333q165 -93 258 -199.5t93 -267.5
q0 -196 -165 -310t-447 -114q-391 0 -482 144t-91 226q0 266 296 385q-229 157 -229 402q0 190 149.5 301t386.5 111t365 -97t128 -248z" />
    <glyph glyph-name="nine" unicode="9" horiz-adv-x="1358" 
d="M485 822q0 -212 50 -301t142 -89q91 0 152 54q10 88 12 182q4 468 -186 468q-82 0 -126 -94t-44 -220zM797 315q-108 -80 -284 -80q-177 0 -305.5 134.5t-128.5 364t159 392.5t436 163q278 0 430 -178t152 -463t-128.5 -506.5t-329.5 -351.5t-410 -145l-77 139
q370 104 486 531z" />
    <glyph glyph-name="colon" unicode=":" horiz-adv-x="692" 
d="M507 1145q57 -57 57 -120q0 -111 -66 -164t-158 -53q-93 0 -153 55t-60 139q0 85 66 143q66 57 161 57q96 0 153 -57zM507 323q57 -57 57 -120q0 -111 -66 -164t-158 -53q-93 0 -153 55t-60 139q0 85 66 143q66 57 161 57q96 0 153 -57z" />
    <glyph glyph-name="semicolon" unicode=";" horiz-adv-x="692" 
d="M196 328q55 54 144 54h16q96 0 156 -84t60 -226q0 -256 -168 -458q-68 -82 -128 -109h-3l-113 80v38q66 48 104 121t38 159q0 45 -42 85q-18 18 -38 36t-39 40q-42 52 -42 131t55 133zM508 1145q57 -57 57 -120q0 -111 -66 -164t-158 -53q-93 0 -153 55t-60 139
q0 85 66 143q66 57 161 57q96 0 153 -57z" />
    <glyph glyph-name="less" unicode="&#x3c;" horiz-adv-x="1370" 
d="M168 683l968 495v-272l-609 -290l609 -296v-265l-968 494v134z" />
    <glyph glyph-name="equal" unicode="=" horiz-adv-x="1337" 
d="M198 455h950v-229h-950v229zM198 1005h950v-229h-950v229z" />
    <glyph glyph-name="greater" unicode="&#x3e;" horiz-adv-x="1370" 
d="M1202 683v-134l-968 -494v265l609 296l-609 290v272z" />
    <glyph glyph-name="question" unicode="?" horiz-adv-x="1079" 
d="M369 308.5q60 56.5 150 59.5t146.5 -47.5t60.5 -110.5q8 -103 -52 -157t-163 -56q-73 -6 -133.5 43.5t-64.5 130.5t56 137.5zM285 1629q-62 0 -138 -19l-54 208q23 13 113 28.5t248 15.5q296 0 445.5 -138.5t149.5 -344.5t-130.5 -277t-185.5 -98t-103 -53.5t-72 -56.5
t-23 -105q1 -74 27 -230l-225 -40q-60 69 -98 204.5t0.5 195t116.5 107.5t278 154q10 14 9 67t-19 127t-84.5 164.5t-254.5 90.5z" />
    <glyph glyph-name="at" unicode="@" horiz-adv-x="2235" 
d="M917 297.5q26 -82.5 72 -82.5q60 0 159 143t135.5 291t38.5 167q-21 25 -91.5 56.5t-118.5 31.5q-49 0 -92.5 -38t-86 -130.5t-42.5 -224.5q0 -131 26 -213.5zM1582 184q52 0 105 40.5t122 159t69 353.5q0 443 -250.5 542t-427.5 99t-325.5 -70.5t-258 -200t-172 -312
t-62.5 -406.5q0 -360 182.5 -544t447.5 -184q188 0 282 34.5t123 53.5l56 -128q-128 -111 -285.5 -131t-233.5 -20q-378 0 -594 229.5t-216 630.5q0 336 161.5 620.5t428.5 451t567 166.5q365 0 578.5 -197t213.5 -552q0 -261 -120 -457t-357.5 -352t-278 -37.5t-42.5 179.5
t37 278q-184 -502 -429 -502q-121 0 -216 123.5t-95 317.5q0 285 159 504.5t436 219.5q110 0 225 -56q10 34 40.5 44t67 -3t79.5 -28.5t83 -25.5q-9 -40 -21.5 -93.5t-72 -313.5t-38.5 -346.5t32 -86.5z" />
    <glyph glyph-name="A" unicode="A" horiz-adv-x="1465" 
d="M827 565l-155 588l-22 126l-24 -126l-147 -588h348zM1494 0h-697v152l133 23l-58 217h-436l-56 -222l152 -18v-152h-574l-3 152l115 24l437 1349h442l438 -1350l107 -23v-152z" />
    <glyph glyph-name="B" unicode="B" horiz-adv-x="1501" 
d="M993 394.5q0 251.5 -85.5 276.5t-159.5 25t-130 -5v-530q32 -18 138 -18q237 0 237 251.5zM937 1152q0 233 -192 233q-94 0 -126 -9v-505q37 -5 134 -5q184 0 184 286zM60 0v152l149 24v1154l-148 30v162h348l336 11q500 0 551 -133.5t51 -215.5q0 -158 -100 -256
t-249 -115q324 -3 388.5 -133t64.5 -224q0 -217 -153.5 -342.5t-527.5 -125.5l-353 12h-357z" />
    <glyph glyph-name="C" unicode="C" horiz-adv-x="1364" 
d="M46 749q0 182 57.5 330.5t214 303.5t498.5 155q128 0 295 -22.5t199 -22.5l-27 -502h-259l-78 343q-42 42 -128 42t-195.5 -74.5t-109.5 -527.5q0 -452 109.5 -542.5t165.5 -90.5q87 0 123 15t63 44l98 230l234 -20l-33 -354q-55 -6 -148 -30.5t-161 -36.5t-220 -12
t-290 54.5t-228.5 154t-135 240.5t-44.5 323z" />
    <glyph glyph-name="D" unicode="D" horiz-adv-x="1568" 
d="M740 150q160 0 242 145.5t82 466.5q0 614 -337 614q-47 0 -73 -7.5t-36 -9.5v-1188q42 -21 122 -21zM767 1533q371 0 561.5 -182.5t190.5 -542.5t-209.5 -596t-573.5 -228q-73 2 -176.5 9t-145.5 7h-354v152l149 24v1154l-145 30v162h346z" />
    <glyph glyph-name="E" unicode="E" horiz-adv-x="1351" 
d="M54 1522h1156l28 -384h-185l-77 210l-351 25v-510l205 5l39 166h154v-534h-154l-37 179l-207 5v-528l384 31l132 267l201 -55l-44 -399h-1238v152l149 23v1154l-155 31v162z" />
    <glyph glyph-name="F" unicode="F" horiz-adv-x="1283" 
d="M52 1522h1178l24 -400h-210l-92 219l-327 32v-553l216 5l44 190h162v-579h-160l-46 195l-216 8v-463l309 -24v-152h-875v152l150 24v1154l-157 30v162z" />
    <glyph glyph-name="G" unicode="G" horiz-adv-x="1536" 
d="M819 135q126 0 178 59v414l-158 22v163h658v-163l-94 -16v-532q-41 -2 -104.5 -18.5t-418.5 -102.5t-593.5 182t-238.5 609q0 384 209 587.5t596 203.5q249 0 537 -64l-27 -417h-295l-63 284q-37 45 -156 45q-318 0 -318 -619q0 -470 103.5 -553.5t184.5 -83.5z" />
    <glyph glyph-name="H" unicode="H" horiz-adv-x="1729" 
d="M70 1522h716v-162l-163 -29v-461h483v460l-150 30v162h710v-162l-146 -29v-1156l146 -23v-152h-709v152l149 24v498h-483v-499l163 -23v-152h-718v152l141 23v1156l-139 29v162z" />
    <glyph glyph-name="I" unicode="I" horiz-adv-x="870" 
d="M71 1522h734v-162l-162 -30v-1155l162 -25v-150h-731v152l153 24v1154l-156 30v162z" />
    <glyph glyph-name="J" unicode="J" horiz-adv-x="830" 
d="M237 347v983l-164 30v162h727v-162l-151 -29v-768q0 -422 -29 -520q-55 -185 -200 -301.5t-380 -152.5l-89 134q118 44 179 140t84 197t23 287z" />
    <glyph glyph-name="K" unicode="K" horiz-adv-x="1586" 
d="M57 1522h706v-162l-140 -31v-599l449 600l-164 30l-1 162h622v-161l-190 -30l-331 -378q110 -103 255 -372t182.5 -330.5t56.5 -75.5l97 -23v-152h-473q-40 0 -168.5 286.5t-192.5 380.5l-142 -170v-322l162 -24v-151h-728v152l152 24v1154l-152 30v162z" />
    <glyph glyph-name="L" unicode="L" horiz-adv-x="1318" 
d="M61 1522h754v-162l-190 -30v-1151l314 22l140 435l225 -28l-53 -608h-1191v152l149 23v1155l-148 30v162z" />
    <glyph glyph-name="M" unicode="M" horiz-adv-x="2163" 
d="M104 1522h751l211 -822l35 -209l31 209l168 822h764v-162l-219 -30l175 -1154l161 -24v-152h-757v152l167 24l-88 864l-39 345l-57 -306l-224 -1026h-339l-289 990l-74 344l-76 -1211l211 -24v-152h-619v152l168 23l134 1155l-195 30v162z" />
    <glyph glyph-name="N" unicode="N" horiz-adv-x="1655" 
d="M55 1522h579l510 -810l116 -260v879l-173 29v162h544v-162l-151 -29v-1331h-369l-553 893l-123 270v-987l227 -24v-152h-607v152l160 23v1156l-160 29v162z" />
    <glyph glyph-name="O" unicode="O" horiz-adv-x="1506" 
d="M754 1392q-251 0 -251 -629q0 -496 95.5 -565.5t152.5 -69.5q121 0 186 169t65 492q0 485 -95.5 544t-152.5 59zM238.5 1331.5q190.5 211.5 522.5 211.5q541 -3 619 -291.5t78 -464.5q0 -360 -192.5 -584t-520.5 -226q-363 -2 -530 205t-167 573q0 365 190.5 576.5z" />
    <glyph glyph-name="P" unicode="P" horiz-adv-x="1389" 
d="M715 655q61 0 145 41.5t84 363.5q0 323 -220 323q-53 0 -101 -12v-705q31 -11 92 -11zM778 504q-118 0 -154 6v-335l265 -23v-152h-829v152l149 23v1155l-145 30v162h361q60 0 142.5 5.5t226.5 4.5q305 -2 437.5 -115t132.5 -349q0 -411 -234 -487.5t-352 -76.5z" />
    <glyph glyph-name="Q" unicode="Q" horiz-adv-x="1506" 
d="M754 1392q-251 0 -251 -629q0 -496 95.5 -565.5t152.5 -69.5q121 0 186 169t65 492q0 485 -95.5 544t-152.5 59zM215 182q-167 207 -167 573t190.5 577t522.5 211q541 -3 619 -291t78 -436q0 -269 -90 -455.5t-254 -286.5q77 -18 159.5 -54t225 -99.5t249.5 -63.5h2
q92 0 129 14l33 -100q-40 -58 -98 -101t-183 -43h-11q-185 0 -318 94t-229.5 164.5t-179.5 106.5q-75 -15 -148 -15q-363 -2 -530 205z" />
    <glyph glyph-name="R" unicode="R" horiz-adv-x="1526" 
d="M650 782h90q198 0 198 330q0 214 -78 243.5t-145 29.5t-91 -9v-587q14 -7 26 -7zM762 1533q335 0 474 -94t139 -313t-104 -308.5t-182 -114.5q161 -51 226.5 -200.5t88.5 -202t44 -89t45 -42.5l50 -17v-152h-443q-45 0 -60 47l-76 228q-61 181 -101.5 263t-91.5 98h-147
v-462l173 -22v-152h-737v152l149 23v1155l-145 30v162h340z" />
    <glyph glyph-name="S" unicode="S" horiz-adv-x="1262" 
d="M614 136q100 0 151.5 48.5t51.5 133.5t-76 144t-196 117q-121 58 -186.5 99t-159 141t-93.5 286t138 312t424 126q155 0 256.5 -24.5t139.5 -36t61 -12.5l-13 -375h-217l-49 251q-10 15 -50.5 29.5t-99.5 14.5q-105 0 -151.5 -49.5t-46.5 -113.5q0 -63 31 -107t87 -84.5
t171 -98.5q115 -57 156.5 -80t163.5 -110.5t122 -285.5t-131 -341t-471 -143q-160 0 -280.5 29.5t-169 43.5t-74.5 16l17 388h222l57 -257q44 -61 215 -61z" />
    <glyph glyph-name="T" unicode="T" horiz-adv-x="1517" 
d="M1253 0h-956v152l257 24v1174l-207 -11l-95 -471h-221l32 654h1386l27 -654h-208l-101 471l-197 11v-1174l283 -24v-152z" />
    <glyph glyph-name="U" unicode="U" horiz-adv-x="1530" 
d="M862 141q278 0 278 434v755l-179 30v162h560v-162l-127 -30v-732q0 -318 -160 -466t-436 -148q-490 0 -572.5 229.5t-82.5 395.5v721l-119 30v162h719v-162l-170 -34v-751q0 -434 289 -434z" />
    <glyph glyph-name="V" unicode="V" horiz-adv-x="1454" 
d="M-43 1522h732v-162l-161 -29l260 -856l37 -145l28 145l256 854l-159 31v162h553v-162l-133 -30l-453 -1345h-337l-504 1345l-119 30v162z" />
    <glyph glyph-name="W" unicode="W" horiz-adv-x="2133" 
d="M-35 1522h703v-162l-161 -31l227 -879l28 -142l19 142l193 704l-59 176l-120 30v162h737v-162l-193 -30l229 -880l33 -157l24 157l199 880l-159 30v162h502v-162l-126 -31l-362 -1339h-369l-240 855l-222 -855h-367l-406 1339l-110 31v162z" />
    <glyph glyph-name="X" unicode="X" horiz-adv-x="1491" 
d="M14 1522h751v-162l-142 -32l224 -387l244 389l-167 30v162h556v-162l-167 -30l-373 -505l433 -649l125 -24v-152h-750v152l145 25l-250 422l-239 -425l182 -22v-152h-576v152l167 22l369 545l-405 610l-127 31v162z" />
    <glyph glyph-name="Y" unicode="Y" horiz-adv-x="1354" 
d="M-48 1522h704v-162l-122 -31l208 -431l42 -122l43 120l183 434l-151 30v162h551v-162l-121 -25l-377 -715v-445l213 -23v-152h-860v152l203 24v443l-406 712l-110 29v162z" />
    <glyph glyph-name="Z" unicode="Z" horiz-adv-x="1344" 
d="M10 133l707 1114l125 135l-430 -32l-119 -288l-205 31l54 433h1101l54 -138l-688 -1111l-150 -126l522 45l124 314l205 -41l-45 -469h-1178z" />
    <glyph glyph-name="bracketleft" unicode="[" horiz-adv-x="889" 
d="M169 -50v1466q0 195 111.5 213t202.5 18t265 -44v-126h-236v-1586h236v-128q-154 -44 -255 -44t-212.5 18t-111.5 213z" />
    <glyph glyph-name="backslash" unicode="\" horiz-adv-x="882" 
d="M273 1599l503 -1962h-255l-503 1962h255z" />
    <glyph glyph-name="bracketright" unicode="]" horiz-adv-x="889" 
d="M640 1606q80 -52 80 -190v-1466q0 -194 -170 -222q-52 -8 -154 -9q-101 0 -255 44v128h236v1586h-236v126q173 44 304 44q131 1 195 -41z" />
    <glyph glyph-name="asciicircum" unicode="^" horiz-adv-x="1363" 
d="M556 1531h246l412 -1257h-309l-225 873l-224 -873h-307z" />
    <glyph glyph-name="underscore" unicode="_" horiz-adv-x="1711" 
d="M1731 -250v-170h-1751v170h1751z" />
    <glyph glyph-name="grave" unicode="`" horiz-adv-x="681" 
d="M376 1286q-99 37 -243 153t-203 217l217 199h1l380 -452l-149 -117h-3z" />
    <glyph glyph-name="a" unicode="a" horiz-adv-x="1175" 
d="M487 240.5q34 -51.5 95 -51.5q29 0 62 16t54 40v315q-130 0 -187.5 -53.5t-57.5 -134.5q0 -80 34 -131.5zM1164 4q-142 -30 -245 -30t-131.5 6.5t-49.5 25.5t-21 90v38q-75 -105 -171 -131t-162 -26t-129.5 24t-111 69t-75.5 110.5t-28 151.5q0 179 165.5 278.5
t492.5 99.5v32q0 95 -26 124.5t-63 40t-97 10.5q-108 0 -182.5 -20.5t-163.5 -56.5h-1l-79 168q123 94 276 126.5t268 32.5q239 0 336.5 -97.5t97.5 -331.5v-586h100v-148z" />
    <glyph glyph-name="b" unicode="b" horiz-adv-x="1299" 
d="M525 147q21 -34 82 -34t138.5 58.5t77.5 396.5q4 373 -168 373q-83 0 -130 -59v-735zM828 1168q68 0 148.5 -31t172.5 -137t92 -388q0 -281 -169.5 -458t-457.5 -177q-190 0 -308.5 26.5t-166.5 52.5v1406l-134 30v135l439 53h5l76 -46v-588q112 122 303 122z" />
    <glyph glyph-name="c" unicode="c" horiz-adv-x="1082" 
d="M696 209q149 0 272 72l63 -139q-82 -98 -210.5 -131.5t-244.5 -33.5t-315.5 85t-199.5 501q0 281 166 443t429 162q153 0 249 -30.5t123 -31.5l-17 -399h-243l-57 249q-11 46 -78 46q-68 0 -108.5 -82.5t-40.5 -291.5t55 -314t157 -105z" />
    <glyph glyph-name="d" unicode="d" horiz-adv-x="1297" 
d="M690 1011q-55 0 -134 -45t-82 -387q-4 -397 168 -397q85 0 130 60v737q-27 32 -82 32zM1021 -26q-87 0 -143.5 10t-56.5 112v46q-46 -74 -136.5 -119.5t-184.5 -45.5q-201 0 -321.5 140t-120.5 412t128.5 419.5t260 183.5t203.5 36t122 -10v296l-191 32v151l496 43h10
l72 -56v-1470h99v-150q-150 -30 -237 -30z" />
    <glyph glyph-name="e" unicode="e" 
d="M716 760q0 127 -18 172t-40.5 62t-55.5 17q-72 0 -108 -68t-38 -267h259v4l1 22v58zM736 215q128 0 277 78l66 -141q-50 -57 -183.5 -116t-281.5 -59q-290 0 -425.5 157.5t-135.5 439.5t152.5 437.5t420.5 155.5q226 0 343.5 -109.5t121.5 -310.5q0 -120 -19 -220h-612
q15 -162 81.5 -237t194.5 -75z" />
    <glyph glyph-name="f" unicode="f" horiz-adv-x="859" 
d="M758 1725q100 0 164 -23v-345q-41 48 -117.5 66.5t-122.5 18.5t-66.5 -27t-20.5 -86v-192h231v-187h-231v-778l199 -21v-151h-738v151l146 22v777h-143v141l143 43v82q0 216 123.5 323.5t228 146.5t204.5 39z" />
    <glyph glyph-name="g" unicode="g" horiz-adv-x="1316" 
d="M432 -152q0 -228 214 -228h2q142 0 177 78t35 148t-41.5 102t-128.5 32h-195q-24 0 -46 2q-17 -49 -17 -134zM611 1024q-138 0 -138 -234q0 -125 32 -186.5t105 -61.5h1q129 0 129 238q0 128 -29 186t-99 58h-1zM829 228q455 0 455 -323q0 -142 -123 -271.5t-301 -157.5
t-261 -28h-1q-293 0 -423 90.5t-130 237.5q0 78 54.5 151.5t139.5 107.5q-94 59 -94 169t65 159.5t105 66.5q-237 80 -237 357q0 175 154.5 278t388.5 103h1q278 0 397 -98q46 64 112.5 83.5t100.5 19.5h77v-284h-193q7 -37 7 -109t-31.5 -147t-134 -158t-367.5 -83h-1
q-95 0 -168 12q-9 -43 -9 -76q0 -60 45.5 -80t171.5 -20h200z" />
    <glyph glyph-name="h" unicode="h" horiz-adv-x="1405" 
d="M540 1016q165 146 371 146t277.5 -103.5t71.5 -333.5v-552l116 -21v-152h-607v151l95 21v551q0 125 -19.5 161t-44 48t-62.5 12q-97 0 -167 -70v-701l101 -21v-152h-604v152l99 20v1283l-133 30v142l452 53h6l68 -50l1 -427z" />
    <glyph glyph-name="i" unicode="i" horiz-adv-x="751" 
d="M697 0h-616v152l112 20v723l-131 40v177l456 55h5l68 -47v-948l106 -20v-152zM369 1301q-88 0 -145 53q-56 53 -56 140t60 150t164 63h1q151 0 197 -114q14 -35 14 -77q0 -94 -61 -154q-61 -61 -173 -61h-1z" />
    <glyph glyph-name="j" unicode="j" horiz-adv-x="715" 
d="M588 22q0 -158 -79 -276t-191 -181q-111 -63 -206 -63q-96 0 -124 8l-19 145q53 0 96 25q69 39 101 140t32 278l1 794l-132 41l1 179l446 55h5l69 -47v-1098zM363 1301q-88 0 -145 53q-56 53 -56 140t60 150t164 63h1q151 0 197 -114q14 -35 14 -77q0 -94 -61 -154
q-61 -61 -173 -61h-1z" />
    <glyph glyph-name="k" unicode="k" horiz-adv-x="1373" 
d="M745 1137h589v-145l-175 -28l-183 -169l317 -622l96 -21v-152h-607v151l76 22l-159 369l-147 -153l7 -105v-111l103 -22v-151h-598v152l103 20v1283l-131 30v142l452 53h5l68 -50v-933l-7 -91l340 364l-149 22v145z" />
    <glyph glyph-name="l" unicode="l" horiz-adv-x="715" 
d="M671 0h-615v152l111 21v1282l-133 30v142l452 53h6l68 -50v-1457l111 -21v-152z" />
    <glyph glyph-name="m" unicode="m" horiz-adv-x="2125" 
d="M763 944q-88 0 -164 -70v-702l98 -21v-151h-603v151l100 21v723l-109 39v184l413 49h5l59 -47v-69l-1 -49q66 67 192.5 113.5t211.5 46.5q215 0 285 -155q70 72 170 113.5t200 41.5q190 0 272 -104t82 -334v-552l110 -21v-151h-589v151l75 21v542q0 131 -22 170
t-46.5 49.5t-65.5 10.5q-70 0 -151 -70q10 -68 10 -150v-552l100 -21v-151h-591v151l85 21v551q0 129 -21 164.5t-45 46t-60 10.5z" />
    <glyph glyph-name="n" unicode="n" horiz-adv-x="1443" 
d="M966 1162q178 0 254.5 -98.5t76.5 -339.5v-551l100 -19v-154h-592v152l85 21v550q0 128 -20.5 164t-44.5 46.5t-60 10.5q-82 0 -166 -70v-702l100 -20v-152h-608v152l103 20v723l-109 39v184l413 49h5l60 -47v-69l-2 -48q164 159 405 159z" />
    <glyph glyph-name="o" unicode="o" horiz-adv-x="1269" 
d="M640 134q150 0 149 373q0 298 -36 401t-121 103q-154 0 -154 -424q0 -353 61 -403t101 -50zM222 1014.5q169 153.5 428 153.5q258 0 412 -150t154 -446q0 -297 -166.5 -446t-426.5 -149t-415 150t-155 442t169 445.5z" />
    <glyph glyph-name="p" unicode="p" horiz-adv-x="1320" 
d="M548 160q32 -34 84 -34q103 0 158.5 103.5t55.5 338.5q4 388 -169 388q-41 0 -76 -17t-53 -39v-740zM707 -496h-658v142l112 27v1222l-109 39v184l402 49h5l61 -47v-104q67 99 158.5 125.5t163.5 26.5t152.5 -31t174 -137t93.5 -382t-163 -458.5t-463 -182.5
q-52 0 -94 16l6 -163v-157l159 -27v-142z" />
    <glyph glyph-name="q" unicode="q" horiz-adv-x="1275" 
d="M648 182q40 0 75 18t53 42v736q-28 33 -100 33q-199 0 -199 -431q-3 -300 64 -349t107 -49zM782 93q-112 -116 -309 -116q-66 0 -147 31.5t-174.5 139t-93.5 382.5q0 274 163 456t465 182q86 0 232 -43l190 32h5l50 -37v-1447l137 -27v-142h-741v142l217 28v278z" />
    <glyph glyph-name="r" unicode="r" horiz-adv-x="1004" 
d="M767 796q-117 0 -177 -41v-582l209 -22v-151h-715v152l111 20v723l-109 39v184l369 49h5l66 -47v-56l-7 -175h8q22 94 123 186.5t229 92.5q64 0 89 -18v-416q-84 62 -201 62z" />
    <glyph glyph-name="s" unicode="s" horiz-adv-x="1104" 
d="M88 336h224l58 -162q20 -30 73 -40t81 -10q61 0 98.5 31.5t37.5 73.5q0 43 -27.5 71t-73.5 53t-105.5 50t-119.5 55q-125 63 -188.5 149.5t-63.5 224.5t126.5 236t356.5 98q134 0 224 -20t127.5 -29.5t67.5 -11.5v-290l-214 1l-58 159q-8 15 -39 29.5t-90 14.5t-97 -29.5
t-38 -72.5t21 -70t56.5 -49.5t81.5 -42.5t103 -45q160 -70 252.5 -153.5t92.5 -229.5t-121 -248t-375 -102q-152 0 -254.5 25t-144.5 38t-72 17v279z" />
    <glyph glyph-name="t" unicode="t" horiz-adv-x="838" 
d="M426 -16q-278 0 -278 263v704h-115v131q44 21 78 35t53 23q43 48 73 116t69 196h225l15 -314h269v-187h-265v-501q0 -155 11 -184t28 -35t46 -6h1q62 0 158 24h1l49 -144q-97 -80 -223 -100.5t-193 -20.5h-2z" />
    <glyph glyph-name="u" unicode="u" horiz-adv-x="1330" 
d="M1004 -23q-154 0 -154 139v33q-42 -69 -137.5 -120.5t-196.5 -51.5q-205 0 -292 97.5t-87 330.5v558l-88 25v148l434 27h3l46 -28v-751q0 -112 22.5 -146.5t45.5 -44t80 -9.5t124 59v720l-118 29v145l455 26h6l52 -28v-975h101v-149l-85 -17q-85 -17 -211 -17z" />
    <glyph glyph-name="v" unicode="v" horiz-adv-x="1178" 
d="M-27 1138h634v-147l-119 -24l156 -516l34 -150l29 150l152 516l-120 24v147h505v-147l-109 -24l-363 -983h-322l-402 983l-75 24v147z" />
    <glyph glyph-name="w" unicode="w" horiz-adv-x="1725" 
d="M-48 1137h603v-146l-127 -23l123 -464l34 -172l26 171l165 634h316l203 -633l33 -170l29 169l111 464l-143 24v146h470v-146l-95 -21l-308 -986h-293l-194 580l-38 229l-25 -229l-171 -580h-302l-327 986l-90 21v146z" />
    <glyph glyph-name="x" unicode="x" horiz-adv-x="1266" 
d="M-2 1138h698v-147l-118 -22l123 -176l47 -85l50 86l124 175l-121 22v147h461v-147l-109 -22l-299 -365l341 -432l106 -22v-150h-686v150l100 23l-118 188l-58 87l-45 -87l-123 -188l138 -23v-150h-511v150l120 23l304 375l-328 421l-96 23v146z" />
    <glyph glyph-name="y" unicode="y" horiz-adv-x="1173" 
d="M124 -205q39 -34 184 -34q87 0 141.5 61t99.5 178h-129l-382 967l-87 24v147h658v-147l-134 -24l154 -516l44 -162l32 162l145 517l-117 23v147h488v-147l-94 -23q-74 -226 -177.5 -516.5t-135 -379.5t-53.5 -151t-68.5 -153t-103 -153t-127 -93.5t-178.5 -31.5t-160 24
v281z" />
    <glyph glyph-name="z" unicode="z" horiz-adv-x="1158" 
d="M102 762v376h949l58 -133l-464 -681l-149 -172l334 25l113 245l170 -20l-30 -402h-993l-65 141l484 659l164 185l-329 -17l-63 -206h-179z" />
    <glyph glyph-name="braceleft" unicode="{" horiz-adv-x="1094" 
d="M742 928q0 -197 -323 -240q225 -30 274 -110.5t49 -133.5q0 -71 -47.5 -209t-47.5 -186q0 -87 44 -117t122 -30h154v-146q-74 -16 -153 -32.5t-177 -16.5q-193 0 -278.5 72t-85.5 210q0 80 27 139t45.5 92.5t45.5 91.5t27 112t-9 115.5t-241 61.5v187q171 0 206.5 25
t39.5 49t4 72t-22.5 103t-50 108t-50 109t-22.5 124q0 141 85.5 212.5t282.5 71.5q94 0 173 -16.5t153 -32.5v-139h-154q-79 0 -122.5 -31t-43.5 -115q0 -48 32.5 -145.5t47.5 -151t15 -103.5z" />
    <glyph glyph-name="bar" unicode="|" horiz-adv-x="865" 
d="M306 1780h253v-1966h-253v1966z" />
    <glyph glyph-name="braceright" unicode="}" horiz-adv-x="1094" 
d="M352 928q0 67 33 165q32 97 47 145t15 92q0 81 -44 113q-44 31 -122 31h-154v139q74 17 153 33t177 16q193 0 278 -72q86 -72 86 -210q0 -70 -22 -126t-50 -109q-27 -53 -50 -108q-22 -55 -23 -103q0 -48 4 -72t28 -40q48 -34 218 -34v-187q-232 0 -246 -95
q-4 -28 -4 -66t11 -77q10 -37 27 -73q16 -36 35 -70q18 -34 45 -92q27 -59 27 -131q0 -146 -86 -218t-282 -72q-94 1 -173 17t-153 32v146h154q78 0 109 21q57 40 57 126q0 48 -32 142q-32 95 -48 147q-15 52 -15 106q0 102 89 163t234 81q-323 43 -323 240z" />
    <glyph glyph-name="asciitilde" unicode="~" horiz-adv-x="1438" 
d="M514 565q-114 0 -212 -106l-110 128q31 83 127 157t211 74t207.5 -74t125.5 -91t65 -17q64 0 108 28.5t84 82.5l111 -131q-42 -94 -133 -164.5t-199 -70.5t-196 75t-123 92t-66 17z" />
    <glyph glyph-name="nonbreakingspace" unicode="&#xa0;" horiz-adv-x="670" 
 />
    <glyph glyph-name="exclamdown" unicode="&#xa1;" horiz-adv-x="716" 
d="M498 1095q-66 -57 -160 -57q-95 0 -152 57t-57 120q0 109 66 162t158 53t152 -54q59 -54 59 -139t-66 -142zM589 -390h-453l93 1257h256z" />
    <glyph glyph-name="cent" unicode="&#xa2;" horiz-adv-x="1192" 
d="M500 -10q-401 79 -401 582q0 242 134 398.5t353 189.5l11 215h198l-11 -211q84 -7 169.5 -32t112.5 -26l-17 -399h-243l-57 249q-11 46 -78 46q-68 0 -108.5 -82.5t-40.5 -291.5t55 -314t157 -105q149 0 272 72l63 -139q-76 -86 -187 -121t-185 -41l-11 -223h-198z" />
    <glyph glyph-name="sterling" unicode="&#xa3;" horiz-adv-x="1639" 
d="M1512 559q57 -51 57 -201q0 -58 -34 -131t-135.5 -157.5t-338.5 -84.5q-161 0 -296 39.5t-195.5 58t-112.5 19.5q-117 -102 -227 -102t-134 44t-24 78t26 65t85 62t151 31q26 33 26 180v250h-172v169h172v145q0 229 167 374t420 145t403 -115l-163 -229
q-52 93 -130.5 128t-116.5 35q-77 0 -118 -51.5t-41 -199.5v-232h243v-169h-243v-195q0 -167 -51.5 -218.5t-80.5 -70.5q28 -5 61 -13t99.5 -21.5t135.5 -13.5q131 0 184 48t53 144t-26.5 137t-39.5 52h396z" />
    <glyph glyph-name="currency" unicode="&#xa4;" horiz-adv-x="1547" 
d="M904 633.5q47 53.5 47 117.5q0 107 -55.5 161t-112.5 54q-58 0 -90.5 -16.5t-55 -43.5t-34 -62.5t-11.5 -74.5t15 -73.5t54.5 -75t117.5 -40.5t125 53.5zM309 764q0 148 84 272l-236 233l136 139l239 -239q111 68 240 68t240 -64l239 237l138 -138l-234 -230
q80 -116 80 -262t-86 -270l236 -232l-138 -138l-238 238q-113 -68 -240.5 -68t-237.5 62l-236 -236l-138 138l232 229q-80 113 -80 261z" />
    <glyph glyph-name="yen" unicode="&#xa5;" horiz-adv-x="1723" 
d="M251 473h426v178h-426v149h333l-321 534l-141 30v158h753v-158l-142 -28l198 -415l44 -114l44 113l202 416l-168 28v158h564v-158l-155 -30l-284 -534h363v-149h-435v-178h435v-150h-435v-151l213 -24v-148h-832v148l190 24v151h-426v150z" />
    <glyph glyph-name="brokenbar" unicode="&#xa6;" horiz-adv-x="865" 
d="M306 641h253v-827h-253v827zM306 1780h253v-830h-253v830z" />
    <glyph glyph-name="section" unicode="&#xa7;" horiz-adv-x="1422" 
d="M395 917q0 -57 29 -96t95.5 -87.5t187.5 -104.5q121 -57 179 -84t112 -61q30 43 30 95t-25 90.5t-71.5 73t-112.5 69t-133 68.5t-130 65t-124 71q-37 -42 -37 -99zM1111 396q102 -104 102 -245t-128 -247.5t-383 -106.5q-143 0 -264.5 31t-170 46t-73.5 17l19 327h233
l47 -187q26 -49 101.5 -64.5t139.5 -15.5t107 32.5t43 78.5t-23.5 74.5t-67.5 55.5t-180 87q-137 60 -289 165t-152 361q0 170 163 289q-111 109 -111 257t138.5 241.5t366.5 93.5q119 0 220.5 -24t145 -36t67.5 -16l-13 -305h-206l-62 155q-20 36 -78.5 49.5t-114.5 13.5
t-95 -30.5t-39 -74.5q0 -71 59 -114.5t184.5 -99t217.5 -105t171 -138t79 -213.5q0 -226 -154 -352z" />
    <glyph glyph-name="dieresis" unicode="&#xa8;" horiz-adv-x="1021" 
d="M220 1324q-70 0 -116.5 52t-46.5 111q0 107 49.5 166t146.5 59h1q137 0 160 -71t23 -111q0 -91 -54 -148.5t-162 -57.5h-1zM747 1324q-68 0 -114.5 56.5t-46.5 111.5q0 104 49 162t147 58h1q136 0 159 -71t23 -111q0 -90 -53 -148t-164 -58h-1z" />
    <glyph glyph-name="copyright" unicode="&#xa9;" horiz-adv-x="2130" 
d="M1050 515q-84 0 -167.5 36.5t-139.5 101.5t-83.5 154t-27.5 250t143 302.5t365 141.5q119 0 181.5 -23t77.5 -38l-6 -272h-146l-47 138q-43 29 -108 29q-113 0 -165.5 -81.5t-52.5 -217.5t75.5 -223t197.5 -87t199 71l70 -127q-77 -99 -179.5 -127t-186.5 -28zM355 974
q0 -127 55 -260.5t151 -232.5t225.5 -156t255.5 -57t217.5 26.5t210.5 98.5t212 240.5t93 367.5q0 309 -204 520.5t-503 211.5q-199 0 -406 -124.5t-257 -316t-50 -318.5zM198 1000q0 122 31 233.5t87.5 207.5t136 174t176 133.5t208 86t231.5 30.5t231 -30.5t207 -86
t174.5 -133.5t134 -174t86 -207.5t30.5 -232.5t-30.5 -232.5t-86 -207.5t-134 -174.5t-174.5 -134t-207 -86t-231 -30.5t-231.5 30.5t-208 86t-176 134t-136 174.5t-87.5 206.5t-31 232.5z" />
    <glyph glyph-name="ordfeminine" unicode="&#xaa;" horiz-adv-x="1068" 
d="M506 851q86 0 119 53v222q-122 -4 -160.5 -29.5t-50.5 -51.5t-12 -73t28.5 -84t75.5 -37zM565 1635q386 0 386 -341v-479h90v-115q-123 -31 -227 -31t-140.5 14.5t-36.5 69.5v37q-110 -121 -262 -121t-232 75.5t-80 212.5q0 138 153 212.5t409 72.5v23q0 98 -31 128.5
t-155 30.5t-264 -56l-76 150q118 72 253 94.5t213 22.5z" />
    <glyph glyph-name="guillemotleft" unicode="&#xab;" horiz-adv-x="1975" 
d="M991 693l694 467l108 -170l-377 -381l377 -375l-108 -165l-694 459v165zM200 693l694 467l108 -170l-377 -381l377 -375l-108 -165l-694 459v165z" />
    <glyph glyph-name="logicalnot" unicode="&#xac;" horiz-adv-x="1410" 
d="M210 734h990v-574h-256v354h-734v220z" />
    <glyph glyph-name="uni00AD" unicode="&#xad;" horiz-adv-x="1345" 
d="M230 734h885v-236h-885v236z" />
    <glyph glyph-name="registered" unicode="&#xae;" horiz-adv-x="2130" 
d="M1197 1201q1 159 -117 159q-59 0 -92 -11v-322q30 -9 76.5 -9t89.5 30.5t43 152.5zM1472 1230q0 -243 -202 -280q130 -47 165.5 -159.5t52.5 -133.5t44 -22v-113h-235q-47 0 -67 61t-46 170t-104 134h-92v-238l87 -22v-105h-422v105l78 28v688l-78 24v117h203l235 5
q295 0 338 -104.5t43 -154.5zM355 974q0 -127 55 -260.5t151 -232.5t225.5 -156t255.5 -57t217.5 26.5t210.5 98.5t212 240.5t93 367.5q0 309 -204 520.5t-503 211.5q-199 0 -406 -124.5t-257 -316t-50 -318.5zM198 1000q0 122 31 233.5t87.5 207.5t136 174t176 133.5
t208 86t231.5 30.5t231 -30.5t207 -86t174.5 -133.5t134 -174t86 -207.5t30.5 -232.5t-30.5 -232.5t-86 -207.5t-134 -174.5t-174.5 -134t-207 -86t-231 -30.5t-231.5 30.5t-208 86t-176 134t-136 174.5t-87.5 206.5t-31 232.5z" />
    <glyph glyph-name="macron" unicode="&#xaf;" horiz-adv-x="681" 
d="M5 1634h671v-220h-671v220z" />
    <glyph glyph-name="degree" unicode="&#xb0;" horiz-adv-x="1078" 
d="M660.5 1160q45.5 53 45.5 131t-50 133t-121 55q-72 0 -118.5 -54t-46.5 -130t50.5 -132t122.5 -56t117.5 53zM263 1021.5q-115 113.5 -115 274.5q0 160 114 270.5t279 110.5t277 -112t112 -274t-113.5 -272.5t-276.5 -110.5q-162 0 -277 113.5z" />
    <glyph glyph-name="plusminus" unicode="&#xb1;" horiz-adv-x="1353" 
d="M205 228h940v-229h-940v229zM200 647v233h169l193 -12l-7 149v228h243v-228l-9 -149l164 12h200v-233h-200l-164 7l9 -145v-210h-243v210l7 145l-193 -7h-169z" />
    <glyph glyph-name="acute" unicode="&#xb4;" horiz-adv-x="681" 
d="M122 1403l381 452h1l217 -199q-79 -134 -230 -239.5t-217 -130.5h-2z" />
    <glyph glyph-name="mu" unicode="&#xb5;" horiz-adv-x="1398" 
d="M536 -373h-371v830l-2 4v496l-94 36v143l444 26l45 -28v-780q0 -68 44 -116t119 -48t98 34.5t27 49.5v683l-109 39l-1 140l457 26l46 -27v-975h101v-150q-137 -36 -255 -36q-142 0 -142 138v40q-23 -75 -89 -124t-159 -49t-159 58v-410z" />
    <glyph glyph-name="paragraph" unicode="&#xb6;" horiz-adv-x="1758" 
d="M958 1533q-70 0 -78 -3v-1530h-514v149l201 24v606q-324 0 -378 180.5t-54 284.5q0 208 147.5 337.5t406.5 129.5q192 0 330.5 -10t397.5 -10h171v-155l-156 -23v-1340l132 -24v-149h-444v1519q-92 14 -162 14z" />
    <glyph glyph-name="periodcentered" unicode="&#xb7;" horiz-adv-x="732" 
d="M529 843q57 -57 57 -120q0 -111 -66 -164t-158 -53q-93 0 -153 55t-60 139q0 85 66 143q66 57 161 57q96 0 153 -57z" />
    <glyph glyph-name="cedilla" unicode="&#xb8;" horiz-adv-x="615" 
d="M144 -309h1q74 0 105 25t31 114q0 90 -65 179l126 5l44 -5q156 -147 146 -315q-7 -127 -86.5 -180.5t-239.5 -53.5h-1q-79 0 -144 30l1 214q39 -13 82 -13z" />
    <glyph glyph-name="ordmasculine" unicode="&#xba;" horiz-adv-x="1119" 
d="M660.5 1413.5q-30.5 92.5 -102.5 90.5t-101 -77t-29 -257q0 -183 34.5 -275t94.5 -91q39 0 65 11t47.5 59t21.5 247q0 200 -30.5 292.5zM191 796.5q-137 126.5 -133 363.5q4 236 154 355t376 119q225 0 349.5 -123.5t122.5 -359.5t-149 -358.5t-365 -122.5t-355 126.5z
" />
    <glyph glyph-name="guillemotright" unicode="&#xbb;" horiz-adv-x="1971" 
d="M1773 693v-165l-694 -459l-108 165l377 375l-377 381l108 170zM989 693v-165l-694 -459l-108 165l377 375l-377 381l108 170z" />
    <glyph glyph-name="onequarter" unicode="&#xbc;" horiz-adv-x="2503" 
d="M767 -201l678 1850l224 -9l-679 -1849zM931 544h-814v155l262 23l1 632q-63 -21 -232 -48l-54 165q255 68 393 181h5l196 -32v-897l243 -24v-155zM2294 210v-208h-263l-1 208h-485l-95 123q37 65 196 389t200 404h279l55 -62l-334 -529l-130 -167l319 16l37 248l222 12
v-247l170 9l-1 -196h-169z" />
    <glyph glyph-name="onehalf" unicode="&#xbd;" horiz-adv-x="2500" 
d="M931 544h-814v155l262 23l1 632q-63 -21 -232 -48l-54 165q255 68 393 181h5l196 -32v-897l243 -24v-155zM767 -201l678 1850l224 -9l-679 -1849zM1504 926q191 182 452 182q262 0 345 -188q27 -62 27 -130t-22 -127t-60 -115q-76 -111 -205 -212q-129 -102 -274 -176
l450 46l86 142l144 -28l-53 -321h-846l-53 136q187 106 350 284q163 179 163 339q0 108 -92 141q-28 10 -68 10q-40 1 -81 -11q-39 -12 -71 -28t-56 -35q-24 -18 -42 -30z" />
    <glyph glyph-name="threequarters" unicode="&#xbe;" horiz-adv-x="2497" 
d="M761 -201l678 1850l224 -9l-679 -1849zM866 1388q0 -177 -233 -267q222 3 270.5 -93t48.5 -162q0 -145 -136 -242t-389 -97q-120 0 -210 26t-109 36v164q50 -29 129.5 -35.5t98.5 -6.5q261 0 261 175q0 143 -184 153q-7 -4 -116 -29l-43 119q97 19 159.5 48t102 64.5
t39.5 106.5q0 116 -155 116q-93 0 -155 -30t-81 -43l-79 129q89 80 212.5 106t203.5 26q169 0 267 -71.5t98 -192.5zM2288 210v-208h-263l-1 208h-485l-95 123q37 65 196 389t200 404h279l55 -62l-334 -529l-130 -167l319 16l37 248l222 12v-247l170 9l-1 -196h-169z" />
    <glyph glyph-name="questiondown" unicode="&#xbf;" horiz-adv-x="1079" 
d="M710 1113q-60 -57 -150 -60t-146 47q-57 50 -61 111q-8 103 52 157t163 56q73 6 134 -43q61 -50 64 -131q4 -80 -56 -137zM794 -208q62 0 138 19l54 -208q-23 -13 -113 -28t-248 -16q-296 0 -457 149q-138 128 -138 334t205 318q56 30 111 57t115 60t78 86q19 53 -22 299
l225 40q60 -69 100 -210q36 -130 -11 -204q-29 -45 -108 -93q-78 -48 -278 -154q-10 -14 -9 -67t19 -127t60 -130q91 -125 279 -125z" />
    <glyph glyph-name="Agrave" unicode="&#xc0;" horiz-adv-x="1465" 
d="M829 565l-155 588l-22 126l-24 -126l-147 -588h348zM1496 0h-697v152l133 23l-58 217h-436l-56 -222l152 -18v-152h-574l-3 152l115 24l437 1349h442l438 -1350l107 -23v-152zM762 1593q-69 18 -198 100t-194 161l242 160h1l295 -319l-145 -102h-1z" />
    <glyph glyph-name="Aacute" unicode="&#xc1;" horiz-adv-x="1465" 
d="M829 565l-155 588l-22 126l-24 -126l-147 -588h348zM1496 0h-697v152l133 23l-58 217h-436l-56 -222l152 -18v-152h-574l-3 152l115 24l437 1349h442l438 -1350l107 -23v-152zM573 1695l295 319h1l242 -160q-88 -92 -209 -168t-184 -93h-1z" />
    <glyph glyph-name="Acircumflex" unicode="&#xc2;" horiz-adv-x="1465" 
d="M829 565l-155 588l-22 126l-24 -126l-147 -588h348zM1496 0h-697v152l133 23l-58 217h-436l-56 -222l152 -18v-152h-574l-3 152l115 24l437 1349h442l438 -1350l107 -23v-152zM301 1704l325 300h209l323 -299l-126 -109l-302 185l-303 -185z" />
    <glyph glyph-name="Atilde" unicode="&#xc3;" horiz-adv-x="1465" 
d="M829 565l-155 588l-22 126l-24 -126l-147 -588h348zM1496 0h-697v152l133 23l-58 217h-436l-56 -222l152 -18v-152h-574l-3 152l115 24l437 1349h442l438 -1350l107 -23v-152zM572 2008q79 0 131 -28q53 -28 81 -48t74 -47q45 -28 88 -28q42 0 66 9q24 10 44 24
q18 14 32 31t28 33l107 -108q-54 -97 -105 -139q-96 -79 -207 -79q-66 0 -118 24t-98 52q-45 28 -89 52t-84 23q-40 0 -64 -10q-24 -11 -44 -25t-36 -31t-28 -30l-106 110q121 215 328 215z" />
    <glyph glyph-name="Adieresis" unicode="&#xc4;" horiz-adv-x="1465" 
d="M829 565l-155 588l-22 126l-24 -126l-147 -588h348zM1496 0h-697v152l133 23l-58 217h-436l-56 -222l152 -18v-152h-574l-3 152l115 24l437 1349h442l438 -1350l107 -23v-152zM426 1626q-70 0 -115 51q-46 51 -46 107q0 217 196 217h1q136 0 172 -105q10 -32 10 -70
q0 -88 -54 -144t-163 -56h-1zM976 1626q-67 0 -114 54q-48 54 -48 108q0 101 49 157t147 56h1q137 0 173 -105q10 -32 10 -70q0 -87 -54 -143q-54 -57 -163 -57h-1z" />
    <glyph glyph-name="Aring" unicode="&#xc5;" horiz-adv-x="1465" 
d="M827 565l-155 588l-22 126l-24 -126l-147 -588h348zM737 1882q-151 0 -151 -137q0 -62 36 -104.5t114 -42.5h1q123 0 136.5 51.5t13.5 142t-149 90.5h-1zM749 2014q362 0 362 -276q-4 -159 -157 -228l433 -1335l107 -23v-152h-697v152l133 23l-58 217h-436l-56 -222
l152 -18v-152h-574l-3 152l115 24l431 1332q-144 67 -139 237q2 124 106.5 196.5t279.5 72.5h1z" />
    <glyph glyph-name="AE" unicode="&#xc6;" horiz-adv-x="1965" 
d="M817 590v765h-111l-98 -295l-164 -470h373zM195 1522h1626l28 -384h-185l-74 210l-359 26v-511l206 7l38 164h155v-534h-154l-37 177l-208 7v-528l389 31l134 267l226 -62l-66 -392h-1248v150l151 24v236h-436l-82 -236l150 -24v-150h-608v150l143 25l466 1155l-255 30
v162z" />
    <glyph glyph-name="Ccedilla" unicode="&#xc7;" horiz-adv-x="1364" 
d="M583 -309h1q74 0 105 25t31 104q0 80 -48 162q-311 29 -468.5 228.5t-157.5 529.5q0 374 214 586t556 212q128 0 295 -22.5t199 -22.5l-27 -502h-259l-78 343q-42 42 -128 42t-195.5 -74.5t-109.5 -527.5q0 -452 109.5 -542.5t165.5 -90.5q87 0 123 15t63 44l98 230
l234 -20l-33 -354q-50 -6 -93 -17t-127.5 -32.5t-197.5 -27.5q123 -136 117 -276q-11 -196 -131 -219.5t-196 -23.5h-1q-79 0 -144 30l1 214q39 -13 82 -13z" />
    <glyph glyph-name="Egrave" unicode="&#xc8;" horiz-adv-x="1351" 
d="M697 1593q-69 18 -198 100t-194 161l242 160h1l295 -319l-145 -102h-1zM54 1522h1156l28 -384h-185l-77 210l-351 25v-510l205 5l39 166h154v-534h-154l-37 179l-207 5v-528l384 31l132 267l201 -55l-44 -399h-1238v152l149 23v1154l-155 31v162z" />
    <glyph glyph-name="Eacute" unicode="&#xc9;" horiz-adv-x="1351" 
d="M516 1695l295 319h1l242 -160q-88 -92 -209 -168t-184 -93h-1zM54 1522h1156l28 -384h-185l-77 210l-351 25v-510l205 5l39 166h154v-534h-154l-37 179l-207 5v-528l384 31l132 267l201 -55l-44 -399h-1238v152l149 23v1154l-155 31v162z" />
    <glyph glyph-name="Ecircumflex" unicode="&#xca;" horiz-adv-x="1351" 
d="M54 1522h1156l28 -384h-185l-77 210l-351 25v-510l205 5l39 166h154v-534h-154l-37 179l-207 5v-528l384 31l132 267l201 -55l-44 -399h-1238v152l149 23v1154l-155 31v162zM269 1704l325 300h209l323 -299l-126 -109l-302 185l-303 -185z" />
    <glyph glyph-name="Edieresis" unicode="&#xcb;" horiz-adv-x="1351" 
d="M397 1626q-70 0 -115 51q-46 51 -46 107q0 217 196 217h1q135 0 171 -105q10 -32 11 -70q0 -88 -54 -144t-163 -56h-1zM947 1626q-67 0 -114 54q-48 54 -48 108q0 101 49 157t147 56h1q136 0 172 -105q10 -32 11 -70q0 -87 -54 -143q-54 -57 -163 -57h-1zM54 1522h1156
l28 -384h-185l-77 210l-351 25v-510l205 5l39 166h154v-534h-154l-37 179l-207 5v-528l384 31l132 267l201 -55l-44 -399h-1238v152l149 23v1154l-155 31v162z" />
    <glyph glyph-name="Igrave" unicode="&#xcc;" horiz-adv-x="870" 
d="M71 1522h734v-162l-162 -30v-1155l162 -25v-150h-731v152l153 24v1154l-156 30v162zM444 1593q-69 18 -198 100t-194 161l242 160h1l295 -319l-145 -102h-1z" />
    <glyph glyph-name="Iacute" unicode="&#xcd;" horiz-adv-x="870" 
d="M71 1522h734v-162l-162 -30v-1155l162 -25v-150h-731v152l153 24v1154l-156 30v162zM273 1695l295 319h1l242 -160q-88 -92 -209 -168t-184 -93h-1z" />
    <glyph glyph-name="Icircumflex" unicode="&#xce;" horiz-adv-x="870" 
d="M71 1522h734v-162l-162 -30v-1155l162 -25v-150h-731v152l153 24v1154l-156 30v162zM-1 1704l325 300h209l323 -299l-126 -109l-302 185l-303 -185z" />
    <glyph glyph-name="Idieresis" unicode="&#xcf;" horiz-adv-x="870" 
d="M71 1522h734v-162l-162 -30v-1155l162 -25v-150h-731v152l153 24v1154l-156 30v162zM128 1626q-70 0 -115 51q-46 51 -46 107q0 217 196 217h1q136 0 172 -105q10 -32 10 -70q0 -88 -54 -144t-163 -56h-1zM678 1626q-67 0 -114 54q-48 54 -48 108q0 101 49 157t147 56h1
q137 0 173 -105q10 -32 10 -70q0 -87 -54 -143q-54 -57 -163 -57h-1z" />
    <glyph glyph-name="Eth" unicode="&#xd0;" horiz-adv-x="1568" 
d="M740 150q160 0 242 145.5t82 466.5q0 614 -337 614q-47 0 -73 -7.5t-36 -9.5v-495h250v-158h-250v-535q42 -21 122 -21zM767 1533q371 0 561.5 -182.5t190.5 -542.5t-209.5 -596t-573.5 -228q-73 2 -176.5 9t-145.5 7h-354v152l149 24v530h-136v158h136v466l-145 30v162
h346z" />
    <glyph glyph-name="Ntilde" unicode="&#xd1;" horiz-adv-x="1661" 
d="M689 2008q79 0 131 -28q54 -28 82 -48t73 -47q45 -28 88 -28t67 9q24 10 42 24t33 31q14 17 28 33l107 -108q-54 -97 -105 -139q-96 -79 -207 -79q-66 0 -118 24t-98 52t-90 52t-82 23q-40 0 -64 -10q-24 -11 -45 -25q-19 -14 -35 -31t-29 -30l-106 110q121 215 328 215z
M55 1522h579l510 -810l116 -260v879l-173 29v162h544v-162l-151 -29v-1331h-369l-553 893l-123 270v-987l227 -24v-152h-607v152l160 23v1156l-160 29v162z" />
    <glyph glyph-name="Ograve" unicode="&#xd2;" horiz-adv-x="1516" 
d="M787 1593q-69 18 -198 100t-194 161l242 160h1l295 -319l-145 -102h-1zM759 1392q-251 0 -251 -629q0 -495 145 -601q46 -34 103 -34q121 0 186 169t65 492q0 485 -145 575q-46 28 -103 28zM244 1332q191 211 522 211q542 -3 660 -441q38 -139 37 -315q0 -360 -193 -584
t-520 -226q-362 -3 -538 215q-158 196 -159 563q0 366 191 577z" />
    <glyph glyph-name="Oacute" unicode="&#xd3;" horiz-adv-x="1516" 
d="M599 1695l295 319h1l242 -160q-88 -92 -209 -168t-184 -93h-1zM759 1392q-251 0 -251 -629q0 -495 145 -601q46 -34 103 -34q121 0 186 169t65 492q0 485 -145 575q-46 28 -103 28zM244 1332q191 211 522 211q542 -3 660 -441q38 -139 37 -315q0 -360 -193 -584
t-520 -226q-362 -3 -538 215q-158 196 -159 563q0 366 191 577z" />
    <glyph glyph-name="Ocircumflex" unicode="&#xd4;" horiz-adv-x="1516" 
d="M759 1392q-251 0 -251 -629q0 -495 145 -601q46 -34 103 -34q121 0 186 169t65 492q0 485 -145 575q-46 28 -103 28zM244 1332q191 211 522 211q542 -3 660 -441q38 -139 37 -315q0 -360 -193 -584t-520 -226q-362 -3 -538 215q-158 196 -159 563q0 366 191 577z
M329 1704l325 300h209l323 -299l-126 -109l-302 185l-303 -185z" />
    <glyph glyph-name="Otilde" unicode="&#xd5;" horiz-adv-x="1516" 
d="M598 2008q79 0 131 -28q53 -28 81 -48t74 -47q45 -28 88 -28q42 0 66 9q24 10 44 24q18 14 32 31t28 33l107 -108q-54 -97 -105 -139q-96 -79 -207 -79q-66 0 -118 24t-98 52q-45 28 -89 52t-84 23q-40 0 -64 -10q-24 -11 -44 -25t-36 -31t-28 -30l-106 110
q121 215 328 215zM759 1392q-251 0 -251 -629q0 -495 145 -601q46 -34 103 -34q121 0 186 169t65 492q0 485 -145 575q-46 28 -103 28zM244 1332q191 211 522 211q542 -3 660 -441q38 -139 37 -315q0 -360 -193 -584t-520 -226q-362 -3 -538 215q-158 196 -159 563
q0 366 191 577z" />
    <glyph glyph-name="Odieresis" unicode="&#xd6;" horiz-adv-x="1516" 
d="M457 1626q-70 0 -115 51q-46 51 -46 107q0 217 196 217h1q135 0 171 -105q10 -32 11 -70q0 -88 -54 -144t-163 -56h-1zM1007 1626q-67 0 -114 54q-48 54 -48 108q0 101 49 157t147 56h1q136 0 172 -105q10 -32 11 -70q0 -87 -54 -143q-54 -57 -163 -57h-1zM759 1392
q-251 0 -251 -629q0 -495 145 -601q46 -34 103 -34q121 0 186 169t65 492q0 485 -145 575q-46 28 -103 28zM244 1332q191 211 522 211q542 -3 660 -441q38 -139 37 -315q0 -360 -193 -584t-520 -226q-362 -3 -538 215q-158 196 -159 563q0 366 191 577z" />
    <glyph glyph-name="multiply" unicode="&#xd7;" horiz-adv-x="1276" 
d="M462 616l-342 320l206 203l314 -351l312 351l201 -201l-335 -322l335 -319l-201 -201l-312 349l-312 -349l-200 200z" />
    <glyph glyph-name="Oslash" unicode="&#xd8;" horiz-adv-x="1506" 
d="M751 128q121 0 186 169t65 450t-36 428l-358 -974q56 -73 143 -73zM754 1392q-251 0 -251 -629q0 -266 40 -414l354 978q-54 65 -143 65zM48 761q0 359 190.5 570.5t522.5 211.5q113 -2 187 -16l90 235l171 -50l-91 -238q340 -157 340 -684q0 -363 -192.5 -587
t-520.5 -226q-102 0 -190 17l-94 -243l-184 49l97 255q-326 172 -326 706z" />
    <glyph glyph-name="Ugrave" unicode="&#xd9;" horiz-adv-x="1530" 
d="M833 1593q-69 18 -198 100t-194 161l242 160h1l295 -319l-145 -102h-1zM862 141q278 0 278 434v755l-179 30v162h560v-162l-127 -30v-732q0 -318 -160 -466t-436 -148q-490 0 -612 340q-42 118 -43 285v721l-119 30v162h719v-162l-170 -34v-751q0 -434 289 -434z" />
    <glyph glyph-name="Uacute" unicode="&#xda;" horiz-adv-x="1530" 
d="M646 1695l295 319h1l242 -160q-88 -92 -209 -168t-184 -93h-1zM862 141q278 0 278 434v755l-179 30v162h560v-162l-127 -30v-732q0 -318 -160 -466t-436 -148q-490 0 -612 340q-42 118 -43 285v721l-119 30v162h719v-162l-170 -34v-751q0 -434 289 -434z" />
    <glyph glyph-name="Ucircumflex" unicode="&#xdb;" horiz-adv-x="1530" 
d="M862 141q278 0 278 434v755l-179 30v162h560v-162l-127 -30v-732q0 -318 -160 -466t-436 -148q-490 0 -612 340q-42 118 -43 285v721l-119 30v162h719v-162l-170 -34v-751q0 -434 289 -434zM385 1704l325 300h209l323 -299l-126 -109l-302 185l-303 -185z" />
    <glyph glyph-name="Udieresis" unicode="&#xdc;" horiz-adv-x="1530" 
d="M504 1626q-70 0 -115 51q-46 51 -46 107q0 217 196 217h1q136 0 172 -105q10 -32 10 -70q0 -88 -54 -144t-163 -56h-1zM1054 1626q-67 0 -114 54q-48 54 -48 108q0 101 49 157t147 56h1q137 0 173 -105q10 -32 10 -70q0 -87 -54 -143q-54 -57 -163 -57h-1zM862 141
q278 0 278 434v755l-179 30v162h560v-162l-127 -30v-732q0 -318 -160 -466t-436 -148q-490 0 -612 340q-42 118 -43 285v721l-119 30v162h719v-162l-170 -34v-751q0 -434 289 -434z" />
    <glyph glyph-name="Yacute" unicode="&#xdd;" horiz-adv-x="1322" 
d="M-59 1522h704v-162l-122 -31l208 -431l42 -122l43 120l183 434l-151 30v162h551v-162l-121 -25l-377 -715v-445l213 -23v-152h-860v152l203 24v443l-406 712l-110 29v162zM533 1695l295 319h1l242 -160q-88 -92 -209 -168t-184 -93h-1z" />
    <glyph glyph-name="Thorn" unicode="&#xde;" horiz-adv-x="1397" 
d="M766 466q71 0 116 87t45 225q0 179 -68 222t-126 43t-108 -14v-554q43 -9 141 -9zM856 315q-118 0 -231 15v-155l205 -25v-150h-776v150l154 24v1156l-156 32v160h737l2 -161l-166 -31v-148q38 3 120.5 12t165.5 9q228 0 339 -100t111 -311q0 -358 -193.5 -417.5
t-311.5 -59.5z" />
    <glyph glyph-name="germandbls" unicode="&#xdf;" horiz-adv-x="1393" 
d="M758 1449q-214 0 -214 -435v-1014h-503v152l102 22v800q0 271 177 456t495 185t370.5 -104.5t52.5 -164.5t-17 -100t-42 -69.5t-97 -82.5t-72 -107t26.5 -87.5t65.5 -71t151 -141t112 -322.5q0 -273 -192.5 -330.5t-304.5 -57.5t-198 23v186q52 -26 106 -26
q86 0 124 45.5t38 110.5q0 66 -18.5 115.5t-45.5 90t-105 124.5t-78 160t14 110.5t35 63t81 94.5t60 231q0 144 -123 144z" />
    <glyph glyph-name="agrave" unicode="&#xe0;" horiz-adv-x="1181" 
d="M487 240q34 -51 95 -51q29 0 62 16t54 40v315q-130 0 -187 -54q-58 -54 -58 -134q0 -81 34 -132zM1164 4q-142 -30 -245 -30t-131 6t-50 26q-21 19 -21 90v38q-75 -105 -215 -143q-52 -14 -118 -14t-130 24t-110 69q-48 44 -76 110t-28 152q0 179 166 278
q166 100 492 100v32q0 95 -26 125q-26 29 -62 39t-98 11q-108 0 -182 -21q-75 -21 -164 -56h-1l-79 168q123 94 342 140q87 18 202 19q238 1 336 -97t98 -332v-586h100v-148zM621 1286q-99 37 -243 153t-203 217l217 199h1l380 -452l-149 -117h-3z" />
    <glyph glyph-name="aacute" unicode="&#xe1;" horiz-adv-x="1181" 
d="M487 240q34 -51 95 -51q29 0 62 16t54 40v315q-130 0 -187 -54q-58 -54 -58 -134q0 -81 34 -132zM1164 4q-142 -30 -245 -30t-131 6t-50 26q-21 19 -21 90v38q-75 -105 -215 -143q-52 -14 -118 -14t-130 24t-110 69q-48 44 -76 110t-28 152q0 179 166 278
q166 100 492 100v32q0 95 -26 125q-26 29 -62 39t-98 11q-108 0 -182 -21q-75 -21 -164 -56h-1l-79 168q123 94 342 140q87 18 202 19q238 1 336 -97t98 -332v-586h100v-148zM367 1403l381 452h1l217 -199q-79 -134 -292 -283q-89 -62 -155 -87h-2z" />
    <glyph glyph-name="acircumflex" unicode="&#xe2;" horiz-adv-x="1181" 
d="M487 240q34 -51 95 -51q29 0 62 16t54 40v315q-130 0 -187 -54q-58 -54 -58 -134q0 -81 34 -132zM1164 4q-142 -30 -245 -30t-131 6t-50 26q-21 19 -21 90v38q-75 -105 -215 -143q-52 -14 -118 -14t-130 24t-110 69q-48 44 -76 110t-28 152q0 179 166 278
q166 100 492 100v32q0 95 -26 125q-26 29 -62 39t-98 11q-108 0 -182 -21q-75 -21 -164 -56h-1l-79 168q123 94 342 140q87 18 202 19q238 1 336 -97t98 -332v-586h100v-148zM162 1398l324 403h198l330 -402l-126 -109l-301 238l-303 -239z" />
    <glyph glyph-name="atilde" unicode="&#xe3;" horiz-adv-x="1181" 
d="M487 240q34 -51 95 -51q29 0 62 16t54 40v315q-130 0 -187 -54q-58 -54 -58 -134q0 -81 34 -132zM1164 4q-142 -30 -245 -30t-131 6t-50 26q-21 19 -21 90v38q-75 -105 -215 -143q-52 -14 -118 -14t-130 24t-110 69q-48 44 -76 110t-28 152q0 179 166 278
q166 100 492 100v32q0 95 -26 125q-26 29 -62 39t-98 11q-108 0 -182 -21q-75 -21 -164 -56h-1l-79 168q123 94 342 140q87 18 202 19q238 1 336 -97t98 -332v-586h100v-148zM434 1715q78 1 129 -29t78 -50t70 -50t94 -29q81 0 157 82l107 -95q-59 -101 -105 -142
q-97 -87 -213 -87q-77 -1 -127 29t-78 50t-71 50q-44 30 -87 29q-64 0 -99 -22t-74 -60l-106 94q129 230 325 230z" />
    <glyph glyph-name="adieresis" unicode="&#xe4;" horiz-adv-x="1181" 
d="M487 240q34 -51 95 -51q29 0 62 16t54 40v315q-130 0 -187 -54q-58 -54 -58 -134q0 -81 34 -132zM1164 4q-142 -30 -245 -30t-131 6t-50 26q-21 19 -21 90v38q-75 -105 -215 -143q-52 -14 -118 -14t-130 24t-110 69q-48 44 -76 110t-28 152q0 179 166 278
q166 100 492 100v32q0 95 -26 125q-26 29 -62 39t-98 11q-108 0 -182 -21q-75 -21 -164 -56h-1l-79 168q123 94 342 140q87 18 202 19q238 1 336 -97t98 -332v-586h100v-148zM295 1324q-70 0 -117 52q-46 52 -46 111q0 107 49 166t147 59h1q137 0 173 -109q10 -33 10 -73
q0 -91 -54 -148q-54 -58 -162 -58h-1zM822 1324q-68 0 -114 57q-47 57 -47 111q0 104 49 162t147 58h1q136 0 172 -109q10 -33 10 -73q0 -90 -53 -148t-164 -58h-1z" />
    <glyph glyph-name="aring" unicode="&#xe5;" horiz-adv-x="1181" 
d="M487 240q34 -51 95 -51q29 0 62 16t54 40v315q-130 0 -187 -54q-58 -54 -58 -134q0 -81 34 -132zM1164 4q-142 -30 -245 -30t-131 6t-50 26q-21 19 -21 90v38q-75 -105 -215 -143q-52 -14 -118 -14t-130 24t-110 69q-48 44 -76 110t-28 152q0 179 166 278
q166 100 492 100v32q0 95 -26 125q-26 29 -62 39t-98 11q-108 0 -182 -21q-75 -21 -164 -56h-1l-79 168q123 94 342 140q87 18 202 19q238 1 336 -97t98 -332v-586h100v-148zM419 1612q0 -174 162 -174h1q90 0 126 34t36 87q0 92 -39 134t-122 42h-1q-89 0 -126 -36
q-37 -35 -37 -87zM576 1282q-194 0 -283 85t-87 227q2 141 114 221q112 79 273 79h1q272 0 341 -184q21 -56 21 -127q-1 -139 -107 -220t-272 -81h-1z" />
    <glyph glyph-name="ae" unicode="&#xe6;" horiz-adv-x="1778" 
d="M468 372q0 -96 32 -139.5t82 -43.5t92 27t68 65q-46 121 -46 285q-182 -5 -205 -83t-23 -111zM1346 760q0 125 -18 170.5t-40.5 63t-55.5 17.5q-73 0 -109 -67.5t-38 -267.5h259v16zM382 -23q-142 0 -241.5 89t-99.5 263q0 173 165 276t499 105v28q0 89 -41 130t-183 41
t-328 -72l-80 170q107 93 272.5 126.5t265.5 33.5q234 0 315 -91q136 91 336 91q342 0 403 -161t61 -275t-16 -204h-620q14 -162 81 -237t199 -75t284 76l62 -139q-50 -57 -183.5 -116t-273.5 -59q-322 0 -460 197q-92 -138 -221.5 -167.5t-195.5 -29.5z" />
    <glyph glyph-name="ccedilla" unicode="&#xe7;" horiz-adv-x="1077" 
d="M434 -309h1q74 0 105 25t31 102q0 78 -47 163q-240 23 -353.5 178t-113.5 420t166 427t429 162q153 0 249 -30.5t123 -31.5l-17 -399h-243l-57 249q-11 46 -78 46q-68 0 -108.5 -82.5t-40.5 -291.5t55 -314t157 -105q149 0 272 72l63 -139q-67 -77 -164.5 -112
t-161.5 -45q129 -135 122 -282q-11 -196 -131 -219.5t-196 -23.5h-1q-79 0 -144 30l1 214q39 -13 82 -13z" />
    <glyph glyph-name="egrave" unicode="&#xe8;" 
d="M716 760q0 127 -18 172t-40 62t-56 17q-72 0 -108 -68t-38 -267h259v18l1 48v18zM736 215q128 0 277 78l66 -141q-50 -57 -141 -97q-175 -78 -324 -78q-290 0 -426 157q-135 157 -135 440q0 282 153 437q153 156 420 156q226 0 343 -109q118 -109 122 -311
q0 -120 -19 -220h-612q16 -162 82 -237t194 -75zM631 1286q-99 37 -243 153t-203 217l217 199h1l380 -452l-149 -117h-3z" />
    <glyph glyph-name="eacute" unicode="&#xe9;" 
d="M377 1403l381 452h1l217 -199q-79 -134 -292 -283q-89 -62 -155 -87h-2zM716 760q0 127 -18 172t-40 62t-56 17q-72 0 -108 -68t-38 -267h259v18l1 48v18zM736 215q128 0 277 78l66 -141q-50 -57 -141 -97q-175 -78 -324 -78q-290 0 -426 157q-135 157 -135 440
q0 282 153 437q153 156 420 156q226 0 343 -109q118 -109 122 -311q0 -120 -19 -220h-612q16 -162 82 -237t194 -75z" />
    <glyph glyph-name="ecircumflex" unicode="&#xea;" 
d="M171 1398l324 403h198l330 -402l-126 -109l-301 238l-303 -239zM716 760q0 127 -18 172t-40 62t-56 17q-72 0 -108 -68t-38 -267h259v18l1 48v18zM736 215q128 0 277 78l66 -141q-50 -57 -141 -97q-175 -78 -324 -78q-290 0 -426 157q-135 157 -135 440q0 282 153 437
q153 156 420 156q226 0 343 -109q118 -109 122 -311q0 -120 -19 -220h-612q16 -162 82 -237t194 -75z" />
    <glyph glyph-name="edieresis" unicode="&#xeb;" 
d="M309 1324q-70 0 -117 52q-46 52 -46 111q0 107 49 166t147 59h1q137 0 173 -109q10 -33 10 -73q0 -91 -54 -148q-54 -58 -162 -58h-1zM836 1324q-68 0 -114 57q-47 57 -47 111q0 104 49 162t147 58h1q136 0 172 -109q10 -33 10 -73q0 -90 -53 -148t-164 -58h-1zM716 760
q0 127 -18 172t-40 62t-56 17q-72 0 -108 -68t-38 -267h259v18l1 48v18zM736 215q128 0 277 78l66 -141q-50 -57 -141 -97q-175 -78 -324 -78q-290 0 -426 157q-135 157 -135 440q0 282 153 437q153 156 420 156q226 0 343 -109q118 -109 122 -311q0 -120 -19 -220h-612
q16 -162 82 -237t194 -75z" />
    <glyph glyph-name="igrave" unicode="&#xec;" horiz-adv-x="751" 
d="M697 0h-616v152l112 20v723l-131 40v177l456 55h5l68 -47v-948l106 -20v-152zM403 1286q-99 37 -243 153t-203 217l217 199h1l380 -452l-149 -117h-3z" />
    <glyph glyph-name="iacute" unicode="&#xed;" horiz-adv-x="751" 
d="M149 1403l381 452h1l217 -199q-79 -134 -292 -283q-89 -62 -155 -87h-2zM697 0h-616v152l112 20v723l-131 40v177l456 55h5l68 -47v-948l106 -20v-152z" />
    <glyph glyph-name="icircumflex" unicode="&#xee;" horiz-adv-x="751" 
d="M-56 1398l324 403h198l330 -402l-126 -109l-301 238l-303 -239zM697 0h-616v152l112 20v723l-131 40v177l456 55h5l68 -47v-948l106 -20v-152z" />
    <glyph glyph-name="idieresis" unicode="&#xef;" horiz-adv-x="751" 
d="M82 1324q-70 0 -117 52q-46 52 -46 111q0 107 49 166t147 59h1q136 0 172 -109q10 -33 11 -73q0 -91 -54 -148q-54 -58 -162 -58h-1zM609 1324q-68 0 -114 57q-47 57 -47 111q0 104 49 162t147 58h1q135 0 171 -109q10 -33 11 -73q0 -90 -53 -148t-164 -58h-1zM697 0
h-616v152l112 20v723l-131 40v177l456 55h5l68 -47v-948l106 -20v-152z" />
    <glyph glyph-name="eth" unicode="&#xf0;" horiz-adv-x="1260" 
d="M636 140q81 0 121.5 107.5t40.5 318.5q0 288 -36 402q-54 45 -108 45t-110.5 -42.5t-56.5 -362.5t55 -394t94 -74zM1208 729q0 -127 -12 -211.5t-56 -210t-175.5 -228t-345.5 -102.5q-265 0 -412 156.5t-147 437.5t157 439t369 158q103 0 175 -29q-43 190 -230 323
l-125 -173l-154 104l135 172q-132 81 -205 98l66 158q158 -34 273 -87q118 158 126 170l147 -112q-84 -109 -116 -148q364 -246 447 -517t83 -398z" />
    <glyph glyph-name="ntilde" unicode="&#xf1;" horiz-adv-x="1443" 
d="M966 1162q178 0 255 -98q76 -98 76 -340v-551l100 -19v-154h-592v152l85 21v550q0 128 -20 164q-20 37 -45 47q-24 10 -60 10q-82 0 -166 -70v-702l100 -20v-152h-608v152l103 20v723l-109 39v184l413 49h5l60 -47v-69l-2 -48q164 159 405 159zM595 1715q78 1 129 -29
t78 -50t70 -50t94 -29q81 0 157 82l107 -95q-59 -101 -105 -142q-97 -87 -213 -87q-77 -1 -127 29q-49 30 -77 50t-72 50t-87 29q-64 0 -99 -22t-74 -60l-106 94q129 230 325 230z" />
    <glyph glyph-name="ograve" unicode="&#xf2;" horiz-adv-x="1270" 
d="M640 134q150 0 150 373q0 298 -36 401t-121 103q-154 0 -154 -424q0 -353 90 -427q31 -26 71 -26zM223 1014q169 154 428 154q258 0 412 -150t154 -446q-1 -297 -177 -455q-156 -140 -416 -140t-415 150t-155 442q0 291 169 445zM666 1286q-99 37 -243 153t-203 217
l217 199h1l380 -452l-149 -117h-3z" />
    <glyph glyph-name="oacute" unicode="&#xf3;" horiz-adv-x="1270" 
d="M412 1403l381 452h1l217 -199q-79 -134 -292 -283q-89 -62 -155 -87h-2zM640 134q150 0 150 373q0 298 -36 401t-121 103q-154 0 -154 -424q0 -353 90 -427q31 -26 71 -26zM223 1014q169 154 428 154q258 0 412 -150t154 -446q-1 -297 -177 -455q-156 -140 -416 -140
t-415 150t-155 442q0 291 169 445z" />
    <glyph glyph-name="ocircumflex" unicode="&#xf4;" horiz-adv-x="1270" 
d="M206 1398l324 403h198l330 -402l-126 -109l-301 238l-303 -239zM640 134q150 0 150 373q0 298 -36 401t-121 103q-154 0 -154 -424q0 -353 90 -427q31 -26 71 -26zM223 1014q169 154 428 154q258 0 412 -150t154 -446q-1 -297 -177 -455q-156 -140 -416 -140t-415 150
t-155 442q0 291 169 445z" />
    <glyph glyph-name="otilde" unicode="&#xf5;" horiz-adv-x="1270" 
d="M640 134q150 0 150 373q0 298 -36 401t-121 103q-154 0 -154 -424q0 -353 90 -427q31 -26 71 -26zM223 1014q169 154 428 154q258 0 412 -150t154 -446q-1 -297 -177 -455q-156 -140 -416 -140t-415 150t-155 442q0 291 169 445zM479 1715q78 1 129 -29t78 -50t70 -50
t94 -29q81 0 157 82l107 -95q-59 -101 -105 -142q-97 -87 -213 -87q-77 -1 -127 29q-49 30 -77 50t-72 50t-87 29q-64 0 -99 -22t-74 -60l-106 94q129 230 325 230z" />
    <glyph glyph-name="odieresis" unicode="&#xf6;" horiz-adv-x="1270" 
d="M344 1324q-70 0 -117 52q-46 52 -46 111q0 107 49 166t147 59h1q136 0 172 -109q10 -33 11 -73q0 -91 -54 -148q-54 -58 -162 -58h-1zM871 1324q-68 0 -114 57q-47 57 -47 111q0 104 49 162t147 58h1q135 0 171 -109q10 -33 11 -73q0 -90 -53 -148t-164 -58h-1zM640 134
q150 0 150 373q0 298 -36 401t-121 103q-154 0 -154 -424q0 -353 90 -427q31 -26 71 -26zM223 1014q169 154 428 154q258 0 412 -150t154 -446q-1 -297 -177 -455q-156 -140 -416 -140t-415 150t-155 442q0 291 169 445z" />
    <glyph glyph-name="divide" unicode="&#xf7;" horiz-adv-x="1353" 
d="M541 302.5q59 50.5 144 50.5t136 -50t51 -107q0 -97 -58 -144t-143 -47q-84 0 -136.5 48.5t-52.5 123.5t59 125.5zM200 727h953v-229h-953v229zM541 946.5q-53 47.5 -53 123.5t58.5 126.5t143.5 50.5t135.5 -49.5t50.5 -106.5t-15.5 -90t-57.5 -67.5t-126 -34.5
q-83 0 -136 47.5z" />
    <glyph glyph-name="oslash" unicode="&#xf8;" horiz-adv-x="1269" 
d="M633 134q47 0 101.5 47.5t54.5 376.5q0 183 -18 278l-219 -661q34 -41 81 -41zM640 1011q-85 0 -123.5 -101t-38.5 -306q0 -204 22 -307l221 672q-35 42 -81 42zM53 586q0 130 47.5 245.5t169 226t380.5 110.5q57 0 101 -7l81 243l164 -47l-76 -242q213 -97 254.5 -262
t41.5 -299t-91.5 -355.5t-505.5 -221.5q-34 0 -89 5l-98 -272l-169 48l95 269q-220 94 -262.5 261.5t-42.5 297.5z" />
    <glyph glyph-name="ugrave" unicode="&#xf9;" horiz-adv-x="1330" 
d="M1004 -23q-154 0 -154 139v33q-42 -69 -137 -121q-95 -51 -197 -51q-205 0 -292 98t-87 330v558l-88 25v148l434 27h3l46 -28v-751q0 -112 22 -146t46 -44q23 -10 55 -10q82 0 149 59v720l-118 29v145l455 26h6l52 -28v-975h101v-149l-50 -10q-120 -24 -246 -24z
M713 1286q-99 37 -243 153t-203 217l217 199h1l380 -452l-149 -117h-3z" />
    <glyph glyph-name="uacute" unicode="&#xfa;" horiz-adv-x="1330" 
d="M459 1403l381 452h1l217 -199q-79 -134 -292 -283q-89 -62 -155 -87h-2zM1004 -23q-154 0 -154 139v33q-42 -69 -137 -121q-95 -51 -197 -51q-205 0 -292 98t-87 330v558l-88 25v148l434 27h3l46 -28v-751q0 -112 22 -146t46 -44q23 -10 55 -10q82 0 149 59v720l-118 29
v145l455 26h6l52 -28v-975h101v-149l-50 -10q-120 -24 -246 -24z" />
    <glyph glyph-name="ucircumflex" unicode="&#xfb;" horiz-adv-x="1330" 
d="M254 1398l324 403h198l330 -402l-126 -109l-301 238l-303 -239zM1004 -23q-154 0 -154 139v33q-42 -69 -137 -121q-95 -51 -197 -51q-205 0 -292 98t-87 330v558l-88 25v148l434 27h3l46 -28v-751q0 -112 22 -146t46 -44q23 -10 55 -10q82 0 149 59v720l-118 29v145
l455 26h6l52 -28v-975h101v-149l-50 -10q-120 -24 -246 -24z" />
    <glyph glyph-name="udieresis" unicode="&#xfc;" horiz-adv-x="1330" 
d="M363 1324q-70 0 -117 52q-46 52 -46 111q0 107 49 166t147 59h1q137 0 173 -109q10 -33 10 -73q0 -91 -54 -148q-54 -58 -162 -58h-1zM890 1324q-68 0 -114 57q-47 57 -47 111q0 104 49 162t147 58h1q136 0 172 -109q10 -33 10 -73q0 -90 -53 -148t-164 -58h-1zM1004 -23
q-154 0 -154 139v33q-42 -69 -137 -121q-95 -51 -197 -51q-205 0 -292 98t-87 330v558l-88 25v148l434 27h3l46 -28v-751q0 -112 22 -146t46 -44q23 -10 55 -10q82 0 149 59v720l-118 29v145l455 26h6l52 -28v-975h101v-149l-50 -10q-120 -24 -246 -24z" />
    <glyph glyph-name="yacute" unicode="&#xfd;" horiz-adv-x="1173" 
d="M124 -205q39 -34 184 -34q86 0 152 73q44 49 89 166h-129l-382 967l-87 24v147h658v-147l-134 -24l154 -516l44 -162l32 162l145 517l-117 23v147h488v-147l-94 -23q-74 -226 -177 -517q-104 -290 -135 -379t-54 -151t-69 -153t-102 -153q-56 -61 -128 -93
q-70 -32 -178 -32t-160 24v281zM385 1403l381 452h1l217 -199q-79 -134 -292 -283q-89 -62 -155 -87h-2z" />
    <glyph glyph-name="thorn" unicode="&#xfe;" horiz-adv-x="1311" 
d="M539 147q21 -34 82 -34t138.5 58.5t77.5 396.5q4 373 -168 373q-83 0 -130 -59v-735zM539 1046q113 122 303 122q68 0 148.5 -31t172.5 -137t92 -388q0 -281 -169.5 -458t-457.5 -177q-48 0 -94 2l6 -118v-188l174 -28v-141h-678v141l117 27v1790l-134 30v135l439 53h5
l76 -46v-588z" />
    <glyph glyph-name="ydieresis" unicode="&#xff;" horiz-adv-x="1173" 
d="M124 -205q39 -34 184 -34q86 0 152 73q44 49 89 166h-129l-382 967l-87 24v147h658v-147l-134 -24l154 -516l44 -162l32 162l145 517l-117 23v147h488v-147l-94 -23q-74 -226 -177 -517q-104 -290 -135 -379t-54 -151t-69 -153t-102 -153q-56 -61 -128 -93
q-70 -32 -178 -32t-160 24v281zM313 1324q-70 0 -117 52q-46 52 -46 111q0 107 49 166t147 59h1q137 0 173 -109q10 -33 10 -73q0 -91 -54 -148q-54 -58 -162 -58h-1zM840 1324q-68 0 -114 57q-47 57 -47 111q0 104 49 162t147 58h1q136 0 172 -109q10 -33 10 -73
q0 -90 -53 -148t-164 -58h-1z" />
    <glyph glyph-name="Amacron" unicode="&#x100;" horiz-adv-x="1465" 
d="M829 565l-155 588l-22 126l-24 -126l-147 -588h348zM1496 0h-697v152l133 23l-58 217h-436l-56 -222l152 -18v-152h-574l-3 152l115 24l437 1349h442l438 -1350l107 -23v-152zM378 1918h696v-220h-696v220z" />
    <glyph glyph-name="amacron" unicode="&#x101;" horiz-adv-x="1181" 
d="M487 240q34 -51 95 -51q29 0 62 16t54 40v315q-130 0 -187 -54q-58 -54 -58 -134q0 -81 34 -132zM1164 4q-142 -30 -245 -30t-131 6t-50 26q-21 19 -21 90v38q-75 -105 -215 -143q-52 -14 -118 -14t-130 24t-110 69q-48 44 -76 110t-28 152q0 179 166 278
q166 100 492 100v32q0 95 -26 125q-26 29 -62 39t-98 11q-108 0 -182 -21q-75 -21 -164 -56h-1l-79 168q123 94 342 140q87 18 202 19q238 1 336 -97t98 -332v-586h100v-148zM250 1634h671v-220h-671v220z" />
    <glyph glyph-name="Abreve" unicode="&#x102;" horiz-adv-x="1465" 
d="M829 565l-155 588l-22 126l-24 -126l-147 -588h348zM1496 0h-697v152l133 23l-58 217h-436l-56 -222l152 -18v-152h-574l-3 152l115 24l437 1349h442l438 -1350l107 -23v-152zM431 1716q-105 101 -105 246v24t2 23h185q0 -105 118 -147q39 -14 101 -15q110 0 160 46
q49 46 49 107v9h191q2 -11 2 -22v-23q0 -144 -105 -247q-105 -102 -300 -102q-193 0 -298 101z" />
    <glyph glyph-name="abreve" unicode="&#x103;" horiz-adv-x="1181" 
d="M487 240q34 -51 95 -51q29 0 62 16t54 40v315q-130 0 -187 -54q-58 -54 -58 -134q0 -81 34 -132zM1164 4q-142 -30 -245 -30t-131 6t-50 26q-21 19 -21 90v38q-75 -105 -215 -143q-52 -14 -118 -14t-130 24t-110 69q-48 44 -76 110t-28 152q0 179 166 278
q166 100 492 100v32q0 95 -26 125q-26 29 -62 39t-98 11q-108 0 -182 -21q-75 -21 -164 -56h-1l-79 168q123 94 342 140q87 18 202 19q238 1 336 -97t98 -332v-586h100v-148zM973 1660q0 -149 -109 -247t-281 -98t-281 98t-109 246v31q0 68 4 83h174q-1 -150 123 -192
q38 -13 94 -13q212 0 211 205h170z" />
    <glyph glyph-name="Aogonek" unicode="&#x104;" horiz-adv-x="1465" 
d="M827 565l-155 588l-22 126l-24 -126l-147 -588h348zM1438 -448q-88 -67 -284 -67q-116 0 -197 58t-81 151t83.5 179.5t221.5 126.5h-384v152l133 23l-58 217h-436l-56 -222l152 -18v-152h-574l-3 152l115 24l437 1349h442l438 -1350l107 -23v-152h-103
q-150 -51 -181.5 -117.5t-31.5 -102.5t38.5 -61.5t103.5 -25.5t118 22v-163z" />
    <glyph glyph-name="aogonek" unicode="&#x105;" horiz-adv-x="1181" 
d="M487 240.5q34 -51.5 95 -51.5q29 0 62 16t54 40v315q-130 0 -187.5 -53.5t-57.5 -134.5q0 -80 34 -131.5zM1157 -448q-87 -67 -277 -67q-114 0 -188.5 57.5t-74.5 152.5q0 122 102 187.5t163 91.5h-21q-88 0 -110.5 20.5t-28 44t-5.5 57.5v38q-75 -105 -171 -131
t-162 -26q-143 0 -243.5 95.5t-100.5 257.5q0 275 245.5 327.5t412.5 52.5v32q0 95 -26 124.5t-63 40t-97 10.5q-108 0 -182.5 -20.5t-163.5 -56.5h-1l-79 168q123 94 276 126.5t268 32.5q239 0 336.5 -97.5t97.5 -331.5v-586h100v-148q-103 -24 -171.5 -91t-68.5 -115
t31 -76.5t90 -28.5t112 22v-163z" />
    <glyph glyph-name="Cacute" unicode="&#x106;" horiz-adv-x="1364" 
d="M46 749q0 183 58 331t160 250q210 208 552 208q128 0 295 -22t199 -23l-27 -502h-259l-78 343q-42 42 -128 42t-138 -36q-167 -113 -167 -566q1 -452 165 -588q54 -45 110 -45q87 0 123 15t63 44l98 230l234 -20l-33 -354q-55 -6 -148 -30q-93 -25 -161 -37t-220 -12
q-152 1 -290 55t-228 154t-136 240q-44 141 -44 323zM633 1695l295 319h1l242 -160q-88 -92 -209 -168t-184 -93h-1z" />
    <glyph glyph-name="cacute" unicode="&#x107;" horiz-adv-x="1077" 
d="M401 1401l381 452h1l217 -199q-79 -134 -292 -283q-89 -62 -155 -87h-2zM692 209q149 0 272 72l63 -139q-82 -98 -269 -146q-70 -18 -186 -19q-116 0 -220 44q-296 126 -295 542q0 281 166 443t429 162q154 0 314 -51q32 -10 58 -11l-17 -399h-243l-57 249q-11 46 -78 46
q-68 0 -109 -83q-40 -83 -40 -291q0 -209 54 -314q56 -105 158 -105z" />
    <glyph glyph-name="Ccircumflex" unicode="&#x108;" horiz-adv-x="1364" 
d="M46 749q0 183 58 331t160 250q210 208 552 208q128 0 295 -22t199 -23l-27 -502h-259l-78 343q-42 42 -128 42t-138 -36q-167 -113 -167 -566q1 -452 165 -588q54 -45 110 -45q87 0 123 15t63 44l98 230l234 -20l-33 -354q-55 -6 -148 -30q-93 -25 -161 -37t-220 -12
q-152 1 -290 55t-228 154t-136 240q-44 141 -44 323zM363 1704l325 300h209l323 -299l-126 -109l-302 185l-303 -185z" />
    <glyph glyph-name="ccircumflex" unicode="&#x109;" horiz-adv-x="1077" 
d="M198 1396l324 403h198l330 -402l-126 -109l-301 238l-303 -239zM692 209q149 0 272 72l63 -139q-82 -98 -269 -146q-70 -18 -186 -19q-116 0 -220 44q-296 126 -295 542q0 281 166 443t429 162q154 0 314 -51q32 -10 58 -11l-17 -399h-243l-57 249q-11 46 -78 46
q-68 0 -109 -83q-40 -83 -40 -291q0 -209 54 -314q56 -105 158 -105z" />
    <glyph glyph-name="Cdotaccent" unicode="&#x10a;" horiz-adv-x="1364" 
d="M777 1638q-83 0 -137 48t-54 130t54 134t157 51h1q99 0 152 -47q53 -46 53 -128t-55 -135t-170 -53h-1zM46 749q0 183 58 331t160 250q210 208 552 208q128 0 295 -22t199 -23l-27 -502h-259l-78 343q-42 42 -128 42t-138 -36q-167 -113 -167 -566q1 -452 165 -588
q54 -45 110 -45q87 0 123 15t63 44l98 230l234 -20l-33 -354q-55 -6 -148 -30q-93 -25 -161 -37t-220 -12q-152 1 -290 55t-228 154t-136 240q-44 141 -44 323z" />
    <glyph glyph-name="cdotaccent" unicode="&#x10b;" horiz-adv-x="1077" 
d="M692 209q149 0 272 72l63 -139q-82 -98 -269 -146q-70 -18 -186 -19q-116 0 -220 44q-296 126 -295 542q0 281 166 443t429 162q154 0 314 -51q32 -10 58 -11l-17 -399h-243l-57 249q-11 46 -78 46q-68 0 -109 -83q-40 -83 -40 -291q0 -209 54 -314q56 -105 158 -105z
M591 1299q-88 0 -145 53q-56 53 -56 140t60 150t164 63h1q151 0 197 -114q14 -35 14 -77q0 -94 -61 -154q-61 -61 -173 -61h-1z" />
    <glyph glyph-name="Ccaron" unicode="&#x10c;" horiz-adv-x="1364" 
d="M46 749q0 183 58 331t160 250q210 208 552 208q128 0 295 -22t199 -23l-27 -502h-259l-78 343q-42 42 -128 42t-138 -36q-167 -113 -167 -566q1 -452 165 -588q54 -45 110 -45q87 0 123 15t63 44l98 230l234 -20l-33 -354q-55 -6 -148 -30q-93 -25 -161 -37t-220 -12
q-152 1 -290 55t-228 154t-136 240q-44 141 -44 323zM384 1906l126 108l283 -174l302 174l126 -109l-323 -289h-209z" />
    <glyph glyph-name="ccaron" unicode="&#x10d;" horiz-adv-x="1077" 
d="M198 1693l121 108l302 -246l303 247l125 -109l-330 -403h-198zM692 209q149 0 272 72l63 -139q-82 -98 -269 -146q-70 -18 -186 -19q-116 0 -220 44q-296 126 -295 542q0 281 166 443t429 162q154 0 314 -51q32 -10 58 -11l-17 -399h-243l-57 249q-11 46 -78 46
q-68 0 -109 -83q-40 -83 -40 -291q0 -209 54 -314q56 -105 158 -105z" />
    <glyph glyph-name="Dcaron" unicode="&#x10e;" horiz-adv-x="1568" 
d="M378 1906l126 108l283 -174l302 174l126 -109l-323 -289h-209zM740 150q160 0 242 146t82 466q0 614 -337 614q-47 0 -73 -8t-36 -9v-1188q42 -21 122 -21zM767 1533q371 0 561 -183q191 -183 191 -542q0 -360 -210 -596t-573 -228q-73 2 -177 9q-103 7 -145 7h-354v152
l149 24v1154l-145 30v162h346z" />
    <glyph glyph-name="dcaron" unicode="&#x10f;" horiz-adv-x="1603" 
d="M773 979q-27 32 -82 32q-55 -1 -91 -21q-122 -70 -125 -411q-4 -397 168 -397q85 0 130 60v737zM1022 -26q-88 0 -116 5q-84 15 -84 117v46q-46 -74 -136 -120q-91 -45 -185 -45q-201 0 -321 140q-121 140 -121 412q-1 272 153 448q104 119 280 167q88 24 159 24
q72 0 122 -10v296l-191 32v151l496 43h10l72 -56v-1470h99v-150q-150 -30 -237 -30zM1353 1257q0 270 -56 345l9 42l259 56q20 -24 39 -94t19 -173q0 -173 -45 -307t-80 -173l-161 39l-9 26q25 100 25 239z" />
    <glyph glyph-name="Dcroat" unicode="&#x110;" horiz-adv-x="1568" 
d="M740 150q160 0 242 145.5t82 466.5q0 614 -337 614q-47 0 -73 -7.5t-36 -9.5v-497h228v-163h-228v-528q42 -21 122 -21zM767 1533q371 0 561.5 -182.5t190.5 -542.5t-209.5 -596t-573.5 -228q-73 2 -176.5 9t-145.5 7h-354v152l149 24v523h-158v163h158v468l-145 30v162
h346z" />
    <glyph glyph-name="dcroat" unicode="&#x111;" horiz-adv-x="1299" 
d="M773 979q-27 32 -82 32t-134 -45t-82 -387q-4 -397 168 -397q85 0 130 60v737zM1022 -26q-87 0 -143.5 10t-56.5 112v46q-46 -74 -136.5 -119.5t-184.5 -45.5q-201 0 -321.5 140t-120.5 412t128.5 419.5t260 183.5t203.5 36t122 -10v90h-271v142h271v64l-191 32v151
l496 43h10l72 -56v-234h142v-142h-142v-1094h99v-150q-150 -30 -237 -30z" />
    <glyph glyph-name="Emacron" unicode="&#x112;" horiz-adv-x="1351" 
d="M352 1918h696v-220h-696v220zM54 1522h1156l28 -384h-185l-77 210l-351 25v-510l205 5l39 166h154v-534h-154l-37 179l-207 5v-528l384 31l132 267l201 -55l-44 -399h-1238v152l149 23v1154l-155 31v162z" />
    <glyph glyph-name="emacron" unicode="&#x113;" 
d="M716 760q0 127 -18 172t-40 62t-56 17q-72 0 -108 -68t-38 -267h259v18l1 48v18zM736 215q128 0 277 78l66 -141q-50 -57 -141 -97q-175 -78 -324 -78q-290 0 -426 157q-135 157 -135 440q0 282 153 437q153 156 420 156q226 0 343 -109q118 -109 122 -311
q0 -120 -19 -220h-612q16 -162 82 -237t194 -75zM260 1634h671v-220h-671v220z" />
    <glyph glyph-name="Ebreve" unicode="&#x114;" horiz-adv-x="1351" 
d="M404 1716q-105 101 -105 246v24t2 23h185q0 -105 118 -147q40 -14 102 -15q110 0 159 46t49 107v9h191q2 -11 2 -22v-23q0 -144 -105 -247q-105 -102 -300 -102q-193 0 -298 101zM54 1522h1156l28 -384h-185l-77 210l-351 25v-510l205 5l39 166h154v-534h-154l-37 179
l-207 5v-528l384 31l132 267l201 -55l-44 -399h-1238v152l149 23v1154l-155 31v162z" />
    <glyph glyph-name="ebreve" unicode="&#x115;" 
d="M716 760q0 127 -18 172t-40 62t-56 17q-72 0 -108 -68t-38 -267h259v18l1 48v18zM736 215q128 0 277 78l66 -141q-50 -57 -141 -97q-175 -78 -324 -78q-290 0 -426 157q-135 157 -135 440q0 282 153 437q153 156 420 156q226 0 343 -109q118 -109 122 -311
q0 -120 -19 -220h-612q16 -162 82 -237t194 -75zM983 1660q0 -149 -109 -247t-281 -98t-281 98t-109 246v31q0 68 4 83h174q-1 -150 123 -192q38 -13 94 -13q212 0 211 205h170z" />
    <glyph glyph-name="Edotaccent" unicode="&#x116;" horiz-adv-x="1351" 
d="M683 1638q-83 0 -137 48t-54 130t54 134t157 51h1q99 0 152 -47q53 -46 53 -128t-55 -135t-170 -53h-1zM54 1522h1156l28 -384h-185l-77 210l-351 25v-510l205 5l39 166h154v-534h-154l-37 179l-207 5v-528l384 31l132 267l201 -55l-44 -399h-1238v152l149 23v1154
l-155 31v162z" />
    <glyph glyph-name="edotaccent" unicode="&#x117;" 
d="M716 760q0 127 -18 172t-40 62t-56 17q-72 0 -108 -68t-38 -267h259v18l1 48v18zM736 215q128 0 277 78l66 -141q-50 -57 -141 -97q-175 -78 -324 -78q-290 0 -426 157q-135 157 -135 440q0 282 153 437q153 156 420 156q226 0 343 -109q118 -109 122 -311
q0 -120 -19 -220h-612q16 -162 82 -237t194 -75zM566 1301q-88 0 -145 53q-56 53 -56 140t60 150t164 63h1q152 0 198 -114q14 -35 13 -77q0 -94 -61 -154q-61 -61 -173 -61h-1z" />
    <glyph glyph-name="Eogonek" unicode="&#x118;" horiz-adv-x="1351" 
d="M1279 -448q-89 -67 -277 -67q-114 0 -188.5 57t-74.5 152q0 94 74.5 174.5t226.5 131.5h-980v152l149 23v1154l-155 31v162h1156l28 -384h-185l-77 210l-351 25v-510l205 5l39 166h154v-534h-154l-37 179l-207 5v-528l384 31l132 267l201 -55l-44 -399h-14
q-98 -25 -167.5 -89t-69.5 -113q0 -48 30.5 -76.5t89.5 -28.5t112 22v-163z" />
    <glyph glyph-name="eogonek" unicode="&#x119;" horiz-adv-x="1145" 
d="M720 760q0 127 -18 172t-40.5 62t-55.5 17q-72 0 -108 -68t-38 -267h259v4l1 22v58zM1023 -449q-91 -66 -271 -66q-109 0 -190.5 54t-81.5 167t98 184.5t142 94.5q-46 -8 -94 -8q-298 0 -433.5 157.5t-135.5 439.5t152.5 437.5t420.5 155.5q226 0 343.5 -109.5
t121.5 -310.5q0 -120 -19 -220h-612q15 -162 81.5 -237t194.5 -75t277 78l66 -141q-22 -26 -81 -63q-51 -42 -91 -75t-81.5 -82t-41.5 -133q0 -45 32.5 -75.5t90.5 -30.5t112 22v-164z" />
    <glyph glyph-name="Ecaron" unicode="&#x11a;" horiz-adv-x="1351" 
d="M290 1906l126 108l283 -174l302 174l126 -109l-323 -289h-209zM54 1522h1156l28 -384h-185l-77 210l-351 25v-510l205 5l39 166h154v-534h-154l-37 179l-207 5v-528l384 31l132 267l201 -55l-44 -399h-1238v152l149 23v1154l-155 31v162z" />
    <glyph glyph-name="ecaron" unicode="&#x11b;" 
d="M173 1695l121 108l302 -246l303 247l125 -109l-330 -403h-198zM716 760q0 127 -18 172t-40 62t-56 17q-72 0 -108 -68t-38 -267h259v18l1 48v18zM736 215q128 0 277 78l66 -141q-50 -57 -141 -97q-175 -78 -324 -78q-290 0 -426 157q-135 157 -135 440q0 282 153 437
q153 156 420 156q226 0 343 -109q118 -109 122 -311q0 -120 -19 -220h-612q16 -162 82 -237t194 -75z" />
    <glyph glyph-name="Gcircumflex" unicode="&#x11c;" horiz-adv-x="1539" 
d="M817 135q126 0 178 59v414l-158 22v163h658v-163l-94 -16v-532q-41 -2 -105 -18l-144 -36q-630 -153 -920 173q-186 210 -186 551q0 384 209 587q209 204 596 204q249 0 537 -64l-27 -417h-295l-63 284q-38 45 -156 45q-318 0 -318 -619q0 -470 152 -592q55 -44 136 -45z
M393 1704l325 300h209l323 -299l-126 -109l-302 185l-303 -185z" />
    <glyph glyph-name="gcircumflex" unicode="&#x11d;" horiz-adv-x="1316" 
d="M180 1398l324 403h198l330 -402l-126 -109l-301 238l-303 -239zM432 -152q0 -228 214 -228h2q142 0 194 116q18 40 18 110t-42 102t-128 32h-195q-24 0 -46 2q-17 -49 -17 -134zM611 1024q-138 0 -138 -234q0 -124 32 -186t105 -62h1q129 0 129 238q0 128 -29 186t-99 58
h-1zM829 228q455 0 455 -323q0 -142 -104 -252q-142 -149 -415 -192q-83 -13 -166 -13h-1q-293 0 -423 91t-130 237q0 78 55 152t139 107q-94 59 -94 169q1 110 99 185q32 24 71 41q-237 80 -237 357q0 175 154 278t389 103h1q278 0 397 -98q47 64 147 94q32 10 66 9h77
v-284h-193q7 -37 7 -109q1 -72 -31 -147t-98 -129q-139 -112 -404 -112h-1q-95 0 -168 12q-9 -43 -9 -76q0 -60 46 -80t171 -20h200z" />
    <glyph glyph-name="Gbreve" unicode="&#x11e;" horiz-adv-x="1539" 
d="M525 1716q-105 101 -105 246v24t2 23h185q0 -105 118 -147q39 -14 101 -15q110 0 160 46q49 46 49 107v9h191q2 -11 2 -22v-23q0 -144 -105 -247q-105 -102 -300 -102q-193 0 -298 101zM817 135q126 0 178 59v414l-158 22v163h658v-163l-94 -16v-532q-41 -2 -105 -18
l-144 -36q-630 -153 -920 173q-186 210 -186 551q0 384 209 587q209 204 596 204q249 0 537 -64l-27 -417h-295l-63 284q-38 45 -156 45q-318 0 -318 -619q0 -470 152 -592q55 -44 136 -45z" />
    <glyph glyph-name="gbreve" unicode="&#x11f;" horiz-adv-x="1316" 
d="M432 -152q0 -228 214 -228h2q142 0 194 116q18 40 18 110t-42 102t-128 32h-195q-24 0 -46 2q-17 -49 -17 -134zM611 1024q-138 0 -138 -234q0 -124 32 -186t105 -62h1q129 0 129 238q0 128 -29 186t-99 58h-1zM829 228q455 0 455 -323q0 -142 -104 -252
q-142 -149 -415 -192q-83 -13 -166 -13h-1q-293 0 -423 91t-130 237q0 78 55 152t139 107q-94 59 -94 169q1 110 99 185q32 24 71 41q-237 80 -237 357q0 175 154 278t389 103h1q278 0 397 -98q47 64 147 94q32 10 66 9h77v-284h-193q7 -37 7 -109q1 -72 -31 -147t-98 -129
q-139 -112 -404 -112h-1q-95 0 -168 12q-9 -43 -9 -76q0 -60 46 -80t171 -20h200zM991 1660q0 -149 -109 -247t-281 -98t-281 98t-109 246v31q0 68 4 83h174q-1 -150 123 -192q38 -13 94 -13q212 0 211 205h170z" />
    <glyph glyph-name="Gdotaccent" unicode="&#x120;" horiz-adv-x="1539" 
d="M809 1638q-83 0 -137 48t-54 130t54 134t157 51h1q99 0 152 -47q53 -46 53 -128t-55 -135t-170 -53h-1zM817 135q126 0 178 59v414l-158 22v163h658v-163l-94 -16v-532q-41 -2 -105 -18l-144 -36q-630 -153 -920 173q-186 210 -186 551q0 384 209 587q209 204 596 204
q249 0 537 -64l-27 -417h-295l-63 284q-38 45 -156 45q-318 0 -318 -619q0 -470 152 -592q55 -44 136 -45z" />
    <glyph glyph-name="gdotaccent" unicode="&#x121;" horiz-adv-x="1316" 
d="M432 -152q0 -228 214 -228h2q142 0 194 116q18 40 18 110t-42 102t-128 32h-195q-24 0 -46 2q-17 -49 -17 -134zM611 1024q-138 0 -138 -234q0 -124 32 -186t105 -62h1q129 0 129 238q0 128 -29 186t-99 58h-1zM829 228q455 0 455 -323q0 -142 -104 -252
q-142 -149 -415 -192q-83 -13 -166 -13h-1q-293 0 -423 91t-130 237q0 78 55 152t139 107q-94 59 -94 169q1 110 99 185q32 24 71 41q-237 80 -237 357q0 175 154 278t389 103h1q278 0 397 -98q47 64 147 94q32 10 66 9h77v-284h-193q7 -37 7 -109q1 -72 -31 -147t-98 -129
q-139 -112 -404 -112h-1q-95 0 -168 12q-9 -43 -9 -76q0 -60 46 -80t171 -20h200zM575 1301q-88 0 -145 53q-56 53 -56 140t60 150t164 63h1q151 0 197 -114q14 -35 14 -77q0 -94 -61 -154q-61 -61 -173 -61h-1z" />
    <glyph glyph-name="Gcommaaccent" unicode="&#x122;" horiz-adv-x="1539" 
d="M624 -234q0 52 18 78q48 70 161 71h7q119 0 159 -95q32 -76 -8 -178q-39 -102 -108 -166q-31 -28 -52 -36h-4l-123 28l-6 16q29 12 40 84q3 20 3 54t-38 55q-49 36 -49 89zM817 135q126 0 178 59v414l-158 22v163h658v-163l-94 -16v-532q-41 -2 -105 -18l-144 -36
q-630 -153 -920 173q-186 210 -186 551q0 384 209 587q209 204 596 204q249 0 537 -64l-27 -417h-295l-63 284q-38 45 -156 45q-318 0 -318 -619q0 -470 152 -592q55 -44 136 -45z" />
    <glyph glyph-name="gcommaaccent" unicode="&#x123;" horiz-adv-x="1315" 
d="M797 1447q0 -53 -17 -79q-48 -70 -162 -70h-7q-119 0 -159 95q-32 76 8 178q39 102 108 165q31 28 52 37h4l123 -28l6 -16q-29 -12 -39 -78q-10 -67 5 -87t29 -28q49 -36 49 -89zM432 -152q0 -228 214 -228h2q142 0 194 116q18 40 18 110t-42 102t-128 32h-195
q-24 0 -46 2q-17 -49 -17 -134zM611 1024q-138 0 -138 -234q0 -124 32 -186t105 -62h1q129 0 129 238q0 128 -29 186t-99 58h-1zM829 228q455 0 455 -323q0 -142 -104 -252q-142 -149 -415 -192q-83 -13 -166 -13h-1q-293 0 -423 91t-130 237q0 78 55 152t139 107
q-94 59 -94 169q1 110 99 185q32 24 71 41q-237 80 -237 357q0 175 154 278t389 103h1q278 0 397 -98q47 64 147 94q32 10 66 9h77v-284h-193q7 -37 7 -109q1 -72 -31 -147t-98 -129q-139 -112 -404 -112h-1q-95 0 -168 12q-9 -43 -9 -76q0 -60 46 -80t171 -20h200z" />
    <glyph glyph-name="Hcircumflex" unicode="&#x124;" horiz-adv-x="1729" 
d="M70 1522h716v-162l-163 -29v-461h483v460l-150 30v162h710v-162l-146 -29v-1156l146 -23v-152h-709v152l149 24v498h-483v-499l163 -23v-152h-718v152l141 23v1156l-139 29v162zM436 1704l325 300h209l323 -299l-126 -109l-302 185l-303 -185z" />
    <glyph glyph-name="hcircumflex" unicode="&#x125;" horiz-adv-x="1404" 
d="M539 1016q165 146 371 146t278 -103q71 -103 71 -334v-552l116 -21v-152h-607v151l95 21v551q1 125 -19 161t-44 48t-63 12q-97 0 -167 -70v-701l101 -21v-152h-604v152l99 20v1283l-133 30v142l326 38l-45 39l325 300h209l323 -299l-126 -109l-302 185l-213 -130l29 -21
l1 -427z" />
    <glyph glyph-name="Hbar" unicode="&#x126;" horiz-adv-x="1729" 
d="M1104 767v222h-480v-222h480zM209 989h-153v146h153v195l-154 30v162h732v-162l-163 -30v-195h480v195l-150 30v162h721v-162l-155 -29v-196h184v-146h-184v-814l153 -23v-152h-718v152l149 24v396h-480v-396l163 -24v-152h-730v152l152 23v814z" />
    <glyph glyph-name="hbar" unicode="&#x127;" horiz-adv-x="1410" 
d="M743 944q-97 0 -167 -70v-701l101 -21v-152h-604v152l99 20v1059h-152v150h152v74l-133 30v142l452 53h6l68 -50v-249h249v-150h-248v-28l-21 -187q165 146 371 146t277.5 -103.5t71.5 -333.5v-552l116 -21v-152h-607v151l95 21v551q0 125 -19.5 161t-44 48t-62.5 12z
" />
    <glyph glyph-name="Itilde" unicode="&#x128;" horiz-adv-x="870" 
d="M71 1522h734v-162l-162 -30v-1155l162 -25v-150h-731v152l153 24v1154l-156 30v162zM269 2008q79 0 131 -28q54 -28 82 -48t73 -47q45 -28 88 -28t67 9q24 10 42 24t33 31q14 17 28 33l107 -108q-54 -97 -105 -139q-96 -79 -207 -79q-66 0 -118 24t-98 52t-90 52t-82 23
q-40 0 -64 -10q-24 -11 -45 -25q-19 -14 -35 -31t-29 -30l-106 110q121 215 328 215z" />
    <glyph glyph-name="itilde" unicode="&#x129;" horiz-adv-x="751" 
d="M697 0h-616v152l112 20v723l-131 40v177l456 55h5l68 -47v-948l106 -20v-152zM217 1715q78 1 129 -29t78 -50t70 -50t94 -29q81 0 157 82l107 -95q-59 -101 -105 -142q-97 -87 -213 -87q-77 -1 -127 29q-49 30 -77 50t-72 50t-87 29q-64 0 -99 -22t-74 -60l-106 94
q129 230 325 230z" />
    <glyph glyph-name="Imacron" unicode="&#x12a;" horiz-adv-x="870" 
d="M71 1522h734v-162l-162 -30v-1155l162 -25v-150h-731v152l153 24v1154l-156 30v162zM82 1918h696v-220h-696v220z" />
    <glyph glyph-name="imacron" unicode="&#x12b;" horiz-adv-x="751" 
d="M697 0h-616v152l112 20v723l-131 40v177l456 55h5l68 -47v-948l106 -20v-152zM32 1634h671v-220h-671v220z" />
    <glyph glyph-name="Ibreve" unicode="&#x12c;" horiz-adv-x="870" 
d="M71 1522h734v-162l-162 -30v-1155l162 -25v-150h-731v152l153 24v1154l-156 30v162zM135 1716q-105 101 -105 246v24t2 23h185q0 -105 118 -147q39 -14 101 -15q110 0 160 46q49 46 49 107v9h191q2 -11 2 -22v-23q0 -144 -105 -247q-105 -102 -300 -102q-193 0 -298 101z
" />
    <glyph glyph-name="ibreve" unicode="&#x12d;" horiz-adv-x="751" 
d="M697 0h-616v152l112 20v723l-131 40v177l456 55h5l68 -47v-948l106 -20v-152zM756 1660q0 -149 -109 -247t-281 -98t-281 98t-109 246v31q0 68 4 83h174q0 -150 124 -192q38 -13 92 -13q212 0 212 205h170z" />
    <glyph glyph-name="Iogonek" unicode="&#x12e;" horiz-adv-x="870" 
d="M691 -448q-93 -67 -285 -67q-115 0 -196 58t-81 150t80 174t213 133h-348v152l153 24v1154l-156 30v162h734v-162l-162 -30v-1155l162 -25v-150h-161q-90 -32 -148.5 -92.5t-58.5 -109.5q0 -48 35 -76.5t100 -28.5t119 22v-163z" />
    <glyph glyph-name="iogonek" unicode="&#x12f;" horiz-adv-x="751" 
d="M633 -448q-89 -67 -285 -67q-116 0 -196.5 57.5t-80.5 152.5q0 137 112.5 208.5t177.5 96.5h-280v152l112 20v723l-131 40v177l456 55h5l68 -47v-948l106 -20v-152h-91q-103 -33 -165.5 -93.5t-62.5 -108.5t35 -76.5t101 -28.5t119 22v-163zM406 1301q-88 0 -144.5 53
t-56.5 140t60 150t164 63h1q152 0 181.5 -74.5t29.5 -116.5q0 -94 -61 -154.5t-173 -60.5h-1z" />
    <glyph glyph-name="Idotaccent" unicode="&#x130;" horiz-adv-x="870" 
d="M71 1522h734v-162l-162 -30v-1155l162 -25v-150h-731v152l153 24v1154l-156 30v162zM415 1638q-83 0 -137 48t-54 130t54 134t157 51h1q99 0 152 -47q53 -46 53 -128t-55 -135t-170 -53h-1z" />
    <glyph glyph-name="dotlessi" unicode="&#x131;" horiz-adv-x="751" 
d="M697 0h-616v152l112 20v723l-131 40v177l456 55h5l68 -47v-948l106 -20v-152z" />
    <glyph glyph-name="IJ" unicode="&#x132;" horiz-adv-x="1702" 
d="M71 1522h734v-162l-162 -30v-1155l162 -25v-150h-731v152l153 24v1154l-156 30v162zM1107 347v983l-164 30v162h727v-162l-151 -29v-768q0 -422 -29 -520q-55 -185 -200 -302q-145 -116 -380 -152l-89 134q118 44 196 167q44 69 58 131q32 140 32 326z" />
    <glyph glyph-name="ij" unicode="&#x133;" horiz-adv-x="1469" 
d="M1341 22q0 -158 -79 -276t-191 -181q-111 -63 -206 -63q-96 0 -124 8l-19 145q53 0 96 25q70 39 102 140t31 278l1 794l-132 41l1 179l446 55h5l69 -47v-1098zM698 0h-616v152l112 20v723l-131 40v177l456 55h5l68 -47v-948l106 -20v-152zM372 1301q-88 0 -145 53
q-56 53 -56 140t60 150t164 63h1q152 0 198 -114q14 -35 13 -77q0 -94 -61 -154q-61 -61 -173 -61h-1zM1118 1301q-88 0 -145 53q-56 53 -56 140t60 150t164 63h1q152 0 198 -114q14 -35 13 -77q0 -94 -61 -154q-61 -61 -173 -61h-1z" />
    <glyph glyph-name="Jcircumflex" unicode="&#x134;" horiz-adv-x="831" 
d="M237 347v983l-164 30v162h727v-162l-151 -29v-768q0 -422 -29 -520q-55 -185 -200 -302q-145 -116 -380 -152l-89 134q118 44 196 167q44 69 58 131q32 140 32 326zM10 1704l325 300h209l323 -299l-126 -109l-302 185l-303 -185z" />
    <glyph glyph-name="jcircumflex" unicode="&#x135;" horiz-adv-x="715" 
d="M588 22q0 -158 -79 -276t-191 -181q-111 -63 -206 -63q-96 0 -124 8l-19 145q53 0 96 25q69 39 101 140t32 278l1 794l-132 41l1 179l446 55h5l69 -47v-1098zM-41 1398l324 403h198l330 -402l-126 -109l-301 238l-303 -239z" />
    <glyph glyph-name="Kcommaaccent" unicode="&#x136;" horiz-adv-x="1586" 
d="M624 -234q0 52 18 78q48 70 161 71h7q119 0 159 -95q32 -76 -8 -178q-39 -102 -108 -166q-31 -28 -52 -36h-4l-123 28l-6 16q29 12 40 84q3 20 3 54t-38 55q-49 36 -49 89zM57 1522h706v-162l-140 -31v-599l449 600l-164 30l-1 162h622v-161l-190 -30l-331 -378
q110 -103 288 -433q112 -209 149 -270q38 -61 57 -75l97 -23v-152h-473q-40 0 -169 286q-128 286 -192 381l-142 -170v-322l162 -24v-151h-728v152l152 24v1154l-152 30v162z" />
    <glyph glyph-name="kcommaaccent" unicode="&#x137;" horiz-adv-x="1373" 
d="M562 -234q0 52 18 78q48 70 161 71h7q119 0 159 -95q32 -76 -8 -178q-39 -102 -108 -166q-31 -28 -52 -36h-4l-123 28l-6 16q29 12 40 84q3 20 3 54t-38 55q-49 36 -49 89zM745 1137h589v-145l-175 -28l-183 -169l317 -622l96 -21v-152h-607v151l76 22l-159 369
l-147 -153l7 -105v-111l103 -22v-151h-598v152l103 20v1283l-131 30v142l452 53h5l68 -50v-933l-7 -91l340 364l-149 22v145z" />
    <glyph glyph-name="kgreenlandic" unicode="&#x138;" horiz-adv-x="1416" 
d="M780 1137h606v-148l-170 -20l-201 -183l322 -612l99 -22v-152h-604v151l72 20l-158 355l-146 -159l9 -89v-105l100 -22v-151h-616v152l111 20l2 723l-111 39v184l415 49h5l90 -47v-406l-8 -141l351 395l-168 21v148z" />
    <glyph glyph-name="Lacute" unicode="&#x139;" horiz-adv-x="1318" 
d="M265 1695l295 319h1l242 -160q-88 -92 -209 -168t-184 -93h-1zM61 1522h754v-162l-190 -30v-1151l314 22l140 435l225 -28l-53 -608h-1191v152l149 23v1155l-148 30v162z" />
    <glyph glyph-name="lacute" unicode="&#x13a;" horiz-adv-x="719" 
d="M675 0h-619v152l111 21v1124l-133 31v141l456 54h5l68 -50v-1300l112 -21v-152zM150 1695l295 319h1l242 -160q-88 -92 -208.5 -168t-184.5 -93h-1z" />
    <glyph glyph-name="Lcommaaccent" unicode="&#x13b;" horiz-adv-x="1311" 
d="M527 -234q-1 52 17 78q48 70 162 71h7q119 0 159 -95q32 -76 -8 -178q-39 -102 -108 -166q-31 -28 -52 -36h-4l-123 28l-6 16q29 12 40 84q3 20 3 54t-38 55q-49 36 -49 89zM61 1522h754v-162l-190 -30v-1151l314 22l140 435l225 -28l-53 -608h-1191v152l149 23v1155
l-148 30v162z" />
    <glyph glyph-name="lcommaaccent" unicode="&#x13c;" horiz-adv-x="715" 
d="M176 -234q0 52 18 78q48 71 161 71h7q119 0 159 -95q32 -76 -8 -178q-39 -102 -108 -166q-31 -28 -52 -36h-4l-123 28l-6 16q29 12 40 84q3 20 3 54t-38 55q-49 36 -49 89zM671 0h-615v152l111 21v1282l-133 30v142l452 53h6l68 -50v-1457l111 -21v-152z" />
    <glyph glyph-name="Lcaron" unicode="&#x13d;" horiz-adv-x="1318" 
d="M61 1522h754v-162l-190 -30v-1151l314 22l140 435l225 -28l-53 -608h-1191v152l149 23v1155l-148 30v162zM952 1257q0 270 -56 345l9 42l259 56q20 -24 39 -94t19 -173q0 -173 -45 -307t-80 -173l-161 39l-9 26q25 100 25 239z" />
    <glyph glyph-name="lcaron" unicode="&#x13e;" horiz-adv-x="1018" 
d="M671 0h-615v152l111 21v1282l-133 30v142l452 53h6l68 -50v-1457l111 -21v-152zM741 1257q0 270 -56 345l9 42l259 56q20 -24 39 -94t19 -173q0 -173 -45 -307t-80 -173l-161 39l-9 26q25 100 25 239z" />
    <glyph glyph-name="Ldot" unicode="&#x13f;" horiz-adv-x="1402" 
d="M61 1522h754v-162l-190 -30v-1151l314 22l140 435l225 -28l-53 -608h-1191v152l149 23v1155l-148 30v162zM1287 1069q57 -57 57 -120q0 -111 -66 -164t-158 -53q-93 0 -153 55t-60 139q0 85 66 143q66 57 161 57q96 0 153 -57z" />
    <glyph glyph-name="ldot" unicode="&#x140;" horiz-adv-x="1085" 
d="M673 0h-615v152l111 21v1282l-133 30v142l452 53h6l68 -50v-1457l111 -21v-152zM1070 906q57 -57 57 -120q0 -111 -66 -164t-158 -53q-93 0 -153 55t-60 139q0 85 66 143q66 57 161 57q96 0 153 -57z" />
    <glyph glyph-name="Lslash" unicode="&#x141;" horiz-adv-x="1311" 
d="M61 1522h754v-162l-190 -30v-430l320 128v-171l-320 -125v-553l314 22l140 435l225 -28l-53 -608h-1191v152l149 23v400l-165 -62v162l165 65v590l-148 30v162z" />
    <glyph glyph-name="lslash" unicode="&#x142;" horiz-adv-x="763" 
d="M709 0h-615v152l111 21v475l-179 -78v172l179 80v633l-133 30v142l452 53h6l68 -50v-653l184 83v-181l-184 -80v-626l111 -21v-152z" />
    <glyph glyph-name="Nacute" unicode="&#x143;" horiz-adv-x="1661" 
d="M685 1695l295 319h1l242 -160q-88 -92 -209 -168t-184 -93h-1zM55 1522h579l510 -810l116 -260v879l-173 29v162h544v-162l-151 -29v-1331h-369l-553 893l-123 270v-987l227 -24v-152h-607v152l160 23v1156l-160 29v162z" />
    <glyph glyph-name="nacute" unicode="&#x144;" horiz-adv-x="1443" 
d="M966 1162q178 0 255 -98q76 -98 76 -340v-551l100 -19v-154h-592v152l85 21v550q0 128 -20 164q-20 37 -45 47q-24 10 -60 10q-82 0 -166 -70v-702l100 -20v-152h-608v152l103 20v723l-109 39v184l413 49h5l60 -47v-69l-2 -48q164 159 405 159zM528 1403l381 452h1
l217 -199q-79 -134 -292 -283q-89 -62 -155 -87h-2z" />
    <glyph glyph-name="Ncommaaccent" unicode="&#x145;" horiz-adv-x="1661" 
d="M689 -234q-1 52 17 78q48 70 162 71h7q119 0 159 -95q32 -76 -8 -178q-39 -102 -108 -166q-31 -28 -52 -36h-4l-123 28l-6 16q29 12 40 84q3 20 3 54t-38 55q-49 36 -49 89zM55 1522h579l510 -810l116 -260v879l-173 29v162h544v-162l-151 -29v-1331h-369l-553 893
l-123 270v-987l227 -24v-152h-607v152l160 23v1156l-160 29v162z" />
    <glyph glyph-name="ncommaaccent" unicode="&#x146;" horiz-adv-x="1443" 
d="M966 1162q178 0 255 -98q76 -98 76 -340v-551l100 -19v-154h-592v152l85 21v550q0 128 -20 164q-20 37 -45 47q-24 10 -60 10q-82 0 -166 -70v-702l100 -20v-152h-608v152l103 20v723l-109 39v184l413 49h5l60 -47v-69l-2 -48q164 159 405 159zM542 -234q0 52 18 78
q48 70 161 71h7q119 0 159 -95q32 -76 -8 -178q-39 -102 -108 -166q-31 -28 -52 -36h-4l-123 28l-6 16q29 12 40 84q3 20 3 54t-38 55q-49 36 -49 89z" />
    <glyph glyph-name="Ncaron" unicode="&#x147;" horiz-adv-x="1661" 
d="M443 1906l126 108l283 -174l302 174l126 -109l-323 -289h-209zM55 1522h579l510 -810l116 -260v879l-173 29v162h544v-162l-151 -29v-1331h-369l-553 893l-123 270v-987l227 -24v-152h-607v152l160 23v1156l-160 29v162z" />
    <glyph glyph-name="ncaron" unicode="&#x148;" horiz-adv-x="1443" 
d="M966 1162q178 0 255 -98q76 -98 76 -340v-551l100 -19v-154h-592v152l85 21v550q0 128 -20 164q-20 37 -45 47q-24 10 -60 10q-82 0 -166 -70v-702l100 -20v-152h-608v152l103 20v723l-109 39v184l413 49h5l60 -47v-69l-2 -48q164 159 405 159zM323 1695l121 108
l302 -246l303 247l125 -109l-330 -403h-198z" />
    <glyph glyph-name="napostrophe" unicode="&#x149;" horiz-adv-x="1838" 
d="M182 1356q0 79 -24 121t-40 63t-41 60q-24 39 -24 92q0 90 53 141q53 50 129 50h1q111 0 183 -102t72 -230q0 -232 -114 -416t-241 -251h-2l-91 78v39q139 139 139 355zM1362 1162q178 0 255 -98q76 -98 76 -340v-551l100 -19v-154h-592v152l85 21v550q0 128 -20 164
q-20 37 -45 47q-24 10 -60 10q-82 0 -166 -70v-702l100 -20v-152h-608v152l103 20v723l-109 39v184l413 49h5l60 -47v-69l-2 -48q164 159 405 159z" />
    <glyph glyph-name="Eng" unicode="&#x14a;" horiz-adv-x="1644" 
d="M46 1522h581l508 -811l128 -267v887l-184 31v160h575v-160l-172 -31v-901q0 -399 -100 -511.5t-131 -148.5q-65 -74 -164 -126t-201 -68l-74 120q210 68 308 294l-581 942l-91 197v-954l199 -25v-150h-601v150l182 25v1175l-182 36v136z" />
    <glyph glyph-name="eng" unicode="&#x14b;" horiz-adv-x="1431" 
d="M968 1163q177 0 254 -99t77 -335v-707q0 -260 -129 -412.5t-378 -154.5h-50q-49 0 -60 8l-10 156q28 -3 63 7t45 15q105 50 108.5 191.5t3.5 213.5v683q0 122 -22 157.5t-46.5 46.5t-60.5 11q-84 0 -161 -69v-703l99 -21v-151h-607v152l102 20v725l-109 39v184l414 49h5
l59 -48v-63l-1 -53q168 158 404 158z" />
    <glyph glyph-name="Omacron" unicode="&#x14c;" horiz-adv-x="1516" 
d="M412 1918h696v-220h-696v220zM759 1392q-251 0 -251 -629q0 -495 145 -601q46 -34 103 -34q121 0 186 169t65 492q0 485 -145 575q-46 28 -103 28zM244 1332q191 211 522 211q542 -3 660 -441q38 -139 37 -315q0 -360 -193 -584t-520 -226q-362 -3 -538 215
q-158 196 -159 563q0 366 191 577z" />
    <glyph glyph-name="omacron" unicode="&#x14d;" horiz-adv-x="1270" 
d="M295 1634h671v-220h-671v220zM640 134q150 0 150 373q0 298 -36 401t-121 103q-154 0 -154 -424q0 -353 90 -427q31 -26 71 -26zM223 1014q169 154 428 154q258 0 412 -150t154 -446q-1 -297 -177 -455q-156 -140 -416 -140t-415 150t-155 442q0 291 169 445z" />
    <glyph glyph-name="Obreve" unicode="&#x14e;" horiz-adv-x="1516" 
d="M464 1716q-105 101 -105 246v24t2 23h185q0 -105 118 -147q40 -14 102 -15q110 0 159 46t49 107v9h191q2 -11 2 -22v-23q0 -144 -105 -247q-105 -102 -300 -102q-193 0 -298 101zM759 1392q-251 0 -251 -629q0 -495 145 -601q46 -34 103 -34q121 0 186 169t65 492
q0 485 -145 575q-46 28 -103 28zM244 1332q191 211 522 211q542 -3 660 -441q38 -139 37 -315q0 -360 -193 -584t-520 -226q-362 -3 -538 215q-158 196 -159 563q0 366 191 577z" />
    <glyph glyph-name="obreve" unicode="&#x14f;" horiz-adv-x="1270" 
d="M640 134q150 0 150 373q0 298 -36 401t-121 103q-154 0 -154 -424q0 -353 90 -427q31 -26 71 -26zM223 1014q169 154 428 154q258 0 412 -150t154 -446q-1 -297 -177 -455q-156 -140 -416 -140t-415 150t-155 442q0 291 169 445zM1018 1660q0 -149 -109 -247t-281 -98
t-281 98t-109 246v31q0 68 4 83h174q0 -150 124 -192q38 -13 92 -13q212 0 212 205h170z" />
    <glyph glyph-name="Ohungarumlaut" unicode="&#x150;" horiz-adv-x="1516" 
d="M759 1392q-251 0 -251 -629q0 -495 145 -601q46 -34 103 -34q121 0 186 169t65 492q0 485 -145 575q-46 28 -103 28zM244 1332q191 211 522 211q542 -3 660 -441q38 -139 37 -315q0 -360 -193 -584t-520 -226q-362 -3 -538 215q-158 196 -159 563q0 366 191 577z
M323 1710l295 304l205 -151q-93 -119 -265 -229q-48 -30 -84 -48zM903 1710l302 304l198 -147q-81 -115 -261 -231q-50 -32 -87 -50z" />
    <glyph glyph-name="ohungarumlaut" unicode="&#x151;" horiz-adv-x="1270" 
d="M221 1431l321 402l208 -168q-79 -125 -339 -303q-33 -22 -55 -34zM758 1431l328 402l200 -164q-50 -90 -261 -252q-81 -63 -132 -89zM640 134q150 0 150 373q0 298 -36 401t-121 103q-154 0 -154 -424q0 -353 90 -427q31 -26 71 -26zM223 1014q169 154 428 154
q258 0 412 -150t154 -446q-1 -297 -177 -455q-156 -140 -416 -140t-415 150t-155 442q0 291 169 445z" />
    <glyph glyph-name="OE" unicode="&#x152;" horiz-adv-x="2139" 
d="M749 1395q-247 0 -247 -633t253 -633q146 0 207 275v772q-41 178 -107.5 198.5t-105.5 20.5zM716 -16q-153 0 -410.5 111t-257.5 666q0 363 188.5 573t529.5 210q109 0 196 -33v11h1017l28 -384h-186l-74 210l-359 26v-511l207 7l37 164h167v-534h-167l-36 177l-208 7
v-528l402 31l151 260l190 -55l-65 -392h-1104v37q-93 -53 -246 -53z" />
    <glyph glyph-name="oe" unicode="&#x153;" horiz-adv-x="1897" 
d="M639 134q146 0 146 375q0 300 -34.5 401t-119.5 101q-117 0 -134 -154.5t-17 -276.5t9.5 -208.5t38.5 -162t111 -75.5zM1461 760q0 125 -18 170.5t-40.5 63t-55.5 17.5q-72 0 -108.5 -66.5t-38.5 -268.5h260v4v22zM975 99q-136 -122 -374 -122t-393 148t-155 441
t168 447.5t418 154.5q249 0 373 -109q138 108 358 108q342 0 418 -200t30 -440h-613q15 -162 81.5 -237t198.5 -75t278 76l61 -139q-50 -57 -183.5 -116t-273.5 -59q-256 0 -392 122z" />
    <glyph glyph-name="Racute" unicode="&#x154;" horiz-adv-x="1526" 
d="M684 782h56q198 0 198 330q0 214 -116 258q-40 15 -107 15t-91 -9v-587q14 -7 60 -7zM762 1533q335 0 474 -94t139 -313q0 -220 -154 -352q-54 -46 -132 -71q161 -51 265 -289q27 -62 50 -114t44 -88t45 -43l50 -17v-152h-443q-45 0 -108 189l-37 111q-52 156 -78 209
q-55 111 -106 127h-147v-462l173 -22v-152h-737v152l149 23v1155l-145 30v162h340zM575 1695l295 319h1l242 -160q-88 -92 -209 -168t-184 -93h-1z" />
    <glyph glyph-name="racute" unicode="&#x155;" horiz-adv-x="1004" 
d="M256 1403l381 452h1l217 -199q-79 -134 -292 -283q-89 -62 -155 -87h-2zM767 796q-117 0 -177 -41v-582l209 -22v-151h-715v152l111 20v723l-109 39v184l369 49h5l66 -47v-56l-7 -175h8q22 94 123 186q101 93 229 93q64 0 89 -18v-416q-84 62 -201 62z" />
    <glyph glyph-name="Rcommaaccent" unicode="&#x156;" horiz-adv-x="1526" 
d="M625 -234q-1 52 17 78q48 71 162 71h7q119 0 159 -95q32 -76 -8 -178q-39 -102 -108 -166q-31 -28 -52 -36h-4l-123 28l-6 16q29 12 40 84q3 20 3 54t-38 55q-49 36 -49 89zM684 782h56q198 0 198 330q0 214 -116 258q-40 15 -107 15t-91 -9v-587q14 -7 60 -7zM762 1533
q335 0 474 -94t139 -313q0 -220 -154 -352q-54 -46 -132 -71q161 -51 265 -289q27 -62 50 -114t44 -88t45 -43l50 -17v-152h-443q-45 0 -108 189l-37 111q-52 156 -78 209q-55 111 -106 127h-147v-462l173 -22v-152h-737v152l149 23v1155l-145 30v162h340z" />
    <glyph glyph-name="rcommaaccent" unicode="&#x157;" horiz-adv-x="1004" 
d="M248 -234q0 52 18 78q48 71 161 71h7q119 0 159 -95q32 -76 -8 -178q-39 -102 -108 -166q-31 -28 -52 -36h-4l-123 28l-6 16q29 12 40 84q3 20 3 54t-38 55q-49 36 -49 89zM767 796q-117 0 -177 -41v-582l209 -22v-151h-715v152l111 20v723l-109 39v184l369 49h5l66 -47
v-56l-7 -175h8q22 94 123 186q101 93 229 93q64 0 89 -18v-416q-84 62 -201 62z" />
    <glyph glyph-name="Rcaron" unicode="&#x158;" horiz-adv-x="1526" 
d="M326 1906l126 108l283 -174l302 174l126 -109l-323 -289h-209zM684 782h56q198 0 198 330q0 214 -116 258q-40 15 -107 15t-91 -9v-587q14 -7 60 -7zM762 1533q335 0 474 -94t139 -313q0 -220 -154 -352q-54 -46 -132 -71q161 -51 265 -289q27 -62 50 -114t44 -88t45 -43
l50 -17v-152h-443q-45 0 -108 189l-37 111q-52 156 -78 209q-55 111 -106 127h-147v-462l173 -22v-152h-737v152l149 23v1155l-145 30v162h340z" />
    <glyph glyph-name="rcaron" unicode="&#x159;" horiz-adv-x="1004" 
d="M51 1695l121 108l302 -246l303 247l125 -109l-330 -403h-198zM767 796q-117 0 -177 -41v-582l209 -22v-151h-715v152l111 20v723l-109 39v184l369 49h5l66 -47v-56l-7 -175h8q22 94 123 186q101 93 229 93q64 0 89 -18v-416q-84 62 -201 62z" />
    <glyph glyph-name="Sacute" unicode="&#x15a;" horiz-adv-x="1262" 
d="M614 136q100 0 152 48t51 134q-1 85 -89 154q-63 49 -183 107q-121 58 -187 99t-121 101q-131 140 -131 326t128 303q148 135 434 135q155 -1 256 -25q102 -24 140 -36t61 -12l-13 -375h-217l-49 251q-10 16 -50 30t-100 14q-105 0 -151 -50q-47 -50 -47 -113t31 -107
t87 -85t171 -98t157 -80t82 -52q204 -146 203 -344q1 -197 -113 -321q-149 -163 -489 -163q-160 -1 -280 29q-121 30 -169 44t-75 16l17 388h222l57 -257q44 -61 215 -61zM509 1695l295 319h1l242 -160q-88 -92 -209 -168t-184 -93h-1z" />
    <glyph glyph-name="sacute" unicode="&#x15b;" horiz-adv-x="1104" 
d="M355 1403l381 452h1l217 -199q-79 -134 -292 -283q-89 -62 -155 -87h-2zM88 336h224l58 -162q20 -30 102 -46q24 -4 52 -4q61 0 98 31q38 31 38 74t-28 71t-73 53q-46 25 -105 50q-60 25 -120 55q-125 63 -188 150q-64 87 -64 224q0 138 126 236t357 98q134 0 224 -20
q89 -20 127 -30t68 -11v-290l-214 1l-58 159q-8 15 -39 29t-90 15t-97 -29t-38 -73t21 -70t57 -49t81 -43q46 -20 103 -45q160 -70 233 -136q112 -101 112 -247t-121 -248t-375 -102q-152 0 -254 25q-103 25 -145 38t-72 17v279z" />
    <glyph glyph-name="Scircumflex" unicode="&#x15c;" horiz-adv-x="1262" 
d="M614 136q100 0 152 48t51 134q-1 85 -89 154q-63 49 -183 107q-121 58 -187 99t-121 101q-131 140 -131 326t128 303q148 135 434 135q155 -1 256 -25q102 -24 140 -36t61 -12l-13 -375h-217l-49 251q-10 16 -50 30t-100 14q-105 0 -151 -50q-47 -50 -47 -113t31 -107
t87 -85t171 -98t157 -80t82 -52q204 -146 203 -344q1 -197 -113 -321q-149 -163 -489 -163q-160 -1 -280 29q-121 30 -169 44t-75 16l17 388h222l57 -257q44 -61 215 -61zM238 1704l325 300h209l323 -299l-126 -109l-302 185l-303 -185z" />
    <glyph glyph-name="scircumflex" unicode="&#x15d;" horiz-adv-x="1104" 
d="M149 1398l324 403h198l330 -402l-126 -109l-301 238l-303 -239zM88 336h224l58 -162q20 -30 102 -46q24 -4 52 -4q61 0 98 31q38 31 38 74t-28 71t-73 53q-46 25 -105 50q-60 25 -120 55q-125 63 -188 150q-64 87 -64 224q0 138 126 236t357 98q134 0 224 -20
q89 -20 127 -30t68 -11v-290l-214 1l-58 159q-8 15 -39 29t-90 15t-97 -29t-38 -73t21 -70t57 -49t81 -43q46 -20 103 -45q160 -70 233 -136q112 -101 112 -247t-121 -248t-375 -102q-152 0 -254 25q-103 25 -145 38t-72 17v279z" />
    <glyph glyph-name="Scedilla" unicode="&#x15e;" horiz-adv-x="1262" 
d="M496 -309h1q74 0 105 25t31 102t-46 160q-183 6 -321.5 46t-162.5 42l17 388h222l57 -257q43 -61 215 -61q100 0 151.5 48.5t51.5 133.5t-76 144t-196 117q-121 58 -186.5 99t-159 141t-93.5 286t138 312t424 126q155 0 256.5 -24.5t139.5 -36t61 -12.5l-13 -375h-217
l-49 251q-10 15 -50.5 29.5t-99.5 14.5q-105 0 -151.5 -49.5t-46.5 -113.5q0 -63 31 -107t87 -84.5t171 -98.5q115 -57 156.5 -80t163.5 -110.5t122 -297.5q0 -163 -102.5 -298.5t-364.5 -165.5q129 -136 123 -282q-11 -196 -131 -219.5t-196 -23.5h-1q-79 0 -144 30l1 214
q39 -13 82 -13z" />
    <glyph glyph-name="scedilla" unicode="&#x15f;" horiz-adv-x="1104" 
d="M387 -309h1q74 0 105 25t31 102t-47 162q-146 8 -254.5 41t-134.5 36v279h224l58 -162q20 -30 73 -40t81 -10q61 0 98.5 31.5t37.5 73.5q0 43 -27.5 71t-73.5 53t-105.5 50t-119.5 55q-125 63 -188.5 149.5t-63.5 224.5t126.5 236t356.5 98q134 0 224 -20t127.5 -29.5
t67.5 -11.5v-290l-214 1l-58 159q-8 15 -39 29.5t-90 14.5t-97 -29.5t-38 -72.5t21 -70t56.5 -49.5t81.5 -42.5t103 -45q160 -70 252.5 -153.5t92.5 -227.5q0 -211 -145.5 -274t-253.5 -73q126 -139 120 -279q-11 -196 -131 -219.5t-196 -23.5h-1q-79 0 -144 30l1 214
q39 -13 82 -13z" />
    <glyph glyph-name="Scaron" unicode="&#x160;" horiz-adv-x="1262" 
d="M614 136q100 0 152 48t51 134q-1 85 -89 154q-63 49 -183 107q-121 58 -187 99t-121 101q-131 140 -131 326t128 303q148 135 434 135q155 -1 256 -25q102 -24 140 -36t61 -12l-13 -375h-217l-49 251q-10 16 -50 30t-100 14q-105 0 -151 -50q-47 -50 -47 -113t31 -107
t87 -85t171 -98t157 -80t82 -52q204 -146 203 -344q1 -197 -113 -321q-149 -163 -489 -163q-160 -1 -280 29q-121 30 -169 44t-75 16l17 388h222l57 -257q44 -61 215 -61zM259 1906l126 108l283 -174l302 174l126 -109l-323 -289h-209z" />
    <glyph glyph-name="scaron" unicode="&#x161;" horiz-adv-x="1104" 
d="M150 1695l121 108l302 -246l303 247l125 -109l-330 -403h-198zM88 336h224l58 -162q20 -30 102 -46q24 -4 52 -4q61 0 98 31q38 31 38 74t-28 71t-73 53q-46 25 -105 50q-60 25 -120 55q-125 63 -188 150q-64 87 -64 224q0 138 126 236t357 98q134 0 224 -20
q89 -20 127 -30t68 -11v-290l-214 1l-58 159q-8 15 -39 29t-90 15t-97 -29t-38 -73t21 -70t57 -49t81 -43q46 -20 103 -45q160 -70 233 -136q112 -101 112 -247t-121 -248t-375 -102q-152 0 -254 25q-103 25 -145 38t-72 17v279z" />
    <glyph glyph-name="uni0162" unicode="&#x162;" horiz-adv-x="1517" 
d="M593 -309h1q74 0 105 25t31 112t-59 172h-374v152l257 24v1174l-207 -11l-95 -471h-221l32 654h1386l27 -654h-208l-101 471l-197 11v-1174l283 -24v-152h-408q144 -144 136 -308q-6 -125 -86 -178.5t-240 -53.5h-1q-79 0 -144 30l1 214q39 -13 82 -13z" />
    <glyph glyph-name="uni0163" unicode="&#x163;" horiz-adv-x="838" 
d="M249 -309h1q74 0 105 25t31 99t-23 119t-31 59q-184 38 -184 254v704h-115v131q44 21 78 35t53 23q43 48 73 116t69 196h225l15 -314h269v-187h-265v-501q0 -155 11 -184t28 -35t46 -6h1q62 0 158 24h1l49 -144q-50 -40 -137 -73t-195 -44q132 -139 126 -285
q-11 -196 -131 -219.5t-196 -23.5h-1q-79 0 -144 30l1 214q39 -13 82 -13z" />
    <glyph glyph-name="Tcaron" unicode="&#x164;" horiz-adv-x="1517" 
d="M360 1906l126 108l283 -174l302 174l126 -109l-323 -289h-209zM1253 0h-956v152l257 24v1174l-207 -11l-95 -471h-221l32 654h1386l27 -654h-208l-101 471l-197 11v-1174l283 -24v-152z" />
    <glyph glyph-name="tcaron" unicode="&#x165;" horiz-adv-x="848" 
d="M425 -16q-278 0 -278 263v704h-115v131q44 21 78 35t53 23q43 48 73 116t69 196h225l15 -314h269v-187h-265v-501q0 -155 11 -184t28 -35t46 -6h1q62 0 158 24h1l49 -144q-97 -80 -287 -111q-62 -10 -129 -10h-2zM703 1518q0 270 -56 345l9 42l259 56q20 -23 39 -93
t19 -174q0 -173 -45 -307t-80 -173l-161 39l-9 26q25 100 25 239z" />
    <glyph glyph-name="Tbar" unicode="&#x166;" horiz-adv-x="1529" 
d="M560 549h-208v171h208v630l-207 -11l-95 -471h-221l32 654h1386l27 -654h-208l-101 471l-197 11v-630h201v-171h-201v-373l283 -24v-152h-956v152l257 24v373z" />
    <glyph glyph-name="tbar" unicode="&#x167;" horiz-adv-x="845" 
d="M427 -16q-278 0 -278 263v317h-121v172h121v215h-115v131q44 21 78 35t53 23q43 48 73 116t69 196h225l15 -314h269v-187h-265v-215h251v-172h-251v-114q0 -155 11 -184t28 -35t46 -6h1q62 0 158 24h1l49 -144q-97 -80 -223 -100.5t-193 -20.5h-2z" />
    <glyph glyph-name="Utilde" unicode="&#x168;" horiz-adv-x="1530" 
d="M644 2008q79 0 131 -28q53 -28 81 -48t74 -47q45 -28 88 -28q42 0 66 9q24 10 44 24q18 14 32 31t28 33l107 -108q-54 -97 -105 -139q-96 -79 -207 -79q-66 0 -118 24t-98 52q-45 28 -89 52t-84 23q-40 0 -64 -10q-24 -11 -44 -25t-36 -31t-28 -30l-106 110
q121 215 328 215zM862 141q278 0 278 434v755l-179 30v162h560v-162l-127 -30v-732q0 -318 -160 -466t-436 -148q-490 0 -612 340q-42 118 -43 285v721l-119 30v162h719v-162l-170 -34v-751q0 -434 289 -434z" />
    <glyph glyph-name="utilde" unicode="&#x169;" horiz-adv-x="1330" 
d="M1004 -23q-154 0 -154 139v33q-42 -69 -137 -121q-95 -51 -197 -51q-205 0 -292 98t-87 330v558l-88 25v148l434 27h3l46 -28v-751q0 -112 22 -146t46 -44q23 -10 55 -10q82 0 149 59v720l-118 29v145l455 26h6l52 -28v-975h101v-149l-50 -10q-120 -24 -246 -24z
M526 1715q78 1 129 -29t78 -50t70 -50t94 -29q81 0 157 82l107 -95q-59 -101 -105 -142q-97 -87 -213 -87q-77 -1 -127 29t-78 50t-71 50q-44 30 -87 29q-64 0 -99 -22t-74 -60l-106 94q129 230 325 230z" />
    <glyph glyph-name="Umacron" unicode="&#x16a;" horiz-adv-x="1530" 
d="M458 1918h696v-220h-696v220zM862 141q278 0 278 434v755l-179 30v162h560v-162l-127 -30v-732q0 -318 -160 -466t-436 -148q-490 0 -612 340q-42 118 -43 285v721l-119 30v162h719v-162l-170 -34v-751q0 -434 289 -434z" />
    <glyph glyph-name="umacron" unicode="&#x16b;" horiz-adv-x="1330" 
d="M1004 -23q-154 0 -154 139v33q-42 -69 -137 -121q-95 -51 -197 -51q-205 0 -292 98t-87 330v558l-88 25v148l434 27h3l46 -28v-751q0 -112 22 -146t46 -44q23 -10 55 -10q82 0 149 59v720l-118 29v145l455 26h6l52 -28v-975h101v-149l-50 -10q-120 -24 -246 -24z
M312 1634h671v-220h-671v220z" />
    <glyph glyph-name="Ubreve" unicode="&#x16c;" horiz-adv-x="1530" 
d="M405 1962v24t2 23h185q0 -105 118 -147q40 -14 102 -15q110 0 159 46t49 107v9h191q2 -11 2 -22v-23q0 -144 -105 -247q-106 -102 -300 -102t-298 101q-105 100 -105 246zM862 141q278 0 278 434v755l-179 30v162h560v-162l-127 -30v-732q0 -318 -160 -466t-436 -148
q-490 0 -612 340q-42 118 -43 285v721l-119 30v162h719v-162l-170 -34v-751q0 -434 289 -434z" />
    <glyph glyph-name="ubreve" unicode="&#x16d;" horiz-adv-x="1330" 
d="M1004 -23q-154 0 -154 139v33q-42 -69 -137 -121q-95 -51 -197 -51q-205 0 -292 98t-87 330v558l-88 25v148l434 27h3l46 -28v-751q0 -112 22 -146t46 -44q23 -10 55 -10q82 0 149 59v720l-118 29v145l455 26h6l52 -28v-975h101v-149l-50 -10q-120 -24 -246 -24z
M1029 1660q0 -149 -109 -247t-281 -98t-281 98t-109 246v31q0 68 4 83h174q-1 -150 123 -192q38 -13 94 -13q212 0 211 205h170z" />
    <glyph glyph-name="Uring" unicode="&#x16e;" horiz-adv-x="1530" 
d="M832 2014q363 0 361 -285q-1 -135 -132 -207h460v-162l-127 -30v-732q0 -318 -160 -466t-436 -148q-490 0 -612 340q-42 118 -43 285v721l-119 30v162h536q-76 44 -96 106q-20 64 -19 122q2 119 107 191q105 73 279 73h1zM820 1882q-151 0 -151 -137q0 -62 36 -105
q36 -42 114 -42h1q124 0 144 78q6 24 6 55q0 151 -149 151h-1zM862 141q278 0 278 434v755l-179 30v124q-65 -16 -146 -16h-1q-38 0 -71 3v-111l-170 -34v-751q0 -434 289 -434z" />
    <glyph glyph-name="uring" unicode="&#x16f;" horiz-adv-x="1330" 
d="M481 1612q0 -174 162 -174h1q90 0 126 34t36 87q0 92 -39 134t-122 42h-1q-89 0 -126 -36q-37 -35 -37 -87zM638 1282q-194 0 -283 85t-87 227q2 141 114 221q112 79 273 79h1q272 0 341 -184q21 -56 21 -127q-1 -139 -107 -220t-272 -81h-1zM1004 -23q-154 0 -154 139
v33q-42 -69 -137 -121q-95 -51 -197 -51q-205 0 -292 98t-87 330v558l-88 25v148l434 27h3l46 -28v-751q0 -112 22 -146t46 -44q23 -10 55 -10q82 0 149 59v720l-118 29v145l455 26h6l52 -28v-975h101v-149l-50 -10q-120 -24 -246 -24z" />
    <glyph glyph-name="Uhungarumlaut" unicode="&#x170;" horiz-adv-x="1530" 
d="M862 141q278 0 278 434v755l-179 30v162h560v-162l-127 -30v-732q0 -318 -160 -466t-436 -148q-490 0 -612 340q-42 118 -43 285v721l-119 30v162h719v-162l-170 -34v-751q0 -434 289 -434zM369 1710l295 304l205 -151q-93 -119 -265 -229q-48 -30 -84 -48zM949 1710
l302 304l198 -147q-81 -115 -261 -231q-50 -32 -87 -50z" />
    <glyph glyph-name="uhungarumlaut" unicode="&#x171;" horiz-adv-x="1330" 
d="M1004 -23q-154 0 -154 139v33q-42 -69 -137 -121q-95 -51 -197 -51q-205 0 -292 98t-87 330v558l-88 25v148l434 27h3l46 -28v-751q0 -112 22 -146t46 -44q23 -10 55 -10q82 0 149 59v720l-118 29v145l455 26h6l52 -28v-975h101v-149l-50 -10q-120 -24 -246 -24z
M222 1431l321 402l208 -168q-79 -125 -339 -303q-33 -22 -55 -34zM759 1431l328 402l200 -164q-50 -90 -261 -252q-81 -63 -132 -89z" />
    <glyph glyph-name="Uogonek" unicode="&#x172;" horiz-adv-x="1530" 
d="M1160 -447q-94 -68 -275 -68q-107 0 -186 53t-79 148q0 94 77 174t175 127q-36 -3 -74 -3q-490 0 -572.5 229.5t-82.5 395.5v721l-119 30v162h719v-162l-170 -34v-751q0 -434 289 -434q278 0 278 434v755l-179 30v162h560v-162l-127 -30v-732q0 -431 -306 -562
q-73 -59 -117 -114.5t-44 -121.5t45 -86.5t87 -20.5t101 23v-163z" />
    <glyph glyph-name="uogonek" unicode="&#x173;" horiz-adv-x="1330" 
d="M1280 -448q-88 -67 -276 -67q-113 0 -188.5 58.5t-75.5 153.5q0 123 103.5 189t165.5 91h-5q-154 0 -154 139v33q-42 -69 -137.5 -120.5t-196.5 -51.5q-205 0 -292 97.5t-87 330.5v558l-88 25v148l434 27h3l46 -28v-751q0 -112 22.5 -146.5t45.5 -44t80 -9.5t124 59v720
l-118 29v145l455 26h6l52 -28v-975h101v-149q-10 -2 -23 -5t-27 -5q-94 -34 -148.5 -94t-54.5 -107t31.5 -77t89.5 -30t112 22v-163z" />
    <glyph glyph-name="Wcircumflex" unicode="&#x174;" horiz-adv-x="2128" 
d="M-40 1522h703v-162l-161 -31l227 -879l28 -142l19 142l193 704l-59 176l-120 30v162h737v-162l-193 -30l229 -880l33 -157l24 157l199 880l-159 30v162h502v-162l-126 -31l-362 -1339h-369l-240 855l-222 -855h-367l-406 1339l-110 31v162zM670 1704l325 300h209
l323 -299l-126 -109l-302 185l-303 -185z" />
    <glyph glyph-name="wcircumflex" unicode="&#x175;" horiz-adv-x="1725" 
d="M486 1398l324 403h198l330 -402l-126 -109l-301 238l-303 -239zM-48 1137h603v-146l-127 -23l123 -464l34 -172l26 171l165 634h316l203 -633l33 -170l29 169l111 464l-143 24v146h470v-146l-95 -21l-308 -986h-293l-194 580l-38 229l-25 -229l-171 -580h-302l-327 986
l-90 21v146z" />
    <glyph glyph-name="Ycircumflex" unicode="&#x176;" horiz-adv-x="1322" 
d="M-59 1522h704v-162l-122 -31l208 -431l42 -122l43 120l183 434l-151 30v162h551v-162l-121 -25l-377 -715v-445l213 -23v-152h-860v152l203 24v443l-406 712l-110 29v162zM262 1704l325 300h209l323 -299l-126 -109l-302 185l-303 -185z" />
    <glyph glyph-name="ycircumflex" unicode="&#x177;" horiz-adv-x="1173" 
d="M124 -205q39 -34 184 -34q86 0 152 73q44 49 89 166h-129l-382 967l-87 24v147h658v-147l-134 -24l154 -516l44 -162l32 162l145 517l-117 23v147h488v-147l-94 -23q-74 -226 -177 -517q-104 -290 -135 -379t-54 -151t-69 -153t-102 -153q-56 -61 -128 -93
q-70 -32 -178 -32t-160 24v281zM179 1398l324 403h198l330 -402l-126 -109l-301 238l-303 -239z" />
    <glyph glyph-name="Ydieresis" unicode="&#x178;" horiz-adv-x="1322" 
d="M-59 1522h704v-162l-122 -31l208 -431l42 -122l43 120l183 434l-151 30v162h551v-162l-121 -25l-377 -715v-445l213 -23v-152h-860v152l203 24v443l-406 712l-110 29v162zM390 1626q-70 0 -115 51q-46 51 -46 107q0 217 196 217h1q136 0 172 -105q10 -32 10 -70
q0 -88 -54 -144t-163 -56h-1zM940 1626q-67 0 -114 54q-48 54 -48 108q0 101 49 157t147 56h1q137 0 173 -105q10 -32 10 -70q0 -87 -54 -143q-54 -57 -163 -57h-1z" />
    <glyph glyph-name="Zacute" unicode="&#x179;" horiz-adv-x="1344" 
d="M10 133l707 1114l125 135l-430 -32l-119 -288l-205 31l54 433h1101l54 -138l-688 -1111l-150 -126l522 45l124 314l205 -41l-45 -469h-1178zM558 1695l295 319h1l242 -160q-88 -92 -209 -168t-184 -93h-1z" />
    <glyph glyph-name="zacute" unicode="&#x17a;" horiz-adv-x="1158" 
d="M398 1403l381 452h1l217 -199q-79 -134 -292 -283q-89 -62 -155 -87h-2zM102 762v376h949l58 -133l-464 -681l-149 -172l334 25l113 245l170 -20l-30 -402h-993l-65 141l484 659l164 185l-329 -17l-63 -206h-179z" />
    <glyph glyph-name="Zdotaccent" unicode="&#x17b;" horiz-adv-x="1344" 
d="M702 1638q-83 0 -137 48t-54 130t54 134t157 51h1q99 0 152 -47q53 -46 53 -128t-55 -135t-170 -53h-1zM10 133l707 1114l125 135l-430 -32l-119 -288l-205 31l54 433h1101l54 -138l-688 -1111l-150 -126l522 45l124 314l205 -41l-45 -469h-1178z" />
    <glyph glyph-name="zdotaccent" unicode="&#x17c;" horiz-adv-x="1158" 
d="M102 762v376h949l58 -133l-464 -681l-149 -172l334 25l113 245l170 -20l-30 -402h-993l-65 141l484 659l164 185l-329 -17l-63 -206h-179zM587 1301q-88 0 -145 53q-56 53 -56 140t60 150t164 63h1q151 0 197 -114q14 -35 14 -77q0 -94 -61 -154q-61 -61 -173 -61h-1z
" />
    <glyph glyph-name="Zcaron" unicode="&#x17d;" horiz-adv-x="1344" 
d="M309 1906l126 108l283 -174l302 174l126 -109l-323 -289h-209zM10 133l707 1114l125 135l-430 -32l-119 -288l-205 31l54 433h1101l54 -138l-688 -1111l-150 -126l522 45l124 314l205 -41l-45 -469h-1178z" />
    <glyph glyph-name="zcaron" unicode="&#x17e;" horiz-adv-x="1158" 
d="M193 1695l121 108l302 -246l303 247l125 -109l-330 -403h-198zM102 762v376h949l58 -133l-464 -681l-149 -172l334 25l113 245l170 -20l-30 -402h-993l-65 141l484 659l164 185l-329 -17l-63 -206h-179z" />
    <glyph glyph-name="uni018F" unicode="&#x18f;" horiz-adv-x="1437" 
d="M476 628v-77q0 -297 95.5 -342t144.5 -45q133 0 193.5 123t61.5 373l-494 1q-1 -28 -1 -33zM674 1385q-65 0 -100.5 -13t-57 -34.5t-34 -49.5t-26.5 -58l-36 -132l-285 13l-2 348q43 2 97 14.5t177 38.5t283 26q322 0 513.5 -197t191.5 -570t-200 -583.5t-526 -210.5
q-253 0 -426 146t-182 446q0 186 23 278l882 -2q-19 385 -123 462.5t-169 77.5z" />
    <glyph glyph-name="florin" unicode="&#x192;" horiz-adv-x="1068" 
d="M863 1685q129 0 203 -23l-26 -287q-62 52 -154 52q-91 0 -116 -54t-29 -97l-17 -139h270l-21 -217h-274l-114 -1276h-352l115 1276h-190l18 156l196 61l11 81q17 212 163 339.5t317 127.5z" />
    <glyph glyph-name="uni01C4" unicode="&#x1c4;" horiz-adv-x="2912" 
d="M1879 1906l126 108l283 -174l302 174l126 -109l-323 -289h-209zM1578 133l707 1114l125 135l-430 -32l-119 -288l-205 31l54 433h1101l54 -138l-688 -1111l-150 -126l522 45l124 314l205 -41l-45 -469h-1178zM740 150q160 0 242 146t82 466q0 614 -337 614q-47 0 -73 -8
t-36 -9v-1188q42 -21 122 -21zM767 1533q371 0 561 -183q191 -183 191 -542q0 -360 -210 -596t-573 -228q-73 2 -177 9q-103 7 -145 7h-354v152l149 24v1154l-145 30v162h346z" />
    <glyph glyph-name="uni01C5" unicode="&#x1c5;" horiz-adv-x="2726" 
d="M1809 1695l121 108l302 -246l303 247l125 -109l-330 -403h-198zM1670 762v376h949l58 -133l-464 -681l-149 -172l334 25l113 245l170 -20l-30 -402h-993l-65 141l484 659l164 185l-329 -17l-63 -206h-179zM740 150q160 0 242 146t82 466q0 614 -337 614q-47 0 -73 -8
t-36 -9v-1188q42 -21 122 -21zM767 1533q371 0 561 -183q191 -183 191 -542q0 -360 -210 -596t-573 -228q-73 2 -177 9q-103 7 -145 7h-354v152l149 24v1154l-145 30v162h346z" />
    <glyph glyph-name="uni01C6" unicode="&#x1c6;" horiz-adv-x="2456" 
d="M1521 1695l121 108l302 -246l303 247l125 -109l-330 -403h-198zM1400 762v376h949l58 -133l-464 -681l-149 -172l334 25l113 245l170 -20l-30 -402h-993l-65 141l484 659l164 185l-329 -17l-63 -206h-179zM690 1011q-55 -1 -91 -21q-122 -70 -125 -411q-4 -397 168 -397
q85 0 130 60v737q-27 32 -82 32zM1021 -26q-87 0 -115 5q-84 15 -85 117v46q-46 -74 -136 -120q-91 -45 -185 -45q-201 0 -321 140q-121 140 -121 412t154 448q104 119 278 167q88 24 160 24t122 -10v296l-191 32v151l496 43h10l72 -56v-1470h99v-150q-150 -30 -237 -30z
" />
    <glyph glyph-name="uni01C7" unicode="&#x1c7;" horiz-adv-x="2171" 
d="M1577 347v983l-164 30v162h727v-162l-151 -29v-768q0 -422 -29 -520q-55 -185 -200 -302q-145 -116 -380 -152l-89 134q118 44 196 167q44 69 58 131q32 140 32 326zM61 1522h754v-162l-190 -30v-1151l314 22l140 435l225 -28l-53 -608h-1191v152l149 23v1155l-148 30
v162z" />
    <glyph glyph-name="uni01C8" unicode="&#x1c8;" horiz-adv-x="2056" 
d="M1928 22q0 -158 -79 -276t-191 -181q-111 -63 -206 -63q-96 0 -124 8l-19 145q53 0 96 25q69 39 101 140t32 278l1 794l-132 41l1 179l446 55h5l69 -47v-1098zM61 1522h754v-162l-190 -30v-1151l314 22l140 435l225 -28l-53 -608h-1191v152l149 23v1155l-148 30v162z
M1704 1301q-88 0 -145 53q-56 53 -56 140t60 150t164 63h1q152 0 198 -114q14 -35 13 -77q0 -94 -61 -154q-61 -61 -173 -61h-1z" />
    <glyph glyph-name="uni01C9" unicode="&#x1c9;" horiz-adv-x="1431" 
d="M1303 22q0 -158 -79 -276t-191 -181q-111 -63 -206 -63q-96 0 -124 8l-19 145q53 0 96 25q70 39 102 140t31 278l1 794l-132 41l1 179l446 55h5l69 -47v-1098zM671 0h-615v152l111 21v1282l-133 30v142l452 53h6l68 -50v-1457l111 -21v-152zM1080 1301q-88 0 -145 53
q-56 53 -56 140t60 150t164 63h1q152 0 198 -114q14 -35 13 -77q0 -94 -61 -154q-61 -61 -173 -61h-1z" />
    <glyph glyph-name="uni01CA" unicode="&#x1ca;" horiz-adv-x="2482" 
d="M1889 347v983l-164 30v162h727v-162l-151 -29v-768q0 -422 -29 -520q-55 -185 -200 -302q-145 -116 -380 -152l-89 134q118 44 196 167q44 69 58 131q32 140 32 326zM55 1522h579l510 -810l116 -260v879l-173 29v162h544v-162l-151 -29v-1331h-369l-553 893l-123 270
v-987l227 -24v-152h-607v152l160 23v1156l-160 29v162z" />
    <glyph glyph-name="uni01CB" unicode="&#x1cb;" horiz-adv-x="2367" 
d="M2240 22q0 -158 -79 -276t-191 -181q-111 -63 -206 -63q-96 0 -124 8l-19 145q53 0 96 25q69 39 101 140t32 278l1 794l-132 41l1 179l446 55h5l69 -47v-1098zM2015 1301q-88 0 -145 53q-56 53 -56 140t60 150t164 63h1q151 0 197 -114q14 -35 14 -77q0 -94 -61 -154
q-61 -61 -173 -61h-1zM55 1522h579l510 -810l116 -260v879l-173 29v162h544v-162l-151 -29v-1331h-369l-553 893l-123 270v-987l227 -24v-152h-607v152l160 23v1156l-160 29v162z" />
    <glyph glyph-name="uni01CC" unicode="&#x1cc;" horiz-adv-x="2164" 
d="M2037 22q0 -158 -79 -276t-191 -181q-111 -63 -206 -63q-96 0 -124 8l-19 145q53 0 96 25q70 39 102 140t31 278l1 794l-132 41l1 179l446 55h5l69 -47v-1098zM1813 1301q-88 0 -145 53q-56 53 -56 140t60 150t164 63h1q151 0 197 -114q14 -35 14 -77q0 -94 -61 -154
q-61 -61 -173 -61h-1zM973 1162q178 0 255 -98q76 -98 76 -340v-551l100 -19v-154h-592v152l85 21v550q-1 128 -21 164q-20 37 -44 47t-60 10q-82 0 -166 -70v-702l100 -20v-152h-608v152l103 20v723l-109 39v184l413 49h5l60 -47v-69l-2 -48q164 159 405 159z" />
    <glyph glyph-name="uni01F1" unicode="&#x1f1;" horiz-adv-x="2912" 
d="M1578 133l707 1114l125 135l-430 -32l-119 -288l-205 31l54 433h1101l54 -138l-688 -1111l-150 -126l522 45l124 314l205 -41l-45 -469h-1178zM740 150q160 0 242 146t82 466q0 614 -337 614q-47 0 -73 -8t-36 -9v-1188q42 -21 122 -21zM767 1533q371 0 561 -183
q191 -183 191 -542q0 -360 -210 -596t-573 -228q-73 2 -177 9q-103 7 -145 7h-354v152l149 24v1154l-145 30v162h346z" />
    <glyph glyph-name="uni01F2" unicode="&#x1f2;" horiz-adv-x="2726" 
d="M1670 762v376h949l58 -133l-464 -681l-149 -172l334 25l113 245l170 -20l-30 -402h-993l-65 141l484 659l164 185l-329 -17l-63 -206h-179zM740 150q160 0 242 146t82 466q0 614 -337 614q-47 0 -73 -8t-36 -9v-1188q42 -21 122 -21zM767 1533q371 0 561 -183
q191 -183 191 -542q0 -360 -210 -596t-573 -228q-73 2 -177 9q-103 7 -145 7h-354v152l149 24v1154l-145 30v162h346z" />
    <glyph glyph-name="uni01F3" unicode="&#x1f3;" horiz-adv-x="2456" 
d="M1400 762v376h949l58 -133l-464 -681l-149 -172l334 25l113 245l170 -20l-30 -402h-993l-65 141l484 659l164 185l-329 -17l-63 -206h-179zM690 1011q-55 -1 -91 -21q-122 -70 -125 -411q-4 -397 168 -397q85 0 130 60v737q-27 32 -82 32zM1021 -26q-87 0 -115 5
q-84 15 -85 117v46q-46 -74 -136 -120q-91 -45 -185 -45q-201 0 -321 140q-121 140 -121 412t154 448q104 119 278 167q88 24 160 24t122 -10v296l-191 32v151l496 43h10l72 -56v-1470h99v-150q-150 -30 -237 -30z" />
    <glyph glyph-name="AEacute" unicode="&#x1fc;" horiz-adv-x="1965" 
d="M863 1695l295 319h1l242 -160q-88 -92 -209 -168t-184 -93h-1zM817 590v765h-111l-98 -295l-164 -470h373zM195 1522h1626l28 -384h-185l-74 210l-359 26v-511l206 7l38 164h155v-534h-154l-37 177l-208 7v-528l389 31l134 267l226 -62l-66 -392h-1248v150l151 24v236
h-436l-82 -236l150 -24v-150h-608v150l143 25l466 1155l-255 30v162z" />
    <glyph glyph-name="aeacute" unicode="&#x1fd;" horiz-adv-x="1788" 
d="M662 1403l381 452h1l217 -199q-79 -134 -292 -283q-89 -62 -155 -87h-2zM468 372q0 -96 32 -140t82 -43q50 0 92 27t68 65q-46 121 -46 285q-182 -5 -218 -127q-10 -34 -10 -67zM1346 760q0 125 -18 170q-18 46 -40 64t-56 17q-73 0 -109 -67t-38 -268h259l2 66v18z
M382 -23q-142 0 -241 89q-100 89 -100 263q0 173 165 276t499 105v28q1 88 -29 118q-52 52 -195 53q-142 0 -328 -72l-80 170q107 93 349 142q88 18 189 18q234 0 315 -91q136 91 336 91q342 0 434 -244q30 -78 30 -192t-16 -204h-620q14 -162 80 -237t200 -75q132 0 284 76
l62 -139q-50 -57 -141 -97q-175 -78 -316 -78q-322 0 -460 197q-92 -138 -289 -183q-62 -14 -128 -14z" />
    <glyph glyph-name="uni0218" unicode="&#x218;" horiz-adv-x="1262" 
d="M472 -234q0 52 18 78q48 70 161 71h7q119 0 159 -95q32 -76 -8 -178q-39 -102 -108 -166q-31 -28 -52 -36h-4l-123 28l-6 16q29 12 40 84q3 20 3 54t-38 55q-49 36 -49 89zM614 136q100 0 152 48t51 134q-1 85 -89 154q-63 49 -183 107q-121 58 -187 99t-121 101
q-131 140 -131 326t128 303q148 135 434 135q155 -1 256 -25q102 -24 140 -36t61 -12l-13 -375h-217l-49 251q-10 16 -50 30t-100 14q-105 0 -151 -50q-47 -50 -47 -113t31 -107t87 -85t171 -98t157 -80t82 -52q204 -146 203 -344q1 -197 -113 -321q-149 -163 -489 -163
q-160 -1 -280 29q-121 30 -169 44t-75 16l17 388h222l57 -257q44 -61 215 -61z" />
    <glyph glyph-name="uni0219" unicode="&#x219;" horiz-adv-x="1104" 
d="M371 -234q-1 52 17 78q48 70 162 71h7q119 0 159 -95q32 -76 -8 -178q-39 -102 -108 -166q-31 -28 -52 -36h-4l-123 28l-6 16q29 12 40 84q3 20 3 54t-38 55q-49 36 -49 89zM88 336h224l58 -162q20 -30 102 -46q24 -4 52 -4q61 0 98 31q38 31 38 74t-28 71t-73 53
q-46 25 -105 50q-60 25 -120 55q-125 63 -188 150q-64 87 -64 224q0 138 126 236t357 98q134 0 224 -20q89 -20 127 -30t68 -11v-290l-214 1l-58 159q-8 15 -39 29t-90 15t-97 -29t-38 -73t21 -70t57 -49t81 -43q46 -20 103 -45q160 -70 233 -136q112 -101 112 -247
t-121 -248t-375 -102q-152 0 -254 25q-103 25 -145 38t-72 17v279z" />
    <glyph glyph-name="uni021A" unicode="&#x21a;" horiz-adv-x="1517" 
d="M583 -234q-1 52 17 78q48 70 162 71h7q119 0 159 -95q32 -76 -8 -178q-39 -102 -108 -166q-31 -28 -52 -36h-4l-123 28l-6 16q29 12 40 84q3 20 3 54t-38 55q-49 36 -49 89zM1253 0h-956v152l257 24v1174l-207 -11l-95 -471h-221l32 654h1386l27 -654h-208l-101 471
l-197 11v-1174l283 -24v-152z" />
    <glyph glyph-name="uni021B" unicode="&#x21b;" horiz-adv-x="838" 
d="M262 -234q0 52 18 78q48 70 161 71h7q119 0 159 -95q32 -76 -8 -178q-39 -102 -108 -166q-31 -28 -52 -36h-4l-123 28l-6 16q29 12 40 84q3 20 3 54t-38 55q-49 36 -49 89zM426 -16q-278 0 -278 263v704h-115v131q44 21 78 35t53 23q43 48 73 116t69 196h225l15 -314h269
v-187h-265v-501q0 -155 11 -184t28 -35t46 -6h1q62 0 158 24h1l49 -144q-97 -80 -287 -111q-62 -10 -129 -10h-2z" />
    <glyph glyph-name="dotlessj" unicode="&#x237;" horiz-adv-x="715" 
d="M588 22q0 -158 -79.5 -276t-190.5 -181t-206 -63q-96 0 -124 8l-19 145q53 0 96 25q70 39 101.5 140t31.5 278l1 794l-132 41l1 179l446 55h5l69 -47v-1098z" />
    <glyph glyph-name="uni0259" unicode="&#x259;" horiz-adv-x="1141" 
d="M433 385q0 -127 17 -172t38.5 -63t53.5 -18q69 0 101 66t36 269h-244l-1 -17zM428 928q-159 0 -304 -76l-62 140q54 59 184 117t278 58q288 0 423.5 -157.5t135.5 -439.5t-152 -437.5t-418 -155.5q-225 0 -370 135t-75 504h610q-10 172 -72 242t-178 70z" />
    <glyph glyph-name="circumflex" unicode="&#x2c6;" horiz-adv-x="1019" 
d="M86 1398l324 403h198l330 -402l-126 -109l-301 238l-303 -239z" />
    <glyph glyph-name="caron" unicode="&#x2c7;" horiz-adv-x="1020" 
d="M87 1695l121 108l302 -246l303 247l125 -109l-330 -403h-198z" />
    <glyph glyph-name="uni02C9" unicode="&#x2c9;" horiz-adv-x="1345" 
d="M230 2010h885v-237h-885v237z" />
    <glyph glyph-name="breve" unicode="&#x2d8;" horiz-adv-x="1022" 
d="M898 1660q0 -149 -109 -247t-281 -98t-281 97.5t-109 246.5v49t4 65h174q0 -150 81 -177.5t135 -27.5q212 0 212 205h170z" />
    <glyph glyph-name="dotaccent" unicode="&#x2d9;" horiz-adv-x="564" 
d="M263 1301q-88 0 -144.5 53t-56.5 140t60 150t164 63h1q152 0 181.5 -74.5t29.5 -116.5q0 -94 -61 -154.5t-173 -60.5h-1z" />
    <glyph glyph-name="ring" unicode="&#x2da;" horiz-adv-x="1020" 
d="M347 1612q0 -174 162 -174h1q89 0 125.5 34t36.5 87q0 92 -39 134t-122 42h-1q-89 0 -126 -35.5t-37 -87.5zM504 1282q-194 0 -283 85t-87 227q2 141 114 220.5t273 79.5h1q272 0 317 -120.5t45 -190.5q-1 -139 -107 -220t-272 -81h-1z" />
    <glyph glyph-name="ogonek" unicode="&#x2db;" horiz-adv-x="709" 
d="M538 1q-191 -73 -191 -217q0 -34 31 -62.5t82 -28.5t119 24l-1 -161q-64 -48 -145 -59.5t-121 -11.5q-101 0 -187 53.5t-86 155.5q0 141 106 211t182 96l79 7z" />
    <glyph glyph-name="tilde" unicode="&#x2dc;" horiz-adv-x="1022" 
d="M359 1715q78 0 129 -29.5t78 -49.5t69.5 -49.5t94.5 -29.5q81 0 157 82l107 -95q-59 -101 -130.5 -165t-187.5 -64q-77 0 -127 29.5t-77.5 49.5t-71.5 49.5t-87 29.5q-64 0 -99 -21.5t-74 -60.5l-106 94q129 230 325 230z" />
    <glyph glyph-name="hungarumlaut" unicode="&#x2dd;" horiz-adv-x="1022" 
d="M101 1431l321 402l208 -168q-79 -125 -225.5 -225t-168.5 -112zM638 1431l328 402l200 -164q-50 -90 -196 -202.5t-197 -138.5z" />
    <glyph glyph-name="Deltagreek" unicode="&#x394;" horiz-adv-x="1769" 
d="M1123 220l-358 733l-319 -733h677zM825 1516h49l753 -1475l-22 -40h-1443l-20 39z" />
    <glyph glyph-name="Omegagreek" unicode="&#x3a9;" horiz-adv-x="1933" 
d="M960 1227q-363 0 -363 -400q0 -199 73 -369t182 -240v-218h-713l-37 444h169l71 -204l303 -6q-142 91 -267 287t-119 392q7 426 372 571q148 59 317 59q331 0 522 -164t185 -468q-4 -176 -109 -370q-105 -193 -240 -302l277 19l66 186h176l-42 -444h-696v218
q221 159 221 637q0 372 -348 372z" />
    <glyph glyph-name="uni03BC" unicode="&#x3bc;" horiz-adv-x="1398" 
d="M536 -373h-371v830l-2 4v496l-94 36v143l444 26l45 -28v-780q0 -68 44 -116t119 -48t111 54q10 15 14 30v683l-109 39l-1 140l457 26l46 -27v-975h101v-150q-137 -36 -255 -36q-142 0 -142 138v40q-23 -75 -89 -124t-159 -49t-159 58v-410z" />
    <glyph glyph-name="pi" unicode="&#x3c0;" horiz-adv-x="1692" 
d="M1141 -18q-262 0 -208 318l88 520h-268l-32 -313q-45 -411 -166.5 -468.5t-159.5 -61.5l-244 207q94 13 161.5 71.5t95 125.5t45.5 129l91 311h-136q-95 0 -119 -53.5t-33 -76.5l-114 13q-21 192 72.5 311.5t231.5 119.5h854q78 0 111.5 13t44.5 62h124q2 -206 -52 -298
t-241 -92h-42l-15 -476q-7 -155 64 -155q86 0 160 100l89 -98q-98 -141 -214 -175t-188 -34z" />
    <glyph glyph-name="uni0400" unicode="&#x400;" horiz-adv-x="1351" 
d="M697 1593q-69 18 -198 100t-194 161l242 160h1l295 -319l-145 -102h-1zM54 1522h1156l28 -384h-185l-77 210l-351 25v-510l205 5l39 166h154v-534h-154l-37 179l-207 5v-528l384 31l132 267l201 -55l-44 -399h-1238v152l149 23v1154l-155 31v162z" />
    <glyph glyph-name="afii10023" unicode="&#x401;" horiz-adv-x="1351" 
d="M398 1626q-70 0 -115 51q-46 51 -46 107q0 217 196 217h1q136 0 172 -105q10 -32 10 -70q0 -88 -54 -144t-163 -56h-1zM948 1626q-67 0 -114 54q-48 54 -48 108q0 101 49 157t147 56h1q137 0 173 -105q10 -32 10 -70q0 -87 -54 -143q-54 -57 -163 -57h-1zM54 1522h1156
l28 -384h-185l-77 210l-351 25v-510l205 5l39 166h154v-534h-154l-37 179l-207 5v-528l384 31l132 267l201 -55l-44 -399h-1238v152l149 23v1154l-155 31v162z" />
    <glyph glyph-name="afii10051" unicode="&#x402;" horiz-adv-x="1876" 
d="M1420 285q0 221 -51 314t-170 93q-80 0 -140 -21t-90 -48v-436l278 -29v-158h-987v158l295 29v1171l-233 -26l-65 -309h-216l28 499h1449l37 -499h-219l-72 309l-295 26v-556q73 45 178 64t187 19t295.5 -54t213.5 -486q0 -357 -166 -563.5t-430 -206.5q-123 0 -214 38
l-19 167l33 -11q33 -11 137 -11q236 0 236 527z" />
    <glyph glyph-name="afii10052" unicode="&#x403;" horiz-adv-x="1269" 
d="M457 1695l295 319h1l242 -160q-88 -92 -209 -168t-184 -93h-1zM56 1522h1182l36 -632h-232l-82 439l-273 26v-1179l306 -25v-151h-940v152l221 24v1154l-218 32v160z" />
    <glyph glyph-name="afii10053" unicode="&#x404;" horiz-adv-x="1406" 
d="M266.5 1329q220.5 209 607.5 209q122 0 222 -19.5t147.5 -30t88.5 -14.5l-27 -435h-272l-61 290q-8 10 -15 20.5t-26.5 23.5t-85.5 13q-147 0 -239 -128.5t-104 -392.5l531 15v-223l-528 14q30 -372 139.5 -454.5t167.5 -82.5q151 0 197 59l88 242l228 -2l2 -377
q-45 -3 -94.5 -16t-162 -38t-290.5 -25t-316.5 56.5t-278 208.5t-139.5 515t220.5 572z" />
    <glyph glyph-name="afii10054" unicode="&#x405;" horiz-adv-x="1262" 
d="M614 136q100 0 152 48t51 134q-1 85 -89 154q-63 49 -183 107q-121 58 -187 99t-121 101q-131 140 -131 326t128 303q148 135 434 135q155 -1 256 -25q102 -24 140 -36t61 -12l-13 -375h-217l-49 251q-10 16 -50 30t-100 14q-105 0 -151 -50q-47 -50 -47 -113t31 -107
t87 -85t171 -98t157 -80t82 -52q204 -146 203 -344q1 -197 -113 -321q-149 -163 -489 -163q-160 -1 -280 29q-121 30 -169 44t-75 16l17 388h222l57 -257q44 -61 215 -61z" />
    <glyph glyph-name="afii10055" unicode="&#x406;" horiz-adv-x="870" 
d="M71 1522h734v-162l-162 -30v-1155l162 -25v-150h-731v152l153 24v1154l-156 30v162z" />
    <glyph glyph-name="uni0407" unicode="&#x407;" horiz-adv-x="870" 
d="M71 1522h734v-162l-162 -30v-1155l162 -25v-150h-731v152l153 24v1154l-156 30v162zM130 1626q-70 0 -115 51q-46 51 -46 107q0 217 196 217h1q136 0 172 -105q10 -32 10 -70q0 -88 -54 -144t-163 -56h-1zM680 1626q-67 0 -114 54q-48 54 -48 108q0 101 49 157t147 56h1
q137 0 173 -105q10 -32 10 -70q0 -87 -54 -143q-54 -57 -163 -57h-1z" />
    <glyph glyph-name="afii10057" unicode="&#x408;" horiz-adv-x="831" 
d="M237 347v983l-164 30v162h727v-162l-151 -29v-768q0 -422 -29 -520q-55 -185 -200 -302q-145 -116 -380 -152l-89 134q118 44 196 167q44 69 58 131q32 140 32 326z" />
    <glyph glyph-name="afii10058" unicode="&#x409;" horiz-adv-x="2186" 
d="M1510 142q132 0 185 78.5t53 181.5q0 175 -50 239.5t-169 64.5q-39 0 -138 -11h-1v-536l1 1q49 -18 119 -18zM1646 874q527 0 527 -418q0 -224 -139.5 -348t-394.5 -124l-440 16h-434v152l217 24l-1 1153h-349v-128q0 -596 -74 -847t-148 -310t-143 -59q-122 0 -190 14
l-26 207q22 -2 41 -3l47.5 -2.5t60.5 -1.5q56 0 96.5 24.5t98 242.5t57.5 738v127l-250 29v162h1188v-3l1 3h187v-162l-188 -31v-476l1 2q115 19 255 19z" />
    <glyph glyph-name="afii10059" unicode="&#x40a;" horiz-adv-x="2320" 
d="M1635 142q130 0 182 80t52 185q0 180 -50.5 245t-167.5 65h-138v-558q55 -17 122 -17zM940 0v158l160 29v494h-478v-495l171 -28v-158h-733v152l149 23v1156l-147 29v162h731v-162l-171 -30v-467h478v469l-162 33v157h725v-157l-150 -32v-455h259q241 0 382 -112
t141 -324t-143.5 -335.5t-377.5 -123.5l-451 17h-383z" />
    <glyph glyph-name="afii10060" unicode="&#x40b;" horiz-adv-x="1977" 
d="M1218 677q-126 0 -239 -69h-1v-432l169 -24v-152h-834v152l251 24v1181l-253 -25l-65 -309h-216l29 499h1432l37 -499h-203l-90 306l-257 26v-572l1 2q177 100 362 100q263 0 371 -96t108 -360v-254l140 -23v-152h-673v152l120 23v173q0 205 -28 254t-65 62t-96 13z" />
    <glyph glyph-name="afii10061" unicode="&#x40c;" horiz-adv-x="1528" 
d="M606 1695l295 319h1l242 -160q-88 -92 -209 -168t-184 -93h-1zM62 1522h701v-162l-141 -30v-490h114l302 492l-129 28v162h592v-162l-180 -30l-354 -494q157 -26 271 -223q53 -91 91 -186q39 -95 71 -167t64 -84l71 -24v-152h-424q-79 0 -153 223l-43 129
q-57 172 -98 242q-65 110 -143 111h-52v-529l184 -26v-150h-744v152l147 24v1154l-147 30v162z" />
    <glyph glyph-name="uni040D" unicode="&#x40d;" horiz-adv-x="1761" 
d="M1018 1593q-69 18 -198 100t-194 161l242 160h1l295 -319l-145 -102h-1zM62 1522h729v-161l-171 -31v-847l92 192l429 615v40l-162 30v162h720v-162l-148 -30v-1154l151 -24v-152h-721v152l160 24v858l-85 -198l-436 -611v-48l171 -25v-152h-731v152l149 23v1156l-147 29
v162z" />
    <glyph glyph-name="afii10062" unicode="&#x40e;" horiz-adv-x="1362" 
d="M1193 1941q0 -149 -123 -234q-123 -84 -325 -84t-328 86t-126 232v15l2 58h266q36 0 36 -121q0 -135 147 -135t147 135q0 121 36 121h266l2 -58v-15zM216 216h153q100 0 129 16q28 16 38 34t14 47l-450 1018l-108 29v162h729v-162l-165 -30l213 -579l51 -150l234 730
l-134 29v162h476v-162l-105 -30l-373 -999q-76 -170 -134 -231q-118 -123 -298 -123t-270 38v201z" />
    <glyph glyph-name="afii10145" unicode="&#x40f;" horiz-adv-x="1713" 
d="M60 1522h732v-162l-170 -30v-1173h469v1173l-171 30v162h732v-162l-148 -30v-1155l152 -23v-152h-621q-24 -34 -43.5 -198.5t-19.5 -239.5h-232q0 138 -29.5 281t-39.5 157h-614v152l152 24v1154l-149 30v162z" />
    <glyph glyph-name="afii10017" unicode="&#x410;" horiz-adv-x="1465" 
d="M827 565l-155 588l-22 126l-24 -126l-147 -588h348zM1494 0h-697v152l133 23l-58 217h-436l-56 -222l152 -18v-152h-574l-3 152l115 24l437 1349h442l438 -1350l107 -23v-152z" />
    <glyph glyph-name="afii10018" unicode="&#x411;" horiz-adv-x="1456" 
d="M739 142q146 0 203 81t57 188q0 185 -57.5 253t-185.5 68l-134 -5v-567q39 -18 117 -18zM47 0v152l162 23v1155l-161 30v162h1206l21 -437h-228l-63 248l-362 22v-477q10 2 50.5 3t70.5 2t57 1.5t48 1t29 0.5q280 0 413.5 -103.5t133.5 -325.5t-148.5 -347.5
t-391.5 -125.5l-453 16h-384z" />
    <glyph glyph-name="afii10019" unicode="&#x412;" horiz-adv-x="1501" 
d="M993 446q-1 200 -129 238q-42 12 -116 12t-130 -5v-530q32 -18 138 -18q237 0 237 303zM937 1152q0 233 -192 233q-94 0 -126 -9v-505q37 -5 134 -5q184 0 184 286zM60 0v152l149 24v1154l-148 30v162h348l336 11q499 1 577 -203q24 -64 25 -146q0 -158 -100 -256
t-249 -115q324 -3 420 -197q32 -66 33 -160q0 -216 -141 -332q-166 -135 -540 -136l-353 12h-357z" />
    <glyph glyph-name="afii10020" unicode="&#x413;" horiz-adv-x="1269" 
d="M56 1522h1182l36 -632h-232l-82 439l-273 26v-1179l306 -25v-151h-940v152l221 24v1154l-218 32v160z" />
    <glyph glyph-name="afii10021" unicode="&#x414;" horiz-adv-x="1625" 
d="M944 176v1177h-331v-96q0 -708 -170 -1081h501zM428 1269v61l-215 30v162h1342v-162l-199 -30v-1154h202q0 -278 -15 -438.5t-17 -169.5h-213q0 78 -39.5 244t-55.5 188h-848q-37 -40 -71.5 -203t-45.5 -236h-221q1 22 1.5 62.5t1.5 92t3.5 199t11.5 258.5l2 -2l1 5h141
q127 187 180.5 492.5t53.5 600.5z" />
    <glyph glyph-name="afii10022" unicode="&#x415;" horiz-adv-x="1351" 
d="M54 1522h1156l28 -384h-185l-77 210l-351 25v-510l205 5l39 166h154v-534h-154l-37 179l-207 5v-528l384 31l132 267l201 -55l-44 -399h-1238v152l149 23v1154l-155 31v162z" />
    <glyph glyph-name="afii10024" unicode="&#x416;" horiz-adv-x="2211" 
d="M35 1522h586v-162l-129 -28l295 -492h120v491l-162 29v162h724v-162l-163 -29v-491h119l295 492l-128 28v162h592v-162l-181 -30l-352 -499q188 -45 268 -222t101.5 -230t52 -122t62.5 -81l85 -24v-152h-425q-80 0 -130 143t-90.5 259.5t-95.5 209.5t-135 93h-38v-529
l183 -26v-150h-757v152l175 24v529h-38q-112 0 -168.5 -143t-99.5 -267.5t-84.5 -209.5t-98.5 -85h-425v152l85 24q25 9 48.5 55.5t79.5 182.5t137.5 260t218.5 157l-353 499l-174 30v162z" />
    <glyph glyph-name="afii10025" unicode="&#x417;" horiz-adv-x="1310" 
d="M578 130q206 0 205 315q0 179 -80 222t-148 43h-124v172h106q171 0 207 105.5t36 175.5q0 122 -59 175t-156 53q-98 0 -125.5 -24t-31.5 -34l-48 -212h-223l-36 357q31 2 155 20.5t204 29t187 10.5q108 0 220.5 -21.5t189.5 -65.5t117 -110t40 -192t-105 -222t-259 -125
q191 -6 297 -97.5t106 -242.5q0 -231 -153.5 -352.5t-529.5 -121.5q-183 0 -315 42.5t-171 45.5l51 413h204l73 -301q56 -58 166 -58z" />
    <glyph glyph-name="afii10026" unicode="&#x418;" horiz-adv-x="1761" 
d="M62 1522h729v-161l-171 -31v-847l92 192l429 615v40l-162 30v162h720v-162l-148 -30v-1154l151 -24v-152h-721v152l160 24v858l-85 -198l-436 -611v-48l171 -25v-152h-731v152l149 23v1156l-147 29v162z" />
    <glyph glyph-name="afii10027" unicode="&#x419;" horiz-adv-x="1761" 
d="M1327 1941q0 -149 -123 -234q-123 -84 -325 -84t-328 86t-126 232v15l2 58h266q36 0 36 -121q0 -135 147 -135t147 135q0 121 36 121h266l2 -58v-15zM62 1522h729v-161l-171 -31v-847l92 192l429 615v40l-162 30v162h720v-162l-148 -30v-1154l151 -24v-152h-721v152
l160 24v858l-85 -198l-436 -611v-48l171 -25v-152h-731v152l149 23v1156l-147 29v162z" />
    <glyph glyph-name="afii10028" unicode="&#x41a;" horiz-adv-x="1528" 
d="M62 1522h701v-162l-141 -30v-490h114l302 492l-129 28v162h592v-162l-180 -30l-354 -494q156 -26 239.5 -170t122.5 -239t71.5 -167.5t63.5 -83.5l71 -24v-152h-424q-79 0 -126.5 143t-87 262t-92.5 209.5t-131 90.5h-52v-529l184 -26v-150h-744v152l147 24v1154l-147 30
v162z" />
    <glyph glyph-name="afii10029" unicode="&#x41b;" horiz-adv-x="1600" 
d="M296.5 226.5q39.5 24.5 97.5 237t58 799.5v66l-263 31v162h1388v-162l-187 -31v-1154l195 -23v-152h-820v152l217 24l-1 1153h-349v-128q0 -780 -133 -1051q-83 -165 -247 -165q-107 0 -175 14l-26 210q22 -2 41 -3l47.5 -2.5t72.5 -1.5q45 0 84.5 24.5z" />
    <glyph glyph-name="afii10030" unicode="&#x41c;" horiz-adv-x="2168" 
d="M104 1522h751l211 -822l35 -209l31 209l168 822h764v-162l-219 -30l175 -1154l161 -24v-152h-757v152l167 24l-88 864l-39 345l-57 -306l-224 -1026h-339l-289 990l-74 344l-76 -1211l211 -24v-152h-619v152l168 23l134 1155l-195 30v162z" />
    <glyph glyph-name="afii10031" unicode="&#x41d;" horiz-adv-x="1729" 
d="M70 1522h716v-162l-163 -29v-461h483v460l-150 30v162h710v-162l-146 -29v-1156l146 -23v-152h-709v152l149 24v498h-483v-499l163 -23v-152h-718v152l141 23v1156l-139 29v162z" />
    <glyph glyph-name="afii10032" unicode="&#x41e;" horiz-adv-x="1506" 
d="M755 1392q-251 0 -251 -629q0 -495 145 -601q46 -34 103 -34q121 0 186 169t65 492q0 485 -145 575q-46 28 -103 28zM240 1332q191 211 522 211q542 -3 660 -441q38 -139 37 -315q0 -360 -193 -584t-520 -226q-362 -3 -538 215q-158 196 -159 563q0 366 191 577z" />
    <glyph glyph-name="afii10033" unicode="&#x41f;" horiz-adv-x="1689" 
d="M58 1522h1574v-161l-152 -30v-1155l158 -24v-152h-708v152l137 23v1179h-445v-1179l148 -23v-152h-710v152l149 23v1155l-151 30v162z" />
    <glyph glyph-name="afii10034" unicode="&#x420;" horiz-adv-x="1389" 
d="M715 655q61 -1 101 19q128 63 128 386t-220 323q-53 0 -101 -12v-705q31 -11 92 -11zM778 504q-118 0 -154 6v-335l265 -23v-152h-829v152l149 23v1155l-145 30v162h361q60 0 143 6q82 6 226 4q305 -2 438 -115q132 -113 132 -349q0 -412 -350 -526q-118 -38 -236 -38z
" />
    <glyph glyph-name="afii10035" unicode="&#x421;" horiz-adv-x="1364" 
d="M46 749q0 183 58 331t160 250q210 208 552 208q128 0 295 -22t199 -23l-27 -502h-259l-78 343q-42 42 -128 42t-138 -36q-167 -113 -167 -566q1 -452 165 -588q54 -45 110 -45q87 0 123 15t63 44l98 230l234 -20l-33 -354q-55 -6 -148 -30q-93 -25 -161 -37t-220 -12
q-152 1 -290 55t-228 154t-136 240q-44 141 -44 323z" />
    <glyph glyph-name="afii10036" unicode="&#x422;" horiz-adv-x="1537" 
d="M1263 0h-956v152l257 24v1174l-207 -11l-95 -471h-221l32 654h1386l27 -654h-208l-101 471l-197 11v-1174l283 -24v-152z" />
    <glyph glyph-name="afii10037" unicode="&#x423;" horiz-adv-x="1362" 
d="M216 216h153q100 0 129 15.5t38.5 34t13.5 47.5l-450 1018l-108 29v162h729v-162l-165 -30l213 -579l51 -150l234 730l-134 29v162h476v-162l-105 -30l-373 -999q-76 -170 -164.5 -262t-267.5 -92q-180 0 -270 38v201z" />
    <glyph glyph-name="afii10038" unicode="&#x424;" horiz-adv-x="1817" 
d="M1335 1010q-59 98 -227 122v-743q175 13 230.5 101.5t55.5 254.5q0 167 -59 265zM483.5 522q59.5 -103 224.5 -127v744q-173 -11 -228.5 -97t-55.5 -252q0 -165 59.5 -268zM-3 792q0 89 77 276.5t634 193.5v118l-166 33v154h725v-154l-159 -32v-117q429 3 555 -115.5
t141.5 -219t15.5 -190.5t-42.5 -180.5t-179 -192t-490.5 -97.5v-135l163 -19v-159h-726v159l163 22v133q-639 -8 -675 212.5t-36 309.5z" />
    <glyph glyph-name="afii10039" unicode="&#x425;" horiz-adv-x="1491" 
d="M14 1522h751v-162l-142 -32l224 -387l244 389l-167 30v162h556v-162l-167 -30l-373 -505l433 -649l125 -24v-152h-750v152l145 25l-250 422l-239 -425l182 -22v-152h-576v152l167 22l369 545l-405 610l-127 31v162z" />
    <glyph glyph-name="afii10040" unicode="&#x426;" horiz-adv-x="1725" 
d="M60 1522h732v-162l-170 -30v-1172h443v1173l-145 29v162h708v-162l-150 -29v-1155h226q0 -224 -25 -411.5t-27 -196.5h-213q0 84 -30 242.5t-45 189.5h-1311v152l156 24v1155l-149 29v162z" />
    <glyph glyph-name="afii10041" unicode="&#x427;" horiz-adv-x="1569" 
d="M947 618q-133 -85 -360 -85q-226 0 -338.5 98t-112.5 360v338l-111 31v162h651v-162l-125 -29v-259q0 -209 32 -259t70 -61t95 -11q133 0 199 61v530l-150 28v162h714v-162l-152 -30v-1154l152 -26v-150h-785v152l221 24v442z" />
    <glyph glyph-name="afii10042" unicode="&#x428;" horiz-adv-x="2446" 
d="M60 1522h704v-162l-142 -29v-1156h397v1157l-143 28v162h700v-162l-145 -29v-1156h394v1155l-141 30v162h702v-162l-150 -29v-1156l157 -23v-152h-2340v152l156 25v1154l-149 29v162z" />
    <glyph glyph-name="afii10043" unicode="&#x429;" horiz-adv-x="2505" 
d="M60 1522h704v-162l-142 -29v-1156h397v1157l-143 28v162h700v-162l-145 -29v-1156h394v1155l-141 30v162h702v-162l-150 -29v-1155h241q0 -224 -25 -411.5t-27 -196.5h-213q0 84 -30 242.5t-45 189.5h-2084v152l156 25v1154l-149 29v162z" />
    <glyph glyph-name="afii10044" unicode="&#x42a;" horiz-adv-x="1794" 
d="M1097 142q135 0 188.5 81t53.5 187q0 183 -51.5 249t-168.5 66h-141v-567q46 -16 119 -16zM258 0v152l307 24v1182l-212 -26l-82 -455h-232l36 645h1143v-154l-240 -39v-436h248q414 0 476.5 -162.5t62.5 -270.5q0 -223 -140 -349.5t-397 -126.5l-441 16h-529z" />
    <glyph glyph-name="afii10045" unicode="&#x42b;" horiz-adv-x="2196" 
d="M1415 1522h734v-162l-162 -30v-1155l162 -25v-150h-731v152l153 24v1154l-156 30v162zM738 142q243 0 243 311q0 155 -51 227t-171 73q-120 0 -137 -6v-589q46 -16 116 -16zM855 -16l-478 16h-317v152l149 23v1158l-147 32v157h783v-157l-223 -33v-425q28 7 214 7
t284 -31q288 -91 288 -410q0 -221 -158 -355t-395 -134z" />
    <glyph glyph-name="afii10046" unicode="&#x42c;" horiz-adv-x="1418" 
d="M738 142q243 0 243 311q0 155 -51 227.5t-171 72.5t-137 -6v-589q46 -16 116 -16zM855 -16l-478 16h-317v152l149 23v1158l-147 32v157h783v-157l-223 -33v-425q28 7 214 7t379 -61t193 -380q0 -221 -158 -355t-395 -134z" />
    <glyph glyph-name="afii10047" unicode="&#x42d;" horiz-adv-x="1411" 
d="M586 129q56 0 185.5 68.5t138.5 485.5l-545 -15v223l539 -14q-36 352 -144 428t-164 76q-144 0 -190 -66l-79 -236l-235 -4l-16 385q45 3 95 15.5t164.5 37.5t291.5 25q351 0 544.5 -210t193.5 -573t-217.5 -570.5t-603.5 -207.5q-125 0 -224 22t-144.5 33t-89.5 13
l9 416l270 8l71 -275q21 -32 35.5 -42.5t36.5 -16.5t78 -6z" />
    <glyph glyph-name="afii10048" unicode="&#x42e;" horiz-adv-x="2318" 
d="M1568 1392q-238 0 -238 -631q0 -493 92 -562.5t150 -69.5q232 0 232 660q0 483 -89.5 543t-146.5 60zM624 673v-497l164 -24v-152h-729v152l150 24v1154l-147 30v162h722v-162l-160 -30v-459h255q30 317 215 494.5t483 177.5q534 -3 609 -290t74 -467q-2 -367 -188 -587
t-509 -220q-656 0 -687 694h-252z" />
    <glyph glyph-name="afii10049" unicode="&#x42f;" horiz-adv-x="1526" 
d="M582 1114q0 -332 219 -332q9 0 24 0.5t40.5 1.5t37.5 6v586q-39 9 -97 9q-114 0 -169 -61t-55 -210zM859.5 635q-34.5 0 -134.5 4q-83 -44 -146.5 -290t-86 -297.5t-42.5 -51.5h-445v152l66 23q26 8 46 44.5t63.5 150t98.5 209t169 133.5q-148 36 -225 152.5t-77 236.5
t59.5 276.5t529.5 156.5l383 -12h349v-162l-150 -30v-1155l157 -23v-152h-742l-1 152l172 23v461q-9 -1 -43.5 -1z" />
    <glyph glyph-name="afii10065" unicode="&#x430;" horiz-adv-x="1181" 
d="M487 240q34 -51 95 -51q29 0 62 16t54 40v315q-130 0 -187 -54q-58 -54 -58 -134q0 -81 34 -132zM1164 4q-142 -30 -245 -30t-131 6t-50 26q-21 19 -21 90v38q-75 -105 -215 -143q-52 -14 -118 -14t-130 24t-110 69q-48 44 -76 110t-28 152q0 179 166 278
q166 100 492 100v32q0 95 -26 125q-26 29 -62 39t-98 11q-108 0 -182 -21q-75 -21 -164 -56h-1l-79 168q123 94 342 140q87 18 202 19q238 1 336 -97t98 -332v-586h100v-148z" />
    <glyph glyph-name="afii10066" unicode="&#x431;" horiz-adv-x="1227" 
d="M616 975q-111 0 -164 -99q0 -450 21.5 -561.5t54.5 -150t87 -38.5q98 0 129.5 117t31.5 301q0 183 -9.5 255.5t-29 111.5t-49.5 51.5t-72 12.5zM372 1000q124 163 381 163q223 0 324 -133.5t101 -422.5t-145 -456t-415 -167q-287 0 -431 198.5t-144 592.5t176.5 591
t365.5 240.5t231 47.5t65.5 17t34.5 48l26 77h206l-22 -286q-11 -117 -135 -117q-410 0 -521 -81q-78 -59 -98 -312z" />
    <glyph glyph-name="afii10067" unicode="&#x432;" horiz-adv-x="1427" 
d="M933 337q0 144 -80 166.5t-142 22.5h-109v-375q26 -11 104 -11q133 0 180 53t47 144zM715 1006q-60 0 -113 -4v-325h104q105 0 146.5 53.5t41.5 109.5t-7.5 83t-27 45.5t-52 28t-92.5 9.5zM81 0v152l127 23v793l-131 23v147h288q41 0 182 8.5t266 8.5q261 0 368.5 -68.5
t107.5 -186.5q0 -212 -211 -273q152 -13 232 -95t80 -169q0 -88 -56.5 -232.5t-582.5 -144.5l-392 14h-278z" />
    <glyph glyph-name="afii10068" unicode="&#x433;" horiz-adv-x="1103" 
d="M63 1137h1010l10 -484h-220l-66 315l-186 23v-819l253 -20v-152h-805v152l146 21v794l-142 24v146z" />
    <glyph glyph-name="afii10069" unicode="&#x434;" horiz-adv-x="1422" 
d="M821 155v816h-277v-89q0 -378 -43.5 -531.5t-67.5 -195.5h388zM25 -432q0 284 13 603l121 -8q48 24 117 143.5t69 661.5l-200 23v147h1253v-147l-174 -23v-813h180q0 -15 -2 -61.5t-11 -261.5t-22 -264h-198q-37 199 -71 307t-42 124v1h-701q-33 -73 -70.5 -245.5
t-39.5 -186.5h-222z" />
    <glyph glyph-name="afii10070" unicode="&#x435;" 
d="M716 760q0 127 -18 172t-40 62t-56 17q-72 0 -108 -68t-38 -267h259v18l1 48v18zM736 215q128 0 277 78l66 -141q-50 -57 -141 -97q-175 -78 -324 -78q-290 0 -426 157q-135 157 -135 440q0 282 153 437q153 156 420 156q226 0 343 -109q118 -109 122 -311
q0 -120 -19 -220h-612q16 -162 82 -237t194 -75z" />
    <glyph glyph-name="afii10072" unicode="&#x436;" horiz-adv-x="2132" 
d="M49 1138h600v-147l-143 -23l163 -293h200v293l-115 23v147h624l2 -147l-118 -24v-292h199l163 293l-142 23v147h600v-147l-171 -24l-223 -316q135 -55 215 -226.5t100.5 -206t43.5 -43.5l98 -19v-156h-413q-86 0 -124.5 106.5t-67 194.5t-69 156t-107.5 68h-102v-349
l170 -24v-152h-710v152l147 24v350l-102 -1q-92 0 -132 -107t-69 -195.5t-66 -155.5t-100 -67h-413v156l96 20q33 14 69 89t97 203t194 183l-223 316l-171 24v147z" />
    <glyph glyph-name="afii10073" unicode="&#x437;" 
d="M555 1161q502 0 502 -277q0 -87 -57 -159t-166 -114q277 -34 282 -265q3 -263 -202.5 -312.5t-331.5 -49.5t-209.5 10.5t-146.5 24t-105 25.5t-62 16l24 303h232l43 -177q32 -56 135 -56q175 0 175 187.5t-132 187.5q-32 0 -128 -24l4 187l88 11q94 21 117.5 90t23.5 128
q0 120 -142 120q-86 0 -112 -39.5t-31 -57.5l-23 -144h-255v330q61 0 203.5 27.5t273.5 27.5z" />
    <glyph glyph-name="afii10074" unicode="&#x438;" horiz-adv-x="1623" 
d="M84 1138h663v-147l-138 -23v-522l100 134l305 334v55l-117 22v147h645v-147l-126 -24v-795l133 -21v-151h-673v151l138 22v533l-94 -144l-311 -339v-57l132 -14v-152h-659v152l126 20v796l-124 23v147z" />
    <glyph glyph-name="afii10075" unicode="&#x439;" horiz-adv-x="1623" 
d="M84 1138h663v-147l-138 -23v-522l100 134l305 334v55l-117 22v147h645v-147l-126 -24v-795l133 -21v-151h-673v151l138 22v533l-94 -144l-311 -339v-57l132 -14v-152h-659v152l126 20v796l-124 23v147zM1255 1668q0 -165 -121 -265q-121 -99 -328 -99q-206 0 -330 101
t-124 263v12l2 48h255q36 0 36 -114q1 -114 89 -158q30 -14 69 -15q76 0 116 51q41 51 41 143q0 93 36 93h257l2 -48v-12z" />
    <glyph glyph-name="afii10076" unicode="&#x43a;" horiz-adv-x="1472" 
d="M83 1138h632v-147l-105 -23v-293h189l164 294l-144 22v147h600v-147l-170 -24l-221 -314q134 -52 195 -182t96 -206t70 -90l97 -19v-156h-410q-86 0 -124.5 106.5t-67 194.5t-69 156t-107.5 68h-98v-353l147 -20v-152h-676v152l126 21v795l-124 23v147z" />
    <glyph glyph-name="afii10077" unicode="&#x43b;" horiz-adv-x="1328" 
d="M119 194q100 0 133 282.5t33 491.5l-183 23v147h1195v-149l-178 -25v-792l163 -20v-152h-721v152l153 21v795h-248v-95q0 -384 -46 -543.5t-68 -201.5q-28 -69 -98 -120.5t-234 -8.5l-23 205q44 -10 122 -10z" />
    <glyph glyph-name="afii10078" unicode="&#x43c;" horiz-adv-x="1984" 
d="M77 1138h704l209 -626l26 -110l20 110l157 626h719v-147l-192 -23l149 -795l141 -21v-152h-699v152l148 22l-74 593l-34 237l-60 -234l-191 -689h-329l-256 697l-66 234l-83 -839l173 -21v-152h-559v152l151 20l121 796l-175 23v147z" />
    <glyph glyph-name="afii10079" unicode="&#x43d;" horiz-adv-x="1590" 
d="M77 1138h653v-147l-120 -23v-297h369v297l-120 23v147h655v-147l-131 -24v-794l126 -21v-152h-651v152l121 20v338h-369v-337l120 -21v-152h-649v152l127 20v795l-131 24v147z" />
    <glyph glyph-name="afii10080" unicode="&#x43e;" horiz-adv-x="1269" 
d="M640 134q150 0 149 373q0 298 -36 401t-121 103q-154 0 -154 -424q0 -353 90 -427q32 -26 72 -26zM222 1014q169 154 428 154q258 0 412 -150t154 -446q0 -297 -176 -455q-156 -140 -417 -140q-260 0 -415 150t-155 442q0 291 169 445z" />
    <glyph glyph-name="afii10081" unicode="&#x43f;" horiz-adv-x="1557" 
d="M76 1138h1411v-147l-137 -23v-793l126 -23v-152h-654v152l124 23v812h-334v-812l113 -23v-152h-643v152l126 24v792l-132 23v147z" />
    <glyph glyph-name="afii10082" unicode="&#x440;" horiz-adv-x="1325" 
d="M553 160q32 -34 84 -34q103 0 153 93q62 114 61 349q4 388 -169 388q-41 0 -76 -17t-53 -39v-740zM712 -496h-658v142l112 27v1222l-109 39v184l402 49h5l61 -47v-104q67 98 203 138q46 14 118 14t154 -31q80 -31 140 -99q128 -145 127 -420q0 -276 -154 -448
q-172 -192 -472 -193q-52 0 -94 16l6 -163v-157l159 -27v-142z" />
    <glyph glyph-name="afii10083" unicode="&#x441;" horiz-adv-x="1082" 
d="M696 209q149 0 272 72l63 -139q-82 -98 -269 -146q-70 -18 -186 -19q-116 0 -220 44q-296 126 -295 542q0 281 166 443t429 162q154 0 314 -51q32 -10 58 -11l-17 -399h-243l-57 249q-11 46 -78 46q-68 0 -109 -83q-40 -83 -40 -291q0 -209 54 -314q56 -105 158 -105z
" />
    <glyph glyph-name="afii10084" unicode="&#x442;" horiz-adv-x="1394" 
d="M1162 0h-910v152l247 23v816l-158 -23l-66 -344h-235l24 513h1257l25 -513h-232l-72 344l-139 23v-816l259 -23v-152z" />
    <glyph glyph-name="afii10085" unicode="&#x443;" horiz-adv-x="1205" 
d="M144 -205q39 -34 184 -34q86 0 152 73q44 49 89 166h-129l-382 967l-87 24v147h658v-147l-134 -24l154 -516l44 -162l32 162l145 517l-117 23v147h488v-147l-94 -23q-74 -226 -177 -517q-104 -290 -135 -379t-54 -151t-69 -153t-102 -153q-56 -61 -128 -93
q-70 -32 -178 -32t-160 24v281z" />
    <glyph glyph-name="afii10086" unicode="&#x444;" horiz-adv-x="1914" 
d="M1237 145q88 0 149 102.5t61 358.5t-73 315.5t-131 59.5t-98 -44v-755q8 -13 32 -25t60 -12zM691 1001q-223 0 -223 -471q0 -254 72 -309.5t130 -55.5t99 44v754q-27 38 -78 38zM57 536q0 291 146 459.5t425 168.5q85 0 148 -29l-7 157v169l-136 30v136l432 53h6l74 -46
v-342l-2 -241q102 113 264 113q318 0 384.5 -209t66.5 -353q0 -292 -147.5 -460t-424.5 -168q-83 0 -135 26l4 -95v-230l159 -28v-144h-701v144l156 29v230l6 186q-101 -118 -269 -118q-318 0 -383.5 209t-65.5 353z" />
    <glyph glyph-name="afii10087" unicode="&#x445;" horiz-adv-x="1266" 
d="M-2 1138h698v-147l-118 -22l123 -176l47 -85l50 86l124 175l-121 22v147h461v-147l-109 -22l-299 -365l341 -432l106 -22v-150h-686v150l100 23l-118 188l-58 87l-45 -87l-123 -188l138 -23v-150h-511v150l120 23l304 375l-328 421l-96 23v146z" />
    <glyph glyph-name="afii10088" unicode="&#x446;" horiz-adv-x="1550" 
d="M80 1138h653v-147l-121 -23v-810h340v810l-115 23v147h633v-147l-113 -23v-810h187q0 -44 -9.5 -147.5t-23 -253.5t-26.5 -189h-192q-3 16 -8.5 49.5t-31.5 181t-49 201.5h-1119v151l123 24v793l-128 23v147z" />
    <glyph glyph-name="afii10089" unicode="&#x447;" horiz-adv-x="1389" 
d="M651 554q102 0 154 45v368l-102 25v146h625v-147l-130 -23v-793l127 -23v-152h-698v152l178 23v280q-34 -14 -65 -27.5t-89.5 -30.5t-154.5 -17q-202 0 -301.5 97.5t-99.5 338.5v152l-97 23v147h590v-147l-86 -24v-118q0 -183 23 -227.5t52 -56t74 -11.5z" />
    <glyph glyph-name="afii10090" unicode="&#x448;" horiz-adv-x="2190" 
d="M88 1138h629v-147l-120 -23v-812h305v812l-109 23v147h606v-147l-109 -23v-812h304v812l-114 23v147h624v-147l-120 -22v-797l141 -24v-148h-2040v148l123 25v792l-120 26v147z" />
    <glyph glyph-name="afii10091" unicode="&#x449;" horiz-adv-x="2184" 
d="M88 1138h629v-147l-120 -23v-812h305v812l-109 23v147h606v-147l-109 -23v-812h304v812l-114 23v147h624v-147l-120 -22v-811h204q0 -43 -9.5 -148.5t-23 -257.5t-26.5 -191h-192q-3 16 -8 50t-31 183.5t-50 205.5h-1763v148l123 25v792l-120 26v147z" />
    <glyph glyph-name="afii10092" unicode="&#x44a;" horiz-adv-x="1627" 
d="M950 136q248 0 248 209q0 140 -68 174.5t-100 34.5h-58q-58 0 -102 -4v-404q30 -10 80 -10zM220 0v152l259 24v815l-167 -16l-60 -332h-220l5 495h1001v-146l-168 -27v-261q128 8 254 8q244 0 363.5 -88t119.5 -251q0 -300 -208 -345t-338 -45l-382 17h-459z" />
    <glyph glyph-name="afii10093" unicode="&#x44b;" horiz-adv-x="2035" 
d="M635 136q246 0 246 209q0 140 -67.5 174.5t-101.5 34.5h-43q-43 0 -69 -1v-417h35zM73 0v148l135 25v792l-137 27v146h666v-146l-137 -27v-259q144 6 238 6q211 0 331.5 -88t120.5 -251q0 -390 -544 -390l-382 17h-291zM1323 1138h617v-149l-112 -21v-795l134 -21v-152
h-637v152l121 24v790l-123 23v149z" />
    <glyph glyph-name="afii10094" unicode="&#x44c;" horiz-adv-x="1353" 
d="M680 136q244 0 244 209q0 140 -67 174.5t-99 34.5h-60q-60 0 -96 -3v-408q24 -7 78 -7zM80 0v148l128 25v795l-128 22v148h674v-148l-152 -22v-264q128 8 250 8q240 0 360.5 -88t120.5 -251q0 -390 -542 -390l-380 17h-331z" />
    <glyph glyph-name="afii10095" unicode="&#x44d;" horiz-adv-x="1093" 
d="M83 1106q171 62 418 62q85 0 193 -38t237.5 -157t127.5 -399q-2 -279 -142.5 -438t-407.5 -159q-199 0 -295.5 46t-125.5 70l-13 225h176l53 -154q48 -21 103 -21q109 0 164 79.5t67 274.5l-365 -11v191l367 -12q-9 352 -179 352q-79 0 -114 -63l-34 -122h-222z" />
    <glyph glyph-name="afii10096" unicode="&#x44e;" horiz-adv-x="2018" 
d="M1382 1018q-149 0 -149 -366q0 -308 36 -416.5t118 -108.5t114.5 93.5t32.5 273.5q0 312 -33 418t-119 106zM84 1138h666v-147l-138 -24v-295h202q31 248 191.5 372t406.5 124t398 -147t152 -448t-163.5 -448.5t-418.5 -147.5t-406.5 134.5t-165.5 396.5h-196v-332
l148 -24v-152h-678v152l126 24v792l-124 23v147z" />
    <glyph glyph-name="afii10097" unicode="&#x44f;" horiz-adv-x="1433" 
d="M582.5 974.5q-54.5 -40.5 -54.5 -148.5t31.5 -157t69 -70.5t105.5 -21.5t98 3v426q-54 9 -101 9q-94 0 -148.5 -40.5zM95 794q0 360 561 360l427 -16h285v-149l-141 -22v-791l144 -22v-154h-682v154l143 23v259l-145 1q-58 -38 -102.5 -200t-71.5 -199.5t-54 -37.5h-426
v153l83 22q69 17 119 117t69 128.5t40 44.5q-249 69 -249 329z" />
    <glyph glyph-name="uni0450" unicode="&#x450;" 
d="M716 760q0 127 -18 172t-40 62t-56 17q-72 0 -108 -68t-38 -267h259v18l1 48v18zM736 215q128 0 277 78l66 -141q-50 -57 -141 -97q-175 -78 -324 -78q-290 0 -426 157q-135 157 -135 440q0 282 153 437q153 156 420 156q226 0 343 -109q118 -109 122 -311
q0 -120 -19 -220h-612q16 -162 82 -237t194 -75zM631 1286q-99 37 -243 153t-203 217l217 199h1l380 -452l-149 -117h-3z" />
    <glyph glyph-name="afii10071" unicode="&#x451;" 
d="M312 1324q-70 0 -117 52q-46 52 -46 111q0 107 49 166t147 59h1q136 0 172 -109q10 -33 11 -73q0 -91 -54 -148q-54 -58 -162 -58h-1zM839 1324q-68 0 -114 57q-47 57 -47 111q0 104 49 162t147 58h1q135 0 171 -109q10 -33 11 -73q0 -90 -53 -148t-164 -58h-1zM716 760
q0 127 -18 172t-40 62t-56 17q-72 0 -108 -68t-38 -267h259v18l1 48v18zM736 215q128 0 277 78l66 -141q-50 -57 -141 -97q-175 -78 -324 -78q-290 0 -426 157q-135 157 -135 440q0 282 153 437q153 156 420 156q226 0 343 -109q118 -109 122 -311q0 -120 -19 -220h-612
q16 -162 82 -237t194 -75z" />
    <glyph glyph-name="afii10099" unicode="&#x452;" horiz-adv-x="1404" 
d="M728 860q-84 0 -162 -70v-617l101 -22v-151h-601v152l106 20v1022h-165v134h165v132l-133 30v144l456 53h5l68 -50v-309h222v-134h-221v-21l-21 -235q149 142 386 142q176 0 253 -100t77 -336v-623q0 -401 -189.5 -483t-316.5 -83h-50q-51 0 -60 7l-10 156q127 0 171 77
t46.5 177.5t2.5 172.5v600q0 120 -22 156.5t-47 47.5t-61 11z" />
    <glyph glyph-name="afii10100" unicode="&#x453;" horiz-adv-x="1105" 
d="M325 1403l381 452h1l217 -199q-79 -134 -292 -283q-89 -62 -155 -87h-2zM65 1137h1010l10 -484h-220l-66 315l-186 23v-819l253 -20v-152h-805v152l146 21v794l-142 24v146z" />
    <glyph glyph-name="afii10101" unicode="&#x454;" horiz-adv-x="1088" 
d="M598 1168q233 0 411 -62l-8 -274h-222l-34 122q-35 63 -113 63q-138 0 -158.5 -135t-22.5 -219l398 13v-191l-395 13q17 -280 96.5 -317.5t133.5 -37.5t104 21l53 154h176l-12 -225q-139 -116 -459 -116q-106 0 -308 83t-205 519q-2 268 130 389t241 160.5t194 39.5z" />
    <glyph glyph-name="afii10102" unicode="&#x455;" horiz-adv-x="1111" 
d="M99 336h224l58 -162q19 -30 101 -46q24 -4 52 -4q61 0 99 31t38 74q1 43 -27 71t-74 53t-105 50t-119 55q-125 63 -189 150t-64 224q0 138 126 236t357 98q134 0 224 -20t128 -30t67 -11v-290l-214 1l-58 159q-8 15 -39 29t-90 15t-97 -29t-38 -73t21 -70q20 -27 56 -49
t82 -43q46 -20 103 -45q160 -70 233 -136q112 -101 112 -247t-121 -248t-375 -102q-152 0 -254 25q-103 25 -145 38t-72 17v279z" />
    <glyph glyph-name="afii10103" unicode="&#x456;" horiz-adv-x="754" 
d="M698 0h-616v152l112 20v723l-131 40v177l456 55h5l68 -47v-948l106 -20v-152zM372 1301q-88 0 -145 53q-56 53 -56 140t60 150t164 63h1q152 0 198 -114q14 -35 13 -77q0 -94 -61 -154q-61 -61 -173 -61h-1z" />
    <glyph glyph-name="afii10104" unicode="&#x457;" horiz-adv-x="754" 
d="M81 1324q-70 0 -117 52q-46 52 -46 111q0 107 49 166t147 59h1q137 0 173 -109q10 -33 10 -73q0 -91 -54 -148q-54 -58 -162 -58h-1zM608 1324q-68 0 -114 57q-47 57 -47 111q0 104 49 162t147 58h1q136 0 172 -109q10 -33 10 -73q0 -90 -53 -148t-164 -58h-1zM698 0
h-616v152l112 20v723l-131 40v177l456 55h5l68 -47v-948l106 -20v-152z" />
    <glyph glyph-name="afii10105" unicode="&#x458;" horiz-adv-x="715" 
d="M588 22q0 -158 -79 -276t-191 -181q-111 -63 -206 -63q-96 0 -124 8l-19 145q53 0 96 25q69 39 101 140t32 278l1 794l-132 41l1 179l446 55h5l69 -47v-1098zM363 1301q-88 0 -145 53q-56 53 -56 140t60 150t164 63h1q151 0 197 -114q14 -35 14 -77q0 -94 -61 -154
q-61 -61 -173 -61h-1z" />
    <glyph glyph-name="afii10106" unicode="&#x459;" horiz-adv-x="1878" 
d="M1463 350q0 153 -78 172t-135 19t-126 -25v-363q41 -12 106 -12q126 0 179.5 54t53.5 155zM118 194q103 0 139 282t36 492l-187 23v147h1196v-149l-178 -25v-289q112 32 248 32q259 0 372.5 -82.5t113.5 -270.5t-121 -279.5t-382 -91.5l-411 17h-375v152l150 20v796h-249
v-95q0 -379 -49 -541t-71 -204q-27 -68 -77.5 -105.5t-125.5 -37.5q-76 0 -127 14l-24 205q46 -10 122 -10z" />
    <glyph glyph-name="afii10107" unicode="&#x45a;" horiz-adv-x="2131" 
d="M1722 350q0 153 -78 172t-135 19t-126 -25v-364l1 1q41 -12 106 -12q125 0 178.5 54t53.5 155zM863 0v152l127 20v338h-390v-338l127 -20v-152h-646v152l127 20v795l-131 24v147h650v-147l-127 -23v-297h390v297l-127 23v147h651v-147l-131 -24v-292q112 32 249 32
q260 0 372.5 -82.5t112.5 -254.5q0 -299 -191 -343t-321 -44l-412 17h-330z" />
    <glyph glyph-name="afii10108" unicode="&#x45b;" horiz-adv-x="1409" 
d="M743 857q-97 0 -167 -70v-614l101 -21v-152h-604v152l99 20v1008h-143v148h143v127l-133 30v142l451 53h7l67 -50l1 -302h249v-148h-249l1 -63l-21 -188q159 146 389 146q189 0 259.5 -102.5t70.5 -334.5v-464l117 -22v-152h-607v151l95 21v465q0 123 -19.5 160t-44 48.5
t-62.5 11.5z" />
    <glyph glyph-name="afii10109" unicode="&#x45c;" horiz-adv-x="1467" 
d="M430 1403l381 452h1l217 -199q-79 -134 -292 -283q-89 -62 -155 -87h-2zM84 1138h632v-147l-105 -23v-293h189l164 294l-144 22v147h600v-147l-170 -24l-221 -314q134 -53 231 -259q25 -54 46 -98q49 -107 84 -121l97 -19v-156h-410q-86 0 -146 166q-17 47 -33 96
q-41 127 -73 180q-49 83 -116 83h-98v-353l147 -20v-152h-676v152l126 21v795l-124 23v147z" />
    <glyph glyph-name="uni045D" unicode="&#x45d;" horiz-adv-x="1623" 
d="M84 1138h663v-147l-138 -23v-522l100 134l305 334v55l-117 22v147h645v-147l-126 -24v-795l133 -21v-151h-673v151l138 22v533l-94 -144l-311 -339v-57l132 -14v-152h-659v152l126 20v796l-124 23v147zM874 1286q-99 37 -243 153t-203 217l217 199h1l380 -452l-149 -117
h-3z" />
    <glyph glyph-name="afii10110" unicode="&#x45e;" horiz-adv-x="1205" 
d="M144 -205q39 -34 184 -34q86 0 152 73q44 49 89 166h-129l-382 967l-87 24v147h658v-147l-134 -24l154 -516l44 -162l32 162l145 517l-117 23v147h488v-147l-94 -23q-74 -226 -177 -517q-104 -290 -135 -379t-54 -151t-69 -153t-102 -153q-56 -61 -128 -93
q-70 -32 -178 -32t-160 24v281zM1070 1668q0 -165 -121 -265q-121 -99 -328 -99q-206 0 -330 101t-124 263v12l2 48h255q36 0 36 -114t88 -158q30 -14 70 -15q76 0 116 51q41 51 41 143q0 93 36 93h257l2 -48v-12z" />
    <glyph glyph-name="afii10193" unicode="&#x45f;" horiz-adv-x="1551" 
d="M80 1138h648v-147l-128 -24v-812h351v812l-127 24v147h647v-147l-127 -23v-793l131 -24v-151h-521q-28 -49 -39.5 -213t-11.5 -200h-231q0 122 -28 258.5t-36 154.5h-523v151l123 24v792l-128 24v147z" />
    <glyph glyph-name="afii10146" unicode="&#x462;" horiz-adv-x="1715" 
d="M1287 427q0 195 -80.5 236.5t-152.5 41.5t-125 -13v-547q24 -8 91 -8q133 0 200 80t67 210zM313 0v152l203 23v997l-270 -28l-65 -135h-181l29 328h487v187l-160 30v152h752l-1 -152l-178 -32v-185h509l36 -327h-218l-61 134l-265 28h-1v-335q101 26 248 26
q269 0 394.5 -112.5t125.5 -296.5q0 -226 -150 -347.5t-421 -121.5l-374 15h-439z" />
    <glyph glyph-name="afii10194" unicode="&#x463;" horiz-adv-x="1604" 
d="M961 136q110 0 161 64.5t51 163.5q0 131 -56.5 160.5t-112.5 29.5q-57 0 -132 -30v-376q30 -12 89 -12zM368 0v148l113 24v832l-194 -10l-62 -188h-192l10 347h438v301l-134 30v143l452 53h5l68 -50v-477h470l10 -347h-191l-69 188l-220 9v-329q111 33 262 33
q448 0 448 -332q0 -301 -183 -346.5t-309 -45.5l-389 17h-333z" />
    <glyph glyph-name="afii10147" unicode="&#x472;" horiz-adv-x="1506" 
d="M890 632q-57 0 -95 16.5t-71 37t-65 37t-68 16.5t-53.5 -11.5t-33.5 -26.5q9 -449 101 -511t147 -62q109 0 172.5 136.5t75.5 401.5q-53 -34 -110 -34zM623 933q57 0 95 -16.5t71.5 -37t66 -37t74.5 -16.5t72 31q-8 429 -100.5 482t-146.5 53q-223 0 -248 -498
q59 39 116 39zM239.5 1331.5q190.5 211.5 522.5 211.5q541 -3 619 -291.5t78 -464.5q0 -360 -192.5 -584t-520.5 -226q-363 -2 -530 205t-167 573q0 365 190.5 576.5z" />
    <glyph glyph-name="afii10195" unicode="&#x473;" horiz-adv-x="1270" 
d="M643 134q64 0 99.5 70.5t44.5 230.5q-25 -6 -61 -6t-63.5 18.5t-50 41t-44.5 41t-48 18.5t-41 -6q6 -318 64.5 -363t99.5 -45zM554 714q41 0 67 -17.5t47 -39t41.5 -39t44.5 -17.5t35 4q-4 220 -30.5 290t-55.5 93t-70 23q-134 0 -151 -310q31 13 72 13zM223 1014.5
q169 153.5 428 153.5q258 0 412 -150t154 -446q0 -297 -166.5 -446t-426.5 -149t-415 150t-155 442t169 445.5z" />
    <glyph glyph-name="afii10148" unicode="&#x474;" horiz-adv-x="1459" 
d="M1365 1541q89 0 161 -24v-169h-6q-92 0 -149.5 -64t-99.5 -214l-365 -1085h-337l-501 1345l-126 30v162h739v-162l-161 -30l259 -857l37 -155l29 155l206 799q37 205 131 237t183 32z" />
    <glyph glyph-name="afii10196" unicode="&#x475;" horiz-adv-x="1207" 
d="M1107 1152q109 0 174 -17v-126q-92 0 -123 -67t-54 -136l-299 -822h-363l-397 985l-73 23v146h631v-146l-120 -24l157 -538l50 -188l176 719q25 93 78.5 142t162.5 49z" />
    <glyph glyph-name="uni048A" unicode="&#x48a;" horiz-adv-x="1760" 
d="M62 1522h729v-161l-171 -31v-847l92 192l429 615v40l-162 30v162h720v-162l-148 -30v-1144h206v-186q-15 -28 -35.5 -67.5t-44 -82.5t-74.5 -139.5t-90 -148.5h-211q55 127 96 269t50 169h-467v152l160 24v858l-85 -198l-436 -611v-48l171 -25v-152h-731v152l149 23v1156
l-147 29v162zM1312 1941q0 -149 -123 -233.5t-325 -84.5t-328 85.5t-126 232.5v3l2 70h266q36 0 36 -121q0 -135 147 -135t147 135q0 121 36 121h266v-14z" />
    <glyph glyph-name="uni048B" unicode="&#x48b;" horiz-adv-x="1627" 
d="M84 1138h663v-147l-138 -23v-522l100 134l305 334v55l-117 22v147h645v-147l-126 -24v-810h183v-157q-17 -33 -105.5 -208.5t-124.5 -222.5h-212q26 60 72 234t53 197h-406v151l138 22v533l-94 -144l-311 -339v-57l132 -14v-152h-659v152l126 20v796l-124 23v147z
M1252 1668q0 -165 -121 -264.5t-328 -99.5q-206 0 -330 101t-124 263v3l2 57h255q36 0 36 -114t59 -143.5t117 -29.5t98.5 51t40.5 143q0 93 36 93h257v-12z" />
    <glyph glyph-name="uni048C" unicode="&#x48c;" horiz-adv-x="1418" 
d="M738 142q243 0 243 311q0 155 -51 227.5t-171 72.5t-137 -6v-589q46 -16 116 -16zM855 -16l-478 16h-317v152l149 23v894h-177v141h177v123l-147 32v157h783v-157l-223 -33v-122h272v-141h-272v-162q28 7 214 7t379 -61t193 -380q0 -221 -158 -355t-395 -134z" />
    <glyph glyph-name="uni048D" unicode="&#x48d;" horiz-adv-x="1314" 
d="M885 348q0 136 -69.5 171t-148.5 35t-121 -15l-1 1v-393l1 1q30 -12 94 -12q125 0 185 58t60 154zM787 712q507 0 507 -337q0 -392 -537 -392l-383 17h-332v148l114 24v809h-163v163h163v317l-134 30v136l443 53h5l75 -46v-490h230v-163h-230v-296l1 1q95 26 241 26z" />
    <glyph glyph-name="uni048E" unicode="&#x48e;" horiz-adv-x="1389" 
d="M711 655q103 0 154 60l-155 162l97 86l116 -121q21 84 21 214q0 327 -220 327q-53 0 -101 -12v-705q30 -11 88 -11zM784 504q-124 0 -160 6v-335l265 -23v-152h-829v152l149 23v1155l-145 30v162h361q60 0 142.5 5.5t226.5 4.5q305 -2 437.5 -115t132.5 -349
q0 -319 -213 -461l125 -129l-97 -87l-151 156q-120 -43 -244 -43z" />
    <glyph glyph-name="uni048F" unicode="&#x48f;" horiz-adv-x="1324" 
d="M553 160q32 -34 83 -34q101 0 150 87l-153 127l109 127l97 -81q12 76 12 182q4 388 -169 388q-41 0 -76 -17t-53 -39v-740zM712 -496h-658v142l112 27v1222l-109 39v184l402 49h5l61 -47v-104q67 99 158 125.5t163 26.5t153 -31t174.5 -137t93.5 -384q0 -277 -159 -452
l130 -107l-109 -127l-155 128q-145 -81 -333 -81q-52 0 -94 16l6 -163v-157l159 -27v-142z" />
    <glyph glyph-name="afii10050" unicode="&#x490;" horiz-adv-x="1189" 
d="M29 1522h847l86 359h196l-20 -550l-490 17v-1172l306 -24v-152h-926v152l206 25v1154l-205 31v160z" />
    <glyph glyph-name="afii10098" unicode="&#x491;" horiz-adv-x="1083" 
d="M68 1138h717l41 323h206l13 -490l-442 16v-812l267 -23v-152h-806v152l146 23v793l-142 24v146z" />
    <glyph glyph-name="uni0492" unicode="&#x492;" horiz-adv-x="1267" 
d="M274 598h-182v169h182v563l-218 32v160h1182l36 -632h-232l-82 439l-273 26v-588h240v-169h-240v-422l306 -25v-151h-940v152l221 24v422z" />
    <glyph glyph-name="uni0493" unicode="&#x493;" horiz-adv-x="1106" 
d="M210 374h-159v169h159v424l-142 24v146h1010l10 -484h-220l-66 315l-186 23v-448h233v-169h-233v-202l253 -20v-152h-805v152l146 21v201z" />
    <glyph glyph-name="uni0494" unicode="&#x494;" horiz-adv-x="1561" 
d="M863 -242q234 0 234 527q0 220 -50 313.5t-170 93.5q-78 0 -138.5 -21t-90.5 -47v-448l270 -25v-151h-906v152l222 24v1154l-218 32v160h1191l24 -446h-232l-70 255l-281 27v-556q73 45 177.5 64t186.5 19t295 -54t213 -490q0 -355 -165 -560.5t-430 -205.5
q-123 0 -214 38l-18 167q66 -22 170 -22z" />
    <glyph glyph-name="uni0495" unicode="&#x495;" horiz-adv-x="1473" 
d="M769 -347q82 0 169.5 52.5t87.5 394.5q0 170 -49.5 236.5t-161.5 66.5t-156.5 -20.5t-55.5 -33.5v-177l195 -20v-152h-734v152l146 21v794l-143 24v146h995l10 -425h-199l-66 256l-204 23v-464q52 38 153.5 52.5t183.5 14.5t287.5 -42t205.5 -397q0 -330 -155.5 -507.5
t-421.5 -177.5q-113 0 -214 38l-18 166q63 -21 145 -21z" />
    <glyph glyph-name="uni0496" unicode="&#x496;" horiz-adv-x="2263" 
d="M35 1522h586v-162l-129 -28l295 -492h120v491l-162 29v162h724v-162l-163 -29v-491h119l295 492l-128 28v162h592v-162l-181 -30l-352 -499q188 -45 268 -222t101.5 -230t52 -122t62.5 -81h132q0 -138 -22.5 -358.5t-28.5 -249.5h-213q0 92 -29 244t-46 188h-133
q-80 0 -130 143t-90.5 259.5t-95.5 209.5t-135 93h-38v-529l183 -26v-150h-757v152l175 24v529h-38q-112 0 -168.5 -143t-99.5 -267.5t-84.5 -209.5t-98.5 -85h-425v152l85 24q25 9 48.5 55.5t79.5 182.5t137.5 260t218.5 157l-353 499l-174 30v162z" />
    <glyph glyph-name="uni0497" unicode="&#x497;" horiz-adv-x="2138" 
d="M1917 -164q0 56 -71 164h-114q-86 0 -124.5 106.5t-67 194.5t-69 156t-107.5 68h-102v-349l170 -24v-152h-710v152l147 24v350l-102 -1q-92 0 -132 -107t-69 -195.5t-66 -155.5t-100 -67h-413v156l96 20q33 14 69 89t97 203t194 183l-223 316l-171 24v147h600v-147
l-143 -23l163 -293h200v293l-115 23v147h624l2 -147l-118 -24v-292h199l163 293l-142 23v147h600v-147l-171 -24l-223 -316q128 -52 189 -176.5t95.5 -200t66.5 -95.5h141q0 -252 -23 -427.5t-27 -190.5h-213v275z" />
    <glyph glyph-name="uni0498" unicode="&#x498;" horiz-adv-x="1282" 
d="M628 -159q0 58 -51 147h-14q-183 0 -315 42.5t-171 45.5l51 413h204l73 -301q55 -58 165 -58q206 0 206 315q0 179 -80 222t-148 43h-124v172h106q171 0 207 105.5t36 175.5q0 122 -59 175t-156 53q-98 0 -125.5 -24t-31.5 -34l-48 -212h-223l-36 357q31 1 155 20
t204 29.5t187 10.5q108 0 220.5 -21.5t189.5 -65.5t117 -110t40 -192t-105 -222t-259 -125q191 -6 297 -97.5t106 -242.5q0 -201 -113.5 -319t-386.5 -146q87 -83 111.5 -164t21.5 -141q-6 -124 -86 -178t-240 -54h-1q-79 0 -144 30l1 214q39 -13 82 -13h1q74 0 96.5 18
t31 46t8.5 86z" />
    <glyph glyph-name="uni0499" unicode="&#x499;" 
d="M555 1161q502 0 502 -277q0 -87 -57 -159t-166 -114q277 -34 282 -265q4 -262 -302 -336q-62 -15 -138 -22q134 -142 126 -285q-11 -195 -192 -231q-59 -12 -135 -12h-1q-79 0 -144 30l1 214q39 -13 82 -13h1q74 0 96 18q40 32 40 111t-50 165q-195 6 -379 59
q-42 12 -62 16l24 303h232l43 -177q32 -56 135 -56q175 0 175 199q0 176 -132 176q-32 0 -128 -24l4 187l88 11q94 21 129 123q12 36 12 95q0 120 -142 120q-87 1 -127 -61q-12 -18 -16 -36l-23 -144h-255v330q61 0 203 28q143 28 274 27z" />
    <glyph glyph-name="uni049A" unicode="&#x49a;" horiz-adv-x="1582" 
d="M62 1522h701v-162l-141 -30v-490h114l302 492l-129 28v162h592v-162l-180 -30l-354 -494q156 -26 239.5 -170t122.5 -239t71.5 -167.5t63.5 -83.5h149q0 -224 -25 -411.5t-27 -196.5h-213q0 84 -30 242.5t-45 189.5h-162q-79 0 -126.5 143t-87 262t-92.5 209.5t-131 90.5
h-52v-529l184 -26v-150h-744v152l147 24v1154l-147 30v162z" />
    <glyph glyph-name="uni049B" unicode="&#x49b;" horiz-adv-x="1488" 
d="M84 1138h632v-147l-105 -23v-293h189l164 294l-144 22v147h600v-147l-170 -24l-221 -314q134 -52 195 -182t96 -206t70 -90h110q0 -230 -24.5 -414t-27.5 -193h-213q0 148 -34 282t-42 150h-82q-86 0 -124.5 106.5t-67 194.5t-69 156t-107.5 68h-98v-353l147 -20v-152
h-676v152l126 21v795l-124 23v147z" />
    <glyph glyph-name="uni049C" unicode="&#x49c;" horiz-adv-x="1691" 
d="M62 1522h701v-162l-141 -30v-463h121v268h141v-268h53l240 462l-152 31v162h613v-162l-176 -29l-300 -476q167 -53 253.5 -245.5t116 -261t54 -116t47.5 -56.5l82 -24v-159l-377 7q-110 0 -176.5 149t-133 332.5t-144.5 228.5v-339h-141v353h-121v-548l184 -26v-150h-744
v152l147 24v1154l-147 30v162z" />
    <glyph glyph-name="uni049D" unicode="&#x49d;" horiz-adv-x="1616" 
d="M84 1138h649v-147l-121 -22v-298h106v223h167v-223h60l174 298l-153 22v147h614v-146l-174 -25l-241 -329q114 -62 185 -225.5t96 -199t51 -40.5l128 -25v-148h-408q-93 0 -168 225t-164 282v-235h-167v261h-106v-361l146 -20v-152h-676v152l126 21v795l-124 23v147z" />
    <glyph glyph-name="uni049E" unicode="&#x49e;" horiz-adv-x="1528" 
d="M209 1058h-162v136h162v136l-147 30v162h701v-162l-141 -30v-136h169v-136h-169v-218h114l302 492l-129 28v162h592v-162l-180 -30l-354 -494q156 -26 239.5 -170t122.5 -239t71.5 -167.5t63.5 -83.5l71 -24v-152h-424q-79 0 -126.5 143t-87 262t-92.5 209.5t-131 90.5
h-52v-529l184 -26v-150h-744v152l147 24v882z" />
    <glyph glyph-name="uni049F" unicode="&#x49f;" horiz-adv-x="1383" 
d="M172 1236h-164v146h164v73l-131 30v142l452 53h5l68 -50v-248h218v-146h-218v-539l-7 -91l340 364l-149 22v145h589v-145l-175 -28l-183 -169l317 -622l96 -21v-152h-607v151l76 22l-159 369l-147 -153l7 -105v-111l103 -22v-151h-598v152l103 20v1064z" />
    <glyph glyph-name="uni04A0" unicode="&#x4a0;" horiz-adv-x="1891" 
d="M1133 1522v-162l-142 -31v-462h161l270 464l-151 29v162h606v-162l-172 -30l-331 -482q159 -63 248 -251.5t138.5 -297.5t84.5 -123l95 -24v-152h-404q-88 0 -150 147t-110.5 267t-110 215t-141.5 95h-33v-549l181 -25v-150h-757v152l163 25v1178l-231 -23l-76 -439h-230
l28 629h1064z" />
    <glyph glyph-name="uni04A1" unicode="&#x4a1;" horiz-adv-x="1785" 
d="M1027 1138v-147l-109 -22v-294h194l161 290l-141 26v147h600v-145l-173 -28l-231 -328q118 -62 201.5 -224.5t105 -194t43.5 -40.5l101 -24v-154h-390q-86 0 -124.5 106.5t-68.5 196t-69.5 156t-106.5 66.5h-102v-352l151 -21v-152h-676v152l126 21v818l-211 -23
l-58 -317h-210l10 487h977z" />
    <glyph glyph-name="uni04A2" unicode="&#x4a2;" horiz-adv-x="1735" 
d="M70 1522h716v-162l-163 -29v-461h483v460l-150 30v162h710v-162l-146 -29v-1155h211q0 -224 -25 -411.5t-27 -196.5h-213q0 95 -30.5 247.5t-44.5 184.5h-434v152l149 24v498h-483v-499l163 -23v-152h-718v152l141 23v1156l-139 29v162z" />
    <glyph glyph-name="uni04A3" unicode="&#x4a3;" horiz-adv-x="1590" 
d="M77 1138h653v-147l-120 -23v-297h369v297l-120 23v147h655v-147l-131 -24v-792h202q0 -191 -28 -394.5t-30 -212.5h-192q-28 225 -55 320t-35 112h-387v152l121 20v338h-369v-337l120 -21v-152h-649v152l127 20v795l-131 24v147z" />
    <glyph glyph-name="uni04A4" unicode="&#x4a4;" horiz-adv-x="2067" 
d="M61 1522h727v-162l-164 -30v-460h481v460l-150 30v162h1046l36 -629h-226l-90 436l-201 25v-1178l174 -24v-152h-738v152l149 24v498h-481v-498l164 -24v-152h-728v152l149 23v1156l-148 29v162z" />
    <glyph glyph-name="uni04A5" unicode="&#x4a5;" horiz-adv-x="1853" 
d="M77 1138h653v-147l-120 -23v-297h369v297l-120 23v147h964l11 -493h-222l-68 326l-161 16v-814l126 -21v-152h-651v152l121 20v338h-369v-337l120 -21v-152h-649v152l127 20v795l-131 24v147z" />
    <glyph glyph-name="uni04A6" unicode="&#x4a6;" horiz-adv-x="2383" 
d="M1638 0h-708v152l137 23v1179h-445v-1179l148 -23v-152h-710v152l149 23v1155l-151 30v162h1574v-161l-152 -30v-528q80 46 180 64t182 18t288.5 -53t206.5 -491q0 -357 -159 -561.5t-423 -204.5q-123 0 -214 38l-18 167q66 -22 170 -22q233 0 233 527q0 220 -50 313.5
t-183 93.5t-213 -67v-449l158 -24v-152z" />
    <glyph glyph-name="uni04A7" unicode="&#x4a7;" horiz-adv-x="2145" 
d="M1349 560q91 63 287 63q76 0 282.5 -42t206.5 -392t-156 -534.5t-420 -184.5q-123 0 -214 38l-18 166q55 -21 141 -21t173 56t87 420q0 303 -216 303q-108 0 -153 -49v-208l126 -23v-152h-654v152l124 23v812h-334v-812l113 -23v-152h-643v152l126 24v792l-132 23v147
h1411v-147l-137 -23v-408z" />
    <glyph glyph-name="uni04A8" unicode="&#x4a8;" horiz-adv-x="1671" 
d="M1327 558q0 92 -25 148t-92 56q-87 0 -105.5 -133.5t-18.5 -235.5t41 -232q200 112 200 397zM838 -23q-393 6 -592.5 221t-199.5 571t229 565t613 209q231 0 375 -31.5t178 -32.5l-27 -407h-293l-60 262q-44 40 -90.5 48.5t-91.5 8.5q-359 0 -359 -605
q0 -338 92.5 -463.5t158.5 -163.5q-19 93 -19 200q0 108 32 217t128 235.5t319 126.5q305 0 375.5 -135t70.5 -237q0 -193 -133.5 -335.5t-357.5 -208.5q107 -194 286 -194q33 0 73 8v-153q-103 -16 -173 -16t-239.5 43t-294.5 267z" />
    <glyph glyph-name="uni04A9" unicode="&#x4a9;" horiz-adv-x="1509" 
d="M939 531q0 -142 19 -221t89 -121q60 35 76.5 111.5t16.5 188.5t-14.5 200t-84.5 88q-102 0 -102 -246zM322.5 63q-250.5 86 -250.5 508q0 275 170 436t487 161q117 0 172 -21.5t66 -28.5l-58 -126q-38 21 -132 21t-206.5 -60.5t-112.5 -365.5q0 -306 100 -376t167 -70h53
q-157 136 -157 343t119.5 314t307.5 107t301.5 -104.5t113.5 -288.5q0 -224 -179 -370h7q19 0 53.5 0.5t94.5 1.5t88 3l-16 -156q-66 -12 -213 -12t-271 33q-130 -35 -292 -35t-412.5 86z" />
    <glyph glyph-name="uni04AA" unicode="&#x4aa;" horiz-adv-x="1364" 
d="M574 -309h1q75 0 97 18q40 32 39 111q0 79 -48 163q-279 29 -437 203q-180 197 -180 562q0 366 214 578t556 212q128 0 295 -22t199 -23l-27 -502h-259l-78 343q-42 42 -128 42t-138 -36q-167 -113 -167 -566q1 -452 165 -588q54 -45 110 -45q87 0 123 15t63 44l98 230
l234 -20l-33 -354q-55 -6 -181 -39t-246 -39q125 -135 117 -275q-11 -195 -192 -231q-59 -12 -135 -12h-1q-79 0 -144 30l1 214q39 -13 82 -13z" />
    <glyph glyph-name="uni04AB" unicode="&#x4ab;" horiz-adv-x="1077" 
d="M424 -309h1q75 0 97 18q40 32 39 110q0 79 -48 162q-213 23 -334 168q-122 145 -122 420t166 437t429 162q154 0 314 -51q32 -10 58 -11l-17 -399h-243l-57 249q-11 46 -78 46q-68 0 -109 -83q-40 -83 -40 -291q0 -209 54 -314q56 -105 158 -105q149 0 272 72l63 -139
q-82 -98 -269 -146q-32 -8 -66 -13q129 -138 121 -280q-11 -195 -192 -231q-59 -12 -135 -12h-1q-79 0 -144 30l1 214q39 -13 82 -13z" />
    <glyph glyph-name="uni04AC" unicode="&#x4ac;" horiz-adv-x="1554" 
d="M997 176h338q0 -224 -25 -411.5t-27 -196.5h-213q0 84 -30 242.5t-45 189.5h-671v152l257 24v1174l-207 -11l-95 -471h-221l32 654h1386l27 -654h-208l-101 471l-197 11v-1174z" />
    <glyph glyph-name="uni04AD" unicode="&#x4ad;" horiz-adv-x="1385" 
d="M903 175h340q0 -230 -24.5 -414t-26.5 -193h-214q0 86 -30 243.5t-45 187.5l-1 1h-650v152l247 23v816l-158 -23l-66 -344h-235l24 513h1257l25 -513h-232l-72 344l-139 23v-816z" />
    <glyph glyph-name="uni04AE" unicode="&#x4ae;" horiz-adv-x="1322" 
d="M-59 1522h704v-162l-122 -31l208 -431l42 -122l43 120l183 434l-151 30v162h551v-162l-121 -25l-377 -715v-445l213 -23v-152h-860v152l203 24v443l-406 712l-110 29v162z" />
    <glyph glyph-name="uni04AF" unicode="&#x4af;" horiz-adv-x="1332" 
d="M-24 1138h710v-147l-162 -24l212 -550l31 -107l29 108l217 550l-160 23v147h507v-147l-123 -24l-343 -829v-463l169 -29v-142h-723v142l153 29v442l-403 850l-114 24v147z" />
    <glyph glyph-name="uni04B0" unicode="&#x4b0;" horiz-adv-x="1322" 
d="M457 473h-397v169h384l-393 689l-110 29v162h704v-162l-122 -31l208 -431l42 -122l43 120l183 434l-151 30v162h551v-162l-121 -25l-366 -693h397v-169h-408v-298l213 -23v-152h-860v152l203 24v297z" />
    <glyph glyph-name="uni04B1" unicode="&#x4b1;" horiz-adv-x="1332" 
d="M182 159h291l-383 808l-114 24v147h710v-147l-162 -24l212 -550l31 -107l29 108l217 550l-160 23v147h507v-147l-123 -24l-335 -808h317v-159h-325v-325l169 -29v-142h-723v142l153 29v325h-311v159z" />
    <glyph glyph-name="uni04B2" unicode="&#x4b2;" horiz-adv-x="1532" 
d="M14 1522h751v-162l-142 -32l224 -387l244 389l-167 30v162h556v-162l-167 -30l-373 -505l433 -649h177q0 -138 -23 -363.5t-29 -244.5h-213q0 156 -33.5 286t-41.5 146h-462v152l145 25l-250 422l-239 -425l182 -22v-152h-576v152l167 22l369 545l-405 610l-127 31v162z
" />
    <glyph glyph-name="uni04B3" unicode="&#x4b3;" horiz-adv-x="1266" 
d="M-2 1138h698v-147l-118 -22l123 -176l47 -85l50 86l124 175l-121 22v147h461v-147l-109 -22l-299 -365l341 -432l29 -6h118q0 -93 -25.5 -334t-33.5 -264h-192q-7 55 -17 112t-28 161.5t-43 158.5h-388v150l100 23l-118 188l-58 87l-45 -87l-123 -188l138 -23v-150h-511
v150l120 23l304 375l-328 421l-96 23v146z" />
    <glyph glyph-name="uni04B4" unicode="&#x4b4;" horiz-adv-x="2348" 
d="M948 158h755v1172l-144 30v162h703v-162l-148 -30v-1154h239q0 -216 -23 -407.5t-26 -200.5h-213q0 83 -34 239t-50 193h-1702v152l229 23v1180l-222 -25l-71 -412h-195l22 604h1324l37 -602h-197l-83 410l-201 24v-1196z" />
    <glyph glyph-name="uni04B5" unicode="&#x4b5;" horiz-adv-x="2143" 
d="M882 157h644v810l-123 25v146h665v-147l-137 -23v-793h238q0 -134 -23 -356.5t-29 -250.5h-214q0 90 -29 242.5t-44 188.5v1h-1559v152l197 23v815l-163 -21l-63 -336h-206l9 505h1250l10 -505h-213l-63 336l-147 21v-833z" />
    <glyph glyph-name="uni04B6" unicode="&#x4b6;" horiz-adv-x="1606" 
d="M947 618q-133 -85 -360 -85q-226 0 -338.5 98t-112.5 360v338l-111 31v162h651v-162l-125 -29v-259q0 -209 32 -259t70 -61t95 -11q133 0 199 61v530l-150 28v162h714v-162l-152 -30v-1154h204q0 -138 -22.5 -358.5t-28.5 -249.5h-214q0 84 -30 242.5t-45 189.5h-497v152
l221 24v442z" />
    <glyph glyph-name="uni04B7" unicode="&#x4b7;" horiz-adv-x="1386" 
d="M801 448q-139 -65 -336 -65t-283.5 94t-86.5 339v152l-93 23v147h585v-147l-86 -24v-121q0 -181 23 -226.5t52.5 -57t105.5 -11.5t119 41v376l-101 23v147h624v-147l-130 -23v-793h169q0 -223 -25 -410.5t-27 -196.5h-213q0 86 -30 243.5t-45 187.5v1h-400v152l178 23
v273z" />
    <glyph glyph-name="uni04B8" unicode="&#x4b8;" horiz-adv-x="1667" 
d="M879 336h-164v199q-19 -2 -23 -2h-48q-252 0 -377.5 99.5t-125.5 358.5v346l-107 30v155h672v-155l-151 -33v-262q0 -213 21 -259t52.5 -58.5t86.5 -13.5v309h164v-298q116 16 166 53v528l-171 35v154h737v-162l-153 -30v-1154l153 -26v-150h-805v158l239 29v434
q-63 -37 -166 -61v-224z" />
    <glyph glyph-name="uni04B9" unicode="&#x4b9;" horiz-adv-x="1563" 
d="M829 209h-167v174h-31q-270 0 -404 94.5t-134 333.5v158l-93 22v147h628v-146l-122 -24v-142q0 -169 32.5 -222t123.5 -53v273h167v-268q102 9 150 26v386l-127 23v147h650v-147l-130 -24v-794l126 -21v-152h-653v152l134 21v264q-85 -32 -150 -42v-186z" />
    <glyph glyph-name="uni04BA" unicode="&#x4ba;" horiz-adv-x="1569" 
d="M826 781q-134 0 -204 -61v-545l150 -23v-152h-714v152l151 23v1157l-151 33v157h785v-157l-221 -33v-428q128 85 357 85t341.5 -98t112.5 -360v-356l111 -23v-152h-651v152l124 24v274q0 209 -32 259t-68.5 61t-90.5 11z" />
    <glyph glyph-name="uni04BB" unicode="&#x4bb;" horiz-adv-x="1406" 
d="M540 1016q165 146 371 146t278 -103q71 -103 71 -334v-552l116 -21v-152h-607v151l95 21v551q0 125 -20 161t-44 48t-62 12q-97 0 -167 -70v-701l101 -21v-152h-604v152l99 20v1283l-133 30v142l452 53h6l68 -50l1 -427z" />
    <glyph glyph-name="uni04BC" unicode="&#x4bc;" horiz-adv-x="1664" 
d="M1219 854v248q0 249 -260 249q-267 0 -276 -497h536zM283 679q-149 0 -252.5 59.5t-103.5 160.5t40 163t74 83l201 -30q-26 -30 -43 -86.5t-17 -70.5t-3.5 -57.5t109.5 -45.5q34 319 239 501t468 182q262 0 436 -145t183 -447q0 -168 -22 -278l-905 1q12 -242 97 -390.5
t227 -148.5t175.5 62.5t47.5 93.5l36 131l270 -13l1 -348q-43 -2 -96.5 -14.5t-467 -100t-549.5 237.5t-145 500z" />
    <glyph glyph-name="uni04BD" unicode="&#x4bd;" horiz-adv-x="1340" 
d="M906 676v52q0 24 1 55.5t-1.5 86.5t-26.5 103.5t-81 48.5q-58 0 -93.5 -71t-40.5 -275h242zM17 869q18 64 35 79l190 -30q-20 -23 -29.5 -69t-9.5 -59q0 -42 9.5 -65.5t54.5 -33.5q32 229 177 352.5t375 123.5t357.5 -113t116.5 -299t-19 -228h-609q14 -247 106 -279.5
t152 -32.5q102 0 161.5 19t132.5 57l63 -139q-53 -58 -183 -116.5t-277 -58.5q-284 0 -419.5 149.5t-141.5 411.5q-186 16 -223 91.5t-37 125.5t18 114z" />
    <glyph glyph-name="uni04BE" unicode="&#x4be;" horiz-adv-x="1664" 
d="M1219 854v248q0 249 -260 249q-267 0 -276 -497h536zM844 -309h1q74 0 105 25t31 102t-46 160q-282 12 -459 192.5t-193 508.5q-149 0 -252.5 59.5t-103.5 160.5t40 163t74 83l201 -30q-26 -30 -43 -86.5t-17 -70.5t-3.5 -57.5t109.5 -45.5q34 319 239 501t468 182
q262 0 436 -145t183 -447q0 -168 -22 -278l-905 1q12 -242 97 -390.5t227 -148.5t175.5 62.5t47.5 93.5l36 131l270 -13l1 -348q-40 -2 -183 -33.5t-246 -39.5q128 -135 120 -293q-6 -122 -86 -176t-240 -54h-1q-79 0 -144 30l1 214q39 -13 82 -13z" />
    <glyph glyph-name="uni04BF" unicode="&#x4bf;" horiz-adv-x="1340" 
d="M906 676v52q0 24 1 55.5t-1.5 86.5t-26.5 103.5t-81 48.5q-58 0 -93.5 -71t-40.5 -275h242zM699 -309h1q74 0 105 25t31 102t-46 160q-270 10 -397.5 158t-133.5 402q-186 16 -223 91t-37 113q0 63 18 127t35 79l190 -30q-20 -23 -29.5 -69t-9.5 -59q0 -42 9.5 -65.5
t54.5 -33.5q32 229 177 352.5t375 123.5t357.5 -113t116.5 -299t-19 -228h-609q14 -247 106 -279.5t152 -32.5q102 0 161.5 19t132.5 57l63 -139q-68 -72 -166 -110t-155 -50q135 -142 129 -289q-11 -196 -131 -219.5t-196 -23.5h-1q-79 0 -144 30l1 214q39 -13 82 -13z" />
    <glyph glyph-name="uni04C0" unicode="&#x4c0;" horiz-adv-x="870" 
d="M71 1522h734v-162l-162 -30v-1155l162 -25v-150h-731v152l153 24v1154l-156 30v162z" />
    <glyph glyph-name="uni04C1" unicode="&#x4c1;" horiz-adv-x="2211" 
d="M1556 1941q0 -149 -123 -234q-123 -84 -325 -84t-328 86t-126 232v15l2 58h266q36 0 36 -121q0 -135 147 -135t147 135q0 121 36 121h266l2 -58v-15zM35 1522h586v-162l-129 -28l295 -492h120v491l-162 29v162h724v-162l-163 -29v-491h119l295 492l-128 28v162h592v-162
l-181 -30l-352 -499q189 -45 323 -343q26 -56 46 -109q22 -53 53 -122t62 -81l85 -24v-152h-425q-80 0 -158 223q-22 63 -45 129q-58 166 -102 242q-66 110 -146 111h-38v-529l183 -26v-150h-757v152l175 24v529h-38q-112 0 -200 -223q-25 -64 -48 -130q-63 -182 -92 -242
q-54 -110 -111 -110h-425v152l85 24q24 10 48 56t52 112q84 206 140 292q106 163 244 195l-353 499l-174 30v162z" />
    <glyph glyph-name="uni04C2" unicode="&#x4c2;" horiz-adv-x="2128" 
d="M1502 1668q0 -165 -121 -265q-121 -99 -328 -99q-206 0 -330 101t-124 263v12l2 48h255q36 0 36 -114t88 -158q30 -14 70 -15q76 0 116 51q41 51 41 143q0 93 36 93h257l2 -48v-12zM49 1138h600v-147l-143 -23l163 -293h200v293l-115 23v147h624l2 -147l-118 -24v-292
h199l163 293l-142 23v147h600v-147l-171 -24l-223 -316q136 -55 230 -259q65 -140 85 -174q21 -34 44 -43l98 -19v-156h-413q-86 0 -146 166q-17 47 -33 96q-41 127 -73 180q-49 83 -116 83h-102v-349l170 -24v-152h-710v152l147 24v350l-102 -1q-93 0 -155 -167
q-18 -47 -33 -96q-43 -128 -71 -180q-45 -82 -108 -82h-413v156l96 20q33 14 69 89t61 127q97 204 230 259l-223 316l-171 24v147z" />
    <glyph glyph-name="uni04C3" unicode="&#x4c3;" horiz-adv-x="1554" 
d="M806 0h-744v152l147 24v1154l-147 30v162h701v-162l-141 -30v-529l1 1q45 27 158 57l273 471l-151 30v162h606v-162l-172 -30l-309 -448q225 -17 340.5 -140t115.5 -397q0 -364 -159 -566.5t-424 -202.5q-126 0 -217 38l-17 170q63 -21 143 -21t172 61t92 461
q0 220 -50 313.5t-186 93.5t-215 -69l-1 1v-448l184 -26v-150z" />
    <glyph glyph-name="uni04C4" unicode="&#x4c4;" horiz-adv-x="1443" 
d="M795 434q-147 0 -188 -53v-208l151 -21v-152h-676v152l126 21v795l-124 23v147h647l2 -147l-126 -24v-409q48 33 164 55l192 350l-156 28v147h615v-147l-171 -24l-245 -350q300 -32 353.5 -177.5t53.5 -289.5t-43 -277.5t-159 -267.5t-381 -134q-119 0 -209 37l-17 166
q53 -20 169 -20q234 0 234 477q0 217 -85 260t-127 43z" />
    <glyph glyph-name="uni04C5" unicode="&#x4c5;" horiz-adv-x="1617" 
d="M296.5 223.5q39.5 24.5 97.5 238t58 801.5v66l-263 31v162h1388v-162l-187 -31v-1156h209v-173q-16 -28 -36.5 -67.5t-43.5 -82.5t-76 -144t-86 -144h-212q52 120 93 265t50 173h-523v152l218 24l-2 1153h-349v-128q0 -765 -140 -1051q-83 -165 -215 -165t-200 14
l-26 207q22 -2 41 -3l47.5 -2.5t72.5 -1.5q45 0 84.5 24.5z" />
    <glyph glyph-name="uni04C6" unicode="&#x4c6;" horiz-adv-x="1408" 
d="M118 194q103 0 139 282t36 492l-187 23v147h1196v-149l-178 -25v-788h274v-176q-209 -380 -248 -431h-185q55 129 96.5 264.5t51.5 166.5h-544v152l150 20v796h-249v-95q0 -379 -49 -541t-71 -204q-27 -68 -77.5 -105.5t-125.5 -37.5q-76 0 -127 14l-24 205
q46 -10 122 -10z" />
    <glyph glyph-name="uni04C7" unicode="&#x4c7;" horiz-adv-x="1691" 
d="M70 1522h716v-162l-163 -29v-461h483v460l-150 30v162h710v-162l-146 -30v-762q0 -346 -13 -428.5t-30 -131.5t-115 -197.5t-462 -221.5l-91 134q88 36 155 98.5t105 168.5q37 125 37 362v322h-483v-499l163 -23v-152h-718v152l141 23v1156l-139 29v162z" />
    <glyph glyph-name="uni04C8" unicode="&#x4c8;" horiz-adv-x="1575" 
d="M720 -211h61q104 0 154.5 46t52.5 190t2 238v247h-390v-340l130 -22v-148h-649v152l127 20v795l-131 24v147h650v-147l-127 -24v-296h390v296l-127 24v147h651v-147l-131 -24v-762q0 -293 -143.5 -451t-363.5 -158q-110 0 -174 15v180q13 -2 18 -2z" />
    <glyph glyph-name="uni04C9" unicode="&#x4c9;" horiz-adv-x="1720" 
d="M61 1522h727v-162l-163 -30v-460h479v460l-150 30v162h713v-162l-147 -29v-1155h191v-176q-27 -52 -67 -121.5t-94 -163.5t-93 -146h-212q67 159 155 431h-446v152l150 24v498h-479v-498l163 -24v-152h-728v152l149 23v1155l-148 30v162z" />
    <glyph glyph-name="uni04CA" unicode="&#x4ca;" horiz-adv-x="1591" 
d="M77 1138h654v-147l-119 -23v-297h368v297l-120 23v147h656v-147l-132 -24v-811h170v-156q-36 -70 -115 -230t-110 -201h-212q36 82 127 431h-384v152l120 20v338h-368v-336l119 -22v-152h-650v152l127 20v795l-131 24v147z" />
    <glyph glyph-name="uni04CB" unicode="&#x4cb;" horiz-adv-x="1569" 
d="M690 -432q0 314 31 618h226v432q-133 -85 -360 -85q-226 0 -338.5 98t-112.5 360v338l-111 31v162h651v-162l-125 -29v-259q0 -209 32 -259t70 -61t95 -11q133 0 199 61v530l-150 28v162h714v-162l-152 -30v-1154l152 -26v-150h-477q-32 -65 -76.5 -242t-46.5 -190h-221z
" />
    <glyph glyph-name="uni04CC" unicode="&#x4cc;" horiz-adv-x="1392" 
d="M548 -439q0 379 24 614h235v273q-139 -65 -337 -65t-286.5 94.5t-88.5 338.5v152l-87 23v147h600v-146l-99 -24v-122q0 -183 22.5 -227.5t51.5 -56t105 -11.5t119 41v375l-101 25v146h625v-147l-131 -24v-792l127 -23v-152h-435q-41 -81 -80 -253.5t-41 -185.5h-223z" />
    <glyph glyph-name="uni04CD" unicode="&#x4cd;" horiz-adv-x="2157" 
d="M123 1522h735l199 -892l34 -210l31 210l171 892h760v-162l-219 -30l184 -1174h166v-156q-16 -28 -35 -67.5t-40 -82.5t-70.5 -145.5t-79.5 -142.5h-211q22 51 48.5 153t38 145t21 80t16.5 60h-455v152l161 24l-127 1196l-55 -293l-225 -1095h-332l-276 1059l-70 343
l-23 -345l-79 -865l208 -24v-152h-616v152l168 24l160 1154l-188 30v162z" />
    <glyph glyph-name="uni04CE" unicode="&#x4ce;" horiz-adv-x="2063" 
d="M1328 0v153l147 22l-114 842l-251 -1001h-348l-251 762l-67 239l-15 -236l-68 -606l187 -22v-153h-567v153l153 21l125 800l-174 26v146h723l193 -699l26 -110l20 110l164 699h724v-146l-192 -26l153 -790h161v-183q-184 -357 -241 -432h-211q48 110 90.5 256.5
t51.5 174.5h-419z" />
    <glyph glyph-name="uni04CF" unicode="&#x4cf;" horiz-adv-x="870" 
d="M71 1522h734v-162l-162 -30v-1155l162 -25v-150h-731v152l153 24v1154l-156 30v162z" />
    <glyph glyph-name="uni04D0" unicode="&#x4d0;" horiz-adv-x="1465" 
d="M827 565l-155 588l-22 126l-24 -126l-147 -588h348zM1494 0h-697v152l133 23l-58 217h-436l-56 -222l152 -18v-152h-574l-3 152l115 24l437 1349h442l438 -1350l107 -23v-152zM1153 1941q0 -149 -123 -234q-123 -84 -325 -84t-328 86t-126 232v15l2 58h266q36 0 36 -121
q0 -135 147 -135t147 135q0 121 36 121h266l2 -58v-15z" />
    <glyph glyph-name="uni04D1" unicode="&#x4d1;" horiz-adv-x="1181" 
d="M487 240q34 -51 95 -51q29 0 62 16t54 40v315q-130 0 -187 -54q-58 -54 -58 -134q0 -81 34 -132zM1164 4q-142 -30 -245 -30t-131 6t-50 26q-21 19 -21 90v38q-75 -105 -215 -143q-52 -14 -118 -14t-130 24t-110 69q-48 44 -76 110t-28 152q0 179 166 278
q166 100 492 100v32q0 95 -26 125q-26 29 -62 39t-98 11q-108 0 -182 -21q-75 -21 -164 -56h-1l-79 168q123 94 342 140q87 18 202 19q238 1 336 -97t98 -332v-586h100v-148zM1000 1668q0 -165 -121 -265q-121 -99 -328 -99q-206 0 -330 101t-124 263v12l2 48h255
q36 0 36 -114t88 -158q30 -14 70 -15q76 0 116 51q41 51 41 143q0 93 36 93h257l2 -48v-12z" />
    <glyph glyph-name="uni04D2" unicode="&#x4d2;" horiz-adv-x="1465" 
d="M827 565l-155 588l-22 126l-24 -126l-147 -588h348zM1494 0h-697v152l133 23l-58 217h-436l-56 -222l152 -18v-152h-574l-3 152l115 24l437 1349h442l438 -1350l107 -23v-152zM423 1626q-70 0 -115 51q-46 51 -46 107q0 217 196 217h1q135 0 171 -105q10 -32 11 -70
q0 -88 -54 -144t-163 -56h-1zM973 1626q-67 0 -114 54q-48 54 -48 108q0 101 49 157t147 56h1q136 0 172 -105q10 -32 11 -70q0 -87 -54 -143q-54 -57 -163 -57h-1z" />
    <glyph glyph-name="uni04D3" unicode="&#x4d3;" horiz-adv-x="1181" 
d="M487 240q34 -51 95 -51q29 0 62 16t54 40v315q-130 0 -187 -54q-58 -54 -58 -134q0 -81 34 -132zM1164 4q-142 -30 -245 -30t-131 6t-50 26q-21 19 -21 90v38q-75 -105 -215 -143q-52 -14 -118 -14t-130 24t-110 69q-48 44 -76 110t-28 152q0 179 166 278
q166 100 492 100v32q0 95 -26 125q-26 29 -62 39t-98 11q-108 0 -182 -21q-75 -21 -164 -56h-1l-79 168q123 94 342 140q87 18 202 19q238 1 336 -97t98 -332v-586h100v-148zM267 1324q-70 0 -117 52q-46 52 -46 111q0 107 49 166t147 59h1q137 0 173 -109q10 -33 10 -73
q0 -91 -54 -148q-54 -58 -162 -58h-1zM794 1324q-68 0 -114 57q-47 57 -47 111q0 104 49 162t147 58h1q136 0 172 -109q10 -33 10 -73q0 -90 -53 -148t-164 -58h-1z" />
    <glyph glyph-name="uni04D4" unicode="&#x4d4;" horiz-adv-x="2027" 
d="M887 590v765h-111l-98 -295l-164 -470h373zM265 1522h1626l28 -384h-185l-74 210l-359 26v-511l206 7l38 164h155v-534h-154l-37 177l-208 7v-528l389 31l134 267l226 -62l-66 -392h-1248v150l151 24v236h-436l-82 -236l150 -24v-150h-608v150l143 25l466 1155l-255 30
v162z" />
    <glyph glyph-name="uni04D5" unicode="&#x4d5;" horiz-adv-x="1775" 
d="M467 372q0 -96 32 -140q31 -44 81 -43q50 0 92 27t69 65q-46 121 -46 285q-182 -5 -218 -127q-10 -34 -10 -67zM1345 760q0 125 -18 170q-19 46 -41 64t-55 17q-73 0 -109 -67t-38 -268h259l2 66v18zM382 -23q-142 0 -242 89t-100 263q0 173 165 276t499 105v28
q0 88 -30 118q-52 52 -194 53q-142 0 -328 -72l-80 170q108 93 350 142q88 18 188 18q234 0 315 -91q136 91 336 91q343 0 435 -244q30 -78 30 -192t-17 -204h-620q15 -162 81 -237t198 -75t285 76l62 -139q-50 -57 -141 -97q-175 -78 -316 -78q-322 0 -460 197
q-92 -138 -289 -183q-61 -14 -127 -14z" />
    <glyph glyph-name="uni04D6" unicode="&#x4d6;" horiz-adv-x="1351" 
d="M1135 1941q0 -149 -123 -234q-123 -84 -325 -84t-328 86t-126 232v15l2 58h266q36 0 36 -121q0 -135 147 -135t147 135q0 121 36 121h266l2 -58v-15zM54 1522h1156l28 -384h-185l-77 210l-351 25v-510l205 5l39 166h154v-534h-154l-37 179l-207 5v-528l384 31l132 267
l201 -55l-44 -399h-1238v152l149 23v1154l-155 31v162z" />
    <glyph glyph-name="uni04D7" unicode="&#x4d7;" horiz-adv-x="1142" 
d="M717 760q0 127 -18 172q-19 45 -41 62t-55 17q-72 0 -108 -68t-38 -267h259v18l1 48v18zM737 215q128 0 277 78l66 -141q-50 -57 -141 -97q-175 -78 -324 -78q-290 0 -426 157q-135 157 -135 440q0 282 153 437q153 156 420 156q226 0 343 -109q118 -109 122 -311
q0 -120 -19 -220h-612q15 -162 81 -237t195 -75zM1041 1668q0 -165 -121 -265q-121 -99 -328 -99q-206 0 -330 101t-124 263v12l2 48h255q36 0 36 -114q1 -114 89 -158q30 -14 69 -15q76 0 116 51q41 51 41 143q0 93 36 93h257l2 -48v-12z" />
    <glyph glyph-name="uni04D8" unicode="&#x4d8;" horiz-adv-x="1423" 
d="M463 628v-77q0 -295 99 -341t149 -46q132 0 189.5 123.5t57.5 372.5l-493 1q-2 -28 -2 -33zM55 588q0 178 21 262l877 -2q-20 384 -130.5 460.5t-184.5 76.5t-125.5 -26t-68.5 -66l-51 -195l-270 13l-2 348q43 2 98 14.5t180.5 38.5t285.5 26q326 0 515 -192t189 -578
q0 -387 -211.5 -589t-514.5 -202q-256 0 -432 147t-176 464z" />
    <glyph glyph-name="afii10846" unicode="&#x4d9;" horiz-adv-x="1138" 
d="M434 385q0 -126 16.5 -171.5t38 -63.5t53.5 -18t81 22.5t57 312.5h-245v-5l-1 -20v-57zM428 928q-159 0 -304 -76l-62 140q54 59 185 117t277 58q288 0 423.5 -157.5t135.5 -439.5t-152 -437.5t-418 -155.5q-225 0 -358.5 124.5t-113.5 298.5t27 216h611
q-14 249 -106.5 280.5t-144.5 31.5z" />
    <glyph glyph-name="uni04DA" unicode="&#x4da;" horiz-adv-x="1423" 
d="M421 1626q-70 0 -115 51q-46 51 -46 107q0 217 196 217h1q135 0 171 -105q10 -32 11 -70q0 -88 -54 -144t-163 -56h-1zM971 1626q-67 0 -114 54q-48 54 -48 108q0 101 49 157t147 56h1q136 0 172 -105q10 -32 11 -70q0 -87 -54 -143q-54 -57 -163 -57h-1zM463 610v-59
q1 -295 161 -369q38 -18 87 -18q131 0 189 124t58 372l-493 1q-2 -29 -2 -51zM55 588q0 178 21 262l877 -2q-20 384 -184 498q-57 40 -131 39q-74 0 -126 -26q-51 -26 -68 -66l-51 -195l-270 13l-2 348q43 3 98 15t181 38t285 26q326 0 515 -192t189 -578q0 -387 -223 -600
q-200 -191 -503 -191q-256 0 -419 136q-189 158 -189 475z" />
    <glyph glyph-name="uni04DB" unicode="&#x4db;" horiz-adv-x="1141" 
d="M240 1324q-70 0 -117 52q-46 52 -46 111q0 107 49 166t147 59h1q136 0 172 -109q10 -33 11 -73q0 -91 -54 -148q-54 -58 -162 -58h-1zM767 1324q-68 0 -114 57q-47 57 -47 111q0 104 49 162t147 58h1q135 0 171 -109q10 -33 11 -73q0 -90 -53 -148t-164 -58h-1zM437 385
q1 -126 17 -172q16 -45 38 -63t54 -18t56 11q74 34 81 324h-245v-17l-1 -48v-17zM432 928q-159 0 -305 -76l-62 140q54 59 143 99q173 76 319 76q288 0 424 -157q135 -157 135 -440q0 -282 -152 -438q-152 -155 -418 -155q-225 0 -345 112q-147 137 -113 433q6 52 13 94h611
q-14 249 -152 296q-46 16 -98 16z" />
    <glyph glyph-name="uni04DC" unicode="&#x4dc;" horiz-adv-x="2211" 
d="M802 1626q-70 0 -115 51q-46 51 -46 107q0 217 196 217h1q136 0 172 -105q10 -32 10 -70q0 -88 -54 -144t-163 -56h-1zM1352 1626q-67 0 -114 54q-48 54 -48 108q0 101 49 157t147 56h1q137 0 173 -105q10 -32 10 -70q0 -87 -54 -143q-54 -57 -163 -57h-1zM35 1522h586
v-162l-129 -28l295 -492h120v491l-162 29v162h724v-162l-163 -29v-491h119l295 492l-128 28v162h592v-162l-181 -30l-352 -499q189 -45 323 -343q26 -56 46 -109q22 -53 53 -122t62 -81l85 -24v-152h-425q-80 0 -158 223q-22 63 -45 129q-58 166 -102 242q-66 110 -146 111
h-38v-529l183 -26v-150h-757v152l175 24v529h-38q-112 0 -200 -223q-25 -64 -48 -130q-63 -182 -92 -242q-54 -110 -111 -110h-425v152l85 24q24 10 48 56t52 112q84 206 140 292q106 163 244 195l-353 499l-174 30v162z" />
    <glyph glyph-name="uni04DD" unicode="&#x4dd;" horiz-adv-x="2122" 
d="M775 1324q-70 0 -117 52q-46 52 -46 111q0 107 49 166t147 59h1q137 0 173 -109q10 -33 10 -73q0 -91 -54 -148q-54 -58 -162 -58h-1zM1302 1324q-68 0 -114 57q-47 57 -47 111q0 104 49 162t147 58h1q136 0 172 -109q10 -33 10 -73q0 -90 -53 -148t-164 -58h-1zM49 1138
h600v-147l-143 -23l163 -293h200v293l-115 23v147h624l2 -147l-118 -24v-292h199l163 293l-142 23v147h600v-147l-171 -24l-223 -316q136 -55 230 -259q65 -140 85 -174q21 -34 44 -43l98 -19v-156h-413q-86 0 -146 166q-17 47 -33 96q-41 127 -73 180q-49 83 -116 83h-102
v-349l170 -24v-152h-710v152l147 24v350l-102 -1q-93 0 -155 -167q-18 -47 -33 -96q-43 -128 -71 -180q-45 -82 -108 -82h-413v156l96 20q33 14 69 89t61 127q97 204 230 259l-223 316l-171 24v147z" />
    <glyph glyph-name="uni04DE" unicode="&#x4de;" horiz-adv-x="1282" 
d="M570 130q206 0 206 315q0 179 -116 241q-44 24 -112 24h-124v172h106q171 0 224 155q19 56 19 126q0 122 -59 175t-156 53q-98 0 -142 -38q-12 -10 -15 -20l-48 -212h-223l-36 357q32 2 155 20q124 20 204 30t187 10q108 0 220 -22t190 -65q77 -44 117 -110t40 -154
q0 -164 -105 -260t-259 -125q191 -6 297 -97t106 -243q0 -231 -142 -344q-165 -130 -541 -130q-183 0 -402 70q-45 14 -84 18l51 413h204l73 -301q55 -58 165 -58zM303 1626q-70 0 -115 51q-46 51 -46 107q0 217 196 217h1q135 0 171 -105q10 -32 11 -70q0 -88 -54 -144
t-163 -56h-1zM853 1626q-67 0 -114 54q-48 54 -48 108q0 101 49 157t147 56h1q136 0 172 -105q10 -32 11 -70q0 -87 -54 -143q-54 -57 -163 -57h-1z" />
    <glyph glyph-name="uni04DF" unicode="&#x4df;" 
d="M247 1324q-70 0 -117 52q-46 52 -46 111q0 107 49 166t147 59h1q137 0 173 -109q10 -33 10 -73q0 -91 -54 -148q-54 -58 -162 -58h-1zM774 1324q-68 0 -114 57q-47 57 -47 111q0 104 49 162t147 58h1q136 0 172 -109q10 -33 10 -73q0 -90 -53 -148t-164 -58h-1zM555 1161
q502 0 502 -277q0 -87 -57 -159t-166 -114q277 -34 282 -265q4 -262 -302 -336q-106 -26 -232 -26t-209 10q-84 10 -147 24t-105 26t-62 16l24 303h232l43 -177q32 -56 135 -56q175 0 175 199q0 176 -132 176q-32 0 -128 -24l4 187l88 11q94 21 129 123q12 36 12 95
q0 120 -142 120q-87 1 -127 -61q-12 -18 -16 -36l-23 -144h-255v330q61 0 203 28q143 28 274 27z" />
    <glyph glyph-name="uni04E0" unicode="&#x4e0;" horiz-adv-x="1299" 
d="M867 903q209 0 310 -107t101 -281q0 -336 -214 -437t-459 -101t-382.5 45.5t-164.5 58.5l50 394h226l79 -292q9 -31 62 -44t97 -13q104 0 180 86.5t76 229.5t-28 194t-74 77.5t-112 26.5t-100 -6l-53 107l345 485l-411 -10l-52 -241h-243l-24 447h1147v-171l-422 -452
q34 4 66 4z" />
    <glyph glyph-name="uni04E1" unicode="&#x4e1;" horiz-adv-x="1180" 
d="M445 -338q286 0 286 346q0 178 -84.5 235.5t-208.5 57.5l-56 102l344 582l-381 -15l-46 -237h-229l-9 404h1019l48 -145l-415 -522q327 -9 390.5 -178t63.5 -284q0 -239 -163 -380.5t-464 -141.5q-227 0 -331 43.5t-128 58.5l-23 411h188l108 -317q44 -20 91 -20z" />
    <glyph glyph-name="uni04E2" unicode="&#x4e2;" horiz-adv-x="1761" 
d="M62 1522h729v-161l-171 -31v-847l92 192l429 615v40l-162 30v162h720v-162l-148 -30v-1154l151 -24v-152h-721v152l160 24v858l-85 -198l-436 -611v-48l171 -25v-152h-731v152l149 23v1156l-147 29v162zM562 1965h671v-220h-671v220z" />
    <glyph glyph-name="uni04E3" unicode="&#x4e3;" horiz-adv-x="1623" 
d="M84 1138h663v-147l-138 -23v-522l100 134l305 334v55l-117 22v147h645v-147l-126 -24v-795l133 -21v-151h-673v151l138 22v533l-94 -144l-311 -339v-57l132 -14v-152h-659v152l126 20v796l-124 23v147zM497 1634h671v-220h-671v220z" />
    <glyph glyph-name="uni04E4" unicode="&#x4e4;" horiz-adv-x="1761" 
d="M62 1522h729v-161l-171 -31v-847l92 192l429 615v40l-162 30v162h720v-162l-148 -30v-1154l151 -24v-152h-721v152l160 24v858l-85 -198l-436 -611v-48l171 -25v-152h-731v152l149 23v1156l-147 29v162zM588 1626q-70 0 -115 51q-46 51 -46 107q0 217 196 217h1
q136 0 172 -105q10 -32 10 -70q0 -88 -54 -144t-163 -56h-1zM1138 1626q-67 0 -114 54q-48 54 -48 108q0 101 49 157t147 56h1q137 0 173 -105q10 -32 10 -70q0 -87 -54 -143q-54 -57 -163 -57h-1z" />
    <glyph glyph-name="uni04E5" unicode="&#x4e5;" horiz-adv-x="1623" 
d="M84 1138h663v-147l-138 -23v-522l100 134l305 334v55l-117 22v147h645v-147l-126 -24v-795l133 -21v-151h-673v151l138 22v533l-94 -144l-311 -339v-57l132 -14v-152h-659v152l126 20v796l-124 23v147zM542 1324q-70 0 -117 52q-46 52 -46 111q0 107 49 166t147 59h1
q136 0 172 -109q10 -33 11 -73q0 -91 -54 -148q-54 -58 -162 -58h-1zM1069 1324q-68 0 -114 57q-47 57 -47 111q0 104 49 162t147 58h1q135 0 171 -109q10 -33 11 -73q0 -90 -53 -148t-164 -58h-1z" />
    <glyph glyph-name="uni04E6" unicode="&#x4e6;" horiz-adv-x="1516" 
d="M457 1626q-70 0 -115 51q-46 51 -46 107q0 217 196 217h1q135 0 171 -105q10 -32 11 -70q0 -88 -54 -144t-163 -56h-1zM1007 1626q-67 0 -114 54q-48 54 -48 108q0 101 49 157t147 56h1q136 0 172 -105q10 -32 11 -70q0 -87 -54 -143q-54 -57 -163 -57h-1zM759 1392
q-251 0 -251 -629q0 -495 145 -601q46 -34 103 -34q121 0 186 169t65 492q0 485 -145 575q-46 28 -103 28zM244 1332q191 211 522 211q542 -3 660 -441q38 -139 37 -315q0 -360 -193 -584t-520 -226q-362 -3 -538 215q-158 196 -159 563q0 366 191 577z" />
    <glyph glyph-name="uni04E7" unicode="&#x4e7;" horiz-adv-x="1270" 
d="M344 1324q-70 0 -117 52q-46 52 -46 111q0 107 49 166t147 59h1q136 0 172 -109q10 -33 11 -73q0 -91 -54 -148q-54 -58 -162 -58h-1zM871 1324q-68 0 -114 57q-47 57 -47 111q0 104 49 162t147 58h1q135 0 171 -109q10 -33 11 -73q0 -90 -53 -148t-164 -58h-1zM640 134
q150 0 150 373q0 298 -36 401t-121 103q-154 0 -154 -424q0 -353 90 -427q31 -26 71 -26zM223 1014q169 154 428 154q258 0 412 -150t154 -446q-1 -297 -177 -455q-156 -140 -416 -140t-415 150t-155 442q0 291 169 445z" />
    <glyph glyph-name="uni04E8" unicode="&#x4e8;" horiz-adv-x="1506" 
d="M504 694q11 -566 248 -566q112 0 176 144t73 422h-497zM755 1392q-236 0 -250 -554h498q-8 444 -100.5 499t-147.5 55zM239.5 1331.5q190.5 211.5 522.5 211.5q541 -3 619 -291.5t78 -464.5q0 -360 -192.5 -584t-520.5 -226q-363 -2 -530 205t-167 573q0 365 190.5 576.5
z" />
    <glyph glyph-name="uni04E9" unicode="&#x4e9;" horiz-adv-x="1270" 
d="M641 134q77 0 112 94.5t37 309.5h-311q6 -314 64.5 -359t97.5 -45zM635 1011q-147 0 -155 -365h309q-9 285 -63 325t-91 40zM223 1014.5q169 153.5 428 153.5q258 0 412 -150t154 -446q0 -297 -166.5 -446t-426.5 -149t-415 150t-155 442t169 445.5z" />
    </font>
</defs>
</svg>
