<?xml version="1.0" standalone="no"?>
<!DOCTYPE svg PUBLIC "-//W3C//DTD SVG 1.1//EN" "http://www.w3.org/Graphics/SVG/1.1/DTD/svg11.dtd" >
<svg xmlns="http://www.w3.org/2000/svg">
<metadata>
Created by FontPrep 20130207 at Mon May 18 22:54:43 2015
 By Christian Reichel
Copyright (c) 2013, Sorkin Type Co (www.sorkintype.com) with Reserved Font Name 'Merriweather'
</metadata>
<defs>
<font id="c4025c994f65da2ba93b7ed5819e793f" horiz-adv-x='1024' >
  <font-face 
    font-family="Merriweather-LightItalic"
    font-weight="300"
    font-style="italic"
    font-stretch="normal"
    units-per-em="2048"
    panose-1="2 0 8 3 6 0 0 9 0 4"
    ascent="1638"
    descent="-410"
    x-height="1163"
    cap-height="1530"
    bbox="-242 -560 2514 2002"
    underline-thickness="147"
    underline-position="-120"
    slope="-7.5"
    unicode-range="U+0001-FB04"
  />
<missing-glyph horiz-adv-x="1850" 
d="M462 369q4 -7 62 -71t60 -68l338 364l353 -365l115 117l-355 363l356 352l-122 119l-343 -362l-348 364l-117 -120l351 -357zM221 0v1416h1407v-1416h-1407z" />
    <glyph glyph-name="f_f" unicode="ff" horiz-adv-x="1352" 
d="M1391 1670q98 0 158 -26l-46 -134q-67 44 -149 43t-138 -78q-55 -77 -71 -212l-13 -108h251l-12 -115h-262l-141 -1114q-34 -276 -174 -383q-72 -55 -164 -56t-164 19l42 124q76 -35 154 -34q115 1 152 277l142 1167h-139l12 61l147 49l14 99q26 175 144 298t257 123z
M715 1670q98 0 158 -26l-46 -134q-67 44 -149 43t-138 -78q-55 -77 -71 -212l-13 -108h251l-12 -115h-262l-141 -1114q-34 -276 -174 -383q-72 -55 -164 -56t-164 19l42 124q76 -35 154 -34q115 1 152 277l142 1167h-139l12 61l147 49l14 99q26 175 144 298t257 123z" />
    <glyph glyph-name="f_i" unicode="fi" horiz-adv-x="1301" 
d="M1094 1421q-44 0 -71 29t-25 75q2 45 40 81q36 36 80 36t69 -28t23 -74q-2 -47 -38 -83q-34 -36 -78 -36zM1024 85q40 0 108 71l27 -44q-25 -40 -85 -86t-133 -46q-120 0 -109 119q7 99 62 470q56 370 67 447l-137 40l14 65l258 42l41 -21l-141 -984q-4 -35 4 -54t24 -19
zM715 1670q98 0 158 -26l-46 -134q-67 44 -149 43t-138 -78q-55 -77 -71 -212l-13 -108h251l-12 -115h-262l-141 -1114q-34 -276 -174 -383q-72 -55 -164 -56t-164 19l42 124q76 -35 154 -34q115 1 152 277l142 1167h-139l12 61l147 49l14 99q26 175 144 298t257 123z" />
    <glyph glyph-name="f_l" unicode="fl" horiz-adv-x="1274" 
d="M990 85q44 0 111 70l26 -43q-29 -56 -98 -94q-68 -38 -120 -38q-102 0 -100 122q0 38 6 68l200 1345l-119 33l16 67l229 35l40 -23l-216 -1469q-5 -34 3 -54t22 -19zM715 1670q98 0 158 -26l-46 -134q-67 44 -149 43t-138 -78q-55 -77 -71 -212l-13 -108h251l-12 -115
h-262l-141 -1114q-34 -276 -174 -383q-72 -55 -164 -56t-164 19l42 124q76 -35 154 -34q115 1 152 277l142 1167h-139l12 61l147 49l14 99q26 175 144 298t257 123z" />
    <glyph glyph-name="f_f_i" unicode="ffi" horiz-adv-x="1977" 
d="M1770 1421q-44 0 -71 29t-25 75q2 45 40 81q36 36 80 36t69 -28t23 -74q-2 -47 -38 -83q-34 -36 -78 -36zM1700 85q40 0 108 71l27 -44q-25 -40 -85 -86t-133 -46q-120 0 -109 119q7 99 62 470q56 370 67 447l-137 40l14 65l258 42l41 -21l-141 -984q-4 -35 4 -54t24 -19
zM1391 1670q98 0 158 -26l-46 -134q-67 44 -149 43t-138 -78q-55 -77 -71 -212l-13 -108h251l-12 -115h-262l-141 -1114q-34 -276 -174 -383q-72 -55 -164 -56t-164 19l42 124q76 -35 154 -34q115 1 152 277l142 1167h-139l12 61l147 49l14 99q26 175 144 298t257 123z
M715 1670q98 0 158 -26l-46 -134q-67 44 -149 43t-138 -78q-55 -77 -71 -212l-13 -108h251l-12 -115h-262l-141 -1114q-34 -276 -174 -383q-72 -55 -164 -56t-164 19l42 124q76 -35 154 -34q115 1 152 277l142 1167h-139l12 61l147 49l14 99q26 175 144 298t257 123z" />
    <glyph glyph-name="f_f_l" unicode="ffl" horiz-adv-x="1950" 
d="M1666 85q44 0 111 70l26 -43q-29 -56 -98 -94q-68 -38 -120 -38q-102 0 -100 122q0 38 6 68l200 1345l-119 33l16 67l229 35l40 -23l-216 -1469q-5 -34 3 -54t22 -19zM1391 1670q98 0 158 -26l-46 -134q-67 44 -149 43t-138 -78q-55 -77 -71 -212l-13 -108h251l-12 -115
h-262l-141 -1114q-34 -276 -174 -383q-72 -55 -164 -56t-164 19l42 124q76 -35 154 -34q115 1 152 277l142 1167h-139l12 61l147 49l14 99q26 175 144 298t257 123zM715 1670q98 0 158 -26l-46 -134q-67 44 -149 43t-138 -78q-55 -77 -71 -212l-13 -108h251l-12 -115h-262
l-141 -1114q-34 -276 -174 -383q-72 -55 -164 -56t-164 19l42 124q76 -35 154 -34q115 1 152 277l142 1167h-139l12 61l147 49l14 99q26 175 144 298t257 123z" />
    <glyph glyph-name=".notdef" horiz-adv-x="1850" 
d="M462 369q4 -7 62 -71t60 -68l338 364l353 -365l115 117l-355 363l356 352l-122 119l-343 -362l-348 364l-117 -120l351 -357zM221 0v1416h1407v-1416h-1407z" />
    <glyph glyph-name=".null" unicode="&#xe000;" 
 />
    <glyph glyph-name="nonmarkingreturn" horiz-adv-x="682" 
 />
    <glyph glyph-name="uni0001" 
 />
    <glyph glyph-name="uni0002" 
 />
    <glyph glyph-name="uni0003" 
 />
    <glyph glyph-name="uni0004" 
 />
    <glyph glyph-name="uni0005" 
 />
    <glyph glyph-name="uni0006" 
 />
    <glyph glyph-name="uni0007" 
 />
    <glyph glyph-name="uni0008" 
 />
    <glyph glyph-name="HT" unicode="&#x9;" 
 />
    <glyph glyph-name="LF" unicode="&#xa;" 
 />
    <glyph glyph-name="DLE" 
 />
    <glyph glyph-name="DC1" 
 />
    <glyph glyph-name="DC2" 
 />
    <glyph glyph-name="DC3" 
 />
    <glyph glyph-name="DC4" 
 />
    <glyph glyph-name="uni0015" 
 />
    <glyph glyph-name="uni0016" 
 />
    <glyph glyph-name="uni0017" 
 />
    <glyph glyph-name="uni0018" 
 />
    <glyph glyph-name="uni0019" 
 />
    <glyph glyph-name="RS" 
 />
    <glyph glyph-name="US" 
 />
    <glyph glyph-name="space" unicode=" " horiz-adv-x="485" 
 />
    <glyph glyph-name="exclam" unicode="!" horiz-adv-x="686" 
d="M301 210q51 0 74 -28t17 -80t-50 -86q-42 -34 -89 -34t-75 28t-21 79q5 51 49 86t95 35zM270 488l147 1290h195l-231 -1290h-111z" />
    <glyph glyph-name="quotedbl" unicode="&#x22;" horiz-adv-x="1003" 
d="M745 966l86 721h182l-155 -721h-113zM266 966l86 721h182l-155 -721h-113z" />
    <glyph glyph-name="numbersign" unicode="#" horiz-adv-x="1405" 
d="M474 468h378l71 454h-376zM266 0l59 365h-214l6 103h224l72 454h-222l6 103h232l53 332h132l-51 -332h377l56 332h132l-54 -332h232l-6 -103h-242l-73 -454h229l-6 -103h-239l-57 -365h-128l52 365h-378l-62 -365h-130z" />
    <glyph glyph-name="dollar" unicode="$" horiz-adv-x="1205" 
d="M534 62q135 0 241 76q107 76 114 210t-82 214q-98 88 -192 134q-3 2 -73 43q-70 42 -109 70q-183 135 -183 312q0 120 58 215q116 188 376 212l28 181h145l-30 -183q185 -16 280 -81l-42 -245h-94l-23 181q-35 26 -103 44t-123 18q-55 -1 -93 -9q-89 -20 -158 -86
q-70 -66 -75 -181q-4 -115 66 -187t209 -150q139 -77 222 -144q146 -119 146 -277q0 -129 -63 -229q-125 -197 -403 -220l-34 -210h-144l34 210q-108 9 -199 34t-123 51l43 278h101l12 -204q47 -37 125 -57t146 -20z" />
    <glyph glyph-name="percent" unicode="%" horiz-adv-x="1911" 
d="M1583 498q0 219 -156 219q-79 -1 -139 -57q-116 -108 -116 -284q0 -105 42 -167t112 -62q131 0 194 116q63 117 63 235zM1036 358q0 122 52 220t150 159q96 62 224 62t196 -79t68 -203q0 -123 -50 -223t-145 -165q-96 -65 -223 -65q-128 0 -200 86t-72 208zM747 1179
q0 219 -156 219q-79 0 -139 -56q-116 -108 -116 -285q0 -105 42 -167t112 -62q131 0 194 116q63 117 63 235zM472 745q-128 1 -200 87t-72 208t52 218q52 98 150 160q96 62 224 62t196 -79t68 -203t-50 -224t-145 -164q-96 -65 -223 -65zM410 0l947 1530h129l-947 -1530
h-129z" />
    <glyph glyph-name="ampersand" unicode="&#x26;" horiz-adv-x="1549" 
d="M222 369q0 -141 97 -219t274 -78t294 53q-103 96 -187 201t-129 176t-119 198q-110 -72 -170 -151t-60 -180zM885 1400q-39 66 -154 66t-191 -82t-76 -226t79 -317q228 115 304 208q77 92 77 188q0 97 -39 163zM1193 -20q-142 0 -246 91q-164 -88 -374 -88
q-211 -1 -357 89q-72 44 -114 120t-43 154q0 78 20 130q37 98 125 167t209 132q-39 87 -66 193t-27 185q0 178 126 287t316 109q240 -1 302 -179q16 -48 16 -92q0 -45 -8 -79q-8 -35 -21 -63q-11 -28 -35 -58t-44 -50q-20 -22 -56 -49t-60 -44t-67 -43t-69 -39t-72 -39
q-48 -26 -71 -39q196 -350 432 -561q96 112 96 337q0 74 -23 139q-33 3 -88 3t-118 -33v108q14 14 52 28t84 14t134 -13t156 -13q143 0 169 171h63q-4 -145 -54 -219t-164 -74q-34 0 -74 5q8 -35 8 -81q0 -261 -176 -426q134 -101 294 -91l-9 -70q-78 -19 -166 -19z" />
    <glyph glyph-name="quotesingle" unicode="'" horiz-adv-x="524" 
d="M256 966l86 721h182l-155 -721h-113z" />
    <glyph glyph-name="parenleft" unicode="(" horiz-adv-x="854" 
d="M203 496q1 112 19 252t80 297q103 262 291 480q145 167 234 216l70 -48q-81 -52 -169 -168q-88 -117 -148 -219t-114 -246t-78 -297q-19 -143 -19 -261t21 -238q36 -204 111 -341t142 -191l-86 -51h-14q-47 32 -104 101q-57 68 -94 138t-70 154t-53 196q-20 114 -19 226z
" />
    <glyph glyph-name="parenright" unicode=")" horiz-adv-x="854" 
d="M672 932q0 -112 -18 -252t-81 -297q-103 -262 -291 -480q-145 -167 -234 -216l-70 48q81 52 169 168q88 117 148 219q59 102 113 246t79 297q19 143 19 261t-21 238q-36 204 -111 341t-142 191l86 51h14q47 -32 104 -101q57 -68 94 -138t70 -154q32 -84 52 -196
q20 -114 20 -226z" />
    <glyph glyph-name="asterisk" unicode="*" horiz-adv-x="1366" 
d="M347 829l-63 134l319 136l124 48l-113 50l-292 143l91 133l252 -201l92 -80l-8 127l-3 334l153 -1l-63 -333l-28 -127l109 80l293 197l62 -134l-320 -139l-123 -50l110 -48l287 -142l-92 -132l-246 199l-90 81l7 -123l3 -334l-154 1l64 333l29 123l-108 -80z" />
    <glyph glyph-name="plus" unicode="+" horiz-adv-x="1366" 
d="M580 295l29 241l27 179l-157 -6h-225l14 127h226l155 -9l16 178l27 230h143l-26 -230l-30 -178l132 9h255l-15 -127h-255l-129 6q-1 -25 -7 -93t-6 -86l-30 -241h-144z" />
    <glyph glyph-name="comma" unicode="," horiz-adv-x="563" 
d="M216 -88q0 94 -38 148t-87 56l5 43l90 106q71 -19 116 -65q76 -79 76 -223q0 -145 -104 -279t-269 -199l-34 55l2 18q95 42 169 144t74 196z" />
    <glyph glyph-name="hyphen" unicode="-" horiz-adv-x="1270" 
d="M238 709l14 127h834l-15 -127h-833z" />
    <glyph glyph-name="period" unicode="." horiz-adv-x="526" 
d="M244 210q50 0 73 -28t17 -81q-6 -51 -46 -85q-39 -34 -86 -34q-48 0 -72 28t-17 80t43 86q38 34 88 34z" />
    <glyph glyph-name="slash" unicode="/" horiz-adv-x="854" 
d="M21 -362h-138l862 1959h139z" />
    <glyph glyph-name="zero" unicode="0" horiz-adv-x="1270" 
d="M357 186q63 -113 205 -113q102 0 185 54q83 55 133 143q104 183 105 412q0 392 -266 392q-89 0 -161 -38t-120 -101q-48 -62 -82 -143q-62 -151 -62 -322t63 -284zM129 476q-1 123 47 255q48 133 130 227t194 149q114 55 222 55t178 -25q131 -46 191 -164t60 -267
q-1 -149 -45 -279t-122 -228q-78 -99 -194 -157q-114 -58 -233 -58t-201 37t-130 102t-73 147q-24 82 -24 206z" />
    <glyph glyph-name="one" unicode="1" horiz-adv-x="954" 
d="M130 0l8 70l218 21l126 875q-16 -5 -105 -36t-171 -48l-12 78q166 37 406 202l70 -19l-152 -1051l233 -22l-8 -70h-613z" />
    <glyph glyph-name="two" unicode="2" horiz-adv-x="1273" 
d="M883 828q0 98 -65 161t-186 63q-179 0 -372 -160l-43 72q74 78 198 138t243 60q213 0 305 -96t92 -231q-1 -231 -333 -481q-174 -130 -415 -253l638 30l93 174l81 -29l-79 -276h-933l-14 67q406 198 625 420q165 167 165 341z" />
    <glyph glyph-name="three" unicode="3" horiz-adv-x="1128" 
d="M210 -234q142 0 265 44t203 136q80 90 79 209q0 261 -296 264q-13 -6 -89 -26t-83 -22l12 95q195 47 335 144t140 241q0 100 -59 150t-161 50t-183 -36q-82 -36 -166 -98l-34 81q61 60 185 112t263 52t236 -69t97 -205t-108 -244t-260 -162q178 0 266 -87t88 -209
t-62 -218t-165 -160q-218 -136 -490 -135q-71 0 -167 12l11 92q93 -11 143 -11z" />
    <glyph glyph-name="four" unicode="4" horiz-adv-x="1288" 
d="M74 0l-29 76q264 410 695 1180h101l64 -72l-600 -938l-103 -149l543 22l72 483l155 47l-77 -521l249 11l-17 -139h-250l-55 -375h-152l57 375h-653z" />
    <glyph glyph-name="five" unicode="5" horiz-adv-x="1140" 
d="M194 -264q82 0 192 28t201 82q91 53 145 140t54 194q0 150 -77 228t-214 78q-90 0 -157 -24q-66 -24 -124 -45l-41 32l163 697h573l20 16h134l-48 -151h-572l-119 -480q127 49 247 49q189 0 293 -94t105 -282q1 -121 -71 -227t-186 -175q-243 -148 -524 -148
q-81 0 -130 17l11 74q43 -9 125 -9z" />
    <glyph glyph-name="six" unicode="6" horiz-adv-x="1292" 
d="M322 454q0 -178 70 -282t211 -104q71 0 132 32q109 56 167 190q58 135 58 278q0 142 -64 225t-172 83q-217 0 -373 -180q-29 -126 -29 -242zM156 469q0 239 110 467t306 398t439 237l24 -69q-233 -85 -403 -261t-247 -398q158 132 361 132t292 -111t89 -279
q0 -167 -104 -334q-169 -271 -473 -271q-116 0 -210 66q-184 129 -184 423z" />
    <glyph glyph-name="seven" unicode="7" horiz-adv-x="1120" 
d="M259 -262l645 1296l-604 -10l-90 -211l-103 4l70 329h862l28 -37l-642 -1424z" />
    <glyph glyph-name="eight" unicode="8" horiz-adv-x="1289" 
d="M596 66q136 0 229 82t93 205q0 124 -83 209q-83 84 -229 185q-120 -57 -208 -159t-88 -232q-1 -130 74 -210q76 -80 212 -80zM1001 1214q0 126 -66 191q-67 65 -183 65t-196 -83t-79 -220q-1 -137 159 -263q28 -22 74 -56q111 49 201 145q90 95 90 221zM139 333
q0 263 397 465q-160 126 -198 237q-18 51 -17 108q0 189 127 298q128 109 314 109t291 -88t105 -237q0 -238 -373 -430q175 -125 238 -215t63 -174t-28 -152q-53 -125 -189 -199q-136 -75 -303 -75t-292 84q-62 42 -98 110q-36 70 -37 159z" />
    <glyph glyph-name="nine" unicode="9" horiz-adv-x="1271" 
d="M540 263q176 1 320 129q28 26 52 53q30 115 30 267t-72 257q-72 104 -210 104q-199 1 -301 -227q-55 -122 -55 -266q0 -143 64 -230t172 -87zM516 165q-204 0 -292 113t-88 278q0 166 105 333t268 234q90 37 188 37q196 0 303 -135t107 -332t-65 -378t-178 -328
q-114 -147 -272 -257t-339 -162l-24 69q230 84 402 261t249 399q-60 -53 -158 -93t-206 -39z" />
    <glyph glyph-name="colon" unicode=":" horiz-adv-x="526" 
d="M224 210q50 0 73 -28t17 -81q-6 -51 -46 -85q-39 -34 -86 -34q-48 0 -72 28t-17 80t43 86q38 34 88 34zM317 1019q51 -1 73 -29t16 -80t-45 -86t-86 -33q-47 0 -71 28q-24 27 -18 79q8 52 44 86t87 35z" />
    <glyph glyph-name="semicolon" unicode=";" horiz-adv-x="526" 
d="M319 1019q51 -1 73 -29t16 -80t-45 -86t-86 -33q-47 0 -71 28q-24 27 -18 79q8 52 44 86t87 35zM216 -88q0 94 -38 148t-87 56l5 43l90 106q71 -19 116 -65q76 -79 76 -223q0 -145 -104 -279t-269 -199l-34 55l2 18q95 42 169 144t74 196z" />
    <glyph glyph-name="less" unicode="&#x3c;" horiz-adv-x="1368" 
d="M197 699l13 103l1010 522l-19 -156l-840 -417l742 -418l-18 -157z" />
    <glyph glyph-name="equal" unicode="=" horiz-adv-x="1063" 
d="M82 355l14 125h815l-14 -125h-815zM152 865l14 125h815l-14 -125h-815z" />
    <glyph glyph-name="greater" unicode="&#x3e;" horiz-adv-x="1368" 
d="M1245 804l-13 -103l-1010 -522l19 156l840 417l-742 418l18 157z" />
    <glyph glyph-name="question" unicode="?" horiz-adv-x="1020" 
d="M420 -18q-99 0 -96 98q0 48 48 89t97 41q95 0 93 -83q-1 -65 -48 -105q-48 -40 -94 -40zM306 704q0 56 16 91q31 67 100 115q68 48 177 108q109 58 172 104t84 95q12 41 12 88q1 177 -101 278t-252 101q-108 0 -183 -38l22 114q21 22 82 38t142 15q81 0 161 -26
q145 -47 206 -160t61 -230q-1 -115 -31 -189t-78 -120t-108 -85q-59 -38 -118 -69q-60 -31 -108 -63q-110 -72 -109 -176q0 -66 50 -192l-102 -40l-15 1q-34 34 -57 108q-23 76 -23 132z" />
    <glyph glyph-name="at" unicode="@" horiz-adv-x="1969" 
d="M686 411q0 -111 44 -192t114 -81t156 120t158 299q72 178 111 353q-26 37 -87 59q-60 22 -128 22t-136 -34t-110 -88t-70 -127q-28 -72 -40 -146t-12 -185zM1291 -312q-153 -116 -435 -116q-145 0 -281 47q-137 47 -239 139t-159 240t-57 374q0 228 86 456t232 384
t344 244t417 89q305 1 487 -169t182 -467q0 -163 -37 -307q-67 -260 -229 -420q-163 -161 -333 -161q-46 -1 -61 21q-27 37 -32 82q-4 44 -4 117q0 74 38 239q-200 -473 -389 -473q-137 0 -221 148q-60 108 -57 269q4 161 60 310q56 150 179 254q122 104 301 104
q52 0 120 -14t107 -40l134 25q-69 -260 -114 -624q-12 -95 -12 -244q0 -57 35 -57q67 0 137 60t126 156t92 230t36 264t-33 230q-62 187 -217 275q-155 87 -340 87q-184 0 -326 -56q-266 -105 -426 -378q-159 -274 -159 -614q-1 -430 269 -606q159 -104 390 -103
q100 -1 202 23t161 52z" />
    <glyph glyph-name="A" unicode="A" horiz-adv-x="1264" 
d="M367 547h538l-124 856zM4 93l722 1437h167l235 -1434l167 -27l-6 -69h-488l5 69l165 24l-52 356h-600l-171 -355l173 -25l-5 -69h-464l8 69z" />
    <glyph glyph-name="B" unicode="B" horiz-adv-x="1293" 
d="M691 746q-165 0 -250 -5l-86 -638q62 -19 204 -19q467 0 463 388q-4 274 -331 274zM674 848q161 0 265 86t102 264q-2 127 -71 190q-70 63 -216 63t-220 -13l-79 -590h219zM489 1530l283 15q314 0 402 -204q24 -57 26 -123q2 -158 -80 -259t-233 -145q127 -18 215 -108
t90 -219t-48 -228t-144 -157q-184 -116 -477 -116l-264 14h-219l7 69l146 25l181 1336l-132 19l10 81h237z" />
    <glyph glyph-name="C" unicode="C" horiz-adv-x="1251" 
d="M566 -16q-76 0 -160 38q-154 70 -232 238q-77 167 -80 334q-2 167 24 291t76 224q103 207 275 322q173 115 360 115t362 -48l47 -13l-68 -363h-94l-4 275q-92 53 -252 53q-264 0 -428 -273q-87 -145 -119 -349q-31 -204 11 -396q78 -352 347 -353q84 1 169 27t122 73
q0 5 30 107t32 116l98 -1l-40 -331q-165 -55 -230 -65q-65 -11 -117 -16q-53 -5 -129 -5z" />
    <glyph glyph-name="D" unicode="D" horiz-adv-x="1426" 
d="M760 1452q-99 0 -226 -19l-180 -1328l1 1q140 -27 276 -27q116 6 213 56q178 92 274 306q95 214 91 482q-3 269 -113 399t-336 130zM266 0h-227l7 69l147 25l181 1336l-132 19l10 81h232l321 16q422 0 531 -368q33 -112 35 -254q5 -264 -93 -480t-280 -341t-412 -119
q-64 2 -139 9t-181 7z" />
    <glyph glyph-name="E" unicode="E" horiz-adv-x="1210" 
d="M38 0l8 69l147 24l180 1337l-132 19l10 81h911l-7 -310h-86l-36 207l-497 16l-80 -603l466 6l-10 -125l-471 13l-88 -640l608 19l113 228l84 -25l-89 -316h-1031z" />
    <glyph glyph-name="F" unicode="F" horiz-adv-x="1121" 
d="M39 0l7 70l147 24l181 1336l-132 19l10 81h930l-20 -310h-97l-22 207l-506 15l-82 -604l483 8l-10 -128l-487 13l-87 -635l243 -26l-6 -70h-552z" />
    <glyph glyph-name="G" unicode="G" horiz-adv-x="1361" 
d="M870 1546q186 0 378 -56l38 -11l-57 -296h-102l-7 202q-94 66 -291 66q-238 0 -389 -203q-127 -171 -159 -444q-31 -273 49 -478q99 -249 329 -249q85 1 181 27t149 74l67 438l-270 14l11 93h435l-93 -629q-29 -2 -121 -31q-91 -28 -102 -31t-50 -14q-38 -10 -60 -14
t-68 -12t-121 -9q-298 -1 -435 279q-77 156 -80 362q-4 205 50 377q54 171 152 291t239 187t327 67z" />
    <glyph glyph-name="H" unicode="H" horiz-adv-x="1534" 
d="M41 0l7 69l149 25l180 1336l-135 19l10 81h445l-8 -81l-151 -19l-81 -600h698l81 600l-148 19l7 81h450l-9 -81l-140 -19l-179 -1335l154 -26l-8 -69h-473l7 70l160 25l84 631h-698l-85 -632l156 -24l-7 -70h-466z" />
    <glyph glyph-name="I" unicode="I" horiz-adv-x="717" 
d="M54 0l7 69l149 25l180 1336l-135 19l10 81h445l-8 -81l-151 -19l-180 -1336l156 -24l-7 -70h-466z" />
    <glyph glyph-name="J" unicode="J" horiz-adv-x="694" 
d="M196 82q58 288 118 763q61 475 76 586l-163 18l11 81h487l-9 -81l-170 -18q-154 -1242 -188 -1348q-67 -209 -203 -304q-136 -96 -297 -124l-28 70q144 38 244 143t122 214z" />
    <glyph glyph-name="K" unicode="K" horiz-adv-x="1352" 
d="M37 0l7 69l149 25l181 1336l-135 19l10 81h445l-8 -81l-151 -19l-104 -767l694 767l-136 19l9 81h417l-9 -81l-123 -18l-571 -604q43 -64 193 -319q151 -254 191 -316t69 -78l145 -39l-11 -75h-249q-27 2 -56 54q-30 52 -80 151t-153 283q-103 185 -139 244l-212 -224
l-56 -414l156 -24l-7 -70h-466z" />
    <glyph glyph-name="L" unicode="L" horiz-adv-x="1173" 
d="M38 0l7 70l149 24l180 1336l-135 19l10 81h473l-9 -81l-178 -19l-181 -1336l538 9l130 346l94 -18l-96 -431h-982z" />
    <glyph glyph-name="M" unicode="M" horiz-adv-x="1847" 
d="M-61 0l8 70l156 24l365 1336l-188 19l10 81h414l139 -1067l21 -259l99 255l502 1071h381l-9 -81l-179 -19l-61 -1335l162 -25l-7 -70h-510l8 70l180 23l103 1334l-152 -353l-512 -1078l-100 -14l-149 1068l-42 377l-88 -385l-241 -948l184 -24l-7 -70h-487z" />
    <glyph glyph-name="N" unicode="N" horiz-adv-x="1521" 
d="M24 0l7 69l140 23l190 1338l-145 19l14 81h301l515 -1162l66 -196l166 1259l-151 18l10 81h435l-8 -81l-152 -19l-214 -1430h-152l-511 1136l-64 200l-161 -1242l164 -24l-6 -70h-444z" />
    <glyph glyph-name="O" unicode="O" horiz-adv-x="1352" 
d="M784 1454q-144 0 -263 -104t-185 -280q-66 -178 -64 -353q4 -313 87 -476q82 -163 269 -165q144 0 262 98t186 278q68 178 63 396q-12 606 -355 606zM606 -20q-226 0 -360 179t-140 482q-4 189 50 359t149 289q95 121 226 191t263 70q255 0 381 -191t130 -456
q5 -265 -87 -474t-254 -329t-358 -120z" />
    <glyph glyph-name="P" unicode="P" horiz-adv-x="1216" 
d="M750 1451q-114 0 -214 -21l-110 -773q104 -17 191 -17q441 4 447 503q2 155 -72 231t-242 77zM609 544q-87 0 -195 9l-60 -459l196 -24l-6 -70h-507l7 69l149 25l181 1336l-135 19l10 81h233l293 17q217 0 333 -97t119 -293q3 -143 -47 -261t-134 -194
q-178 -158 -437 -158z" />
    <glyph glyph-name="Q" unicode="Q" horiz-adv-x="1353" 
d="M785 1455q-144 1 -263 -103t-185 -282q-65 -178 -63 -352q4 -313 86 -476t269 -165q143 1 261 99t186 276t64 397q-12 606 -355 606zM796 1551q255 0 380 -191q126 -191 129 -447q5 -257 -75 -455t-222 -323q-142 -124 -320 -148q6 -204 304 -204q44 0 106 15t104 36
l2 -111q-39 -33 -118 -57t-154 -24t-139 21t-115 61t-77 108q-26 67 -17 150q-217 9 -344 187t-133 473q-4 188 50 358t149 290t226 190q132 70 264 71z" />
    <glyph glyph-name="R" unicode="R" horiz-adv-x="1324" 
d="M700 1451q-66 0 -171 -15l-93 -670q151 -8 243 -2q179 11 279 124t95 299q-3 136 -83 200t-270 64zM459 1530l269 16q246 0 363 -88t121 -269q4 -183 -100 -317t-287 -182q105 -80 217 -366q52 -134 102 -191t146 -54l-4 -80l-224 2q-52 -2 -131 197q-35 88 -52 132
t-26 66q-9 24 -25 62t-28 60t-27 52q-23 43 -57 74q-33 31 -70 27h-222l-76 -577l188 -24l-6 -70h-478l7 69l134 25l181 1336l-135 19l10 81h210z" />
    <glyph glyph-name="S" unicode="S" horiz-adv-x="1094" 
d="M454 74q66 0 122 16t108 46q50 32 81 88t31 134q0 76 -34 144t-81 111t-113 85t-104 67q-111 76 -176 165t-67 211t60 217q62 96 166 144q103 48 233 48t226 -26t147 -59l-46 -262h-86l-14 197q-81 55 -209 55q-128 1 -216 -49q-104 -58 -104 -205q0 -145 117 -249
q59 -52 133 -98t112 -73q99 -71 156 -157q56 -86 58 -212q2 -125 -65 -228t-181 -155t-248 -52q-134 1 -252 29t-158 59l41 278l94 4l13 -210q41 -27 116 -45q74 -18 140 -18z" />
    <glyph glyph-name="T" unicode="T" horiz-adv-x="1235" 
d="M221 0l7 75l241 19l190 1349l-367 -21l-94 -358h-91l81 466h1130l-75 -465l-88 -1l30 359l-365 20l-190 -1349l249 -19l-6 -75h-652z" />
    <glyph glyph-name="U" unicode="U" horiz-adv-x="1396" 
d="M651 69q187 -1 295 137t142 421l119 802l-135 20l9 81h404l-9 -81l-129 -18l-120 -804q-45 -347 -190 -497t-409 -150q-212 0 -329 118t-121 328q-1 74 8 167l125 838l-139 19l10 80h455l-9 -80l-154 -21l-123 -822q-11 -105 -10 -189q3 -166 81 -258t229 -91z" />
    <glyph glyph-name="V" unicode="V" horiz-adv-x="1212" 
d="M443 -21l-225 1451l-130 19l8 81h481l-9 -81l-183 -19l132 -981l32 -316l117 316l452 981l-160 20l8 80h410l-8 -80l-112 -19l-673 -1442z" />
    <glyph glyph-name="W" unicode="W" horiz-adv-x="1794" 
d="M381 -10l-201 1439l-147 20l10 81h483l-9 -81l-184 -16l163 -1297l74 238l364 912l-15 146l-145 17l9 81h482l-17 -81l-177 -17l99 -997l22 -299l91 262l440 1031l-157 20l9 81h428l-14 -81l-133 -20l-624 -1439h-161l-103 1077l-429 -1077h-158z" />
    <glyph glyph-name="X" unicode="X" horiz-adv-x="1287" 
d="M-65 0l9 70l134 23l515 680l-297 654l-149 22l8 81h503l-9 -81l-169 -18l220 -554l385 553l-162 19l9 81h460l-8 -81l-144 -18l-488 -652l319 -685l163 -24l-7 -70h-524l6 70l176 23l-242 580l-408 -579l168 -25l-7 -69h-461z" />
    <glyph glyph-name="Y" unicode="Y" horiz-adv-x="1167" 
d="M239 0l6 70l213 24l67 492l-339 844l-116 19l8 81h468l-10 -81l-175 -19l220 -608l42 -137l78 137l375 608l-147 19l9 81h412l-12 -81l-113 -18l-547 -845l-67 -492l223 -24l-7 -70h-588z" />
    <glyph glyph-name="Z" unicode="Z" horiz-adv-x="1203" 
d="M25 0l-22 73l908 1220l125 145l-626 -6l-90 -265l-108 19l56 344h928l21 -69l-926 -1254l-104 -121l690 20l121 272l111 -25l-93 -353h-991z" />
    <glyph glyph-name="bracketleft" unicode="[" horiz-adv-x="854" 
d="M571 1713q75 0 185 -19l110 -18l-11 -70h-288l-222 -1672q35 0 147 -1t146 -1q-5 -38 -8 -69q-150 -37 -258 -37t-140 24q-30 24 -30 76t6 140t44 372t88 620t65 454t53 159q38 42 113 42z" />
    <glyph glyph-name="backslash" unicode="\" horiz-adv-x="854" 
d="M709 -362l-576 1959h138l577 -1959h-139z" />
    <glyph glyph-name="bracketright" unicode="]" horiz-adv-x="854" 
d="M334 -157q-75 0 -185 19l-110 18l11 70h288l222 1672q-35 0 -147 1t-146 1q5 38 8 69q151 37 259 37t138 -24t31 -76t-5 -140t-44 -372t-89 -620q-50 -336 -65 -454t-53 -159q-38 -42 -113 -42z" />
    <glyph glyph-name="asciicircum" unicode="^" horiz-adv-x="1364" 
d="M182 510l526 1021h159l270 -1021h-133l-236 840l-452 -840h-134z" />
    <glyph glyph-name="underscore" unicode="_" horiz-adv-x="1335" 
d="M-95 -218h1378l-16 -120h-1378z" />
    <glyph glyph-name="grave" unicode="`" horiz-adv-x="541" 
d="M435 1255q-85 53 -213 165t-164 176l121 133l300 -425z" />
    <glyph glyph-name="a" unicode="a" horiz-adv-x="1138" 
d="M230 421q0 -327 177 -327q71 0 141 44t114 93q44 50 77 105l103 683q-60 45 -162 45t-192 -62q-88 -62 -142 -158q-116 -204 -116 -423zM910 85q23 0 86 59l27 -44q-14 -30 -73 -75t-126 -45q-126 0 -116 137l10 73q-60 -86 -150 -148t-193 -62q-153 0 -231 112t-78 289
t75 353t222 302q147 127 343 127q87 0 193 -36l1 1l118 34l-150 -989q-7 -46 6 -67t36 -21z" />
    <glyph glyph-name="b" unicode="b" horiz-adv-x="1147" 
d="M434 78q102 0 177 42q133 74 208 249t75 340q0 167 -53 253t-151 86t-191 -72q-92 -72 -137 -150l-90 -696q60 -52 162 -52zM718 1163q168 -1 254 -119t86 -296t-74 -349q-74 -172 -218 -296q-145 -123 -358 -123q-114 0 -229 51l-80 -36l195 1521l-95 34l16 68l209 32
l43 -23l-86 -659q57 80 145 138t192 57z" />
    <glyph glyph-name="c" unicode="c" horiz-adv-x="897" 
d="M164 100q-92 120 -93 331q0 211 101 409t271 278q95 44 177 45q150 0 246 -48l-41 -147q-42 36 -101 56t-114 21q-160 0 -266 -167t-106 -425q0 -177 60 -269t167 -92q80 0 142 30t149 95l32 -66q-151 -171 -367 -171q-165 0 -257 120z" />
    <glyph glyph-name="d" unicode="d" horiz-adv-x="1170" 
d="M436 94q94 0 182 62t140 140l109 716q-63 53 -163 53t-176 -42q-136 -75 -212 -251t-76 -340t50 -251q52 -87 146 -87zM404 -20q-106 0 -182 56q-146 109 -146 376q0 201 114 408q114 206 304 294q105 48 201 49q96 0 190 -27l58 379l-128 33l17 67l239 35l44 -23
l-214 -1469q-16 -140 119 -18l27 -44q-23 -34 -80 -75t-124 -41q-110 0 -104 122q0 37 1 56q-58 -74 -144 -126t-192 -52z" />
    <glyph glyph-name="e" unicode="e" horiz-adv-x="1025" 
d="M776 902q0 80 -41 124t-117 43q-76 1 -144 -49t-112 -128q-91 -159 -108 -335q178 5 342 93q78 42 129 108q51 64 51 144zM647 1163q149 1 221 -69t72 -181q0 -75 -37 -141t-98 -114q-130 -99 -289 -144t-266 -47q-12 -130 38 -244q26 -59 78 -95t126 -36q179 0 341 162
l38 -68q-55 -76 -161 -141t-214 -65q-106 0 -174 26q-124 48 -184 166t-55 286t79 334t206 268t279 103z" />
    <glyph glyph-name="f" unicode="f" horiz-adv-x="676" 
d="M715 1670q98 0 158 -26l-46 -134q-67 44 -149 43t-138 -78q-55 -77 -71 -212l-13 -108h251l-12 -115h-262l-141 -1114q-34 -276 -174 -383q-72 -55 -164 -56t-164 19l42 124q76 -35 154 -34q115 1 152 277l142 1167h-139l12 61l147 49l14 99q26 175 144 298t257 123z" />
    <glyph glyph-name="g" unicode="g" horiz-adv-x="1144" 
d="M433 94q93 0 181 60t139 135l108 727q-63 49 -161 49t-173 -42q-136 -75 -212 -251t-76 -340q1 -164 51 -251t143 -87zM400 -381q134 1 200 55t88 195l44 281q-60 -72 -144 -121t-188 -49t-179 56q-146 109 -146 376q0 201 114 408q114 206 304 294q105 48 215 49
q110 0 219 -41l116 41l-193 -1240q-36 -255 -272 -370q-125 -61 -261 -61t-216 35l40 148q125 -56 259 -56z" />
    <glyph glyph-name="h" unicode="h" horiz-adv-x="1250" 
d="M986 84q31 0 107 63l26 -44q-17 -31 -81 -77t-137 -46q-116 0 -109 116q2 72 27 203q25 132 27 149t12 69q10 53 14 71q32 166 31 296q0 152 -133 152q-92 0 -210 -86t-200 -208l-100 -742h-155l200 1515l-115 33l13 67l232 35l44 -23l-102 -754q91 124 215 207t240 83
t174 -68q57 -68 57 -228q0 -92 -53 -362q-47 -281 -51 -351t27 -70z" />
    <glyph glyph-name="i" unicode="i" horiz-adv-x="625" 
d="M418 1421q-44 0 -71 29t-25 75q2 45 40 81q36 36 80 36t69 -28t23 -74q-2 -47 -38 -83q-34 -36 -78 -36zM348 85q40 0 108 71l27 -44q-25 -40 -85 -86t-133 -46q-120 0 -109 119q7 99 62 470q56 370 67 447l-137 40l14 65l258 42l41 -21l-141 -984q-4 -35 4 -54t24 -19z
" />
    <glyph glyph-name="j" unicode="j" horiz-adv-x="622" 
d="M416 1421q-44 0 -70 29t-24 75q2 45 38 81t80 36t70 -28t24 -74q-2 -47 -38 -83t-80 -36zM-102 -518q-106 0 -140 37l28 66q34 -17 89 -17t102 26q87 49 132 169t65 295l109 958l-143 40l14 65l265 42l40 -21l-135 -1140q-30 -254 -142 -387t-284 -133z" />
    <glyph glyph-name="k" unicode="k" horiz-adv-x="1059" 
d="M914 1163q36 -1 60 -23t26 -71q6 -154 -380 -383q-18 -10 -58 -34q-39 -24 -46 -28l278 -432q29 -42 62 -69t58 -27q54 0 109 55l28 -50q-27 -45 -93 -83t-133 -38q-95 0 -159 108l-300 522l2 1h-2q34 25 128 87t152 111t102 108t57 155q8 43 40 67q33 24 69 24zM105 0
l200 1515l-115 33l12 67l232 35l44 -23l-219 -1627h-154z" />
    <glyph glyph-name="l" unicode="l" horiz-adv-x="598" 
d="M314 85q44 0 111 70l26 -43q-29 -56 -98 -94q-68 -38 -120 -38q-102 0 -100 122q0 38 6 68l200 1345l-119 33l16 67l229 35l40 -23l-216 -1469q-5 -34 3 -54t22 -19z" />
    <glyph glyph-name="m" unicode="m" horiz-adv-x="1880" 
d="M829 1163q213 0 223 -261q84 113 194 187t218 74q108 1 168 -71q62 -72 62 -225q0 -82 -46 -337t-52 -350t21 -95q41 0 113 71l27 -44q-38 -59 -104 -96q-66 -36 -116 -36q-107 0 -103 114q2 68 24 206q22 137 25 156t13 76q38 217 38 321t-30 143t-104 39
q-72 0 -172 -76t-180 -187q-10 -105 -36 -267l-68 -505h-158l63 457q44 271 44 387t-29 155q-29 38 -110 38q-80 -1 -192 -85t-193 -205l-100 -747h-155l132 1002l-97 47l14 72l210 42l40 -20l-26 -255q91 119 209 197t233 78z" />
    <glyph glyph-name="n" unicode="n" horiz-adv-x="1253" 
d="M836 1163q114 0 172 -68t58 -227q0 -81 -49 -341q-49 -261 -54 -351q-5 -91 21 -91q37 0 97 54l26 -44q-19 -31 -79 -73t-128 -43q-112 0 -105 117q4 89 45 311q42 221 54 299t12 166t-30 126t-113 39q-82 1 -197 -85t-198 -207l-99 -745h-155l133 1002l-98 47l14 72
l211 42l40 -20l-27 -257q91 118 213 198t236 79z" />
    <glyph glyph-name="o" unicode="o" horiz-adv-x="1123" 
d="M615 1065q-73 0 -135 -39q-110 -69 -171 -239t-58 -345q6 -364 250 -364q89 0 162 58t116 152q90 195 87 391q-2 196 -64 291t-187 95zM644 1163q187 1 285 -119t102 -341q2 -135 -38 -265t-112 -232t-179 -164t-229 -62q-187 0 -285 119t-101 342q-4 223 99 415
q104 192 271 267q89 40 187 40z" />
    <glyph glyph-name="p" unicode="p" horiz-adv-x="1147" 
d="M448 78q106 0 194 62t140 158q112 201 112 421q0 157 -54 243t-146 86t-178 -60q-85 -60 -136 -138l-100 -726q62 -46 168 -46zM718 1163q168 -1 254 -119t86 -318t-113 -406q-113 -207 -299 -292q-104 -48 -200 -48t-183 24l-72 -524h-151l206 1537l-108 40l14 64
l229 42l39 -20l-21 -153q57 73 140 123t179 50z" />
    <glyph glyph-name="q" unicode="q" horiz-adv-x="1145" 
d="M430 94q158 0 292 164q10 12 19 24q79 556 104 740q-60 42 -144 42t-149 -28q-66 -28 -114 -78q-101 -102 -151 -249t-50 -295t52 -234t141 -86zM73 412q0 201 114 408q114 206 304 294q105 48 214 49q109 0 215 -41l6 7l90 10l-212 -1479q-4 -28 4 -51t19 -23
q44 0 113 72l26 -45q-22 -35 -87 -83t-137 -48q-105 0 -98 121q1 21 77 541q-135 -164 -323 -164q-102 0 -179 56q-146 108 -146 376z" />
    <glyph glyph-name="r" unicode="r" horiz-adv-x="824" 
d="M776 1162q58 0 72 -13l-34 -166q-28 14 -108 14q-80 -1 -172 -69q-93 -68 -148 -194l-98 -734h-155l133 1002l-97 47l14 72l212 42l39 -20l-29 -254q43 91 140 177q48 42 111 69q62 27 120 27z" />
    <glyph glyph-name="s" unicode="s" horiz-adv-x="834" 
d="M323 89q234 0 234 173q-1 81 -71 147q-43 40 -102 84q-60 43 -80 61q-166 141 -165 290q1 148 113 234t271 85q73 1 144 -13t100 -28l-33 -135q-14 20 -75 46t-150 26t-149 -41t-67 -120q-11 -108 111 -212q26 -22 98 -76q71 -54 111 -98q96 -103 96 -234
q0 -130 -115 -214t-280 -84q-90 0 -176 20t-113 43l29 121q104 -75 269 -75z" />
    <glyph glyph-name="t" unicode="t" horiz-adv-x="706" 
d="M150 147q0 37 11 121l101 775h-124l16 70l127 38q40 56 112 265h76l-33 -261h261l-16 -112h-259l-96 -699q-14 -107 -14 -159q0 -53 20 -73t68 -20q50 0 112 30t100 58l14 -64q-36 -44 -129 -90t-171 -46q-176 0 -176 167z" />
    <glyph glyph-name="u" unicode="u" horiz-adv-x="1204" 
d="M321 253q0 -163 156 -163q79 0 167 56t148 133l115 876h155l-130 -996q-10 -72 24 -72q41 0 111 71l26 -45q-21 -35 -86 -83t-129 -48t-90 36q-25 36 -12 101q1 8 3 50q-167 -189 -368 -189q-120 0 -183 62t-63 212q0 86 36 352l54 396l-97 47l14 71l210 43l40 -21
l-69 -543q-3 -27 -11 -83q-21 -147 -21 -263z" />
    <glyph glyph-name="v" unicode="v" horiz-adv-x="1046" 
d="M209 1163q63 0 88 -34t33 -103l76 -674l22 -220l146 195q106 159 170 297t87 300q5 40 -12 90t-17 78t20 50t64 21q44 0 72 -51t29 -137q0 -229 -295 -662l-240 -322l-123 -11l-157 999q-13 69 -47 70q-34 0 -75 -41l-24 50q18 29 69 67t114 38z" />
    <glyph glyph-name="w" unicode="w" horiz-adv-x="1683" 
d="M212 1163q64 0 88 -32q26 -32 35 -105l79 -715l14 -200l70 179l374 865h144l71 -844l11 -200l130 205q103 153 165 330t67 279q2 40 -14 90t-15 77q-1 27 21 49t57 22q106 0 106 -196q0 -228 -277 -654l-210 -321l-151 -11l-36 341l-42 484l-7 129l-43 -130l-241 -516
l-148 -297l-136 -12l-56 343l-94 656q-8 37 -18 53t-38 16q-26 0 -67 -40l-25 50q18 30 70 68t116 37z" />
    <glyph glyph-name="x" unicode="x" horiz-adv-x="989" 
d="M189 1058q-27 0 -98 -59l-28 45q15 29 81 74t132 45q66 1 96 -25q31 -26 48 -79l105 -365l316 461h170l-440 -591l185 -416q24 -63 64 -63t114 74l30 -45q-14 -32 -82 -83t-133 -51t-93 26t-45 79l-132 377l-316 -462h-168l437 589l-169 407q-18 41 -32 51q-15 11 -42 11
z" />
    <glyph glyph-name="y" unicode="y" horiz-adv-x="1051" 
d="M895 1162q110 0 110 -180q1 -80 -17 -141q-18 -62 -28 -96t-31 -85l-33 -78q-12 -26 -40 -82l-36 -72t-40 -74q-31 -58 -34 -64q-226 -450 -367 -619q-48 -68 -137 -122q-88 -54 -192 -54t-193 29l37 127q5 -5 38 -16q34 -11 61 -17t75 -6q46 0 102 28t119 101
q63 72 113 180h-50l-180 1058q-17 70 -48 70q-30 0 -89 -56l-24 49q17 32 75 76t120 45q62 -1 88 -33q24 -32 37 -104l101 -768l26 -281q200 369 310 634q64 153 81 313q5 41 -13 90t-18 77q0 27 21 49t56 22z" />
    <glyph glyph-name="z" unicode="z" horiz-adv-x="1001" 
d="M156 13q-57 0 -97 -35l-55 50l645 822l125 147q-410 13 -420 6q-59 -3 -105 -57t-51 -128h-53q-2 82 18 190t53 132t111 23q77 0 259 -18t246 -18t107 36l-1 -4l46 -43l-669 -863l-97 -116q272 -8 426 -8q155 0 182 186h52q-16 -272 -83 -317q-31 -20 -104 -20t-275 18
t-260 17z" />
    <glyph glyph-name="braceleft" unicode="{" horiz-adv-x="997" 
d="M976 1606h-276l-96 -636q-11 -76 -106 -126q-99 -50 -159 -68q108 -51 152 -88q62 -49 52 -112l-94 -631h275l-10 -71q-162 -38 -256 -38t-124 24t-29 92l90 627q3 40 -65 80t-165 67l15 101q131 33 197 65q70 30 77 75l81 546q19 119 57 159t121 41q83 0 227 -28l46 -9
q-10 -55 -10 -70z" />
    <glyph glyph-name="bar" unicode="|" horiz-adv-x="854" 
d="M380 -186v1966h138v-1966h-138z" />
    <glyph glyph-name="braceright" unicode="}" horiz-adv-x="1007" 
d="M94 -60h276l96 636q11 76 106 126q99 50 159 68q-108 51 -152 88q-62 49 -52 112l94 631h-275l10 71q162 38 256 38t124 -24t29 -92l-90 -627q-3 -40 65 -80t165 -67l-15 -101q-131 -33 -197 -65q-70 -30 -77 -75l-81 -546q-19 -119 -57 -159t-121 -41q-83 0 -227 28
l-46 9q10 55 10 70z" />
    <glyph glyph-name="asciitilde" unicode="~" horiz-adv-x="1137" 
d="M802 871q125 0 210 128l58 -60q-23 -77 -107 -139t-191 -62q-50 0 -100 28t-83 60q-89 88 -158 87q-132 0 -218 -128l-57 60q24 69 112 135t180 66t165 -62q31 -26 61 -52q72 -62 128 -61z" />
    <glyph glyph-name="DEL" 
 />
    <glyph glyph-name="nbspace" unicode="&#xa0;" horiz-adv-x="485" 
 />
    <glyph glyph-name="exclamdown" unicode="&#xa1;" horiz-adv-x="686" 
d="M418 1134q-52 0 -74 28t-16 80t48 86t90 34q46 0 74 -28t22 -79t-50 -86q-42 -35 -94 -35zM449 856l-147 -1290h-195l231 1290h111z" />
    <glyph glyph-name="cent" unicode="&#xa2;" horiz-adv-x="1056" 
d="M124 430q0 242 126 458q60 104 158 177q96 73 213 92l49 201h121l-48 -197q104 -10 176 -46l-41 -147q-42 36 -101 56t-114 21q-161 0 -267 -167t-105 -425q-1 -177 59 -269t168 -92q80 0 142 30t149 95l32 -66q-47 -54 -124 -103t-179 -63l-40 -200l-109 44l31 155
q-140 18 -218 136t-78 310z" />
    <glyph glyph-name="sterling" unicode="&#xa3;" horiz-adv-x="1368" 
d="M1271 322q0 -78 -27 -137t-62 -92q-124 -117 -373 -117q-137 0 -279 42q-46 14 -132 42q-85 28 -104 34q-36 -44 -96 -77t-112 -33q-74 0 -63 76q7 47 81 93t157 46q29 37 55 123t38 167l42 260h-184l15 105h186l24 143q22 146 94 271q73 125 189 203t230 78t175 -17
q60 -17 105 -65l-90 -135q-23 32 -92 68q-68 36 -136 36t-112 -22q-161 -82 -209 -415q-2 -16 -24 -145h336l-14 -105h-341q-6 -33 -24 -152q-37 -250 -158 -426q36 -9 116 -38q189 -68 314 -68q315 0 315 248q0 53 -26 105t-58 80l109 103q135 -111 135 -279z" />
    <glyph glyph-name="currency" unicode="&#xa4;" horiz-adv-x="1540" 
d="M457 690q0 -137 94 -234t227 -97q132 0 226 97t94 234t-94 234t-226 97q-133 0 -227 -97t-94 -234zM338 690q0 150 89 265l-191 192l91 91l192 -193q115 83 262 83t265 -91l189 188l90 -91l-189 -189q82 -116 82 -259t-87 -258l192 -191l-91 -91l-191 192
q-116 -86 -260 -86t-258 81l-192 -192l-92 90l190 191q-91 118 -91 268z" />
    <glyph glyph-name="yen" unicode="&#xa5;" horiz-adv-x="1483" 
d="M383 0l6 70l239 25l33 286h-427l12 102h426l30 255h-428l11 103h382l-292 595l-129 15l9 80h490l-9 -80l-198 -15l215 -477l49 -116l74 122l359 471l-164 15l9 80h454l-9 -79l-138 -23l-476 -588h369l-12 -103h-428l-30 -255h429l-12 -102h-429l-33 -286l240 -25l-8 -70
h-614z" />
    <glyph glyph-name="brokenbar" unicode="&#xa6;" horiz-adv-x="854" 
d="M380 -186v894h138v-894h-138zM380 886v894h138v-894h-138z" />
    <glyph glyph-name="section" unicode="&#xa7;" horiz-adv-x="1194" 
d="M390 1038q-110 -162 -54 -272q24 -46 65 -78q84 -62 232 -119t233 -112q94 157 44 264q-22 48 -63 80q-80 64 -224 122q-145 58 -233 115zM492 -94q239 0 331 156q29 48 35 102t-15 94t-61 68t-93 54t-113 50t-118 48q-131 55 -210 130t-66 202q9 70 47 148t92 135
q-89 89 -73 215q22 180 205 286q87 50 172 65q84 14 168 14q84 1 189 -23t151 -53l-37 -301h-77l-35 226q-28 34 -102 50t-132 16t-96 -8q-90 -15 -167 -69q-76 -55 -89 -164t94 -177q107 -67 209 -107q176 -68 277 -154q102 -86 82 -236q-19 -150 -123 -276q81 -85 68 -194
t-71 -187t-138 -119q-161 -83 -303 -83q-141 0 -269 28t-169 58l40 330h94l20 -232q85 -92 283 -92z" />
    <glyph glyph-name="dieresis" unicode="&#xa8;" horiz-adv-x="809" 
d="M179 1406q-45 0 -71 30t-24 76t38 80q34 34 79 35t71 -27t25 -74q-2 -46 -38 -84q-36 -36 -80 -36zM600 1406q-44 0 -70 30t-24 76t36 80t80 35q46 0 72 -27t24 -74q-2 -48 -38 -84t-80 -36z" />
    <glyph glyph-name="copyright" unicode="&#xa9;" horiz-adv-x="1768" 
d="M969 1246q68 0 136 -11t98 -27v-205h-61l-43 136q-43 38 -161 38t-194 -88t-78 -241q0 -288 185 -377q50 -24 104 -24q125 0 234 65l24 -55q-46 -38 -127 -65q-82 -27 -182 -27q-100 -1 -187 59t-131 158t-44 219q-1 121 49 221t149 162t229 62zM275 782q-1 -158 87 -312
t240 -244t308 -89q158 0 280 53t211 143q87 89 139 213t52 282t-88 312t-238 244q-152 90 -310 89q-158 0 -280 -53t-210 -143q-88 -89 -140 -213t-51 -282zM178 804q0 206 102 380t274 274q174 100 379 100t379 -100t276 -274t101 -379q0 -154 -60 -294q-59 -141 -161 -241
t-242 -160t-293 -59q-205 1 -379 101t-274 274q-102 172 -102 378z" />
    <glyph glyph-name="ordfeminine" unicode="&#xaa;" horiz-adv-x="825" 
d="M408 838q48 0 106 45t104 102l86 456q-18 24 -50 39t-59 15q-81 -1 -145 -39t-103 -102q-80 -130 -80 -297t66 -204q27 -15 75 -15zM339 743q-115 0 -172 78q-57 79 -57 197t37 213t101 172t161 125q95 48 195 49q100 0 185 -29l86 31l-129 -677q-10 -82 19 -82
q24 0 68 31l19 -33q-9 -16 -64 -46t-102 -29q-46 1 -70 43t-6 109l-1 12q-124 -164 -270 -164z" />
    <glyph glyph-name="guillemotleft" unicode="&#xab;" horiz-adv-x="1878" 
d="M901 547l18 127l694 412l31 -93l-550 -379l447 -372l-56 -90zM225 547l18 127l694 412l31 -93l-550 -379l447 -372l-56 -90z" />
    <glyph glyph-name="logicalnot" unicode="&#xac;" horiz-adv-x="1370" 
d="M214 731l12 106h962l-62 -515h-141l50 409h-821z" />
    <glyph glyph-name="uni00AD" unicode="&#xad;" horiz-adv-x="1706" 
 />
    <glyph glyph-name="registered" unicode="&#xae;" horiz-adv-x="1768" 
d="M1144 1003q0 81 -55 125t-158 44t-152 -10v-339q36 -6 174 -6q87 1 139 53t52 133zM1338 438v-63h-138q-36 1 -88 111q-22 48 -48 98q-64 124 -159 167h-126v-299l119 -16v-61h-326v61l93 16v702l-93 19v67h143l239 5q150 -1 232 -63t84 -168q0 -213 -242 -249
q47 -26 86 -75q40 -50 60 -94q55 -120 98 -147q26 -11 66 -11zM275 782q-1 -158 87 -312t240 -242q152 -90 332 -90t332 90t238 243q88 154 88 335t-88 335q-88 153 -238 243q-152 90 -310 90t-280 -53t-210 -143t-140 -214t-51 -282zM178 806q0 206 102 378
q102 174 274 274q174 100 379 101q205 -1 379 -101t276 -274t101 -378q0 -154 -60 -294q-59 -140 -161 -240t-242 -160t-293 -60q-205 0 -379 100t-274 274q-102 174 -102 380z" />
    <glyph glyph-name="macron" unicode="&#xaf;" horiz-adv-x="614" 
d="M47 1432l4 119h510l-5 -119h-509z" />
    <glyph glyph-name="degree" unicode="&#xb0;" horiz-adv-x="899" 
d="M532 1052q92 0 154 64t65 161q2 97 -60 161q-63 64 -155 64t-154 -64t-65 -159q-2 -95 60 -161q63 -66 155 -66zM526 955q-140 1 -232 95t-90 230t98 228t238 92q140 0 233 -94t91 -230t-100 -229q-98 -92 -238 -92z" />
    <glyph glyph-name="plusminus" unicode="&#xb1;" horiz-adv-x="1370" 
d="M180 30l13 120h869l-13 -120h-869zM578 295l28 241l28 179l-158 -6h-225l15 127h225l156 -9q1 21 8 89t8 89l27 230h143l-26 -230l-30 -178l131 9h255l-14 -127h-256l-128 6q-1 -23 -7 -93t-8 -86l-28 -241h-144z" />
    <glyph glyph-name="twosuperior" unicode="&#xb2;" horiz-adv-x="1163" 
d="M875 1398q0 64 -58 104q-57 40 -153 40q-195 0 -339 -150l-56 76q53 69 180 132t267 65q224 3 300 -148q20 -39 20 -81t-12 -88t-30 -84t-52 -82t-64 -76q-28 -32 -80 -76q-52 -42 -87 -70t-97 -71t-98 -66t-103 -67l519 20l84 159l83 -23l-83 -257h-781l-37 78
q238 140 318 200q80 61 148 119t110 110t72 112t29 124z" />
    <glyph glyph-name="threesuperior" unicode="&#xb3;" horiz-adv-x="1071" 
d="M699 1662q140 0 214 -62t71 -160t-75 -171t-188 -117q197 0 241 -154q34 -120 -46 -243t-274 -179q-86 -24 -162 -24t-159 19t-136 53l14 88q51 -26 123 -42t128 -16t116 17t114 47t89 82t38 120q3 69 -47 114t-146 46l-215 -50l16 101q375 77 401 292q6 62 -40 98
t-135 35q-173 -2 -322 -101l-29 83q179 124 409 124z" />
    <glyph glyph-name="acute" unicode="&#xb4;" horiz-adv-x="559" 
d="M100 1255l-43 49l322 425l113 -133q-29 -51 -166 -171t-226 -170z" />
    <glyph glyph-name="mu" unicode="&#xb5;" horiz-adv-x="1364" 
d="M378 1150q58 0 85 -29t19 -117t-28 -219q-28 -182 -45 -285t-19 -195q-3 -215 168 -215q80 0 168 54t146 117l119 879h156l-128 -951q-19 -102 23 -102q29 0 79 46l27 -46q-18 -29 -74 -67t-118 -38t-86 32q-26 32 -15 117q-150 -152 -358 -150q-112 1 -159 77l-65 -430
h-148l109 730q9 64 41 266q47 300 45 380q-1 40 -25 41q-26 0 -72 -43l-27 43q16 29 70 67t112 38z" />
    <glyph glyph-name="paragraph" unicode="&#xb6;" horiz-adv-x="1364" 
d="M731 1571q101 1 217 -9t159 -10h261l-9 -103l-187 -19q-26 -211 -92 -671t-91 -665l175 -25l-8 -69h-337l196 1428q-89 17 -232 17l-198 -1445h-329l6 70l182 24l93 680q-165 4 -259 92t-98 251q-4 213 130 333t421 121z" />
    <glyph glyph-name="periodcentered" unicode="&#xb7;" horiz-adv-x="686" 
d="M364 856q50 0 73 -28t17 -81q-6 -51 -46 -85q-39 -34 -86 -34q-48 0 -72 28t-17 80t43 86q38 34 88 34z" />
    <glyph glyph-name="cedilla" unicode="&#xb8;" horiz-adv-x="479" 
d="M135 -348q65 0 111 51t54 151t-13 167l46 4l44 -4q42 -69 29 -219q-12 -150 -76 -208t-173 -58t-146 28l28 105q32 -17 96 -17z" />
    <glyph glyph-name="onesuperior" unicode="&#xb9;" horiz-adv-x="1020" 
d="M242 654l9 71l252 21l95 715q-12 -9 -138 -41t-147 -40l-5 84q86 26 225 94t180 101l59 -17l-120 -896l255 -22l-9 -70h-656z" />
    <glyph glyph-name="ordmasculine" unicode="&#xba;" horiz-adv-x="835" 
d="M709 1246q1 108 -41 186t-129 78t-149 -64q-116 -117 -116 -347q0 -129 42 -205t117 -76q74 0 129 32q55 33 86 91q31 57 46 127t15 178zM120 1063q0 258 140 393t296 133q157 -1 233 -97t76 -236q0 -260 -136 -394q-136 -133 -292 -130q-157 4 -237 98t-80 233z" />
    <glyph glyph-name="guillemotright" unicode="&#xbb;" horiz-adv-x="1878" 
d="M1557 691l-18 -127l-694 -412l-31 93l550 379l-447 372l56 90zM881 691l-18 -127l-694 -412l-31 93l550 379l-447 372l56 90z" />
    <glyph glyph-name="onequarter" unicode="&#xbc;" horiz-adv-x="2560" 
d="M273 654l9 71l252 21l95 715q-12 -9 -138 -41t-147 -40l-5 84q86 26 225 94t180 101l59 -17l-120 -896l255 -22l-9 -70h-656zM820 0l681 1530h132l-681 -1530h-132zM1855 -176l48 348h-519l-30 77l610 864l70 1l74 -83l-602 -772l413 26l41 293l161 21l-41 -304l265 17
l-15 -140h-267l-46 -348h-162z" />
    <glyph glyph-name="onehalf" unicode="&#xbd;" horiz-adv-x="2560" 
d="M273 654l9 71l252 21l95 715q-12 -9 -138 -41t-147 -40l-5 84q86 26 225 94t180 101l59 -17l-120 -896l255 -22l-9 -70h-656zM820 0l681 1530h132l-681 -1530h-132zM2110 683q0 64 -58 104t-154 40q-195 0 -338 -150l-56 76q53 69 180 132t267 65q225 3 301 -148
q20 -40 19 -82t-13 -88t-30 -84t-52 -82t-63 -76t-81 -75t-86 -71q-36 -28 -98 -70q-62 -43 -98 -66t-102 -67l519 20l84 159l83 -23l-83 -257h-781l-37 78q238 140 318 200q80 62 148 120t110 110q41 52 71 111q30 60 30 124z" />
    <glyph glyph-name="threequarters" unicode="&#xbe;" horiz-adv-x="2563" 
d="M876 0l681 1530h132l-681 -1530h-132zM776 1662q140 0 214 -62t71 -160t-75 -171t-188 -117q196 0 240 -154q34 -120 -45 -243q-80 -123 -274 -179q-87 -24 -163 -24t-158 19q-83 19 -136 53l14 88q50 -26 122 -42t128 -16t117 17q60 17 114 47t89 82t38 120
q2 69 -48 114t-145 46l-215 -50l16 101q375 77 401 292q7 62 -39 98t-136 35q-173 -2 -322 -101l-29 83q179 124 409 124zM1855 -176l48 348h-519l-30 77l610 864l70 1l74 -83l-602 -772l413 26l41 293l161 21l-41 -304l265 17l-15 -140h-267l-46 -348h-162z" />
    <glyph glyph-name="questiondown" unicode="&#xbf;" horiz-adv-x="1028" 
d="M84 54q0 80 32 153q32 74 85 121t115 86t124 70t115 63q117 72 117 172q0 73 -50 192l103 40l14 -1q34 -34 57 -108t23 -126q-1 -52 -9 -80q-8 -26 -29 -50t-40 -41q-19 -19 -55 -41t-60 -35t-70 -37t-111 -60q-178 -97 -211 -175q-12 -41 -12 -88q0 -179 102 -279
t252 -100q102 0 172 38l-22 -114q-20 -22 -78 -38t-138 -15q-80 0 -159 26t-129 68q-50 43 -82 101t-44 118t-12 140zM616 1432q99 0 97 -98q-1 -48 -49 -89t-97 -41q-94 0 -92 83q1 63 48 104t93 41z" />
    <glyph glyph-name="Agrave" unicode="&#xc0;" horiz-adv-x="1264" 
d="M834 1614q-100 57 -199 133t-132 143l106 110l271 -349zM367 547h538l-124 856zM4 93l722 1437h167l235 -1434l167 -27l-6 -69h-488l5 69l165 24l-52 356h-600l-171 -355l173 -25l-5 -69h-464l8 69z" />
    <glyph glyph-name="Aacute" unicode="&#xc1;" horiz-adv-x="1264" 
d="M781 1614l-44 37l282 349l99 -110q-25 -48 -109 -122q-85 -73 -228 -154zM367 547h538l-124 856zM4 93l722 1437h167l235 -1434l167 -27l-6 -69h-488l5 69l165 24l-52 356h-600l-171 -355l173 -25l-5 -69h-464l8 69z" />
    <glyph glyph-name="Acircumflex" unicode="&#xc2;" horiz-adv-x="1264" 
d="M507 1619l-50 47l321 334h142l219 -335l-55 -48l-242 256zM367 547h538l-124 856zM4 93l722 1437h167l235 -1434l167 -27l-6 -69h-488l5 69l165 24l-52 356h-600l-171 -355l173 -25l-5 -69h-464l8 69z" />
    <glyph glyph-name="Atilde" unicode="&#xc3;" horiz-adv-x="1264" 
d="M695 1965q95 0 155 -73q61 -73 118 -73q56 0 93 38t66 81l48 -75q-25 -73 -92 -123t-128 -51q-61 0 -95 15t-54 36q-21 20 -40 42q-45 51 -106 53q-62 1 -153 -104l-39 69q35 67 102 116t125 49zM367 547h538l-124 856zM4 93l722 1437h167l235 -1434l167 -27l-6 -69h-488
l5 69l165 24l-52 356h-600l-171 -355l173 -25l-5 -69h-464l8 69z" />
    <glyph glyph-name="Adieresis" unicode="&#xc4;" horiz-adv-x="1264" 
d="M591 1717q-43 -1 -69 29t-24 76t38 80q36 36 80 36t69 -28q26 -28 24 -74q-3 -47 -39 -83t-79 -36zM1012 1717q-44 1 -70 29t-26 74q1 46 39 82t81 36t69 -28t24 -74q-2 -47 -38 -83q-35 -36 -79 -36zM367 547h538l-124 856zM4 93l722 1437h167l235 -1434l167 -27l-6 -69
h-488l5 69l165 24l-52 356h-600l-171 -355l173 -25l-5 -69h-464l8 69z" />
    <glyph glyph-name="Aring" unicode="&#xc5;" horiz-adv-x="1264" 
d="M367 547h538l-124 856zM656 1602q50 -54 134 -56t144 44q59 46 66 139q8 93 -40 143t-133 52q-85 0 -146 -45t-68 -133t43 -144zM851 1990q125 0 195 -65t62 -169q-10 -104 -67 -168q-57 -62 -143 -89l230 -1403l167 -27l-6 -69h-488l5 69l165 24l-52 356h-600l-171 -355
l173 -25l-5 -69h-464l8 69l144 24l700 1393q-105 18 -157 84t-41 167q12 130 116 191q104 62 229 62z" />
    <glyph glyph-name="AE" unicode="&#xc6;" horiz-adv-x="1834" 
d="M439 597h443l108 833l-134 4zM20 93l706 1338l-303 19l11 80h1352l-7 -310h-86l-36 211l-501 12l-86 -603l476 6l-10 -125l-475 13l-84 -640l608 19l113 228l84 -25l-89 -316h-1031l8 69l147 24l52 407h-479l-202 -406l211 -25l-5 -69h-536l13 69z" />
    <glyph glyph-name="Ccedilla" unicode="&#xc7;" horiz-adv-x="1251" 
d="M429 -346q65 0 111 51t53 138t-2 141q-103 2 -187 40q-152 69 -229 236t-81 334q-2 167 24 291t76 224q103 207 275 322q173 115 360 115t362 -48l47 -13l-68 -363h-94l-4 275q-92 53 -252 53q-264 0 -428 -273q-87 -145 -119 -349q-31 -204 11 -396q78 -352 347 -353
q84 1 169 27t122 73q0 5 30 107t32 116l98 -1l-40 -331q-162 -65 -356 -82q23 -70 12 -202q-10 -132 -74 -190t-173 -58t-146 28l28 105q32 -17 96 -17z" />
    <glyph glyph-name="Egrave" unicode="&#xc8;" horiz-adv-x="1210" 
d="M812 1614q-100 57 -199 133t-132 143l106 110l271 -349zM38 0l8 69l147 24l180 1337l-132 19l10 81h911l-7 -310h-86l-36 207l-497 16l-80 -603l466 6l-10 -125l-471 13l-88 -640l608 19l113 228l84 -25l-89 -316h-1031z" />
    <glyph glyph-name="Eacute" unicode="&#xc9;" horiz-adv-x="1210" 
d="M759 1614l-44 37l282 349l99 -110q-25 -48 -109 -122q-85 -73 -228 -154zM38 0l8 69l147 24l180 1337l-132 19l10 81h911l-7 -310h-86l-36 207l-497 16l-80 -603l466 6l-10 -125l-471 13l-88 -640l608 19l113 228l84 -25l-89 -316h-1031z" />
    <glyph glyph-name="Ecircumflex" unicode="&#xca;" horiz-adv-x="1210" 
d="M485 1619l-50 47l321 334h142l219 -335l-55 -48l-242 256zM38 0l8 69l147 24l180 1337l-132 19l10 81h911l-7 -310h-86l-36 207l-497 16l-80 -603l466 6l-10 -125l-471 13l-88 -640l608 19l113 228l84 -25l-89 -316h-1031z" />
    <glyph glyph-name="Edieresis" unicode="&#xcb;" horiz-adv-x="1210" 
d="M569 1717q-43 -1 -69 29t-24 76t38 80q36 36 80 36t69 -28q26 -28 24 -74q-3 -47 -39 -83t-79 -36zM990 1717q-44 1 -70 29t-26 74q1 46 39 82t81 36t69 -28t24 -74q-2 -47 -38 -83q-35 -36 -79 -36zM38 0l8 69l147 24l180 1337l-132 19l10 81h911l-7 -310h-86l-36 207
l-497 16l-80 -603l466 6l-10 -125l-471 13l-88 -640l608 19l113 228l84 -25l-89 -316h-1031z" />
    <glyph glyph-name="Igrave" unicode="&#xcc;" horiz-adv-x="717" 
d="M560 1614q-100 57 -199 133t-132 143l106 110l271 -349zM54 0l7 69l149 25l180 1336l-135 19l10 81h445l-8 -81l-151 -19l-180 -1336l156 -24l-7 -70h-466z" />
    <glyph glyph-name="Iacute" unicode="&#xcd;" horiz-adv-x="717" 
d="M507 1614l-44 37l282 349l99 -110q-25 -48 -109 -122q-85 -73 -228 -154zM54 0l7 69l149 25l180 1336l-135 19l10 81h445l-8 -81l-151 -19l-180 -1336l156 -24l-7 -70h-466z" />
    <glyph glyph-name="Icircumflex" unicode="&#xce;" horiz-adv-x="717" 
d="M233 1619l-50 47l321 334h142l219 -335l-55 -48l-242 256zM54 0l7 69l149 25l180 1336l-135 19l10 81h445l-8 -81l-151 -19l-180 -1336l156 -24l-7 -70h-466z" />
    <glyph glyph-name="Idieresis" unicode="&#xcf;" horiz-adv-x="717" 
d="M317 1717q-43 -1 -69 29t-24 76t38 80q36 36 80 36t69 -28q26 -28 24 -74q-3 -47 -39 -83t-79 -36zM738 1717q-44 1 -70 29t-26 74q1 46 39 82t81 36t69 -28t24 -74q-2 -47 -38 -83q-35 -36 -79 -36zM54 0l7 69l149 25l180 1336l-135 19l10 81h445l-8 -81l-151 -19
l-180 -1336l156 -24l-7 -70h-466z" />
    <glyph glyph-name="Eth" unicode="&#xd0;" horiz-adv-x="1426" 
d="M760 1454q-99 0 -226 -19l-82 -599h416l-13 -105h-417l-84 -624l1 1q140 -27 276 -27q116 6 213 56q178 92 274 306q95 214 91 482q-3 269 -113 399t-336 130zM266 2h-227l7 69l147 25l86 635h-163l13 105h164l81 596l-132 19l10 81h232l321 16q422 0 531 -368
q33 -112 35 -254q5 -264 -93 -480t-280 -341t-412 -119q-64 2 -139 9t-181 7z" />
    <glyph glyph-name="Ntilde" unicode="&#xd1;" horiz-adv-x="1521" 
d="M826 1965q96 0 156 -73q61 -73 117 -73t93 38t66 81l48 -75q-25 -73 -92 -123t-128 -51q-60 0 -94 15t-55 36q-21 20 -40 42q-45 51 -106 53q-62 1 -153 -104l-39 69q35 67 102 116t125 49zM24 0l7 69l140 23l190 1338l-145 19l14 81h301l515 -1162l66 -196l166 1259
l-151 18l10 81h435l-8 -81l-152 -19l-214 -1430h-152l-511 1136l-64 200l-161 -1242l164 -24l-6 -70h-444z" />
    <glyph glyph-name="Ograve" unicode="&#xd2;" horiz-adv-x="1352" 
d="M877 1614q-100 57 -199 133t-132 143l106 110l271 -349zM784 1454q-144 0 -263 -104t-185 -280q-66 -178 -64 -353q4 -313 87 -476q82 -163 269 -165q144 0 262 98t186 278q68 178 63 396q-12 606 -355 606zM606 -20q-226 0 -360 179t-140 482q-4 189 50 359t149 289
q95 121 226 191t263 70q255 0 381 -191t130 -456q5 -265 -87 -474t-254 -329t-358 -120z" />
    <glyph glyph-name="Oacute" unicode="&#xd3;" horiz-adv-x="1352" 
d="M824 1614l-44 37l282 349l99 -110q-25 -48 -109 -122q-85 -73 -228 -154zM784 1454q-144 0 -263 -104t-185 -280q-66 -178 -64 -353q4 -313 87 -476q82 -163 269 -165q144 0 262 98t186 278q68 178 63 396q-12 606 -355 606zM606 -20q-226 0 -360 179t-140 482
q-4 189 50 359t149 289q95 121 226 191t263 70q255 0 381 -191t130 -456q5 -265 -87 -474t-254 -329t-358 -120z" />
    <glyph glyph-name="Ocircumflex" unicode="&#xd4;" horiz-adv-x="1352" 
d="M550 1619l-50 47l321 334h142l219 -335l-55 -48l-242 256zM784 1454q-144 0 -263 -104t-185 -280q-66 -178 -64 -353q4 -313 87 -476q82 -163 269 -165q144 0 262 98t186 278q68 178 63 396q-12 606 -355 606zM606 -20q-226 0 -360 179t-140 482q-4 189 50 359t149 289
q95 121 226 191t263 70q255 0 381 -191t130 -456q5 -265 -87 -474t-254 -329t-358 -120z" />
    <glyph glyph-name="Otilde" unicode="&#xd5;" horiz-adv-x="1352" 
d="M738 1965q96 0 156 -73q61 -73 117 -73t93 38t66 81l48 -75q-25 -73 -92 -123t-128 -51q-60 0 -94 15t-55 36q-21 20 -40 42q-45 51 -106 53q-62 1 -153 -104l-39 69q35 67 102 116t125 49zM784 1454q-144 0 -263 -104t-185 -280q-66 -178 -64 -353q4 -313 87 -476
q82 -163 269 -165q144 0 262 98t186 278q68 178 63 396q-12 606 -355 606zM606 -20q-226 0 -360 179t-140 482q-4 189 50 359t149 289q95 121 226 191t263 70q255 0 381 -191t130 -456q5 -265 -87 -474t-254 -329t-358 -120z" />
    <glyph glyph-name="Odieresis" unicode="&#xd6;" horiz-adv-x="1352" 
d="M634 1717q-44 -1 -69 29q-26 30 -24 76t38 80q35 36 79 36t70 -28t24 -74q-2 -47 -38 -83t-80 -36zM1054 1717q-44 1 -70 29t-25 74t39 82t81 36t69 -28t24 -74q-2 -47 -38 -83t-80 -36zM784 1454q-144 0 -263 -104t-185 -280q-66 -178 -64 -353q4 -313 87 -476
q82 -163 269 -165q144 0 262 98t186 278q68 178 63 396q-12 606 -355 606zM606 -20q-226 0 -360 179t-140 482q-4 189 50 359t149 289q95 121 226 191t263 70q255 0 381 -191t130 -456q5 -265 -87 -474t-254 -329t-358 -120z" />
    <glyph glyph-name="multiply" unicode="&#xd7;" horiz-adv-x="1370" 
d="M324 326l-83 99l391 340l-307 338l105 98l292 -356l377 360l82 -99l-388 -342l309 -338l-106 -99l-292 357z" />
    <glyph glyph-name="Oslash" unicode="&#xd8;" horiz-adv-x="1353" 
d="M373 219q89 -141 244 -141t273 98t186 278q68 178 62 422t-73 390zM786 1456q-146 0 -264 -104q-119 -104 -185 -280q-66 -178 -63 -398t57 -367l688 1037q-87 112 -233 112zM820 1552q158 0 277 -103l146 212l69 -40l-157 -232q145 -180 151 -498q4 -251 -88 -460
t-253 -329q-162 -120 -356 -120t-322 131l-162 -238l-68 42l177 261q-121 175 -127 465q-4 189 50 359t149 289q95 121 226 191q130 70 288 70z" />
    <glyph glyph-name="Ugrave" unicode="&#xd9;" horiz-adv-x="1396" 
d="M874 1614q-100 57 -199 133t-132 143l106 110l271 -349zM651 69q187 -1 295 137t142 421l119 802l-135 20l9 81h404l-9 -81l-129 -18l-120 -804q-45 -347 -190 -497t-409 -150q-212 0 -329 118t-121 328q-1 74 8 167l125 838l-139 19l10 80h455l-9 -80l-154 -21
l-123 -822q-11 -105 -10 -189q3 -166 81 -258t229 -91z" />
    <glyph glyph-name="Uacute" unicode="&#xda;" horiz-adv-x="1396" 
d="M821 1614l-44 37l282 349l99 -110q-25 -48 -109 -122q-85 -73 -228 -154zM651 69q187 -1 295 137t142 421l119 802l-135 20l9 81h404l-9 -81l-129 -18l-120 -804q-45 -347 -190 -497t-409 -150q-212 0 -329 118t-121 328q-1 74 8 167l125 838l-139 19l10 80h455l-9 -80
l-154 -21l-123 -822q-11 -105 -10 -189q3 -166 81 -258t229 -91z" />
    <glyph glyph-name="Ucircumflex" unicode="&#xdb;" horiz-adv-x="1396" 
d="M547 1619l-50 47l321 334h142l219 -335l-55 -48l-242 256zM651 69q187 -1 295 137t142 421l119 802l-135 20l9 81h404l-9 -81l-129 -18l-120 -804q-45 -347 -190 -497t-409 -150q-212 0 -329 118t-121 328q-1 74 8 167l125 838l-139 19l10 80h455l-9 -80l-154 -21
l-123 -822q-11 -105 -10 -189q3 -166 81 -258t229 -91z" />
    <glyph glyph-name="Udieresis" unicode="&#xdc;" horiz-adv-x="1396" 
d="M631 1717q-43 -1 -69 29t-24 76t38 80q36 36 80 36t69 -28q26 -28 24 -74q-3 -47 -39 -83t-79 -36zM1052 1717q-44 1 -70 29t-26 74q1 46 39 82t81 36t69 -28t24 -74q-2 -47 -38 -83q-35 -36 -79 -36zM651 69q187 -1 295 137t142 421l119 802l-135 20l9 81h404l-9 -81
l-129 -18l-120 -804q-45 -347 -190 -497t-409 -150q-212 0 -329 118t-121 328q-1 74 8 167l125 838l-139 19l10 80h455l-9 -80l-154 -21l-123 -822q-11 -105 -10 -189q3 -166 81 -258t229 -91z" />
    <glyph glyph-name="Yacute" unicode="&#xdd;" horiz-adv-x="1167" 
d="M724 1614l-44 37l282 349l99 -110q-25 -48 -109 -122q-85 -73 -228 -154zM239 0l6 70l213 24l67 492l-339 844l-116 19l8 81h468l-10 -81l-175 -19l220 -608l42 -137l78 137l375 608l-147 19l9 81h412l-12 -81l-113 -18l-547 -845l-67 -492l223 -24l-7 -70h-588z" />
    <glyph glyph-name="Thorn" unicode="&#xde;" horiz-adv-x="1188" 
d="M587 405q210 0 322 116t112 284q-1 109 -32 175q-64 136 -317 137q-84 0 -181 -15l-93 -687q83 -10 189 -10zM724 1213q459 0 459 -384q0 -155 -80 -273q-79 -118 -213 -180t-268 -62t-237 5l-30 -225l156 -24l-7 -70h-466l7 69l149 25l180 1336l-135 19l10 81h445
l-8 -81l-151 -19l-31 -232q115 15 220 15z" />
    <glyph glyph-name="germandbls" unicode="&#xdf;" horiz-adv-x="1170" 
d="M1085 1297q0 -75 -28 -137q-27 -62 -67 -100t-80 -70q-96 -79 -95 -132q0 -52 37 -106t89 -126q37 -60 55 -90t40 -94t21 -140t-59 -154t-152 -122t-176 -43q-152 0 -240 37l21 151q26 -27 94 -55q67 -28 145 -26q78 0 139 48t61 156t-84 249q-135 183 -135 263
q-1 80 43 132q14 16 51 55q79 73 119 143t40 156t-50 141t-132 55t-138 -30t-108 -100q-102 -139 -146 -479l-113 -879h-155l120 927q70 542 378 632q89 26 211 26q122 -1 208 -75t86 -213z" />
    <glyph glyph-name="agrave" unicode="&#xe0;" horiz-adv-x="1138" 
d="M711 1255q-85 53 -213 165t-164 176l121 133l300 -425zM230 421q0 -327 177 -327q71 0 141 44t114 93q44 50 77 105l103 683q-60 45 -162 45t-192 -62q-88 -62 -142 -158q-116 -204 -116 -423zM910 85q23 0 86 59l27 -44q-14 -30 -73 -75t-126 -45q-126 0 -116 137l10 73
q-60 -86 -150 -148t-193 -62q-153 0 -231 112t-78 289t75 353t222 302q147 127 343 127q87 0 193 -36l1 1l118 34l-150 -989q-7 -46 6 -67t36 -21z" />
    <glyph glyph-name="aacute" unicode="&#xe1;" horiz-adv-x="1138" 
d="M654 1255l-43 49l322 425l113 -133q-29 -51 -166 -171t-226 -170zM230 421q0 -327 177 -327q71 0 141 44t114 93q44 50 77 105l103 683q-60 45 -162 45t-192 -62q-88 -62 -142 -158q-116 -204 -116 -423zM910 85q23 0 86 59l27 -44q-14 -30 -73 -75t-126 -45
q-126 0 -116 137l10 73q-60 -86 -150 -148t-193 -62q-153 0 -231 112t-78 289t75 353t222 302q147 127 343 127q87 0 193 -36l1 1l118 34l-150 -989q-7 -46 6 -67t36 -21z" />
    <glyph glyph-name="acircumflex" unicode="&#xe2;" horiz-adv-x="1138" 
d="M399 1228l-46 47l341 375h142l202 -377l-61 -47l-232 297zM230 421q0 -327 177 -327q71 0 141 44t114 93q44 50 77 105l103 683q-60 45 -162 45t-192 -62q-88 -62 -142 -158q-116 -204 -116 -423zM910 85q23 0 86 59l27 -44q-14 -30 -73 -75t-126 -45q-126 0 -116 137
l10 73q-60 -86 -150 -148t-193 -62q-153 0 -231 112t-78 289t75 353t222 302q147 127 343 127q87 0 193 -36l1 1l118 34l-150 -989q-7 -46 6 -67t36 -21z" />
    <glyph glyph-name="atilde" unicode="&#xe3;" horiz-adv-x="1138" 
d="M596 1650q94 0 156 -73t118 -73t92 37t67 82l47 -74q-26 -75 -92 -125t-127 -50t-95 15t-54 37q-21 22 -40 42q-47 52 -99 52q-70 1 -161 -104l-38 69q34 67 101 116t125 49zM230 421q0 -327 177 -327q71 0 141 44t114 93q44 50 77 105l103 683q-60 45 -162 45t-192 -62
q-88 -62 -142 -158q-116 -204 -116 -423zM910 85q23 0 86 59l27 -44q-14 -30 -73 -75t-126 -45q-126 0 -116 137l10 73q-60 -86 -150 -148t-193 -62q-153 0 -231 112t-78 289t75 353t222 302q147 127 343 127q87 0 193 -36l1 1l118 34l-150 -989q-7 -46 6 -67t36 -21z" />
    <glyph glyph-name="adieresis" unicode="&#xe4;" horiz-adv-x="1138" 
d="M512 1406q-44 0 -70 30t-24 76t36 80t80 35t72 -27t24 -74t-38 -84q-36 -36 -80 -36zM933 1406q-45 0 -71 30t-24 76t38 80q34 34 80 35q46 0 72 -27t24 -74q-2 -48 -39 -84q-36 -36 -80 -36zM230 421q0 -327 177 -327q71 0 141 44t114 93q44 50 77 105l103 683
q-60 45 -162 45t-192 -62q-88 -62 -142 -158q-116 -204 -116 -423zM910 85q23 0 86 59l27 -44q-14 -30 -73 -75t-126 -45q-126 0 -116 137l10 73q-60 -86 -150 -148t-193 -62q-153 0 -231 112t-78 289t75 353t222 302q147 127 343 127q87 0 193 -36l1 1l118 34l-150 -989
q-7 -46 6 -67t36 -21z" />
    <glyph glyph-name="aring" unicode="&#xe5;" horiz-adv-x="1138" 
d="M606 1378q50 -56 137 -57q89 -1 147 47t65 145q7 95 -41 147t-134 53q-87 1 -149 -47q-63 -48 -69 -140t44 -148zM803 1778q128 0 198 -66t58 -192q-12 -127 -110 -196q-99 -68 -231 -68q-133 0 -203 70t-58 197q12 126 115 191q103 64 231 64zM230 421q0 -327 177 -327
q71 0 141 44t114 93q44 50 77 105l103 683q-60 45 -162 45t-192 -62q-88 -62 -142 -158q-116 -204 -116 -423zM910 85q23 0 86 59l27 -44q-14 -30 -73 -75t-126 -45q-126 0 -116 137l10 73q-60 -86 -150 -148t-193 -62q-153 0 -231 112t-78 289t75 353t222 302
q147 127 343 127q87 0 193 -36l1 1l118 34l-150 -989q-7 -46 6 -67t36 -21z" />
    <glyph glyph-name="ae" unicode="&#xe6;" horiz-adv-x="1704" 
d="M392 94q174 0 318 215q34 50 56 100v28q1 117 36 235l59 339q-61 53 -159 53t-174 -42q-137 -77 -216 -258t-79 -358q0 -312 159 -312zM1457 899q0 170 -151 170q-78 1 -146 -49t-113 -128q-93 -160 -110 -335q176 6 339 93q79 42 130 108t51 141zM73 396q0 205 115 416
q114 211 302 300q106 50 217 50t222 -43l10 9l98 34l-38 -149q154 149 344 149q137 0 207 -70t71 -182q0 -75 -37 -141q-37 -67 -98 -113q-129 -98 -289 -142q-160 -45 -264 -47q-24 -375 223 -375q90 0 189 40t184 122l38 -68q-55 -74 -174 -140t-264 -66t-234 77t-116 216
q-57 -109 -162 -201t-261 -92q-283 0 -283 416z" />
    <glyph glyph-name="ccedilla" unicode="&#xe7;" horiz-adv-x="897" 
d="M456 -406q-64 -58 -173 -58t-146 28l28 105q32 -17 96 -17q65 0 111 51t53 141t-2 136h-2q-165 0 -257 120t-93 331q0 211 101 409t271 278q95 44 177 45q150 0 246 -48l-41 -147q-42 36 -101 56t-114 21q-160 0 -266 -167t-106 -425q0 -177 60 -269t167 -92q80 0 142 30
t149 95l32 -66q-112 -128 -271 -161q24 -69 13 -203q-10 -135 -74 -193z" />
    <glyph glyph-name="egrave" unicode="&#xe8;" horiz-adv-x="1025" 
d="M634 1255q-84 53 -212 165t-165 176l121 133l300 -425zM776 902q0 80 -41 124t-117 43q-76 1 -144 -49t-112 -128q-91 -159 -108 -335q178 5 342 93q78 42 129 108q51 64 51 144zM647 1163q149 1 221 -69t72 -181q0 -75 -37 -141t-98 -114q-130 -99 -289 -144t-266 -47
q-12 -130 38 -244q26 -59 78 -95t126 -36q179 0 341 162l38 -68q-55 -76 -161 -141t-214 -65q-106 0 -174 26q-124 48 -184 166t-55 286t79 334t206 268t279 103z" />
    <glyph glyph-name="eacute" unicode="&#xe9;" horiz-adv-x="1025" 
d="M577 1255l-43 49l322 425l113 -133q-29 -51 -166 -171t-226 -170zM776 902q0 80 -41 124t-117 43q-76 1 -144 -49t-112 -128q-91 -159 -108 -335q178 5 342 93q78 42 129 108q51 64 51 144zM647 1163q149 1 221 -69t72 -181q0 -75 -37 -141t-98 -114q-130 -99 -289 -144
t-266 -47q-12 -130 38 -244q26 -59 78 -95t126 -36q179 0 341 162l38 -68q-55 -76 -161 -141t-214 -65q-106 0 -174 26q-124 48 -184 166t-55 286t79 334t206 268t279 103z" />
    <glyph glyph-name="ecircumflex" unicode="&#xea;" horiz-adv-x="1025" 
d="M322 1228l-46 47l341 375h142l202 -377l-61 -47l-232 297zM776 902q0 80 -41 124t-117 43q-76 1 -144 -49t-112 -128q-91 -159 -108 -335q178 5 342 93q78 42 129 108q51 64 51 144zM647 1163q149 1 221 -69t72 -181q0 -75 -37 -141t-98 -114q-130 -99 -289 -144
t-266 -47q-12 -130 38 -244q26 -59 78 -95t126 -36q179 0 341 162l38 -68q-55 -76 -161 -141t-214 -65q-106 0 -174 26q-124 48 -184 166t-55 286t79 334t206 268t279 103z" />
    <glyph glyph-name="edieresis" unicode="&#xeb;" horiz-adv-x="1025" 
d="M435 1406q-45 0 -71 30t-24 76t38 80q34 34 79 35t71 -27t25 -74q-2 -46 -38 -84q-36 -36 -80 -36zM856 1406q-44 0 -70 30t-24 76t36 80t80 35q46 0 72 -27t24 -74q-2 -48 -38 -84t-80 -36zM776 902q0 80 -41 124t-117 43q-76 1 -144 -49t-112 -128q-91 -159 -108 -335
q178 5 342 93q78 42 129 108q51 64 51 144zM647 1163q149 1 221 -69t72 -181q0 -75 -37 -141t-98 -114q-130 -99 -289 -144t-266 -47q-12 -130 38 -244q26 -59 78 -95t126 -36q179 0 341 162l38 -68q-55 -76 -161 -141t-214 -65q-106 0 -174 26q-124 48 -184 166t-55 286
t79 334t206 268t279 103z" />
    <glyph glyph-name="igrave" unicode="&#xec;" horiz-adv-x="625" 
d="M401 1255q-85 53 -213 165t-164 176l121 133l300 -425zM348 85q40 0 108 71l27 -44q-25 -40 -85 -86t-133 -46q-120 0 -109 119q7 99 62 470q56 370 67 447l-137 40l14 65l258 42l41 -21l-141 -984q-4 -35 4 -54t24 -19z" />
    <glyph glyph-name="iacute" unicode="&#xed;" horiz-adv-x="625" 
d="M344 1255l-43 49l322 425l113 -133q-29 -51 -166 -171t-226 -170zM348 85q40 0 108 71l27 -44q-25 -40 -85 -86t-133 -46q-120 0 -109 119q7 99 62 470q56 370 67 447l-137 40l14 65l258 42l41 -21l-141 -984q-4 -35 4 -54t24 -19z" />
    <glyph glyph-name="icircumflex" unicode="&#xee;" horiz-adv-x="625" 
d="M89 1228l-46 47l341 375h142l202 -377l-61 -47l-232 297zM348 85q40 0 108 71l27 -44q-25 -40 -85 -86t-133 -46q-120 0 -109 119q7 99 62 470q56 370 67 447l-137 40l14 65l258 42l41 -21l-141 -984q-4 -35 4 -54t24 -19z" />
    <glyph glyph-name="idieresis" unicode="&#xef;" horiz-adv-x="625" 
d="M202 1406q-44 0 -70 30t-24 76t36 80t80 35t72 -27t24 -74t-38 -84q-36 -36 -80 -36zM623 1406q-45 0 -71 30t-24 76t38 80q34 34 80 35q46 0 72 -27t24 -74q-2 -48 -39 -84q-36 -36 -80 -36zM348 85q40 0 108 71l27 -44q-25 -40 -85 -86t-133 -46q-120 0 -109 119
q7 99 62 470q56 370 67 447l-137 40l14 65l258 42l41 -21l-141 -984q-4 -35 4 -54t24 -19z" />
    <glyph glyph-name="eth" unicode="&#xf0;" horiz-adv-x="1134" 
d="M254 421q0 -105 24 -181t77 -124q54 -49 140 -49q86 -1 167 71q164 145 207 428q21 140 17 189t-14 77q-23 69 -82 128q-60 60 -156 60t-168 -52q-73 -52 -118 -140q-46 -86 -70 -194t-24 -213zM1053 816q0 -274 -101 -490q-101 -218 -280 -302q-95 -44 -199 -44
q-202 0 -295 134q-92 134 -92 299q0 163 46 295t122 218t174 136q98 48 192 48t172 -36q76 -36 111 -98q-35 162 -83 266t-143 189l-151 -174l-86 71l153 170q-146 107 -248 130l36 97q115 -29 289 -140q67 72 132 155l26 31l83 -74q-102 -115 -154 -173q296 -237 296 -708z
" />
    <glyph glyph-name="ntilde" unicode="&#xf1;" horiz-adv-x="1253" 
d="M588 1650q94 0 156 -73t118 -73t92 37t67 82l47 -74q-26 -75 -92 -125t-127 -50t-95 15t-54 37q-21 22 -40 42q-47 52 -99 52q-70 1 -161 -104l-38 69q34 67 101 116t125 49zM836 1163q114 0 172 -68t58 -227q0 -81 -49 -341q-49 -261 -54 -351q-5 -91 21 -91q37 0 97 54
l26 -44q-19 -31 -79 -73t-128 -43q-112 0 -105 117q4 89 45 311q42 221 54 299t12 166t-30 126t-113 39q-82 1 -197 -85t-198 -207l-99 -745h-155l133 1002l-98 47l14 72l211 42l40 -20l-27 -257q91 118 213 198t236 79z" />
    <glyph glyph-name="ograve" unicode="&#xf2;" horiz-adv-x="1123" 
d="M660 1255q-84 53 -212 165t-165 176l121 133l300 -425zM615 1065q-73 0 -135 -39q-110 -69 -171 -239t-58 -345q6 -364 250 -364q89 0 162 58t116 152q90 195 87 391q-2 196 -64 291t-187 95zM644 1163q187 1 285 -119t102 -341q2 -135 -38 -265t-112 -232t-179 -164
t-229 -62q-187 0 -285 119t-101 342q-4 223 99 415q104 192 271 267q89 40 187 40z" />
    <glyph glyph-name="oacute" unicode="&#xf3;" horiz-adv-x="1123" 
d="M603 1255l-43 49l322 425l113 -133q-29 -51 -166 -171t-226 -170zM615 1065q-73 0 -135 -39q-110 -69 -171 -239t-58 -345q6 -364 250 -364q89 0 162 58t116 152q90 195 87 391q-2 196 -64 291t-187 95zM644 1163q187 1 285 -119t102 -341q2 -135 -38 -265t-112 -232
t-179 -164t-229 -62q-187 0 -285 119t-101 342q-4 223 99 415q104 192 271 267q89 40 187 40z" />
    <glyph glyph-name="ocircumflex" unicode="&#xf4;" horiz-adv-x="1123" 
d="M348 1228l-46 47l341 375h142l202 -377l-61 -47l-232 297zM615 1065q-73 0 -135 -39q-110 -69 -171 -239t-58 -345q6 -364 250 -364q89 0 162 58t116 152q90 195 87 391q-2 196 -64 291t-187 95zM644 1163q187 1 285 -119t102 -341q2 -135 -38 -265t-112 -232t-179 -164
t-229 -62q-187 0 -285 119t-101 342q-4 223 99 415q104 192 271 267q89 40 187 40z" />
    <glyph glyph-name="otilde" unicode="&#xf5;" horiz-adv-x="1123" 
d="M545 1650q94 0 156 -73t118 -73t92 37t67 82l47 -74q-25 -75 -91 -125t-128 -50q-60 0 -94 15t-55 37t-40 42q-47 52 -99 52q-70 1 -161 -104l-38 69q34 67 101 116t125 49zM615 1065q-73 0 -135 -39q-110 -69 -171 -239t-58 -345q6 -364 250 -364q89 0 162 58t116 152
q90 195 87 391q-2 196 -64 291t-187 95zM644 1163q187 1 285 -119t102 -341q2 -135 -38 -265t-112 -232t-179 -164t-229 -62q-187 0 -285 119t-101 342q-4 223 99 415q104 192 271 267q89 40 187 40z" />
    <glyph glyph-name="odieresis" unicode="&#xf6;" horiz-adv-x="1123" 
d="M461 1406q-45 0 -71 30t-24 76t38 80q34 34 79 35t71 -27t25 -74q-2 -46 -38 -84q-36 -36 -80 -36zM882 1406q-44 0 -70 30t-24 76t36 80t80 35q46 0 72 -27t24 -74q-2 -48 -38 -84t-80 -36zM615 1065q-73 0 -135 -39q-110 -69 -171 -239t-58 -345q6 -364 250 -364
q89 0 162 58t116 152q90 195 87 391q-2 196 -64 291t-187 95zM644 1163q187 1 285 -119t102 -341q2 -135 -38 -265t-112 -232t-179 -164t-229 -62q-187 0 -285 119t-101 342q-4 223 99 415q104 192 271 267q89 40 187 40z" />
    <glyph glyph-name="divide" unicode="&#xf7;" horiz-adv-x="1370" 
d="M700 501q50 -1 74 -29t18 -79t-48 -85t-89 -35q-47 0 -75 28t-23 79q6 51 49 86t94 35zM272 712l14 125h869l-14 -125h-869zM748 1046q-46 0 -75 28t-23 80q6 50 50 85t94 35t74 -28t18 -80t-48 -86q-44 -34 -90 -34z" />
    <glyph glyph-name="oslash" unicode="&#xf8;" horiz-adv-x="1122" 
d="M488 80q102 0 175 58t116 152q90 195 86 413q-3 144 -44 232l-498 -771q63 -84 165 -84zM626 1067q-84 0 -146 -39q-110 -69 -171 -239t-58 -316q3 -147 29 -226l491 761q-61 59 -145 59zM656 1165q110 0 196 -53l130 187l72 -40l-139 -199q111 -117 116 -355
q2 -135 -38 -265t-112 -232t-179 -164t-240 -62t-224 71l-125 -180l-72 40l138 199q-89 118 -93 336t98 405q168 312 472 312z" />
    <glyph glyph-name="ugrave" unicode="&#xf9;" horiz-adv-x="1204" 
d="M669 1255q-85 53 -213 165t-164 176l121 133l300 -425zM321 253q0 -163 156 -163q79 0 167 56t148 133l115 876h155l-130 -996q-10 -72 24 -72q41 0 111 71l26 -45q-21 -35 -86 -83t-129 -48t-90 36q-25 36 -12 101q1 8 3 50q-167 -189 -368 -189q-120 0 -183 62t-63 212
q0 86 36 352l54 396l-97 47l14 71l210 43l40 -21l-69 -543q-3 -27 -11 -83q-21 -147 -21 -263z" />
    <glyph glyph-name="uacute" unicode="&#xfa;" horiz-adv-x="1204" 
d="M612 1255l-43 49l322 425l113 -133q-29 -51 -166 -171t-226 -170zM321 253q0 -163 156 -163q79 0 167 56t148 133l115 876h155l-130 -996q-10 -72 24 -72q41 0 111 71l26 -45q-21 -35 -86 -83t-129 -48t-90 36q-25 36 -12 101q1 8 3 50q-167 -189 -368 -189
q-120 0 -183 62t-63 212q0 86 36 352l54 396l-97 47l14 71l210 43l40 -21l-69 -543q-3 -27 -11 -83q-21 -147 -21 -263z" />
    <glyph glyph-name="ucircumflex" unicode="&#xfb;" horiz-adv-x="1204" 
d="M357 1228l-46 47l341 375h142l202 -377l-61 -47l-232 297zM321 253q0 -163 156 -163q79 0 167 56t148 133l115 876h155l-130 -996q-10 -72 24 -72q41 0 111 71l26 -45q-21 -35 -86 -83t-129 -48t-90 36q-25 36 -12 101q1 8 3 50q-167 -189 -368 -189q-120 0 -183 62
t-63 212q0 86 36 352l54 396l-97 47l14 71l210 43l40 -21l-69 -543q-3 -27 -11 -83q-21 -147 -21 -263z" />
    <glyph glyph-name="udieresis" unicode="&#xfc;" horiz-adv-x="1204" 
d="M470 1406q-44 0 -70 30t-24 76t36 80t80 35t72 -27t24 -74t-38 -84q-36 -36 -80 -36zM891 1406q-45 0 -71 30t-24 76t38 80q34 34 80 35q46 0 72 -27t24 -74q-2 -48 -39 -84q-36 -36 -80 -36zM321 253q0 -163 156 -163q79 0 167 56t148 133l115 876h155l-130 -996
q-10 -72 24 -72q41 0 111 71l26 -45q-21 -35 -86 -83t-129 -48t-90 36q-25 36 -12 101q1 8 3 50q-167 -189 -368 -189q-120 0 -183 62t-63 212q0 86 36 352l54 396l-97 47l14 71l210 43l40 -21l-69 -543q-3 -27 -11 -83q-21 -147 -21 -263z" />
    <glyph glyph-name="yacute" unicode="&#xfd;" horiz-adv-x="1051" 
d="M542 1255l-43 49l322 425l113 -133q-29 -51 -166 -171t-226 -170zM895 1162q110 0 110 -180q1 -80 -17 -141q-18 -62 -28 -96t-31 -85l-33 -78q-12 -26 -40 -82l-36 -72t-40 -74q-31 -58 -34 -64q-226 -450 -367 -619q-48 -68 -137 -122q-88 -54 -192 -54t-193 29l37 127
q5 -5 38 -16q34 -11 61 -17t75 -6q46 0 102 28t119 101q63 72 113 180h-50l-180 1058q-17 70 -48 70q-30 0 -89 -56l-24 49q17 32 75 76t120 45q62 -1 88 -33q24 -32 37 -104l101 -768l26 -281q200 369 310 634q64 153 81 313q5 41 -13 90t-18 77q0 27 21 49t56 22z" />
    <glyph glyph-name="thorn" unicode="&#xfe;" horiz-adv-x="1147" 
d="M434 78q102 0 177 42q133 74 208 249t75 340q0 167 -53 253t-151 86t-191 -72q-92 -72 -137 -150l-90 -696q60 -52 162 -52zM718 1163q168 -1 254 -119t86 -296t-74 -349q-74 -172 -218 -296q-145 -123 -342 -123q-76 0 -169 25l-72 -525h-153l69 515l195 1521l-95 34
l16 68l209 32l43 -23l-86 -659q57 80 145 138t192 57z" />
    <glyph glyph-name="ydieresis" unicode="&#xff;" horiz-adv-x="1051" 
d="M400 1406q-44 0 -70 30t-24 76t36 80t80 35t72 -27t24 -74t-38 -84q-36 -36 -80 -36zM821 1406q-45 0 -71 30t-24 76t38 80q34 34 80 35q46 0 72 -27t24 -74q-2 -48 -39 -84q-36 -36 -80 -36zM895 1162q110 0 110 -180q1 -80 -17 -141q-18 -62 -28 -96t-31 -85l-33 -78
q-12 -26 -40 -82l-36 -72t-40 -74q-31 -58 -34 -64q-226 -450 -367 -619q-48 -68 -137 -122q-88 -54 -192 -54t-193 29l37 127q5 -5 38 -16q34 -11 61 -17t75 -6q46 0 102 28t119 101q63 72 113 180h-50l-180 1058q-17 70 -48 70q-30 0 -89 -56l-24 49q17 32 75 76t120 45
q62 -1 88 -33q24 -32 37 -104l101 -768l26 -281q200 369 310 634q64 153 81 313q5 41 -13 90t-18 77q0 27 21 49t56 22z" />
    <glyph glyph-name="Amacron" unicode="&#x100;" horiz-adv-x="1264" 
d="M529 1745l4 119h510l-5 -119h-509zM367 547h538l-124 856zM4 93l722 1437h167l235 -1434l167 -27l-6 -69h-488l5 69l165 24l-52 356h-600l-171 -355l173 -25l-5 -69h-464l8 69z" />
    <glyph glyph-name="amacron" unicode="&#x101;" horiz-adv-x="1138" 
d="M446 1432l4 119h510l-5 -119h-509zM230 421q0 -327 177 -327q71 0 141 44t114 93q44 50 77 105l103 683q-60 45 -162 45t-192 -62q-88 -62 -142 -158q-116 -204 -116 -423zM910 85q23 0 86 59l27 -44q-14 -30 -73 -75t-126 -45q-126 0 -116 137l10 73q-60 -86 -150 -148
t-193 -62q-153 0 -231 112t-78 289t75 353t222 302q147 127 343 127q87 0 193 -36l1 1l118 34l-150 -989q-7 -46 6 -67t36 -21z" />
    <glyph glyph-name="Abreve" unicode="&#x102;" horiz-adv-x="1264" 
d="M792 1635q-126 -1 -204 97t-79 227q0 14 1 20h85q0 -94 58 -161q58 -66 149 -66q142 0 218 158q18 36 24 69h82q1 -14 -2 -32q-13 -116 -109 -214q-97 -98 -223 -98zM367 547h538l-124 856zM4 93l722 1437h167l235 -1434l167 -27l-6 -69h-488l5 69l165 24l-52 356h-600
l-171 -355l173 -25l-5 -69h-464l8 69z" />
    <glyph glyph-name="abreve" unicode="&#x103;" horiz-adv-x="1138" 
d="M710 1304q-126 0 -204 98t-79 226q0 15 1 20h85q0 -60 26 -112q57 -114 190 -114t209 158q18 36 24 69h82q1 -15 -2 -32q-13 -117 -109 -215q-97 -98 -223 -98zM230 421q0 -327 177 -327q71 0 141 44t114 93q44 50 77 105l103 683q-60 45 -162 45t-192 -62
q-88 -62 -142 -158q-116 -204 -116 -423zM910 85q23 0 86 59l27 -44q-14 -30 -73 -75t-126 -45q-126 0 -116 137l10 73q-60 -86 -150 -148t-193 -62q-153 0 -231 112t-78 289t75 353t222 302q147 127 343 127q87 0 193 -36l1 1l118 34l-150 -989q-7 -46 6 -67t36 -21z" />
    <glyph glyph-name="Aogonek" unicode="&#x104;" horiz-adv-x="1264" 
d="M367 547h538l-124 856zM1053 0v-38q-79 -72 -115 -120t-23 -84t41 -47q28 -10 52 -2q50 0 103 42q-3 -3 -11 -49t-23 -45q-110 -62 -223 -51q-58 5 -88 42t-27 81q22 81 100 149q44 57 80 79q36 21 75 43h-193l5 69l165 24l-52 356h-600l-171 -355l173 -25l-5 -69h-464
l8 69l144 24l722 1437h167l235 -1434l167 -27l-6 -69h-236z" />
    <glyph glyph-name="aogonek" unicode="&#x105;" horiz-adv-x="1138" 
d="M230 421q0 -327 177 -327q71 0 141 44t114 93q44 50 77 105l103 683q-60 45 -162 45t-192 -62q-88 -62 -142 -158q-116 -204 -116 -423zM910 85q23 0 86 59l27 -44q-17 -34 -69 -72q-123 -91 -160 -125q-74 -71 -76 -121q-3 -94 65 -95q73 0 154 68l22 -77
q-106 -94 -250 -94q-73 0 -111 40t-36 98q6 135 228 261q-90 18 -82 134l10 73q-60 -86 -150 -148t-193 -62q-153 0 -231 112t-78 289t75 353t222 302q147 127 343 127q87 0 193 -36l1 1l118 34l-150 -989q-7 -46 6 -67t36 -21z" />
    <glyph glyph-name="Cacute" unicode="&#x106;" horiz-adv-x="1251" 
d="M791 1614l-44 37l282 349l99 -110q-25 -48 -109 -122q-85 -73 -228 -154zM566 -16q-76 0 -160 38q-154 70 -232 238q-77 167 -80 334q-2 167 24 291t76 224q103 207 275 322q173 115 360 115t362 -48l47 -13l-68 -363h-94l-4 275q-92 53 -252 53q-264 0 -428 -273
q-87 -145 -119 -349q-31 -204 11 -396q78 -352 347 -353q84 1 169 27t122 73q0 5 30 107t32 116l98 -1l-40 -331q-165 -55 -230 -65q-65 -11 -117 -16q-53 -5 -129 -5z" />
    <glyph glyph-name="cacute" unicode="&#x107;" horiz-adv-x="897" 
d="M594 1255l-43 49l322 425l113 -133q-29 -51 -166 -171t-226 -170zM164 100q-92 120 -93 331q0 211 101 409t271 278q95 44 177 45q150 0 246 -48l-41 -147q-42 36 -101 56t-114 21q-160 0 -266 -167t-106 -425q0 -177 60 -269t167 -92q80 0 142 30t149 95l32 -66
q-151 -171 -367 -171q-165 0 -257 120z" />
    <glyph glyph-name="Ccircumflex" unicode="&#x108;" horiz-adv-x="1251" 
d="M517 1619l-50 47l321 334h142l219 -335l-55 -48l-242 256zM566 -16q-76 0 -160 38q-154 70 -232 238q-77 167 -80 334q-2 167 24 291t76 224q103 207 275 322q173 115 360 115t362 -48l47 -13l-68 -363h-94l-4 275q-92 53 -252 53q-264 0 -428 -273q-87 -145 -119 -349
q-31 -204 11 -396q78 -352 347 -353q84 1 169 27t122 73q0 5 30 107t32 116l98 -1l-40 -331q-165 -55 -230 -65q-65 -11 -117 -16q-53 -5 -129 -5z" />
    <glyph glyph-name="ccircumflex" unicode="&#x109;" horiz-adv-x="897" 
d="M339 1228l-46 47l341 375h142l202 -377l-61 -47l-232 297zM164 100q-92 120 -93 331q0 211 101 409t271 278q95 44 177 45q150 0 246 -48l-41 -147q-42 36 -101 56t-114 21q-160 0 -266 -167t-106 -425q0 -177 60 -269t167 -92q80 0 142 30t149 95l32 -66
q-151 -171 -367 -171q-165 0 -257 120z" />
    <glyph glyph-name="Cdotaccent" unicode="&#x10a;" horiz-adv-x="1251" 
d="M812 1701q-43 -1 -70 29q-26 30 -24 76t38 80q36 36 80 36q43 0 70 -28q26 -28 24 -74q-2 -47 -38 -83t-80 -36zM566 -16q-76 0 -160 38q-154 70 -232 238q-77 167 -80 334q-2 167 24 291t76 224q103 207 275 322q173 115 360 115t362 -48l47 -13l-68 -363h-94l-4 275
q-92 53 -252 53q-264 0 -428 -273q-87 -145 -119 -349q-31 -204 11 -396q78 -352 347 -353q84 1 169 27t122 73q0 5 30 107t32 116l98 -1l-40 -331q-165 -55 -230 -65q-65 -11 -117 -16q-53 -5 -129 -5z" />
    <glyph glyph-name="cdotaccent" unicode="&#x10b;" horiz-adv-x="897" 
d="M668 1421q-44 0 -71 29t-25 75q2 45 40 81q36 36 80 36t69 -28t23 -74q-2 -47 -38 -83q-34 -36 -78 -36zM164 100q-92 120 -93 331q0 211 101 409t271 278q95 44 177 45q150 0 246 -48l-41 -147q-42 36 -101 56t-114 21q-160 0 -266 -167t-106 -425q0 -177 60 -269
t167 -92q80 0 142 30t149 95l32 -66q-151 -171 -367 -171q-165 0 -257 120z" />
    <glyph glyph-name="Ccaron" unicode="&#x10c;" horiz-adv-x="1251" 
d="M719 1614l-222 339l53 47l242 -264l323 264l50 -46l-305 -340h-141zM566 -16q-76 0 -160 38q-154 70 -232 238q-77 167 -80 334q-2 167 24 291t76 224q103 207 275 322q173 115 360 115t362 -48l47 -13l-68 -363h-94l-4 275q-92 53 -252 53q-264 0 -428 -273
q-87 -145 -119 -349q-31 -204 11 -396q78 -352 347 -353q84 1 169 27t122 73q0 5 30 107t32 116l98 -1l-40 -331q-165 -55 -230 -65q-65 -11 -117 -16q-53 -5 -129 -5z" />
    <glyph glyph-name="ccaron" unicode="&#x10d;" horiz-adv-x="897" 
d="M652 1377q293 239 334 273l50 -46l-316 -349h-142l-226 348l54 47zM164 100q-92 120 -93 331q0 211 101 409t271 278q95 44 177 45q150 0 246 -48l-41 -147q-42 36 -101 56t-114 21q-160 0 -266 -167t-106 -425q0 -177 60 -269t167 -92q80 0 142 30t149 95l32 -66
q-151 -171 -367 -171q-165 0 -257 120z" />
    <glyph glyph-name="Dcaron" unicode="&#x10e;" horiz-adv-x="1426" 
d="M726 1614l-222 339l53 47l242 -264l323 264l50 -46l-305 -340h-141zM760 1452q-99 0 -226 -19l-180 -1328l1 1q140 -27 276 -27q116 6 213 56q178 92 274 306q95 214 91 482q-3 269 -113 399t-336 130zM266 0h-227l7 69l147 25l181 1336l-132 19l10 81h232l321 16
q422 0 531 -368q33 -112 35 -254q5 -264 -93 -480t-280 -341t-412 -119q-64 2 -139 9t-181 7z" />
    <glyph glyph-name="dcaron" unicode="&#x10f;" horiz-adv-x="1416" 
d="M1272 1022l-49 24l-5 20q96 272 70 436q-10 60 -25 84l15 34l124 37q47 -51 31 -202q-29 -272 -161 -433zM436 94q94 0 182 62t140 140l109 716q-63 53 -163 53t-176 -42q-136 -75 -212 -251t-76 -340t50 -251q52 -87 146 -87zM404 -20q-106 0 -182 56q-146 109 -146 376
q0 201 114 408q114 206 304 294q105 48 201 49q96 0 190 -27l58 379l-128 33l17 67l239 35l44 -23l-214 -1469q-16 -140 119 -18l27 -44q-23 -34 -80 -75t-124 -41q-110 0 -104 122q0 37 1 56q-58 -74 -144 -126t-192 -52z" />
    <glyph glyph-name="Dcroat" unicode="&#x110;" horiz-adv-x="1426" 
d="M760 1454q-99 0 -226 -19l-82 -599h417l-13 -105h-418l-84 -624l1 1q140 -27 276 -27q116 6 213 56q178 92 274 306q95 214 91 482q-3 269 -113 399t-336 130zM266 2h-227l7 69l147 25l86 635h-162l13 105h163l81 596l-132 19l10 81h232l321 16q422 0 531 -368
q33 -112 35 -254q5 -264 -93 -480t-280 -341t-412 -119q-64 2 -139 9t-181 7z" />
    <glyph glyph-name="dcroat" unicode="&#x111;" horiz-adv-x="1170" 
d="M436 94q94 0 182 62t140 140l109 716q-63 53 -163 53t-176 -42q-136 -75 -212 -251t-76 -340t50 -251q52 -87 146 -87zM404 -20q-106 0 -182 56q-146 109 -146 376q0 201 114 408q114 206 304 294q105 48 201 49q96 0 190 -27l23 151h-280l13 105h283l19 123l-128 33
l17 67l239 35l44 -23l-34 -235h142l-13 -105h-145l-164 -1129q-16 -140 119 -18l27 -44q-23 -34 -80 -75t-124 -41q-110 0 -104 122q0 37 1 56q-58 -74 -144 -126t-192 -52z" />
    <glyph glyph-name="Emacron" unicode="&#x112;" horiz-adv-x="1210" 
d="M507 1745l4 119h510l-5 -119h-509zM38 0l8 69l147 24l180 1337l-132 19l10 81h911l-7 -310h-86l-36 207l-497 16l-80 -603l466 6l-10 -125l-471 13l-88 -640l608 19l113 228l84 -25l-89 -316h-1031z" />
    <glyph glyph-name="emacron" unicode="&#x113;" horiz-adv-x="1025" 
d="M369 1432l4 119h510l-5 -119h-509zM776 902q0 80 -41 124t-117 43q-76 1 -144 -49t-112 -128q-91 -159 -108 -335q178 5 342 93q78 42 129 108q51 64 51 144zM647 1163q149 1 221 -69t72 -181q0 -75 -37 -141t-98 -114q-130 -99 -289 -144t-266 -47q-12 -130 38 -244
q26 -59 78 -95t126 -36q179 0 341 162l38 -68q-55 -76 -161 -141t-214 -65q-106 0 -174 26q-124 48 -184 166t-55 286t79 334t206 268t279 103z" />
    <glyph glyph-name="Ebreve" unicode="&#x114;" horiz-adv-x="1210" 
d="M770 1635q-126 -1 -204 97t-79 227q0 14 1 20h85q0 -94 58 -161q58 -66 149 -66q142 0 218 158q18 36 24 69h82q1 -14 -2 -32q-13 -116 -109 -214q-97 -98 -223 -98zM38 0l8 69l147 24l180 1337l-132 19l10 81h911l-7 -310h-86l-36 207l-497 16l-80 -603l466 6l-10 -125
l-471 13l-88 -640l608 19l113 228l84 -25l-89 -316h-1031z" />
    <glyph glyph-name="ebreve" unicode="&#x115;" horiz-adv-x="1025" 
d="M634 1304q-126 0 -206 98q-78 98 -78 226q0 15 1 20h85q0 -60 26 -112q57 -114 190 -114q132 0 208 158q18 36 25 69h82q1 -15 -2 -32q-13 -117 -109 -215t-222 -98zM776 902q0 80 -41 124t-117 43q-76 1 -144 -49t-112 -128q-91 -159 -108 -335q178 5 342 93
q78 42 129 108q51 64 51 144zM647 1163q149 1 221 -69t72 -181q0 -75 -37 -141t-98 -114q-130 -99 -289 -144t-266 -47q-12 -130 38 -244q26 -59 78 -95t126 -36q179 0 341 162l38 -68q-55 -76 -161 -141t-214 -65q-106 0 -174 26q-124 48 -184 166t-55 286t79 334t206 268
t279 103z" />
    <glyph glyph-name="Edotaccent" unicode="&#x116;" horiz-adv-x="1210" 
d="M780 1701q-43 -1 -70 29q-26 30 -24 76t38 80q36 36 80 36q43 0 70 -28q26 -28 24 -74q-2 -47 -38 -83t-80 -36zM38 0l8 69l147 24l180 1337l-132 19l10 81h911l-7 -310h-86l-36 207l-497 16l-80 -603l466 6l-10 -125l-471 13l-88 -640l608 19l113 228l84 -25l-89 -316
h-1031z" />
    <glyph glyph-name="edotaccent" unicode="&#x117;" horiz-adv-x="1025" 
d="M650 1421q-44 0 -70 29t-24 75q2 45 38 81t80 36t70 -28t24 -74q-2 -47 -38 -83t-80 -36zM776 902q0 80 -41 124t-117 43q-76 1 -144 -49t-112 -128q-91 -159 -108 -335q178 5 342 93q78 42 129 108q51 64 51 144zM647 1163q149 1 221 -69t72 -181q0 -75 -37 -141
t-98 -114q-130 -99 -289 -144t-266 -47q-12 -130 38 -244q26 -59 78 -95t126 -36q179 0 341 162l38 -68q-55 -76 -161 -141t-214 -65q-106 0 -174 26q-124 48 -184 166t-55 286t79 334t206 268t279 103z" />
    <glyph glyph-name="Eogonek" unicode="&#x118;" horiz-adv-x="1210" 
d="M858 -313q72 0 155 68l21 -77q-106 -94 -250 -94q-74 0 -112 40t-34 98q2 59 34 102q32 44 74 80q43 36 68 51t78 45h-854l8 69l147 24l180 1337l-132 19l10 81h911l-7 -310h-86l-36 207l-497 16l-80 -603l466 6l-10 -125l-471 13l-88 -640l608 19l113 228l84 -25
l-89 -316h-81q-90 -67 -142 -120q-52 -52 -54 -100t18 -70q19 -22 48 -23z" />
    <glyph glyph-name="eogonek" unicode="&#x119;" horiz-adv-x="1025" 
d="M776 902q0 80 -41 124t-117 43q-76 1 -144 -49t-112 -128q-91 -159 -108 -335q178 5 342 93q78 42 129 108q51 64 51 144zM460 -20q-70 0 -138 26q-124 48 -184 166t-55 286t79 334t206 268t279 103q149 1 221 -69t72 -181q0 -75 -37 -141t-98 -114q-130 -99 -289 -144
t-266 -47q-12 -130 38 -244q26 -59 78 -95t126 -36q179 0 341 162l38 -68q-17 -23 -51 -56q-34 -34 -62 -53q-96 -79 -169 -163t-74 -130q-1 -48 17 -70t49 -22q74 0 154 67l22 -77q-106 -94 -250 -94q-73 0 -111 40t-36 98q2 59 32 100q63 87 197 170q-59 -16 -129 -16z
" />
    <glyph glyph-name="Ecaron" unicode="&#x11a;" horiz-adv-x="1210" 
d="M687 1614l-222 339l53 47l242 -264l323 264l50 -46l-305 -340h-141zM38 0l8 69l147 24l180 1337l-132 19l10 81h911l-7 -310h-86l-36 207l-497 16l-80 -603l466 6l-10 -125l-471 13l-88 -640l608 19l113 228l84 -25l-89 -316h-1031z" />
    <glyph glyph-name="ecaron" unicode="&#x11b;" horiz-adv-x="1025" 
d="M635 1377q293 239 334 273l50 -46l-316 -349h-142l-226 348l54 47zM776 902q0 80 -41 124t-117 43q-76 1 -144 -49t-112 -128q-91 -159 -108 -335q178 5 342 93q78 42 129 108q51 64 51 144zM647 1163q149 1 221 -69t72 -181q0 -75 -37 -141t-98 -114q-130 -99 -289 -144
t-266 -47q-12 -130 38 -244q26 -59 78 -95t126 -36q179 0 341 162l38 -68q-55 -76 -161 -141t-214 -65q-106 0 -174 26q-124 48 -184 166t-55 286t79 334t206 268t279 103z" />
    <glyph glyph-name="Gcircumflex" unicode="&#x11c;" horiz-adv-x="1361" 
d="M550 1619l-50 47l321 334h142l219 -335l-55 -48l-242 256zM870 1546q186 0 378 -56l38 -11l-57 -296h-102l-7 202q-94 66 -291 66q-238 0 -389 -203q-127 -171 -159 -444q-31 -273 49 -478q99 -249 329 -249q85 1 181 27t149 74l67 438l-270 14l11 93h435l-93 -629
q-29 -2 -121 -31q-91 -28 -102 -31t-50 -14q-38 -10 -60 -14t-68 -12t-121 -9q-298 -1 -435 279q-77 156 -80 362q-4 205 50 377q54 171 152 291t239 187t327 67z" />
    <glyph glyph-name="gcircumflex" unicode="&#x11d;" horiz-adv-x="1144" 
d="M391 1228l-46 47l341 375h142l202 -377l-61 -47l-232 297zM433 94q93 0 181 60t139 135l108 727q-63 49 -161 49t-173 -42q-136 -75 -212 -251t-76 -340q1 -164 51 -251t143 -87zM400 -381q134 1 200 55t88 195l44 281q-60 -72 -144 -121t-188 -49t-179 56
q-146 109 -146 376q0 201 114 408q114 206 304 294q105 48 215 49q110 0 219 -41l116 41l-193 -1240q-36 -255 -272 -370q-125 -61 -261 -61t-216 35l40 148q125 -56 259 -56z" />
    <glyph glyph-name="Gbreve" unicode="&#x11e;" horiz-adv-x="1361" 
d="M836 1635q-126 -1 -206 97q-78 98 -78 227q0 14 1 20h85q0 -94 58 -161q58 -66 149 -66q141 0 217 158q18 36 25 69h82q1 -14 -2 -32q-13 -116 -109 -214t-222 -98zM870 1546q186 0 378 -56l38 -11l-57 -296h-102l-7 202q-94 66 -291 66q-238 0 -389 -203
q-127 -171 -159 -444q-31 -273 49 -478q99 -249 329 -249q85 1 181 27t149 74l67 438l-270 14l11 93h435l-93 -629q-29 -2 -121 -31q-91 -28 -102 -31t-50 -14q-38 -10 -60 -14t-68 -12t-121 -9q-298 -1 -435 279q-77 156 -80 362q-4 205 50 377q54 171 152 291t239 187
t327 67z" />
    <glyph glyph-name="gbreve" unicode="&#x11f;" horiz-adv-x="1144" 
d="M702 1304q-126 0 -204 98t-79 226q0 15 1 20h85q0 -60 26 -112q57 -114 190 -114t209 158q18 36 24 69h82q1 -15 -2 -32q-13 -117 -109 -215q-97 -98 -223 -98zM433 94q93 0 181 60t139 135l108 727q-63 49 -161 49t-173 -42q-136 -75 -212 -251t-76 -340q1 -164 51 -251
t143 -87zM400 -381q134 1 200 55t88 195l44 281q-60 -72 -144 -121t-188 -49t-179 56q-146 109 -146 376q0 201 114 408q114 206 304 294q105 48 215 49q110 0 219 -41l116 41l-193 -1240q-36 -255 -272 -370q-125 -61 -261 -61t-216 35l40 148q125 -56 259 -56z" />
    <glyph glyph-name="Gdotaccent" unicode="&#x120;" horiz-adv-x="1361" 
d="M845 1701q-43 -1 -70 29t-25 76t40 80q36 36 79 36t70 -28t25 -74q-2 -47 -40 -83q-36 -36 -79 -36zM870 1546q186 0 378 -56l38 -11l-57 -296h-102l-7 202q-94 66 -291 66q-238 0 -389 -203q-127 -171 -159 -444q-31 -273 49 -478q99 -249 329 -249q85 1 181 27t149 74
l67 438l-270 14l11 93h435l-93 -629q-29 -2 -121 -31q-91 -28 -102 -31t-50 -14q-38 -10 -60 -14t-68 -12t-121 -9q-298 -1 -435 279q-77 156 -80 362q-4 205 50 377q54 171 152 291t239 187t327 67z" />
    <glyph glyph-name="gdotaccent" unicode="&#x121;" horiz-adv-x="1144" 
d="M720 1421q-44 0 -71 29t-25 75q2 45 40 81q36 36 80 36t69 -28t23 -74q-2 -47 -38 -83q-34 -36 -78 -36zM433 94q93 0 181 60t139 135l108 727q-63 49 -161 49t-173 -42q-136 -75 -212 -251t-76 -340q1 -164 51 -251t143 -87zM400 -381q134 1 200 55t88 195l44 281
q-60 -72 -144 -121t-188 -49t-179 56q-146 109 -146 376q0 201 114 408q114 206 304 294q105 48 215 49q110 0 219 -41l116 41l-193 -1240q-36 -255 -272 -370q-125 -61 -261 -61t-216 35l40 148q125 -56 259 -56z" />
    <glyph glyph-name="Gcommaaccent" unicode="&#x122;" horiz-adv-x="1361" 
d="M532 -147l98 95q62 -18 94 -78t25 -152t-77 -176t-135 -102l-33 33l2 20q86 61 93 186q3 43 -18 81t-54 49zM870 1546q186 0 378 -56l38 -11l-57 -296h-102l-7 202q-94 66 -291 66q-238 0 -389 -203q-127 -171 -159 -444q-31 -273 49 -478q99 -249 329 -249q85 1 181 27
t149 74l67 438l-270 14l11 93h435l-93 -629q-29 -2 -121 -31q-91 -28 -102 -31t-50 -14q-38 -10 -60 -14t-68 -12t-121 -9q-298 -1 -435 279q-77 156 -80 362q-4 205 50 377q54 171 152 291t239 187t327 67z" />
    <glyph glyph-name="gcommaaccent" unicode="&#x123;" horiz-adv-x="1144" 
d="M433 94q93 0 181 60t139 135l108 727q-63 49 -161 49t-173 -42q-136 -75 -212 -251t-76 -340q1 -164 51 -251t143 -87zM400 -381q134 1 200 55t88 195l44 281q-60 -72 -144 -121t-188 -49t-179 56q-146 109 -146 376q0 201 114 408q114 206 304 294q105 48 215 49
q110 0 219 -41l116 41l-193 -1240q-36 -255 -272 -370q-125 -61 -261 -61t-216 35l40 148q125 -56 259 -56zM702 1297q-66 13 -103 79t-27 158t84 174q76 82 145 98l33 -34l-3 -20q-97 -60 -110 -179q-5 -45 20 -87t64 -51l-5 -43z" />
    <glyph glyph-name="Hcircumflex" unicode="&#x124;" horiz-adv-x="1534" 
d="M605 1619l-50 47l321 334h142l219 -335l-55 -48l-242 256zM41 0l7 69l149 25l180 1336l-135 19l10 81h445l-8 -81l-151 -19l-81 -600h698l81 600l-148 19l7 81h450l-9 -81l-140 -19l-179 -1335l154 -26l-8 -69h-473l7 70l160 25l84 631h-698l-85 -632l156 -24l-7 -70
h-466z" />
    <glyph glyph-name="hcircumflex" unicode="&#x125;" horiz-adv-x="1250" 
d="M986 84q31 0 107 63l26 -44q-17 -31 -81 -77t-137 -46q-116 0 -109 116q2 72 27 203q25 132 27 149t12 69q10 53 14 71q32 166 31 296q0 152 -133 152q-92 0 -210 -86t-200 -208l-100 -742h-155l200 1515l-115 33l13 67l232 35l44 -23l-17 -121l279 290h142l219 -335
l-55 -48l-242 256l-335 -254l-18 16l-75 -558q91 124 215 207t240 83t174 -68q57 -68 57 -228q0 -92 -53 -362q-47 -281 -51 -351t27 -70z" />
    <glyph glyph-name="Hbar" unicode="&#x126;" horiz-adv-x="1534" 
d="M447 759h699l36 267h-699zM41 0l7 69l149 25l125 932h-222l12 104h224l41 300l-135 19l10 81h445l-8 -81l-151 -19l-41 -300h699l40 300l-148 19l7 81h450l-9 -81l-140 -19l-40 -300h205l-12 -104h-207l-125 -931l154 -26l-8 -69h-473l7 70l160 25l75 560h-699l-75 -561
l156 -24l-7 -70h-466z" />
    <glyph glyph-name="hbar" unicode="&#x127;" horiz-adv-x="1250" 
d="M986 84q31 0 107 63l26 -44q-17 -31 -81 -77t-137 -46q-116 0 -109 116q2 72 27 203q25 132 27 149t12 69q10 53 14 71q32 166 31 296q0 152 -133 152q-92 0 -210 -86t-200 -208l-100 -742h-155l170 1287h-162l14 105h162l16 123l-115 33l13 67l232 35l44 -23l-32 -235
h262l-14 -105h-262l-56 -414q91 124 215 207t240 83t174 -68q57 -68 57 -228q0 -92 -53 -362q-47 -281 -51 -351t27 -70z" />
    <glyph glyph-name="Itilde" unicode="&#x128;" horiz-adv-x="717" 
d="M421 1965q95 0 155 -73q61 -73 118 -73q56 0 93 38t66 81l48 -75q-25 -73 -92 -123t-128 -51q-61 0 -95 15t-54 36q-21 20 -40 42q-45 51 -106 53q-62 1 -153 -104l-39 69q35 67 102 116t125 49zM54 0l7 69l149 25l180 1336l-135 19l10 81h445l-8 -81l-151 -19
l-180 -1336l156 -24l-7 -70h-466z" />
    <glyph glyph-name="itilde" unicode="&#x129;" horiz-adv-x="625" 
d="M286 1650q94 0 156 -73t118 -73t92 37t67 82l47 -74q-26 -75 -92 -125t-127 -50t-95 15t-54 37q-21 22 -40 42q-47 52 -99 52q-70 1 -161 -104l-38 69q34 67 101 116t125 49zM348 85q40 0 108 71l27 -44q-25 -40 -85 -86t-133 -46q-120 0 -109 119q7 99 62 470
q56 370 67 447l-137 40l14 65l258 42l41 -21l-141 -984q-4 -35 4 -54t24 -19z" />
    <glyph glyph-name="Imacron" unicode="&#x12a;" horiz-adv-x="717" 
d="M255 1745l4 119h510l-5 -119h-509zM54 0l7 69l149 25l180 1336l-135 19l10 81h445l-8 -81l-151 -19l-180 -1336l156 -24l-7 -70h-466z" />
    <glyph glyph-name="imacron" unicode="&#x12b;" horiz-adv-x="625" 
d="M136 1432l4 119h510l-5 -119h-509zM348 85q40 0 108 71l27 -44q-25 -40 -85 -86t-133 -46q-120 0 -109 119q7 99 62 470q56 370 67 447l-137 40l14 65l258 42l41 -21l-141 -984q-4 -35 4 -54t24 -19z" />
    <glyph glyph-name="Ibreve" unicode="&#x12c;" horiz-adv-x="717" 
d="M518 1635q-126 -1 -204 97t-79 227q0 14 1 20h85q0 -94 58 -161q58 -66 149 -66q142 0 218 158q18 36 24 69h82q1 -14 -2 -32q-13 -116 -109 -214q-97 -98 -223 -98zM54 0l7 69l149 25l180 1336l-135 19l10 81h445l-8 -81l-151 -19l-180 -1336l156 -24l-7 -70h-466z" />
    <glyph glyph-name="ibreve" unicode="&#x12d;" horiz-adv-x="625" 
d="M400 1304q-126 0 -204 98t-79 226q0 15 1 20h85q0 -60 26 -112q57 -114 190 -114t209 158q18 36 24 69h82q1 -15 -2 -32q-13 -117 -109 -215q-97 -98 -223 -98zM348 85q40 0 108 71l27 -44q-25 -40 -85 -86t-133 -46q-120 0 -109 119q7 99 62 470q56 370 67 447l-137 40
l14 65l258 42l41 -21l-141 -984q-4 -35 4 -54t24 -19z" />
    <glyph glyph-name="Iogonek" unicode="&#x12e;" horiz-adv-x="717" 
d="M204 -313q72 0 155 68l21 -77q-106 -94 -250 -94q-74 0 -112 40t-34 98q2 60 30 98q51 70 104 105q54 36 121 75h-185l7 69l149 25l180 1336l-135 19l10 81h445l-8 -81l-151 -19l-180 -1336l156 -24l-7 -70h-186q-92 -67 -143 -120q-51 -52 -53 -100t18 -70
q19 -22 48 -23z" />
    <glyph glyph-name="iogonek" unicode="&#x12f;" horiz-adv-x="625" 
d="M348 85q40 0 108 71l27 -44q-33 -53 -104 -97q-167 -122 -200 -181q-17 -30 -19 -66t18 -59q19 -22 49 -22q73 0 154 68l22 -77q-106 -94 -250 -94q-73 0 -111 40t-36 97q6 138 227 262q-87 15 -79 115t64 471q56 370 67 447l-137 40l14 65l258 42l41 -21l-141 -984
q-4 -35 4 -54t24 -19zM436 1421q-44 0 -70 29t-24 75q2 45 38 81t80 36t70 -28t24 -74q-2 -47 -38 -83t-80 -36z" />
    <glyph glyph-name="Idotaccent" unicode="&#x130;" horiz-adv-x="717" 
d="M528 1701q-43 -1 -70 29q-26 30 -24 76t38 80q36 36 80 36q43 0 70 -28q26 -28 24 -74q-2 -47 -38 -83t-80 -36zM54 0l7 69l149 25l180 1336l-135 19l10 81h445l-8 -81l-151 -19l-180 -1336l156 -24l-7 -70h-466z" />
    <glyph glyph-name="dotlessi" unicode="&#x131;" horiz-adv-x="625" 
d="M348 85q40 0 108 71l27 -44q-25 -40 -85 -86t-133 -46q-120 0 -109 119q7 99 62 470q56 370 67 447l-137 40l14 65l258 42l41 -21l-141 -984q-4 -35 4 -54t24 -19z" />
    <glyph glyph-name="IJ" unicode="&#x132;" horiz-adv-x="1411" 
d="M913 82q58 288 118 763q61 475 76 586l-163 18l11 81h487l-9 -81l-170 -18q-154 -1242 -188 -1348q-67 -209 -203 -304q-136 -96 -297 -124l-28 70q143 38 243 143t123 214zM54 0l7 69l149 25l180 1336l-135 19l10 81h445l-8 -81l-151 -19l-180 -1336l156 -24l-7 -70
h-466z" />
    <glyph glyph-name="ij" unicode="&#x133;" horiz-adv-x="1247" 
d="M1042 1421q-44 0 -71 29t-25 75q2 45 40 81q36 36 80 36t69 -28t23 -74q-2 -47 -38 -83q-34 -36 -78 -36zM523 -518q-106 0 -140 37l28 66q34 -17 89 -17t102 26q87 49 132 169t65 295l109 958l-143 40l14 65l265 42l40 -21l-135 -1140q-29 -254 -141 -387t-285 -133z
M418 1421q-44 0 -71 29t-25 75q2 45 40 81q36 36 80 36t69 -28t23 -74q-2 -47 -38 -83q-34 -36 -78 -36zM348 85q40 0 108 71l27 -44q-25 -40 -85 -86t-133 -46q-120 0 -109 119q7 99 62 470q56 370 67 447l-137 40l14 65l258 42l41 -21l-141 -984q-4 -35 4 -54t24 -19z" />
    <glyph glyph-name="Jcircumflex" unicode="&#x134;" horiz-adv-x="694" 
d="M234 1619l-50 47l321 334h142l219 -335l-55 -48l-242 256zM196 82q58 288 118 763q61 475 76 586l-163 18l11 81h487l-9 -81l-170 -18q-154 -1242 -188 -1348q-67 -209 -203 -304q-136 -96 -297 -124l-28 70q144 38 244 143t122 214z" />
    <glyph glyph-name="jcircumflex" unicode="&#x135;" horiz-adv-x="622" 
d="M15 1228l-46 47l341 375h142l202 -377l-61 -47l-232 297zM-102 -518q-106 0 -140 37l28 66q34 -17 89 -17t102 26q87 49 132 169t65 295l109 958l-143 40l14 65l265 42l40 -21l-135 -1140q-30 -254 -142 -387t-284 -133z" />
    <glyph glyph-name="Kcommaaccent" unicode="&#x136;" horiz-adv-x="1352" 
d="M561 -145l98 95q61 -18 93 -78t26 -152q-8 -92 -78 -176t-134 -102l-33 33l2 20q86 61 93 186q3 43 -18 81t-54 49zM37 0l7 69l149 25l181 1336l-135 19l10 81h445l-8 -81l-151 -19l-104 -767l694 767l-136 19l9 81h417l-9 -81l-123 -18l-571 -604q43 -64 193 -319
q151 -254 191 -316t69 -78l145 -39l-11 -75h-249q-27 2 -56 54q-30 52 -80 151t-153 283q-103 185 -139 244l-212 -224l-56 -414l156 -24l-7 -70h-466z" />
    <glyph glyph-name="kcommaaccent" unicode="&#x137;" horiz-adv-x="1059" 
d="M367 -147l98 95q61 -18 93 -78t26 -152q-8 -92 -78 -176t-134 -102l-33 33l2 20q86 61 93 186q3 43 -18 81t-54 49zM914 1163q36 -1 60 -23t26 -71q6 -154 -380 -383q-18 -10 -58 -34q-39 -24 -46 -28l278 -432q29 -42 62 -69t58 -27q54 0 109 55l28 -50q-27 -45 -93 -83
t-133 -38q-95 0 -159 108l-300 522l2 1h-2q34 25 128 87t152 111t102 108t57 155q8 43 40 67q33 24 69 24zM105 0l200 1515l-115 33l12 67l232 35l44 -23l-219 -1627h-154z" />
    <glyph glyph-name="kgreenlandic" unicode="&#x138;" horiz-adv-x="1061" 
d="M917 82q25 0 75 27l25 -39q-23 -33 -78 -61t-113 -28q-85 0 -144 107l-290 494l2 2h-1l508 546h186l-544 -544l262 -405q61 -99 112 -99zM140 0l130 1015l-112 32l17 68l224 35l42 -23l-148 -1127h-153z" />
    <glyph glyph-name="Lacute" unicode="&#x139;" horiz-adv-x="1173" 
d="M496 1616l-44 37l282 349l99 -110q-25 -48 -109 -122q-85 -73 -228 -154zM38 0l7 70l149 24l180 1336l-135 19l10 81h473l-9 -81l-178 -19l-181 -1336l538 9l130 346l94 -18l-96 -431h-982z" />
    <glyph glyph-name="lacute" unicode="&#x13a;" horiz-adv-x="599" 
d="M413 1614l-44 37l282 349l99 -110q-25 -48 -109 -122q-85 -73 -228 -154zM317 85q31 0 80 39l26 -44q-19 -28 -71 -64t-115 -36q-109 0 -101 122l5 68l172 1217l-117 34l17 67l226 34l41 -23l-188 -1341q-6 -73 25 -73z" />
    <glyph glyph-name="Lcommaaccent" unicode="&#x13b;" horiz-adv-x="1173" 
d="M469 -145l98 95q61 -18 93 -78t26 -152q-8 -92 -78 -176t-134 -102l-33 33l2 20q86 61 93 186q3 43 -18 81t-54 49zM38 0l7 70l149 24l180 1336l-135 19l10 81h473l-9 -81l-178 -19l-181 -1336l538 9l130 346l94 -18l-96 -431h-982z" />
    <glyph glyph-name="lcommaaccent" unicode="&#x13c;" horiz-adv-x="598" 
d="M82 -147l98 95q62 -18 94 -78t25 -152t-77 -176t-135 -102l-33 33l2 20q86 61 93 186q3 43 -18 81t-54 49zM314 85q44 0 111 70l26 -43q-29 -56 -98 -94q-68 -38 -120 -38q-102 0 -100 122q0 38 6 68l200 1345l-119 33l16 67l229 35l40 -23l-216 -1469q-5 -34 3 -54
t22 -19z" />
    <glyph glyph-name="Lcaron" unicode="&#x13d;" horiz-adv-x="1173" 
d="M949 987l-49 24l-5 20q97 273 71 437q-10 60 -26 83l15 34l124 37q47 -51 31 -202q-29 -272 -161 -433zM38 0l7 70l149 24l180 1336l-135 19l10 81h473l-9 -81l-178 -19l-181 -1336l538 9l130 346l94 -18l-96 -431h-982z" />
    <glyph glyph-name="lcaron" unicode="&#x13e;" horiz-adv-x="747" 
d="M679 1022l-49 24l-5 20q97 272 71 436q-10 60 -26 84l15 34l124 37q47 -51 31 -202q-29 -272 -161 -433zM314 87q44 0 111 70l26 -43q-29 -56 -98 -94q-68 -38 -120 -38q-102 0 -100 122q0 38 6 68l200 1345l-119 33l16 67l229 35l40 -23l-216 -1469q-5 -34 3 -54t22 -19
z" />
    <glyph glyph-name="Ldot" unicode="&#x13f;" horiz-adv-x="1173" 
d="M1037 983q51 -1 73 -29t16 -80t-45 -86t-86 -33q-47 0 -71 28q-24 27 -18 79q8 52 44 86t87 35zM38 0l7 70l149 24l180 1336l-135 19l10 81h473l-9 -81l-178 -19l-181 -1336l538 9l130 346l94 -18l-96 -431h-982z" />
    <glyph glyph-name="ldot" unicode="&#x140;" horiz-adv-x="782" 
d="M716 872q50 0 73 -28t17 -81q-6 -51 -46 -85q-39 -34 -86 -34q-48 0 -72 28t-17 80t43 86q38 34 88 34zM314 85q44 0 111 70l26 -43q-29 -56 -98 -94q-68 -38 -120 -38q-102 0 -100 122q0 38 6 68l200 1345l-119 33l16 67l229 35l40 -23l-216 -1469q-5 -34 3 -54t22 -19z
" />
    <glyph glyph-name="Lslash" unicode="&#x141;" horiz-adv-x="1172" 
d="M38 2l7 70l149 24l65 484l-176 -74l-29 95l221 95l99 736l-135 19l10 81h473l-9 -81l-178 -19l-90 -662l434 187l28 -102l-478 -203l-75 -556l538 9l130 346l94 -18l-96 -431h-982z" />
    <glyph glyph-name="lslash" unicode="&#x142;" horiz-adv-x="598" 
d="M314 85q44 0 111 70l26 -43q-29 -56 -98 -94q-68 -38 -120 -38q-102 0 -100 122q0 38 6 68l91 611l-148 -58v109l165 68l92 615l-119 33l16 67l229 35l40 -23l-97 -662l208 86v-118l-226 -89l-101 -686q-5 -34 3 -54t22 -19z" />
    <glyph glyph-name="Nacute" unicode="&#x143;" horiz-adv-x="1521" 
d="M912 1614l-44 37l282 349l99 -110q-25 -48 -109 -122q-85 -73 -228 -154zM24 0l7 69l140 23l190 1338l-145 19l14 81h301l515 -1162l66 -196l166 1259l-151 18l10 81h435l-8 -81l-152 -19l-214 -1430h-152l-511 1136l-64 200l-161 -1242l164 -24l-6 -70h-444z" />
    <glyph glyph-name="nacute" unicode="&#x144;" horiz-adv-x="1253" 
d="M646 1255l-43 49l322 425l113 -133q-29 -51 -166 -171t-226 -170zM836 1163q114 0 172 -68t58 -227q0 -81 -49 -341q-49 -261 -54 -351q-5 -91 21 -91q37 0 97 54l26 -44q-19 -31 -79 -73t-128 -43q-112 0 -105 117q4 89 45 311q42 221 54 299t12 166t-30 126t-113 39
q-82 1 -197 -85t-198 -207l-99 -745h-155l133 1002l-98 47l14 72l211 42l40 -20l-27 -257q91 118 213 198t236 79z" />
    <glyph glyph-name="Ncommaaccent" unicode="&#x145;" horiz-adv-x="1521" 
d="M584 -147l98 95q62 -18 94 -78t25 -152t-77 -176t-135 -102l-33 33l2 20q86 61 93 186q3 43 -18 81t-54 49zM24 0l7 69l140 23l190 1338l-145 19l14 81h301l515 -1162l66 -196l166 1259l-151 18l10 81h435l-8 -81l-152 -19l-214 -1430h-152l-511 1136l-64 200l-161 -1242
l164 -24l-6 -70h-444z" />
    <glyph glyph-name="ncommaaccent" unicode="&#x146;" horiz-adv-x="1253" 
d="M422 -147l98 95q62 -18 94 -78t25 -152t-77 -176t-135 -102l-33 33l2 20q86 61 93 186q3 43 -18 81t-54 49zM836 1163q114 0 172 -68t58 -227q0 -81 -49 -341q-49 -261 -54 -351q-5 -91 21 -91q37 0 97 54l26 -44q-19 -31 -79 -73t-128 -43q-112 0 -105 117q4 89 45 311
q42 221 54 299t12 166t-30 126t-113 39q-82 1 -197 -85t-198 -207l-99 -745h-155l133 1002l-98 47l14 72l211 42l40 -20l-27 -257q91 118 213 198t236 79z" />
    <glyph glyph-name="Ncaron" unicode="&#x147;" horiz-adv-x="1521" 
d="M840 1614l-222 339l53 47l242 -264l323 264l50 -46l-305 -340h-141zM24 0l7 69l140 23l190 1338l-145 19l14 81h301l515 -1162l66 -196l166 1259l-151 18l10 81h435l-8 -81l-152 -19l-214 -1430h-152l-511 1136l-64 200l-161 -1242l164 -24l-6 -70h-444z" />
    <glyph glyph-name="ncaron" unicode="&#x148;" horiz-adv-x="1253" 
d="M704 1377q293 239 334 273l50 -46l-316 -349h-142l-226 348l54 47zM836 1163q114 0 172 -68t58 -227q0 -81 -49 -341q-49 -261 -54 -351q-5 -91 21 -91q37 0 97 54l26 -44q-19 -31 -79 -73t-128 -43q-112 0 -105 117q4 89 45 311q42 221 54 299t12 166t-30 126t-113 39
q-82 1 -197 -85t-198 -207l-99 -745h-155l133 1002l-98 47l14 72l211 42l40 -20l-27 -257q91 118 213 198t236 79z" />
    <glyph glyph-name="Eng" unicode="&#x14a;" horiz-adv-x="1521" 
d="M30 0l6 69l141 23l184 1338l-145 19l14 81h301l515 -1162l66 -196l166 1259l-151 18l10 81h435l-8 -81l-152 -19l-214 -1430q-41 -285 -456 -365l-29 71q129 40 221 114t113 179l-512 1137l-64 200l-156 -1242l164 -24l-6 -70h-443z" />
    <glyph glyph-name="eng" unicode="&#x14b;" horiz-adv-x="1244" 
d="M836 1162q114 0 174 -74t56 -221q-12 -345 -115 -865t-443 -520q-106 0 -140 37l28 65q34 -17 89 -17t104 28q88 50 136 171t79 286q100 563 103 807q1 101 -31 139t-114 39t-197 -85t-197 -207l-99 -745h-155l133 1002l-98 47l14 72l211 42l40 -20l-27 -257
q91 118 213 197t236 79z" />
    <glyph glyph-name="Omacron" unicode="&#x14c;" horiz-adv-x="1352" 
d="M572 1745l4 119h510l-5 -119h-509zM784 1454q-144 0 -263 -104t-185 -280q-66 -178 -64 -353q4 -313 87 -476q82 -163 269 -165q144 0 262 98t186 278q68 178 63 396q-12 606 -355 606zM606 -20q-226 0 -360 179t-140 482q-4 189 50 359t149 289q95 121 226 191t263 70
q255 0 381 -191t130 -456q5 -265 -87 -474t-254 -329t-358 -120z" />
    <glyph glyph-name="omacron" unicode="&#x14d;" horiz-adv-x="1123" 
d="M395 1432l4 119h510l-5 -119h-509zM615 1065q-73 0 -135 -39q-110 -69 -171 -239t-58 -345q6 -364 250 -364q89 0 162 58t116 152q90 195 87 391q-2 196 -64 291t-187 95zM644 1163q187 1 285 -119t102 -341q2 -135 -38 -265t-112 -232t-179 -164t-229 -62
q-187 0 -285 119t-101 342q-4 223 99 415q104 192 271 267q89 40 187 40z" />
    <glyph glyph-name="Obreve" unicode="&#x14e;" horiz-adv-x="1352" 
d="M836 1635q-126 -1 -206 97q-78 98 -78 227q0 14 1 20h85q0 -94 58 -161q58 -66 149 -66q141 0 217 158q18 36 25 69h82q1 -14 -2 -32q-13 -116 -109 -214t-222 -98zM784 1454q-144 0 -263 -104t-185 -280q-66 -178 -64 -353q4 -313 87 -476q82 -163 269 -165
q144 0 262 98t186 278q68 178 63 396q-12 606 -355 606zM606 -20q-226 0 -360 179t-140 482q-4 189 50 359t149 289q95 121 226 191t263 70q255 0 381 -191t130 -456q5 -265 -87 -474t-254 -329t-358 -120z" />
    <glyph glyph-name="obreve" unicode="&#x14f;" horiz-adv-x="1123" 
d="M660 1304q-126 0 -206 98q-78 98 -78 226q0 15 1 20h85q0 -60 26 -112q57 -114 190 -114q132 0 208 158q18 36 25 69h82q1 -15 -2 -32q-13 -117 -109 -215t-222 -98zM615 1065q-73 0 -135 -39q-110 -69 -171 -239t-58 -345q6 -364 250 -364q89 0 162 58t116 152
q90 195 87 391q-2 196 -64 291t-187 95zM644 1163q187 1 285 -119t102 -341q2 -135 -38 -265t-112 -232t-179 -164t-229 -62q-187 0 -285 119t-101 342q-4 223 99 415q104 192 271 267q89 40 187 40z" />
    <glyph glyph-name="Ohungarumlaut" unicode="&#x150;" horiz-adv-x="1352" 
d="M603 1584l-44 36l312 375l105 -94q-36 -75 -148 -165t-225 -152zM1016 1585l-44 36l312 375l108 -94q-48 -78 -162 -173t-214 -144zM784 1454q-144 0 -263 -104t-185 -280q-66 -178 -64 -353q4 -313 87 -476q82 -163 269 -165q144 0 262 98t186 278q68 178 63 396
q-12 606 -355 606zM606 -20q-226 0 -360 179t-140 482q-4 189 50 359t149 289q95 121 226 191t263 70q255 0 381 -191t130 -456q5 -265 -87 -474t-254 -329t-358 -120z" />
    <glyph glyph-name="ohungarumlaut" unicode="&#x151;" horiz-adv-x="1123" 
d="M434 1257l-51 35l237 415l116 -93q-28 -84 -123 -194t-179 -163zM860 1257l-52 35l247 415l116 -94q-26 -79 -129 -197t-182 -159zM615 1065q-73 0 -135 -39q-110 -69 -171 -239t-58 -345q6 -364 250 -364q89 0 162 58t116 152q90 195 87 391q-2 196 -64 291t-187 95z
M644 1163q187 1 285 -119t102 -341q2 -135 -38 -265t-112 -232t-179 -164t-229 -62q-187 0 -285 119t-101 342q-4 223 99 415q104 192 271 267q89 40 187 40z" />
    <glyph glyph-name="OE" unicode="&#x152;" horiz-adv-x="2137" 
d="M802 1449q-160 0 -280 -102q-120 -103 -188 -279t-66 -386q9 -603 370 -606q142 0 260 102t184 286t62 434t-93 401q-89 150 -249 150zM616 -20q-228 0 -366 180t-144 481q-4 197 50 367t151 288t229 186t298 68t275 -118q108 -118 146 -320l54 418h780l-7 -310h-86
l-36 211l-498 12l-86 -603l473 6l-10 -125l-472 13l-84 -640l605 19l113 228l84 -25l-89 -316h-885l44 340q-87 -168 -227 -264t-312 -96z" />
    <glyph glyph-name="oe" unicode="&#x153;" horiz-adv-x="1774" 
d="M615 1065q-73 0 -135 -39q-110 -69 -171 -239t-58 -345q6 -364 250 -364q189 0 291 250q28 70 44 152q4 64 18 127q3 48 3 94q-5 364 -242 364zM1527 902q0 80 -41 124t-117 43q-76 1 -144 -49q-69 -50 -113 -128q-91 -159 -107 -335q177 5 341 93q78 42 130 108
q51 64 51 144zM989 923q169 240 426 240q131 1 203 -69t73 -181q0 -75 -37 -141t-98 -114q-130 -99 -289 -144t-266 -47q-13 -130 37 -244q26 -59 78 -95t127 -36q179 0 341 162l38 -68q-56 -76 -162 -141t-237 -65t-219 60t-130 164q-76 -104 -178 -164t-223 -60
q-187 0 -285 119t-101 342q-4 223 99 415q104 192 271 267q89 40 187 40q264 0 345 -240z" />
    <glyph glyph-name="Racute" unicode="&#x154;" horiz-adv-x="1324" 
d="M812 1614l-44 37l282 349l99 -110q-25 -48 -109 -122q-85 -73 -228 -154zM700 1451q-66 0 -171 -15l-93 -670q151 -8 243 -2q179 11 279 124t95 299q-3 136 -83 200t-270 64zM459 1530l269 16q246 0 363 -88t121 -269q4 -183 -100 -317t-287 -182q105 -80 217 -366
q52 -134 102 -191t146 -54l-4 -80l-224 2q-52 -2 -131 197q-35 88 -52 132t-26 66q-9 24 -25 62t-28 60t-27 52q-23 43 -57 74q-33 31 -70 27h-222l-76 -577l188 -24l-6 -70h-478l7 69l134 25l181 1336l-135 19l10 81h210z" />
    <glyph glyph-name="racute" unicode="&#x155;" horiz-adv-x="824" 
d="M430 1255l-43 49l322 425l113 -133q-29 -51 -166 -171t-226 -170zM776 1162q58 0 72 -13l-34 -166q-28 14 -108 14q-80 -1 -172 -69q-93 -68 -148 -194l-98 -734h-155l133 1002l-97 47l14 72l212 42l39 -20l-29 -254q43 91 140 177q48 42 111 69q62 27 120 27z" />
    <glyph glyph-name="Rcommaaccent" unicode="&#x156;" horiz-adv-x="1324" 
d="M573 -147l98 95q61 -18 93 -78t26 -152q-8 -92 -78 -176t-134 -102l-33 33l2 20q86 61 93 186q3 43 -18 81t-54 49zM700 1451q-66 0 -171 -15l-93 -670q151 -8 243 -2q179 11 279 124t95 299q-3 136 -83 200t-270 64zM459 1530l269 16q246 0 363 -88t121 -269
q4 -183 -100 -317t-287 -182q105 -80 217 -366q52 -134 102 -191t146 -54l-4 -80l-224 2q-52 -2 -131 197q-35 88 -52 132t-26 66q-9 24 -25 62t-28 60t-27 52q-23 43 -57 74q-33 31 -70 27h-222l-76 -577l188 -24l-6 -70h-478l7 69l134 25l181 1336l-135 19l10 81h210z" />
    <glyph glyph-name="rcommaaccent" unicode="&#x157;" horiz-adv-x="824" 
d="M97 -147l98 95q61 -18 93 -78t26 -152q-8 -92 -78 -176t-134 -102l-33 33l2 20q86 61 93 186q3 43 -18 81t-54 49zM776 1162q58 0 72 -13l-34 -166q-28 14 -108 14q-80 -1 -172 -69q-93 -68 -148 -194l-98 -734h-155l133 1002l-97 47l14 72l212 42l39 -20l-29 -254
q43 91 140 177q48 42 111 69q62 27 120 27z" />
    <glyph glyph-name="Rcaron" unicode="&#x158;" horiz-adv-x="1324" 
d="M740 1614l-222 339l53 47l242 -264l323 264l50 -46l-305 -340h-141zM700 1451q-66 0 -171 -15l-93 -670q151 -8 243 -2q179 11 279 124t95 299q-3 136 -83 200t-270 64zM459 1530l269 16q246 0 363 -88t121 -269q4 -183 -100 -317t-287 -182q105 -80 217 -366
q52 -134 102 -191t146 -54l-4 -80l-224 2q-52 -2 -131 197q-35 88 -52 132t-26 66q-9 24 -25 62t-28 60t-27 52q-23 43 -57 74q-33 31 -70 27h-222l-76 -577l188 -24l-6 -70h-478l7 69l134 25l181 1336l-135 19l10 81h210z" />
    <glyph glyph-name="rcaron" unicode="&#x159;" horiz-adv-x="824" 
d="M488 1377q293 239 334 273l50 -46l-316 -349h-142l-226 348l54 47zM776 1162q58 0 72 -13l-34 -166q-28 14 -108 14q-80 -1 -172 -69q-93 -68 -148 -194l-98 -734h-155l133 1002l-97 47l14 72l212 42l39 -20l-29 -254q43 91 140 177q48 42 111 69q62 27 120 27z" />
    <glyph glyph-name="Sacute" unicode="&#x15a;" horiz-adv-x="1094" 
d="M696 1614l-44 37l282 349l99 -110q-25 -48 -109 -122q-85 -73 -228 -154zM454 74q66 0 122 16t108 46q50 32 81 88t31 134q0 76 -34 144t-81 111t-113 85t-104 67q-111 76 -176 165t-67 211t60 217q62 96 166 144q103 48 233 48t226 -26t147 -59l-46 -262h-86l-14 197
q-81 55 -209 55q-128 1 -216 -49q-104 -58 -104 -205q0 -145 117 -249q59 -52 133 -98t112 -73q99 -71 156 -157q56 -86 58 -212q2 -125 -65 -228t-181 -155t-248 -52q-134 1 -252 29t-158 59l41 278l94 4l13 -210q41 -27 116 -45q74 -18 140 -18z" />
    <glyph glyph-name="sacute" unicode="&#x15b;" horiz-adv-x="834" 
d="M472 1255l-43 49l322 425l113 -133q-29 -51 -166 -171t-226 -170zM323 89q234 0 234 173q-1 81 -71 147q-43 40 -102 84q-60 43 -80 61q-166 141 -165 290q1 148 113 234t271 85q73 1 144 -13t100 -28l-33 -135q-14 20 -75 46t-150 26t-149 -41t-67 -120
q-11 -108 111 -212q26 -22 98 -76q71 -54 111 -98q96 -103 96 -234q0 -130 -115 -214t-280 -84q-90 0 -176 20t-113 43l29 121q104 -75 269 -75z" />
    <glyph glyph-name="Scircumflex" unicode="&#x15c;" horiz-adv-x="1094" 
d="M422 1619l-50 47l321 334h142l219 -335l-55 -48l-242 256zM454 74q66 0 122 16t108 46q50 32 81 88t31 134q0 76 -34 144t-81 111t-113 85t-104 67q-111 76 -176 165t-67 211t60 217q62 96 166 144q103 48 233 48t226 -26t147 -59l-46 -262h-86l-14 197q-81 55 -209 55
q-128 1 -216 -49q-104 -58 -104 -205q0 -145 117 -249q59 -52 133 -98t112 -73q99 -71 156 -157q56 -86 58 -212q2 -125 -65 -228t-181 -155t-248 -52q-134 1 -252 29t-158 59l41 278l94 4l13 -210q41 -27 116 -45q74 -18 140 -18z" />
    <glyph glyph-name="scircumflex" unicode="&#x15d;" horiz-adv-x="834" 
d="M217 1228l-46 47l341 375h142l202 -377l-61 -47l-232 297zM323 89q234 0 234 173q-1 81 -71 147q-43 40 -102 84q-60 43 -80 61q-166 141 -165 290q1 148 113 234t271 85q73 1 144 -13t100 -28l-33 -135q-14 20 -75 46t-150 26t-149 -41t-67 -120q-11 -108 111 -212
q26 -22 98 -76q71 -54 111 -98q96 -103 96 -234q0 -130 -115 -214t-280 -84q-90 0 -176 20t-113 43l29 121q104 -75 269 -75z" />
    <glyph glyph-name="Scedilla" unicode="&#x15e;" horiz-adv-x="1094" 
d="M454 74q66 0 122 16t108 46q50 32 81 88t31 134q0 76 -34 144t-81 111t-113 85t-104 67q-111 76 -176 165t-67 211t60 217q62 96 166 144q103 48 233 48t226 -26t147 -59l-46 -262h-86l-14 197q-81 55 -209 55q-128 1 -216 -49q-104 -58 -104 -205q0 -145 117 -249
q59 -52 133 -98t112 -73q210 -151 214 -350q3 -199 -122 -317t-320 -134q21 -68 10 -198q-10 -130 -74 -188t-173 -58t-146 28l28 105q32 -17 96 -17q65 0 111 51t53 139t-1 136q-120 6 -225 32t-141 55l41 278l94 4l13 -210q41 -27 116 -45q74 -18 140 -18z" />
    <glyph glyph-name="scedilla" unicode="&#x15f;" horiz-adv-x="834" 
d="M323 89q234 0 234 173q-1 81 -71 147q-43 40 -102 84q-60 43 -80 61q-166 141 -165 290q1 148 113 234t271 85q73 1 144 -13t100 -28l-33 -135q-14 20 -75 46t-150 26t-149 -41t-67 -120q-11 -108 111 -212q26 -22 98 -76q71 -54 111 -98q96 -104 96 -222
q-1 -118 -81 -197t-207 -103q24 -69 13 -203q-10 -135 -74 -193t-173 -58t-146 28l28 105q32 -17 96 -17q65 0 111 51t53 141t-2 136h-13q-90 0 -176 20t-113 43l29 121q104 -75 269 -75z" />
    <glyph glyph-name="Scaron" unicode="&#x160;" horiz-adv-x="1094" 
d="M624 1614l-222 339l53 47l242 -264l323 264l50 -46l-305 -340h-141zM454 74q66 0 122 16t108 46q50 32 81 88t31 134q0 76 -34 144t-81 111t-113 85t-104 67q-111 76 -176 165t-67 211t60 217q62 96 166 144q103 48 233 48t226 -26t147 -59l-46 -262h-86l-14 197
q-81 55 -209 55q-128 1 -216 -49q-104 -58 -104 -205q0 -145 117 -249q59 -52 133 -98t112 -73q99 -71 156 -157q56 -86 58 -212q2 -125 -65 -228t-181 -155t-248 -52q-134 1 -252 29t-158 59l41 278l94 4l13 -210q41 -27 116 -45q74 -18 140 -18z" />
    <glyph glyph-name="scaron" unicode="&#x161;" horiz-adv-x="834" 
d="M530 1377q293 239 334 273l50 -46l-316 -349h-142l-226 348l54 47zM323 89q234 0 234 173q-1 81 -71 147q-43 40 -102 84q-60 43 -80 61q-166 141 -165 290q1 148 113 234t271 85q73 1 144 -13t100 -28l-33 -135q-14 20 -75 46t-150 26t-149 -41t-67 -120
q-11 -108 111 -212q26 -22 98 -76q71 -54 111 -98q96 -103 96 -234q0 -130 -115 -214t-280 -84q-90 0 -176 20t-113 43l29 121q104 -75 269 -75z" />
    <glyph glyph-name="uni0162" unicode="&#x162;" horiz-adv-x="1235" 
d="M330 -346q64 0 110 51t54 145t-6 150h-267l7 75l241 19l190 1349l-367 -21l-94 -358h-91l81 466h1130l-75 -465l-88 -1l30 359l-365 20l-190 -1349l249 -19l-6 -75h-290q29 -73 17 -209q-12 -137 -76 -195t-172 -58q-109 0 -146 28l28 105q32 -17 96 -17z" />
    <glyph glyph-name="uni0163" unicode="&#x163;" horiz-adv-x="706" 
d="M150 147q0 37 11 121l101 775h-124l16 70l127 38q40 56 112 265h76l-33 -261h261l-16 -112h-259l-96 -699q-14 -107 -14 -159q0 -53 20 -73t68 -20q50 0 112 30t100 58l14 -64q-30 -37 -108 -79t-153 -53q22 -67 11 -199q-10 -133 -74 -191t-173 -58t-146 28l28 105
q32 -17 96 -17q65 0 111 51t53 141t-3 142q-118 24 -118 161z" />
    <glyph glyph-name="Tcaron" unicode="&#x164;" horiz-adv-x="1235" 
d="M677 1614l-222 339l53 47l242 -264l323 264l50 -46l-305 -340h-141zM221 0l7 75l241 19l190 1349l-367 -21l-94 -358h-91l81 466h1130l-75 -465l-88 -1l30 359l-365 20l-190 -1349l249 -19l-6 -75h-652z" />
    <glyph glyph-name="tcaron" unicode="&#x165;" horiz-adv-x="714" 
d="M695 1255l-49 24l-5 20q97 273 71 437q-10 60 -26 83l15 34l124 37q47 -51 31 -202q-29 -272 -161 -433zM150 147q0 37 11 121l101 775h-124l16 70l127 38q40 56 112 265h76l-33 -261h261l-16 -112h-259l-96 -699q-14 -107 -14 -159q0 -53 20 -73t68 -20q50 0 112 30
t100 58l14 -64q-36 -44 -129 -90t-171 -46q-176 0 -176 167z" />
    <glyph glyph-name="Tbar" unicode="&#x166;" horiz-adv-x="1235" 
d="M221 0l7 75l241 19l89 637h-278l14 105h279l86 607l-367 -21l-94 -358h-91l81 466h1130l-75 -465l-88 -1l30 359l-365 20l-86 -607h302l-14 -105h-303l-89 -637l249 -19l-6 -75h-652z" />
    <glyph glyph-name="tbar" unicode="&#x167;" horiz-adv-x="706" 
d="M150 147q0 37 11 121l47 366h-127l12 105h129l40 304h-124l16 70l127 38q40 56 112 265h76l-33 -261h261l-16 -112h-259l-42 -304h295l-12 -105h-297l-40 -290q-14 -107 -14 -159q0 -53 20 -73t68 -20q50 0 112 30t100 58l14 -64q-36 -44 -129 -90t-171 -46
q-176 0 -176 167z" />
    <glyph glyph-name="Utilde" unicode="&#x168;" horiz-adv-x="1396" 
d="M735 1965q95 0 155 -73q61 -73 118 -73q56 0 93 38t66 81l48 -75q-25 -73 -92 -123t-128 -51q-61 0 -95 15t-54 36q-21 20 -40 42q-45 51 -106 53q-62 1 -153 -104l-39 69q35 67 102 116t125 49zM651 69q187 -1 295 137t142 421l119 802l-135 20l9 81h404l-9 -81
l-129 -18l-120 -804q-45 -347 -190 -497t-409 -150q-212 0 -329 118t-121 328q-1 74 8 167l125 838l-139 19l10 80h455l-9 -80l-154 -21l-123 -822q-11 -105 -10 -189q3 -166 81 -258t229 -91z" />
    <glyph glyph-name="utilde" unicode="&#x169;" horiz-adv-x="1204" 
d="M554 1650q94 0 156 -73t118 -73t92 37t67 82l47 -74q-26 -75 -92 -125t-127 -50t-95 15t-54 37q-21 22 -40 42q-47 52 -99 52q-70 1 -161 -104l-38 69q34 67 101 116t125 49zM321 253q0 -163 156 -163q79 0 167 56t148 133l115 876h155l-130 -996q-10 -72 24 -72
q41 0 111 71l26 -45q-21 -35 -86 -83t-129 -48t-90 36q-25 36 -12 101q1 8 3 50q-167 -189 -368 -189q-120 0 -183 62t-63 212q0 86 36 352l54 396l-97 47l14 71l210 43l40 -21l-69 -543q-3 -27 -11 -83q-21 -147 -21 -263z" />
    <glyph glyph-name="Umacron" unicode="&#x16a;" horiz-adv-x="1396" 
d="M569 1745l4 119h510l-5 -119h-509zM651 69q187 -1 295 137t142 421l119 802l-135 20l9 81h404l-9 -81l-129 -18l-120 -804q-45 -347 -190 -497t-409 -150q-212 0 -329 118t-121 328q-1 74 8 167l125 838l-139 19l10 80h455l-9 -80l-154 -21l-123 -822q-11 -105 -10 -189
q3 -166 81 -258t229 -91z" />
    <glyph glyph-name="umacron" unicode="&#x16b;" horiz-adv-x="1204" 
d="M404 1432l4 119h510l-5 -119h-509zM321 253q0 -163 156 -163q79 0 167 56t148 133l115 876h155l-130 -996q-10 -72 24 -72q41 0 111 71l26 -45q-21 -35 -86 -83t-129 -48t-90 36q-25 36 -12 101q1 8 3 50q-167 -189 -368 -189q-120 0 -183 62t-63 212q0 86 36 352l54 396
l-97 47l14 71l210 43l40 -21l-69 -543q-3 -27 -11 -83q-21 -147 -21 -263z" />
    <glyph glyph-name="Ubreve" unicode="&#x16c;" horiz-adv-x="1396" 
d="M832 1635q-126 -1 -204 97t-79 227q0 14 1 20h85q0 -94 58 -161q58 -66 149 -66q142 0 218 158q18 36 24 69h82q1 -14 -2 -32q-13 -116 -109 -214q-97 -98 -223 -98zM651 69q187 -1 295 137t142 421l119 802l-135 20l9 81h404l-9 -81l-129 -18l-120 -804
q-45 -347 -190 -497t-409 -150q-212 0 -329 118t-121 328q-1 74 8 167l125 838l-139 19l10 80h455l-9 -80l-154 -21l-123 -822q-11 -105 -10 -189q3 -166 81 -258t229 -91z" />
    <glyph glyph-name="ubreve" unicode="&#x16d;" horiz-adv-x="1204" 
d="M668 1304q-126 0 -204 98t-79 226q0 15 1 20h85q0 -60 26 -112q57 -114 190 -114t209 158q18 36 24 69h82q1 -15 -2 -32q-13 -117 -109 -215q-97 -98 -223 -98zM321 253q0 -163 156 -163q79 0 167 56t148 133l115 876h155l-130 -996q-10 -72 24 -72q41 0 111 71l26 -45
q-21 -35 -86 -83t-129 -48t-90 36q-25 36 -12 101q1 8 3 50q-167 -189 -368 -189q-120 0 -183 62t-63 212q0 86 36 352l54 396l-97 47l14 71l210 43l40 -21l-69 -543q-3 -27 -11 -83q-21 -147 -21 -263z" />
    <glyph glyph-name="Uring" unicode="&#x16e;" horiz-adv-x="1396" 
d="M696 1602q50 -54 134 -56t144 44q59 46 66 139q8 93 -40 143t-133 52q-85 0 -146 -45t-68 -133t43 -144zM815 1481q-111 0 -179 44l-8 -75l-154 -21l-123 -822q-11 -105 -10 -189q3 -166 81 -258t229 -91q187 -1 295 137t142 421l119 802l-135 20l9 81h404l-9 -81
l-129 -18l-120 -804q-45 -347 -190 -497t-409 -150q-212 0 -329 118t-121 328q-1 74 8 167l125 838l-139 19l10 80h447q-97 69 -84 203t117 195q104 62 229 62t195 -65t62 -166q-10 -101 -62 -163q-98 -116 -271 -115z" />
    <glyph glyph-name="uring" unicode="&#x16f;" horiz-adv-x="1204" 
d="M564 1378q50 -56 137 -57q89 -1 147 47t65 145q7 95 -41 147t-134 53q-87 1 -149 -47q-63 -48 -69 -140t44 -148zM761 1778q128 0 198 -66t58 -192q-12 -127 -110 -196q-99 -68 -231 -68q-133 0 -203 70t-58 197q12 126 115 191q103 64 231 64zM321 253q0 -163 156 -163
q79 0 167 56t148 133l115 876h155l-130 -996q-10 -72 24 -72q41 0 111 71l26 -45q-21 -35 -86 -83t-129 -48t-90 36q-25 36 -12 101q1 8 3 50q-167 -189 -368 -189q-120 0 -183 62t-63 212q0 86 36 352l54 396l-97 47l14 71l210 43l40 -21l-69 -543q-3 -27 -11 -83
q-21 -147 -21 -263z" />
    <glyph glyph-name="Uhungarumlaut" unicode="&#x170;" horiz-adv-x="1396" 
d="M600 1584l-44 36l312 375l105 -94q-37 -75 -149 -165t-224 -152zM1013 1585l-44 36l312 375l108 -94q-47 -78 -161 -173t-215 -144zM651 69q187 -1 295 137t142 421l119 802l-135 20l9 81h404l-9 -81l-129 -18l-120 -804q-45 -347 -190 -497t-409 -150q-212 0 -329 118
t-121 328q-1 74 8 167l125 838l-139 19l10 80h455l-9 -80l-154 -21l-123 -822q-11 -105 -10 -189q3 -166 81 -258t229 -91z" />
    <glyph glyph-name="uhungarumlaut" unicode="&#x171;" horiz-adv-x="1204" 
d="M443 1257l-51 35l237 415l116 -93q-28 -84 -123 -194t-179 -163zM869 1257l-52 35l247 415l116 -94q-26 -79 -129 -197t-182 -159zM321 253q0 -163 156 -163q79 0 167 56t148 133l115 876h155l-130 -996q-10 -72 24 -72q41 0 111 71l26 -45q-21 -35 -86 -83t-129 -48
t-90 36q-25 36 -12 101q1 8 3 50q-167 -189 -368 -189q-120 0 -183 62t-63 212q0 86 36 352l54 396l-97 47l14 71l210 43l40 -21l-69 -543q-3 -27 -11 -83q-21 -147 -21 -263z" />
    <glyph glyph-name="Uogonek" unicode="&#x172;" horiz-adv-x="1396" 
d="M651 69q187 -1 295 137t142 421l119 802l-135 20l9 81h404l-9 -81l-129 -18l-120 -804q-39 -303 -155 -455t-320 -183q-210 -193 -136 -280q18 -22 48 -22q73 0 154 68l22 -77q-106 -94 -250 -94q-74 0 -112 40t-34 98q2 59 36 104q56 81 184 155l-36 -1q-212 0 -329 118
t-121 328q-1 74 8 167l125 838l-139 19l10 80h455l-9 -80l-154 -21l-123 -822q-11 -105 -10 -189q3 -166 81 -258t229 -91z" />
    <glyph glyph-name="uogonek" unicode="&#x173;" horiz-adv-x="1204" 
d="M321 253q0 -163 156 -163q79 0 167 56t148 133l115 876h155l-130 -996q-10 -72 24 -72q41 0 111 71l26 -45q-13 -23 -51 -57t-85 -54q-153 -114 -184 -170q-16 -28 -17 -64t18 -58t48 -23q73 0 154 68l22 -77q-106 -94 -250 -94q-74 0 -111 39t-35 99t32 100
q64 86 201 164q-82 23 -59 133q1 8 3 50q-167 -189 -368 -189q-120 0 -183 62t-63 212q0 86 36 352l54 396l-97 47l14 71l210 43l40 -21l-69 -543q-3 -27 -11 -83q-21 -147 -21 -263z" />
    <glyph glyph-name="Wcircumflex" unicode="&#x174;" horiz-adv-x="1794" 
d="M762 1619l-50 47l321 334h142l219 -335l-55 -48l-242 256zM381 -10l-201 1439l-147 20l10 81h483l-9 -81l-184 -16l163 -1297l74 238l364 912l-15 146l-145 17l9 81h482l-17 -81l-177 -17l99 -997l22 -299l91 262l440 1031l-157 20l9 81h428l-14 -81l-133 -20l-624 -1439
h-161l-103 1077l-429 -1077h-158z" />
    <glyph glyph-name="wcircumflex" unicode="&#x175;" horiz-adv-x="1683" 
d="M674 1228l-46 47l341 375h142l202 -377l-61 -47l-232 297zM212 1163q64 0 88 -32q26 -32 35 -105l79 -715l14 -200l70 179l374 865h144l71 -844l11 -200l130 205q103 153 165 330t67 279q2 40 -14 90t-15 77q-1 27 21 49t57 22q106 0 106 -196q0 -228 -277 -654
l-210 -321l-151 -11l-36 341l-42 484l-7 129l-43 -130l-241 -516l-148 -297l-136 -12l-56 343l-94 656q-8 37 -18 53t-38 16q-26 0 -67 -40l-25 50q18 30 70 68t116 37z" />
    <glyph glyph-name="Ycircumflex" unicode="&#x176;" horiz-adv-x="1167" 
d="M450 1619l-50 47l321 334h142l219 -335l-55 -48l-242 256zM239 0l6 70l213 24l67 492l-339 844l-116 19l8 81h468l-10 -81l-175 -19l220 -608l42 -137l78 137l375 608l-147 19l9 81h412l-12 -81l-113 -18l-547 -845l-67 -492l223 -24l-7 -70h-588z" />
    <glyph glyph-name="ycircumflex" unicode="&#x177;" horiz-adv-x="1051" 
d="M287 1228l-46 47l341 375h142l202 -377l-61 -47l-232 297zM895 1162q110 0 110 -180q1 -80 -17 -141q-18 -62 -28 -96t-31 -85l-33 -78q-12 -26 -40 -82l-36 -72t-40 -74q-31 -58 -34 -64q-226 -450 -367 -619q-48 -68 -137 -122q-88 -54 -192 -54t-193 29l37 127
q5 -5 38 -16q34 -11 61 -17t75 -6q46 0 102 28t119 101q63 72 113 180h-50l-180 1058q-17 70 -48 70q-30 0 -89 -56l-24 49q17 32 75 76t120 45q62 -1 88 -33q24 -32 37 -104l101 -768l26 -281q200 369 310 634q64 153 81 313q5 41 -13 90t-18 77q0 27 21 49t56 22z" />
    <glyph glyph-name="Ydieresis" unicode="&#x178;" horiz-adv-x="1167" 
d="M534 1717q-44 -1 -69 29q-26 30 -24 76t38 80q35 36 79 36t70 -28t24 -74q-2 -47 -38 -83t-80 -36zM954 1717q-44 1 -70 29t-25 74t39 82t81 36t69 -28t24 -74q-2 -47 -38 -83t-80 -36zM239 0l6 70l213 24l67 492l-339 844l-116 19l8 81h468l-10 -81l-175 -19l220 -608
l42 -137l78 137l375 608l-147 19l9 81h412l-12 -81l-113 -18l-547 -845l-67 -492l223 -24l-7 -70h-588z" />
    <glyph glyph-name="Zacute" unicode="&#x179;" horiz-adv-x="1203" 
d="M736 1614l-44 37l282 349l99 -110q-25 -48 -109 -122q-85 -73 -228 -154zM25 0l-22 73l908 1220l125 145l-626 -6l-90 -265l-108 19l56 344h928l21 -69l-926 -1254l-104 -121l690 20l121 272l111 -25l-93 -353h-991z" />
    <glyph glyph-name="zacute" unicode="&#x17a;" horiz-adv-x="1001" 
d="M529 1255l-43 49l322 425l113 -133q-29 -51 -166 -171t-226 -170zM156 13q-57 0 -97 -35l-55 50l645 822l125 147q-410 13 -420 6q-59 -3 -105 -57t-51 -128h-53q-2 82 18 190t53 132t111 23q77 0 259 -18t246 -18t107 36l-1 -4l46 -43l-669 -863l-97 -116q272 -8 426 -8
q155 0 182 186h52q-16 -272 -83 -317q-31 -20 -104 -20t-275 18t-260 17z" />
    <glyph glyph-name="Zdotaccent" unicode="&#x17b;" horiz-adv-x="1203" 
d="M757 1701q-43 -1 -70 29t-25 76t40 80q36 36 79 36t70 -28t25 -74q-2 -47 -40 -83q-36 -36 -79 -36zM25 0l-22 73l908 1220l125 145l-626 -6l-90 -265l-108 19l56 344h928l21 -69l-926 -1254l-104 -121l690 20l121 272l111 -25l-93 -353h-991z" />
    <glyph glyph-name="zdotaccent" unicode="&#x17c;" horiz-adv-x="1001" 
d="M602 1421q-44 0 -70 29t-24 75q2 45 38 81t80 36t70 -28t24 -74q-2 -47 -38 -83t-80 -36zM156 13q-57 0 -97 -35l-55 50l645 822l125 147q-410 13 -420 6q-59 -3 -105 -57t-51 -128h-53q-2 82 18 190t53 132t111 23q77 0 259 -18t246 -18t107 36l-1 -4l46 -43l-669 -863
l-97 -116q272 -8 426 -8q155 0 182 186h52q-16 -272 -83 -317q-31 -20 -104 -20t-275 18t-260 17z" />
    <glyph glyph-name="Zcaron" unicode="&#x17d;" horiz-adv-x="1203" 
d="M664 1614l-222 339l53 47l242 -264l323 264l50 -46l-305 -340h-141zM25 0l-22 73l908 1220l125 145l-626 -6l-90 -265l-108 19l56 344h928l21 -69l-926 -1254l-104 -121l690 20l121 272l111 -25l-93 -353h-991z" />
    <glyph glyph-name="zcaron" unicode="&#x17e;" horiz-adv-x="1001" 
d="M587 1377q293 239 334 273l50 -46l-316 -349h-142l-226 348l54 47zM156 13q-57 0 -97 -35l-55 50l645 822l125 147q-410 13 -420 6q-59 -3 -105 -57t-51 -128h-53q-2 82 18 190t53 132t111 23q77 0 259 -18t246 -18t107 36l-1 -4l46 -43l-669 -863l-97 -116
q272 -8 426 -8q155 0 182 186h52q-16 -272 -83 -317q-31 -20 -104 -20t-275 18t-260 17z" />
    <glyph glyph-name="florin" unicode="&#x192;" horiz-adv-x="1058" 
d="M874 1565q-85 0 -123 -12t-72 -43q-68 -62 -84 -239l-15 -130h324l-9 -108h-324l-165 -1389h-142l165 1389h-227l5 62l230 46l8 67q10 108 55 202q44 94 108 154q135 126 272 126q106 0 138 -17l-9 -136q-50 28 -135 28z" />
    <glyph glyph-name="AEacute" unicode="&#x1fc;" horiz-adv-x="1834" 
d="M1196 1614l-44 37l282 349l99 -110q-25 -48 -109 -122q-85 -73 -228 -154zM439 597h443l108 833l-134 4zM20 93l706 1338l-303 19l11 80h1352l-7 -310h-86l-36 211l-501 12l-86 -603l476 6l-10 -125l-475 13l-84 -640l608 19l113 228l84 -25l-89 -316h-1031l8 69l147 24
l52 407h-479l-202 -406l211 -25l-5 -69h-536l13 69z" />
    <glyph glyph-name="aeacute" unicode="&#x1fd;" horiz-adv-x="1704" 
d="M840 1255l-43 49l322 425l113 -133q-29 -51 -166 -171t-226 -170zM392 94q174 0 318 215q34 50 56 100v28q1 117 36 235l59 339q-61 53 -159 53t-174 -42q-137 -77 -216 -258t-79 -358q0 -312 159 -312zM1457 899q0 170 -151 170q-78 1 -146 -49t-113 -128
q-93 -160 -110 -335q176 6 339 93q79 42 130 108t51 141zM73 396q0 205 115 416q114 211 302 300q106 50 217 50t222 -43l10 9l98 34l-38 -149q154 149 344 149q137 0 207 -70t71 -182q0 -75 -37 -141q-37 -67 -98 -113q-129 -98 -289 -142q-160 -45 -264 -47
q-24 -375 223 -375q90 0 189 40t184 122l38 -68q-55 -74 -174 -140t-264 -66t-234 77t-116 216q-57 -109 -162 -201t-261 -92q-283 0 -283 416z" />
    <glyph glyph-name="uni0218" unicode="&#x218;" horiz-adv-x="1094" 
d="M454 74q66 0 122 16t108 46q50 32 81 88t31 134q0 76 -34 144t-81 111t-113 85t-104 67q-111 76 -176 165t-67 211t60 217q62 96 166 144q103 48 233 48t226 -26t147 -59l-46 -262h-86l-14 197q-81 55 -209 55q-128 1 -216 -49q-104 -58 -104 -205q0 -145 117 -249
q59 -52 133 -98t112 -73q99 -71 156 -157q56 -86 58 -212q2 -125 -65 -228t-181 -155t-248 -52q-134 1 -252 29t-158 59l41 278l94 4l13 -210q41 -27 116 -45q74 -18 140 -18zM324 -147l98 95q62 -18 94 -78t25 -152t-77 -176t-135 -102l-33 33l2 20q86 61 93 186
q3 43 -18 81t-54 49z" />
    <glyph glyph-name="uni0219" unicode="&#x219;" horiz-adv-x="834" 
d="M323 89q234 0 234 173q-1 81 -71 147q-43 40 -102 84q-60 43 -80 61q-166 141 -165 290q1 148 113 234t271 85q73 1 144 -13t100 -28l-33 -135q-14 20 -75 46t-150 26t-149 -41t-67 -120q-11 -108 111 -212q26 -22 98 -76q71 -54 111 -98q96 -103 96 -234
q0 -130 -115 -214t-280 -84q-90 0 -176 20t-113 43l29 121q104 -75 269 -75zM236 -147l98 95q62 -18 94 -78t25 -152t-77 -176t-135 -102l-33 33l2 20q86 61 93 186q3 43 -18 81t-54 49z" />
    <glyph glyph-name="uni021A" unicode="&#x21a;" horiz-adv-x="1235" 
d="M221 0l7 75l241 19l190 1349l-367 -21l-94 -358h-91l81 466h1130l-75 -465l-88 -1l30 359l-365 20l-190 -1349l249 -19l-6 -75h-652zM425 -147l98 95q61 -18 93 -78t26 -152q-8 -92 -78 -176t-134 -102l-33 33l2 20q86 61 93 186q3 43 -18 81t-54 49z" />
    <glyph glyph-name="uni021B" unicode="&#x21b;" horiz-adv-x="706" 
d="M150 147q0 37 11 121l101 775h-124l16 70l127 38q40 56 112 265h76l-33 -261h261l-16 -112h-259l-96 -699q-14 -107 -14 -159q0 -53 20 -73t68 -20q50 0 112 30t100 58l14 -64q-36 -44 -129 -90t-171 -46q-176 0 -176 167zM240 -147l98 95q62 -18 94 -78t25 -152
t-77 -176t-135 -102l-33 33l2 20q86 61 93 186q3 43 -18 81t-54 49z" />
    <glyph glyph-name="dotlessj" unicode="&#x237;" horiz-adv-x="622" 
d="M-102 -518q-106 0 -140 37l28 66q34 -17 89 -17t102 26q87 49 132 169t65 295l109 958l-143 40l14 65l265 42l40 -21l-135 -1140q-30 -254 -142 -387t-284 -133z" />
    <glyph glyph-name="circumflex" unicode="&#x2c6;" horiz-adv-x="795" 
d="M100 1228l-46 47l341 375h142l202 -377l-61 -47l-232 297z" />
    <glyph glyph-name="caron" unicode="&#x2c7;" horiz-adv-x="794" 
d="M385 1377q293 239 334 273l50 -46l-316 -349h-142l-226 348l54 47z" />
    <glyph glyph-name="uni02c9" unicode="&#x2c9;" horiz-adv-x="637" 
d="M50 1756l1 99h536l-1 -99h-536z" />
    <glyph glyph-name="breve" unicode="&#x2d8;" horiz-adv-x="717" 
d="M342 1304q-126 0 -204 98t-79 226q0 15 1 20h85q0 -60 26 -112q57 -114 190 -114t209 158q18 36 24 69h82q1 -15 -2 -32q-13 -117 -109 -215q-97 -98 -223 -98z" />
    <glyph glyph-name="dotaccent" unicode="&#x2d9;" horiz-adv-x="388" 
d="M186 1421q-44 0 -70 29t-24 75q2 45 38 81t80 36t70 -28t24 -74q-2 -47 -38 -83t-80 -36z" />
    <glyph glyph-name="ring" unicode="&#x2da;" horiz-adv-x="722" 
d="M248 1378q50 -56 138 -57t146 47t66 145q8 95 -40 147t-135 53t-149 -47t-68 -140q-8 -92 42 -148zM446 1778q128 0 198 -66t58 -192q-12 -127 -110 -196q-99 -68 -231 -68q-133 0 -203 70t-58 197q12 126 115 191q103 64 231 64z" />
    <glyph glyph-name="ogonek" unicode="&#x2db;" horiz-adv-x="487" 
d="M194 -394q-68 0 -102 36t-33 84q4 88 100 186q55 56 139 108l46 28l16 -43q-70 -63 -112 -117t-41 -105q-4 -85 53 -85q70 0 143 63l20 -69q-96 -86 -229 -86z" />
    <glyph glyph-name="tilde" unicode="&#x2dc;" horiz-adv-x="816" 
d="M276 1650q94 0 156 -73t118 -73t92 37t67 82l47 -74q-26 -75 -92 -125t-127 -50t-95 15t-54 37q-21 22 -40 42q-47 52 -99 52q-70 1 -161 -104l-38 69q34 67 101 116t125 49z" />
    <glyph glyph-name="hungarumlaut" unicode="&#x2dd;" horiz-adv-x="917" 
d="M107 1257l-51 35l237 415l116 -93q-28 -84 -123 -194t-179 -163zM533 1257l-52 35l247 415l116 -94q-26 -79 -129 -197t-182 -159z" />
    <glyph glyph-name="uni0394" unicode="&#x394;" horiz-adv-x="1407" 
d="M115 96h1013l-430 1159zM-21 0l-12 22l766 1486h30l569 -1482l-17 -26h-1336z" />
    <glyph glyph-name="uni03A9" unicode="&#x3a9;" horiz-adv-x="1659" 
d="M943 1545q127 0 245 -43t201 -124q82 -82 120 -206t20 -294t-156 -398t-301 -351h379l91 267l80 -6l-69 -390h-626l-16 104q167 104 301 325t156 487q23 266 -113 402q-135 136 -360 136t-386 -147t-187 -448q-10 -124 18 -250q28 -125 78 -223q107 -204 228 -282
l-33 -104h-629l5 6l11 274l82 84l33 -243h378q-127 89 -237 299q-182 347 -34 684q91 209 291 330q183 111 430 111z" />
    <glyph glyph-name="uni03BC" unicode="&#x3bc;" horiz-adv-x="1364" 
d="M378 1150q58 0 85 -29t19 -117t-28 -219q-28 -182 -45 -285t-19 -195q-3 -215 168 -215q80 0 168 54t146 117l119 879h156l-128 -951q-19 -102 23 -102q29 0 79 46l27 -46q-18 -29 -74 -67t-118 -38t-86 32q-26 32 -15 117q-150 -152 -358 -150q-112 1 -159 77l-65 -430
h-148l109 730q9 64 41 266q47 300 45 380q-1 40 -25 41q-26 0 -72 -43l-27 43q16 29 70 67t112 38z" />
    <glyph glyph-name="pi" unicode="&#x3c0;" horiz-adv-x="1621" 
d="M561 1119h666q81 1 121 19t68 76h103q-14 -84 -61 -134q-46 -50 -110 -68t-154 -18h-22q-66 -480 -89 -626q-23 -144 -25 -178t16 -59q20 -25 64 -26t103 49q60 50 84 135h109q-29 -113 -126 -213t-240 -100q-80 0 -121 46t-38 127q13 160 128 845h-318l-96 -562
q-42 -246 -128 -341t-222 -117l-95 100q143 35 206 117q63 81 95 259q1 6 3 14t3 14l113 516h-76q-78 1 -140 -47t-81 -103l-102 14q-3 52 26 98q100 163 336 163z" />
    <glyph glyph-name="uni1E02" unicode="&#x1e02;" horiz-adv-x="1293" 
d="M718 1701q-43 -1 -70 29q-26 30 -24 76t38 80q36 36 80 36q43 0 70 -28q26 -28 24 -74q-2 -47 -38 -83t-80 -36zM691 746q-165 0 -250 -5l-86 -638q62 -19 204 -19q467 0 463 388q-4 274 -331 274zM674 848q161 0 265 86t102 264q-2 127 -71 190q-70 63 -216 63t-220 -13
l-79 -590h219zM489 1530l283 15q314 0 402 -204q24 -57 26 -123q2 -158 -80 -259t-233 -145q127 -18 215 -108t90 -219t-48 -228t-144 -157q-184 -116 -477 -116l-264 14h-219l7 69l146 25l181 1336l-132 19l10 81h237z" />
    <glyph glyph-name="uni1E03" unicode="&#x1e03;" horiz-adv-x="1147" 
d="M828 1421q-44 0 -70 29t-24 75q2 45 38 81t80 36t70 -28t24 -74q-2 -47 -38 -83t-80 -36zM434 78q102 0 177 42q133 74 208 249t75 340q0 167 -53 253t-151 86t-191 -72q-92 -72 -137 -150l-90 -696q60 -52 162 -52zM718 1163q168 -1 254 -119t86 -296t-74 -349
q-74 -172 -218 -296q-145 -123 -358 -123q-114 0 -229 51l-80 -36l195 1521l-95 34l16 68l209 32l43 -23l-86 -659q57 80 145 138t192 57z" />
    <glyph glyph-name="uni1E0A" unicode="&#x1e0a;" horiz-adv-x="1426" 
d="M819 1701q-43 -1 -70 29t-25 76t40 80q36 36 79 36t70 -28t25 -74q-2 -47 -40 -83q-36 -36 -79 -36zM760 1452q-99 0 -226 -19l-180 -1328l1 1q140 -27 276 -27q116 6 213 56q178 92 274 306q95 214 91 482q-3 269 -113 399t-336 130zM266 0h-227l7 69l147 25l181 1336
l-132 19l10 81h232l321 16q422 0 531 -368q33 -112 35 -254q5 -264 -93 -480t-280 -341t-412 -119q-64 2 -139 9t-181 7z" />
    <glyph glyph-name="uni1E0B" unicode="&#x1e0b;" horiz-adv-x="1170" 
d="M474 1421q-44 0 -71 29t-25 75q2 45 40 81q36 36 80 36t69 -28t23 -74q-2 -47 -38 -83q-34 -36 -78 -36zM436 94q94 0 182 62t140 140l109 716q-63 53 -163 53t-176 -42q-136 -75 -212 -251t-76 -340t50 -251q52 -87 146 -87zM404 -20q-106 0 -182 56q-146 109 -146 376
q0 201 114 408q114 206 304 294q105 48 201 49q96 0 190 -27l58 379l-128 33l17 67l239 35l44 -23l-214 -1469q-16 -140 119 -18l27 -44q-23 -34 -80 -75t-124 -41q-110 0 -104 122q0 37 1 56q-58 -74 -144 -126t-192 -52z" />
    <glyph glyph-name="uni1E1E" unicode="&#x1e1e;" horiz-adv-x="1121" 
d="M763 1701q-43 -1 -70 29t-25 76t40 80q36 36 79 36t70 -28t25 -74q-2 -47 -40 -83q-36 -36 -79 -36zM39 0l7 70l147 24l181 1336l-132 19l10 81h930l-20 -310h-97l-22 207l-506 15l-82 -604l483 8l-10 -128l-487 13l-87 -635l243 -26l-6 -70h-552z" />
    <glyph glyph-name="uni1E1F" unicode="&#x1e1f;" horiz-adv-x="676" 
d="M440 1719q-44 0 -71 29t-25 75q2 45 40 81q36 36 80 36t69 -28t23 -74q-2 -47 -38 -83q-34 -36 -78 -36zM715 1670q98 0 158 -26l-46 -134q-67 44 -149 43t-138 -78q-55 -77 -71 -212l-13 -108h251l-12 -115h-262l-141 -1114q-34 -276 -174 -383q-72 -55 -164 -56
t-164 19l42 124q76 -35 154 -34q115 1 152 277l142 1167h-139l12 61l147 49l14 99q26 175 144 298t257 123z" />
    <glyph glyph-name="uni1E40" unicode="&#x1e40;" horiz-adv-x="1847" 
d="M1059 1701q-43 -1 -70 29t-25 76t40 80q36 36 79 36t70 -28t25 -74q-2 -47 -40 -83q-36 -36 -79 -36zM-61 0l8 70l156 24l365 1336l-188 19l10 81h414l139 -1067l21 -259l99 255l502 1071h381l-9 -81l-179 -19l-61 -1335l162 -25l-7 -70h-510l8 70l180 23l103 1334
l-152 -353l-512 -1078l-100 -14l-149 1068l-42 377l-88 -385l-241 -948l184 -24l-7 -70h-487z" />
    <glyph glyph-name="uni1E41" unicode="&#x1e41;" horiz-adv-x="1880" 
d="M1024 1421q-44 0 -70 29t-24 75q2 45 38 81t80 36t70 -28t24 -74q-2 -47 -38 -83t-80 -36zM829 1163q213 0 223 -261q84 113 194 187t218 74q108 1 168 -71q62 -72 62 -225q0 -82 -46 -337t-52 -350t21 -95q41 0 113 71l27 -44q-38 -59 -104 -96q-66 -36 -116 -36
q-107 0 -103 114q2 68 24 206q22 137 25 156t13 76q38 217 38 321t-30 143t-104 39q-72 0 -172 -76t-180 -187q-10 -105 -36 -267l-68 -505h-158l63 457q44 271 44 387t-29 155q-29 38 -110 38q-80 -1 -192 -85t-193 -205l-100 -747h-155l132 1002l-97 47l14 72l210 42
l40 -20l-26 -255q91 119 209 197t233 78z" />
    <glyph glyph-name="uni1E56" unicode="&#x1e56;" horiz-adv-x="1216" 
d="M846 1701q-43 -1 -70 29q-26 30 -24 76t38 80q36 36 80 36q43 0 70 -28q26 -28 24 -74q-2 -47 -38 -83t-80 -36zM750 1451q-114 0 -214 -21l-110 -773q104 -17 191 -17q441 4 447 503q2 155 -72 231t-242 77zM609 544q-87 0 -195 9l-60 -459l196 -24l-6 -70h-507l7 69
l149 25l181 1336l-135 19l10 81h233l293 17q217 0 333 -97t119 -293q3 -143 -47 -261t-134 -194q-178 -158 -437 -158z" />
    <glyph glyph-name="uni1E57" unicode="&#x1e57;" horiz-adv-x="1147" 
d="M720 1421q-44 0 -71 29t-25 75q2 45 40 81q36 36 80 36t69 -28t23 -74q-2 -47 -38 -83q-34 -36 -78 -36zM448 78q106 0 194 62t140 158q112 201 112 421q0 157 -54 243t-146 86t-178 -60q-85 -60 -136 -138l-100 -726q62 -46 168 -46zM718 1163q168 -1 254 -119t86 -318
t-113 -406q-113 -207 -299 -292q-104 -48 -200 -48t-183 24l-72 -524h-151l206 1537l-108 40l14 64l229 42l39 -20l-21 -153q57 73 140 123t179 50z" />
    <glyph glyph-name="uni1E60" unicode="&#x1e60;" horiz-adv-x="1094" 
d="M717 1701q-43 -1 -70 29t-25 76t40 80q36 36 79 36t70 -28t25 -74q-2 -47 -40 -83q-36 -36 -79 -36zM454 74q66 0 122 16t108 46q50 32 81 88t31 134q0 76 -34 144t-81 111t-113 85t-104 67q-111 76 -176 165t-67 211t60 217q62 96 166 144q103 48 233 48t226 -26
t147 -59l-46 -262h-86l-14 197q-81 55 -209 55q-128 1 -216 -49q-104 -58 -104 -205q0 -145 117 -249q59 -52 133 -98t112 -73q99 -71 156 -157q56 -86 58 -212q2 -125 -65 -228t-181 -155t-248 -52q-134 1 -252 29t-158 59l41 278l94 4l13 -210q41 -27 116 -45
q74 -18 140 -18z" />
    <glyph glyph-name="uni1E61" unicode="&#x1e61;" horiz-adv-x="834" 
d="M546 1421q-44 0 -71 29t-25 75q2 45 40 81q36 36 80 36t69 -28t23 -74q-2 -47 -38 -83q-34 -36 -78 -36zM323 89q234 0 234 173q-1 81 -71 147q-43 40 -102 84q-60 43 -80 61q-166 141 -165 290q1 148 113 234t271 85q73 1 144 -13t100 -28l-33 -135q-14 20 -75 46
t-150 26t-149 -41t-67 -120q-11 -108 111 -212q26 -22 98 -76q71 -54 111 -98q96 -103 96 -234q0 -130 -115 -214t-280 -84q-90 0 -176 20t-113 43l29 121q104 -75 269 -75z" />
    <glyph glyph-name="uni1E6A" unicode="&#x1e6a;" horiz-adv-x="1235" 
d="M770 1701q-43 -1 -70 29q-26 30 -24 76t38 80q36 36 80 36q43 0 70 -28q26 -28 24 -74q-2 -47 -38 -83t-80 -36zM221 0l7 75l241 19l190 1349l-367 -21l-94 -358h-91l81 466h1130l-75 -465l-88 -1l30 359l-365 20l-190 -1349l249 -19l-6 -75h-652z" />
    <glyph glyph-name="uni1E6B" unicode="&#x1e6b;" horiz-adv-x="706" 
d="M440 1526q-44 0 -70 29t-24 75t38 82t80 35q44 1 70 -27t24 -75t-38 -83t-80 -36zM150 147q0 37 11 121l101 775h-124l16 70l127 38q40 56 112 265h76l-33 -261h261l-16 -112h-259l-96 -699q-14 -107 -14 -159q0 -53 20 -73t68 -20q50 0 112 30t100 58l14 -64
q-36 -44 -129 -90t-171 -46q-176 0 -176 167z" />
    <glyph glyph-name="Wgrave" unicode="&#x1e80;" horiz-adv-x="1794" 
d="M1089 1614q-100 57 -199 133t-132 143l106 110l271 -349zM381 -10l-201 1439l-147 20l10 81h483l-9 -81l-184 -16l163 -1297l74 238l364 912l-15 146l-145 17l9 81h482l-17 -81l-177 -17l99 -997l22 -299l91 262l440 1031l-157 20l9 81h428l-14 -81l-133 -20l-624 -1439
h-161l-103 1077l-429 -1077h-158z" />
    <glyph glyph-name="wgrave" unicode="&#x1e81;" horiz-adv-x="1683" 
d="M986 1255q-84 53 -212 165t-165 176l121 133l300 -425zM212 1163q64 0 88 -32q26 -32 35 -105l79 -715l14 -200l70 179l374 865h144l71 -844l11 -200l130 205q103 153 165 330t67 279q2 40 -14 90t-15 77q-1 27 21 49t57 22q106 0 106 -196q0 -228 -277 -654l-210 -321
l-151 -11l-36 341l-42 484l-7 129l-43 -130l-241 -516l-148 -297l-136 -12l-56 343l-94 656q-8 37 -18 53t-38 16q-26 0 -67 -40l-25 50q18 30 70 68t116 37z" />
    <glyph glyph-name="Wacute" unicode="&#x1e82;" horiz-adv-x="1794" 
d="M1036 1614l-44 37l282 349l99 -110q-25 -48 -109 -122q-85 -73 -228 -154zM381 -10l-201 1439l-147 20l10 81h483l-9 -81l-184 -16l163 -1297l74 238l364 912l-15 146l-145 17l9 81h482l-17 -81l-177 -17l99 -997l22 -299l91 262l440 1031l-157 20l9 81h428l-14 -81
l-133 -20l-624 -1439h-161l-103 1077l-429 -1077h-158z" />
    <glyph glyph-name="wacute" unicode="&#x1e83;" horiz-adv-x="1683" 
d="M929 1255l-43 49l322 425l113 -133q-29 -51 -166 -171t-226 -170zM212 1163q64 0 88 -32q26 -32 35 -105l79 -715l14 -200l70 179l374 865h144l71 -844l11 -200l130 205q103 153 165 330t67 279q2 40 -14 90t-15 77q-1 27 21 49t57 22q106 0 106 -196q0 -228 -277 -654
l-210 -321l-151 -11l-36 341l-42 484l-7 129l-43 -130l-241 -516l-148 -297l-136 -12l-56 343l-94 656q-8 37 -18 53t-38 16q-26 0 -67 -40l-25 50q18 30 70 68t116 37z" />
    <glyph glyph-name="Wdieresis" unicode="&#x1e84;" horiz-adv-x="1794" 
d="M846 1717q-44 -1 -69 29q-26 30 -24 76t38 80q35 36 79 36t70 -28t24 -74q-2 -47 -38 -83t-80 -36zM1266 1717q-44 1 -70 29t-25 74t39 82t81 36t69 -28t24 -74q-2 -47 -38 -83t-80 -36zM381 -10l-201 1439l-147 20l10 81h483l-9 -81l-184 -16l163 -1297l74 238l364 912
l-15 146l-145 17l9 81h482l-17 -81l-177 -17l99 -997l22 -299l91 262l440 1031l-157 20l9 81h428l-14 -81l-133 -20l-624 -1439h-161l-103 1077l-429 -1077h-158z" />
    <glyph glyph-name="wdieresis" unicode="&#x1e85;" horiz-adv-x="1683" 
d="M787 1406q-45 0 -71 30t-24 76t38 80q34 34 79 35t71 -27t25 -74q-2 -46 -38 -84q-36 -36 -80 -36zM1208 1406q-44 0 -70 30t-24 76t36 80t80 35q46 0 72 -27t24 -74q-2 -48 -38 -84t-80 -36zM212 1163q64 0 88 -32q26 -32 35 -105l79 -715l14 -200l70 179l374 865h144
l71 -844l11 -200l130 205q103 153 165 330t67 279q2 40 -14 90t-15 77q-1 27 21 49t57 22q106 0 106 -196q0 -228 -277 -654l-210 -321l-151 -11l-36 341l-42 484l-7 129l-43 -130l-241 -516l-148 -297l-136 -12l-56 343l-94 656q-8 37 -18 53t-38 16q-26 0 -67 -40l-25 50
q18 30 70 68t116 37z" />
    <glyph glyph-name="Ygrave" unicode="&#x1ef2;" horiz-adv-x="1167" 
d="M777 1614q-100 57 -199 133t-132 143l106 110l271 -349zM239 0l6 70l213 24l67 492l-339 844l-116 19l8 81h468l-10 -81l-175 -19l220 -608l42 -137l78 137l375 608l-147 19l9 81h412l-12 -81l-113 -18l-547 -845l-67 -492l223 -24l-7 -70h-588z" />
    <glyph glyph-name="ygrave" unicode="&#x1ef3;" horiz-adv-x="1051" 
d="M599 1255q-85 53 -213 165t-164 176l121 133l300 -425zM895 1162q110 0 110 -180q1 -80 -17 -141q-18 -62 -28 -96t-31 -85l-33 -78q-12 -26 -40 -82l-36 -72t-40 -74q-31 -58 -34 -64q-226 -450 -367 -619q-48 -68 -137 -122q-88 -54 -192 -54t-193 29l37 127
q5 -5 38 -16q34 -11 61 -17t75 -6q46 0 102 28t119 101q63 72 113 180h-50l-180 1058q-17 70 -48 70q-30 0 -89 -56l-24 49q17 32 75 76t120 45q62 -1 88 -33q24 -32 37 -104l101 -768l26 -281q200 369 310 634q64 153 81 313q5 41 -13 90t-18 77q0 27 21 49t56 22z" />
    <glyph glyph-name="endash" unicode="&#x2013;" horiz-adv-x="1548" 
d="M238 710l24 126h1102l-24 -126h-1102z" />
    <glyph glyph-name="emdash" unicode="&#x2014;" horiz-adv-x="2043" 
d="M238 710l23 126h1597l-23 -126h-1597z" />
    <glyph glyph-name="quoteleft" unicode="&#x2018;" horiz-adv-x="682" 
d="M217 1221q1 67 23 137q41 128 138 218q97 91 219 145l34 -57l-2 -17q-85 -31 -161 -139t-76 -227q0 -71 32 -126t91 -67l-4 -33l-116 -118q-63 17 -105 64t-58 100t-15 120z" />
    <glyph glyph-name="quoteright" unicode="&#x2019;" horiz-adv-x="682" 
d="M645 1436q-1 -66 -23 -136q-41 -128 -138 -219t-219 -145l-34 57l2 17q85 30 161 138t76 228q0 71 -32 126t-91 67l4 33l116 118q63 -17 105 -64t58 -100t15 -120z" />
    <glyph glyph-name="quotesinglbase" unicode="&#x201a;" horiz-adv-x="682" 
d="M461 -3q-1 -67 -23 -137q-41 -128 -138 -218q-97 -91 -219 -145l-34 57l2 17q85 31 161 139t76 227q0 71 -32 126t-91 67l4 33l116 118q63 -17 105 -64t58 -100t15 -120z" />
    <glyph glyph-name="quotereversed" unicode="&#x201b;" horiz-adv-x="682" 
d="M238 1298q0 130 89 256q89 124 235 166l69 -118l-8 -33q-55 -11 -101 -48t-73 -87q-57 -104 -57 -192t33 -149q33 -62 81 -82l-4 -18l-56 -57q-90 46 -149 139t-59 223z" />
    <glyph glyph-name="quotedblleft" unicode="&#x201c;" horiz-adv-x="1161" 
d="M217 1221q1 67 23 137q41 128 138 218q97 91 219 145l34 -57l-2 -17q-85 -31 -161 -139t-76 -227q0 -71 32 -126t91 -67l-4 -33l-116 -118q-63 17 -105 64t-58 100t-15 120zM696 1221q0 67 22 137q41 128 139 218q97 91 219 145l34 -57l-2 -17q-85 -31 -161 -139
t-76 -227q1 -71 33 -126t90 -67l-4 -33l-116 -118q-63 17 -105 64q-41 47 -57 100t-16 120z" />
    <glyph glyph-name="quotedblright" unicode="&#x201d;" horiz-adv-x="1161" 
d="M645 1436q-1 -66 -23 -136q-41 -128 -138 -219t-219 -145l-34 57l2 17q85 30 161 138t76 228q0 71 -32 126t-91 67l4 33l116 118q63 -17 105 -64t58 -100t15 -120zM1124 1436q0 -66 -22 -136q-41 -128 -139 -219q-97 -91 -219 -145l-34 57l2 17q85 30 161 138t76 228
q-1 71 -33 126t-90 67l4 33l116 118q63 -17 105 -64q41 -47 57 -100t16 -120z" />
    <glyph glyph-name="quotedblbase" unicode="&#x201e;" horiz-adv-x="1161" 
d="M940 -3q0 -67 -22 -137q-41 -128 -139 -218q-97 -91 -219 -145l-34 57l2 17q85 31 161 139t76 227q-1 71 -33 126t-90 67l4 33l116 118q63 -17 105 -64q41 -47 57 -100t16 -120zM461 -3q-1 -67 -23 -137q-41 -128 -138 -218q-97 -91 -219 -145l-34 57l2 17q85 31 161 139
t76 227q0 71 -32 126t-91 67l4 33l116 118q63 -17 105 -64t58 -100t15 -120z" />
    <glyph glyph-name="dagger" unicode="&#x2020;" horiz-adv-x="816" 
d="M292 151l105 857l28 135h-286l17 120h303l12 206l24 177h151l-29 -177l-57 -206h294l-17 -120h-277l-9 -135l-165 -857h-94z" />
    <glyph glyph-name="daggerdbl" unicode="&#x2021;" horiz-adv-x="816" 
d="M296 -51l46 561l29 148l-230 1l19 120h238l7 208l43 156h-256l19 120h273l5 206l23 177h152l-28 -177l-51 -206h258l-18 -120h-249q-11 -107 -10 -155l-58 -209h248l-17 -120l-232 -1q1 -44 -12 -148l-104 -561h-95z" />
    <glyph glyph-name="bullet" unicode="&#x2022;" horiz-adv-x="858" 
d="M426 548q-70 0 -112 42t-41 108q0 68 63 134q62 66 132 66t110 -40t41 -106q0 -68 -62 -136q-61 -68 -131 -68z" />
    <glyph glyph-name="ellipsis" unicode="&#x2026;" horiz-adv-x="1578" 
d="M244 210q50 0 73 -28t17 -81q-6 -51 -46 -85q-39 -34 -86 -34q-48 0 -72 28t-17 80t43 86q38 34 88 34zM770 210q50 0 73 -28t17 -81q-6 -51 -46 -85q-39 -34 -86 -34q-48 0 -72 28t-17 80t43 86q38 34 88 34zM1296 210q50 0 73 -28t17 -81q-6 -51 -46 -85
q-39 -34 -86 -34q-48 0 -72 28t-17 80t43 86q38 34 88 34z" />
    <glyph glyph-name="perthousand" unicode="&#x2030;" horiz-adv-x="2708" 
d="M1583 498q0 219 -156 219q-79 -1 -139 -57q-116 -108 -116 -284q0 -105 42 -167t112 -62q131 0 194 116q63 117 63 235zM1036 358q0 122 52 220t150 159q96 62 224 62t196 -79t68 -203q0 -123 -50 -223t-145 -165q-96 -65 -223 -65q-128 0 -200 86t-72 208zM747 1179
q0 219 -156 219q-79 0 -139 -56q-116 -108 -116 -285q0 -105 42 -167t112 -62q131 0 194 116q63 117 63 235zM472 745q-128 1 -200 87t-72 208t52 218q52 98 150 160q96 62 224 62t196 -79t68 -203t-50 -224t-145 -164q-96 -65 -223 -65zM410 0l947 1530h129l-947 -1530
h-129zM2371 498q0 219 -156 219q-79 -1 -139 -57q-116 -108 -116 -284q0 -105 42 -167t112 -62q131 0 194 116q63 117 63 235zM1824 358q0 122 52 220t150 159q96 62 224 62t196 -79t68 -203q0 -123 -50 -223t-145 -165q-96 -65 -223 -65q-128 0 -200 86t-72 208z" />
    <glyph glyph-name="minute" unicode="&#x2032;" horiz-adv-x="623" 
d="M308 1190l89 592h164l-142 -592h-111z" />
    <glyph glyph-name="second" unicode="&#x2033;" horiz-adv-x="1010" 
d="M696 1190l89 592h164l-142 -592h-111zM308 1190l89 592h164l-142 -592h-111z" />
    <glyph glyph-name="guilsinglleft" unicode="&#x2039;" horiz-adv-x="1190" 
d="M244 547l18 127l694 412l31 -93l-550 -379l447 -372l-56 -90z" />
    <glyph glyph-name="guilsinglright" unicode="&#x203a;" horiz-adv-x="1190" 
d="M877 691l-18 -127l-694 -412l-31 93l550 379l-447 372l56 90z" />
    <glyph glyph-name="exclamdbl" unicode="&#x203c;" horiz-adv-x="1303" 
d="M917 210q51 0 74 -28t17 -80t-50 -86q-42 -34 -89 -34t-75 28t-21 79q5 51 49 86t95 35zM886 488l147 1290h195l-231 -1290h-111zM301 210q51 0 74 -28t17 -80t-50 -86q-42 -34 -89 -34t-75 28t-21 79q5 51 49 86t95 35zM270 488l147 1290h195l-231 -1290h-111z" />
    <glyph glyph-name="fraction" unicode="&#x2044;" horiz-adv-x="1026" 
d="M105 0l681 1530h132l-681 -1530h-132z" />
    <glyph glyph-name="foursuperior" unicode="&#x2074;" horiz-adv-x="1209" 
d="M651 475l48 348h-519l-30 77l610 864l70 1l74 -83l-602 -772l413 26l41 293l161 21l-41 -304l265 17l-15 -140h-267l-46 -348h-162z" />
    <glyph glyph-name="Euro" unicode="&#x20ac;" horiz-adv-x="1388" 
d="M933 1546q130 0 193 -18t117 -35t72 -21l-51 -218h-87l-16 125q-84 71 -259 71t-289 -114t-170 -316h587l-17 -106h-594q-21 -112 -24 -240h565l-10 -106h-556q13 -489 336 -489q106 0 188 24t116 66l63 171l97 -1l-46 -269q-31 -1 -126 -26q-180 -60 -297 -60t-197 33
q-144 60 -213 209q-69 150 -79 342h-210l12 106h196q3 130 28 240h-171l16 106h185q82 242 256 384t385 142z" />
    <glyph glyph-name="uni2113" unicode="&#x2113;" horiz-adv-x="1214" 
d="M944 1437q0 47 -23 79t-61 33q-106 1 -216 -169t-178 -416t-68 -463q0 -58 4 -98q262 267 402 533t140 501zM293 549q1 154 47 365t124 381q78 169 192 277t236 108q84 0 132 -62t48 -188q0 -124 -50 -278t-140 -301q-177 -286 -464 -551q26 -114 76 -176t106 -63
q88 0 170 101t105 256l130 -20q-38 -180 -144 -304t-261 -123q-94 0 -164 64t-107 184q-91 -79 -181 -148l-62 47q112 89 222 193q-15 84 -15 238z" />
    <glyph glyph-name="afii61352" unicode="&#x2116;" horiz-adv-x="2496" 
d="M1517 0l11 119h773l-11 -119h-773zM1838 1355q-84 -93 -101 -284t45 -305t187 -112q124 2 207 97t100 285q16 190 -46 303t-185 111t-207 -95zM28 0l5 69l162 23l138 1334l-159 19l6 79h355l466 -1039l123 -319l119 1260l-173 19l6 79h478l-6 -79l-179 -19l-143 -1426
h-179l-482 1080l-120 262l-119 -1250l198 -23l-5 -69h-491zM2060 1533q194 -1 295 -131t79 -353q-28 -276 -236 -407q-113 -71 -244 -71q-194 1 -296 133t-79 355q28 277 237 404q115 70 244 70z" />
    <glyph glyph-name="trademark" unicode="&#x2122;" horiz-adv-x="2120" 
d="M220 754l9 62l143 14l86 623l-194 -10l-59 -147l-54 -1l52 235h676l-32 -233l-52 -4l-1 151l-199 11l-86 -624l147 -15l-9 -62h-427zM861 754l9 62l114 13l113 625l-102 8l9 68h295l161 -603l300 603h292l-9 -68l-109 -8l-27 -625l109 -13l-9 -62h-348l9 62l113 13
l23 388l19 238l-356 -709h-86l-199 712l-108 -629l107 -13l-9 -62h-311z" />
    <glyph glyph-name="Omega" unicode="&#x2126;" horiz-adv-x="1659" 
d="M943 1545q127 0 245 -43t201 -124q82 -82 120 -206t20 -294t-156 -398t-301 -351h379l91 267l80 -6l-69 -390h-626l-16 104q167 104 301 325t156 487q23 266 -113 402q-135 136 -360 136t-386 -147t-187 -448q-10 -124 18 -250q28 -125 78 -223q107 -204 228 -282
l-33 -104h-629l5 6l11 274l82 84l33 -243h378q-127 89 -237 299q-182 347 -34 684q91 209 291 330q183 111 430 111z" />
    <glyph glyph-name="estimated" unicode="&#x212e;" horiz-adv-x="1367" 
d="M727 1261q-260 0 -384 -198v-322l716 1v373q-102 146 -332 146zM751 78q99 0 205 30t168 65l31 -91q-61 -44 -186 -71t-236 -27q-295 0 -459 182t-164 505q0 413 281 591q143 90 346 94q145 3 265 -59q120 -61 194 -183t79 -282q0 -150 -11 -201h-921v-363
q122 -190 408 -190z" />
    <glyph glyph-name="partialdiff" unicode="&#x2202;" horiz-adv-x="1364" 
d="M610 78q78 0 133 19t95 50t73 78q120 171 151 520q-52 75 -138 125t-196 49q-110 1 -209 -77q-177 -140 -185 -365q-8 -224 128 -340q70 -59 148 -59zM274 1551q158 131 402 131q112 0 212 -48q98 -48 158 -120t100 -170q70 -172 69 -373q0 -469 -166 -732t-472 -263
q-115 0 -209 66t-141 167t-42 221t61 235t142 192t188 121q103 44 197 44q177 0 300 -111q7 363 -135 535q-114 138 -332 138q-130 0 -267 -88z" />
    <glyph glyph-name="Delta" unicode="&#x2206;" horiz-adv-x="1407" 
d="M115 96h1013l-430 1159zM-21 0l-12 22l766 1486h30l569 -1482l-17 -26h-1336z" />
    <glyph glyph-name="product" unicode="&#x220f;" horiz-adv-x="1561" 
d="M156 1522h1337v-79l-170 -18v-1504l174 -25v-68h-510v68l179 25v1504h-683v-1504l178 -25v-68h-509v68l174 25v1504l-170 18v79z" />
    <glyph glyph-name="summation" unicode="&#x2211;" horiz-adv-x="1591" 
d="M230 -129l567 808l-567 778l25 65h1064l27 -284h-97l-54 186l-780 14l554 -744l-557 -778l782 16l91 226l87 -19l-48 -311l-1073 1z" />
    <glyph glyph-name="minus" unicode="&#x2212;" horiz-adv-x="1270" 
d="M238 709l14 127h834l-15 -127h-833z" />
    <glyph glyph-name="uni2215" unicode="&#x2215;" horiz-adv-x="854" 
d="M-20 -363l775 1962h119l-775 -1962h-119z" />
    <glyph glyph-name="uni2219" unicode="&#x2219;" horiz-adv-x="686" 
d="M364 856q50 0 73 -28t17 -81q-6 -51 -46 -85q-39 -34 -86 -34q-48 0 -72 28t-17 80t43 86q38 34 88 34z" />
    <glyph glyph-name="radical" unicode="&#x221a;" horiz-adv-x="1587" 
d="M276 576l-147 -86l-47 88l189 131h149l247 -874l831 2082h163l-937 -2270h-152z" />
    <glyph glyph-name="infinity" unicode="&#x221e;" horiz-adv-x="1884" 
d="M1360 330q162 0 202 180q10 46 11 98q0 108 -57 196t-181 88q-152 0 -324 -246q92 -143 144 -201q104 -115 205 -115zM575 334q141 0 306 252q-7 10 -30 48t-33 53q-10 16 -35 50q-24 34 -40 51q-57 61 -100 84q-44 24 -95 24q-109 0 -171 -80t-62 -192t70 -201t190 -89z
M174 597q0 169 114 283t285 114q125 0 215 -80t172 -195q68 113 174 193t208 82q198 3 285 -106t87 -266q0 -158 -107 -270t-287 -112q-125 0 -216 81t-173 194q-95 -160 -224 -233q-129 -72 -288 -24q-119 36 -182 131t-63 208z" />
    <glyph glyph-name="integral" unicode="&#x222b;" horiz-adv-x="1058" 
d="M334 -421q135 0 194 89t59 286t-94 492l-78 244q-94 294 -94 465t49 287q48 116 144 187t225 71t211 -71q36 -31 54 -76l-103 -73q-7 39 -61 81t-129 42q-141 0 -197 -91t-56 -286t94 -489l78 -244q94 -294 94 -466q0 -171 -49 -287t-145 -187t-226 -71t-208 70
q-36 32 -55 77l102 73q16 -44 69 -84t122 -39z" />
    <glyph glyph-name="approxequal" unicode="&#x2248;" horiz-adv-x="1026" 
d="M748 882q125 0 210 128l58 -60q-23 -77 -107 -139t-191 -62q-50 -1 -100 27t-83 60q-89 87 -158 88q-132 0 -218 -128l-57 60q24 70 112 136t179 65q91 1 166 -61q31 -26 61 -52q70 -62 128 -62zM695 436q125 0 210 128l58 -60q-23 -77 -107 -139t-191 -62
q-51 -1 -101 27t-82 60q-89 87 -158 88q-132 0 -218 -128l-57 60q24 70 112 136t179 65q91 1 166 -61l60 -52q70 -62 129 -62z" />
    <glyph glyph-name="notequal" unicode="&#x2260;" horiz-adv-x="1026" 
d="M159 0l164 355h-241l14 125h284l178 385h-406l14 125h449l155 334h127l-154 -334h238l-14 -125h-282l-178 -385h404l-14 -125h-447l-164 -355h-127z" />
    <glyph glyph-name="lessequal" unicode="&#x2264;" horiz-adv-x="1364" 
d="M137 -2l15 120h948l-15 -120h-948zM198 698l7 62l1000 444l-17 -147l-785 -329l705 -337l-16 -145z" />
    <glyph glyph-name="greaterequal" unicode="&#x2265;" horiz-adv-x="1364" 
d="M146 -2l16 120h948l-16 -120h-948zM204 246l19 146l793 336l-699 330l19 146l885 -444l-8 -62z" />
    <glyph glyph-name="lozenge" unicode="&#x25ca;" horiz-adv-x="1364" 
d="M679 120l372 597l-369 599l-371 -597zM606 0l-444 695v46l444 695h151l444 -695v-46l-444 -695h-151z" />
    <glyph glyph-name="CR" unicode="&#xe001;" 
 />
    <glyph glyph-name="commaaccent" unicode="&#xf6c3;" horiz-adv-x="367" 
d="M62 -147l98 95q62 -18 94 -78t25 -152t-77 -176t-135 -102l-33 33l2 20q86 61 93 186q3 43 -18 81t-54 49z" />
    <glyph glyph-name="grave.cap" horiz-adv-x="522" 
d="M408 1614q-100 57 -199 133t-132 143l106 110l271 -349z" />
    <glyph glyph-name="dieresis.cap" horiz-adv-x="806" 
d="M177 1717q-43 -1 -69 29t-24 76t38 80q36 36 80 36t69 -28q26 -28 24 -74q-3 -47 -39 -83t-79 -36zM598 1717q-44 1 -70 29t-26 74q1 46 39 82t81 36t69 -28t24 -74q-2 -47 -38 -83q-35 -36 -79 -36z" />
    <glyph glyph-name="acute.cap" horiz-adv-x="527" 
d="M115 1614l-44 37l282 349l99 -110q-25 -48 -109 -122q-85 -73 -228 -154z" />
    <glyph glyph-name="circumflex.cap" horiz-adv-x="794" 
d="M105 1619l-50 47l321 334h142l219 -335l-55 -48l-242 256z" />
    <glyph glyph-name="caron.cap" horiz-adv-x="792" 
d="M304 1614l-222 339l53 47l242 -264l323 264l50 -46l-305 -340h-141z" />
    <glyph glyph-name="breve.cap" horiz-adv-x="715" 
d="M342 1635q-126 -1 -204 97t-79 227q0 14 1 20h85q0 -94 58 -161q58 -66 149 -66q142 0 218 158q18 36 24 69h82q1 -14 -2 -32q-13 -116 -109 -214q-97 -98 -223 -98z" />
    <glyph glyph-name="dotaccent.cap" horiz-adv-x="389" 
d="M182 1701q-43 -1 -70 29q-26 30 -24 76t38 80q36 36 80 36q43 0 70 -28q26 -28 24 -74q-2 -47 -38 -83t-80 -36z" />
    <glyph glyph-name="ring.cap" horiz-adv-x="722" 
d="M219 1602q51 -54 135 -56t143 44t66 139t-41 143t-132 52q-85 0 -146 -45t-68 -133t43 -144zM414 1990q126 0 196 -65t61 -166t-61 -163q-99 -116 -255 -115q-156 0 -227 69t-59 193t116 185q104 62 229 62z" />
    <glyph glyph-name="tilde.cap" horiz-adv-x="813" 
d="M281 1965q95 0 155 -73q61 -73 118 -73q56 0 93 38t66 81l48 -75q-25 -73 -92 -123t-128 -51q-61 0 -95 15t-54 36q-21 20 -40 42q-45 51 -106 53q-62 1 -153 -104l-39 69q35 67 102 116t125 49z" />
    <glyph glyph-name="hungarumlaut.cap" horiz-adv-x="922" 
d="M110 1584l-44 36l312 375l105 -94q-37 -75 -149 -165t-224 -152zM523 1585l-44 36l312 375l108 -94q-47 -78 -161 -173t-215 -144z" />
    <glyph glyph-name="caronvertical" horiz-adv-x="315" 
d="M245 1045l-49 24l-5 20q97 273 71 437q-10 60 -26 83l15 34l124 37q47 -51 31 -202q-29 -272 -161 -433z" />
    <glyph glyph-name="macron.cap" horiz-adv-x="614" 
d="M50 1745l4 119h510l-5 -119h-509z" />
    <glyph glyph-name="i.cy" horiz-adv-x="625" 
d="M418 1421q-44 0 -71 29t-25 75q2 45 40 81q36 36 80 36t69 -28t23 -74q-2 -47 -38 -83q-34 -36 -78 -36zM348 85q40 0 108 71l27 -44q-25 -40 -85 -86t-133 -46q-120 0 -109 119q7 99 62 470q56 370 67 447l-137 40l14 65l258 42l41 -21l-141 -984q-4 -35 4 -54t24 -19z
" />
    <glyph glyph-name="i.dot" horiz-adv-x="625" 
d="M418 1421q-44 0 -71 29t-25 75q2 45 40 81q36 36 80 36t69 -28t23 -74q-2 -47 -38 -83q-34 -36 -78 -36zM348 85q40 0 108 71l27 -44q-25 -40 -85 -86t-133 -46q-120 0 -109 119q7 99 62 470q56 370 67 447l-137 40l14 65l258 42l41 -21l-141 -984q-4 -35 4 -54t24 -19z
" />
    <glyph glyph-name="i.uc" horiz-adv-x="717" 
d="M528 1701q-43 -1 -70 29q-26 30 -24 76t38 80q36 36 80 36q43 0 70 -28q26 -28 24 -74q-2 -47 -38 -83t-80 -36zM54 0l7 69l149 25l180 1336l-135 19l10 81h445l-8 -81l-151 -19l-180 -1336l156 -24l-7 -70h-466z" />
    <glyph glyph-name="fi_trk" horiz-adv-x="1301" 
d="M1094 1421q-44 0 -71 29t-25 75q2 45 40 81q36 36 80 36t69 -28t23 -74q-2 -47 -38 -83q-34 -36 -78 -36zM1024 85q40 0 108 71l27 -44q-25 -40 -85 -86t-133 -46q-120 0 -109 119q7 99 62 470q56 370 67 447l-137 40l14 65l258 42l41 -21l-141 -984q-4 -35 4 -54t24 -19
zM715 1670q98 0 158 -26l-46 -134q-67 44 -149 43t-138 -78q-55 -77 -71 -212l-13 -108h251l-12 -115h-262l-141 -1114q-34 -276 -174 -383q-72 -55 -164 -56t-164 19l42 124q76 -35 154 -34q115 1 152 277l142 1167h-139l12 61l147 49l14 99q26 175 144 298t257 123z" />
    <glyph glyph-name="ffi_dflt" horiz-adv-x="1977" 
d="M1770 1421q-44 0 -71 29t-25 75q2 45 40 81q36 36 80 36t69 -28t23 -74q-2 -47 -38 -83q-34 -36 -78 -36zM1700 85q40 0 108 71l27 -44q-25 -40 -85 -86t-133 -46q-120 0 -109 119q7 99 62 470q56 370 67 447l-137 40l14 65l258 42l41 -21l-141 -984q-4 -35 4 -54t24 -19
zM1391 1670q98 0 158 -26l-46 -134q-67 44 -149 43t-138 -78q-55 -77 -71 -212l-13 -108h251l-12 -115h-262l-141 -1114q-34 -276 -174 -383q-72 -55 -164 -56t-164 19l42 124q76 -35 154 -34q115 1 152 277l142 1167h-139l12 61l147 49l14 99q26 175 144 298t257 123z
M715 1670q98 0 158 -26l-46 -134q-67 44 -149 43t-138 -78q-55 -77 -71 -212l-13 -108h251l-12 -115h-262l-141 -1114q-34 -276 -174 -383q-72 -55 -164 -56t-164 19l42 124q76 -35 154 -34q115 1 152 277l142 1167h-139l12 61l147 49l14 99q26 175 144 298t257 123z" />
    </font>
</defs>
</svg>
